<svg width="364" height="64" viewBox="0 0 364 64" fill="none" xmlns="http://www.w3.org/2000/svg">
<rect width="364" height="64" fill="#E5E5E5"/>
<g id="Back to school_EN">
<rect width="1920" height="64" fill="url(#paint0_radial_0_1)"/>
<g id="Frame 40521" clip-path="url(#clip0_0_1)">
<rect width="364" height="64" fill="url(#paint1_linear_0_1)"/>
<g id="Group 1587145767">
<g id="Vector" opacity="0.1" style="mix-blend-mode:plus-darker">
<path d="M88.4204 0H-74.8708C-74.2012 3.10426 -73.8611 4.89326 -75.0202 8.03066C-78.048 16.2256 -84.9294 22.0486 -90.4155 28.5213C-91.0952 29.3231 -91.0716 30.2631 -90.8926 31.2088C-89.4737 32.9561 -85.7245 33.7578 -83.5805 34.1415C-57.8749 38.7408 -68.5 98 -22.3366 75.069C-21.2084 77.0401 -21.2111 79.8824 -20.2713 81.7029C-18.3052 85.5111 -15.479 88.9555 -13.0456 92.4817C-11.9453 94.0759 -10.1642 97.1826 -8.43471 98C-8.55618 96.3865 -15.9357 86.3359 -16.076 83.5457C-16.1167 82.7354 -16.1598 82.452 -16.0864 82.2034C-15.9962 81.8981 -15.7301 81.6451 -15.0669 80.5312C-15.8583 81.2287 -15.8122 81.3584 -16.7668 81.6181C-16.9926 80.8122 -16.4761 79.2068 -16.0198 77.7889C-15.758 76.9743 -15.5157 76.2217 -15.4457 75.7181C-15.2381 74.2276 -15.2317 72.3473 -15.2035 70.8278C-12.6845 71.6978 -8.62819 74.9683 -5.8643 76.4791C3.4954 81.5948 15.7203 86.4582 26.4104 86.5C37.608 86.5443 33.974 68.3267 32.5453 61.61C32.405 60.9517 32.8918 60.5049 33.3128 60.1192C33.3696 60.0668 33.4252 60.0158 33.478 59.9655C34.6934 59.595 35.723 59.8766 36.9169 60.2029C37.1676 60.2715 37.4256 60.3421 37.6942 60.4089C43.6392 63.6035 64.8664 66.6828 71.2193 63.0522C78.4268 58.9326 83.4506 58.7502 90.0827 58.5094C92.1656 58.4341 94.4065 58.3527 96.9201 58.1423C98.7304 57.9906 100.457 57.4542 101.998 56.4896C107.156 51.3621 90.9037 22.1654 87.3101 16.4514C96.1664 10.3621 94.8036 7.93061 88.4204 0Z" fill="black"/>
</g>
<path id="Vector_2" d="M91.4204 -3H-71.8708C-71.2012 0.104262 -70.8611 1.89326 -72.0202 5.03066C-75.048 13.2256 -81.9294 19.0486 -87.4155 25.5213C-88.0952 26.3231 -88.0716 27.2631 -87.8926 28.2088C-86.4737 29.9561 -82.7245 30.7578 -80.5805 31.1415C-54.8749 35.7408 -65.5 95 -19.3366 72.069C-18.2084 74.0401 -18.2111 76.8824 -17.2713 78.7029C-15.3052 82.5111 -12.479 85.9555 -10.0456 89.4817C-8.94527 91.0759 -7.16425 94.1826 -5.43471 95C-5.55618 93.3865 -12.9357 83.3359 -13.076 80.5457C-13.1167 79.7354 -13.1598 79.452 -13.0864 79.2034C-12.9962 78.8981 -12.7301 78.6451 -12.0669 77.5312C-12.8583 78.2287 -12.8122 78.3584 -13.7668 78.6181C-13.9926 77.8122 -13.4761 76.2068 -13.0198 74.7889C-12.758 73.9743 -12.5157 73.2217 -12.4457 72.7181C-12.2381 71.2276 -12.2317 69.3473 -12.2035 67.8278C-9.68453 68.6978 -5.62819 71.9683 -2.8643 73.4791C6.4954 78.5948 18.7203 83.4582 29.4104 83.5C40.608 83.5443 36.974 65.3267 35.5453 58.61C35.405 57.9517 35.8918 57.5049 36.3128 57.1192C36.3696 57.0668 36.4252 57.0158 36.478 56.9655C37.6934 56.595 38.723 56.8766 39.9169 57.2029C40.1676 57.2715 40.4256 57.3421 40.6942 57.4089C46.6392 60.6035 67.8664 63.6828 74.2193 60.0522C81.4268 55.9326 86.4506 55.7502 93.0827 55.5094C95.1656 55.4341 97.4065 55.3527 99.9201 55.1423C101.73 54.9906 103.457 54.4542 104.998 53.4896C110.156 48.3621 93.9037 19.1654 90.3101 13.4514C99.1664 7.36213 97.8036 4.93061 91.4204 -3Z" fill="#E06655"/>
<path id="Vector_3" d="M35.2531 -3H-7C-6.05984 -2.64484 -5.09445 -2.26654 -4.15193 -1.92779L-4.86614 -0.996805C-5.59345 -0.936139 -6.10085 -0.917812 -6.83152 -0.915191L-0.0967302 1.51924C0.0750947 13.2946 9.2198 42.0727 16.7478 50.8431L17.3743 51C17.4711 50.1579 15.2095 45.5387 13.5716 42.1931C12.9011 40.8233 12.3348 39.6671 12.0779 39.0709C8.84286 31.5177 6.20127 23.7224 4.1777 15.7559C3.33102 12.4082 1.70962 4.19883 0.612429 1.4739C10.4986 5.47403 20.0199 8.78832 29.981 13.0411C33.7948 14.6922 37.5867 16.3932 41.3561 18.1436C42.0306 18.4532 45.7563 20.2473 46.0953 20.3509C47.8293 20.9672 51.2658 22.382 52.7164 23.4475C58.9478 26.5001 65.0938 29.7241 71.1497 33.1156C75.4202 35.5276 80.6422 38.7635 85 40.7889C79.9461 35.7854 73.6313 32.9813 67.7166 29.3063C65.7226 28.1068 59.4646 25.4862 58.8073 23.8971C59.5316 23.3591 71.3918 22.0946 73.2412 21.9493C74.482 21.7713 74.7073 21.7943 75.8304 21.1556C75.0099 20.7222 73.1538 20.7122 72.1484 20.6411C66.691 21.1374 61.4522 21.9676 56.0436 22.7833C55.5349 22.86 54.4457 22.2495 53.8176 21.8972C53.7339 21.8503 53.6586 21.8079 53.5937 21.7724C51.8946 21.2581 47.7896 19.0448 45.913 18.262C39.6412 15.6459 24.6498 7.89852 18.5427 6.68165C17.9943 6.2529 18.231 6.5225 17.8669 5.84357C19.0407 4.89004 25.137 2.58084 27.022 1.81699C28.9366 0.896555 32.4037 -0.21903 34.505 -0.964065C34.3463 -0.953002 34.2064 -0.94198 34.0796 -0.931996C33.3792 -0.876799 33.0813 -0.853314 32.208 -1.03032L31.7228 -1.78356C32.9031 -2.1785 34.0799 -2.584 35.2531 -3Z" fill="#321521"/>
<path id="Vector_4" d="M36 -3H-7C-6.04322 -2.66142 -5.06076 -2.30078 -4.10159 -1.97785C1.47005 -0.329465 10.9355 2.66219 16.0928 5C21.1312 1.71325 26.9212 0.210801 32.4073 -1.84035C33.6084 -2.21685 34.8061 -2.60342 36 -3Z" fill="#E06655"/>
<path id="Vector_5" d="M52.9559 23.0884C51.4568 22.0258 47.9055 20.6147 46.1135 20C45.5628 24.3614 47.0924 27.5837 49.047 31.4657C50.5836 34.517 53.6401 41.4209 57.4708 42L57.2362 41.002L58 40.8462C57.6146 39.0321 53.1213 33.0082 52.2376 30.7991C51.9795 30.1543 51.5458 29.3657 51.0812 28.5218C50.0738 26.6916 48.923 24.6006 49.1116 23.1489C49.9223 23.0752 50.5565 23.0914 51.1865 23.1075C51.7407 23.1217 52.2915 23.1358 52.9559 23.0884Z" fill="#321521"/>
</g>
<g id="Group 1587145765">
<g id="Vector_6" opacity="0.1" style="mix-blend-mode:multiply">
<path d="M227.434 87.7074H224.249C224.059 87.3802 224.039 87.2772 224 86.9157C225.344 83.8994 237.899 75.814 245.056 71.2047C246.713 70.1377 248.08 69.257 248.953 68.6686C249.087 68.5889 249.223 68.5109 249.36 68.4326C249.982 68.0763 250.612 67.7151 251.079 67.1719C250.716 66.5054 250.457 65.7898 250.199 65.0767C250.143 64.9231 250.088 64.7696 250.031 64.6168C249.122 62.9747 248.54 60.967 248.031 59.1633C246.066 52.209 245.395 44.865 246.98 37.7633C247.486 35.495 249.164 29.4315 251.4 28.2943C252.462 27.755 253.078 28.3246 253.711 28.9104C254.128 29.2982 254.552 29.69 255.117 29.7789C255.187 29.7904 255.257 29.7968 255.327 29.8032C255.355 29.8057 255.383 29.8083 255.411 29.8112L255.718 29.9546C256.167 29.5345 256.609 28.3751 257.079 27.141C257.782 25.2991 258.549 23.2892 259.498 23.3235C259.788 23.3357 259.959 23.4144 260.216 23.5356L260.471 23.2246C260.433 23.0509 260.375 22.8711 260.317 22.6913L260.316 22.6883C260.154 22.1782 259.987 21.6542 260.21 21.1744C260.971 19.5364 263.745 16.7975 265.237 15.7209L265.456 16.3107C265.865 16.3168 266.224 16.2784 266.628 16.2259C266.876 16.3713 267.042 16.4804 267.253 16.6803C267.315 16.6384 267.384 16.5859 267.459 16.5293C267.471 16.5205 267.483 16.5116 267.495 16.5026C267.804 16.2642 268.192 15.9673 268.492 16.0057C268.945 16.0631 269.358 16.2856 269.76 16.5022C269.838 16.5447 269.917 16.587 269.995 16.6278C271.195 16.6541 272.026 15.8643 272.844 15.0847C276.494 11.6106 284.341 5.53493 289.629 5.76721C290.434 5.80155 291.129 6.15098 291.632 6.78117C292.34 7.66465 292.674 9.63267 292.99 11.5001C293.352 13.633 293.691 15.6346 294.541 15.7391C295.729 15.8841 297.752 14.6947 299.3 13.7847L299.311 13.7778C299.806 13.485 300.253 13.2224 300.606 13.0426C303.754 11.4348 307.201 10.7283 310.633 10.0248C310.891 9.97177 311.15 9.91879 311.408 9.86544C313.695 9.39281 322.875 9.61701 324.848 10.8531C325.15 11.0413 325.376 11.3581 325.602 11.6731C325.833 11.997 326.064 12.3191 326.373 12.4973C327.235 12.9982 329.906 12.774 331.324 12.6548C331.524 12.6367 331.699 12.6225 331.841 12.6124C332.669 12.5508 334.03 12.378 335.648 12.1725L335.731 12.162L335.746 12.1601C340.712 11.5279 348.005 10.5996 349.71 11.5884C350.063 12.0246 350.298 12.4185 350.263 13.0002C350.171 14.5629 347.969 18.1454 345.97 21.3971C344.722 23.4287 343.552 25.3311 343.026 26.531C342.453 27.8409 342.064 29.258 341.674 30.6775C341.109 32.7384 340.542 34.8045 339.407 36.5554C339.345 36.6502 339.28 36.7477 339.212 36.848L339.169 36.9129C338.676 37.6401 338.088 38.5106 338.223 39.3286L338.554 39.464C338.83 40.5432 339.674 41.0604 340.486 41.5579L340.494 41.5626L340.495 41.5635C341.997 42.4822 343.389 43.3334 340.91 47.5311C336.28 55.362 328.661 60.5226 321.029 65.0672L321.235 65.2611C321.661 65.6598 322.365 66.2023 323.172 66.824C325.434 68.5678 328.504 70.9347 328.538 72.4982C328.56 73.5485 327.482 74.4796 326.743 75.0694C318.928 81.3046 307.696 81.8964 298.215 80.7835C298.358 81.2036 298.576 81.6863 298.808 82.1994C299.463 83.6415 300.224 85.32 299.705 86.5339C299.535 86.9328 299.093 87.2557 298.716 87.5316C298.633 87.5924 298.552 87.6509 298.479 87.7074H276.919C264.8 83.8741 255.173 74.378 251.773 70.5432C248.298 70.4624 234.099 81.9524 227.434 87.7074Z" fill="black"/>
</g>
<path id="Vector_7" d="M224.434 87.7074H221.249C221.059 87.3802 221.039 87.2772 221 86.9157C222.344 83.8994 234.899 75.814 242.056 71.2047C243.713 70.1377 245.08 69.257 245.953 68.6686C246.087 68.5889 246.223 68.5109 246.36 68.4326C246.982 68.0763 247.612 67.7151 248.079 67.1719C247.716 66.5054 247.457 65.7898 247.199 65.0767C247.143 64.9231 247.088 64.7696 247.031 64.6168C246.122 62.9747 245.54 60.967 245.031 59.1633C243.066 52.209 242.395 44.865 243.98 37.7633C244.486 35.495 246.164 29.4315 248.4 28.2943C249.462 27.755 250.078 28.3246 250.711 28.9104C251.128 29.2982 251.552 29.69 252.117 29.7789C252.187 29.7904 252.257 29.7968 252.327 29.8032C252.355 29.8057 252.383 29.8083 252.411 29.8112L252.718 29.9546C253.167 29.5345 253.609 28.3751 254.079 27.141C254.782 25.2991 255.549 23.2892 256.498 23.3235C256.788 23.3357 256.959 23.4144 257.216 23.5356L257.471 23.2246C257.433 23.0509 257.375 22.8711 257.317 22.6913L257.316 22.6883C257.154 22.1782 256.987 21.6542 257.21 21.1744C257.971 19.5364 260.745 16.7975 262.237 15.7209L262.456 16.3107C262.865 16.3168 263.224 16.2784 263.628 16.2259C263.876 16.3713 264.042 16.4804 264.253 16.6803C264.315 16.6384 264.384 16.5859 264.459 16.5293C264.471 16.5205 264.483 16.5116 264.495 16.5026C264.804 16.2642 265.192 15.9673 265.492 16.0057C265.945 16.0631 266.358 16.2856 266.76 16.5022C266.838 16.5447 266.917 16.587 266.995 16.6278C268.195 16.6541 269.026 15.8643 269.844 15.0847C273.494 11.6106 281.341 5.53493 286.629 5.76721C287.434 5.80155 288.129 6.15098 288.632 6.78117C289.34 7.66465 289.674 9.63267 289.99 11.5001C290.352 13.633 290.691 15.6346 291.541 15.7391C292.729 15.8841 294.752 14.6947 296.3 13.7847L296.311 13.7778C296.806 13.485 297.253 13.2224 297.606 13.0426C300.754 11.4348 304.201 10.7283 307.633 10.0248C307.891 9.97177 308.15 9.91879 308.408 9.86544C310.695 9.39281 319.875 9.61701 321.848 10.8531C322.15 11.0413 322.376 11.3581 322.602 11.6731C322.833 11.997 323.064 12.3191 323.373 12.4973C324.235 12.9982 326.906 12.774 328.324 12.6548C328.524 12.6367 328.699 12.6225 328.841 12.6124C329.669 12.5508 331.03 12.378 332.648 12.1725L332.731 12.162L332.746 12.1601C337.712 11.5279 345.005 10.5996 346.71 11.5884C347.063 12.0246 347.298 12.4185 347.263 13.0002C347.171 14.5629 344.969 18.1454 342.97 21.3971C341.722 23.4287 340.552 25.3311 340.026 26.531C339.453 27.8409 339.064 29.258 338.674 30.6775C338.109 32.7384 337.542 34.8045 336.407 36.5554C336.345 36.6502 336.28 36.7477 336.212 36.848L336.169 36.9129C335.676 37.6401 335.088 38.5106 335.223 39.3286L335.554 39.464C335.83 40.5432 336.674 41.0604 337.486 41.5579L337.494 41.5626L337.495 41.5635C338.997 42.4822 340.389 43.3334 337.91 47.5311C333.28 55.362 325.661 60.5226 318.029 65.0672L318.235 65.2611C318.661 65.6598 319.365 66.2023 320.172 66.824C322.434 68.5678 325.504 70.9347 325.538 72.4982C325.56 73.5485 324.482 74.4796 323.743 75.0694C315.928 81.3046 304.696 81.8964 295.215 80.7835C295.358 81.2036 295.576 81.6863 295.808 82.1994C296.463 83.6415 297.224 85.32 296.705 86.5339C296.535 86.9328 296.093 87.2557 295.716 87.5316C295.633 87.5924 295.552 87.6509 295.479 87.7074H273.919C261.8 83.8741 252.173 74.378 248.773 70.5432C245.298 70.4624 231.099 81.9524 224.434 87.7074Z" fill="#E06655"/>
<path id="Vector_8" d="M302.038 17.062C297.073 21.6692 292.048 34.9637 291.11 41.7624C284.557 45.4446 278.048 49.2014 271.583 53.0351C268.854 54.6772 265.717 56.3112 263.295 58.3836C264.28 55.6386 264.427 52.4089 264.816 49.5246C265.256 46.0364 265.857 42.5684 266.617 39.1326C267.38 35.7494 268.288 32.3985 269.34 29.0921C269.999 27.0359 270.938 24.9575 271.331 22.8387L271.184 22.6892C266.372 28.8861 262.99 50.2679 262.776 58.4967C261.197 59.5531 259.541 60.9023 257.853 61.7446C257.135 62.2596 256.426 62.7686 255.667 63.2231C253.648 64.6046 251.376 65.9357 249.6 67.6121C250.144 67.8545 250.33 67.7576 250.808 67.5071C250.839 67.491 250.871 67.4748 250.905 67.4566C254.439 65.6267 257.779 63.1322 261.094 60.9386C265.905 57.7695 270.804 54.7358 275.786 51.8434C278.134 50.4497 280.499 48.8884 282.948 47.6825C282.996 47.6583 283.046 47.6341 283.099 47.6078C283.53 47.3917 284.104 47.1029 284.543 47.1109C285.614 47.1231 288.965 48.4581 290.256 48.8157C297.798 50.8961 305.584 51.4818 313.353 51.9787C314.104 51.9686 314.738 51.9484 315.457 51.7283L315.548 51.496C314.67 51.0657 313.676 51.0779 312.714 51.0031C306.869 50.7628 300.844 50.0033 295.116 48.8036C291.68 48.0845 288.266 47.0766 284.798 46.5555C289.08 44.3781 293.255 41.9301 297.525 39.7123C307.83 34.3638 318.204 29.1466 328.313 23.4265L327.617 23.0326L301.318 36.4947C298.398 37.9712 295.279 40.086 292.217 41.1504C291.912 39.4417 297.065 27.0803 298.137 24.8101C299.367 22.2004 300.872 19.6898 302.038 17.062Z" fill="#211109"/>
<path id="Vector_9" d="M309 33.1245C311.462 35.009 321.644 34.8878 324.965 34.8333C325.245 34.7404 325.524 34.6192 325.801 34.5122L325.653 34.29C324.448 33.9668 323.062 33.9426 321.735 33.9183C321.224 33.9082 320.723 33.9001 320.242 33.8739C319.756 33.8537 318.622 33.7345 317.253 33.5891C314.052 33.2477 309.555 32.7711 309 33.1245Z" fill="#211109"/>
<path id="Vector_10" d="M330.022 22.2691C329.184 22.0873 328.342 22.5903 327.617 23.0326L328.313 23.4265C328.903 23.1013 329.465 22.6529 330.022 22.2691Z" fill="#211109"/>
<path id="Vector_11" d="M262.293 14.8806C258.038 17.5953 253.399 24.9353 252.411 29.8112L252.718 29.9546C253.167 29.5345 253.609 28.3751 254.079 27.141C254.782 25.2989 255.548 23.2892 256.498 23.3235C256.788 23.3356 256.959 23.4144 257.216 23.5356L257.471 23.2245C257.433 23.0508 257.375 22.8711 257.317 22.6913C257.155 22.1803 256.987 21.6551 257.21 21.1744C257.971 19.5363 260.745 16.7975 262.236 15.7209L262.456 16.3107C262.865 16.3167 263.224 16.2784 263.628 16.2258C263.876 16.3713 264.042 16.4803 264.253 16.6803C264.324 16.6318 264.406 16.5692 264.495 16.5026C264.804 16.2642 265.192 15.9673 265.492 16.0057C266.034 16.0744 266.518 16.3793 266.995 16.6278C268.195 16.654 269.026 15.8643 269.844 15.0846C273.494 11.6105 281.341 5.53491 286.629 5.76719C287.434 5.80152 288.129 6.15096 288.632 6.78114C290.149 8.67372 289.947 15.5431 291.541 15.7391C292.732 15.8845 294.762 14.6888 296.311 13.7778C296.806 13.4849 297.253 13.2224 297.606 13.0426C300.991 11.3136 304.722 10.6269 308.408 9.86542C310.695 9.39278 319.875 9.61698 321.848 10.8531C322.46 11.2349 322.763 12.1458 323.373 12.4973C324.235 12.9982 326.906 12.774 328.324 12.6548C328.523 12.6366 328.699 12.6225 328.841 12.6124C329.683 12.5498 331.077 12.372 332.731 12.162C337.698 11.5298 345.003 10.5986 346.71 11.5883C347.063 12.0246 347.298 12.4185 347.263 13.0002C347.114 15.5391 341.394 23.4104 340.026 26.531C338.621 29.7425 338.324 33.5984 336.407 36.5554C336.332 36.6705 336.251 36.7897 336.169 36.9129C335.676 37.64 335.088 38.5106 335.223 39.3286L335.554 39.4639C338.402 34.9617 339.033 30.2434 341.25 25.5615C342.987 21.8894 347.292 16.9207 347.96 13.1133C348.073 12.469 347.946 11.9277 347.564 11.4025C347.007 10.639 345.894 10.4431 345.021 10.3744C343.28 10.235 341.469 10.4613 339.705 10.6814C339.299 10.7319 338.897 10.7824 338.497 10.8269C337.675 10.9198 336.849 11.0208 336.019 11.1217C331.963 11.6126 327.833 12.1155 323.789 11.8065C322.894 10.7299 322.28 10.1644 320.921 9.71393C318.776 9.00295 316.364 8.84743 314.12 8.80905C305.356 8.65757 298.955 11.5277 291.349 15.3775C290.888 12.5841 291.029 8.97671 289.383 6.56705C288.82 5.74095 287.967 5.25013 286.99 5.0744C282.82 4.32707 275.429 9.39683 272.336 11.8974C270.93 13.0345 269.369 14.7554 267.832 15.6704C267.116 16.0966 266.441 15.5755 265.759 15.0463C265.299 14.6928 264.836 14.3333 264.354 14.2606C263.528 14.1333 262.971 14.4484 262.293 14.8806Z" fill="#E06655"/>
</g>
<g id="Group 1587145766">
<g id="Vector_12" opacity="0.1" style="mix-blend-mode:multiply">
<path d="M125.268 63C124.705 61.7937 127.414 53.2388 128.081 51.7285C128.429 48.3028 128.505 46.0833 128.256 42.6354C128.114 40.6787 127.775 38.9753 127.455 37.3701C126.773 33.9412 126.18 30.9619 127.789 26.9377C125.284 22.5526 125.133 22.0048 126.539 16.9453C127.585 13.1776 130.795 5.51239 133.905 3.12513C137.271 -1.8932 142.485 -5.17334 146.857 -9.19117C145.496 -10.5811 144.058 -11.7462 142.517 -12.9304C142.427 -13.0158 142.34 -13.095 142.258 -13.171C141.78 -13.6079 141.442 -13.9182 141.464 -14.7097C141.554 -17.8854 149.7 -24.3823 152.282 -26.1648C158.751 -30.5658 166.24 -33.2317 174.035 -33.9124C174.344 -33.9409 175.142 -33.9219 176.141 -33.8934C178.767 -33.8269 182.777 -33.7224 182.912 -34.3873C183.031 -34.9762 182.917 -35.5619 182.805 -36.135C182.604 -37.164 182.412 -38.1423 183.613 -39.0035C187.98 -42.1317 204.53 -38.9624 209.963 -37.6421C214.363 -36.5719 230.429 -31.4776 233.375 -28.4635C234.875 -27.9474 236.323 -26.9595 237.705 -26.1806C241.656 -28.2355 245.68 -30.1447 249.769 -31.9082C250.324 -32.1488 250.995 -32.4655 251.738 -32.8201C255.006 -34.3746 259.676 -36.5973 262.119 -35.6221C262.56 -34.9224 262.553 -34.7957 262.508 -34.0485C262.505 -33.9979 262.502 -33.9472 262.499 -33.8934C262.024 -33.1525 261.523 -32.8929 260.741 -32.5604C253.971 -29.6729 245.506 -28.7294 239.736 -23.7396C239.151 -23.233 239.024 -22.6852 239.03 -21.9444C239.048 -19.7534 239.853 -17.4706 240.158 -15.2923C240.755 -11.0433 240.844 -6.47777 240.664 -2.20348C240.192 8.97933 235.916 22.3024 227.237 29.8885C226.313 30.6959 225.276 31.3386 223.993 31.174C222.06 30.9302 220.878 28.9988 219.762 27.5931C219.191 27.2416 218.799 27.0136 218.149 26.8205C214.413 37.636 198.447 53.6124 184.859 53.1786C183.135 53.1248 181.597 48.5118 180.836 46.9129L179.802 46.7514C178.175 47.7614 176.539 48.7587 174.894 49.7402C168.302 53.6029 159.696 56.7184 152.124 53.9544C150.643 53.4161 146.554 54.2235 144.583 54.6161C144.415 54.6477 144.263 54.6794 144.129 54.7047C138.21 55.8477 133.277 58.1463 128.217 61.3156C127.274 62.2876 127.198 62.3351 125.998 62.9968L125.268 63Z" fill="black"/>
</g>
<path id="Vector_13" d="M123.268 60C122.705 58.7937 125.414 50.2388 126.081 48.7285C126.429 45.3028 126.505 43.0833 126.256 39.6354C126.114 37.6787 125.775 35.9753 125.455 34.3701C124.773 30.9412 124.18 27.9619 125.789 23.9377C123.284 19.5526 123.133 19.0048 124.539 13.9453C125.585 10.1776 128.795 2.51239 131.905 0.125126C135.271 -4.8932 140.485 -8.17334 144.857 -12.1912C143.496 -13.5811 142.058 -14.7462 140.517 -15.9304C140.427 -16.0158 140.34 -16.095 140.258 -16.171C139.78 -16.6079 139.442 -16.9182 139.464 -17.7097C139.554 -20.8854 147.7 -27.3823 150.282 -29.1648C156.751 -33.5658 164.24 -36.2317 172.035 -36.9124C172.344 -36.9409 173.142 -36.9219 174.141 -36.8934C176.767 -36.8269 180.777 -36.7224 180.912 -37.3873C181.031 -37.9762 180.917 -38.5619 180.805 -39.135C180.604 -40.164 180.412 -41.1423 181.613 -42.0035C185.98 -45.1317 202.53 -41.9624 207.963 -40.6421C212.363 -39.5719 228.429 -34.4776 231.375 -31.4635C232.875 -30.9474 234.323 -29.9595 235.705 -29.1806C239.656 -31.2355 243.68 -33.1447 247.769 -34.9082C248.324 -35.1488 248.995 -35.4655 249.738 -35.8201C253.006 -37.3746 257.676 -39.5973 260.119 -38.6221C260.56 -37.9224 260.553 -37.7957 260.508 -37.0485C260.505 -36.9979 260.502 -36.9472 260.499 -36.8934C260.024 -36.1525 259.523 -35.8929 258.741 -35.5604C251.971 -32.6729 243.506 -31.7294 237.736 -26.7396C237.151 -26.233 237.024 -25.6852 237.03 -24.9444C237.048 -22.7534 237.853 -20.4706 238.158 -18.2923C238.755 -14.0433 238.844 -9.47777 238.664 -5.20348C238.192 5.97933 233.916 19.3024 225.237 26.8885C224.313 27.6959 223.276 28.3386 221.993 28.174C220.06 27.9302 218.878 25.9988 217.762 24.5931C217.191 24.2416 216.799 24.0136 216.149 23.8205C212.413 34.636 196.447 50.6124 182.859 50.1786C181.135 50.1248 179.597 45.5118 178.836 43.9129L177.802 43.7514C176.175 44.7614 174.539 45.7587 172.894 46.7402C166.302 50.6029 157.696 53.7184 150.124 50.9544C148.643 50.4161 144.554 51.2235 142.583 51.6161C142.415 51.6477 142.263 51.6794 142.129 51.7047C136.21 52.8477 131.277 55.1463 126.217 58.3156C125.274 59.2876 125.198 59.3351 123.998 59.9968L123.268 60Z" fill="#F7BA3B"/>
<path id="Vector_14" d="M137.246 41.2059L137.229 41.0001C141.362 33.7971 148.446 27.1292 154.614 21.5726C156.539 19.8376 158.685 18.2419 160.511 16.4213C164.396 13.2837 168.264 10.1017 172.319 7.18256C176.272 4.33936 180.411 1.73997 184.347 -1.11589C178.75 -1.48316 173.202 -2.7338 167.617 -3.34169C164.124 -3.72163 154.531 -3.83563 152.001 -4.624L151.854 -4.98494C153.794 -5.615 156.219 -5.58332 158.429 -5.55482C159.055 -5.54849 159.665 -5.54215 160.241 -5.54848C165.961 -5.11789 171.7 -4.60181 177.355 -3.61081C178.185 -3.46516 179.269 -3.11691 180.38 -2.7623C181.964 -2.25256 183.603 -1.72699 184.644 -1.74282C185.326 -1.75232 208.67 -14.8158 211.399 -16.4685C218.396 -19.5777 225.441 -22.9876 232.279 -26.4387C233.321 -26.863 234.153 -27.1036 235.275 -27.2081L235.444 -26.9294C234.002 -25.6218 232.337 -24.8588 230.614 -23.985C217.781 -18.7197 180.249 1.36633 170.453 10.6431C167.208 12.8974 165.737 13.8314 165.086 15.1644C164.452 16.4625 164.596 18.1406 164.637 21.7848C164.662 24.0138 164.2 26.2681 163.753 28.4464L163.719 28.6141C162.939 33.1196 161.519 37.2546 159.498 41.3484C159.844 37.6503 161.112 33.9966 161.843 30.3555C162.826 25.467 163.3 20.5057 163.708 15.5443C160.056 19.1442 155.953 22.3009 152.258 25.8818C150.375 27.7086 138.074 41.0254 137.246 41.2059Z" fill="#321521"/>
<path id="Vector_15" d="M221.993 28.174C220.06 27.9303 218.878 25.9989 217.762 24.5932C217.847 24.5457 217.92 24.495 217.987 24.4507C218.218 24.2924 218.375 24.1847 218.725 24.3304C220.316 24.9984 220.828 27.1894 222.712 27.4363C225.745 26.439 230.503 18.6598 231.995 15.69C237.043 5.65331 237.985 -4.71265 237.171 -15.753C236.99 -18.2162 236.973 -21.1354 236.135 -23.4562C235.888 -24.1369 235.72 -24.444 235.208 -24.9728C233.956 -24.5295 232.676 -23.5385 231.359 -23.5227L230.614 -23.985C232.337 -24.8588 234.002 -25.6218 235.444 -26.9294L235.275 -27.2081C234.153 -27.1036 233.321 -26.863 232.279 -26.4387L231.711 -26.8978C231.706 -26.9896 231.705 -27.0814 231.697 -27.1732C231.662 -27.5437 231.549 -27.9901 231.43 -28.4587C231.157 -29.5352 230.851 -30.7415 231.375 -31.4634C232.875 -30.9473 234.323 -29.9594 235.705 -29.1806C239.656 -31.2354 243.68 -33.1446 247.769 -34.9081C248.324 -35.1488 248.995 -35.4654 249.738 -35.82C253.006 -37.3746 257.676 -39.5972 260.119 -38.622C260.56 -37.9223 260.552 -37.7957 260.508 -37.0484C260.505 -36.9978 260.502 -36.9471 260.499 -36.8933C260.024 -36.1524 259.523 -35.8928 258.74 -35.5603C251.971 -32.6728 243.506 -31.7293 237.736 -26.7395C237.151 -26.2329 237.024 -25.6851 237.03 -24.9443C237.048 -22.7533 237.853 -20.4705 238.158 -18.2922C238.755 -14.0432 238.844 -9.47767 238.664 -5.20338C238.192 5.97943 233.916 19.3025 225.237 26.8886C224.313 27.696 223.276 28.3387 221.993 28.174Z" fill="#F7BA3B"/>
<path id="Vector_16" d="M137.229 41C141.362 33.797 148.446 27.1291 154.614 21.5726C155.378 20.8837 156.177 20.2168 156.978 19.5491C158.193 18.535 159.41 17.519 160.511 16.4213C160.421 16.4144 160.353 16.4083 160.3 16.4035C160.206 16.3952 160.157 16.3908 160.107 16.3928C160.055 16.3928 160.004 16.3986 159.9 16.4103C159.817 16.4197 159.7 16.4328 159.522 16.4498L158.932 16.5067C158.382 16.0445 157.875 15.6962 157.163 15.5284C151.813 14.2556 142.12 16.3041 137.554 19.0935C140.265 19.0998 143.047 18.4954 145.83 17.8908L145.832 17.8903C149.187 17.159 152.542 16.4308 155.776 16.7696C155.906 16.9718 156.099 17.5886 155.833 18.4381C155.775 19.0318 152.889 21.9027 149.363 25.4106C143.845 30.901 136.758 37.9516 136.49 40.2718L137.229 41Z" fill="#321521"/>
<path id="Vector_17" d="M142.129 51.7048C136.21 52.8477 131.277 55.1464 126.217 58.3157C126.197 58.265 126.169 58.2048 126.138 58.1415C126.01 57.8692 125.84 57.5083 126.069 57.35C134.256 51.6763 144.6 48.2284 154.562 50.6125C160.603 52.0562 172.019 46.4806 176.876 42.8237L177.643 42.7857C177.814 43.1024 177.887 43.1752 177.9 43.2543C177.912 43.3335 177.868 43.4221 177.802 43.7514C176.175 44.7614 174.539 45.7587 172.894 46.7402C166.302 50.6029 157.696 53.7184 150.124 50.9544C148.643 50.4162 144.554 51.2235 142.583 51.6161C142.415 51.6478 142.263 51.6794 142.129 51.7048Z" fill="#F7BA3B"/>
<path id="Vector_18" d="M182.859 50.1786C181.135 50.1248 179.597 45.5117 178.836 43.9128L179.258 43.4031C179.787 43.688 180.313 44.7518 180.881 45.9043C181.717 47.5982 182.645 49.4757 183.811 49.3206C190.922 48.3676 198.179 44.2579 203.423 39.4264C205.106 37.875 206.524 36.3172 207.771 35.4181C208.719 34.4017 209.722 33.091 210.232 31.7992C211.928 29.3264 213.44 25.8057 215.56 23.7983L216.149 23.8205C212.413 34.636 196.447 50.6124 182.859 50.1786Z" fill="#F7BA3B"/>
<path id="Vector_19" d="M126.411 49.2922L126.081 48.7287C126.429 45.3029 126.505 43.0834 126.256 39.6355C126.114 37.6788 125.775 35.9754 125.455 34.3702C124.773 30.9413 124.18 27.962 125.789 23.9378C126.174 23.9631 126.277 23.9441 126.363 23.9726C126.447 24.0011 126.516 24.0739 126.814 24.2797L126.801 24.3209C125.741 27.6327 125.332 28.9086 126.163 32.2774C127.013 35.7253 128.99 46.6422 126.411 49.2922Z" fill="#F7BA3B"/>
<path id="Vector_20" d="M132.913 -0.0520396C132.594 0.0682737 132.241 0.0682536 131.905 0.125244C135.271 -4.89309 140.486 -8.17322 144.857 -12.1911C143.496 -13.581 142.058 -14.7461 140.517 -15.9302L141.25 -16.3545C142.536 -15.8859 144.073 -14.5435 145.029 -13.5588C145.665 -12.9066 145.759 -12.5425 145.78 -11.6528C143.26 -8.73044 139.615 -6.4983 136.819 -3.76909C135.953 -2.92689 133.987 -0.460472 132.913 -0.0520396Z" fill="#F7BA3B"/>
<path id="Vector_21" d="M163.958 29.9851L163.719 28.6141L163.753 28.4464C164.2 26.2681 164.662 24.0137 164.637 21.7848C164.596 18.1406 164.452 16.4625 165.086 15.1644C165.737 13.8314 167.208 12.8974 170.453 10.6431C170.305 12.5333 167.166 14.6008 165.723 15.8578C165.91 19.0049 166.109 27.715 164.299 30.1814L163.958 29.9851Z" fill="#F7BA3B"/>
<path id="Vector_22" d="M210.231 31.7991C209.722 33.0909 208.719 34.4016 207.771 35.418C207.286 34.6264 206.998 34.3383 206.997 33.3948C207.584 32.8946 207.98 32.9326 208.717 32.8186C209.559 32.6919 209.655 32.4228 210.231 31.7991Z" fill="#F7BA3B"/>
<path id="Vector_23" d="M189.599 33.2272L188.97 33.5723C189.765 27.107 190.872 20.8159 190.953 14.2747C190.964 13.4325 190.843 11.6721 190.702 9.61407C190.402 5.2163 190.008 -0.542896 190.598 -1.60989C190.661 -1.61305 190.724 -1.61937 190.787 -1.62886C190.952 -1.64786 191.118 -1.66372 191.274 -1.6194C192.592 8.65157 193.84 23.6274 189.599 33.2272Z" fill="#321521"/>
<path id="Vector_24" d="M215.142 15.4872C215.074 15.5758 214.987 15.6486 214.909 15.7278C214.476 13.4387 214.511 10.9501 214.546 8.51531C214.561 7.46098 214.576 6.41617 214.553 5.403C214.467 1.74295 214.085 -1.90447 213.711 -5.54553C213.653 -6.10594 213.535 -6.83415 213.404 -7.64152C213.044 -9.85148 212.592 -12.6345 213.056 -14.0181C213.446 -14.1701 213.512 -14.2271 213.586 -14.2429C213.639 -14.2556 213.697 -14.2461 213.881 -14.2397C215.014 -8.4837 218.123 11.5896 215.142 15.4872Z" fill="#321521"/>
</g>
</g>
</g>
<defs>
<radialGradient id="paint0_radial_0_1" cx="0" cy="0" r="1" gradientUnits="userSpaceOnUse" gradientTransform="translate(960 32) scale(565.5 77.9423)">
<stop stop-color="#FEFEFE"/>
<stop offset="1" stop-color="#FFF7F1"/>
</radialGradient>
<linearGradient id="paint1_linear_0_1" x1="0" y1="32" x2="364" y2="32" gradientUnits="userSpaceOnUse">
<stop offset="0.450493" stop-color="#DFE850"/>
<stop offset="1" stop-color="#FFF7F1" stop-opacity="0"/>
</linearGradient>
<clipPath id="clip0_0_1">
<rect width="364" height="64" fill="white"/>
</clipPath>
</defs>
</svg>
