<svg xmlns="http://www.w3.org/2000/svg" xmlns:xlink="http://www.w3.org/1999/xlink" width="85" height="85" viewBox="0 0 85 85"><defs><style>.a{fill:none;}.b{clip-path:url(#a);}.c{fill:#ffb782;}.d{fill:#43575e;}.e{clip-path:url(#b);}.f{fill:#fb8a29;}</style><clipPath id="a"><rect class="a" width="70.552" height="76.572"/></clipPath><clipPath id="b"><rect class="a" width="76" height="37" transform="translate(-0.991 2.688)"/></clipPath></defs><g transform="translate(0 3)"><rect class="a" width="85" height="85" transform="translate(0 -3)"/><g transform="translate(5.991 1)"><g class="b"><path class="c" d="M107.224,194.569c-1.254-.139-3.484,1.115-3.484,1.115l-6.132,2.927c-1.076.625-2.125,1.223-2.2,1.246a4.821,4.821,0,0,0-2.118,1.416,5.23,5.23,0,0,1-1.719,4.352,7.289,7.289,0,0,1-2.688,1.407,23.671,23.671,0,0,1-8.645,1.064c-2.011-.041-3.909-.587-9.7-1.071-1.341-.112-2.19-.085-2.058-.332.377-.7,12.125.509,13.517.433,4.509-.246,8.052-1.418,8.967-2.524a3.044,3.044,0,0,0,.65-3.33c-.584-.971-1.96-1.479-6.3-1.671-2.178-.1-4.151-.3-6.1-.3a8.325,8.325,0,0,1-2.591-.526c-6.39-2.764-14.612-5.737-20.83-.951a12.6,12.6,0,0,0-1.356,1.235A11.978,11.978,0,0,0,53.27,200.5c-.507.53-1.146,1.147-1.93,1.873a24.366,24.366,0,0,1-2.038,1.62l9.246,13.213q.868-.661,1.757-1.3l1.417-1.01a7.228,7.228,0,0,1,4.192-1.34H76.7l2.634-.289A23.429,23.429,0,0,0,84.787,212l1.951-.709,5.519-1.985.06-.022a29.769,29.769,0,0,0,8.745-4.986l1.841-1.508c.65-.65,2.535-2.165,3.723-3.1a6.274,6.274,0,0,0,1.92-2.53,2.335,2.335,0,0,0,.21-.776,1.657,1.657,0,0,0-1.533-1.812" transform="translate(-38.205 -150.767)"/><path class="d" d="M0,238.122l12.774,18.787,7.935-6.774L8.52,232.717ZM14.537,248.81a1.759,1.759,0,1,1-1.759,1.759,1.759,1.759,0,0,1,1.759-1.759" transform="translate(0 -180.337)"/></g><g class="e"><path class="f" d="M41,58A16.964,16.964,0,0,1,26.441,32.269L.586,6.414A2,2,0,1,1,3.414,3.586L7,7.172,13.586.586a2,2,0,1,1,2.828,2.828L9.828,10,12,12.172l4.586-4.586a2,2,0,1,1,2.828,2.828L14.828,15,17,17.172l6.586-6.586a2,2,0,1,1,2.828,2.828L19.828,20,28.9,29.075A16.994,16.994,0,1,1,41,58Zm0-30A13,13,0,1,0,54,41,13.015,13.015,0,0,0,41,28Z" transform="translate(76.021 21.687) rotate(135)"/></g></g></g></svg>