<svg xmlns="http://www.w3.org/2000/svg" width="63.254" height="71.769" viewBox="0 0 63.254 71.769"><defs><style>.a{fill:#fb8a29;}.b{fill:#43575e;}.c{fill:#f1f2f2;}.d{fill:#3e93e5;}.e{fill:#fff;}</style></defs><g transform="translate(-7.299 0.001)"><path class="a" d="M368,145.03l14.6,8.515V128L368,137.731Zm0,0" transform="translate(-312.044 -108.538)"/><path class="a" d="M224.329,12.163a12.1,12.1,0,1,1-3.544-8.62A12.164,12.164,0,0,1,224.329,12.163Zm0,0" transform="translate(-169.589)"/><path class="b" d="M96.657,138.433V157.9a2.439,2.439,0,0,1-2.433,2.433H50.433A2.44,2.44,0,0,1,48,157.9V138.433A2.441,2.441,0,0,1,50.433,136h2.2a7.285,7.285,0,0,0,12.626,0h9.33a12.165,12.165,0,0,0,17.371,0h2.262A2.44,2.44,0,0,1,96.657,138.433Zm0,0" transform="translate(-40.701 -115.322)"/><path class="b" d="M93.539,322.344h-1.72L72,342.163V345.1h2.433v-1.929l17.03-17.03v16.526H93.9V326.141l17.03,17.03V345.1h2.433v-2.937Zm0,0" transform="translate(-61.052 -273.331)"/><path class="c" d="M80,232h3.649v2.433H80Zm0,0" transform="translate(-67.836 -196.725)"/><path class="c" d="M120,232h9.731v2.433H120Zm0,0" transform="translate(-101.754 -196.725)"/><path class="a" d="M86.593,71.276a7.316,7.316,0,0,1-7.3,7.3,7.2,7.2,0,0,1-3.7-1.01,7.3,7.3,0,1,1,11-6.289Zm0,0" transform="translate(-61.048 -54.247)"/><g transform="translate(15.814 7.298)"><path class="d" d="M176,298.433a2.433,2.433,0,0,0,2.433,2.433H183.3a2.433,2.433,0,0,0,2.433-2.433V296H176Zm0,0" transform="translate(-165.052 -258.291)"/><path class="e" d="M257.731,52.866A4.866,4.866,0,1,1,252.866,48,4.866,4.866,0,0,1,257.731,52.866Zm0,0" transform="translate(-226.104 -48)"/><path class="e" d="M108.866,98.433A2.433,2.433,0,1,1,106.433,96,2.433,2.433,0,0,1,108.866,98.433Zm0,0" transform="translate(-104 -88.701)"/></g><path class="e" d="M80,184H94.6v4.866H80Zm0,0" transform="translate(-67.836 -156.023)"/><path class="a" d="M213.989,24.195a12.846,12.846,0,0,1-1.825.134,12.164,12.164,0,0,1,0-24.329,11.009,11.009,0,0,1,1.8.146,12.164,12.164,0,0,0,.024,24.049Zm0,0" transform="translate(-169.589 -0.001)"/><path class="b" d="M54.082,160.329H50.433A2.44,2.44,0,0,1,48,157.9V138.433A2.441,2.441,0,0,1,50.433,136h2.2a3.263,3.263,0,0,0,.219.341,2.422,2.422,0,0,0-1.2,2.092V157.9a2.44,2.44,0,0,0,2.433,2.433Zm0,0" transform="translate(-40.701 -115.322)"/><path class="a" d="M78.062,77.587a7.067,7.067,0,0,0,2.482.9,6.739,6.739,0,0,1-1.216.109,7.2,7.2,0,0,1-3.7-1.01A7.3,7.3,0,0,1,79.328,64a6.681,6.681,0,0,1,1.216.11,7.3,7.3,0,0,0-2.482,13.477Zm0,0" transform="translate(-61.081 -54.269)"/><path class="a" d="M368,178.433v7.3l3.649,2.129V176Zm0,0" transform="translate(-312.044 -149.24)"/></g></svg>