<svg width="47" height="57" viewBox="0 0 47 57" fill="none" xmlns="http://www.w3.org/2000/svg">
<path d="M24.8002 39.5841C30.1547 39.5841 34.5824 35.1564 34.5824 29.802C34.5824 24.4475 30.1547 20.0198 24.8002 20.0198C19.4458 20.0198 15.0181 24.4475 15.0181 29.802C15.0181 35.1564 19.4458 39.5841 24.8002 39.5841Z" fill="#FC4B15"/>
<path d="M23.2557 26.3009V33.9207L27.6834 30.0078L23.2557 26.3009Z" fill="white"/>
<path d="M44.4674 52.2495C44.4674 52.9703 43.9525 53.4852 43.2317 53.4852H5.75054C5.02974 53.4852 4.51489 52.9703 4.51489 52.2495V3.75054C4.51489 3.02974 5.02974 2.51489 5.75054 2.51489H31.1842L44.4674 16.004V52.2495Z" stroke="#32393E" stroke-width="2" stroke-miterlimit="10"/>
<path d="M31.5961 2V11.9881C31.5961 14.0475 33.2436 15.695 35.303 15.695H45.1881L31.5961 2Z" fill="#32393E"/>
</svg>
