<svg width="91" height="62" viewBox="0 0 91 62" fill="none" xmlns="http://www.w3.org/2000/svg">
<path d="M13.8222 45.2404C13.0948 45.2404 12.3673 44.6565 12.3673 43.7807V4.22241C12.3673 3.49255 12.9493 2.7627 13.8222 2.7627H69.5478C70.2752 2.7627 71.0027 3.34658 71.0027 4.22241V33.5627V45.3863H13.8222V45.2404Z" stroke="#32393E" stroke-width="3" stroke-miterlimit="10"/>
<path d="M79.2962 47.7219H4.07403L0.291092 46.2622H83.0791L79.2962 47.7219Z" fill="#32393E"/>
<path d="M48.4507 44.0726H35.0649V45.3864H48.4507V44.0726Z" fill="#FC4B15"/>
<path d="M47.2867 43.9266V44.3645C47.2867 44.6565 46.9957 44.9484 46.7047 44.9484H36.6654C36.3744 44.9484 36.0834 44.6565 36.0834 44.3645V43.9266H3.20094H0.436492H0.290995C0.145497 44.0726 0 44.2186 0 44.3645V45.8243C0 45.9702 0.145497 46.2622 0.290995 46.2622H0.436492H3.20094H83.079V43.9266H47.2867Z" fill="#32393E"/>
<path d="M83.9556 50.2196C83.9556 51.8253 82.6461 52.993 81.1911 52.993H68.5329C66.9324 52.993 65.7684 51.6793 65.7684 50.2196V17.522C65.7684 15.9163 67.0779 14.7485 68.5329 14.7485H81.0456C82.6461 14.7485 83.8101 16.0623 83.8101 17.522V50.2196H83.9556Z" fill="#FC4B15"/>
<path d="M74.7891 51.5334C75.5123 51.5334 76.0985 50.9452 76.0985 50.2196C76.0985 49.4941 75.5123 48.9059 74.7891 48.9059C74.0659 48.9059 73.4796 49.4941 73.4796 50.2196C73.4796 50.9452 74.0659 51.5334 74.7891 51.5334Z" fill="white"/>
<path d="M78.2812 18.2518C78.2812 18.6897 77.8447 19.1276 77.4082 19.1276H71.7338C71.2973 19.1276 70.8608 18.6897 70.8608 18.2518C70.8608 17.8139 71.2973 17.376 71.7338 17.376H77.4082C77.8447 17.376 78.2812 17.8139 78.2812 18.2518Z" fill="white"/>
</svg>
