<svg width="72" height="48" viewBox="0 0 72 48" fill="none" xmlns="http://www.w3.org/2000/svg">
<path d="M4.5933 8.57143C4.36364 8.57143 4.13397 8.34286 4.13397 8.11429V4.45714C4.13397 4.22857 4.36364 4 4.5933 4H8.15311C8.38278 4 8.61244 4.22857 8.61244 4.45714V8C8.61244 8.22857 8.38278 8.45714 8.15311 8.45714H4.5933V8.57143Z" fill="#32393E"/>
<path d="M13.7799 8.57143C13.5503 8.57143 13.3206 8.34286 13.3206 8.11429V4.45714C13.3206 4.22857 13.5503 4 13.7799 4H17.3397C17.5694 4 17.7991 4.22857 17.7991 4.45714V8C17.7991 8.22857 17.5694 8.45714 17.3397 8.45714H13.7799V8.57143Z" fill="#32393E"/>
<path d="M22.9665 8.57143C22.7369 8.57143 22.5072 8.34286 22.5072 8.11429V4.45714C22.5072 4.22857 22.7369 4 22.9665 4H26.5263C26.756 4 26.9857 4.22857 26.9857 4.45714V8C26.9857 8.22857 26.756 8.45714 26.5263 8.45714H22.9665V8.57143Z" fill="#32393E"/>
<path d="M32.1531 8.57143C31.9235 8.57143 31.6938 8.34286 31.6938 8.11429V4.45714C31.6938 4.22857 31.9235 4 32.1531 4H35.7129C35.9426 4 36.1723 4.22857 36.1723 4.45714V8C36.1723 8.22857 35.9426 8.45714 35.7129 8.45714H32.1531V8.57143Z" fill="#32393E"/>
<path d="M41.3397 8.57143C41.1101 8.57143 40.8804 8.34286 40.8804 8.11429V4.45714C40.8804 4.22857 41.1101 4 41.3397 4H44.8995C45.1292 4 45.3589 4.22857 45.3589 4.45714V8C45.3589 8.22857 45.1292 8.45714 44.8995 8.45714H41.3397V8.57143Z" fill="#32393E"/>
<path d="M50.5263 8.57143C50.2967 8.57143 50.067 8.34286 50.067 8.11429V4.45714C50.067 4.22857 50.2967 4 50.5263 4H54.0861C54.3158 4 54.5455 4.22857 54.5455 4.45714V8C54.5455 8.22857 54.3158 8.45714 54.0861 8.45714H50.5263V8.57143Z" fill="#32393E"/>
<path d="M4.47846 45.7143C4.2488 45.7143 4.01913 45.4858 4.01913 45.2572V41.7143C4.01913 41.4858 4.2488 41.2572 4.47846 41.2572H8.03827C8.26794 41.2572 8.4976 41.4858 8.4976 41.7143V45.2572C8.4976 45.4858 8.26794 45.7143 8.03827 45.7143H4.47846Z" fill="#32393E"/>
<path d="M13.6651 45.7143C13.4354 45.7143 13.2057 45.4858 13.2057 45.2572V41.7143C13.2057 41.4858 13.4354 41.2572 13.6651 41.2572H17.2249C17.4546 41.2572 17.6842 41.4858 17.6842 41.7143V45.2572C17.6842 45.4858 17.4546 45.7143 17.2249 45.7143H13.6651Z" fill="#32393E"/>
<path d="M22.8517 45.7143C22.622 45.7143 22.3923 45.4858 22.3923 45.2572V41.7143C22.3923 41.4858 22.622 41.2572 22.8517 41.2572H26.4115C26.6411 41.2572 26.8708 41.4858 26.8708 41.7143V45.2572C26.8708 45.4858 26.6411 45.7143 26.4115 45.7143H22.8517Z" fill="#32393E"/>
<path d="M32.0383 45.7143C31.8086 45.7143 31.5789 45.4858 31.5789 45.2572V41.7143C31.5789 41.4858 31.8086 41.2572 32.0383 41.2572H35.5981C35.8278 41.2572 36.0574 41.4858 36.0574 41.7143V45.2572C36.0574 45.4858 35.8278 45.7143 35.5981 45.7143H32.0383Z" fill="#32393E"/>
<path d="M41.2249 45.7143C40.9952 45.7143 40.7656 45.4858 40.7656 45.2572V41.7143C40.7656 41.4858 40.9952 41.2572 41.2249 41.2572H44.7847C45.0144 41.2572 45.244 41.4858 45.244 41.7143V45.2572C45.244 45.4858 45.0144 45.7143 44.7847 45.7143H41.2249Z" fill="#32393E"/>
<path d="M50.4115 45.7143C50.1818 45.7143 49.9521 45.4858 49.9521 45.2572V41.7143C49.9521 41.4858 50.1818 41.2572 50.4115 41.2572H53.9713C54.201 41.2572 54.4306 41.4858 54.4306 41.7143V45.2572C54.4306 45.4858 54.201 45.7143 53.9713 45.7143H50.4115Z" fill="#32393E"/>
<path d="M0.803864 12H46.1627" stroke="#32393E" stroke-miterlimit="10"/>
<path d="M0.803864 38.2856H39.2728" stroke="#32393E" stroke-miterlimit="10"/>
<path d="M52.4785 38.2856H58.2201" stroke="#32393E" stroke-miterlimit="10"/>
<path d="M57.9904 20.6857V47.4286H0.574158V0.571411H57.9904V9.14284" stroke="#32393E" stroke-miterlimit="10"/>
<path d="M71.5407 7.08575C71.311 6.85718 70.9665 6.85718 70.622 6.85718L49.9522 11.4286C49.378 11.5429 49.0335 12 49.0335 12.5715V30.6286C48.1149 30.0572 46.8517 29.7143 45.5886 29.7143C42.3732 29.7143 39.8469 31.7715 39.8469 34.2858C39.8469 36.8 42.3732 38.8572 45.5886 38.8572C48.8039 38.8572 51.3302 36.8 51.3302 34.2858V20.3429L69.7034 16.2286V26.0572C68.7847 25.4857 67.5216 25.1429 66.2584 25.1429C63.0431 25.1429 60.5168 27.2 60.5168 29.7143C60.5168 32.2286 63.0431 34.2858 66.2584 34.2858C69.4737 34.2858 72 32.2286 72 29.7143V8.00003C72 7.65718 71.8852 7.31432 71.5407 7.08575Z" fill="#FC4B15"/>
</svg>
