<svg width="61" height="46" viewBox="0 0 61 46" fill="none" xmlns="http://www.w3.org/2000/svg">
<path d="M30.2171 29.7326C33.9829 29.7326 37.0356 26.6898 37.0356 22.9362C37.0356 19.1827 33.9829 16.1399 30.2171 16.1399C26.4514 16.1399 23.3986 19.1827 23.3986 22.9362C23.3986 26.6898 26.4514 29.7326 30.2171 29.7326Z" fill="#FC4B15"/>
<path d="M30.2171 9.34351C22.7429 9.34351 16.5801 15.4864 16.5801 22.9362C16.5801 30.3861 22.7429 36.5289 30.2171 36.5289C37.6912 36.5289 43.8541 30.3861 43.8541 22.9362C43.8541 15.4864 37.6912 9.34351 30.2171 9.34351ZM30.2171 34.8481C24.1853 34.8481 18.2755 28.9484 18.2755 22.9362C18.2755 16.9241 24.1853 11.0244 30.2171 11.0244C36.2488 11.0244 42.1586 16.9241 42.1586 22.9362C42.1586 28.9484 36.2488 34.8481 30.2171 34.8481Z" fill="#FC4B15"/>
<path fill-rule="evenodd" clip-rule="evenodd" d="M1.05811 0.0637207H20.1639V1.06372H1.05811L1.0581 14.9573H0.0581055V1.06372C0.0581055 0.511437 0.505821 0.0637207 1.05811 0.0637207ZM0.0581055 30.9148V44.8084C0.0581055 45.3607 0.505819 45.8084 1.0581 45.8084H20.1639V44.8084H1.0581L1.0581 30.9148H0.0581055ZM41.3279 45.8084H59.3756C59.9278 45.8084 60.3756 45.3607 60.3756 44.8084V30.9148H59.3756V44.8084H41.3279V45.8084ZM60.3756 1.06372V14.9573H59.3756V1.06372H41.3279V0.0637207H59.3756C59.9278 0.0637207 60.3756 0.511436 60.3756 1.06372Z" fill="#32393E"/>
</svg>
