<svg width="76" height="60" viewBox="0 0 76 60" fill="none" xmlns="http://www.w3.org/2000/svg">
<g clip-path="url(#clip0)">
<path d="M34.4999 54C20.9689 54 9.99988 43.031 9.99988 29.5H7.99988C7.99988 44.1355 19.8643 56 34.4999 56V54ZM9.99988 29.5C9.99988 15.969 20.9689 5 34.4999 5V3C19.8643 3 7.99988 14.8645 7.99988 29.5H9.99988ZM54.1965 44.073C49.7311 50.0979 42.5713 54 34.4999 54V56C43.2316 56 50.977 51.7759 55.8033 45.2639L54.1965 44.073ZM34.4999 5C46.2154 5 56.0124 13.224 58.4286 24.2147L60.3819 23.7853C57.7684 11.8969 47.1743 3 34.4999 3V5Z" fill="#32393E"/>
<path d="M55.683 22.8218C55.1851 21.4604 54.6872 20.2228 54.0648 18.9852C51.5753 14.2822 47.4675 11.4357 42.4885 9.82677C42.2395 9.70301 41.9905 9.95053 41.7416 9.95053C41.8661 10.0743 42.115 10.4456 42.2395 10.4456C46.3472 11.9307 49.8326 14.1585 52.4466 17.7476C53.4424 19.2327 54.1893 20.7179 54.6872 22.4505C54.6872 22.5743 54.6872 22.8218 54.8117 22.9456C54.9361 23.0693 55.1851 23.3169 55.1851 23.1931C55.434 23.1931 55.434 22.9456 55.683 22.8218Z" fill="#32393E"/>
<path d="M52.9446 23.3169C52.9446 23.1931 52.8201 23.0693 52.8201 22.8218C51.0774 17.6238 47.4676 14.406 42.3641 12.4258C42.1151 12.302 41.7417 12.4258 41.6172 12.5495C41.4927 12.9208 41.8661 13.0446 42.1151 13.1683C46.9697 15.0248 50.455 18.2426 52.0732 23.3169C52.1977 23.5644 52.3222 23.6882 52.5712 23.8119C52.6956 23.8119 52.9446 23.6882 53.0691 23.6882C53.0691 23.4406 53.0691 23.4406 52.9446 23.3169Z" fill="#32393E"/>
<path d="M49.7082 23.3169C49.4592 22.5743 49.2103 21.8317 48.9613 21.2129C47.4676 18.3664 44.9781 16.5099 42.1151 15.1485C41.9906 15.0248 41.7417 15.2723 41.4927 15.2723C41.6172 15.3961 41.7417 15.6436 41.8662 15.7674C42.9864 16.5099 44.2312 17.1287 45.227 17.8713C46.9697 19.2327 48.339 20.9654 48.8369 23.1931C48.8369 23.3169 49.0858 23.5644 49.2103 23.5644C49.3348 23.8119 49.4592 23.5644 49.7082 23.3169Z" fill="#32393E"/>
<path d="M28.0491 30.1238C28.0491 33.3416 30.6632 36.6832 34.6464 36.9307C38.5052 37.1783 41.8661 34.208 42.115 30.2476C42.364 26.5347 39.3765 23.1931 35.5178 22.9456C31.9079 22.6981 28.0491 25.4208 28.0491 30.1238ZM35.1443 25.4208C37.7583 25.4208 39.75 27.5248 39.75 30.0001C39.75 32.4753 37.7583 34.5793 35.1443 34.5793C32.6548 34.5793 30.6632 32.5991 30.5387 30.0001C30.4142 27.401 32.5303 25.4208 35.1443 25.4208Z" fill="#32393E"/>
<path d="M52.6957 28.8861C51.9488 30 51.0775 31.1138 50.3306 32.2277C50.7041 32.2277 51.0775 32.1039 51.4509 32.1039C53.0691 31.8564 54.6873 31.9801 56.43 31.9801C58.0482 32.1039 59.5419 32.2277 61.1601 32.4752C62.0314 32.599 62.9028 32.8465 63.7741 33.3415C64.6455 33.8366 64.6455 34.4554 63.7741 35.0742C62.9028 35.5693 61.907 35.8168 60.9112 35.9405C57.9237 36.4356 55.0607 36.5594 52.0733 36.4356C50.3306 36.4356 48.7124 36.3118 46.9697 35.9405C46.3474 35.8168 45.6005 35.5693 44.9781 35.3217C44.7292 35.198 44.6047 35.0742 44.3557 34.9504C43.8578 34.5792 43.8578 34.3316 44.1068 33.8366C44.7292 32.7227 45.3515 31.7326 46.0984 30.6188C46.4718 30 46.8453 29.5049 47.2187 28.8861C47.3432 28.7623 47.4677 28.7623 47.5921 28.7623C49.2103 28.7623 50.953 28.7623 52.5712 28.7623C52.5712 28.8861 52.5712 28.8861 52.6957 28.8861ZM54.0649 34.9504C55.1852 34.8267 56.3055 34.8267 57.3013 34.7029C57.7992 34.7029 58.2971 34.4554 58.795 34.3316C58.9195 34.3316 58.9195 34.2079 58.9195 34.2079L58.795 34.0841C58.4216 33.9603 58.1727 33.8366 57.7992 33.8366C55.4342 33.4653 53.0691 33.4653 50.7041 33.8366C50.3306 33.8366 49.8327 34.0841 49.4593 34.2079C49.3348 34.2079 49.3348 34.3316 49.3348 34.3316L49.4593 34.4554C49.7082 34.5792 49.9572 34.7029 50.2061 34.7029C51.4509 34.8267 52.8202 34.9504 54.0649 34.9504Z" fill="#FC4B15"/>
<path d="M50.953 41.3861C51.0775 41.3861 51.202 41.3861 51.202 41.3861C52.6957 41.3861 54.1894 41.2623 55.6831 41.2623C57.7992 41.1386 59.7909 40.891 61.7825 40.5198C63.7741 40.1485 65.6413 39.5297 67.5084 38.6633C68.7532 38.0445 69.8735 37.3019 70.7448 36.1881C71.9896 34.5792 71.8651 32.7227 70.3714 31.3613C69.3756 30.495 68.2553 29.8762 67.135 29.5049C64.6455 28.5148 62.0314 28.1435 59.2929 28.0198C59.1685 28.0198 59.044 28.0198 58.9195 28.0198V27.896C59.044 27.896 59.1685 27.896 59.2929 27.896C60.7867 27.896 62.2804 27.896 63.7741 28.0198C65.6413 28.1435 67.5084 28.391 69.3756 28.7623C70.8693 29.1336 72.363 29.5049 73.6078 30.2475C74.3546 30.7425 75.1015 31.2376 75.5994 31.9802C76.4708 33.3415 76.3463 34.7029 75.5994 36.0643C75.1015 36.9306 74.3546 37.5495 73.4833 38.1683C71.8651 39.1584 70.1224 39.7772 68.3798 40.2722C66.3881 40.7673 64.272 41.1386 62.1559 41.3861C58.9195 41.7574 55.6831 41.8811 52.3222 41.8811C51.9488 41.8811 51.4509 41.8811 51.0775 41.8811C51.0775 41.6336 50.953 41.5099 50.953 41.3861C50.953 41.5099 50.953 41.5099 50.953 41.3861Z" fill="#FC4B15"/>
</g>
<defs>
<clipPath id="clip0">
<rect width="76" height="60" fill="white"/>
</clipPath>
</defs>
</svg>
