<svg width="63" height="56" viewBox="0 0 63 56" fill="none" xmlns="http://www.w3.org/2000/svg">
<path d="M56.0348 53.2774H5.31225C4.4452 53.2774 3.72266 52.5549 3.72266 51.6879V6.31213C3.72266 5.44508 4.4452 4.72253 5.31225 4.72253H56.0348C56.9018 4.72253 57.6244 5.44508 57.6244 6.31213V51.6879C57.6244 52.5549 56.9018 53.2774 56.0348 53.2774Z" stroke="#32393E" stroke-width="2" stroke-miterlimit="10"/>
<path d="M5.45676 5.30054C4.4452 5.30054 3.72266 6.16759 3.72266 7.03464V10.6474H57.6244V7.17915C57.6244 6.16759 56.7573 5.44505 55.8903 5.44505H5.45676V5.30054Z" fill="#32393E"/>
<path d="M57.6244 5.30054H3.72266V10.7919H57.6244V5.30054Z" fill="#32393E"/>
<path d="M8.34694 8.04628C8.34694 8.76882 7.7689 9.20235 7.19087 9.20235C6.46832 9.20235 5.89029 8.76882 5.89029 8.04628C5.89029 7.32374 6.46832 6.89021 7.04636 6.89021C7.7689 6.7457 8.34694 7.32374 8.34694 8.04628Z" fill="#F9F9F9"/>
<path d="M12.6822 8.04628C12.6822 8.76882 12.1042 9.20235 11.5261 9.20235C10.8036 9.20235 10.2256 8.76882 10.2256 8.04628C10.2256 7.32374 10.8036 6.89021 11.3816 6.89021C12.1042 6.7457 12.6822 7.32374 12.6822 8.04628Z" fill="#F9F9F9"/>
<path d="M17.0175 8.04628C17.0175 8.76882 16.4394 9.20235 15.8614 9.20235C15.1389 9.20235 14.5608 8.76882 14.5608 8.04628C14.5608 7.32374 15.1389 6.89021 15.7169 6.89021C16.4394 6.7457 17.0175 7.32374 17.0175 8.04628Z" fill="#F9F9F9"/>
<path d="M46.0637 24.9538C45.6301 23.5087 44.6186 22.4971 43.1735 22.0636C40.7168 21.3411 30.6012 21.3411 30.6012 21.3411C30.6012 21.3411 20.4856 21.3411 18.029 22.0636C16.5839 22.4971 15.5723 23.5087 15.1388 24.9538C14.4163 27.4104 14.4163 32.7572 14.4163 32.7572C14.4163 32.7572 14.4163 37.9596 15.1388 40.5607C15.5723 42.0058 16.5839 43.0174 18.029 43.4509C20.4856 44.1734 30.6012 44.1734 30.6012 44.1734C30.6012 44.1734 40.7168 44.1734 43.1735 43.4509C44.6186 43.0174 45.6301 42.0058 46.0637 40.5607C46.7862 38.1041 46.7862 32.7572 46.7862 32.7572C46.7862 32.7572 46.7862 27.5549 46.0637 24.9538Z" fill="#FC4B15"/>
<path d="M27.422 37.6706L35.8035 32.7573L27.422 27.9885V37.6706Z" fill="white"/>
</svg>
