<svg width="67" height="50" viewBox="0 0 67 50" fill="none" xmlns="http://www.w3.org/2000/svg">
<path d="M10 16.875V14.25C10 12.625 11.375 11.25 13 11.25H50.875C52.5 11.25 53.875 12.625 53.875 14.25V39C53.75 40.5 52.375 41.875 50.75 41.875H46.25" stroke="#32393E" stroke-miterlimit="10"/>
<path d="M41.375 50H3.625C2 50 0.625 48.625 0.625 47V22.375C0.625 20.75 2 19.375 3.625 19.375H41.5C43.125 19.375 44.5 20.75 44.5 22.375V47.125C44.375 48.625 43 50 41.375 50Z" fill="#FC4B15"/>
<path d="M20 8.125V5.5C20 3.875 21.375 2.5 23 2.5H60.875C62.5 2.5 63.875 3.875 63.875 5.5V30.25C63.75 31.75 62.375 33.125 60.75 33.125H56.25" stroke="#32393E" stroke-miterlimit="10"/>
</svg>
