<?xml version="1.0" encoding="utf-8"?>
<!-- Generator: Adobe Illustrator 24.2.1, SVG Export Plug-In . SVG Version: 6.00 Build 0)  -->
<svg version="1.1" id="split_copy_2" xmlns="http://www.w3.org/2000/svg" xmlns:xlink="http://www.w3.org/1999/xlink" x="0px"
	 y="0px" width="84px" height="84px" viewBox="0 0 84 84" style="enable-background:new 0 0 84 84;" xml:space="preserve">
<style type="text/css">
	.st0{fill-rule:evenodd;clip-rule:evenodd;fill:#55B1BA;}
	.st1{fill:#FFFFFF;}
	.st2{fill-rule:evenodd;clip-rule:evenodd;fill:#FFFFFF;}
	.st3{fill:#55B1BA;}
</style>
<g>
	<g>
		<circle class="st0" cx="42" cy="42" r="41.5"/>
		<path class="st1" d="M42,1c22.61,0,41,18.39,41,41S64.61,83,42,83S1,64.61,1,42S19.39,1,42,1 M42,0C18.8,0,0,18.8,0,42
			s18.8,42,42,42c23.2,0,42-18.8,42-42S65.2,0,42,0L42,0z"/>
	</g>
	<path class="st2" d="M0.25,45.58c0.04,0.57,0.1,1.14,0.16,1.71c0.03,0.27,0.07,0.54,0.1,0.81c0.08,0.57,0.17,1.14,0.27,1.7
		c0.04,0.23,0.08,0.46,0.12,0.69c0.15,0.77,0.32,1.52,0.51,2.27c0,0.01,0.01,0.03,0.01,0.04c0.2,0.8,0.43,1.58,0.68,2.36
		c0.04,0.14,0.1,0.28,0.14,0.42c0.21,0.62,0.42,1.24,0.66,1.85c0.07,0.18,0.14,0.37,0.22,0.55c0.23,0.59,0.48,1.16,0.74,1.74
		c0.07,0.15,0.14,0.31,0.21,0.46c0.33,0.71,0.68,1.41,1.05,2.09c0,0-0.13-0.13-0.13-0.13h50.22l0.13-26.87H0.72
		c-0.09,0.53-0.17,1.06-0.24,1.59c-0.01,0.11-0.03,0.23-0.04,0.34c-0.06,0.46-0.11,0.92-0.15,1.39c-0.02,0.26-0.04,0.52-0.06,0.79
		c-0.03,0.35-0.05,0.7-0.07,1.05c-0.03,0.65-0.05,1.3-0.05,1.95c0,0.83,0.03,1.65,0.08,2.46C0.2,45.09,0.23,45.33,0.25,45.58z"/>
	<path class="st0" d="M59.33,58.24v-3h3v3H59.33z M52.33,55.24h3v3h-3V55.24z M45.33,55.24h3v3h-3V55.24z M38.33,55.24h3v3h-3V55.24
		z M31.33,55.24h3v3h-3V55.24z M24.33,55.24h3v3h-3V55.24z M17.36,58.24h-0.03v-3h0.03h2.96h0.01v3h-0.01H17.36z M10.33,55.24h3v3
		h-3V55.24z"/>
	<path class="st0" d="M59.33,42.24v-3h3v3H59.33z M52.33,39.24h3v3h-3V39.24z M45.33,39.24h3v3h-3V39.24z M38.33,39.24h3v3h-3V39.24
		z M31.33,39.24h3v3h-3V39.24z M24.33,39.24h3v3h-3V39.24z M17.36,42.24h-0.03v-3h0.03h2.96h0.01v3h-0.01H17.36z M10.33,39.24h3v3
		h-3V39.24z"/>
	<path class="st0" d="M56.33,22.27h13v13h-13V22.27z"/>
	<path class="st2" d="M50.33,24.24v-2h3v2H50.33z M57.33,24.24v-2h3v2H57.33z M63.33,24.24v-2h3v2H63.33z M43.33,22.24h3v2h-3V22.24
		z M36.33,22.24h3v2h-3V22.24z M29.33,22.24h3v2h-3V22.24z M22.33,22.24h3v2h-3V22.24z M15.33,22.24h3v2h-3V22.24z M8.36,24.24H8.33
		v-2h0.03h2.96h0.01v2h-0.01H8.36z"/>
	<path class="st2" d="M57.33,62.24v-2h3v2H57.33z M63.33,62.24v-2h3v2H63.33z"/>
	<path class="st2" d="M66.33,51.24v3h-2v-3H66.33z M66.33,58.24v3h-2v-3H66.33z M66.33,44.24v3h-2v-3H66.33z M66.33,37.24v3h-2v-3
		H66.33z M64.33,30.27v-0.03h2v0.03v2.96v0.01h-2v-0.01V30.27z M66.33,23.24v3h-2v-3H66.33z"/>
	<g>
		<g>
			<polygon class="st2" points="40.33,50.24 40.33,29.24 45.33,29.24 45.33,45.24 61.33,45.24 61.33,50.24 			"/>
			<path class="st3" d="M44.33,30.24v16h16v3h-16h-3v-19H44.33 M46.33,28.24h-2h-3h-2v2v19v2h2h3h16h2v-2v-3v-2h-2h-14v-14V28.24
				L46.33,28.24z"/>
		</g>
	</g>
	<g>
		<g>
			<polygon class="st2" points="51.33,55.24 51.33,39.24 33.33,39.24 33.33,34.24 56.33,34.24 56.33,55.24 			"/>
			<path class="st3" d="M55.33,35.24v19h-3v-16h-18v-3h20.05H55.33 M57.33,33.24h-2h-0.95H34.33h-2v2v3v2h2h16v14v2h2h3h2v-2v-19
				V33.24L57.33,33.24z"/>
		</g>
	</g>
	<rect x="44.33" y="39.27" class="st0" width="7" height="5"/>
</g>
</svg>
