<?xml version="1.0" encoding="utf-8"?>
<!-- Generator: Adobe Illustrator 24.2.1, SVG Export Plug-In . SVG Version: 6.00 Build 0)  -->
<svg version="1.1" id="split_copy_2" xmlns="http://www.w3.org/2000/svg" xmlns:xlink="http://www.w3.org/1999/xlink" x="0px"
	 y="0px" width="84px" height="84px" viewBox="0 0 84 84" style="enable-background:new 0 0 84 84;" xml:space="preserve">
<style type="text/css">
	.st0{fill-rule:evenodd;clip-rule:evenodd;fill:#7852A7;}
	.st1{fill:#FFFFFF;}
	.st2{fill-rule:evenodd;clip-rule:evenodd;fill:#FFFFFF;}
	.st3{fill:#7852A7;}
</style>
<g>
	<g>
		<circle class="st0" cx="42.04" cy="42" r="41.5"/>
		<path class="st1" d="M42.04,1c22.61,0,41,18.39,41,41s-18.39,41-41,41s-41-18.39-41-41S19.44,1,42.04,1 M42.04,0
			c-23.2,0-42,18.8-42,42s18.8,42,42,42c23.2,0,42-18.8,42-42S65.24,0,42.04,0L42.04,0z"/>
	</g>
	<path class="st2" d="M-0.04,42.32c0,7.18,1.81,13.95,4.99,19.86h63.22V23.24H4.55C1.62,28.97-0.04,35.44-0.04,42.32z"/>
	<path class="st0" d="M60.17,58.18v-2.94h3v2.94H60.17z M60.17,27.24h3v3h-3V27.24z M53.17,55.24h3v2.94h-3V55.24z M53.17,27.24h3v3
		h-3V27.24z M46.17,55.24h3v2.94h-3V55.24z M46.17,27.24h3v3h-3V27.24z M39.17,55.24h3v2.94h-3V55.24z M39.17,27.24h3v3h-3V27.24z
		 M32.17,55.24h3v2.94h-3V55.24z M32.17,27.24h3v3h-3V27.24z M25.17,55.24h3v2.94h-3V55.24z M25.17,27.24h3v3h-3V27.24z M18.2,58.18
		h-0.03v-2.94h0.03h2.96h0.01v2.94h-0.01H18.2z M18.2,30.24h-0.03v-3h0.03h2.88h0.09v3h-0.09H18.2z M11.17,55.24h3v2.94h-3V55.24z
		 M11.17,27.24h3v3h-3V27.24z"/>
	<path class="st0" d="M56.17,22.24h13v13h-13V22.24z"/>
	<g>
		<g>
			<polygon class="st2" points="53.17,38.24 53.17,17.24 58.17,17.24 58.17,33.24 74.17,33.24 74.17,38.24 			"/>
			<path class="st3" d="M57.17,18.24v16h16v3h-16h-3v-19H57.17 M59.17,16.24h-2h-3h-2v2v19v2h2h3h16h2v-2v-3v-2h-2h-14v-14V16.24
				L59.17,16.24z"/>
		</g>
	</g>
	<g>
		<g>
			<polygon class="st2" points="64.17,43.24 64.17,27.24 46.17,27.24 46.17,22.24 69.17,22.24 69.17,43.24 			"/>
			<path class="st3" d="M68.17,23.24v19h-3v-16h-18v-3h20.05H68.17 M70.17,21.24h-2h-0.95H47.17h-2v2v3v2h2h16v14v2h2h3h2v-2v-19
				V21.24L70.17,21.24z"/>
		</g>
	</g>
</g>
</svg>
