<?xml version="1.0" encoding="utf-8"?>
<!-- Generator: Adobe Illustrator 24.2.1, SVG Export Plug-In . SVG Version: 6.00 Build 0)  -->
<svg version="1.1" id="split_copy_2" xmlns="http://www.w3.org/2000/svg" xmlns:xlink="http://www.w3.org/1999/xlink" x="0px"
	 y="0px" width="84.09px" height="84px" viewBox="0 0 84.09 84" style="enable-background:new 0 0 84.09 84;" xml:space="preserve">
<style type="text/css">
	.st0{fill-rule:evenodd;clip-rule:evenodd;fill:#7852A7;}
	.st1{fill:#FFFFFF;}
	.st2{fill-rule:evenodd;clip-rule:evenodd;fill:#FFFFFF;}
</style>
<g>
	<g>
		<g>
			<path class="st0" d="M42.09,83.59C19.16,83.59,0.5,64.93,0.5,42c0-22.93,18.66-41.59,41.59-41.59
				c22.93,0,41.59,18.66,41.59,41.59C83.68,64.93,65.02,83.59,42.09,83.59z"/>
			<path class="st1" d="M42.09,0.91c22.66,0,41.09,18.43,41.09,41.09S64.75,83.09,42.09,83.09C19.43,83.09,1,64.66,1,42
				S19.43,0.91,42.09,0.91 M42.09-0.09C18.84-0.09,0,18.75,0,42s18.84,42.09,42.09,42.09S84.18,65.25,84.18,42
				S65.34-0.09,42.09-0.09L42.09-0.09z"/>
		</g>
	</g>
	<g>
		<rect x="41.47" y="61.24" class="st0" width="2" height="3"/>
		<rect x="41.47" y="55.24" class="st0" width="2" height="3"/>
		<rect x="41.47" y="48.24" class="st0" width="2" height="3"/>
		<rect x="41.47" y="41.24" class="st0" width="2" height="3"/>
		<rect x="41.47" y="34.24" class="st0" width="2" height="3"/>
		<rect x="41.47" y="26.24" class="st0" width="2" height="3"/>
		<rect x="41.47" y="20.24" class="st0" width="2" height="3"/>
	</g>
	<path class="st2" d="M83.67,42.27c0-6.86-1.69-13.33-4.65-19.03H48.37h-1.04H5.17c-2.97,5.7-4.65,12.17-4.65,19.03
		c0,7.18,1.84,13.93,5.06,19.81h41.76h1.04h30.24C81.83,56.2,83.67,49.45,83.67,42.27z"/>
	<path class="st0" d="M72.47,58.21v-2.97h3v2.97H72.47z M72.47,27.24h3v3h-3V27.24z M65.49,58.21h-0.02v-2.97h0.02h2.88h0.09v2.97
		h-0.09H65.49z M65.49,30.24h-0.02v-3h0.02h2.88h0.09v3h-0.09H65.49z M58.47,55.24h3v2.97h-3V55.24z M58.47,27.24h3v3h-3V27.24z
		 M33.47,55.24h3v2.97h-3V55.24z M33.47,27.24h3v3h-3V27.24z M40.47,55.24h3v2.97h-3V55.24z M40.47,27.24h3v3h-3V27.24z
		 M47.47,55.24h3v2.97h-3V55.24z M47.47,27.24h3v3h-3V27.24z M15.5,58.21h-0.03v-2.97h0.03h2.96h0.01v2.97h-0.01H15.5z M15.5,30.24
		h-0.03v-3h0.03h2.88h0.09v3h-0.09H15.5z M22.5,58.21h-0.03v-2.97h0.03h2.96h0.01v2.97h-0.01H22.5z M22.5,30.24h-0.03v-3h0.03h2.88
		h0.09v3h-0.09H22.5z M8.47,55.24h3v2.97h-3V55.24z M8.47,27.24h3v3h-3V27.24z"/>
	<g>
		<g>
			<rect x="53.47" y="61.24" class="st0" width="2" height="3"/>
			<rect x="53.47" y="55.24" class="st0" width="2" height="3"/>
			<rect x="53.47" y="48.25" class="st0" width="2" height="2.99"/>
			<rect x="53.47" y="41.24" class="st0" width="2" height="3"/>
			<rect x="53.47" y="34.24" class="st0" width="2" height="3"/>
			<rect x="53.47" y="27.24" class="st0" width="2" height="3"/>
			<rect x="53.47" y="21.24" class="st0" width="2" height="3"/>
		</g>
		<g>
			<rect x="28.47" y="61.24" class="st0" width="2" height="3"/>
			<rect x="28.47" y="55.24" class="st0" width="2" height="3"/>
			<rect x="28.47" y="48.24" class="st0" width="2" height="3"/>
			<rect x="28.47" y="41.24" class="st0" width="2" height="3"/>
			<rect x="28.47" y="34.24" class="st0" width="2" height="3"/>
			<rect x="28.47" y="27.24" class="st0" width="2" height="3"/>
			<rect x="28.47" y="21.24" class="st0" width="2" height="3"/>
		</g>
	</g>
</g>
</svg>
