<?xml version="1.0" encoding="utf-8"?>
<!-- Generator: Adobe Illustrator 24.2.1, SVG Export Plug-In . SVG Version: 6.00 Build 0)  -->
<svg version="1.1" id="split_copy_2" xmlns="http://www.w3.org/2000/svg" xmlns:xlink="http://www.w3.org/1999/xlink" x="0px"
	 y="0px" width="84.41px" height="84px" viewBox="0 0 84.41 84" style="enable-background:new 0 0 84.41 84;" xml:space="preserve">
<style type="text/css">
	.st0{fill-rule:evenodd;clip-rule:evenodd;fill:#55B1BA;}
	.st1{fill:#FFFFFF;}
	.st2{fill-rule:evenodd;clip-rule:evenodd;fill:#FFFFFF;}
</style>
<g>
	<g>
		<g>
			<path class="st0" d="M42,83.5C19.12,83.5,0.5,64.88,0.5,42C0.5,19.12,19.12,0.5,42,0.5c22.88,0,41.5,18.62,41.5,41.5
				C83.5,64.88,64.88,83.5,42,83.5z"/>
			<path class="st1" d="M42,1c22.61,0,41,18.39,41,41S64.61,83,42,83C19.39,83,1,64.61,1,42S19.39,1,42,1 M42,0C18.8,0,0,18.8,0,42
				s18.8,42,42,42s42-18.8,42-42S65.2,0,42,0L42,0z"/>
		</g>
	</g>
	<g>
		<path class="st2" d="M62.38,62.17h16.76c3.36-5.88,5.28-12.65,5.28-19.86c0-6.89-1.75-13.37-4.84-19.07H62.38V62.17z"/>
		<path class="st2" d="M0.23,42.31c0,7.21,1.92,13.98,5.28,19.86h15.87V23.24H5.07C1.99,28.94,0.23,35.42,0.23,42.31z"/>
	</g>
	<path class="st2" d="M25.38,66.2v-2.96h2v2.96H25.38z M25.38,56.24h2v2.96h-2V56.24z M25.38,49.24h2v2.95h-2V49.24z M25.38,42.24h2
		v3h-2V42.24z M25.38,35.24h2v3h-2V35.24z M25.38,27.24h2v3h-2V27.24z M25.38,20.24h2v3h-2V20.24z M56.38,66.2v-2.96h2v2.96H56.38z
		 M56.38,56.24h2v2.96h-2V56.24z M56.38,49.24h2v2.95h-2V49.24z M56.38,42.24h2v3h-2V42.24z M56.38,35.24h2v3h-2V35.24z
		 M56.38,27.24h2v3h-2V27.24z M56.38,20.24h2v3h-2V20.24z M53.38,57.16h-23V18.24h23V57.16z"/>
	<path class="st0" d="M72.38,58.21v-2.97h3v2.97H72.38z M72.38,27.24h3v3h-3V27.24z M65.4,58.21h-0.02v-2.97h0.02h2.88h0.09v2.97
		h-0.09H65.4z M65.4,30.24h-0.02v-3h0.02h2.88h0.09v3h-0.09H65.4z M33.38,50.24h3v2.97h-3V50.24z M33.38,22.24h3v3h-3V22.24z
		 M40.38,50.24h3v2.97h-3V50.24z M40.38,22.24h3v3h-3V22.24z M47.38,50.24h3v2.97h-3V50.24z M47.38,22.24h3v3h-3V22.24z
		 M15.41,58.21h-0.03v-2.97h0.03h2.96h0.01v2.97h-0.01H15.41z M15.41,30.24h-0.03v-3h0.03h2.88h0.09v3h-0.09H15.41z M8.38,55.24h3
		v2.97h-3V55.24z M8.38,27.24h3v3h-3V27.24z"/>
</g>
</svg>
