<?xml version="1.0" encoding="utf-8"?>
<!-- Generator: Adobe Illustrator 24.2.1, SVG Export Plug-In . SVG Version: 6.00 Build 0)  -->
<svg version="1.1" id="split_copy_2" xmlns="http://www.w3.org/2000/svg" xmlns:xlink="http://www.w3.org/1999/xlink" x="0px"
	 y="0px" width="84px" height="84px" viewBox="0 0 84 84" style="enable-background:new 0 0 84 84;" xml:space="preserve">
<style type="text/css">
	.st0{fill-rule:evenodd;clip-rule:evenodd;fill:#7852A7;}
	.st1{fill:#FFFFFF;}
	.st2{fill-rule:evenodd;clip-rule:evenodd;fill:#FFFFFF;}
</style>
<g>
	<g>
		<circle class="st0" cx="41.93" cy="42" r="41.5"/>
		<path class="st1" d="M41.93,1c22.61,0,41,18.39,41,41s-18.39,41-41,41s-41-18.39-41-41S19.32,1,41.93,1 M41.93,0
			c-23.2,0-42,18.8-42,42s18.8,42,42,42c23.2,0,42-18.8,42-42S65.13,0,41.93,0L41.93,0z"/>
	</g>
	<g>
		<path class="st2" d="M47.34,62.21h31.51c3.33-5.88,5.24-12.65,5.24-19.86c0-6.89-1.74-13.37-4.8-19.07H47.34V62.21z"/>
		<path class="st2" d="M-0.09,42.35c0,7.21,1.92,13.98,5.28,19.86h31.87V23.28H4.75C1.67,28.98-0.09,35.46-0.09,42.35z"/>
	</g>
	<path class="st0" d="M72.27,58.23v-2.97h3v2.97H72.27z M72.27,27.26h3v2.96h-3V27.26z M65.3,58.23h-0.02v-2.97h0.02h2.88h0.09v2.97
		h-0.09H65.3z M65.3,30.22h-0.02v-2.96h0.02h2.88h0.09v2.96h-0.09H65.3z M58.27,55.26h3v2.97h-3V55.26z M58.27,27.26h3v2.96h-3
		V27.26z M51.27,55.26h3v2.97h-3V55.26z M51.27,27.26h3v2.96h-3V27.26z M30.27,55.26h3v2.97h-3V55.26z M30.27,27.26h3v2.96h-3V27.26
		z M23.27,55.26h3v2.97h-3V55.26z M23.27,27.26h3v2.96h-3V27.26z M16.31,58.23h-0.03v-2.97h0.03h2.96h0.01v2.97h-0.01H16.31z
		 M16.31,30.22h-0.03v-2.96h0.03h2.88h0.09v2.96h-0.09H16.31z M9.27,55.26h3v2.97h-3V55.26z M9.27,27.26h3v2.96h-3V27.26z"/>
	<g>
		<rect x="41.27" y="63.24" class="st2" width="2" height="3"/>
		<rect x="41.27" y="56.24" class="st2" width="2" height="3"/>
		<rect x="41.27" y="49.24" class="st2" width="2" height="3"/>
		<rect x="41.27" y="42.24" class="st2" width="2" height="3"/>
		<rect x="41.27" y="35.24" class="st2" width="2" height="3"/>
		<rect x="41.27" y="28.24" class="st2" width="2" height="3"/>
		<rect x="41.27" y="21.24" class="st2" width="2" height="3"/>
	</g>
</g>
</svg>
