<?xml version="1.0" encoding="utf-8"?>
<!-- Generator: Adobe Illustrator 24.2.1, SVG Export Plug-In . SVG Version: 6.00 Build 0)  -->
<svg version="1.1" id="split_copy_2" xmlns="http://www.w3.org/2000/svg" xmlns:xlink="http://www.w3.org/1999/xlink" x="0px"
	 y="0px" width="84px" height="84px" viewBox="0 0 84 84" style="enable-background:new 0 0 84 84;" xml:space="preserve">
<style type="text/css">
	.st0{fill-rule:evenodd;clip-rule:evenodd;fill:#55B1BA;}
	.st1{fill:#FFFFFF;}
	.st2{fill-rule:evenodd;clip-rule:evenodd;fill:#FFFFFF;}
</style>
<g>
	<g>
		<circle class="st0" cx="42.06" cy="42" r="41.5"/>
		<path class="st1" d="M42.06,1c22.61,0,41,18.39,41,41s-18.39,41-41,41s-41-18.39-41-41S19.45,1,42.06,1 M42.06,0
			c-23.2,0-42,18.8-42,42s18.8,42,42,42c23.2,0,42-18.8,42-42S65.25,0,42.06,0L42.06,0z"/>
	</g>
	<g>
		<path class="st2" d="M47.05,62.08h31.76c3.36-5.87,5.28-12.62,5.28-19.81c0-6.87-1.75-13.34-4.84-19.02H47.05V62.08z"/>
		<path class="st2" d="M-0.09,42.27c0,7.19,1.92,13.94,5.28,19.81h31.87V23.25H4.75C1.67,28.93-0.09,35.4-0.09,42.27z"/>
	</g>
	<path class="st0" d="M72.05,58.21v-2.97h3v2.97H72.05z M72.05,27.24h3v3h-3V27.24z M65.08,58.21h-0.02v-2.97h0.02h2.88h0.09v2.97
		h-0.09H65.08z M65.08,30.24h-0.02v-3h0.02h2.88h0.09v3h-0.09H65.08z M58.05,55.24h3v2.97h-3V55.24z M58.05,27.24h3v3h-3V27.24z
		 M51.05,55.24h3v2.97h-3V55.24z M51.05,27.24h3v3h-3V27.24z M30.05,55.24h3v2.97h-3V55.24z M30.05,27.24h3v3h-3V27.24z
		 M23.05,55.24h3v2.97h-3V55.24z M23.05,27.24h3v3h-3V27.24z M16.09,58.21h-0.03v-2.97h0.03h2.96h0.01v2.97h-0.01H16.09z
		 M16.09,30.24h-0.03v-3h0.03h2.88h0.09v3h-0.09H16.09z M9.05,55.24h3v2.97h-3V55.24z M9.05,27.24h3v3h-3V27.24z"/>
	<rect x="25.05" y="42.24" class="st0" width="12" height="2"/>
	<polygon class="st0" points="28.05,38.89 28.05,46.89 22.05,42.89 	"/>
	
		<rect x="47.05" y="42.24" transform="matrix(-1 -1.224647e-16 1.224647e-16 -1 106.11 86.478)" class="st0" width="12" height="2"/>
	<polygon class="st0" points="56.05,46.89 56.05,38.89 62.05,42.89 	"/>
	<g>
		<rect x="41.05" y="61.24" class="st2" width="2" height="3"/>
		<rect x="41.05" y="55.24" class="st2" width="2" height="3"/>
		<rect x="41.05" y="48.24" class="st2" width="2" height="3"/>
		<rect x="41.05" y="41.24" class="st2" width="2" height="3"/>
		<rect x="41.05" y="34.24" class="st2" width="2" height="3"/>
		<rect x="41.05" y="27.24" class="st2" width="2" height="3"/>
		<rect x="41.05" y="21.24" class="st2" width="2" height="3"/>
	</g>
</g>
</svg>
