<?xml version="1.0" encoding="utf-8"?>
<!-- Generator: Adobe Illustrator 24.2.1, SVG Export Plug-In . SVG Version: 6.00 Build 0)  -->
<svg version="1.1" id="split_copy_2" xmlns="http://www.w3.org/2000/svg" xmlns:xlink="http://www.w3.org/1999/xlink" x="0px"
	 y="0px" width="84.18px" height="84.18px" viewBox="0 0 84.18 84.18" style="enable-background:new 0 0 84.18 84.18;"
	 xml:space="preserve">
<style type="text/css">
	.st0{fill-rule:evenodd;clip-rule:evenodd;fill:#7852A7;}
	.st1{fill:#FFFFFF;}
	.st2{fill-rule:evenodd;clip-rule:evenodd;fill:#FFFFFF;}
</style>
<g>
	<g>
		<circle class="st0" cx="42.09" cy="42.09" r="41.5"/>
		<path class="st1" d="M42.09,1.09c22.61,0,41,18.39,41,41s-18.39,41-41,41c-22.61,0-41-18.39-41-41S19.48,1.09,42.09,1.09
			 M42.09,0.09c-23.2,0-42,18.8-42,42s18.8,42,42,42s42-18.8,42-42S65.29,0.09,42.09,0.09L42.09,0.09z"/>
	</g>
	<g>
		<path class="st2" d="M0,42.09c0,7.33,1.88,14.22,5.17,20.22h42.44V23.43H4.36C1.57,29.06,0,35.39,0,42.09z"/>
		<path class="st2" d="M84.18,41.96c-0.09-6.68-1.84-12.98-4.9-18.53H46.59v38.87h32.24c1.59-2.74,2.85-5.68,3.75-8.76
			c1.03-3.64,1.59-7.49,1.59-11.46C84.18,42.05,84.18,42,84.18,41.96z"/>
	</g>
	<path class="st0" d="M69.01,58.31v-2.98h3v2.98H69.01z M69.01,27.33h3v3h-3V27.33z M62.04,58.31h-0.02v-2.98h0.02h2.88h0.09v2.98
		h-0.09H62.04z M62.04,30.33h-0.02v-3h0.02h2.88h0.09v3h-0.09H62.04z M55.01,55.33h3v2.98h-3V55.33z M55.01,27.33h3v3h-3V27.33z
		 M48.01,55.33h3v2.98h-3V55.33z M48.01,27.33h3v3h-3V27.33z M31.01,55.33h3v2.98h-3V55.33z M31.01,27.33h3v3h-3V27.33z
		 M24.01,55.33h3v2.98h-3V55.33z M24.01,27.33h3v3h-3V27.33z M17.04,58.31h-0.03v-2.98h0.03H20h0.01v2.98H20H17.04z M17.04,30.33
		h-0.03v-3h0.03h2.88h0.09v3h-0.09H17.04z M10.01,55.33h3v2.98h-3V55.33z M10.01,27.33h3v3h-3V27.33z"/>
	<g>
		<rect x="40.01" y="61.33" class="st0" width="2" height="3"/>
		<rect x="40.01" y="55.33" class="st0" width="2" height="3"/>
		<rect x="40.01" y="48.35" class="st0" width="2" height="2.98"/>
		<rect x="40.01" y="41.33" class="st0" width="2" height="3"/>
		<rect x="40.01" y="34.33" class="st0" width="2" height="3"/>
		<rect x="40.01" y="27.33" class="st0" width="2" height="3"/>
		<rect x="40.01" y="21.33" class="st0" width="2" height="3"/>
	</g>
</g>
</svg>
