<?xml version="1.0" encoding="utf-8"?>
<!-- Generator: Adobe Illustrator 24.2.1, SVG Export Plug-In . SVG Version: 6.00 Build 0)  -->
<svg version="1.1" id="split_copy_2" xmlns="http://www.w3.org/2000/svg" xmlns:xlink="http://www.w3.org/1999/xlink" x="0px"
	 y="0px" width="84.09px" height="84px" viewBox="0 0 84.09 84" style="enable-background:new 0 0 84.09 84;" xml:space="preserve">
<style type="text/css">
	.st0{fill-rule:evenodd;clip-rule:evenodd;fill:#7852A7;}
	.st1{fill:#FFFFFF;}
	.st2{fill-rule:evenodd;clip-rule:evenodd;fill:#FFFFFF;}
	.st3{fill:#7852A7;}
</style>
<g>
	<g>
		<path class="st0" d="M42,83.5C19.12,83.5,0.5,64.88,0.5,42C0.5,19.12,19.12,0.5,42,0.5c22.88,0,41.5,18.62,41.5,41.5
			C83.5,64.88,64.88,83.5,42,83.5z"/>
		<path class="st1" d="M42,1c22.61,0,41,18.39,41,41S64.61,83,42,83C19.39,83,1,64.61,1,42S19.39,1,42,1 M42,0C18.8,0,0,18.8,0,42
			s18.8,42,42,42s42-18.8,42-42S65.2,0,42,0L42,0z"/>
	</g>
	<g>
		<g>
			<path class="st2" d="M55.79,71.68c-2.25,0-4.36-1-5.78-2.75L33.62,47.84c-1.05-1.18-8.8-10.01-9.7-14.37
				c-0.45-2.15,0.74-6.99,0.99-7.93l0.62-2.41l1.84,1.68c1.65,1.5,15.86,18.71,16.8,23.73c0.67,3.56,3.13,4.4,4.17,4.59l0.31-0.25
				c1.26-1.02,2.86-1.58,4.5-1.58c2.12,0,4.08,0.92,5.38,2.52l3.92,5.1c2.55,3.15,2.06,7.84-1.12,10.42l-0.86,0.7
				C59.14,71.09,57.48,71.68,55.79,71.68z M54.1,58.92c-0.34,0-0.66,0.11-0.9,0.3l-0.4,0.33c-0.24,0.19-0.36,0.45-0.38,0.75
				c-0.02,0.35,0.12,0.72,0.38,1.05l1.75,2.4c0.23,0.29,0.64,0.48,1.06,0.48l0,0c0.2,0,0.49-0.05,0.76-0.26l0.4-0.33
				c0.55-0.45,0.6-1.29,0.12-1.89l-1.75-2.4C54.94,59.1,54.54,58.92,54.1,58.92z"/>
			<path class="st3" d="M26.36,25.91c1.6,1.45,15.5,18.48,16.34,22.9c1.05,5.55,5.77,5.87,6.08,5.87c0.01,0,0.02,0,0.02,0l0.79-0.64
				c1.03-0.83,2.3-1.25,3.55-1.25c1.59,0,3.16,0.66,4.22,1.97l3.9,5.07c2.06,2.54,1.67,6.28-0.87,8.34l-0.86,0.7
				c-1.1,0.89-2.42,1.32-3.73,1.32c-1.73,0-3.44-0.75-4.61-2.2l-3.03-3.9L34.78,46.88c0,0-8.53-9.57-9.39-13.71
				C24.99,31.24,26.36,25.91,26.36,25.91 M55.62,65.73c0.61,0,1.21-0.2,1.71-0.6l0.4-0.33c1.19-0.97,1.34-2.75,0.34-4l-1.7-2.34
				c-0.57-0.7-1.41-1.05-2.26-1.05c-0.66,0-1.32,0.21-1.84,0.63l-0.4,0.33c-1.19,0.97-1.22,2.67-0.22,3.91l1.7,2.34
				C53.93,65.35,54.77,65.73,55.62,65.73 M24.69,20.34l-1.24,4.83c-0.46,1.81-1.49,6.26-1,8.61c0.96,4.63,8.36,13.15,10.02,15.02
				l13.31,17.13l3.03,3.9l0.02,0.02l0.02,0.02c1.7,2.1,4.23,3.31,6.94,3.31c2.04,0,4.03-0.71,5.62-1.99l0.86-0.7
				c3.81-3.09,4.41-8.7,1.34-12.53l-3.87-5.04l-0.02-0.03l-0.02-0.03c-1.58-1.95-3.97-3.08-6.55-3.08c-1.86,0-3.67,0.6-5.15,1.69
				c-0.85-0.32-1.95-1.14-2.35-3.23c-1.07-5.66-16.16-23.55-17.27-24.56L24.69,20.34L24.69,20.34z M54.03,60.48l0.05-0.04l1.55,2.13
				l0.03,0.04l-0.05,0.04l-1.55-2.13L54.03,60.48L54.03,60.48z"/>
		</g>
	</g>
	<path class="st0" d="M14.35,24.23h57v23h-57V24.23z"/>
	<path class="st2" d="M6.74,20.27c-4.04,6.37-6.39,13.9-6.39,21.97c0,0.67,0.02,1.33,0.05,1.99h83.63c0.04-0.74,0.06-1.48,0.06-2.23
		c0-7.95-2.21-15.38-6.04-21.73H6.74z"/>
	<path class="st0" d="M72.66,40.24v-3h3v3H72.66z M72.66,24.24h3v3h-3V24.24z M65.66,37.24h3v3h-3V37.24z M65.66,24.24h3v3h-3V24.24
		z M58.66,37.24h3v3h-3V37.24z M58.66,24.24h3v3h-3V24.24z M51.66,37.24h3v3h-3V37.24z M51.66,24.24h3v3h-3V24.24z M44.66,37.24h3v3
		h-3V37.24z M44.66,24.24h3v3h-3V24.24z M37.66,37.24h3v3h-3V37.24z M37.66,24.24h3v3h-3V24.24z M30.66,37.24h3v3h-3V37.24z
		 M30.66,24.24h3v3h-3V24.24z M23.66,37.24h3v3h-3V37.24z M23.66,24.24h3v3h-3V24.24z M16.66,37.24h3v3h-3V37.24z M16.66,24.24h3v3
		h-3V24.24z M9.66,37.24h3v3h-3V37.24z M9.66,24.24h3v3h-3V24.24z"/>
	<g>
		<g>
			<path class="st2" d="M30.11,71.68c-1.69,0-3.35-0.59-4.67-1.66l-0.86-0.7c-3.18-2.58-3.67-7.27-1.1-10.45l3.87-5.04
				c1.32-1.63,3.28-2.55,5.4-2.55c1.64,0,3.24,0.56,4.5,1.58l0.31,0.25c1.02-0.19,3.49-1.02,4.16-4.59
				c0.94-4.96,14.26-21.33,15.8-22.73l1.3-1.19l0.96,1.48c0.43,0.65,2.52,4.03,2.02,6.44c-0.9,4.37-8.64,14.18-9.52,15.28
				L35.9,68.91C34.47,70.68,32.36,71.68,30.11,71.68z M31.8,58.92c-0.44,0-0.84,0.18-1.09,0.49l-1.66,2.28
				c-0.29,0.36-0.41,0.73-0.37,1.09c0.03,0.34,0.19,0.65,0.44,0.85l0.41,0.33c0.27,0.22,0.56,0.26,0.76,0.26
				c0.42,0,0.83-0.2,1.11-0.54l1.66-2.28c0.31-0.38,0.44-0.76,0.43-1.11c-0.01-0.31-0.14-0.56-0.38-0.75l-0.4-0.33
				C32.46,59.03,32.14,58.92,31.8,58.92z"/>
			<path class="st3" d="M58.54,26.91c0,0,2.21,3.39,1.81,5.32c-0.86,4.14-9.23,14.65-9.23,14.65L37.75,64.09l-3.03,3.9
				c-1.17,1.45-2.88,2.2-4.61,2.2c-1.31,0-2.63-0.43-3.73-1.32l-0.86-0.7c-2.54-2.06-2.94-5.8-0.87-8.34l3.9-5.07
				c1.06-1.3,2.63-1.97,4.22-1.97c1.25,0,2.52,0.41,3.55,1.25l0.79,0.64c0,0,0.01,0,0.02,0c0.31,0,5.03-0.32,6.08-5.87
				C44.03,44.39,56.94,28.36,58.54,26.91 M30.28,65.73c0.84,0,1.69-0.38,2.27-1.1l1.7-2.34c1.01-1.24,0.97-2.94-0.22-3.91l-0.4-0.33
				c-0.52-0.42-1.18-0.63-1.84-0.63c-0.85,0-1.69,0.35-2.26,1.05l-1.7,2.34c-1.01,1.24-0.86,3.03,0.34,4l0.4,0.33
				C29.07,65.53,29.68,65.73,30.28,65.73 M59.13,22.32l-2.61,2.37C55,26.07,41.3,42.68,40.25,48.25c-0.39,2.08-1.5,2.91-2.35,3.23
				c-1.48-1.09-3.29-1.69-5.15-1.69c-2.58,0-4.96,1.12-6.55,3.08l-0.02,0.03l-0.02,0.03l-3.87,5.04c-3.07,3.82-2.47,9.44,1.34,12.53
				l0.87,0.7c1.58,1.28,3.58,1.99,5.62,1.99c2.71,0,5.24-1.21,6.94-3.31l0.02-0.02l0.02-0.02l3.03-3.9l13.37-17.21
				c1.45-1.82,8.84-11.27,9.8-15.88c0.58-2.83-1.37-6.23-2.24-7.56L59.13,22.32L59.13,22.32z M30.23,62.61l0.03-0.04l1.55-2.13
				l0.05,0.04l-0.03,0.04l-1.55,2.13L30.23,62.61L30.23,62.61z"/>
		</g>
	</g>
</g>
</svg>
