<?xml version="1.0" encoding="utf-8"?>
<!-- Generator: Adobe Illustrator 24.2.1, SVG Export Plug-In . SVG Version: 6.00 Build 0)  -->
<svg version="1.1" id="split_copy_2" xmlns="http://www.w3.org/2000/svg" xmlns:xlink="http://www.w3.org/1999/xlink" x="0px"
	 y="0px" width="84.21px" height="84px" viewBox="0 0 84.21 84" style="enable-background:new 0 0 84.21 84;" xml:space="preserve">
<style type="text/css">
	.st0{fill-rule:evenodd;clip-rule:evenodd;fill:#55B1BA;}
	.st1{fill:#FFFFFF;}
	.st2{fill-rule:evenodd;clip-rule:evenodd;fill:#FFFFFF;}
	.st3{fill:#55B1BA;}
</style>
<g>
	<g>
		<g>
			<path class="st0" d="M42,83.5C19.12,83.5,0.5,64.88,0.5,42C0.5,19.12,19.12,0.5,42,0.5S83.5,19.12,83.5,42
				C83.5,64.88,64.88,83.5,42,83.5z"/>
			<path class="st1" d="M42,1c22.61,0,41,18.39,41,41S64.61,83,42,83C19.39,83,1,64.61,1,42S19.39,1,42,1 M42,0C18.8,0,0,18.8,0,42
				s18.8,42,42,42s42-18.8,42-42S65.2,0,42,0L42,0z"/>
		</g>
	</g>
	<g>
		<g>
			<path class="st2" d="M50.08,73.35c-2.69,0-5.12-1.48-6.36-3.86l-2.09-4.28l-0.16,0.04L30.3,41.7c-0.36-0.65-3.03-5.69-2.03-12.06
				c1.05-6.71,2.05-7.17,2.59-7.41l1.34-0.61l8.23,17.33c0.1,0.25,1.88,4.56,1.81,9.5c-0.06,3.96,1.38,5.79,2.05,6.13
				c0.38-0.19,0.54-0.25,0.77-0.26l0.03-0.02c1.04-0.54,2.21-0.82,3.39-0.82c2.73,0,5.19,1.46,6.41,3.81l2.5,5.13
				c1.81,3.47,0.44,7.81-3.07,9.63l-0.94,0.49C52.37,73.07,51.23,73.35,50.08,73.35z M48.79,60.63c-0.23,0-0.44,0.05-0.63,0.15
				l-0.46,0.24c-0.27,0.14-0.45,0.36-0.52,0.66c-0.09,0.34-0.03,0.73,0.17,1.1l1.24,2.7c0.21,0.41,0.7,0.71,1.2,0.71l0,0
				c0.19,0,0.38-0.04,0.55-0.13l0.46-0.24c0.63-0.33,0.84-1.15,0.49-1.83l-1.24-2.7C49.84,60.92,49.34,60.63,48.79,60.63z"/>
			<path class="st3" d="M31.48,23.6l7.6,16c0,0,1.73,4.15,1.66,8.83c-0.08,5.5,2.42,7.7,3.62,7.7c0.12,0,0.24-0.02,0.33-0.07
				c0.36-0.18,0.48-0.24,0.49-0.24c0.01,0-0.31,0.17-0.31,0.17l-0.08,0.18c0.02-0.01,0.04-0.03,0.06-0.04l0.94-0.49
				c0.85-0.44,1.78-0.65,2.69-0.65c2.07,0,4.08,1.08,5.08,3l2.48,5.09c1.44,2.78,0.37,6.2-2.41,7.64l-0.94,0.49
				c-0.84,0.43-1.73,0.64-2.61,0.64c-2.05,0-4.02-1.11-5.03-3.05l-2.22-4.55l-0.01,0.35L31.63,41.01c0,0-2.86-4.9-1.88-11.13
				C30.67,23.96,31.48,23.6,31.48,23.6 M49.78,67.69c0.42,0,0.84-0.1,1.24-0.3l0.46-0.24c1.36-0.71,1.86-2.43,1.13-3.85l-1.2-2.63
				c-0.52-0.99-1.56-1.54-2.61-1.54c-0.45,0-0.91,0.1-1.32,0.32l-0.46,0.24c-1.36,0.71-1.73,2.37-0.99,3.78l1.2,2.63
				C47.74,67.11,48.75,67.69,49.78,67.69 M32.92,19.65l-2.68,1.22c-1.48,0.67-2.46,2.23-3.45,8.55c-1.05,6.68,1.66,12.03,2.18,12.97
				l11.15,23.5l0.16-0.03l2.08,4.26l0.02,0.03l0.02,0.03c1.5,2.88,4.45,4.67,7.69,4.67c1.38,0,2.76-0.34,3.99-0.98l0.94-0.49
				c2.05-1.07,3.57-2.87,4.26-5.08c0.69-2.19,0.49-4.53-0.56-6.57l-2.47-5.06l-0.02-0.04l-0.02-0.03c-1.48-2.85-4.45-4.62-7.74-4.62
				c-1.32,0-2.63,0.3-3.81,0.86c-0.43-0.65-0.96-2.02-0.93-4.38c0.08-5.25-1.81-9.84-1.89-10.03l-0.03-0.07l-0.03-0.07l-7.6-16
				L32.92,19.65L32.92,19.65z M48.72,62.18l0.06-0.03l1.1,2.4l0.02,0.04l-0.06,0.03l-1.1-2.4L48.72,62.18L48.72,62.18z"/>
		</g>
	</g>
	<path class="st2" d="M37.42,20.24H6.94c-3.99,6.38-6.31,13.93-6.31,22.01c0,0.67,0.02,1.33,0.05,1.99h36.74V20.24z"/>
	<path class="st0" d="M29.66,37.24h3v3h-3V37.24z M29.66,24.24h3v3h-3V24.24z M22.66,37.24h3v3h-3V37.24z M22.66,24.24h3v3h-3V24.24
		z M15.66,37.24h3v3h-3V37.24z M15.66,24.24h3v3h-3V24.24z M8.66,37.24h3v3h-3V37.24z M8.66,24.24h3v3h-3V24.24z"/>
	<path class="st2" d="M47.42,20.24H77.9c3.99,6.38,6.31,13.93,6.31,22.01c0,0.67-0.02,1.33-0.05,1.99H47.42V20.24z"/>
	<path class="st0" d="M55.66,40.24h-3v-3h3V40.24z M55.66,27.24h-3v-3h3V27.24z M62.66,40.24h-3v-3h3V40.24z M62.66,27.24h-3v-3h3
		V27.24z M69.66,40.24h-3v-3h3V40.24z M69.66,27.24h-3v-3h3V27.24z M76.66,40.24h-3v-3h3V40.24z M76.66,27.24h-3v-3h3V27.24z"/>
	<polygon class="st0" points="37.71,32.26 37.71,44.35 24.71,44.35 24.71,47.17 40.21,47.17 40.21,45.86 40.21,44.35 40.21,32.26 	
		"/>
	<path class="st2" d="M41.66,38.24v-3h2v3H41.66z M41.66,29.24h2v3h-2V29.24z M41.66,23.24h2v3h-2V23.24z M41.66,17.24h2v3h-2V17.24
		z"/>
	<g>
		<g>
			<path class="st2" d="M33.08,73.35c-0.99,0-1.96-0.2-2.88-0.58l-1.02-0.43c-3.78-1.59-5.56-5.95-3.97-9.73l2.31-5.92
				c1.09-2.59,3.63-4.25,6.49-4.25c0.95,0,1.87,0.19,2.74,0.55l0.37,0.15c0.94-0.48,3.07-1.96,2.72-5.57
				c-0.49-5.02,7.73-24.46,8.82-26.24l0.92-1.5l1.34,1.15c0.59,0.51,3.55,3.17,3.74,5.62c0.35,4.45-4.34,16.03-4.87,17.33
				l-9.84,24.83C38.77,71.56,36.08,73.35,33.08,73.35z M33.64,60.26c-0.49,0-1.1,0.26-1.34,0.84l-0.95,2.65
				c-0.18,0.43-0.19,0.81-0.05,1.15c0.12,0.32,0.36,0.57,0.66,0.7l0.48,0.2c0.14,0.06,0.3,0.09,0.45,0.09
				c0.53,0,1.04-0.36,1.26-0.88l0.96-2.65c0.19-0.46,0.22-0.85,0.1-1.18c-0.1-0.29-0.29-0.5-0.57-0.62l-0.48-0.2
				C34,60.29,33.83,60.26,33.64,60.26z"/>
			<path class="st3" d="M49.94,22.12c0,0,3.07,2.64,3.23,4.6c0.34,4.22-4.77,16.64-4.77,16.64l-8.03,20.26l-1.82,4.59
				c-0.95,2.27-3.15,3.63-5.47,3.63c-0.77,0-1.54-0.15-2.29-0.46l-1.02-0.43c-3.02-1.27-4.44-4.74-3.17-7.76l2.32-5.96
				c0.87-2.07,2.94-3.29,5.09-3.29c0.73,0,1.46,0.14,2.16,0.43l0.94,0.4c0,0,0,0,0,0c0.05,0,4.78-1.55,4.22-7.34
				C40.9,42.95,48.81,23.96,49.94,22.12 M32.89,67.39c1.11,0,2.17-0.68,2.64-1.8l0.98-2.72c0.62-1.47,0.11-3.1-1.3-3.69l-0.48-0.2
				c-0.35-0.15-0.72-0.22-1.09-0.22c-1.13,0-2.26,0.65-2.72,1.76l-0.98,2.72c-0.62,1.47,0.03,3.15,1.44,3.74l0.48,0.2
				C32.19,67.33,32.54,67.39,32.89,67.39 M49.22,17.54l-1.84,3.01c-1.07,1.74-9.58,21.52-9.04,27.17c0.2,2.11-0.63,3.21-1.35,3.75
				c-0.95-0.35-1.96-0.53-2.98-0.53c-3.46,0-6.55,2.01-7.86,5.13l-0.01,0.04l-0.01,0.04l-2.31,5.92c-1.88,4.53,0.26,9.75,4.79,11.65
				l1.03,0.43c1.1,0.46,2.26,0.7,3.45,0.7c3.61,0,6.84-2.15,8.23-5.47l0.01-0.03l0.01-0.03l1.82-4.59l8.03-20.26
				c0.88-2.15,5.34-13.29,4.97-17.99c-0.23-2.88-3.06-5.6-4.26-6.64L49.22,17.54L49.22,17.54z M32.74,64.3l0.02-0.05l0.9-2.48
				l0.06,0.03l-0.02,0.05l-0.89,2.48L32.74,64.3L32.74,64.3z"/>
		</g>
	</g>
</g>
</svg>
