<svg xmlns="http://www.w3.org/2000/svg" xmlns:xlink="http://www.w3.org/1999/xlink" width="85" height="86" viewBox="0 0 85 86"><defs><style>.a{fill:#fff;}.b{fill:none;}.c{clip-path:url(#a);}.d{fill:#43575e;}.e{fill:#fb8a29;}.f{fill:#418ad1;}</style><clipPath id="a"><rect class="a" width="47" height="84" transform="translate(0.489)"/></clipPath></defs><g transform="translate(0 3)"><rect class="b" width="85" height="85" transform="translate(0 -3)"/><g class="c" transform="translate(9.511 -1)"><path class="d" d="M45.827,21.2c-1.915-1.331-4.851-.624-6.682-3,0,0-.682-.749.851-2.579s1.659-4.742,1.277-6.988a4.96,4.96,0,0,0-9.618,0c-.384,2.246-.256,5.158,1.275,6.988a3.526,3.526,0,0,1,1,1.986,7.753,7.753,0,0,1,2.085,1c2.89,2.009,2.732,5.874,2.625,6.961h8.631S47.742,22.529,45.827,21.2Z" transform="translate(0.655)"/><path class="d" d="M11.249,18.606a7.822,7.822,0,0,1,2.144-1.013,3.573,3.573,0,0,1,1-1.971c1.531-1.83,1.659-4.742,1.277-6.988A4.786,4.786,0,0,0,10.86,4.89,4.782,4.782,0,0,0,6.05,8.634c-.382,2.246-.256,5.158,1.277,6.988s.851,2.579.851,2.579c-1.831,2.371-4.767,1.664-6.682,3S.05,25.565.05,25.565H8.625C8.517,24.48,8.361,20.612,11.249,18.606Z" transform="translate(0)"/><path class="d" d="M35.322,20.165a6.7,6.7,0,0,0-2.224-.924c-2.066-.528-4.407-.667-6.037-2.778,0,0-.842-.926,1.053-3.19s2.053-5.863,1.579-8.643A5.916,5.916,0,0,0,23.746,0,5.916,5.916,0,0,0,17.8,4.628c-.474,2.778-.316,6.379,1.579,8.643s1.053,3.19,1.053,3.19c-1.62,2.1-3.938,2.25-6,2.767a6.758,6.758,0,0,0-2.265.937c-2.368,1.646-1.789,5.4-1.789,5.4H37.112S37.691,21.809,35.322,20.165Z" transform="translate(0.215)"/><path class="e" d="M23.961,27.676H0L23.961,55.339,47.921,27.676Z"/><g transform="translate(3.931 61.493)"><path class="e" d="M43.91,81a3.032,3.032,0,0,1-3.062,3H6.914a3.032,3.032,0,0,1-3.062-3V64.493a3.032,3.032,0,0,1,3.062-3H40.847a3.032,3.032,0,0,1,3.062,3ZM6.455,78.454a3.032,3.032,0,0,0,3.062,3H38.243a3.032,3.032,0,0,0,3.062-3V67.038a3.032,3.032,0,0,0-3.062-3H9.518a3.032,3.032,0,0,0-3.062,3Z" transform="translate(-3.851 -61.493)"/><path class="e" d="M9.678,67a2.5,2.5,0,0,0-.222-3.592,2.643,2.643,0,0,0-3.675.217A2.5,2.5,0,0,0,6,67.217,2.643,2.643,0,0,0,9.678,67Z" transform="translate(-3.825 -61.493)"/><path class="e" d="M41.918,65.463a2.6,2.6,0,1,0-2.756,2.388A2.567,2.567,0,0,0,41.918,65.463Z" transform="translate(-3.167 -61.493)"/><path class="e" d="M9.678,78.5a2.5,2.5,0,0,1-.222,3.592,2.643,2.643,0,0,1-3.675-.217A2.5,2.5,0,0,1,6,78.278,2.643,2.643,0,0,1,9.678,78.5Z" transform="translate(-3.825 -61.493)"/><path class="e" d="M37.372,78.5a2.5,2.5,0,0,0,.222,3.592,2.643,2.643,0,0,0,3.675-.217,2.5,2.5,0,0,0-.222-3.592A2.643,2.643,0,0,0,37.372,78.5Z" transform="translate(-3.167 -61.493)"/><path class="f" d="M23.623,63.365c-4.089,0-7.4,3.628-7.4,8.1s3.316,8.1,7.4,8.1,7.4-3.628,7.4-8.1S27.712,63.365,23.623,63.365Zm1.365,11.872a.852.852,0,0,0-.683.744v.081a.7.7,0,0,1-.747.628h0a.689.689,0,0,1-.738-.621h0a.728.728,0,0,0-.7-.65,7.639,7.639,0,0,1-1.262-.259.627.627,0,0,1-.449-.792h0a1.1,1.1,0,0,1,1.344-.566,5.892,5.892,0,0,0,1.46.189c.865,0,1.455-.282,1.455-.794,0-.487-.485-.794-1.606-1.113-1.622-.46-2.73-1.1-2.73-2.343a2.329,2.329,0,0,1,1.937-2.134.789.789,0,0,0,.626-.692v-.038a.693.693,0,0,1,.743-.628H23.7a.635.635,0,0,1,.681.576h0a.668.668,0,0,0,.648.6,6.572,6.572,0,0,1,.868.153.649.649,0,0,1,.5.821h0a1.012,1.012,0,0,1-1.226.544,5.5,5.5,0,0,0-1.214-.131c-.986,0-1.3.357-1.3.717,0,.423.531.692,1.819,1.1,1.806.537,2.533,1.242,2.533,2.394A2.427,2.427,0,0,1,24.988,75.238Z" transform="translate(-3.594 -60.214)"/></g><path class="e" d="M26.858,44.307H20.219V59.2h6.638Z" transform="translate(0.421)"/></g></g></svg>