<svg xmlns="http://www.w3.org/2000/svg" width="85" height="85" viewBox="0 0 85 85"><defs><style>.a{fill:none;}.b,.c{fill:#464848;}.c{stroke:#464848;}.d{fill:#fb8a29;}.e{fill:#418ad1;}</style></defs><g transform="translate(0 3)"><rect class="a" width="85" height="85" transform="translate(0 -3)"/><g transform="translate(-5.539 -6.559)"><g transform="translate(17 10.011)"><path class="b" d="M33.978,14.3c3.865,5.33,10.5,6.009,13.558,4.732C50.207,7.6,36.957-5.428,30.614.4,19.68-2.88,5.487,2.87,8.506,18.316c6,3.628,21.91,3.418,25.472-4.016" transform="translate(2.834 1.038)"/><path class="c" d="M23.8,40.876c-8.508,0-15.429-8.772-15.429-19.555V9.048a7.124,7.124,0,0,1,6.941-7.28H32.289a7.124,7.124,0,0,1,6.941,7.28V21.321c0,10.783-6.923,19.555-15.433,19.555M15.31,3.357A5.569,5.569,0,0,0,9.885,9.048V21.321c0,9.906,6.242,17.966,13.913,17.966s13.916-8.059,13.916-17.966V9.048a5.569,5.569,0,0,0-5.425-5.691Z" transform="translate(7.502 6.29)"/><path class="d" d="M39.569,25.7,30.885,41.3,22.2,25.7C9.376,28.969,0,38.651,0,43.764c0,7.057,61.771,7.055,61.771,0,0-5.113-9.376-14.795-22.2-18.066" transform="translate(0 26.377)"/><path class="e" d="M20.546,29.57a4.024,4.024,0,0,0,2.339-3.254c0-1.51-7.4-1.51-7.4,0a4.024,4.024,0,0,0,2.339,3.254,7.923,7.923,0,0,0-2.339,2.072l3.7,6.547,3.7-6.547a7.923,7.923,0,0,0-2.339-2.072" transform="translate(11.701 25.988)"/></g><g transform="translate(23.093 8.871)"><path class="d" d="M77.636-1c-12.849,0-21.4,8.711-21.4,17.92V29.9a3.859,3.859,0,0,0,3.854,3.855c2.126,0,2.636-1.729,2.636-3.855V19.49c0-2.125-.51-3.854-2.636-3.854a3.812,3.812,0,0,0-1.231.22C59.406,8.56,70.2,1.569,77.636,1.569S95.861,8.554,96.414,15.845a3.785,3.785,0,0,0-1.23-.209c-2.126,0-2.636,1.729-2.636,3.854V32.337c0,2.126.51,2.636,2.636,2.636a3.81,3.81,0,0,0,1.285-.237v1.521a1.286,1.286,0,0,1-1.285,1.285h-9.23a3.854,3.854,0,1,0,0,2.569h9.23a3.859,3.859,0,0,0,3.854-3.854V16.92C99.038,7.711,90.485-1,77.636-1Zm0,0" transform="translate(-52.227 1)"/><path class="d" d="M481.883,213.6v14.943a3.848,3.848,0,0,0,2.569-3.618v-7.708a3.848,3.848,0,0,0-2.569-3.618Zm0,0" transform="translate(-433.634 -195.375)"/><path class="d" d="M0,217.215v7.708a3.848,3.848,0,0,0,2.569,3.618V213.6A3.848,3.848,0,0,0,0,217.215Zm0,0" transform="translate(0 -195.375)"/></g></g></g></svg>