<svg width="85" height="84" viewBox="0 0 85 84" fill="none" xmlns="http://www.w3.org/2000/svg">
<path fill-rule="evenodd" clip-rule="evenodd" d="M71.8455 15.9977L84.1471 29.6918L77.1011 29.7928C77.1011 64.5506 51.1296 79.0033 20.1437 79.0033C38.5177 74.288 66.816 67.3243 66.816 29.9526L59.7681 30.05L71.8455 15.9977Z" fill="#FE9235"/>
<path fill-rule="evenodd" clip-rule="evenodd" d="M28.966 50.5516C28.5564 49.7098 27.8737 49.0983 27.081 48.7416L23.3354 49.2696C22.8463 49.3389 22.3573 49.2166 21.9578 48.9231C21.8397 48.8354 21.7378 48.7355 21.644 48.6275L24.3034 54.2511C24.4481 54.5569 24.8108 54.6853 25.1145 54.5426L41.7454 46.6769L35.21 47.5961L28.966 50.5516Z" fill="#FE9235"/>
<path fill-rule="evenodd" clip-rule="evenodd" d="M20.5672 41.659L19.838 40.1184C20.0131 40.2162 20.2026 40.2875 20.3839 40.3731L18.4915 26.9337C17.1776 28.456 16.2976 30.1901 15.9758 31.9467L11.6879 22.8744C13.6027 21.9696 14.4216 19.6811 13.5171 17.7635L16.9678 16.1312L16.6826 14.0975L7.98668 18.2098C7.68521 18.3545 7.5528 18.7172 7.69743 19.0209L21.4981 48.2187C21.492 48.1902 21.4818 48.1657 21.4777 48.1392L20.5672 41.659Z" fill="#464848"/>
<path fill-rule="evenodd" clip-rule="evenodd" d="M30.7567 55.1993C30.1251 54.5085 29.2957 54.1193 28.4358 54.0012L24.9962 55.5701C24.5459 55.7759 24.0406 55.7983 23.576 55.6292C23.4374 55.5803 23.3111 55.511 23.1908 55.4336L27.3375 60.0711C27.5637 60.3218 27.9468 60.3421 28.1974 60.118L41.9089 47.8558L35.9039 50.5923L30.7567 55.1993Z" fill="#FE9235"/>
<path fill-rule="evenodd" clip-rule="evenodd" d="M20.0709 48.8883L18.9361 47.6189C19.1296 47.6597 19.3354 47.676 19.533 47.7065L13.9016 35.3595C13.0724 37.1932 12.7219 39.1043 12.9094 40.881L6.22253 33.4035C7.80358 31.9895 7.93804 29.5649 6.52815 27.9839L9.37239 25.437L8.51871 23.5687L1.34902 29.9847C1.09841 30.2067 1.08007 30.5918 1.30012 30.8424L22.8296 54.9089C22.8153 54.8845 22.799 54.8662 22.7868 54.8397L20.0709 48.8883Z" fill="#FE9235"/>
<path fill-rule="evenodd" clip-rule="evenodd" d="M29.2896 10.7487C27.9506 10.9381 27.0187 12.1757 27.2079 13.5152C27.3951 14.8567 28.6343 15.789 29.9733 15.5997C31.3122 15.4104 32.2441 14.1727 32.0549 12.8312C31.8677 11.4918 30.6285 10.5594 29.2895 10.7487" fill="#418AD1"/>
<path fill-rule="evenodd" clip-rule="evenodd" d="M30.9823 40.3032C31.172 41.6449 32.4122 42.5787 33.7544 42.3891C35.0987 42.2015 36.0329 40.9598 35.8432 39.6181C35.6535 38.2765 34.4133 37.3426 33.069 37.5323C31.7268 37.7198 30.7926 38.9616 30.9823 40.3032" fill="#418AD1"/>
<path fill-rule="evenodd" clip-rule="evenodd" d="M21.0602 23.6624L19.6602 13.7262C21.7612 13.4307 23.2243 11.4867 22.9268 9.38779L35.1127 7.66994C35.4061 9.77089 37.3481 11.232 39.4471 10.9365L40.849 20.8727C38.5036 18.4233 34.5503 17.0987 30.3096 17.6958C26.0711 18.2949 22.6374 20.6567 21.0602 23.6624M40.4191 42.408C40.2459 42.9378 40.1725 43.5084 40.2479 44.0953L28.0559 45.8152C27.74 43.7387 25.8143 42.2959 23.7297 42.5894L22.3215 32.6144C24.6691 35.0638 28.6203 36.3864 32.8609 35.7893C32.9669 35.773 33.0668 35.7445 33.1707 35.7282C32.7101 34.263 32.9384 32.6042 33.943 31.296C34.4097 30.6908 35.0006 30.2425 35.6446 29.9205L34.3302 29.0137C34.8682 28.2475 35.1107 27.4018 34.9721 26.4298C34.8396 25.474 34.2976 24.9503 33.5477 25.0563C32.8243 25.1562 32.5655 25.5535 32.325 27.0452C31.9439 29.3356 31.1574 30.2567 29.7146 30.4605C28.2128 30.6704 27.0207 29.6678 26.554 28.0681L24.3756 28.3758L24.1392 26.6967L26.3176 26.391C26.336 25.3518 26.6233 24.5142 27.1653 23.7766L28.5836 24.6732C28.117 25.4149 27.9479 26.1302 28.0599 26.9249C28.174 27.7339 28.5857 28.2026 29.2052 28.117C29.8226 28.0294 30.0203 27.6239 30.2893 26.0242C30.6194 24.1026 31.2491 22.9166 33.0301 22.666C34.5462 22.45 35.8076 23.2936 36.4026 24.9687L38.7297 24.6406L38.9661 26.3197L36.7266 26.6356C36.804 27.952 36.4597 28.9912 35.94 29.7901C37.4908 29.14 39.3289 29.2745 40.7655 30.3301L41.4645 30.868C41.7049 30.5298 41.9209 30.1813 42.1104 29.8227L42.3529 31.5527L44.5741 33.2604L43.6367 26.6111L43.6082 26.4216H43.6102L40.6656 5.52418C40.6188 5.19202 40.3111 4.95768 39.9769 5.00658L17.5124 8.17125C17.1802 8.21812 16.9479 8.52582 16.9948 8.85798L22.507 47.963C22.5518 48.2952 22.8616 48.5274 23.1937 48.4806L40.8307 45.9945C40.8185 44.8859 40.9958 43.8772 41.2607 43.058L40.4191 42.408Z" fill="#FE9235"/>
<path fill-rule="evenodd" clip-rule="evenodd" d="M35.9729 35.9407C34.8154 35.0501 34.5872 33.3975 35.4695 32.2502C36.3662 31.0846 38.0514 30.8747 39.2313 31.7815L40.0892 32.4418L36.8675 36.6294L35.9729 35.9407ZM59.7049 50.1216C59.7049 50.1216 56.153 37.0859 53.3918 34.6772C51.3296 32.8779 45.0634 28.6923 45.0634 28.6923L45.8969 34.1637L49.3163 36.7476L49.6851 38.5898L39.8345 31.0133C38.2348 29.7845 35.9444 30.0841 34.7156 31.6817C33.5072 33.2528 33.8027 35.5046 35.3718 36.713L42.5651 42.2435L42.5549 42.2578C42.5549 42.2578 39.2415 48.9172 47.2092 53.5573C47.2092 53.5573 43.6839 52.9378 41.9191 50.1419L40.2889 50.3905C42.5753 55.8416 46.2168 58.7842 53.0862 59.1122L59.7049 50.1216Z" fill="#464848"/>
</svg>
