<svg width="85" height="84" viewBox="0 0 85 84" fill="none" xmlns="http://www.w3.org/2000/svg">
<path d="M33.147 70H25.5329L19.147 50H26.147L33.147 70Z" fill="#BBBBBB"/>
<path d="M16.147 45H27.0768L29.147 53H18.35L16.147 45Z" fill="#FE9235"/>
<path d="M55.0669 29V35.01V41.03L58.5369 39.74V35.01V30.28L55.0669 29Z" fill="#D3D3D3"/>
<path d="M27.147 26.4418V35V35.0106V43.5583L52.147 53V35.0106V35V17L27.147 26.4418Z" fill="#418AD1"/>
<path d="M52.147 15V17.1812V35V35.0105V52.8188V55H55.147V54.0622V35.0105V35V15.9378V15H52.147Z" fill="#BBBBBB"/>
<path d="M65.5253 23.7366C64.873 22.8934 63.6755 22.7528 62.8577 23.4254C62.3904 23.8069 62.147 24.3791 62.147 24.9613C62.147 25.383 62.2833 25.8146 62.5656 26.176C64.3667 28.515 65.3598 31.6471 65.3598 35C65.3598 38.3529 64.3667 41.485 62.5656 43.824C62.2833 44.1854 62.147 44.617 62.147 45.0387C62.147 45.6109 62.3904 46.1831 62.8577 46.5746C63.6755 47.2472 64.873 47.1066 65.5253 46.2634C67.8619 43.2417 69.147 39.2363 69.147 35C69.147 30.7637 67.8619 26.7683 65.5253 23.7366Z" fill="#FE9235"/>
<path d="M72.92 16.8852C72.5097 16.3183 71.9121 16 71.2609 16C70.7793 16 70.3244 16.179 69.9408 16.5172C69.4324 16.9648 69.147 17.6411 69.147 18.3672C69.147 18.9043 69.3075 19.4116 69.6108 19.8392C72.3937 23.7282 73.919 28.9401 73.919 34.5C73.919 40.0599 72.3848 45.2718 69.6108 49.1608C69.3075 49.5785 69.147 50.0858 69.147 50.6328C69.147 51.3589 69.4324 52.0352 69.9408 52.4828C70.3244 52.821 70.7793 53 71.2609 53C71.9121 53 72.5186 52.6718 72.92 52.1148C76.2916 47.3903 78.1469 41.1441 78.1469 34.5099C78.1559 27.8659 76.2916 21.6097 72.92 16.8852Z" fill="#FE9235"/>
<path d="M13.147 29C13.147 26.7909 14.9378 25 17.147 25H27.147V45H17.147C14.9378 45 13.147 43.2091 13.147 41V29Z" fill="#464848"/>
<path d="M7.14697 35C7.14697 32.7909 8.93783 31 11.147 31H13.147V39H11.147C8.93783 39 7.14697 37.2091 7.14697 35V35Z" fill="#666666"/>
</svg>
