<svg xmlns="http://www.w3.org/2000/svg" xmlns:xlink="http://www.w3.org/1999/xlink" width="85" height="85" viewBox="0 0 85 85"><defs><style>.a{fill:none;}.b{fill:#43575e;}.c{fill:#fb8a29;}.d{clip-path:url(#a);}.e{fill:#418ad1;}</style><clipPath id="a"><rect class="a" width="84.207" height="83"/></clipPath></defs><g transform="translate(0 3)"><rect class="a" width="85" height="85" transform="translate(0 -3)"/><g transform="translate(0.68 -1)"><rect class="b" width="7.461" height="35.13" transform="translate(39.793 47.87)"/><rect class="c" width="7.461" height="23.155" transform="translate(52.111 59.845)"/><rect class="c" width="7.459" height="13.414" transform="translate(27.477 69.586)"/><rect class="b" width="7.461" height="45.352" transform="translate(64.427 37.648)"/><rect class="c" width="7.461" height="58.123" transform="translate(76.745 24.877)"/><g class="d"><path class="c" d="M8.715,21.931a4.357,4.357,0,1,1-4.359-4.359,4.357,4.357,0,0,1,4.359,4.359m-1.454,0a2.9,2.9,0,1,0-2.9,2.9,2.906,2.906,0,0,0,2.9-2.9" transform="translate(0 19.825)"/><path class="c" d="M13.036,9.178A4.358,4.358,0,1,1,8.677,4.819a4.357,4.357,0,0,1,4.359,4.359m-1.454,0a2.9,2.9,0,1,0-2.9,2.9,2.907,2.907,0,0,0,2.9-2.9" transform="translate(4.875 5.437)"/><path class="c" d="M20.962,19.881A4.357,4.357,0,1,1,16.6,15.525a4.359,4.359,0,0,1,4.359,4.356m-1.454,0a2.905,2.905,0,1,0-2.905,2.9,2.907,2.907,0,0,0,2.905-2.9" transform="translate(13.817 17.515)"/><path class="c" d="M25.881,4.359A4.358,4.358,0,1,1,21.525,0a4.357,4.357,0,0,1,4.356,4.359m-1.451,0a2.9,2.9,0,1,0-2.9,2.9,2.9,2.9,0,0,0,2.9-2.9" transform="translate(19.367)"/><path class="c" d="M33.558,21.446A4.358,4.358,0,1,1,29.2,17.087a4.355,4.355,0,0,1,4.356,4.359m-1.454,0a2.9,2.9,0,1,0-2.9,2.907,2.9,2.9,0,0,0,2.9-2.907" transform="translate(28.028 19.278)"/><path class="c" d="M2.37,27.7a4.233,4.233,0,0,1,1.373.47L10.191,9.129a4.3,4.3,0,0,1-1.371-.468Z" transform="translate(2.674 9.771)"/><path class="c" d="M14.576,28.745a4.29,4.29,0,0,1,1.385.438L23.846,4.3a4.364,4.364,0,0,1-1.383-.438Z" transform="translate(16.445 4.355)"/><path class="c" d="M21.059,3.748a4.281,4.281,0,0,1-1.332.583l12.82,28.543a4.412,4.412,0,0,1,1.334-.583Z" transform="translate(22.256 4.229)"/><path class="c" d="M20.235,24.183,8.464,8.283a4.4,4.4,0,0,1-1.175.86l11.773,15.9a4.318,4.318,0,0,1,1.173-.856" transform="translate(8.223 9.345)"/><path class="e" d="M14.187,17.834a4.358,4.358,0,1,1-4.356-4.356,4.355,4.355,0,0,1,4.356,4.356m-1.454,0a2.9,2.9,0,1,0-2.9,2.9,2.9,2.9,0,0,0,2.9-2.9" transform="translate(6.174 15.206)"/><path class="e" d="M19.6,9.178a4.358,4.358,0,1,1-4.356-4.359A4.357,4.357,0,0,1,19.6,9.178m-1.454,0a2.9,2.9,0,1,0-2.9,2.9,2.907,2.907,0,0,0,2.9-2.9" transform="translate(12.277 5.437)"/><path class="e" d="M27.027,18.917a4.359,4.359,0,1,1-4.359-4.359,4.358,4.358,0,0,1,4.359,4.359m-1.454,0a2.905,2.905,0,1,0-2.905,2.9,2.907,2.907,0,0,0,2.905-2.9" transform="translate(20.657 16.424)"/><path class="e" d="M31.886,8.728a4.356,4.356,0,1,1-4.356-4.356,4.357,4.357,0,0,1,4.356,4.356m-1.449,0a2.9,2.9,0,1,0-2.9,2.9,2.907,2.907,0,0,0,2.9-2.9" transform="translate(26.144 4.933)"/><path class="e" d="M8.3,19.546a4.468,4.468,0,0,1,1.226.781l6.97-11.156a4.412,4.412,0,0,1-1.226-.779Z" transform="translate(9.363 9.468)"/><path class="e" d="M20.915,22.04a4.269,4.269,0,0,1,1.317.615l6.657-13.95a4.258,4.258,0,0,1-1.315-.615Z" transform="translate(23.596 9.127)"/><path class="e" d="M25.65,22.182,15.037,8.261a4.4,4.4,0,0,1-1.16.875L24.495,23.054a4.306,4.306,0,0,1,1.156-.873" transform="translate(15.656 9.32)"/><path class="b" d="M16.133,43.946c0-3.646-2.232-5.114-5.787-6.231-3.175-1-3.912-1.556-3.912-2.909,0-1.381,1.147-2.115,2.854-2.115a6.154,6.154,0,0,1,4.288,1.675l2-2.322a8.6,8.6,0,0,0-4.818-2.35V25.345H7.642v4.318c-3.233.441-5.465,2.5-5.465,5.435s1.675,4.642,5.906,5.965c2.967.911,3.761,1.59,3.761,3.145,0,1.732-1.381,2.675-3.377,2.675a7.058,7.058,0,0,1-4.94-1.971L1.355,47.266A9.56,9.56,0,0,0,7.642,50v4.405h3.116V49.821c3.407-.645,5.376-2.907,5.376-5.876" transform="translate(1.529 28.594)"/></g></g></g></svg>