<svg width="50" height="40" viewBox="0 0 50 40" fill="none" xmlns="http://www.w3.org/2000/svg">
<g clip-path="url(#clip0)">
<path d="M0.79014 22.875C0.347662 22.875 0 22.538 0 22.1091V17.6973C0 17.2684 0.347662 16.9314 0.79014 16.9314C1.23262 16.9314 1.58028 17.2684 1.58028 17.6973V22.1091C1.58028 22.5074 1.23262 22.875 0.79014 22.875Z" fill="#FC4B15"/>
<path d="M28.0025 33.6593C27.5601 33.6593 27.2124 33.3223 27.2124 32.8934V6.66791C27.2124 6.23899 27.5601 5.90198 28.0025 5.90198C28.445 5.90198 28.7927 6.23899 28.7927 6.66791V32.8934C28.8243 33.2917 28.445 33.6593 28.0025 33.6593Z" fill="#FC4B15"/>
<path d="M31.0367 28.451C30.5942 28.451 30.2466 28.1139 30.2466 27.685V11.5698C30.2466 11.1409 30.5942 10.8039 31.0367 10.8039C31.4792 10.8039 31.8269 11.1409 31.8269 11.5698V27.6544C31.8585 28.0833 31.4792 28.451 31.0367 28.451Z" fill="#FC4B15"/>
<path d="M25.0001 35.5895C24.5576 35.5895 24.21 35.2524 24.21 34.8235V4.82965C24.21 4.40073 24.5576 4.06372 25.0001 4.06372C25.4426 4.06372 25.7902 4.40073 25.7902 4.82965V34.7929C25.7902 35.2218 25.4426 35.5895 25.0001 35.5895Z" fill="#FC4B15"/>
<path d="M18.9317 38.5C19.3742 38.5 19.7219 38.163 19.7219 37.7341V1.76593C19.7219 1.33701 19.3742 1 18.9317 1C18.4893 1 18.1416 1.33701 18.1416 1.76593V37.7034C18.1416 38.1324 18.4893 38.5 18.9317 38.5Z" fill="#FC4B15"/>
<path d="M9.86094 33.6593C10.3034 33.6593 10.6511 33.3223 10.6511 32.8934V6.66791C10.6511 6.23899 10.3034 5.90198 9.86094 5.90198C9.41846 5.90198 9.0708 6.23899 9.0708 6.66791V32.8934C9.0708 33.2917 9.41846 33.6593 9.86094 33.6593Z" fill="#FC4B15"/>
<path d="M12.8951 29.9828C13.3376 29.9828 13.6853 29.6458 13.6853 29.2169V10.038C13.6853 9.60904 13.3376 9.27203 12.8951 9.27203C12.4526 9.27203 12.105 9.60904 12.105 10.038V29.1862C12.105 29.6152 12.4526 29.9828 12.8951 29.9828Z" fill="#FC4B15"/>
<path d="M15.9292 35.4975C16.3717 35.4975 16.7193 35.1605 16.7193 34.7316V4.52326C16.7193 4.09433 16.3717 3.75732 15.9292 3.75732C15.4867 3.75732 15.1391 4.09433 15.1391 4.52326V34.7009C15.1074 35.1299 15.4867 35.4975 15.9292 35.4975Z" fill="#FC4B15"/>
<path d="M6.82676 28.0833C7.26924 28.0833 7.6169 27.7463 7.6169 27.3174V12.489C7.6169 12.06 7.26924 11.723 6.82676 11.723C6.38428 11.723 6.03662 12.06 6.03662 12.489V27.2867C6.03662 27.7157 6.38428 28.0833 6.82676 28.0833Z" fill="#FC4B15"/>
<path d="M21.9659 30.9939C22.4084 30.9939 22.7561 30.6569 22.7561 30.228V9.1189C22.7561 8.68998 22.4084 8.35297 21.9659 8.35297C21.5234 8.35297 21.1758 8.68998 21.1758 9.1189V30.228C21.1758 30.6263 21.5234 30.9939 21.9659 30.9939Z" fill="#FC4B15"/>
<path d="M3.82432 24.5295C3.38184 24.5295 3.03418 24.1924 3.03418 23.7635V15.5527C3.03418 15.1238 3.38184 14.7868 3.82432 14.7868C4.2668 14.7868 4.61446 15.1238 4.61446 15.5527V23.7329C4.61446 24.1618 4.2668 24.5295 3.82432 24.5295Z" fill="#FC4B15"/>
<path d="M43.1417 28.451C42.6992 28.451 42.3516 28.1139 42.3516 27.685V11.5698C42.3516 11.1409 42.6992 10.8039 43.1417 10.8039C43.5842 10.8039 43.9318 11.1409 43.9318 11.5698V27.6544C43.9318 28.0833 43.5842 28.451 43.1417 28.451Z" fill="#FC4B15"/>
<path d="M46.1759 29.9828C45.7334 29.9828 45.3857 29.6458 45.3857 29.2169V10.038C45.3857 9.60904 45.7334 9.27203 46.1759 9.27203C46.6184 9.27203 46.966 9.60904 46.966 10.038V29.1862C46.966 29.6152 46.6184 29.9828 46.1759 29.9828Z" fill="#FC4B15"/>
<path d="M37.1048 35.4975C36.6624 35.4975 36.3147 35.1605 36.3147 34.7316V4.52326C36.3147 4.09433 36.6624 3.75732 37.1048 3.75732C37.5473 3.75732 37.895 4.09433 37.895 4.52326V34.7009C37.895 35.1299 37.5473 35.4975 37.1048 35.4975Z" fill="#FC4B15"/>
<path d="M34.0709 30.9939C33.6284 30.9939 33.2808 30.6569 33.2808 30.228V9.1189C33.2808 8.68998 33.6284 8.35297 34.0709 8.35297C34.5134 8.35297 34.861 8.68998 34.861 9.1189V30.228C34.861 30.6263 34.5134 30.9939 34.0709 30.9939Z" fill="#FC4B15"/>
<path d="M40.1075 26.5821C39.665 26.5821 39.3174 26.2451 39.3174 25.8162V14.0208C39.3174 13.5919 39.665 13.2549 40.1075 13.2549C40.55 13.2549 40.8977 13.5919 40.8977 14.0208V25.7855C40.9293 26.2144 40.55 26.5821 40.1075 26.5821Z" fill="#FC4B15"/>
<path d="M49.2098 24.6826C48.7673 24.6826 48.4197 24.3456 48.4197 23.9167V15.8591C48.4197 15.4301 48.7673 15.0931 49.2098 15.0931C49.6523 15.0931 50 15.4301 50 15.8591V23.9167C50 24.315 49.6523 24.6826 49.2098 24.6826Z" fill="#FC4B15"/>
<circle cx="25" cy="19" r="11" fill="white"/>
<path fill-rule="evenodd" clip-rule="evenodd" d="M28.0493 16.5499C28.0484 16.8105 28.0475 17.0709 28.0475 17.3303C28.0475 17.5871 28.0484 17.8438 28.0493 18.1008C28.0512 18.6158 28.0531 19.132 28.0475 19.6518C28.0475 19.8547 28.0475 20.0657 28.0136 20.2605C27.709 21.819 26.3046 22.8173 24.6211 22.6794C23.149 22.5576 21.9392 21.267 21.9307 19.7654C21.9251 18.6886 21.9269 17.6117 21.9288 16.5349C21.9298 15.9965 21.9307 15.458 21.9307 14.9196C21.9324 14.8866 21.9338 14.8533 21.9352 14.8199C21.9406 14.6887 21.946 14.5555 21.973 14.4326C22.286 12.8985 23.7074 11.8677 25.281 12.0138C26.8546 12.1518 28.039 13.418 28.0475 14.9845C28.0531 15.5043 28.0512 16.0277 28.0493 16.5499ZM24.4095 25.9586V24.53C21.9391 24.1972 20.1202 22.3709 20.0017 19.9115C19.9764 19.4326 20.2302 19.1729 20.687 19.2459C20.9577 19.2946 21.11 19.4975 21.1185 19.8709C21.1439 20.6826 21.4146 21.3969 21.9307 22.0381C23.4197 23.905 26.4146 23.9699 27.9544 22.168C28.5297 21.4943 28.8342 20.7313 28.8681 19.8547C28.885 19.4813 29.0373 19.2865 29.3165 19.2459C29.7479 19.181 30.0187 19.4164 29.9933 19.8709C29.8918 21.5998 29.1134 22.9797 27.5483 23.8644C27.1374 24.0953 26.6736 24.2519 26.205 24.4103C25.998 24.4801 25.7902 24.5503 25.5855 24.6274V25.9586C25.7755 25.9586 25.9635 25.9572 26.1499 25.9559C26.6109 25.9526 27.0626 25.9494 27.5144 25.9667C27.6752 25.9748 27.8867 26.056 27.9628 26.1696C28.0474 26.3076 28.0643 26.5349 28.022 26.6972C27.9459 26.9407 27.7006 26.9975 27.4552 26.9975H22.506C22.4467 26.9975 22.3791 26.9975 22.3198 26.9813C22.0407 26.9083 21.8545 26.6729 21.8884 26.4212C21.9222 26.1534 22.1253 25.9667 22.4214 25.9586C22.579 25.9532 22.7328 25.955 22.8879 25.9568C22.966 25.9577 23.0443 25.9586 23.1236 25.9586H24.4095Z" fill="#32393E"/>
</g>
<defs>
<clipPath id="clip0">
<rect width="50" height="40" fill="white"/>
</clipPath>
</defs>
</svg>
