<svg width="37" height="36" viewBox="0 0 37 36" fill="none" xmlns="http://www.w3.org/2000/svg">
<path d="M25.7808 35.2776C31.6475 35.2776 36.4034 30.48 36.4034 24.5618C36.4034 18.6437 31.6475 13.8461 25.7808 13.8461C19.9141 13.8461 15.1582 18.6437 15.1582 24.5618C15.1582 30.48 19.9141 35.2776 25.7808 35.2776Z" fill="#32393E" stroke="white" stroke-miterlimit="10"/>
<path d="M18.8579 21.4314C24.7246 21.4314 29.4805 16.6338 29.4805 10.7157C29.4805 4.79759 24.7246 0 18.8579 0C12.9912 0 8.23535 4.79759 8.23535 10.7157C8.23535 16.6338 12.9912 21.4314 18.8579 21.4314Z" fill="white"/>
<path d="M18.858 20.2275C24.0655 20.2275 28.287 15.9689 28.287 10.7157C28.287 5.46258 24.0655 1.20404 18.858 1.20404C13.6505 1.20404 9.42896 5.46258 9.42896 10.7157C9.42896 15.9689 13.6505 20.2275 18.858 20.2275Z" fill="#FC4B15"/>
<path d="M12 36C18.0751 36 23 31.0751 23 25C23 18.9249 18.0751 14 12 14C5.92487 14 1 18.9249 1 25C1 31.0751 5.92487 36 12 36Z" stroke="white" stroke-miterlimit="10"/>
<path d="M15 25C15 28.1515 16.3276 30.9394 18.5 33C20.6724 31.0606 22 28.1515 22 25C22 21.8485 20.6724 19.0606 18.5 17C16.3276 19.0606 15 21.8485 15 25Z" fill="#32393E" stroke="white" stroke-miterlimit="10"/>
<path d="M12 35C17.5228 35 22 30.5228 22 25C22 19.4772 17.5228 15 12 15C6.47715 15 2 19.4772 2 25C2 30.5228 6.47715 35 12 35Z" stroke="#32393E" stroke-miterlimit="10"/>
</svg>
