<svg width="50" height="50" viewBox="0 0 50 50" fill="none" xmlns="http://www.w3.org/2000/svg">
<path d="M35.2059 39.043V11.1365H15.079V39.043H35.2059ZM36.5631 14.3288C36.562 14.3509 36.5653 14.3731 36.5728 14.3938C36.5803 14.4146 36.5918 14.4336 36.6067 14.4496C36.6215 14.4656 36.6394 14.4784 36.6592 14.4871C36.679 14.4958 36.7003 14.5003 36.7218 14.5003H39.3171C39.3606 14.4983 39.4019 14.4796 39.4328 14.4478C39.4636 14.4161 39.4818 14.3737 39.4837 14.3288V11.6345C39.4818 11.5897 39.4636 11.5472 39.4328 11.5155C39.4019 11.4838 39.3606 11.4651 39.3171 11.4631H36.7218C36.7003 11.463 36.679 11.4675 36.6592 11.4762C36.6394 11.4849 36.6215 11.4977 36.6067 11.5137C36.5918 11.5298 36.5803 11.5487 36.5728 11.5695C36.5653 11.5903 36.562 11.6124 36.5631 11.6345V14.3288ZM36.5631 19.1541C36.562 19.1762 36.5653 19.1983 36.5728 19.2191C36.5803 19.2399 36.5918 19.2588 36.6067 19.2749C36.6215 19.2909 36.6394 19.3037 36.6592 19.3124C36.679 19.3211 36.7003 19.3256 36.7218 19.3256H39.3171C39.3606 19.3236 39.4019 19.3048 39.4328 19.2731C39.4636 19.2414 39.4818 19.1989 39.4837 19.1541V16.4598C39.4818 16.4149 39.4636 16.3725 39.4328 16.3408C39.4019 16.309 39.3606 16.2903 39.3171 16.2883H36.7218C36.7003 16.2883 36.679 16.2928 36.6592 16.3015C36.6394 16.3102 36.6215 16.323 36.6067 16.339C36.5918 16.355 36.5803 16.374 36.5728 16.3948C36.5653 16.4155 36.562 16.4377 36.5631 16.4598V19.1541ZM36.5631 23.9794C36.5631 24.0227 36.5798 24.0642 36.6096 24.0948C36.6393 24.1255 36.6797 24.1427 36.7218 24.1427H39.3171C39.3594 24.1409 39.3996 24.1233 39.4302 24.0933C39.4609 24.0632 39.4799 24.0227 39.4837 23.9794V21.2769C39.4799 21.2335 39.4609 21.193 39.4302 21.163C39.3996 21.1329 39.3594 21.1154 39.3171 21.1136H36.7218C36.6797 21.1136 36.6393 21.1308 36.6096 21.1614C36.5798 21.192 36.5631 21.2336 36.5631 21.2769V23.9794ZM36.5631 28.8046C36.5631 28.8479 36.5798 28.8895 36.6096 28.9201C36.6393 28.9507 36.6797 28.9679 36.7218 28.9679H39.3171C39.3594 28.9661 39.3996 28.9486 39.4302 28.9185C39.4609 28.8885 39.4799 28.848 39.4837 28.8046V26.1103C39.4818 26.0655 39.4636 26.023 39.4328 25.9913C39.4019 25.9596 39.3606 25.9409 39.3171 25.9389H36.7218C36.7003 25.9388 36.679 25.9433 36.6592 25.952C36.6394 25.9607 36.6215 25.9735 36.6067 25.9895C36.5918 26.0056 36.5803 26.0246 36.5728 26.0453C36.5653 26.0661 36.562 26.0882 36.5631 26.1103V28.8046ZM36.5631 33.6217C36.562 33.6439 36.5653 33.666 36.5728 33.6867C36.5803 33.7075 36.5918 33.7265 36.6067 33.7425C36.6215 33.7586 36.6394 33.7713 36.6592 33.78C36.679 33.7887 36.7003 33.7932 36.7218 33.7932H39.3171C39.3606 33.7912 39.4019 33.7725 39.4328 33.7408C39.4636 33.709 39.4818 33.6666 39.4837 33.6217V30.9356C39.4818 30.8908 39.4636 30.8483 39.4328 30.8166C39.4019 30.7848 39.3606 30.7661 39.3171 30.7641H36.7218C36.7003 30.7641 36.679 30.7686 36.6592 30.7773C36.6394 30.786 36.6215 30.7988 36.6067 30.8148C36.5918 30.8308 36.5803 30.8498 36.5728 30.8706C36.5653 30.8913 36.562 30.9135 36.5631 30.9356V33.6217ZM36.7218 38.6266H39.3171C39.3606 38.6246 39.4019 38.6059 39.4328 38.5742C39.4636 38.5425 39.4818 38.5 39.4837 38.4552V35.7527C39.4799 35.7093 39.4609 35.6688 39.4302 35.6388C39.3996 35.6088 39.3594 35.5912 39.3171 35.5894H36.7218C36.701 35.5894 36.6803 35.5936 36.6611 35.6018C36.6418 35.61 36.6243 35.6221 36.6096 35.6372C36.5948 35.6524 36.5832 35.6704 36.5752 35.6902C36.5672 35.71 36.5631 35.7312 36.5631 35.7527V38.4225C36.562 38.4446 36.5653 38.4667 36.5728 38.4875C36.5803 38.5083 36.5918 38.5273 36.6067 38.5433C36.6215 38.5593 36.6394 38.5721 36.6592 38.5808C36.679 38.5895 36.7003 38.594 36.7218 38.594V38.6266ZM9.57898 9.93628H40.7377V40.2432H9.57898V9.93628ZM13.8964 38.4225V35.7527C13.8965 35.7305 13.8921 35.7086 13.8836 35.6883C13.8752 35.6679 13.8628 35.6495 13.8472 35.6342C13.8316 35.619 13.8131 35.6071 13.793 35.5994C13.7728 35.5917 13.7513 35.5883 13.7298 35.5894H11.1107C11.0892 35.5883 11.0677 35.5917 11.0475 35.5994C11.0274 35.6071 11.0089 35.619 10.9933 35.6342C10.9777 35.6495 10.9653 35.6679 10.9569 35.6883C10.9484 35.7086 10.944 35.7305 10.9441 35.7527V38.4225C10.9441 38.468 10.9616 38.5116 10.9929 38.5437C11.0241 38.5759 11.0665 38.594 11.1107 38.594H13.7298C13.774 38.594 13.8164 38.5759 13.8476 38.5437C13.8789 38.5116 13.8964 38.468 13.8964 38.4225ZM13.8964 33.5972V30.9356C13.8964 30.8901 13.8789 30.8465 13.8476 30.8144C13.8164 30.7822 13.774 30.7641 13.7298 30.7641H11.1107C11.0665 30.7641 11.0241 30.7822 10.9929 30.8144C10.9616 30.8465 10.9441 30.8901 10.9441 30.9356V33.5891C10.9441 33.6345 10.9616 33.6782 10.9929 33.7103C11.0241 33.7425 11.0665 33.7605 11.1107 33.7605H13.7298C13.774 33.7605 13.8164 33.7425 13.8476 33.7103C13.8789 33.6782 13.8964 33.6345 13.8964 33.5891V33.5972ZM13.8964 28.7801V26.1103C13.8964 26.0648 13.8789 26.0212 13.8476 25.9891C13.8164 25.9569 13.774 25.9389 13.7298 25.9389H11.1107C11.0665 25.9389 11.0241 25.9569 10.9929 25.9891C10.9616 26.0212 10.9441 26.0648 10.9441 26.1103V28.7801C10.944 28.8023 10.9484 28.8242 10.9569 28.8446C10.9653 28.8649 10.9777 28.8833 10.9933 28.8986C11.0089 28.9139 11.0274 28.9257 11.0475 28.9334C11.0677 28.9411 11.0892 28.9445 11.1107 28.9434H13.7298C13.752 28.9446 13.7741 28.941 13.7949 28.9328C13.8156 28.9246 13.8344 28.912 13.8502 28.8958C13.8659 28.8797 13.8781 28.8603 13.8861 28.8389C13.894 28.8176 13.8976 28.7948 13.8964 28.772V28.7801ZM13.8964 23.9549V21.2769C13.8965 21.2547 13.8921 21.2328 13.8836 21.2125C13.8752 21.1921 13.8628 21.1737 13.8472 21.1584C13.8316 21.1432 13.8131 21.1313 13.793 21.1236C13.7728 21.1159 13.7513 21.1125 13.7298 21.1136H11.1107C11.0892 21.1125 11.0677 21.1159 11.0475 21.1236C11.0274 21.1313 11.0089 21.1432 10.9933 21.1584C10.9777 21.1737 10.9653 21.1921 10.9569 21.2125C10.9484 21.2328 10.944 21.2547 10.9441 21.2769V23.9467C10.9417 23.9702 10.9444 23.9939 10.9518 24.0162C10.9593 24.0386 10.9713 24.059 10.9871 24.076C11.003 24.0931 11.0222 24.1064 11.0436 24.1151C11.0649 24.1238 11.0878 24.1276 11.1107 24.1263H13.7298C13.7527 24.1276 13.7756 24.1238 13.7969 24.1151C13.8183 24.1064 13.8375 24.0931 13.8533 24.076C13.8692 24.059 13.8812 24.0386 13.8887 24.0162C13.8961 23.9939 13.8988 23.9702 13.8964 23.9467V23.9549ZM13.8964 19.1296V16.4598C13.8964 16.4143 13.8789 16.3707 13.8476 16.3385C13.8164 16.3064 13.774 16.2883 13.7298 16.2883H11.1107C11.0665 16.2883 11.0241 16.3064 10.9929 16.3385C10.9616 16.3707 10.9441 16.4143 10.9441 16.4598V19.1133C10.9441 19.1587 10.9616 19.2024 10.9929 19.2345C11.0241 19.2667 11.0665 19.2847 11.1107 19.2847H13.7298C13.7726 19.2848 13.8139 19.2678 13.8449 19.2374C13.8759 19.207 13.8944 19.1655 13.8964 19.1214V19.1296ZM13.8964 11.6427C13.8964 11.5972 13.8789 11.5536 13.8476 11.5214C13.8164 11.4893 13.774 11.4712 13.7298 11.4712H11.1107C11.0665 11.4712 11.0241 11.4893 10.9929 11.5214C10.9616 11.5536 10.9441 11.5972 10.9441 11.6427V14.3288C10.9441 14.3743 10.9616 14.4179 10.9929 14.4501C11.0241 14.4822 11.0665 14.5003 11.1107 14.5003H13.7298C13.774 14.5003 13.8164 14.4822 13.8476 14.4501C13.8789 14.4179 13.8964 14.3743 13.8964 14.3288V11.6427Z" fill="#32393E"/>
<path d="M36.8886 14.133H39.1426V11.7979H36.8886V14.133ZM36.5632 14.2963V11.6347C36.5621 11.6125 36.5654 11.5904 36.5729 11.5697C36.5804 11.5489 36.5919 11.5299 36.6068 11.5139C36.6216 11.4978 36.6395 11.4851 36.6593 11.4764C36.6791 11.4676 36.7004 11.4632 36.7219 11.4632H39.3172C39.3607 11.4652 39.402 11.4839 39.4329 11.5156C39.4637 11.5474 39.4819 11.5898 39.4838 11.6347V14.329C39.4819 14.3738 39.4637 14.4163 39.4329 14.448C39.402 14.4797 39.3607 14.4984 39.3172 14.5004H36.7219C36.7004 14.5004 36.6791 14.496 36.6593 14.4873C36.6395 14.4785 36.6216 14.4658 36.6068 14.4497C36.5919 14.4337 36.5804 14.4147 36.5729 14.394C36.5654 14.3732 36.5621 14.3511 36.5632 14.329V14.2963Z" fill="#32393E"/>
<path d="M36.8886 18.9418H39.1426V16.6231H36.8886V18.9418ZM36.5632 19.1133V16.4598C36.5621 16.4377 36.5654 16.4156 36.5729 16.3948C36.5804 16.374 36.5919 16.355 36.6068 16.339C36.6216 16.323 36.6395 16.3102 36.6593 16.3015C36.6791 16.2928 36.7004 16.2883 36.7219 16.2883H39.3172C39.3607 16.2903 39.402 16.309 39.4329 16.3408C39.4637 16.3725 39.4819 16.415 39.4838 16.4598V19.1133C39.4819 19.1581 39.4637 19.2006 39.4329 19.2323C39.402 19.264 39.3607 19.2827 39.3172 19.2847H36.7219C36.6798 19.2847 36.6394 19.2675 36.6097 19.2369C36.5799 19.2063 36.5632 19.1647 36.5632 19.1214V19.1133Z" fill="#32393E"/>
<path d="M36.8887 23.7752H39.1427V21.4565H36.8887V23.7752ZM36.5633 23.9467V21.2769C36.5633 21.2336 36.58 21.192 36.6098 21.1614C36.6396 21.1308 36.6799 21.1136 36.722 21.1136H39.3173C39.3596 21.1154 39.3998 21.1329 39.4304 21.163C39.4611 21.193 39.4801 21.2335 39.4839 21.2769V23.9467C39.4801 23.9901 39.4611 24.0306 39.4304 24.0606C39.3998 24.0906 39.3596 24.1082 39.3173 24.11H36.722C36.6799 24.11 36.6396 24.0928 36.6098 24.0622C36.58 24.0315 36.5633 23.99 36.5633 23.9467Z" fill="#32393E"/>
<path d="M36.8886 28.6005H39.1426V26.2818H36.8886V28.6005ZM36.5632 28.772V26.1103C36.5621 26.0882 36.5654 26.0661 36.5729 26.0453C36.5804 26.0245 36.5919 26.0056 36.6068 25.9895C36.6216 25.9735 36.6395 25.9607 36.6593 25.952C36.6791 25.9433 36.7004 25.9388 36.7219 25.9388H39.3172C39.3607 25.9408 39.402 25.9595 39.4329 25.9913C39.4637 26.023 39.4819 26.0655 39.4838 26.1103V28.7801C39.48 28.8235 39.461 28.864 39.4303 28.894C39.3997 28.9241 39.3595 28.9416 39.3172 28.9434H36.7219C36.7004 28.9434 36.6791 28.939 36.6593 28.9302C36.6395 28.9215 36.6216 28.9088 36.6068 28.8927C36.5919 28.8767 36.5804 28.8577 36.5729 28.837C36.5654 28.8162 36.5621 28.7941 36.5632 28.772Z" fill="#32393E"/>
<path d="M39.1505 31.099H36.8886V33.434H39.1426L39.1505 31.099ZM36.5711 33.5973V30.9357C36.57 30.9136 36.5734 30.8914 36.5808 30.8707C36.5883 30.8499 36.5999 30.8309 36.6147 30.8149C36.6296 30.7989 36.6474 30.7861 36.6672 30.7774C36.687 30.7687 36.7083 30.7642 36.7299 30.7642H39.3251C39.3687 30.7662 39.4099 30.7849 39.4408 30.8167C39.4716 30.8484 39.4898 30.8908 39.4918 30.9357V33.5892C39.4898 33.634 39.4716 33.6765 39.4408 33.7082C39.4099 33.7399 39.3687 33.7586 39.3251 33.7606H36.7219C36.7004 33.7606 36.6791 33.7562 36.6593 33.7475C36.6395 33.7387 36.6216 33.726 36.6068 33.7099C36.5919 33.6939 36.5804 33.6749 36.5729 33.6542C36.5654 33.6334 36.5621 33.6113 36.5632 33.5892L36.5711 33.5973Z" fill="#32393E"/>
<path d="M39.1505 38.243V35.9242H36.8886V38.243H39.1505ZM39.3172 38.594H36.7219C36.7004 38.5941 36.6791 38.5896 36.6593 38.5809C36.6395 38.5722 36.6216 38.5594 36.6068 38.5434C36.5919 38.5273 36.5804 38.5083 36.5729 38.4876C36.5654 38.4668 36.5621 38.4447 36.5632 38.4226V35.7528C36.5632 35.7313 36.5673 35.7101 36.5753 35.6903C36.5832 35.6705 36.5949 35.6525 36.6097 35.6373C36.6244 35.6221 36.6419 35.6101 36.6612 35.6019C36.6804 35.5937 36.7011 35.5895 36.7219 35.5895H39.3172C39.3595 35.5913 39.3997 35.6088 39.4303 35.6389C39.461 35.6689 39.48 35.7094 39.4838 35.7528V38.4226C39.4819 38.4674 39.4637 38.5099 39.4329 38.5416C39.402 38.5733 39.3607 38.592 39.3172 38.594Z" fill="#32393E"/>
<path d="M13.571 14.1323V11.7973H11.3011V14.1323H13.571ZM13.8963 11.634V14.3283C13.8963 14.3738 13.8788 14.4174 13.8475 14.4495C13.8163 14.4817 13.7739 14.4997 13.7297 14.4997H11.1106C11.0664 14.4997 11.024 14.4817 10.9928 14.4495C10.9615 14.4174 10.944 14.3738 10.944 14.3283V11.634C10.944 11.5885 10.9615 11.5449 10.9928 11.5127C11.024 11.4806 11.0664 11.4625 11.1106 11.4625H13.7297C13.7739 11.4625 13.8163 11.4806 13.8475 11.5127C13.8788 11.5449 13.8963 11.5885 13.8963 11.634Z" fill="#32393E"/>
<path d="M13.5715 18.9418V16.6231H11.3017V18.9418H13.5715ZM13.8969 16.4924V19.1459C13.8969 19.1914 13.8794 19.235 13.8481 19.2672C13.8169 19.2993 13.7745 19.3174 13.7303 19.3174H11.1112C11.067 19.3174 11.0246 19.2993 10.9934 19.2672C10.9621 19.235 10.9445 19.1914 10.9445 19.1459V16.4598C10.9445 16.4143 10.9621 16.3707 10.9934 16.3385C11.0246 16.3064 11.067 16.2883 11.1112 16.2883H13.7303C13.7745 16.2883 13.8169 16.3064 13.8481 16.3385C13.8794 16.3707 13.8969 16.4143 13.8969 16.4598V16.4924Z" fill="#32393E"/>
<path d="M13.5715 23.7753V21.4565H11.3017V23.7753H13.5715ZM13.8969 21.2769V23.9467C13.897 23.9689 13.8926 23.9908 13.8841 24.0112C13.8757 24.0315 13.8633 24.0499 13.8477 24.0652C13.8321 24.0804 13.8136 24.0923 13.7934 24.1C13.7733 24.1077 13.7518 24.1111 13.7303 24.11H11.1112C11.0897 24.1111 11.0682 24.1077 11.048 24.1C11.0278 24.0923 11.0094 24.0804 10.9938 24.0652C10.9782 24.0499 10.9658 24.0315 10.9573 24.0112C10.9489 23.9908 10.9445 23.9689 10.9445 23.9467V21.2769C10.9445 21.2548 10.9489 21.2328 10.9573 21.2125C10.9658 21.1921 10.9782 21.1737 10.9938 21.1584C11.0094 21.1432 11.0278 21.1313 11.048 21.1236C11.0682 21.1159 11.0897 21.1125 11.1112 21.1136H13.7303C13.7518 21.1125 13.7733 21.1159 13.7934 21.1236C13.8136 21.1313 13.8321 21.1432 13.8477 21.1584C13.8633 21.1737 13.8757 21.1921 13.8841 21.2125C13.8926 21.2328 13.897 21.2548 13.8969 21.2769Z" fill="#32393E"/>
<path d="M13.5715 28.6005V26.2818H11.3017V28.6005H13.5715ZM13.8969 26.1021V28.772C13.897 28.7941 13.8926 28.816 13.8841 28.8364C13.8757 28.8568 13.8633 28.8751 13.8477 28.8904C13.8321 28.9057 13.8136 28.9175 13.7934 28.9252C13.7733 28.9329 13.7518 28.9364 13.7303 28.9352H11.1112C11.0897 28.9364 11.0682 28.9329 11.048 28.9252C11.0278 28.9175 11.0094 28.9057 10.9938 28.8904C10.9782 28.8751 10.9658 28.8568 10.9573 28.8364C10.9489 28.816 10.9445 28.7941 10.9445 28.772V26.1103C10.9445 26.0648 10.9621 26.0212 10.9934 25.9891C11.0246 25.9569 11.067 25.9388 11.1112 25.9388H13.7303C13.7745 25.9388 13.8169 25.9569 13.8481 25.9891C13.8794 26.0212 13.8969 26.0648 13.8969 26.1103V26.1021Z" fill="#32393E"/>
<path d="M13.5715 33.434V31.099H11.3017V33.434H13.5715ZM13.8969 30.9357V33.5892C13.8969 33.6346 13.8794 33.6782 13.8481 33.7104C13.8169 33.7426 13.7745 33.7606 13.7303 33.7606H11.1112C11.067 33.7606 11.0246 33.7426 10.9934 33.7104C10.9621 33.6782 10.9445 33.6346 10.9445 33.5892V30.9357C10.9445 30.8902 10.9621 30.8466 10.9934 30.8144C11.0246 30.7823 11.067 30.7642 11.1112 30.7642H13.7303C13.7745 30.7642 13.8169 30.7823 13.8481 30.8144C13.8794 30.8466 13.8969 30.8902 13.8969 30.9357Z" fill="#32393E"/>
<path d="M13.5713 38.2431V35.9243H11.3015V38.2431H13.5713ZM13.8967 35.7447V38.4145C13.8967 38.46 13.8792 38.5036 13.8479 38.5358C13.8167 38.5679 13.7743 38.586 13.7301 38.586H11.111C11.0668 38.586 11.0244 38.5679 10.9932 38.5358C10.9619 38.5036 10.9444 38.46 10.9444 38.4145V35.7529C10.9394 35.7282 10.9401 35.7026 10.9463 35.6782C10.9525 35.6538 10.9642 35.6313 10.9803 35.6123C10.9965 35.5933 11.0167 35.5784 11.0394 35.5688C11.062 35.5592 11.0866 35.5551 11.111 35.5569H13.7301C13.7545 35.5551 13.7791 35.5592 13.8017 35.5688C13.8244 35.5784 13.8446 35.5933 13.8608 35.6123C13.8769 35.6313 13.8886 35.6538 13.8948 35.6782C13.901 35.7026 13.9017 35.7282 13.8967 35.7529V35.7447Z" fill="#32393E"/>
<path d="M0 9.75659H7.76984" stroke="#FC4B15" stroke-miterlimit="10"/>
<path d="M9.48419 0.171387V8.15635" stroke="#FC4B15" stroke-miterlimit="10"/>
<path d="M49.9991 40.2432H42.2293" stroke="#FC4B15" stroke-miterlimit="10"/>
<path d="M40.5159 49.8358V41.8427" stroke="#FC4B15" stroke-miterlimit="10"/>
<path d="M9.48413 49.9999V42.015" stroke="#FC4B15" stroke-miterlimit="10"/>
<path d="M0.166687 40.2432H7.92859" stroke="#FC4B15" stroke-miterlimit="10"/>
<path d="M40.6822 0V7.98496" stroke="#FC4B15" stroke-miterlimit="10"/>
<path d="M50.0001 9.75659H42.2302" stroke="#FC4B15" stroke-miterlimit="10"/>
</svg>
