<svg width="70" height="50" viewBox="0 0 70 50" fill="none" xmlns="http://www.w3.org/2000/svg">
<g clip-path="url(#clip0)">
<rect x="2" y="2" width="55" height="35" stroke="#32393E" stroke-width="2" stroke-linecap="round" stroke-linejoin="round" stroke-dasharray="5 5"/>
<path d="M34.9375 19C34.9375 20.0878 34.6186 21.1512 34.0211 22.0556C33.4236 22.9601 32.5744 23.6651 31.5808 24.0813C30.5873 24.4976 29.494 24.6065 28.4392 24.3943C27.3844 24.1821 26.4156 23.6583 25.6551 22.8891C24.8947 22.1199 24.3768 21.1399 24.167 20.073C23.9572 19.0061 24.0649 17.9002 24.4764 16.8952C24.888 15.8902 25.5849 15.0313 26.4791 14.4269C27.3733 13.8226 28.4246 13.5 29.5 13.5C30.9421 13.5 32.3252 14.0795 33.3449 15.1109C34.3646 16.1424 34.9375 17.5413 34.9375 19ZM31.3125 19C31.3125 18.6374 31.2062 18.2829 31.007 17.9815C30.8079 17.68 30.5248 17.445 30.1936 17.3062C29.8624 17.1675 29.498 17.1312 29.1464 17.2019C28.7948 17.2726 28.4719 17.4472 28.2184 17.7036C27.9649 17.96 27.7923 18.2867 27.7223 18.6423C27.6524 18.998 27.6883 19.3666 27.8255 19.7016C27.9627 20.0366 28.195 20.3229 28.493 20.5244C28.7911 20.7258 29.1415 20.8333 29.5 20.8333C29.9807 20.8333 30.4417 20.6402 30.7816 20.2964C31.1215 19.9525 31.3125 19.4862 31.3125 19ZM44 13.5V28.1667C44 28.6529 43.809 29.1192 43.4691 29.463C43.1292 29.8068 42.6682 30 42.1875 30H16.8125C16.3318 30 15.8708 29.8068 15.5309 29.463C15.191 29.1192 15 28.6529 15 28.1667C15 19.1294 15 19.3817 15 13.5C15 13.0138 15.191 12.5475 15.5309 12.2036C15.8708 11.8598 16.3318 11.6667 16.8125 11.6667H21.1262L22.4494 9.00833C22.6 8.70599 22.8304 8.45174 23.1152 8.27376C23.3999 8.09578 23.7278 8.00103 24.0625 8C30.1183 8 29.7354 8 34.9375 8C35.2722 8.00103 35.6001 8.09578 35.8848 8.27376C36.1696 8.45174 36.4 8.70599 36.5506 9.00833L37.8738 11.6667H42.1875C42.6682 11.6667 43.1292 11.8598 43.4691 12.2036C43.809 12.5475 44 13.0138 44 13.5ZM40.375 15.3333H36.75C36.4153 15.3323 36.0874 15.2376 35.8027 15.0596C35.5179 14.8816 35.2875 14.6273 35.1369 14.325L33.8137 11.6667H25.1863L23.8631 14.4167C23.7125 14.719 23.4821 14.9733 23.1973 15.1512C22.9126 15.3292 22.5847 15.424 22.25 15.425H18.625V26.425H40.375V15.3333Z" fill="#FC4B15"/>
<path fill-rule="evenodd" clip-rule="evenodd" d="M65.8072 43.5064L69.5256 47.2248C70.1582 47.8574 70.1582 48.8929 69.5256 49.5255C68.893 50.1581 67.858 50.1581 67.2254 49.5255L63.5065 45.8066L61.704 48.1946C61.4042 48.5919 60.7881 48.5098 60.6027 48.0472L56.1866 37.0146C55.9791 36.4966 56.4978 35.9779 57.0159 36.1854L68.0485 40.6021C68.511 40.7874 68.5932 41.403 68.1958 41.7034L65.8078 43.5059L65.8072 43.5064Z" fill="#FC4B15"/>
<path d="M46.7501 38C46.3362 38 46 37.5518 46 37C46 36.4482 46.3362 36 46.7501 36H53.2499C53.6646 36 54 36.4482 54 37C54 37.5518 53.6646 38 53.2499 38H46.7501Z" fill="#FC4B15"/>
<path d="M58 33.2499C58 33.6638 57.5518 34 57 34C56.4482 34 56 33.6638 56 33.2499V26.7501C56 26.3354 56.4482 26 57 26C57.5518 26 58 26.3354 58 26.7501V33.2499Z" fill="#FC4B15"/>
<path d="M48.5304 29.9446C48.2377 29.6519 48.3169 29.0973 48.7071 28.7071C49.0973 28.3169 49.6519 28.2377 49.9446 28.5304L54.5407 33.1265C54.8339 33.4197 54.7542 33.9738 54.364 34.364C53.9738 34.7542 53.4197 34.8339 53.1265 34.5407L48.5304 29.9446Z" fill="#FC4B15"/>
<path d="M50.9446 45.5407C50.6519 45.8334 50.0973 45.7542 49.7071 45.364C49.3169 44.9738 49.2377 44.4192 49.5304 44.1265L54.1265 39.5304C54.4197 39.2372 54.9738 39.3169 55.364 39.7071C55.7542 40.0973 55.8339 40.6514 55.5407 40.9446L50.9446 45.5407Z" fill="#FC4B15"/>
<path d="M60.9446 34.5407C60.6519 34.8334 60.0973 34.7542 59.7071 34.364C59.3169 33.9738 59.2377 33.4192 59.5304 33.1265L64.1265 28.5304C64.4197 28.2372 64.9738 28.3169 65.364 28.7071C65.7542 29.0973 65.8339 29.6514 65.5407 29.9446L60.9446 34.5407Z" fill="#FC4B15"/>
</g>
<defs>
<clipPath id="clip0">
<rect width="70" height="50" fill="white"/>
</clipPath>
</defs>
</svg>
