<svg width="42" height="41" viewBox="0 0 42 41" fill="none" xmlns="http://www.w3.org/2000/svg">
<path fill-rule="evenodd" clip-rule="evenodd" d="M25 15C25 21.0751 20.0751 26 14 26C7.92487 26 3 21.0751 3 15C3 8.92487 7.92487 4 14 4C20.0751 4 25 8.92487 25 15ZM22.9641 25.7543C20.5356 27.7807 17.4102 29 14 29C6.26801 29 0 22.732 0 15C0 7.26801 6.26801 1 14 1C21.732 1 28 7.26801 28 15C28 17.9212 27.1053 20.6335 25.575 22.8777C25.7079 22.9261 25.8326 23.0036 25.9393 23.1102L36.1215 33.2925C36.512 33.683 36.512 34.3162 36.1215 34.7067L34.7066 36.1216C34.3161 36.5121 33.6829 36.5121 33.2924 36.1216L23.1102 25.9393C23.0532 25.8823 23.0045 25.8201 22.9641 25.7543Z" fill="#333333"/>
<path d="M15.2036 9.16667C15.2036 8.52233 14.6813 8 14.037 8C13.3926 8 12.8703 8.52233 12.8703 9.16667V13.8573H8.16667C7.52233 13.8573 7 14.3797 7 15.024C7 15.6683 7.52233 16.1907 8.16667 16.1907H12.8703V20.8333C12.8703 21.4777 13.3926 22 14.037 22C14.6813 22 15.2036 21.4777 15.2036 20.8333V16.1907H19.8333C20.4777 16.1907 21 15.6683 21 15.024C21 14.3797 20.4777 13.8573 19.8333 13.8573H15.2036V9.16667Z" fill="#FC4B15"/>
</svg>
