<svg width="43" height="26" viewBox="0 0 43 26" fill="none" xmlns="http://www.w3.org/2000/svg">
<path d="M34.0337 17.2673V21.9705C34.0337 22.5227 33.586 22.9705 33.0337 22.9705H9.03369C8.48141 22.9705 8.03369 22.5227 8.03369 21.9705V17.1892V16.0173V3.97046C8.03369 3.41817 8.48141 2.97046 9.03369 2.97046H33.0337C33.586 2.97046 34.0337 3.41817 34.0337 3.97046V17.2673Z" fill="white" stroke="#32393E" stroke-miterlimit="10"/>
<path d="M33.5143 16.8216C33.8156 17.0023 34 17.3279 34 17.6792V22C34 22.5523 33.5523 23 33 23H9C8.44772 23 8 22.5523 8 22V17.0323V16.1595C8 15.9409 8.07163 15.7284 8.20394 15.5543L13.158 9.03804C13.5561 8.51443 14.3426 8.51114 14.7451 9.0314L19.616 15.3283C19.9102 15.7085 20.4332 15.8257 20.8615 15.6072L26.1105 12.9292C26.4176 12.7726 26.7837 12.7851 27.0793 12.9624L33.5143 16.8216Z" fill="#32393E"/>
<circle cx="21" cy="8" r="2" fill="#32393E"/>
<path d="M40.5 23V20.293V12C40.5 11.1716 39.8284 10.5 39 10.5H29C28.1716 10.5 27.5 11.1716 27.5 12V19.4805V20.2422V23C27.5 23.8284 28.1716 24.5 29 24.5H39C39.8284 24.5 40.5 23.8284 40.5 23Z" fill="white" stroke="#FC4B15" stroke-miterlimit="10"/>
<path fill-rule="evenodd" clip-rule="evenodd" d="M36 20V18.5C36.2262 18.4105 36.4316 18.2756 36.6036 18.1036C36.7756 17.9316 36.9105 17.7262 37 17.5V14.5C37 13.5 36 12 35 12H33C32 12 31 13.5 31 14.5V17.5C31.0895 17.7262 31.2244 17.9316 31.3964 18.1036C31.5684 18.2756 31.7738 18.4105 32 18.5V20C32 20 28 22 28 23V24H40V23C40 22 36 20 36 20Z" fill="#FC4B15"/>
</svg>
