<svg width="70" height="50" viewBox="0 0 70 50" fill="none" xmlns="http://www.w3.org/2000/svg">
<path fill-rule="evenodd" clip-rule="evenodd" d="M21.9732 27.3095L26.3881 31.3274L23.9407 31.9827L21.2551 29.8564L21.9732 27.3095ZM38.1576 11.2418L42.7096 15.5563L43.4231 14.8609L38.9368 10.4825L38.1576 11.2418ZM40.244 9.20857L41.6355 7.8526C41.8998 7.59507 42.3282 7.59507 42.5925 7.8526L46.1251 11.2952C46.3894 11.5527 46.3894 11.9702 46.1251 12.2278L44.7303 13.587L40.244 9.20857ZM46.6037 10.8289C47.1322 11.3439 47.1322 12.179 46.6037 12.6941L27.1831 31.6195C27.0171 31.7812 26.8109 31.898 26.5846 31.9586L21.7135 33.263C20.7015 33.534 19.7718 32.628 20.0499 31.6417L21.3884 26.8948C21.4505 26.6743 21.5705 26.4734 21.7364 26.3117L41.157 7.3863C41.6855 6.87123 42.5425 6.87123 43.071 7.3863L46.6037 10.8289Z" fill="#FC4B15"/>
<path d="M20.1601 35C16.1646 39.3469 11.447 45.3323 19.0384 44.5298C28.5277 43.5267 30.9922 39.4191 36.0192 43.0251C43.0113 48.0408 49.0045 48.0408 53 44.5298" stroke="#32393E" stroke-width="2" stroke-linecap="round" stroke-linejoin="round"/>
<rect x="40" y="27" width="12" height="12" fill="#32393E"/>
<circle cx="18" cy="13" r="6" fill="#32393E" stroke="#32393E" stroke-width="2"/>
<circle cx="27" cy="4" r="3" fill="#FC4B15"/>
<path d="M56.5 10L63.8612 22.75H49.1388L56.5 10Z" fill="#32393E"/>
</svg>
