<svg width="70" height="50" viewBox="0 0 70 50" fill="none" xmlns="http://www.w3.org/2000/svg">
<circle cx="15" cy="33" r="7" fill="#FC4B15"/>
<path d="M32.938 31.472C32.938 33.04 32.3173 34.0527 31.076 34.51L33.554 38.01H30.866L28.696 34.888H27.184V38.01H25V28.224H28.71C30.2313 28.224 31.314 28.4807 31.958 28.994C32.6113 29.5073 32.938 30.3333 32.938 31.472ZM28.78 32.998C29.5267 32.998 30.0353 32.8767 30.306 32.634C30.5767 32.3913 30.712 32.0087 30.712 31.486C30.712 30.954 30.572 30.59 30.292 30.394C30.012 30.198 29.522 30.1 28.822 30.1H27.184V32.998H28.78Z" fill="#32393E"/>
<path d="M42.2279 28.224V30.17H37.3559V32.186H41.7379V34.048H37.3559V36.078H42.3819V38.01H35.1719V28.224H42.2279Z" fill="#32393E"/>
<path d="M48.826 36.078C49.8994 36.078 50.7767 35.6533 51.458 34.804L52.858 36.246C51.7474 37.4967 50.436 38.122 48.924 38.122C47.4214 38.122 46.18 37.646 45.2 36.694C44.2294 35.742 43.744 34.5427 43.744 33.096C43.744 31.64 44.2387 30.4267 45.228 29.456C46.2267 28.4853 47.4447 28 48.882 28C50.4874 28 51.8314 28.6113 52.914 29.834L51.556 31.374C50.8654 30.5153 50.0067 30.086 48.98 30.086C48.1587 30.086 47.454 30.3567 46.866 30.898C46.2874 31.43 45.998 32.1533 45.998 33.068C45.998 33.9733 46.2734 34.7013 46.824 35.252C47.3747 35.8027 48.042 36.078 48.826 36.078Z" fill="#32393E"/>
<path fill-rule="evenodd" clip-rule="evenodd" d="M11 23C11 22.4477 10.5523 22 10 22L4 22C3.44772 22 3 22.4477 3 23L3 29C3 29.5523 3.44771 30 4 30C4.55228 30 5 29.5523 5 29L5 24L10 24C10.5523 24 11 23.5523 11 23Z" fill="#32393E"/>
<path fill-rule="evenodd" clip-rule="evenodd" d="M50 42C50 42.5523 50.4477 43 51 43L57 43C57.5523 43 58 42.5523 58 42L58 36C58 35.4477 57.5523 35 57 35C56.4477 35 56 35.4477 56 36L56 41L51 41C50.4477 41 50 41.4477 50 42Z" fill="#32393E"/>
<circle cx="57.5" cy="16.5" r="9.5" fill="white" stroke="#32393E" stroke-width="2"/>
<path fill-rule="evenodd" clip-rule="evenodd" d="M57 11C56.4477 11 56 11.4477 56 12V17V19L62 19C62.5523 19 63 18.5523 63 18C63 17.4477 62.5523 17 62 17H58V12C58 11.4477 57.5523 11 57 11Z" fill="#32393E"/>
</svg>
