<svg width="70" height="50" viewBox="0 0 70 50" fill="none" xmlns="http://www.w3.org/2000/svg">
<path d="M34.637 31.3891C38.4028 31.3891 41.4555 28.3463 41.4555 24.5927C41.4555 20.8392 38.4028 17.7964 34.637 17.7964C30.8713 17.7964 27.8185 20.8392 27.8185 24.5927C27.8185 28.3463 30.8713 31.3891 34.637 31.3891Z" fill="#FC4B15"/>
<path d="M34.637 11C27.1629 11 21 17.1429 21 24.5927C21 32.0425 27.1629 38.1854 34.637 38.1854C42.1111 38.1854 48.274 32.0425 48.274 24.5927C48.274 17.1429 42.1111 11 34.637 11ZM34.637 36.5046C28.6052 36.5046 22.6954 30.6049 22.6954 24.5927C22.6954 18.5805 28.6052 12.6809 34.637 12.6809C40.6687 12.6809 46.5786 18.5805 46.5786 24.5927C46.5786 30.6049 40.6687 36.5046 34.637 36.5046Z" fill="#FC4B15"/>
<path fill-rule="evenodd" clip-rule="evenodd" d="M1 0H23V3H3V16.2791H0V0.999999C0 0.447714 0.447715 0 1 0ZM0 33.721V49C0 49.5523 0.447713 50 0.999998 50H23.3333V47H3V33.721H0ZM47.8947 50H69C69.5523 50 70 49.5523 70 49V33.721H67V47H47.8947V50ZM70 1V16.2791H67V3H48V0H69C69.5523 0 70 0.447715 70 1Z" fill="#32393E"/>
</svg>
