<svg width="60" height="54" viewBox="0 0 60 54" fill="none" xmlns="http://www.w3.org/2000/svg">
<path d="M31.5786 42.1778L45.8487 17.4612L27.4214 6.8222L13.1513 31.5388L31.5786 42.1778ZM45.4922 20.9728C45.4798 20.9917 45.4714 21.0129 45.4673 21.0352C45.4632 21.0574 45.4635 21.0803 45.4683 21.1024C45.4731 21.1246 45.4822 21.1456 45.4951 21.1643C45.5081 21.183 45.5245 21.199 45.5436 21.2113L47.9081 22.5765C47.9288 22.5884 47.9517 22.5962 47.9753 22.5994C47.999 22.6025 48.023 22.601 48.0461 22.5949C48.0691 22.5888 48.0907 22.5783 48.1096 22.5638C48.1285 22.5494 48.1443 22.5314 48.1562 22.5108L49.5127 20.1614C49.5245 20.1408 49.5322 20.1181 49.5353 20.0945C49.5383 20.0709 49.5367 20.0469 49.5304 20.0239C49.5242 20.0009 49.5135 19.9794 49.4989 19.9605C49.4843 19.9415 49.4662 19.9257 49.4455 19.9137L47.081 18.5486C47.0607 18.5382 47.0386 18.5319 47.016 18.5301C46.9933 18.5282 46.9706 18.5308 46.949 18.5378C46.9274 18.5447 46.9074 18.5559 46.8902 18.5705C46.873 18.5852 46.8589 18.6031 46.8487 18.6233L45.4922 20.9728ZM43.0234 25.2488C43.0111 25.2678 43.0026 25.289 42.9985 25.3112C42.9944 25.3335 42.9947 25.3563 42.9995 25.3785C43.0043 25.4006 43.0134 25.4217 43.0263 25.4404C43.0393 25.459 43.0557 25.475 43.0748 25.4874L45.4393 26.8525C45.46 26.8645 45.4829 26.8723 45.5065 26.8754C45.5302 26.8786 45.5543 26.8771 45.5773 26.871C45.6003 26.8649 45.6219 26.8543 45.6408 26.8399C45.6597 26.8255 45.6755 26.8075 45.6874 26.7869L47.0439 24.4374C47.0558 24.4168 47.0634 24.3941 47.0665 24.3705C47.0695 24.347 47.0679 24.323 47.0617 24.3C47.0554 24.277 47.0447 24.2554 47.0301 24.2365C47.0155 24.2176 46.9974 24.2017 46.9767 24.1898L44.6122 22.8246C44.5919 22.8143 44.5698 22.808 44.5472 22.8061C44.5246 22.8043 44.5018 22.8069 44.4802 22.8139C44.4586 22.8208 44.4387 22.8319 44.4214 22.8466C44.4042 22.8613 44.3901 22.8792 44.3799 22.8994L43.0234 25.2488ZM40.5546 29.5249C40.5353 29.5628 40.5308 29.6065 40.5419 29.6477C40.5531 29.6889 40.5792 29.7245 40.6151 29.7478L42.9796 31.1129C43.0187 31.1358 43.0649 31.1433 43.109 31.1341C43.1532 31.1248 43.1923 31.0995 43.2186 31.063L44.5751 28.7135C44.5936 28.6724 44.596 28.6259 44.5819 28.583C44.5678 28.5402 44.5382 28.5039 44.4988 28.4815L42.1344 27.1164C42.0963 27.0969 42.0523 27.0921 42.0111 27.103C41.9699 27.114 41.9342 27.1397 41.9111 27.1754L40.5546 29.5249ZM38.0858 33.801C38.0665 33.8388 38.062 33.8826 38.0732 33.9238C38.0843 33.9649 38.1104 34.0006 38.1463 34.0238L40.5108 35.389C40.5499 35.4118 40.5961 35.4194 40.6403 35.4101C40.6845 35.4009 40.7235 35.3755 40.7498 35.339L42.1063 32.9895C42.1182 32.969 42.1259 32.9463 42.1289 32.9227C42.132 32.8991 42.1303 32.8751 42.1241 32.8521C42.1178 32.8291 42.1071 32.8076 42.0925 32.7887C42.078 32.7697 42.0598 32.7539 42.0391 32.7419L39.6746 31.3768C39.6544 31.3664 39.6323 31.3601 39.6096 31.3583C39.587 31.3564 39.5642 31.359 39.5426 31.366C39.5211 31.3729 39.5011 31.384 39.4839 31.3987C39.4667 31.4134 39.4525 31.4313 39.4423 31.4515L38.0858 33.801ZM35.6216 38.0692C35.6092 38.0881 35.6008 38.1093 35.5967 38.1316C35.5926 38.1538 35.5929 38.1767 35.5977 38.1988C35.6025 38.221 35.6116 38.242 35.6245 38.2607C35.6374 38.2794 35.6539 38.2954 35.673 38.3077L38.0375 39.6729C38.0582 39.6848 38.081 39.6926 38.1047 39.6958C38.1284 39.699 38.1524 39.6975 38.1755 39.6914C38.1985 39.6853 38.2201 39.6747 38.239 39.6603C38.2579 39.6458 38.2737 39.6278 38.2856 39.6073L39.642 37.2578C39.6539 37.2372 39.6616 37.2145 39.6646 37.1909C39.6677 37.1673 39.6661 37.1434 39.6598 37.1204C39.6536 37.0974 39.6429 37.0758 39.6283 37.0569C39.6137 37.038 39.5955 37.0221 39.5748 37.0101L37.2103 35.645C37.1901 35.6346 37.168 35.6284 37.1454 35.6265C37.1227 35.6247 37.0999 35.6273 37.0784 35.6342C37.0568 35.6412 37.0368 35.6523 37.0196 35.667C37.0024 35.6816 36.9883 35.6996 36.978 35.7197L35.6216 38.0692ZM33.2042 42.5838L35.5687 43.9489C35.5894 43.9609 35.6123 43.9687 35.6359 43.9719C35.6596 43.975 35.6836 43.9735 35.7067 43.9674C35.7297 43.9613 35.7513 43.9508 35.7702 43.9363C35.7891 43.9219 35.8049 43.9039 35.8168 43.8833L37.1733 41.5338C37.1917 41.4928 37.1941 41.4463 37.18 41.4034C37.1659 41.3605 37.1363 41.3243 37.097 41.3019L34.7325 39.9367C34.6944 39.9172 34.6505 39.9125 34.6093 39.9234C34.568 39.9343 34.5324 39.9601 34.5093 39.9958L33.1528 42.3453C33.1404 42.3642 33.132 42.3854 33.1279 42.4076C33.1238 42.4299 33.1241 42.4527 33.1289 42.4749C33.1337 42.4971 33.1428 42.5181 33.1557 42.5368C33.1686 42.5555 33.1851 42.5714 33.2042 42.5838ZM22.9606 2.8266L51.5394 19.3266L36.0394 46.1734L7.46057 29.6734L22.9606 2.8266ZM12.3328 30.3353L13.6893 27.9858C13.6996 27.9657 13.7058 27.9437 13.7075 27.9211C13.7092 27.8986 13.7065 27.8759 13.6994 27.8543C13.6923 27.8328 13.681 27.8128 13.6662 27.7956C13.6514 27.7783 13.6334 27.7641 13.6131 27.7538L11.2486 26.3887C11.2295 26.3763 11.2082 26.3677 11.1859 26.3635C11.1635 26.3593 11.1406 26.3595 11.1184 26.3642C11.0962 26.3688 11.0751 26.3778 11.0565 26.3906C11.0378 26.4034 11.0219 26.4197 11.0096 26.4387L9.65308 28.7881C9.6399 28.8084 9.63114 28.8311 9.6274 28.855C9.62365 28.8788 9.62499 28.9033 9.63133 28.9266C9.63767 28.95 9.64886 28.9718 9.66419 28.9906C9.67952 29.0094 9.69863 29.0248 9.72028 29.0358L12.0848 30.4009C12.1051 30.4142 12.128 30.423 12.152 30.4269C12.1759 30.4308 12.2004 30.4296 12.2238 30.4234C12.2472 30.4172 12.269 30.4061 12.2878 30.391C12.3066 30.3758 12.3219 30.3568 12.3328 30.3353ZM14.8016 26.0592L16.1581 23.7098C16.1713 23.6895 16.18 23.6668 16.1838 23.6429C16.1875 23.6191 16.1862 23.5947 16.1799 23.5713C16.1735 23.5479 16.1623 23.5261 16.147 23.5073C16.1317 23.4885 16.1126 23.4731 16.0909 23.4621L13.7264 22.097C13.7061 22.0837 13.6832 22.0749 13.6592 22.071C13.6353 22.0671 13.6108 22.0683 13.5874 22.0745C13.564 22.0807 13.5422 22.0918 13.5234 22.1069C13.5046 22.1221 13.4893 22.1411 13.4783 22.1626L12.1219 24.5121C12.1087 24.5323 12.0999 24.5551 12.0962 24.5789C12.0924 24.6028 12.0938 24.6272 12.1001 24.6505C12.1065 24.6739 12.1177 24.6957 12.133 24.7145C12.1483 24.7333 12.1674 24.7487 12.1891 24.7597L14.5536 26.1249C14.5739 26.1381 14.5968 26.147 14.6208 26.1508C14.6447 26.1547 14.6692 26.1535 14.6926 26.1473C14.716 26.1411 14.7378 26.1301 14.7566 26.1149C14.7754 26.0997 14.7907 26.0808 14.8016 26.0592ZM17.2659 21.791L18.6224 19.4415C18.6356 19.4213 18.6443 19.3985 18.6481 19.3747C18.6518 19.3508 18.6505 19.3264 18.6441 19.3031C18.6378 19.2797 18.6266 19.2579 18.6113 19.2391C18.5959 19.2203 18.5768 19.2049 18.5552 19.1939L16.1907 17.8287C16.1703 17.8155 16.1474 17.8066 16.1235 17.8028C16.0995 17.7989 16.075 17.8001 16.0516 17.8063C16.0282 17.8125 16.0064 17.8235 15.9877 17.8387C15.9689 17.8539 15.9535 17.8728 15.9426 17.8944L14.5861 20.2439C14.5759 20.264 14.5697 20.286 14.5679 20.3085C14.5662 20.3311 14.569 20.3538 14.576 20.3753C14.5831 20.3969 14.5944 20.4169 14.6092 20.4341C14.624 20.4514 14.6421 20.4655 14.6624 20.4758L17.0269 21.841C17.0459 21.8534 17.0672 21.8619 17.0896 21.8661C17.1119 21.8704 17.1349 21.8701 17.1571 21.8655C17.1793 21.8609 17.2003 21.8519 17.219 21.8391C17.2377 21.8263 17.2536 21.81 17.2659 21.791ZM19.7347 17.5149L21.0912 15.1655C21.1014 15.1453 21.1076 15.1234 21.1093 15.1008C21.1111 15.0782 21.1083 15.0555 21.1012 15.034C21.0942 15.0124 21.0829 14.9925 21.0681 14.9752C21.0533 14.958 21.0352 14.9438 21.0149 14.9335L18.6504 13.5683C18.6314 13.5559 18.61 13.5474 18.5877 13.5432C18.5654 13.539 18.5424 13.5392 18.5202 13.5438C18.498 13.5485 18.477 13.5574 18.4583 13.5702C18.4396 13.583 18.4237 13.5993 18.4114 13.6183L17.0549 15.9678C17.0446 15.9879 17.0385 16.0099 17.0367 16.0325C17.035 16.055 17.0378 16.0777 17.0448 16.0993C17.0519 16.1208 17.0632 16.1408 17.078 16.158C17.0928 16.1753 17.1109 16.1895 17.1312 16.1998L19.4957 17.5649C19.5147 17.5773 19.536 17.5859 19.5584 17.5901C19.5807 17.5943 19.6036 17.5941 19.6258 17.5894C19.648 17.5848 19.6691 17.5758 19.6878 17.563C19.7064 17.5503 19.7224 17.5339 19.7347 17.5149ZM22.2035 13.2389L23.5599 10.8894C23.5731 10.8692 23.5819 10.8464 23.5856 10.8226C23.5894 10.7987 23.588 10.7743 23.5817 10.7509C23.5754 10.7276 23.5642 10.7058 23.5488 10.687C23.5335 10.6682 23.5144 10.6528 23.4927 10.6418L21.1282 9.27662C21.1079 9.26336 21.085 9.25451 21.061 9.25065C21.0371 9.24678 21.0126 9.24798 20.9892 9.25417C20.9658 9.26036 20.944 9.2714 20.9252 9.28658C20.9064 9.30175 20.8911 9.32072 20.8802 9.34224L19.5237 11.6917C19.5105 11.7119 19.5018 11.7347 19.498 11.7586C19.4943 11.7824 19.4956 11.8068 19.502 11.8302C19.5083 11.8536 19.5195 11.8753 19.5348 11.8942C19.5501 11.913 19.5693 11.9284 19.5909 11.9394L21.9554 13.3045C21.9757 13.3178 21.9986 13.3266 22.0226 13.3305C22.0466 13.3343 22.071 13.3331 22.0944 13.327C22.1178 13.3208 22.1396 13.3097 22.1584 13.2945C22.1772 13.2794 22.1926 13.2604 22.2035 13.2389ZM26.0287 6.61334C26.0419 6.59313 26.0507 6.57035 26.0544 6.54649C26.0582 6.52264 26.0568 6.49823 26.0505 6.47487C26.0441 6.45151 26.0329 6.42971 26.0176 6.4109C26.0023 6.39209 25.9832 6.37669 25.9615 6.36569L23.597 5.00055C23.5767 4.9873 23.5538 4.97845 23.5298 4.97458C23.5059 4.97071 23.4814 4.97191 23.458 4.97811C23.4346 4.9843 23.4128 4.99534 23.394 5.01051C23.3752 5.02569 23.3599 5.04465 23.349 5.06618L21.9925 7.41566C21.9793 7.43587 21.9706 7.45865 21.9668 7.4825C21.9631 7.50636 21.9644 7.53076 21.9707 7.55413C21.9771 7.57749 21.9883 7.59928 22.0036 7.61809C22.0189 7.63691 22.038 7.65231 22.0597 7.6633L24.4242 9.02844C24.4445 9.0417 24.4674 9.05055 24.4914 9.05442C24.5153 9.05828 24.5398 9.05708 24.5632 9.05089C24.5866 9.0447 24.6084 9.03366 24.6272 9.01849C24.646 9.00331 24.6613 8.98434 24.6723 8.96282L26.0287 6.61334Z" fill="#32393E"/>
<path d="M8.4286 23.4486L8.4286 18L2.76184 18L2.76184 19.8315L5.12727 19.8315C4.14746 20.5154 3.30049 21.3678 2.62899 22.3535C1.56322 23.9181 1 25.7378 1 27.6154C1 32.9173 5.486 37.2308 11 37.2308L11 35.3993C6.53633 35.3993 2.90474 31.9074 2.90474 27.6154C2.90474 24.9901 4.29203 22.5575 6.52386 21.1289L6.52386 23.4486L8.4286 23.4486Z" fill="#FC4B15"/>
<path d="M50.5714 23.7821L50.5714 29.2308L56.2382 29.2308L56.2382 27.3993L53.8727 27.3993C54.8525 26.7153 55.6995 25.863 56.371 24.8772C57.4368 23.3127 58 21.493 58 19.6154C58 14.3135 53.514 10 48 10L48 11.8315C52.4637 11.8315 56.0953 15.3234 56.0953 19.6154C56.0953 22.2407 54.708 24.6733 52.4761 26.1019L52.4761 23.7821L50.5714 23.7821Z" fill="#FC4B15"/>
</svg>
