<svg width="44" height="40" viewBox="0 0 44 40" fill="none" xmlns="http://www.w3.org/2000/svg">
<path d="M17.7139 27.004C17.8698 26.3578 18.0763 25.7431 18.162 25.1127C18.5165 22.4805 17.6516 20.3567 15.458 18.8554C14.1372 17.953 12.6567 17.6339 11.0943 17.9806C9.59041 18.3116 8.47221 19.2021 7.76701 20.5931C7.20986 21.6924 7.0657 22.8509 7.40856 24.0488C7.8722 25.684 9.51249 26.9173 11.1839 26.9055C11.4021 26.9055 11.5541 26.7755 11.5541 26.5864C11.5541 26.4051 11.4216 26.2869 11.1995 26.279C9.66444 26.2278 8.47611 25.2703 8.05532 23.9897C7.60337 22.6263 7.88779 21.3575 8.72936 20.2384C9.73457 18.8948 11.1177 18.3313 12.7619 18.5283C14.6243 18.7529 16.0386 19.7104 16.9542 21.3733C17.7996 22.9139 17.7957 24.5334 17.2853 26.1766C16.8879 27.4493 16.171 28.5132 15.1619 29.3643C13.7671 30.5385 12.1502 31.0744 10.3346 30.9917C9.13846 30.9365 8.00078 30.6489 6.92933 30.1208C5.67087 29.5022 4.6189 28.6235 3.77344 27.4926C2.86173 26.2751 2.30068 24.9038 2.09419 23.3947C1.92665 22.2323 1.98899 21.0738 2.23055 19.9311C2.80329 17.232 4.17864 15.0372 6.34101 13.3586C8.01247 12.0622 9.906 11.3135 12.0138 11.1481C14.3437 10.9629 16.5762 11.3805 18.6997 12.3577C20.2503 13.0709 21.6218 14.0482 22.814 15.2815C24.2595 16.7709 25.3231 18.5007 25.9972 20.4709C26.4335 21.7437 25.9582 23.0794 24.8517 23.8123C23.3828 24.7856 21.7971 25.5106 20.1607 26.1293C19.3464 26.4366 18.5165 26.7164 17.7139 27.004Z" fill="#32393E"/>
<path d="M13.3684 30.996C13.8208 30.683 14.2936 30.3823 14.7338 30.0408C15.4512 29.4799 16.0218 28.7889 16.5028 28.0166C16.5639 27.915 16.6984 27.8378 16.8166 27.7971C17.9864 27.3906 19.1725 27.0248 20.3342 26.5858C21.9197 25.9843 23.4482 25.2526 24.8788 24.3259C26.3054 23.3991 26.9005 21.7204 26.3462 20.0986C26.2157 19.7165 26.0446 19.3466 25.9019 18.9645C25.8734 18.8914 25.8611 18.7897 25.8897 18.7206C26.3136 17.6841 26.8108 16.6883 27.4344 15.7575C28.1803 14.6397 29.0078 13.5869 30.039 12.7089C30.6585 12.1846 31.327 11.7212 32.1381 11.5546C32.5171 11.4773 32.9166 11.4855 33.3079 11.4692C33.4098 11.4651 33.4627 11.4489 33.5157 11.3595C34.0415 10.4734 34.6407 9.63603 35.3214 8.85967C36.214 7.83944 37.2126 6.93301 38.3824 6.23794C38.8593 5.95341 39.3606 5.7136 39.8579 5.46972C40.1187 5.34371 40.3511 5.47378 40.3674 5.73392C40.3796 5.9087 40.2818 5.99813 40.135 6.07536C39.6704 6.30704 39.1976 6.53467 38.7492 6.79887C37.6284 7.46955 36.6542 8.3272 35.8268 9.33118C35.2562 10.0262 34.7548 10.7782 34.2249 11.5017C34.2005 11.5342 34.1842 11.5708 34.1842 11.579C34.5347 11.8066 34.8975 12.0058 35.2113 12.2659C35.4355 12.4488 35.6148 12.7008 35.786 12.9447C36.1162 13.404 36.051 13.8958 35.8839 14.3999C35.6841 14.9852 35.2765 15.3469 34.7018 15.538C34.4532 15.6233 34.2005 15.7128 33.9478 15.7778C33.2427 15.9607 32.7698 16.4038 32.4397 17.0419C31.9261 18.0418 31.5919 19.1027 31.2984 20.1799C30.9397 21.5131 30.683 22.8666 30.4669 24.2324C30.2346 25.6713 29.452 26.8094 28.3638 27.7524C27.2103 28.7523 25.8611 29.3417 24.3693 29.6465C22.7757 29.9758 21.1738 30.2603 19.5597 30.4676C17.5462 30.7278 15.5246 30.9107 13.4948 31.0001C13.4459 31.0001 13.3969 30.996 13.3684 30.996Z" fill="#FC4B15"/>
<path d="M33.2632 11.0496C33.5742 10.2367 33.8672 9.41091 34.2035 8.6108C34.6484 7.54969 35.1801 6.54849 35.8202 5.63713C36.1891 5.11085 36.5942 4.62309 36.992 4.12676C37.1259 3.95561 37.3284 3.96417 37.4441 4.11392C37.5671 4.26796 37.5526 4.46905 37.3971 4.6402C35.8853 6.33883 34.8437 8.40115 34.0733 10.6688C33.9865 10.9213 33.8925 11.0796 33.6429 11.0539C33.5381 11.0454 33.4296 11.0839 33.3247 11.1053C33.2994 11.0881 33.2813 11.071 33.2632 11.0496Z" fill="#FC4B15"/>
</svg>
