<svg width="42" height="41" viewBox="0 0 42 41" fill="none" xmlns="http://www.w3.org/2000/svg">
<g clip-path="url(#clip0)">
<path d="M30.4756 5.98447H1.28049V27.5031H30.4756V5.98447ZM4.60976 4.45652C4.7378 4.45652 4.73781 4.32919 4.73781 4.32919V1.52795C4.73781 1.40062 4.60976 1.40062 4.60976 1.40062H1.79268C1.66463 1.40062 1.66463 1.52795 1.66463 1.52795V4.32919C1.66463 4.45652 1.79268 4.45652 1.79268 4.45652H4.60976ZM9.60366 4.45652C9.73171 4.45652 9.73171 4.32919 9.73171 4.32919V1.52795C9.73171 1.40062 9.60366 1.40062 9.60366 1.40062H6.78659C6.65854 1.40062 6.65854 1.52795 6.65854 1.52795V4.32919C6.65854 4.45652 6.78659 4.45652 6.78659 4.45652H9.60366ZM14.5976 4.45652C14.7256 4.45652 14.7256 4.32919 14.7256 4.32919V1.52795C14.7256 1.40062 14.5976 1.40062 14.5976 1.40062H11.9085C11.7805 1.40062 11.7805 1.52795 11.7805 1.52795V4.32919C11.7805 4.45652 11.9085 4.45652 11.9085 4.45652H14.5976ZM19.7195 4.45652C19.8476 4.45652 19.8476 4.32919 19.8476 4.32919V1.52795C19.8476 1.40062 19.7195 1.40062 19.7195 1.40062H16.9024C16.7744 1.40062 16.7744 1.52795 16.7744 1.52795V4.32919C16.7744 4.45652 16.9024 4.45652 16.9024 4.45652H19.7195ZM24.7134 4.45652C24.8415 4.45652 24.8415 4.32919 24.8415 4.32919V1.52795C24.8415 1.40062 24.7134 1.40062 24.7134 1.40062H21.8963C21.7683 1.40062 21.7683 1.52795 21.7683 1.52795V4.32919C21.7683 4.45652 21.8963 4.45652 21.8963 4.45652H24.7134ZM29.9634 4.32919V1.52795C29.9634 1.40062 29.8354 1.40062 29.8354 1.40062H27.0183C26.8902 1.40062 26.8902 1.52795 26.8902 1.52795V4.32919C26.8902 4.45652 27.0183 4.45652 27.0183 4.45652H29.8354L29.9634 4.32919ZM0 33.3602V0H31.6281V33.3602H0ZM29.8354 28.6491H27.0183C26.8902 28.6491 26.8902 28.7764 26.8902 28.7764V31.5776C26.8902 31.705 27.0183 31.705 27.0183 31.705H29.8354C29.9634 31.705 29.9634 31.5776 29.9634 31.5776V28.7764L29.8354 28.6491ZM24.7134 28.6491H21.8963C21.7683 28.6491 21.7683 28.7764 21.7683 28.7764V31.5776C21.7683 31.705 21.8963 31.705 21.8963 31.705H24.7134C24.8415 31.705 24.8415 31.5776 24.8415 31.5776V28.7764C24.9695 28.7764 24.8415 28.6491 24.7134 28.6491ZM19.7195 28.6491H16.9024C16.7744 28.6491 16.7744 28.7764 16.7744 28.7764V31.5776C16.7744 31.705 16.9024 31.705 16.9024 31.705H19.7195C19.8476 31.705 19.8476 31.5776 19.8476 31.5776V28.7764C19.8476 28.7764 19.8476 28.6491 19.7195 28.6491ZM14.5976 28.6491H11.9085C11.7805 28.6491 11.7805 28.7764 11.7805 28.7764V31.5776C11.7805 31.705 11.9085 31.705 11.9085 31.705H14.7256C14.8537 31.705 14.8537 31.5776 14.8537 31.5776V28.7764C14.8537 28.7764 14.7256 28.6491 14.5976 28.6491ZM9.60366 28.6491H6.78659C6.65854 28.6491 6.65854 28.7764 6.65854 28.7764V31.5776C6.65854 31.705 6.78659 31.705 6.78659 31.705H9.60366C9.73171 31.705 9.73171 31.5776 9.73171 31.5776V28.7764C9.73171 28.7764 9.73171 28.6491 9.60366 28.6491ZM1.79268 28.6491C1.66463 28.6491 1.66463 28.7764 1.66463 28.7764V31.5776C1.66463 31.705 1.79268 31.705 1.79268 31.705H4.60976C4.7378 31.705 4.73781 31.5776 4.73781 31.5776V28.7764C4.73781 28.6491 4.60976 28.6491 4.60976 28.6491H1.79268Z" fill="#32393E"/>
<path d="M4.3537 4.07453V1.65528H1.92077V4.07453H4.3537ZM4.6098 4.45652H1.79272C1.66467 4.45652 1.66467 4.32919 1.66467 4.32919V1.52795C1.66467 1.40062 1.79272 1.40062 1.79272 1.40062H4.6098C4.73784 1.40062 4.73784 1.52795 4.73784 1.52795V4.32919L4.6098 4.45652Z" fill="#32393E"/>
<path d="M9.47565 4.07453V1.65528H7.04272V4.07453H9.47565ZM9.60369 4.45652H6.78662C6.65857 4.45652 6.65857 4.32919 6.65857 4.32919V1.52795C6.65857 1.40062 6.78662 1.40062 6.78662 1.40062H9.60369C9.73174 1.40062 9.73174 1.52795 9.73174 1.52795V4.32919C9.73174 4.32919 9.73174 4.45652 9.60369 4.45652Z" fill="#32393E"/>
<path d="M14.4695 4.07453V1.65528H12.0366V4.07453H14.4695ZM14.5976 4.45652H11.9086C11.7805 4.45652 11.7805 4.32919 11.7805 4.32919V1.52795C11.7805 1.40062 11.9086 1.40062 11.9086 1.40062H14.7256C14.8537 1.40062 14.8537 1.52795 14.8537 1.52795V4.32919C14.8537 4.32919 14.7256 4.45652 14.5976 4.45652Z" fill="#32393E"/>
<path d="M19.4634 4.07453V1.65528H17.0305V4.07453H19.4634ZM19.7195 4.45652H16.9025C16.7744 4.45652 16.7744 4.32919 16.7744 4.32919V1.52795C16.7744 1.40062 16.9025 1.40062 16.9025 1.40062H19.7195C19.8476 1.40062 19.8476 1.52795 19.8476 1.52795V4.32919C19.8476 4.32919 19.8476 4.45652 19.7195 4.45652Z" fill="#32393E"/>
<path d="M22.1525 1.65528V4.07453H24.5854V1.65528H22.1525ZM24.7134 4.45652H21.8964C21.7683 4.45652 21.7683 4.32919 21.7683 4.32919V1.52795C21.7683 1.40062 21.8964 1.40062 21.8964 1.40062H24.7134C24.8415 1.40062 24.8415 1.52795 24.8415 1.52795V4.32919C24.9695 4.32919 24.8415 4.45652 24.7134 4.45652Z" fill="#32393E"/>
<path d="M29.5793 1.65528H27.1464V4.07453H29.5793V1.65528ZM29.9634 1.52795V4.32919C29.9634 4.45652 29.8354 4.45652 29.8354 4.45652H27.0183C26.8903 4.45652 26.8903 4.32919 26.8903 4.32919V1.52795C26.8903 1.40062 27.0183 1.40062 27.0183 1.40062H29.8354C29.8354 1.40062 29.9634 1.40062 29.9634 1.52795Z" fill="#32393E"/>
<path d="M4.35376 29.0311H1.92083V31.4503H4.35376V29.0311ZM1.79278 28.6491H4.60986C4.73791 28.6491 4.73791 28.7764 4.73791 28.7764V31.5776C4.73791 31.705 4.60986 31.705 4.60986 31.705H1.79278C1.66473 31.705 1.66473 31.5776 1.66473 31.5776V28.7764C1.53669 28.7764 1.66473 28.6491 1.79278 28.6491Z" fill="#32393E"/>
<path d="M9.47565 29.0311H7.04272V31.4503H9.47565V29.0311ZM6.78662 28.6491H9.60369C9.73174 28.6491 9.73174 28.7764 9.73174 28.7764V31.5776C9.73174 31.705 9.60369 31.705 9.60369 31.705H6.78662C6.65857 31.705 6.65857 31.5776 6.65857 31.5776V28.7764C6.65857 28.7764 6.65857 28.6491 6.78662 28.6491Z" fill="#32393E"/>
<path d="M14.4695 29.0311H12.0366V31.4503H14.4695V29.0311ZM11.9085 28.6491H14.7256C14.8536 28.6491 14.8536 28.7764 14.8536 28.7764V31.5776C14.8536 31.705 14.7256 31.705 14.7256 31.705H11.9085C11.7805 31.705 11.7805 31.5776 11.7805 31.5776V28.7764C11.6524 28.7764 11.7805 28.6491 11.9085 28.6491Z" fill="#32393E"/>
<path d="M19.4634 29.0311H17.0305V31.4503H19.4634V29.0311ZM16.9025 28.6491H19.7195C19.8476 28.6491 19.8476 28.7764 19.8476 28.7764V31.5776C19.8476 31.705 19.7195 31.705 19.7195 31.705H16.9025C16.7744 31.705 16.7744 31.5776 16.7744 31.5776V28.7764C16.7744 28.7764 16.7744 28.6491 16.9025 28.6491Z" fill="#32393E"/>
<path d="M24.5854 29.0311H22.1525V31.4503H24.5854V29.0311ZM21.8964 28.6491H24.7134C24.8415 28.6491 24.8415 28.7764 24.8415 28.7764V31.5776C24.8415 31.705 24.7134 31.705 24.7134 31.705H21.8964C21.7683 31.705 21.7683 31.5776 21.7683 31.5776V28.7764L21.8964 28.6491Z" fill="#32393E"/>
<path d="M29.5793 29.0311H27.1464V31.4503H29.5793V29.0311ZM27.0184 28.6491H29.8354C29.9635 28.6491 29.9635 28.7764 29.9635 28.7764V31.5776C29.9635 31.705 29.8354 31.705 29.8354 31.705H27.0184C26.8903 31.705 26.8903 31.5776 26.8903 31.5776V28.7764C26.7623 28.7764 26.8903 28.6491 27.0184 28.6491Z" fill="#32393E"/>
<path d="M17.6708 26.9938C26.122 29.9224 26.122 29.9224 28.5549 39.3447C29.4513 32.087 33.2927 28.5217 40.3354 28.1398C33.4208 27.1211 29.8354 23.3012 29.4513 16.2981C28.5549 23.1739 24.5854 26.7391 17.6708 26.9938Z" fill="#FC4B15" stroke="white" stroke-width="0.5" stroke-miterlimit="10"/>
<path d="M40.4635 10.6956C35.5977 9.1677 35.3416 8.91304 33.5489 3.31055C33.0367 7.63975 30.8599 9.93167 26.7623 10.441C30.7318 11.0776 33.0367 13.3696 33.5489 17.4441C34.3172 13.4969 36.366 11.0776 40.4635 10.6956Z" fill="#FC4B15" stroke="white" stroke-width="0.5" stroke-miterlimit="10"/>
<path d="M19.9757 10.059C19.0793 13.7515 16.9025 15.9161 13.061 16.8074C16.9025 17.5714 19.0793 19.8634 19.7196 23.8106C20.4879 19.9907 22.7927 17.6988 26.7623 16.9348C22.9208 15.9161 20.6159 13.8789 19.9757 10.059Z" fill="#FC4B15"/>
</g>
<defs>
<clipPath id="clip0">
<rect width="42" height="41" fill="white"/>
</clipPath>
</defs>
</svg>
