<svg width="33" height="32" viewBox="0 0 33 32" fill="none" xmlns="http://www.w3.org/2000/svg">
<g clip-path="url(#clip0)">
<path d="M29.3478 0C28.3043 1.03226 27.2609 1.93548 26.2174 2.96774C22.5652 6.45161 18.913 9.93548 15.2609 13.5484C14.7391 14.0645 14.3478 14.4516 13.8261 14.9677C12.6522 16.2581 12.6522 18.0645 13.9565 19.4839C15.1304 20.7742 17.0869 20.7742 18.3913 19.7419C18.913 19.3548 19.3043 18.7097 19.6956 18.1935C22.1739 13.6774 24.6522 9.16129 27.1304 4.64516C27.7826 3.35484 28.5652 2.06452 29.2174 0.774194C29.2174 0.387097 29.3478 0.258065 29.3478 0Z" fill="#FC4B15"/>
<path d="M22.5655 0.903463C15.2612 -1.54815 7.30466 1.03249 2.86987 7.35508C0.39161 10.8389 -0.521434 14.839 0.261175 19.097C1.30465 25.2906 4.95683 29.2906 10.8264 31.4841C12.2612 32.0002 13.696 32.1293 15.2612 32.1293C14.2177 31.8712 13.1742 31.6131 12.1307 31.3551C7.30466 29.6777 4.17422 26.4519 2.86987 21.5486C1.17422 14.839 4.69596 8.38734 10.696 6.06475C14.0873 4.77443 17.4786 4.77443 20.7394 6.45185C21.1307 6.58088 21.2612 6.58088 21.522 6.32282C22.696 5.16153 24.0003 4.00024 25.1742 2.83895C25.3047 2.70991 25.3047 2.70991 25.4351 2.45185C24.5221 1.80669 23.609 1.29056 22.5655 0.903463Z" fill="#32393E"/>
<path d="M28.3044 4.12903C27.7827 5.03225 27.3914 5.93548 26.8697 6.70967C26.3479 7.6129 25.8262 8.51613 25.4349 9.41935C25.3044 9.54839 25.3044 9.80645 25.3044 9.93548C25.8262 10.8387 26.3479 11.7419 26.8697 12.7742C28.8262 11.871 30.9131 10.9677 32.8697 10.0645C31.8262 7.74193 30.3914 5.80645 28.3044 4.12903Z" fill="#32393E"/>
</g>
<defs>
<clipPath id="clip0">
<rect width="33" height="32" fill="white"/>
</clipPath>
</defs>
</svg>
