<svg width="37" height="36" viewBox="0 0 37 36" fill="none" xmlns="http://www.w3.org/2000/svg">
<mask id="mask0" mask-type="alpha" maskUnits="userSpaceOnUse" x="0" y="0" width="34" height="35">
<path fill-rule="evenodd" clip-rule="evenodd" d="M0 1.90735e-05L0 34.9764H33.4219V1.90735e-05H0ZM1.55451 6.21805L1.55451 28.7584H31.8674V6.21805L1.55451 6.21805ZM1.71068 33.4088C1.70138 33.4056 1.69237 33.4018 1.68364 33.3975L1.67415 33.3925L1.66352 33.3861C1.65774 33.3825 1.65214 33.3787 1.64673 33.3745C1.63905 33.3686 1.63174 33.3623 1.62481 33.3555C1.58145 33.3132 1.55451 33.2542 1.55451 33.1887L1.55451 30.5461C1.55451 30.4173 1.65888 30.3129 1.78772 30.3129H4.43031C4.55916 30.3129 4.66352 30.4173 4.66352 30.5461V33.1887C4.66352 33.3176 4.55916 33.4219 4.43031 33.4219H1.78772C1.76068 33.4219 1.73478 33.4174 1.71068 33.4088ZM1.55451 4.43033C1.55451 4.55917 1.65888 4.66354 1.78772 4.66354H4.43031C4.55916 4.66354 4.66352 4.55917 4.66352 4.43033V1.78774C4.66352 1.77731 4.66286 1.76687 4.66153 1.75681C4.65707 1.72322 4.6455 1.6921 4.62842 1.66459C4.62026 1.65149 4.61077 1.63916 4.60024 1.62796C4.58439 1.61108 4.56608 1.59665 4.54587 1.58508C4.52452 1.57293 4.50109 1.56401 4.47623 1.55908C4.46143 1.55605 4.44606 1.55453 4.43031 1.55453H1.78772C1.65888 1.55453 1.55451 1.65889 1.55451 1.78774L1.55451 4.43033ZM7.2285 33.4219C7.09965 33.4219 6.99528 33.3176 6.99528 33.1887V30.5461C6.99528 30.4173 7.09965 30.3129 7.2285 30.3129H9.87109C9.97612 30.3129 10.0649 30.3822 10.0941 30.4778C10.1007 30.4995 10.1043 30.5224 10.1043 30.5461V33.1887C10.1043 33.3176 9.99993 33.4219 9.87109 33.4219H7.2285ZM6.99528 4.43033C6.99528 4.55917 7.09965 4.66354 7.2285 4.66354H9.87109C9.99993 4.66354 10.1043 4.55917 10.1043 4.43033V1.78774C10.1043 1.72341 10.0784 1.66534 10.0364 1.62322C9.99414 1.58072 9.9357 1.55453 9.87109 1.55453H7.2285C7.09965 1.55453 6.99528 1.65889 6.99528 1.78774V4.43033ZM12.6693 33.4219C12.5404 33.4219 12.4361 33.3176 12.4361 33.1887V30.5461C12.4361 30.4173 12.5404 30.3129 12.6693 30.3129H15.3119C15.4407 30.3129 15.5451 30.4173 15.5451 30.5461V33.1887C15.5451 33.3176 15.4407 33.4219 15.3119 33.4219H12.6693ZM12.4361 4.43033C12.4361 4.55917 12.5404 4.66354 12.6693 4.66354H15.3119C15.4407 4.66354 15.5451 4.55917 15.5451 4.43033V1.78774C15.5451 1.65889 15.4407 1.55453 15.3119 1.55453H12.6693C12.6058 1.55453 12.5483 1.57977 12.5063 1.62094C12.4629 1.66326 12.4361 1.72227 12.4361 1.78774V4.43033ZM18.1101 33.4219C18.0533 33.4219 18.0013 33.4016 17.9609 33.368C17.9096 33.3253 17.8768 33.2608 17.8768 33.1887V30.5461C17.8768 30.4173 17.9812 30.3129 18.1101 30.3129H20.7526C20.8815 30.3129 20.9859 30.4173 20.9859 30.5461V33.1887C20.9859 33.2553 20.9581 33.3153 20.9134 33.3578C20.8909 33.379 20.8641 33.3959 20.8345 33.4071C20.8091 33.4166 20.7815 33.4219 20.7526 33.4219H18.1101ZM17.8768 4.43033C17.8768 4.55917 17.9812 4.66354 18.1101 4.66354H20.7526C20.8815 4.66354 20.9859 4.55917 20.9859 4.43033V1.78774C20.9859 1.65889 20.8815 1.55453 20.7526 1.55453H18.1101C17.9812 1.55453 17.8768 1.65889 17.8768 1.78774V4.43033ZM23.3396 33.288C23.3255 33.2578 23.3176 33.2242 23.3176 33.1887V30.5461C23.3176 30.5188 23.3224 30.4926 23.331 30.4681C23.3374 30.4497 23.3463 30.4323 23.357 30.4163C23.3727 30.3928 23.3927 30.3723 23.4158 30.356C23.454 30.3289 23.5005 30.3129 23.5508 30.3129H26.1934C26.3223 30.3129 26.4266 30.4173 26.4266 30.5461V33.1887C26.4266 33.3176 26.3223 33.4219 26.1934 33.4219H23.5508C23.4875 33.4219 23.43 33.3967 23.388 33.3557C23.3681 33.3364 23.3517 33.3134 23.3396 33.288ZM23.3628 4.56828C23.3846 4.59789 23.4133 4.62218 23.4464 4.63887C23.462 4.64665 23.4787 4.65273 23.4961 4.6569C23.5136 4.66126 23.5319 4.66354 23.5508 4.66354H26.1934C26.3223 4.66354 26.4266 4.55917 26.4266 4.43033V1.78774C26.4266 1.71696 26.3951 1.65358 26.3455 1.61089C26.3047 1.57578 26.2516 1.55453 26.1934 1.55453H23.5508C23.422 1.55453 23.3176 1.65889 23.3176 1.78774V4.43033C23.3176 4.45044 23.3202 4.46999 23.3249 4.48858C23.3324 4.51762 23.3454 4.54456 23.3628 4.56828ZM28.9916 33.4219C28.8628 33.4219 28.7584 33.3176 28.7584 33.1887V30.5461C28.7584 30.4173 28.8628 30.3129 28.9916 30.3129H31.6342C31.763 30.3129 31.8674 30.4173 31.8674 30.5461V33.1887C31.8674 33.3176 31.763 33.4219 31.6342 33.4219H28.9916ZM28.7584 4.43033C28.7584 4.55917 28.8628 4.66354 28.9916 4.66354L31.6342 4.66354C31.763 4.66354 31.8674 4.55917 31.8674 4.43033V1.78774C31.8674 1.65889 31.763 1.55453 31.6342 1.55453H28.9916C28.8628 1.55453 28.7584 1.65889 28.7584 1.78774V4.43033Z" fill="#32393E"/>
</mask>
<g mask="url(#mask0)">
<path d="M0.777252 0.777222V34.9764H14.7092L20.2086 28.3142L14.7092 22.9845L20.2086 17.6547L14.7092 12.325L20.2086 7.08408L14.7092 0.777222H0.777252Z" fill="#32393E"/>
</g>
<path fill-rule="evenodd" clip-rule="evenodd" d="M1.03461 0.854187H14.8428L20.3837 7.33766L15.106 12.4694L20.3981 17.7024L15.1043 22.9369L20.3775 28.1512L14.8473 34.9867H1.03461V0.854187ZM1.57868 1.39826V34.4427H14.5876L19.6448 28.1918L14.3305 22.9369L19.6243 17.7024L14.3289 12.4662L19.6386 7.30327L14.5921 1.39826H1.57868Z" fill="#32393E"/>
<mask id="mask1" mask-type="alpha" maskUnits="userSpaceOnUse" x="0" y="0" width="34" height="35">
<path fill-rule="evenodd" clip-rule="evenodd" d="M0 1.90735e-05L0 34.9764H33.4219V1.90735e-05H0ZM1.55451 6.21805L1.55451 28.7584H31.8674V6.21805L1.55451 6.21805ZM1.71068 33.4088C1.70138 33.4056 1.69237 33.4018 1.68364 33.3975L1.67415 33.3925L1.66352 33.3861C1.65774 33.3825 1.65214 33.3787 1.64673 33.3745C1.63905 33.3686 1.63174 33.3623 1.62481 33.3555C1.58145 33.3132 1.55451 33.2542 1.55451 33.1887L1.55451 30.5461C1.55451 30.4173 1.65888 30.3129 1.78772 30.3129H4.43031C4.55916 30.3129 4.66352 30.4173 4.66352 30.5461V33.1887C4.66352 33.3176 4.55916 33.4219 4.43031 33.4219H1.78772C1.76068 33.4219 1.73478 33.4174 1.71068 33.4088ZM1.55451 4.43033C1.55451 4.55917 1.65888 4.66354 1.78772 4.66354H4.43031C4.55916 4.66354 4.66352 4.55917 4.66352 4.43033V1.78774C4.66352 1.77731 4.66286 1.76687 4.66153 1.75681C4.65707 1.72322 4.6455 1.6921 4.62842 1.66459C4.62026 1.65149 4.61077 1.63916 4.60024 1.62796C4.58439 1.61108 4.56608 1.59665 4.54587 1.58508C4.52452 1.57293 4.50109 1.56401 4.47623 1.55908C4.46143 1.55605 4.44606 1.55453 4.43031 1.55453H1.78772C1.65888 1.55453 1.55451 1.65889 1.55451 1.78774L1.55451 4.43033ZM7.2285 33.4219C7.09965 33.4219 6.99528 33.3176 6.99528 33.1887V30.5461C6.99528 30.4173 7.09965 30.3129 7.2285 30.3129H9.87109C9.97612 30.3129 10.0649 30.3822 10.0941 30.4778C10.1007 30.4995 10.1043 30.5224 10.1043 30.5461V33.1887C10.1043 33.3176 9.99993 33.4219 9.87109 33.4219H7.2285ZM6.99528 4.43033C6.99528 4.55917 7.09965 4.66354 7.2285 4.66354H9.87109C9.99993 4.66354 10.1043 4.55917 10.1043 4.43033V1.78774C10.1043 1.72341 10.0784 1.66534 10.0364 1.62322C9.99414 1.58072 9.9357 1.55453 9.87109 1.55453H7.2285C7.09965 1.55453 6.99528 1.65889 6.99528 1.78774V4.43033ZM12.6693 33.4219C12.5404 33.4219 12.4361 33.3176 12.4361 33.1887V30.5461C12.4361 30.4173 12.5404 30.3129 12.6693 30.3129H15.3119C15.4407 30.3129 15.5451 30.4173 15.5451 30.5461V33.1887C15.5451 33.3176 15.4407 33.4219 15.3119 33.4219H12.6693ZM12.4361 4.43033C12.4361 4.55917 12.5404 4.66354 12.6693 4.66354H15.3119C15.4407 4.66354 15.5451 4.55917 15.5451 4.43033V1.78774C15.5451 1.65889 15.4407 1.55453 15.3119 1.55453H12.6693C12.6058 1.55453 12.5483 1.57977 12.5063 1.62094C12.4629 1.66326 12.4361 1.72227 12.4361 1.78774V4.43033ZM18.1101 33.4219C18.0533 33.4219 18.0013 33.4016 17.9609 33.368C17.9096 33.3253 17.8768 33.2608 17.8768 33.1887V30.5461C17.8768 30.4173 17.9812 30.3129 18.1101 30.3129H20.7526C20.8815 30.3129 20.9859 30.4173 20.9859 30.5461V33.1887C20.9859 33.2553 20.9581 33.3153 20.9134 33.3578C20.8909 33.379 20.8641 33.3959 20.8345 33.4071C20.8091 33.4166 20.7815 33.4219 20.7526 33.4219H18.1101ZM17.8768 4.43033C17.8768 4.55917 17.9812 4.66354 18.1101 4.66354H20.7526C20.8815 4.66354 20.9859 4.55917 20.9859 4.43033V1.78774C20.9859 1.65889 20.8815 1.55453 20.7526 1.55453H18.1101C17.9812 1.55453 17.8768 1.65889 17.8768 1.78774V4.43033ZM23.3396 33.288C23.3255 33.2578 23.3176 33.2242 23.3176 33.1887V30.5461C23.3176 30.5188 23.3224 30.4926 23.331 30.4681C23.3374 30.4497 23.3463 30.4323 23.357 30.4163C23.3727 30.3928 23.3927 30.3723 23.4158 30.356C23.454 30.3289 23.5005 30.3129 23.5508 30.3129H26.1934C26.3223 30.3129 26.4266 30.4173 26.4266 30.5461V33.1887C26.4266 33.3176 26.3223 33.4219 26.1934 33.4219H23.5508C23.4875 33.4219 23.43 33.3967 23.388 33.3557C23.3681 33.3364 23.3517 33.3134 23.3396 33.288ZM23.3628 4.56828C23.3846 4.59789 23.4133 4.62218 23.4464 4.63887C23.462 4.64665 23.4787 4.65273 23.4961 4.6569C23.5136 4.66126 23.5319 4.66354 23.5508 4.66354H26.1934C26.3223 4.66354 26.4266 4.55917 26.4266 4.43033V1.78774C26.4266 1.71696 26.3951 1.65358 26.3455 1.61089C26.3047 1.57578 26.2516 1.55453 26.1934 1.55453H23.5508C23.422 1.55453 23.3176 1.65889 23.3176 1.78774V4.43033C23.3176 4.45044 23.3202 4.46999 23.3249 4.48858C23.3324 4.51762 23.3454 4.54456 23.3628 4.56828ZM28.9916 33.4219C28.8628 33.4219 28.7584 33.3176 28.7584 33.1887V30.5461C28.7584 30.4173 28.8628 30.3129 28.9916 30.3129H31.6342C31.763 30.3129 31.8674 30.4173 31.8674 30.5461V33.1887C31.8674 33.3176 31.763 33.4219 31.6342 33.4219H28.9916ZM28.7584 4.43033C28.7584 4.55917 28.8628 4.66354 28.9916 4.66354L31.6342 4.66354C31.763 4.66354 31.8674 4.55917 31.8674 4.43033V1.78774C31.8674 1.65889 31.763 1.55453 31.6342 1.55453H28.9916C28.8628 1.55453 28.7584 1.65889 28.7584 1.78774V4.43033Z" fill="#FC4B15"/>
</mask>
<g mask="url(#mask1)">
<path d="M32.6447 0.777222V34.9764H27.9116H20.2086L25.313 28.6765L20.2086 23.2767L25.313 17.8768L20.2086 12.4769L25.313 7.16707L20.2086 0.777222H32.6447Z" fill="#FC4B15"/>
</g>
<path fill-rule="evenodd" clip-rule="evenodd" d="M20.2135 0.777222H32.6447V34.9764H20.2086L25.1777 28.516L20.3979 23.1895L25.1653 17.8768L20.3965 12.5625L25.1776 7.32336L20.2135 0.777222ZM21.3112 1.32942L25.8819 7.35663L21.1282 12.5657L25.8942 17.8768L21.1268 23.1895L25.8817 28.4883L21.3161 34.4242H32.1102V1.32942H21.3112Z" fill="#FC4B15"/>
</svg>
