<svg width="43" height="26" viewBox="0 0 43 26" fill="none" xmlns="http://www.w3.org/2000/svg">
<g clip-path="url(#clip0)">
<path d="M38.6999 24.246C42.1999 17.9524 42.1999 10.1111 38.6999 3.81747C38.4999 3.40478 38.5999 2.8889 38.9999 2.57938C39.3999 2.37303 39.8999 2.4762 40.1999 2.8889C43.9999 9.69843 43.9999 18.2619 40.1999 25.0714C39.9999 25.4841 39.3999 25.5873 38.9999 25.381C38.5999 25.1746 38.3999 24.6587 38.6999 24.246Z" fill="#FC4B15"/>
<path d="M36.6 5.57142C39.5 11.0397 39.2 17.4365 36.6 22.2857C36.4 22.6984 35.8 22.9047 35.4 22.5952C35 22.3889 34.8 21.873 35.1 21.3571C37.6 16.6111 37.6 11.0397 35.1 6.29364C34.9 5.88094 35 5.36507 35.4 5.05554C35.8 4.74602 36.3 5.15872 36.6 5.57142Z" fill="#FC4B15"/>
<path d="M6.49982 22.3889C3.89982 17.4365 3.59982 11.1429 6.49982 5.6746C6.69982 5.15873 7.19982 5.05555 7.59982 5.2619C7.99982 5.46825 8.19982 5.98412 7.89982 6.39682C5.39982 11.1429 5.39982 16.7143 7.89982 21.4603C8.19982 21.9762 7.99982 22.4921 7.59982 22.6984C7.19982 22.9048 6.69982 22.8016 6.49982 22.3889Z" fill="#FC4B15"/>
<path d="M4.29905 24.246C4.49905 24.6587 4.39905 25.1746 3.99905 25.4841C3.59905 25.6905 3.09905 25.5873 2.79905 25.1746C-1.00095 18.2619 -1.00095 9.69843 2.89905 2.8889C3.09905 2.4762 3.59905 2.37303 3.99905 2.57938C4.39905 2.78573 4.49905 3.3016 4.29905 3.81747C0.799048 10.1111 0.799048 17.9524 4.29905 24.246Z" fill="#FC4B15"/>
<path d="M21.4998 26C19.5998 26 17.8998 25.0714 16.5998 23.4206C16.0998 22.6984 15.5998 21.9762 15.1998 21.1508C14.9998 20.7381 14.7998 20.4286 14.5998 20.0159C14.1998 19.3968 13.8998 18.6746 13.4998 18.0556C12.5998 16.4048 11.5998 14.754 10.6998 13.1032C10.4998 12.6905 10.4998 12.2778 10.6998 11.8651C10.8998 11.4524 11.2998 11.1429 11.7998 11.1429C11.8998 11.1429 11.8998 11.1429 11.9998 11.1429C12.0998 11.1429 12.0998 11.1429 12.1998 11.1429C13.4998 11.3492 14.0998 12.2778 14.7998 13.4127C14.8998 13.619 14.9998 13.8254 15.1998 14.0317C15.3998 14.3413 16.0998 15.373 16.4998 15.373C16.9998 15.373 17.3998 14.0317 17.3998 13.619C17.7998 11.1429 18.0998 8.56349 18.4998 6.0873L18.8998 3.19841C19.0998 1.75397 19.4998 1.13492 20.1998 1.13492C20.2998 1.13492 20.3998 1.13492 20.4998 1.13492C21.5998 1.34127 21.6998 2.16667 21.5998 3.40476C21.3998 5.2619 21.2998 7.11905 21.0998 8.97619V9.07937C21.0998 9.38889 20.9998 9.69841 21.1998 9.90476C21.2998 10.0079 21.3998 10.0079 21.4998 10.0079C21.9998 10.0079 22.2998 9.28571 22.5998 8.15079C22.7998 7.22222 22.9998 6.39683 23.1998 5.46825C23.3998 4.12698 23.6998 2.88889 23.9998 1.65079C24.2998 0.515873 24.6998 0 25.2998 0C25.3998 0 25.5998 0 25.6998 0.103175C26.5998 0.309524 26.8998 1.03175 26.5998 2.26984C26.0998 4.64286 25.4998 7.01587 24.9998 9.38889C24.9998 9.49206 24.9998 9.49206 24.9998 9.59524C24.8998 9.90476 24.7998 10.3175 25.1998 10.5238C25.2998 10.627 25.3998 10.627 25.4998 10.627C25.9998 10.627 26.1998 10.0079 26.2998 9.59524C26.2998 9.49206 26.3998 9.49206 26.3998 9.38889C26.6998 8.56349 27.0998 7.63492 27.3998 6.80952C27.6998 5.98413 28.0998 5.05556 28.3998 4.23016C28.6998 3.50794 28.9998 2.88889 29.6998 2.88889C29.8998 2.88889 30.0998 2.88889 30.2998 2.99206C31.0998 3.30159 31.2998 4.02381 30.8998 5.2619C30.5998 6.19048 30.1998 7.22222 29.7998 8.25397L27.9998 12.6905C27.8998 13.1032 27.8998 13.2063 27.9998 13.4127L28.0998 13.5159H28.2998C28.4998 13.5159 28.5998 13.4127 28.8998 13.2063L29.3998 12.381C29.9998 11.3492 30.5998 10.2143 31.1998 9.18254C31.5998 8.56349 31.8998 8.04762 32.3998 8.04762C32.5998 8.04762 32.7998 8.15079 32.9998 8.25397C33.7998 8.66667 33.7998 9.28572 33.2998 10.4206C33.0998 10.8333 32.7998 11.3492 32.5998 11.7619C31.7998 13.2063 31.0998 14.754 30.2998 16.1984C29.1998 18.2619 28.1998 20.2222 27.0998 22.2857C25.7998 24.6587 23.6998 26 21.4998 26Z" fill="#32393E"/>
</g>
<defs>
<clipPath id="clip0">
<rect width="43" height="26" fill="white"/>
</clipPath>
</defs>
</svg>
