<svg width="33" height="44" viewBox="0 0 33 44" fill="none" xmlns="http://www.w3.org/2000/svg">
<g clip-path="url(#clip0)">
<path d="M31.2014 12.2549H2.47493V33.2771H31.2014V12.2549ZM5.72543 10.8371C5.74844 10.8394 5.77168 10.8368 5.79365 10.8297C5.81561 10.8225 5.8358 10.8109 5.85292 10.7955C5.87003 10.7801 5.88369 10.7614 5.89299 10.7405C5.90229 10.7196 5.90704 10.697 5.90693 10.6741V7.95263C5.90693 7.90509 5.8878 7.85949 5.85377 7.82587C5.81973 7.79226 5.77356 7.77337 5.72543 7.77337H2.98643C2.93829 7.77337 2.89212 7.79226 2.85809 7.82587C2.82405 7.85949 2.80493 7.90509 2.80493 7.95263V10.6741C2.80481 10.697 2.80956 10.7196 2.81886 10.7405C2.82817 10.7614 2.84182 10.7801 2.85893 10.7955C2.87605 10.8109 2.89624 10.8225 2.91821 10.8297C2.94017 10.8368 2.96341 10.8394 2.98643 10.8371H5.72543ZM10.6754 10.8371C10.6984 10.8394 10.7217 10.8368 10.7436 10.8297C10.7656 10.8225 10.7858 10.8109 10.8029 10.7955C10.82 10.7801 10.8337 10.7614 10.843 10.7405C10.8523 10.7196 10.857 10.697 10.8569 10.6741V7.95263C10.8569 7.90509 10.8378 7.85949 10.8038 7.82587C10.7697 7.79226 10.7236 7.77337 10.6754 7.77337H7.95293C7.90479 7.77337 7.85862 7.79226 7.82459 7.82587C7.79055 7.85949 7.77143 7.90509 7.77143 7.95263V10.6741C7.77131 10.697 7.77606 10.7196 7.78536 10.7405C7.79467 10.7614 7.80832 10.7801 7.82543 10.7955C7.84255 10.8109 7.86274 10.8225 7.88471 10.8297C7.90667 10.8368 7.92991 10.8394 7.95293 10.8371H10.6754ZM15.6254 10.8371C15.6692 10.8371 15.7112 10.8199 15.7421 10.7893C15.773 10.7588 15.7904 10.7173 15.7904 10.6741V7.95263C15.7906 7.90778 15.7738 7.86449 15.7432 7.8313C15.7127 7.79812 15.6706 7.77745 15.6254 7.77337H12.9194C12.8742 7.77745 12.8322 7.79812 12.8016 7.8313C12.7711 7.86449 12.7542 7.90778 12.7544 7.95263V10.6741C12.7544 10.7173 12.7718 10.7588 12.8028 10.7893C12.8337 10.8199 12.8757 10.8371 12.9194 10.8371H15.6254ZM20.5754 10.8371C20.6192 10.8371 20.6612 10.8199 20.6921 10.7893C20.723 10.7588 20.7404 10.7173 20.7404 10.6741V7.95263C20.7406 7.90778 20.7238 7.86449 20.6932 7.8313C20.6627 7.79812 20.6206 7.77745 20.5754 7.77337H17.8859C17.8378 7.77337 17.7916 7.79226 17.7576 7.82587C17.7235 7.85949 17.7044 7.90509 17.7044 7.95263V10.6741C17.7043 10.697 17.7091 10.7196 17.7184 10.7405C17.7277 10.7614 17.7413 10.7801 17.7584 10.7955C17.7755 10.8109 17.7957 10.8225 17.8177 10.8297C17.8397 10.8368 17.8629 10.8394 17.8859 10.8371H20.5754ZM25.5254 10.8371C25.5484 10.8394 25.5717 10.8368 25.5936 10.8297C25.6156 10.8225 25.6358 10.8109 25.6529 10.7955C25.67 10.7801 25.6837 10.7614 25.693 10.7405C25.7023 10.7196 25.707 10.697 25.7069 10.6741V7.95263C25.7069 7.90509 25.6878 7.85949 25.6538 7.82587C25.6197 7.79226 25.5736 7.77337 25.5254 7.77337H22.8524C22.8043 7.77337 22.7581 7.79226 22.7241 7.82587C22.69 7.85949 22.6709 7.90509 22.6709 7.95263V10.6741C22.6708 10.697 22.6756 10.7196 22.6849 10.7405C22.6942 10.7614 22.7078 10.7801 22.7249 10.7955C22.742 10.8109 22.7622 10.8225 22.7842 10.8297C22.8062 10.8368 22.8294 10.8394 22.8524 10.8371H25.5254ZM30.6734 10.6741V7.95263C30.6734 7.90509 30.6543 7.85949 30.6203 7.82587C30.5862 7.79226 30.5401 7.77337 30.4919 7.77337H27.8189C27.7737 7.77745 27.7317 7.79812 27.7011 7.8313C27.6706 7.86449 27.6537 7.90778 27.6539 7.95263V10.6741C27.6539 10.6955 27.6582 10.7167 27.6665 10.7365C27.6748 10.7562 27.6869 10.7742 27.7023 10.7893C27.7176 10.8045 27.7358 10.8165 27.7558 10.8247C27.7758 10.8329 27.7973 10.8371 27.8189 10.8371H30.5579C30.5809 10.8394 30.6042 10.8368 30.6261 10.8297C30.6481 10.8225 30.6683 10.8109 30.6854 10.7955C30.7025 10.7801 30.7162 10.7614 30.7255 10.7405C30.7348 10.7196 30.7395 10.697 30.7394 10.6741H30.6734ZM1.23743 39.1112V6.51855H32.4389V39.1112H1.23743ZM30.5579 34.5482H27.8189C27.7958 34.5481 27.7729 34.5528 27.7517 34.562C27.7305 34.5711 27.7116 34.5846 27.696 34.6015C27.6805 34.6184 27.6687 34.6384 27.6614 34.6601C27.6542 34.6818 27.6516 34.7047 27.6539 34.7274V37.4815C27.6516 37.5043 27.6542 37.5272 27.6614 37.5489C27.6687 37.5706 27.6805 37.5905 27.696 37.6074C27.7116 37.6243 27.7305 37.6378 27.7517 37.647C27.7729 37.6562 27.7958 37.6609 27.8189 37.6608H30.5579C30.6061 37.6608 30.6522 37.6419 30.6863 37.6083C30.7203 37.5747 30.7394 37.5291 30.7394 37.4815V34.7274C30.7394 34.6799 30.7203 34.6343 30.6863 34.6007C30.6522 34.5671 30.6061 34.5482 30.5579 34.5482ZM25.6079 34.5482H22.8524C22.8043 34.5482 22.7581 34.5671 22.7241 34.6007C22.69 34.6343 22.6709 34.6799 22.6709 34.7274V37.4815C22.6709 37.5291 22.69 37.5747 22.7241 37.6083C22.7581 37.6419 22.8043 37.6608 22.8524 37.6608H25.5914C25.6396 37.6608 25.6857 37.6419 25.7198 37.6083C25.7538 37.5747 25.7729 37.5291 25.7729 37.4815V34.7274C25.7729 34.6799 25.7538 34.6343 25.7198 34.6007C25.6857 34.5671 25.6396 34.5482 25.5914 34.5482H25.6079ZM20.6579 34.5482H17.8859C17.8378 34.5482 17.7916 34.5671 17.7576 34.6007C17.7235 34.6343 17.7044 34.6799 17.7044 34.7274V37.4815C17.7044 37.5291 17.7235 37.5747 17.7576 37.6083C17.7916 37.6419 17.8378 37.6608 17.8859 37.6608H20.6249C20.6481 37.6609 20.6709 37.6562 20.6921 37.647C20.7133 37.6378 20.7323 37.6243 20.7478 37.6074C20.7634 37.5905 20.7752 37.5706 20.7824 37.5489C20.7897 37.5272 20.7922 37.5043 20.7899 37.4815V34.7274C20.7922 34.7047 20.7897 34.6818 20.7824 34.6601C20.7752 34.6384 20.7634 34.6184 20.7478 34.6015C20.7323 34.5846 20.7133 34.5711 20.6921 34.562C20.6709 34.5528 20.6481 34.5481 20.6249 34.5482H20.6579ZM15.7079 34.5482H12.9194C12.8963 34.5481 12.8734 34.5528 12.8522 34.562C12.831 34.5711 12.8121 34.5846 12.7965 34.6015C12.7809 34.6184 12.7692 34.6384 12.7619 34.6601C12.7547 34.6818 12.7521 34.7047 12.7544 34.7274V37.4815C12.7521 37.5043 12.7547 37.5272 12.7619 37.5489C12.7692 37.5706 12.7809 37.5905 12.7965 37.6074C12.8121 37.6243 12.831 37.6378 12.8522 37.647C12.8734 37.6562 12.8963 37.6609 12.9194 37.6608H15.6584C15.6816 37.6609 15.7044 37.6562 15.7256 37.647C15.7468 37.6378 15.7658 37.6243 15.7813 37.6074C15.7969 37.5905 15.8087 37.5706 15.8159 37.5489C15.8232 37.5272 15.8257 37.5043 15.8234 37.4815V34.7274C15.8257 34.7047 15.8232 34.6818 15.8159 34.6601C15.8087 34.6384 15.7969 34.6184 15.7813 34.6015C15.7658 34.5846 15.7468 34.5711 15.7256 34.562C15.7044 34.5528 15.6816 34.5481 15.6584 34.5482H15.7079ZM10.7579 34.5482H7.95293C7.90479 34.5482 7.85862 34.5671 7.82459 34.6007C7.79055 34.6343 7.77143 34.6799 7.77143 34.7274V37.4815C7.77143 37.5291 7.79055 37.5747 7.82459 37.6083C7.85862 37.6419 7.90479 37.6608 7.95293 37.6608H10.6919C10.7401 37.6608 10.7862 37.6419 10.8203 37.6083C10.8543 37.5747 10.8734 37.5291 10.8734 37.4815V34.7274C10.8734 34.6799 10.8543 34.6343 10.8203 34.6007C10.7862 34.5671 10.7401 34.5482 10.6919 34.5482H10.7579ZM3.05243 34.5482C3.00429 34.5482 2.95812 34.5671 2.92409 34.6007C2.89005 34.6343 2.87093 34.6799 2.87093 34.7274V37.4815C2.87093 37.5291 2.89005 37.5747 2.92409 37.6083C2.95812 37.6419 3.00429 37.6608 3.05243 37.6608H5.72543C5.77356 37.6608 5.81973 37.6419 5.85377 37.6083C5.8878 37.5747 5.90693 37.5291 5.90693 37.4815V34.7274C5.90693 34.6799 5.8878 34.6343 5.85377 34.6007C5.81973 34.5671 5.77356 34.5482 5.72543 34.5482H3.05243Z" fill="#32393E"/>
<path d="M5.56066 10.4949V8.14819H3.15166V10.4949H5.56066ZM5.72566 10.8371H2.98666C2.96365 10.8394 2.94041 10.8368 2.91844 10.8297C2.89648 10.8225 2.87628 10.8109 2.85917 10.7955C2.84205 10.7802 2.8284 10.7614 2.8191 10.7405C2.80979 10.7196 2.80505 10.697 2.80516 10.6741V7.95264C2.80516 7.90509 2.82428 7.8595 2.85832 7.82588C2.89236 7.79226 2.93853 7.77338 2.98666 7.77338H5.72566C5.7738 7.77338 5.81996 7.79226 5.854 7.82588C5.88804 7.8595 5.90716 7.90509 5.90716 7.95264V10.6741C5.90728 10.697 5.90253 10.7196 5.89323 10.7405C5.88392 10.7614 5.87027 10.7802 5.85316 10.7955C5.83604 10.8109 5.81585 10.8225 5.79388 10.8297C5.77192 10.8368 5.74868 10.8394 5.72566 10.8371Z" fill="#32393E"/>
<path d="M10.5104 10.4949V8.14819H8.11794V10.4949H10.5104ZM10.6919 10.8371H7.95294C7.92993 10.8394 7.90668 10.8368 7.88472 10.8297C7.86276 10.8225 7.84256 10.8109 7.82545 10.7955C7.80833 10.7802 7.79468 10.7614 7.78538 10.7405C7.77607 10.7196 7.77132 10.697 7.77144 10.6741V7.95264C7.77144 7.90509 7.79056 7.8595 7.8246 7.82588C7.85864 7.79226 7.9048 7.77338 7.95294 7.77338H10.6919C10.7401 7.77338 10.7862 7.79226 10.8203 7.82588C10.8543 7.8595 10.8734 7.90509 10.8734 7.95264V10.6741C10.8736 10.697 10.8688 10.7196 10.8595 10.7405C10.8502 10.7614 10.8365 10.7802 10.8194 10.7955C10.8023 10.8109 10.7821 10.8225 10.7602 10.8297C10.7382 10.8368 10.715 10.8394 10.6919 10.8371Z" fill="#32393E"/>
<path d="M15.4769 10.4949V8.14819H13.1009V10.4949H15.4769ZM15.6584 10.8371H12.9194C12.8757 10.8371 12.8337 10.8199 12.8027 10.7894C12.7718 10.7588 12.7544 10.7173 12.7544 10.6741V7.95264C12.7542 7.90779 12.7711 7.8645 12.8016 7.83131C12.8322 7.79812 12.8742 7.77745 12.9194 7.77338H15.6584C15.7036 7.77745 15.7457 7.79812 15.7762 7.83131C15.8068 7.8645 15.8236 7.90779 15.8234 7.95264V10.6741C15.8234 10.7173 15.806 10.7588 15.7751 10.7894C15.7441 10.8199 15.7022 10.8371 15.6584 10.8371Z" fill="#32393E"/>
<path d="M20.4599 10.4949V8.14819H18.0674V10.4949H20.4599ZM20.6414 10.8371H17.8859C17.8629 10.8394 17.8397 10.8368 17.8177 10.8297C17.7958 10.8225 17.7756 10.8109 17.7584 10.7955C17.7413 10.7802 17.7277 10.7614 17.7184 10.7405C17.7091 10.7196 17.7043 10.697 17.7044 10.6741V7.95264C17.7044 7.90509 17.7236 7.8595 17.7576 7.82588C17.7916 7.79226 17.8378 7.77338 17.8859 7.77338H20.6249C20.6702 7.77745 20.7122 7.79812 20.7427 7.83131C20.7733 7.8645 20.7901 7.90779 20.7899 7.95264V10.6741C20.7899 10.7173 20.7726 10.7588 20.7416 10.7894C20.7107 10.8199 20.6687 10.8371 20.6249 10.8371H20.6414Z" fill="#32393E"/>
<path d="M23.1001 8.14819V10.4949H25.5091V8.14819H23.1001ZM25.6741 10.8534H22.8526C22.8296 10.8557 22.8064 10.8531 22.7844 10.846C22.7625 10.8388 22.7423 10.8272 22.7252 10.8118C22.708 10.7964 22.6944 10.7777 22.6851 10.7568C22.6758 10.7359 22.671 10.7133 22.6711 10.6904V7.95264C22.6711 7.90509 22.6903 7.8595 22.7243 7.82588C22.7583 7.79226 22.8045 7.77338 22.8526 7.77338H25.5916C25.6398 7.77338 25.6859 7.79226 25.72 7.82588C25.754 7.8595 25.7731 7.90509 25.7731 7.95264V10.6741C25.7733 10.697 25.7685 10.7196 25.7592 10.7405C25.7499 10.7614 25.7362 10.7802 25.7191 10.7955C25.702 10.8109 25.6818 10.8225 25.6599 10.8297C25.6379 10.8368 25.6147 10.8394 25.5916 10.8371L25.6741 10.8534Z" fill="#32393E"/>
<path d="M30.3762 8.14819H28.0497V10.4949H30.4422L30.3762 8.14819ZM30.7392 7.96893V10.6741C30.7393 10.697 30.7346 10.7196 30.7253 10.7405C30.716 10.7614 30.7023 10.7802 30.6852 10.7955C30.6681 10.8109 30.6479 10.8225 30.6259 10.8297C30.604 10.8368 30.5807 10.8394 30.5577 10.8371H27.8187C27.797 10.8371 27.7756 10.8329 27.7555 10.8247C27.7355 10.8165 27.7173 10.8045 27.702 10.7894C27.6867 10.7742 27.6745 10.7563 27.6662 10.7365C27.658 10.7167 27.6537 10.6955 27.6537 10.6741V7.95264C27.6535 7.90779 27.6703 7.8645 27.7009 7.83131C27.7314 7.79812 27.7735 7.77745 27.8187 7.77338H30.5577C30.6058 7.77338 30.652 7.79226 30.686 7.82588C30.7201 7.8595 30.7392 7.90509 30.7392 7.95264V7.96893Z" fill="#32393E"/>
<path d="M5.56066 34.8904H3.15166V37.2696H5.56066V34.8904ZM2.98666 34.5482H5.72566C5.7738 34.5482 5.81996 34.567 5.854 34.6007C5.88804 34.6343 5.90716 34.6799 5.90716 34.7274V37.4815C5.90716 37.529 5.88804 37.5746 5.854 37.6082C5.81996 37.6419 5.7738 37.6607 5.72566 37.6607H2.98666C2.93852 37.6607 2.89236 37.6419 2.85832 37.6082C2.82428 37.5746 2.80516 37.529 2.80516 37.4815V34.7274C2.80516 34.6799 2.82428 34.6343 2.85832 34.6007C2.89236 34.567 2.93852 34.5482 2.98666 34.5482Z" fill="#32393E"/>
<path d="M10.5106 34.8904H8.11815V37.2696H10.5106V34.8904ZM7.95315 34.5482H10.6921C10.7403 34.5482 10.7864 34.567 10.8205 34.6007C10.8545 34.6343 10.8736 34.6799 10.8736 34.7274V37.4815C10.8736 37.529 10.8545 37.5746 10.8205 37.6082C10.7864 37.6419 10.7403 37.6607 10.6921 37.6607H7.95315C7.90793 37.6567 7.86589 37.636 7.83535 37.6028C7.8048 37.5696 7.78796 37.5263 7.78815 37.4815V34.7274C7.78796 34.6826 7.8048 34.6393 7.83535 34.6061C7.86589 34.5729 7.90793 34.5522 7.95315 34.5482Z" fill="#32393E"/>
<path d="M15.477 34.8904H13.101V37.2696H15.477V34.8904ZM12.9195 34.5482H15.6585C15.6816 34.548 15.7045 34.5527 15.7257 34.5619C15.7468 34.5711 15.7658 34.5846 15.7814 34.6015C15.7969 34.6184 15.8087 34.6383 15.816 34.66C15.8232 34.6817 15.8258 34.7047 15.8235 34.7274V37.4815C15.8258 37.5042 15.8232 37.5272 15.816 37.5489C15.8087 37.5706 15.7969 37.5905 15.7814 37.6074C15.7658 37.6243 15.7468 37.6378 15.7257 37.647C15.7045 37.6562 15.6816 37.6609 15.6585 37.6608H12.9195C12.8963 37.6609 12.8734 37.6562 12.8523 37.647C12.8311 37.6378 12.8121 37.6243 12.7965 37.6074C12.781 37.5905 12.7692 37.5706 12.7619 37.5489C12.7547 37.5272 12.7521 37.5042 12.7545 37.4815V34.7274C12.7521 34.7047 12.7547 34.6817 12.7619 34.66C12.7692 34.6383 12.781 34.6184 12.7965 34.6015C12.8121 34.5846 12.8311 34.5711 12.8523 34.5619C12.8734 34.5527 12.8963 34.548 12.9195 34.5482Z" fill="#32393E"/>
<path d="M20.4599 34.8904H18.0674V37.2696H20.4599V34.8904ZM17.8859 34.5482H20.6249C20.6481 34.548 20.671 34.5527 20.6921 34.5619C20.7133 34.5711 20.7323 34.5846 20.7479 34.6015C20.7634 34.6184 20.7752 34.6383 20.7824 34.66C20.7897 34.6817 20.7923 34.7047 20.7899 34.7274V37.4815C20.7923 37.5042 20.7897 37.5272 20.7824 37.5489C20.7752 37.5706 20.7634 37.5905 20.7479 37.6074C20.7323 37.6243 20.7133 37.6378 20.6921 37.647C20.671 37.6562 20.6481 37.6609 20.6249 37.6608H17.8859C17.8378 37.6608 17.7916 37.6419 17.7576 37.6082C17.7236 37.5746 17.7044 37.529 17.7044 37.4815V34.7274C17.7044 34.6799 17.7236 34.6343 17.7576 34.6007C17.7916 34.567 17.8378 34.5482 17.8859 34.5482Z" fill="#32393E"/>
<path d="M25.4266 34.8904H23.1001V37.2696H25.5091L25.4266 34.8904ZM22.8526 34.5482H25.5916C25.6398 34.5482 25.6859 34.567 25.72 34.6007C25.754 34.6343 25.7731 34.6799 25.7731 34.7274V37.4815C25.7731 37.529 25.754 37.5746 25.72 37.6082C25.6859 37.6419 25.6398 37.6607 25.5916 37.6607H22.8526C22.8045 37.6607 22.7583 37.6419 22.7243 37.6082C22.6903 37.5746 22.6711 37.529 22.6711 37.4815V34.7274C22.6711 34.6799 22.6903 34.6343 22.7243 34.6007C22.7583 34.567 22.8045 34.5482 22.8526 34.5482Z" fill="#32393E"/>
<path d="M30.3761 34.8904H28.0496V37.2696H30.4421L30.3761 34.8904ZM27.8021 34.5482H30.5411C30.5893 34.5482 30.6354 34.567 30.6695 34.6007C30.7035 34.6343 30.7226 34.6799 30.7226 34.7274V37.4815C30.7226 37.529 30.7035 37.5746 30.6695 37.6082C30.6354 37.6419 30.5893 37.6608 30.5411 37.6608H27.8186C27.7955 37.6609 27.7726 37.6562 27.7514 37.647C27.7303 37.6378 27.7113 37.6243 27.6957 37.6074C27.6802 37.5905 27.6684 37.5706 27.6611 37.5489C27.6539 37.5272 27.6513 37.5042 27.6536 37.4815V34.7274C27.6513 34.7047 27.6539 34.6817 27.6611 34.66C27.6684 34.6383 27.6802 34.6184 27.6957 34.6015C27.7113 34.5846 27.7303 34.5711 27.7514 34.5619C27.7726 34.5527 27.7955 34.548 27.8186 34.5482H27.8021Z" fill="#32393E"/>
<path d="M19.3052 1.62964H14.3552V44H19.3052V1.62964Z" fill="white" stroke="#FC4B15" stroke-width="2" stroke-miterlimit="10"/>
</g>
<defs>
<clipPath id="clip0">
<rect width="33" height="44" fill="white"/>
</clipPath>
</defs>
</svg>
