<svg xmlns="http://www.w3.org/2000/svg" width="85" height="85.002" viewBox="0 0 85 85.002"><defs><style>.a{fill:#4189d1;}.b{fill:#5096dc;}</style></defs><g transform="translate(0 0.002)"><path class="a" d="M44.119,17.5a2.38,2.38,0,0,0,3.181-.4A35.71,35.71,0,0,1,75.152,4.233,35.71,35.71,0,0,1,103.005,17.1a2.327,2.327,0,0,0,1.806.832,2.369,2.369,0,0,0,1.375-.434,2.024,2.024,0,0,0,.427-2.966A40.336,40.336,0,0,0,75.152,0a40.335,40.335,0,0,0-31.46,14.533A2.023,2.023,0,0,0,44.119,17.5Z" transform="translate(-32.653)"/><path class="a" d="M228.037,85.026a6.609,6.609,0,1,0,6.609-6.609,6.617,6.617,0,0,0-6.609,6.609Z" transform="translate(-160.891 -55.925)"/><path class="a" d="M229.659,131.381l-1.681-.516a1.978,1.978,0,0,0-1.763.307l-3.321,2.486-3.321-2.486a1.977,1.977,0,0,0-1.763-.307l-1.681.516a6.544,6.544,0,0,0-4.48,6.215v9.992a1.97,1.97,0,0,0,.325,1.084l3.351,5.1v13.392a1.975,1.975,0,0,0,1.975,1.975h11.187a1.975,1.975,0,0,0,1.975-1.975V153.773l3.351-5.1a1.974,1.974,0,0,0,.325-1.084V137.6A6.544,6.544,0,0,0,229.659,131.381Z" transform="translate(-149.139 -92.791)"/><path class="a" d="M28.834,91.636a6.609,6.609,0,1,0-6.61-6.609A6.617,6.617,0,0,0,28.834,91.636Z" transform="translate(-17.59 -55.925)"/><path class="a" d="M23.847,131.381l-1.681-.516a1.978,1.978,0,0,0-1.763.307l-3.321,2.486-3.321-2.486A1.976,1.976,0,0,0,12,130.865l-1.681.516a6.544,6.544,0,0,0-4.48,6.215v9.992a1.97,1.97,0,0,0,.325,1.084l3.351,5.1v13.392a1.975,1.975,0,0,0,1.975,1.975H22.676a1.975,1.975,0,0,0,1.975-1.975V153.773l3.351-5.1a1.974,1.974,0,0,0,.325-1.084V137.6A6.544,6.544,0,0,0,23.847,131.381Z" transform="translate(-5.839 -92.791)"/><path class="a" d="M135.408,47.234a8.525,8.525,0,1,0-8.525,8.525A8.535,8.535,0,0,0,135.408,47.234Z" transform="translate(-84.383 -27.761)"/><path class="a" d="M121.017,111.611l-.014,0-2.433-.747a.756.756,0,0,0-.932.464l-5.116,14.038a.924.924,0,0,1-1.736,0l-5.116-14.038a.756.756,0,0,0-.709-.5c-.073,0-2.653.779-2.653.779a7.553,7.553,0,0,0-5.185,7.175v14.85a.757.757,0,0,0,.124.415l5.339,8.124v20.556a.756.756,0,0,0,.756.756h16.625a.756.756,0,0,0,.756-.756V142.17l5.339-8.124a.757.757,0,0,0,.124-.415V118.742A7.5,7.5,0,0,0,121.017,111.611Z" transform="translate(-69.153 -78.481)"/><path class="a" d="M144.7,111.678a1.126,1.126,0,0,0-.833-.346h-2.332a1.127,1.127,0,0,0-.833.346,1.082,1.082,0,0,0-.143,1.274l1.246,1.879-.583,4.923,1.149,3.057a.351.351,0,0,0,.659,0l1.149-3.057-.583-4.923,1.246-1.879a1.081,1.081,0,0,0-.142-1.274Z" transform="translate(-100.202 -79.409)"/></g><path class="b" d="M54.9,76.35a1.972,1.972,0,0,1-1.975-1.971v-13.4l-3.351-5.1A1.989,1.989,0,0,1,49.25,54.8V44.807A6.537,6.537,0,0,1,53.729,38.6c.015-.01,1.68-.518,1.68-.518a1.979,1.979,0,0,1,1.766.3l3.322,2.49,3.317-2.49a1.979,1.979,0,0,1,1.766-.3s1.665.508,1.68.518a6.537,6.537,0,0,1,4.479,6.211V54.8a1.957,1.957,0,0,1-.324,1.084l-3.351,5.1v13.4a1.972,1.972,0,0,1-1.975,1.971ZM16.1,35.92a7.58,7.58,0,0,1,3.787-2.8s2.58-.775,2.651-.775a.751.751,0,0,1,.709.494l5.121,14.039a.921.921,0,0,0,1.731,0l5.116-14.039a.757.757,0,0,1,.933-.461l2.437.746.01.006a7.5,7.5,0,0,1,5.168,7.129V55.152a.748.748,0,0,1-.123.414L38.3,63.689v5.145ZM28.91,43.4l-1.151-3.055.585-4.922L27.1,33.547a1.079,1.079,0,0,1,.143-1.275,1.127,1.127,0,0,1,.833-.348H30.4a1.135,1.135,0,0,1,.833.348,1.08,1.08,0,0,1,.143,1.275l-1.246,1.879.58,4.922L29.567,43.4a.34.34,0,0,1-.329.232A.335.335,0,0,1,28.91,43.4ZM53.886,29.1a6.61,6.61,0,1,1,6.61,6.611A6.616,6.616,0,0,1,53.886,29.1Zm-33.17-9.627A8.523,8.523,0,1,1,29.238,28,8.533,8.533,0,0,1,20.716,19.475ZM57.089,17.1A35.7,35.7,0,0,0,29.238,4.236,35.831,35.831,0,0,0,2.522,15.783L0,12.045A40.572,40.572,0,0,1,29.238,0,40.335,40.335,0,0,1,60.7,14.535a2.03,2.03,0,0,1-.428,2.969,2.373,2.373,0,0,1-1.375.434A2.341,2.341,0,0,1,57.089,17.1Z" transform="translate(13.262)"/></svg>