<svg id="customer-support" xmlns="http://www.w3.org/2000/svg" width="85.002" height="85" viewBox="0 0 85.002 85">
  <g id="communication">
    <g id="Group_2956" data-name="Group 2956" transform="translate(7.383 47.615)">
      <g id="Group_2955" data-name="Group 2955">
        <path id="Path_15042" data-name="Path 15042" d="M52.383,287a7.495,7.495,0,1,0,7.383,7.494A7.447,7.447,0,0,0,52.383,287Z" transform="translate(-45 -287)" fill="#418ad1"/>
      </g>
    </g>
    <g id="Group_2958" data-name="Group 2958" transform="translate(0 62.518)">
      <g id="Group_2957" data-name="Group 2957">
        <path id="Path_15043" data-name="Path 15043" d="M19.688,377H9.844A9.928,9.928,0,0,0,0,386.992v9.992a2.478,2.478,0,0,0,2.461,2.5H27.07a2.478,2.478,0,0,0,2.461-2.5v-9.992A9.928,9.928,0,0,0,19.688,377Z" transform="translate(0 -377)" fill="#418ad1"/>
      </g>
    </g>
    <g id="Group_2960" data-name="Group 2960" transform="translate(62.852 47.615)">
      <g id="Group_2959" data-name="Group 2959">
        <path id="Path_15044" data-name="Path 15044" d="M384.383,287a7.495,7.495,0,1,0,7.383,7.494A7.447,7.447,0,0,0,384.383,287Z" transform="translate(-377 -287)" fill="#418ad1"/>
      </g>
    </g>
    <g id="Group_2962" data-name="Group 2962" transform="translate(55.469 62.518)">
      <g id="Group_2961" data-name="Group 2961">
        <path id="Path_15045" data-name="Path 15045" d="M351.688,377h-9.844A9.928,9.928,0,0,0,332,386.992v9.992a2.478,2.478,0,0,0,2.461,2.5H359.07a2.478,2.478,0,0,0,2.461-2.5v-9.992A9.928,9.928,0,0,0,351.688,377Z" transform="translate(-332 -377)" fill="#418ad1"/>
      </g>
    </g>
    <g id="Group_2964" data-name="Group 2964" transform="translate(10.008)">
      <g id="Group_2963" data-name="Group 2963">
        <path id="Exclusion_5" data-name="Exclusion 5" d="M12.323,49.965a2.469,2.469,0,0,1-2.481-2.506V39.717a12.312,12.312,0,0,1-7.024-4.293A12.617,12.617,0,0,1,0,27.477V12.492A12.508,12.508,0,0,1,3.6,3.66,12.137,12.137,0,0,1,12.307,0H31.99a12.141,12.141,0,0,1,8.7,3.66,12.508,12.508,0,0,1,3.6,8.832V27.477a12.508,12.508,0,0,1-3.6,8.832,12.141,12.141,0,0,1-8.7,3.66H23.168l-9.121,9.26A2.411,2.411,0,0,1,12.323,49.965ZM30.99,17.256a3.046,3.046,0,1,0,3,3.043A3.023,3.023,0,0,0,30.99,17.256Zm-9,0a3.046,3.046,0,1,0,3,3.043A3.026,3.026,0,0,0,21.992,17.256Zm-9,0a3.046,3.046,0,1,0,3,3.043A3.026,3.026,0,0,0,12.994,17.256Z" fill="#418ad1"/>
      </g>
    </g>
    <g id="Group_2966" data-name="Group 2966" transform="translate(53.268 4.996)">
      <g id="Group_2965" data-name="Group 2965">
        <path id="Path_15047" data-name="Path 15047" d="M328.008,30h-4.189a17.5,17.5,0,0,1,1.728,7.494V52.482a17.5,17.5,0,0,1-6.958,13.955l7.679,7.794a2.457,2.457,0,0,0,4.2-1.766V64.72a12.466,12.466,0,0,0,9.844-12.239V42.49A12.4,12.4,0,0,0,328.008,30Z" transform="translate(-318.589 -30)" fill="#418ad1"/>
      </g>
    </g>
  </g>
  <path id="Intersection_4" data-name="Intersection 4" d="M53.2,85,43.843,71.125A9.911,9.911,0,0,1,53.6,62.516H57.4a7.381,7.381,0,1,1,2.224,0h3.808a9.932,9.932,0,0,1,9.848,9.99v10A2.477,2.477,0,0,1,70.822,85Zm-3.972-35.77-7.678-7.8a17.491,17.491,0,0,0,6.959-13.951V12.49a17.524,17.524,0,0,0-1.728-7.5H50.97a12.4,12.4,0,0,1,12.3,12.49v10a12.466,12.466,0,0,1-9.843,12.236v7.746a2.474,2.474,0,0,1-2.48,2.5A2.39,2.39,0,0,1,49.228,49.227Zm-26.4-9.258L11.6,23.328a3.049,3.049,0,0,0-.322-6.074A3,3,0,0,0,8.618,18.9L0,6.123A12.542,12.542,0,0,1,1.891,3.66,12.141,12.141,0,0,1,10.6,0H30.278a12.141,12.141,0,0,1,8.706,3.66,12.5,12.5,0,0,1,3.6,8.83V27.473a12.521,12.521,0,0,1-3.6,8.836,12.164,12.164,0,0,1-8.706,3.66Zm3.457-19.674a3,3,0,1,0,2.994-3.041A3.025,3.025,0,0,0,26.285,20.295Zm-9.006,0a3,3,0,1,0,3-3.041A3.03,3.03,0,0,0,17.279,20.295Z" transform="translate(11.719 0.001)" fill="#5096dc"/>
</svg>
