<svg width="940" height="579" viewBox="0 0 940 579" fill="none" xmlns="http://www.w3.org/2000/svg">
<path d="M940 39H0V541H940V39Z" fill="#EEEFF0"/>
<path d="M940 0H0V40H940V0Z" fill="#EEEFF0"/>
<path d="M31.1914 27.2306H16.3383C15.5462 27.2306 14.853 26.5375 14.853 25.7453V13.8629C14.853 13.0707 15.5462 12.3776 16.3383 12.3776H31.1914C31.9835 12.3776 32.6767 13.0707 32.6767 13.8629V25.7453C32.6767 26.5375 31.9835 27.2306 31.1914 27.2306Z" fill="white"/>
<path d="M60.7983 27.2306H45.9453C45.1531 27.2306 44.46 26.5374 44.46 25.7452V13.8628C44.46 13.0706 45.1531 12.3775 45.9453 12.3775H60.7983C61.5905 12.3775 62.2837 13.0706 62.2837 13.8628V25.7452C62.2837 26.5374 61.6895 27.2306 60.7983 27.2306Z" fill="white"/>
<path d="M90.5046 27.2306H75.6516C74.8594 27.2306 74.1663 26.5374 74.1663 25.7452V13.8628C74.1663 13.0706 74.8594 12.3775 75.6516 12.3775H90.5046C91.2968 12.3775 91.9899 13.0706 91.9899 13.8628V25.7452C91.9899 26.5374 91.2968 27.2306 90.5046 27.2306Z" fill="white"/>
<path d="M120.112 27.2306H105.259C104.466 27.2306 103.773 26.5374 103.773 25.7452V13.8628C103.773 13.0706 104.466 12.3775 105.259 12.3775H120.112C120.904 12.3775 121.597 13.0706 121.597 13.8628V25.7452C121.597 26.5374 120.904 27.2306 120.112 27.2306Z" fill="white"/>
<path d="M149.817 27.2306H134.964C134.172 27.2306 133.479 26.5374 133.479 25.7452V13.8628C133.479 13.0706 134.172 12.3775 134.964 12.3775H149.817C150.61 12.3775 151.303 13.0706 151.303 13.8628V25.7452C151.303 26.5374 150.61 27.2306 149.817 27.2306Z" fill="white"/>
<path d="M179.425 27.2306H164.572C163.78 27.2306 163.087 26.5374 163.087 25.7452V13.8628C163.087 13.0706 163.78 12.3775 164.572 12.3775H179.425C180.217 12.3775 180.91 13.0706 180.91 13.8628V25.7452C180.91 26.5374 180.217 27.2306 179.425 27.2306Z" fill="white"/>
<path d="M209.032 27.2306H194.179C193.387 27.2306 192.694 26.5374 192.694 25.7452V13.8628C192.694 13.0706 193.387 12.3775 194.179 12.3775H209.032C209.824 12.3775 210.517 13.0706 210.517 13.8628V25.7452C210.517 26.5374 209.923 27.2306 209.032 27.2306Z" fill="white"/>
<path d="M238.738 27.2306H223.885C223.093 27.2306 222.4 26.5374 222.4 25.7452V13.8628C222.4 13.0706 223.093 12.3775 223.885 12.3775H238.738C239.53 12.3775 240.223 13.0706 240.223 13.8628V25.7452C240.223 26.5374 239.53 27.2306 238.738 27.2306Z" fill="white"/>
<path d="M268.345 27.2306H253.492C252.7 27.2306 252.007 26.5374 252.007 25.7452V13.8628C252.007 13.0706 252.7 12.3775 253.492 12.3775H268.345C269.137 12.3775 269.83 13.0706 269.83 13.8628V25.7452C269.83 26.5374 269.137 27.2306 268.345 27.2306Z" fill="white"/>
<path d="M297.952 27.2306H283.099C282.307 27.2306 281.614 26.5374 281.614 25.7452V13.8628C281.614 13.0706 282.307 12.3775 283.099 12.3775H297.952C298.744 12.3775 299.437 13.0706 299.437 13.8628V25.7452C299.437 26.5374 298.843 27.2306 297.952 27.2306Z" fill="white"/>
<path d="M327.658 27.2306H312.805C312.013 27.2306 311.32 26.5374 311.32 25.7452V13.8628C311.32 13.0706 312.013 12.3775 312.805 12.3775H327.658C328.451 12.3775 329.144 13.0706 329.144 13.8628V25.7452C329.144 26.5374 328.451 27.2306 327.658 27.2306Z" fill="white"/>
<path d="M357.265 27.2306H342.412C341.62 27.2306 340.927 26.5374 340.927 25.7452V13.8628C340.927 13.0706 341.62 12.3775 342.412 12.3775H357.265C358.057 12.3775 358.75 13.0706 358.75 13.8628V25.7452C358.75 26.5374 358.156 27.2306 357.265 27.2306Z" fill="white"/>
<path d="M386.971 27.2306H372.118C371.326 27.2306 370.633 26.5374 370.633 25.7452V13.8628C370.633 13.0706 371.326 12.3775 372.118 12.3775H386.971C387.763 12.3775 388.457 13.0706 388.457 13.8628V25.7452C388.457 26.5374 387.763 27.2306 386.971 27.2306Z" fill="white"/>
<path d="M416.579 27.2306H401.726C400.934 27.2306 400.24 26.5374 400.24 25.7452V13.8628C400.24 13.0706 400.934 12.3775 401.726 12.3775H416.579C417.371 12.3775 418.064 13.0706 418.064 13.8628V25.7452C418.064 26.5374 417.371 27.2306 416.579 27.2306Z" fill="white"/>
<path d="M446.185 27.2306H431.332C430.54 27.2306 429.847 26.5374 429.847 25.7452V13.8628C429.847 13.0706 430.54 12.3775 431.332 12.3775H446.185C446.978 12.3775 447.671 13.0706 447.671 13.8628V25.7452C447.671 26.5374 447.077 27.2306 446.185 27.2306Z" fill="white"/>
<path d="M475.892 27.2306H461.039C460.247 27.2306 459.553 26.5374 459.553 25.7452V13.8628C459.553 13.0706 460.247 12.3775 461.039 12.3775H475.892C476.684 12.3775 477.377 13.0706 477.377 13.8628V25.7452C477.377 26.5374 476.684 27.2306 475.892 27.2306Z" fill="white"/>
<path d="M505.499 27.2306H490.646C489.854 27.2306 489.16 26.5374 489.16 25.7452V13.8628C489.16 13.0706 489.854 12.3775 490.646 12.3775H505.499C506.291 12.3775 506.984 13.0706 506.984 13.8628V25.7452C506.984 26.5374 506.39 27.2306 505.499 27.2306Z" fill="white"/>
<path d="M535.205 27.2306H520.352C519.56 27.2306 518.867 26.5374 518.867 25.7452V13.8628C518.867 13.0706 519.56 12.3775 520.352 12.3775H535.205C535.997 12.3775 536.69 13.0706 536.69 13.8628V25.7452C536.69 26.5374 535.997 27.2306 535.205 27.2306Z" fill="white"/>
<path d="M564.812 27.2306H549.959C549.166 27.2306 548.473 26.5374 548.473 25.7452V13.8628C548.473 13.0706 549.166 12.3775 549.959 12.3775H564.812C565.604 12.3775 566.297 13.0706 566.297 13.8628V25.7452C566.297 26.5374 565.604 27.2306 564.812 27.2306Z" fill="white"/>
<path d="M594.419 27.2306H579.566C578.774 27.2306 578.08 26.5374 578.08 25.7452V13.8628C578.08 13.0706 578.774 12.3775 579.566 12.3775H594.419C595.211 12.3775 595.904 13.0706 595.904 13.8628V25.7452C595.904 26.5374 595.31 27.2306 594.419 27.2306Z" fill="white"/>
<path d="M624.125 27.2306H609.272C608.48 27.2306 607.787 26.5374 607.787 25.7452V13.8628C607.787 13.0706 608.48 12.3775 609.272 12.3775H624.125C624.917 12.3775 625.61 13.0706 625.61 13.8628V25.7452C625.61 26.5374 624.917 27.2306 624.125 27.2306Z" fill="white"/>
<path d="M653.733 27.2306H638.88C638.087 27.2306 637.394 26.5374 637.394 25.7452V13.8628C637.394 13.0706 638.087 12.3775 638.88 12.3775H653.733C654.525 12.3775 655.218 13.0706 655.218 13.8628V25.7452C655.218 26.5374 654.525 27.2306 653.733 27.2306Z" fill="white"/>
<path d="M683.438 27.2306H668.585C667.793 27.2306 667.1 26.5374 667.1 25.7452V13.8628C667.1 13.0706 667.793 12.3775 668.585 12.3775H683.438C684.231 12.3775 684.924 13.0706 684.924 13.8628V25.7452C684.924 26.5374 684.231 27.2306 683.438 27.2306Z" fill="white"/>
<path d="M713.046 27.2306H698.192C697.4 27.2306 696.707 26.5374 696.707 25.7452V13.8628C696.707 13.0706 697.4 12.3775 698.192 12.3775H713.046C713.838 12.3775 714.531 13.0706 714.531 13.8628V25.7452C714.531 26.5374 713.838 27.2306 713.046 27.2306Z" fill="white"/>
<path d="M742.653 27.2306H727.8C727.007 27.2306 726.314 26.5374 726.314 25.7452V13.8628C726.314 13.0706 727.007 12.3775 727.8 12.3775H742.653C743.445 12.3775 744.138 13.0706 744.138 13.8628V25.7452C744.138 26.5374 743.544 27.2306 742.653 27.2306Z" fill="white"/>
<path d="M772.358 27.2306H757.505C756.713 27.2306 756.02 26.5374 756.02 25.7452V13.8628C756.02 13.0706 756.713 12.3775 757.505 12.3775H772.358C773.151 12.3775 773.844 13.0706 773.844 13.8628V25.7452C773.844 26.5374 773.151 27.2306 772.358 27.2306Z" fill="white"/>
<path d="M801.965 27.2306H787.112C786.32 27.2306 785.627 26.5374 785.627 25.7452V13.8628C785.627 13.0706 786.32 12.3775 787.112 12.3775H801.965C802.758 12.3775 803.451 13.0706 803.451 13.8628V25.7452C803.451 26.5374 802.758 27.2306 801.965 27.2306Z" fill="white"/>
<path d="M831.573 27.2306H816.719C815.927 27.2306 815.234 26.5374 815.234 25.7452V13.8628C815.234 13.0706 815.927 12.3775 816.719 12.3775H831.573C832.365 12.3775 833.058 13.0706 833.058 13.8628V25.7452C833.058 26.5374 832.464 27.2306 831.573 27.2306Z" fill="white"/>
<path d="M861.279 27.2306H846.426C845.634 27.2306 844.94 26.5374 844.94 25.7452V13.8628C844.94 13.0706 845.634 12.3775 846.426 12.3775H861.279C862.071 12.3775 862.764 13.0706 862.764 13.8628V25.7452C862.764 26.5374 862.071 27.2306 861.279 27.2306Z" fill="white"/>
<path d="M890.886 27.2306H876.033C875.241 27.2306 874.548 26.5374 874.548 25.7452V13.8628C874.548 13.0706 875.241 12.3775 876.033 12.3775H890.886C891.678 12.3775 892.371 13.0706 892.371 13.8628V25.7452C892.371 26.5374 891.777 27.2306 890.886 27.2306Z" fill="white"/>
<path d="M920.592 27.2306H905.739C904.947 27.2306 904.254 26.5374 904.254 25.7452V13.8628C904.254 13.0706 904.947 12.3775 905.739 12.3775H920.592C921.384 12.3775 922.078 13.0706 922.078 13.8628V25.7452C922.078 26.5374 921.384 27.2306 920.592 27.2306Z" fill="white"/>
<path d="M940 538.537H0V578.537H940V538.537Z" fill="#EEEFF0"/>
<path d="M32.875 565.767H18.0219C17.2298 565.767 16.5366 565.074 16.5366 564.282V552.399C16.5366 551.607 17.2298 550.914 18.0219 550.914H32.875C33.6671 550.914 34.3603 551.607 34.3603 552.399V564.282C34.3603 565.074 33.6671 565.767 32.875 565.767Z" fill="white"/>
<path d="M62.4817 565.767H47.6287C46.8365 565.767 46.1434 565.074 46.1434 564.282V552.399C46.1434 551.607 46.8365 550.914 47.6287 550.914H62.4817C63.2739 550.914 63.967 551.607 63.967 552.399V564.282C63.967 565.074 63.3729 565.767 62.4817 565.767Z" fill="white"/>
<path d="M92.188 565.767H77.3349C76.5428 565.767 75.8496 565.074 75.8496 564.282V552.399C75.8496 551.607 76.5428 550.914 77.3349 550.914H92.188C92.9801 550.914 93.6733 551.607 93.6733 552.399V564.282C93.6733 565.074 92.9801 565.767 92.188 565.767Z" fill="white"/>
<path d="M121.795 565.767H106.942C106.15 565.767 105.457 565.074 105.457 564.282V552.399C105.457 551.607 106.15 550.914 106.942 550.914H121.795C122.587 550.914 123.28 551.607 123.28 552.399V564.282C123.28 565.074 122.686 565.767 121.795 565.767Z" fill="white"/>
<path d="M151.501 565.767H136.648C135.856 565.767 135.163 565.074 135.163 564.282V552.399C135.163 551.607 135.856 550.914 136.648 550.914H151.501C152.293 550.914 152.987 551.607 152.987 552.399V564.282C152.987 565.074 152.293 565.767 151.501 565.767Z" fill="white"/>
<path d="M181.108 565.767H166.255C165.463 565.767 164.77 565.074 164.77 564.282V552.399C164.77 551.607 165.463 550.914 166.255 550.914H181.108C181.901 550.914 182.594 551.607 182.594 552.399V564.282C182.594 565.074 181.901 565.767 181.108 565.767Z" fill="white"/>
<path d="M210.716 565.767H195.863C195.07 565.767 194.377 565.074 194.377 564.282V552.399C194.377 551.607 195.07 550.914 195.863 550.914H210.716C211.508 550.914 212.201 551.607 212.201 552.399V564.282C212.201 565.074 211.607 565.767 210.716 565.767Z" fill="white"/>
<path d="M240.422 565.767H225.569C224.777 565.767 224.083 565.074 224.083 564.282V552.399C224.083 551.607 224.777 550.914 225.569 550.914H240.422C241.214 550.914 241.907 551.607 241.907 552.399V564.282C241.907 565.074 241.214 565.767 240.422 565.767Z" fill="white"/>
<path d="M270.028 565.767H255.175C254.383 565.767 253.69 565.074 253.69 564.282V552.399C253.69 551.607 254.383 550.914 255.175 550.914H270.028C270.821 550.914 271.514 551.607 271.514 552.399V564.282C271.514 565.074 270.821 565.767 270.028 565.767Z" fill="white"/>
<path d="M299.735 565.767H284.882C284.089 565.767 283.396 565.074 283.396 564.282V552.399C283.396 551.607 284.089 550.914 284.882 550.914H299.735C300.527 550.914 301.22 551.607 301.22 552.399V564.282C301.22 565.074 300.527 565.767 299.735 565.767Z" fill="white"/>
<path d="M329.342 565.767H314.489C313.697 565.767 313.003 565.074 313.003 564.282V552.399C313.003 551.607 313.697 550.914 314.489 550.914H329.342C330.134 550.914 330.827 551.607 330.827 552.399V564.282C330.827 565.074 330.134 565.767 329.342 565.767Z" fill="white"/>
<path d="M358.949 565.767H344.096C343.304 565.767 342.611 565.074 342.611 564.282V552.399C342.611 551.607 343.304 550.914 344.096 550.914H358.949C359.741 550.914 360.434 551.607 360.434 552.399V564.282C360.434 565.074 359.84 565.767 358.949 565.767Z" fill="white"/>
<path d="M388.655 565.767H373.802C373.009 565.767 372.316 565.074 372.316 564.282V552.399C372.316 551.607 373.009 550.914 373.802 550.914H388.655C389.447 550.914 390.14 551.607 390.14 552.399V564.282C390.14 565.074 389.447 565.767 388.655 565.767Z" fill="white"/>
<path d="M418.262 565.767H403.409C402.617 565.767 401.924 565.074 401.924 564.282V552.399C401.924 551.607 402.617 550.914 403.409 550.914H418.262C419.054 550.914 419.748 551.607 419.748 552.399V564.282C419.748 565.074 419.054 565.767 418.262 565.767Z" fill="white"/>
<path d="M447.968 565.767H433.115C432.323 565.767 431.63 565.074 431.63 564.282V552.399C431.63 551.607 432.323 550.914 433.115 550.914H447.968C448.761 550.914 449.454 551.607 449.454 552.399V564.282C449.454 565.074 448.761 565.767 447.968 565.767Z" fill="white"/>
<path d="M477.576 565.767H462.723C461.93 565.767 461.237 565.074 461.237 564.282V552.399C461.237 551.607 461.93 550.914 462.723 550.914H477.576C478.368 550.914 479.061 551.607 479.061 552.399V564.282C479.061 565.074 478.368 565.767 477.576 565.767Z" fill="white"/>
<path d="M507.182 565.767H492.329C491.537 565.767 490.844 565.074 490.844 564.282V552.399C490.844 551.607 491.537 550.914 492.329 550.914H507.182C507.974 550.914 508.668 551.607 508.668 552.399V564.282C508.668 565.074 508.073 565.767 507.182 565.767Z" fill="white"/>
<path d="M536.888 565.767H522.035C521.243 565.767 520.55 565.074 520.55 564.282V552.399C520.55 551.607 521.243 550.914 522.035 550.914H536.888C537.681 550.914 538.374 551.607 538.374 552.399V564.282C538.374 565.074 537.681 565.767 536.888 565.767Z" fill="white"/>
<path d="M566.496 565.767H551.643C550.85 565.767 550.157 565.074 550.157 564.282V552.399C550.157 551.607 550.85 550.914 551.643 550.914H566.496C567.288 550.914 567.981 551.607 567.981 552.399V564.282C567.981 565.074 567.288 565.767 566.496 565.767Z" fill="white"/>
<path d="M596.103 565.767H581.25C580.457 565.767 579.764 565.074 579.764 564.282V552.399C579.764 551.607 580.457 550.914 581.25 550.914H596.103C596.895 550.914 597.588 551.607 597.588 552.399V564.282C597.588 565.074 596.994 565.767 596.103 565.767Z" fill="white"/>
<path d="M625.808 565.767H610.955C610.163 565.767 609.47 565.074 609.47 564.282V552.399C609.47 551.607 610.163 550.914 610.955 550.914H625.808C626.601 550.914 627.294 551.607 627.294 552.399V564.282C627.294 565.074 626.601 565.767 625.808 565.767Z" fill="white"/>
<path d="M655.416 565.767H640.563C639.771 565.767 639.078 565.074 639.078 564.282V552.399C639.078 551.607 639.771 550.914 640.563 550.914H655.416C656.208 550.914 656.901 551.607 656.901 552.399V564.282C656.901 565.074 656.307 565.767 655.416 565.767Z" fill="white"/>
<path d="M685.122 565.767H670.269C669.477 565.767 668.784 565.074 668.784 564.282V552.399C668.784 551.607 669.477 550.914 670.269 550.914H685.122C685.914 550.914 686.608 551.607 686.608 552.399V564.282C686.608 565.074 685.914 565.767 685.122 565.767Z" fill="white"/>
<path d="M714.729 565.767H699.876C699.084 565.767 698.391 565.074 698.391 564.282V552.399C698.391 551.607 699.084 550.914 699.876 550.914H714.729C715.521 550.914 716.214 551.607 716.214 552.399V564.282C716.214 565.074 715.521 565.767 714.729 565.767Z" fill="white"/>
<path d="M744.336 565.767H729.483C728.691 565.767 727.998 565.074 727.998 564.282V552.399C727.998 551.607 728.691 550.914 729.483 550.914H744.336C745.128 550.914 745.821 551.607 745.821 552.399V564.282C745.821 565.074 745.227 565.767 744.336 565.767Z" fill="white"/>
<path d="M774.042 565.767H759.189C758.397 565.767 757.704 565.074 757.704 564.282V552.399C757.704 551.607 758.397 550.914 759.189 550.914H774.042C774.834 550.914 775.528 551.607 775.528 552.399V564.282C775.528 565.074 774.834 565.767 774.042 565.767Z" fill="white"/>
<path d="M803.649 565.767H788.796C788.004 565.767 787.311 565.074 787.311 564.282V552.399C787.311 551.607 788.004 550.914 788.796 550.914H803.649C804.441 550.914 805.135 551.607 805.135 552.399V564.282C805.135 565.074 804.441 565.767 803.649 565.767Z" fill="white"/>
<path d="M833.355 565.767H818.502C817.71 565.767 817.017 565.074 817.017 564.282V552.399C817.017 551.607 817.71 550.914 818.502 550.914H833.355C834.147 550.914 834.84 551.607 834.84 552.399V564.282C834.84 565.074 834.147 565.767 833.355 565.767Z" fill="white"/>
<path d="M862.962 565.767H848.109C847.317 565.767 846.624 565.074 846.624 564.282V552.399C846.624 551.607 847.317 550.914 848.109 550.914H862.962C863.754 550.914 864.448 551.607 864.448 552.399V564.282C864.448 565.074 863.754 565.767 862.962 565.767Z" fill="white"/>
<path d="M892.57 565.767H877.717C876.925 565.767 876.231 565.074 876.231 564.282V552.399C876.231 551.607 876.925 550.914 877.717 550.914H892.57C893.362 550.914 894.055 551.607 894.055 552.399V564.282C894.055 565.074 893.461 565.767 892.57 565.767Z" fill="white"/>
<path d="M922.276 565.767H907.422C906.63 565.767 905.937 565.074 905.937 564.282V552.399C905.937 551.607 906.63 550.914 907.422 550.914H922.276C923.068 550.914 923.761 551.607 923.761 552.399V564.282C923.761 565.074 923.068 565.767 922.276 565.767Z" fill="white"/>
</svg>
