<svg width="71" height="70" viewBox="0 0 71 70" fill="none" xmlns="http://www.w3.org/2000/svg">
<path fill-rule="evenodd" clip-rule="evenodd" d="M58 12.9722H13V55.9722H58V12.9722ZM50 14.9722H21V53.9722H50V14.9722ZM15.0168 15.1731C15.021 15.1611 15.0259 15.1495 15.0315 15.1383L15.0378 15.1261L15.0461 15.1124C15.0508 15.105 15.0557 15.0978 15.061 15.0908C15.0686 15.0809 15.0767 15.0715 15.0854 15.0626C15.1399 15.0068 15.2158 14.9722 15.3 14.9722H18.7C18.8657 14.9722 19 15.1064 19 15.2722V18.6721C19 18.8379 18.8657 18.9722 18.7 18.9722H15.3C15.1343 18.9722 15 18.8379 15 18.6721V15.2722C15 15.2374 15.0059 15.2041 15.0168 15.1731ZM52.3 14.9722C52.1343 14.9722 52 15.1064 52 15.2722V18.6721C52 18.8379 52.1343 18.9722 52.3 18.9722H55.7C55.7134 18.9722 55.7268 18.9713 55.7397 18.9696C55.783 18.9639 55.823 18.949 55.8584 18.927C55.8752 18.9165 55.8911 18.9043 55.9055 18.8907C55.9272 18.8704 55.9458 18.8468 55.9607 18.8208C55.9763 18.7933 55.9878 18.7632 55.9941 18.7312C55.998 18.7122 56 18.6924 56 18.6721V15.2722C56 15.1064 55.8657 14.9722 55.7 14.9722H52.3ZM15 22.2722C15 22.1064 15.1343 21.9722 15.3 21.9722H18.7C18.8657 21.9722 19 22.1064 19 22.2722V25.6721C19 25.8073 18.9109 25.9215 18.7878 25.959C18.76 25.9675 18.7305 25.9722 18.7 25.9722H15.3C15.1343 25.9722 15 25.8379 15 25.6721V22.2722ZM52.3 21.9722C52.1343 21.9722 52 22.1064 52 22.2722V25.6721C52 25.8379 52.1343 25.9722 52.3 25.9722H55.7C55.7827 25.9722 55.8574 25.9388 55.9116 25.8848C55.9663 25.8304 56 25.7552 56 25.6721V22.2722C56 22.1064 55.8657 21.9722 55.7 21.9722H52.3ZM15 29.2722C15 29.1064 15.1343 28.9722 15.3 28.9722H18.7C18.8657 28.9722 19 29.1064 19 29.2722V32.6721C19 32.8379 18.8657 32.9722 18.7 32.9722H15.3C15.1343 32.9722 15 32.8379 15 32.6721V29.2722ZM52.3 28.9722C52.1343 28.9722 52 29.1064 52 29.2722V32.6721C52 32.8379 52.1343 32.9722 52.3 32.9722H55.7C55.8657 32.9722 56 32.8379 56 32.6721V29.2722C56 29.1906 55.9675 29.1166 55.9146 29.0625C55.8601 29.0067 55.7842 28.9722 55.7 28.9722H52.3ZM15 36.2722C15 36.1992 15.0261 36.1323 15.0693 36.0803C15.1243 36.0143 15.2073 35.9722 15.3 35.9722H18.7C18.8657 35.9722 19 36.1064 19 36.2722V39.6721C19 39.8379 18.8657 39.9722 18.7 39.9722H15.3C15.2144 39.9722 15.1372 39.9364 15.0825 39.8789C15.0552 39.85 15.0334 39.8156 15.019 39.7775C15.0068 39.7448 15 39.7092 15 39.6721V36.2722ZM52.3 35.9722C52.1343 35.9722 52 36.1064 52 36.2722V39.6721C52 39.8379 52.1343 39.9722 52.3 39.9722H55.7C55.8657 39.9722 56 39.8379 56 39.6721V36.2722C56 36.1064 55.8657 35.9722 55.7 35.9722H52.3ZM15.1724 43.0005C15.2112 42.9823 15.2544 42.9722 15.3 42.9722H18.7C18.7351 42.9722 18.7688 42.9783 18.8003 42.9894C18.824 42.9977 18.8464 43.009 18.8669 43.0228C18.8972 43.0431 18.9236 43.0687 18.9446 43.0985C18.9795 43.1476 19 43.2075 19 43.2722V46.6721C19 46.8379 18.8657 46.9722 18.7 46.9722H15.3C15.1343 46.9722 15 46.8379 15 46.6721V43.2722C15 43.1908 15.0325 43.1168 15.0852 43.0627C15.1101 43.0371 15.1396 43.016 15.1724 43.0005ZM52.1226 43.0303C52.0845 43.0583 52.0532 43.0952 52.0317 43.1378C52.0217 43.158 52.0139 43.1794 52.0085 43.2018C52.0029 43.2244 52 43.2479 52 43.2722V46.6721C52 46.8379 52.1343 46.9722 52.3 46.9722H55.7C55.791 46.9722 55.8726 46.9316 55.9275 46.8678C55.9727 46.8153 56 46.7469 56 46.6721V43.2722C56 43.1064 55.8657 42.9722 55.7 42.9722H52.3C52.2742 42.9722 52.249 42.9755 52.2251 42.9816C52.1877 42.9912 52.1531 43.0079 52.1226 43.0303ZM15 50.2722C15 50.1064 15.1343 49.9722 15.3 49.9722H18.7C18.8657 49.9722 19 50.1064 19 50.2722V53.6721C19 53.8379 18.8657 53.9722 18.7 53.9722H15.3C15.1343 53.9722 15 53.8379 15 53.6721V50.2722ZM52.3 49.9722C52.1343 49.9722 52 50.1064 52 50.2722V53.6721C52 53.8379 52.1343 53.9722 52.3 53.9722H55.7C55.8657 53.9722 56 53.8379 56 53.6721V50.2722C56 50.1064 55.8657 49.9722 55.7 49.9722H52.3Z" fill="#FC4B15"/>
<path fill-rule="evenodd" clip-rule="evenodd" d="M11.0332 13.8174H0V13.1174H11.0332V13.8174Z" fill="#FC4B15"/>
<path fill-rule="evenodd" clip-rule="evenodd" d="M13.1174 11.2585V0.236572H13.8174V11.2585H13.1174Z" fill="#FC4B15"/>
<path fill-rule="evenodd" clip-rule="evenodd" d="M59.9666 55.199H70.9997V55.899H59.9666V55.199Z" fill="#FC4B15"/>
<path fill-rule="evenodd" clip-rule="evenodd" d="M57.8824 57.7578V68.791H57.1824V57.7578H57.8824Z" fill="#FC4B15"/>
<path fill-rule="evenodd" clip-rule="evenodd" d="M13.8174 57.9946V69.0165H13.1174V57.9946H13.8174Z" fill="#FC4B15"/>
<path fill-rule="evenodd" clip-rule="evenodd" d="M11.2587 55.899H0.236816V55.199H11.2587V55.899Z" fill="#FC4B15"/>
<path fill-rule="evenodd" clip-rule="evenodd" d="M57.4187 11.0219V0H58.1187V11.0219H57.4187Z" fill="#FC4B15"/>
<path fill-rule="evenodd" clip-rule="evenodd" d="M59.9668 13.1174H71V13.8174H59.9668V13.1174Z" fill="#FC4B15"/>
</svg>
