<svg width="71" height="70" viewBox="0 0 71 70" fill="none" xmlns="http://www.w3.org/2000/svg">
<path d="M49.9926 53.9203V15.4H21.4123V53.9203H49.9926ZM51.9197 19.8065C51.9182 19.8371 51.9229 19.8676 51.9335 19.8962C51.9442 19.9249 51.9605 19.9511 51.9816 19.9732C52.0027 19.9954 52.0281 20.013 52.0562 20.025C52.0843 20.037 52.1145 20.0432 52.1451 20.0432H55.8304C55.8922 20.0404 55.9508 20.0146 55.9946 19.9708C56.0384 19.927 56.0643 19.8684 56.067 19.8065V16.0875C56.0643 16.0256 56.0384 15.967 55.9946 15.9232C55.9508 15.8794 55.8922 15.8536 55.8304 15.8508H52.1451C52.1145 15.8508 52.0843 15.8569 52.0562 15.869C52.0281 15.881 52.0027 15.8986 51.9816 15.9208C51.9605 15.9429 51.9442 15.9691 51.9335 15.9978C51.9229 16.0264 51.9182 16.0569 51.9197 16.0875V19.8065ZM51.9197 26.467C51.9182 26.4975 51.9229 26.528 51.9335 26.5567C51.9442 26.5854 51.9605 26.6116 51.9816 26.6337C52.0027 26.6558 52.0281 26.6735 52.0562 26.6855C52.0843 26.6975 52.1145 26.7037 52.1451 26.7037H55.8304C55.8922 26.7009 55.9508 26.6751 55.9946 26.6313C56.0384 26.5875 56.0643 26.5289 56.067 26.467V22.7479C56.0643 22.6861 56.0384 22.6275 55.9946 22.5836C55.9508 22.5398 55.8922 22.514 55.8304 22.5113H52.1451C52.1145 22.5112 52.0843 22.5174 52.0562 22.5294C52.0281 22.5415 52.0027 22.5591 51.9816 22.5812C51.9605 22.6034 51.9442 22.6296 51.9335 22.6582C51.9229 22.6869 51.9182 22.7174 51.9197 22.7479V26.467ZM51.9197 33.1275C51.9197 33.1872 51.9435 33.2446 51.9857 33.2868C52.028 33.3291 52.0853 33.3529 52.1451 33.3529H55.8304C55.8904 33.3504 55.9475 33.3261 55.9911 33.2847C56.0346 33.2432 56.0616 33.1873 56.067 33.1275V29.3971C56.0616 29.3373 56.0346 29.2814 55.9911 29.2399C55.9475 29.1985 55.8904 29.1742 55.8304 29.1717H52.1451C52.0853 29.1717 52.028 29.1955 51.9857 29.2378C51.9435 29.28 51.9197 29.3374 51.9197 29.3971V33.1275ZM51.9197 39.7879C51.9197 39.8477 51.9435 39.905 51.9857 39.9473C52.028 39.9896 52.0853 40.0133 52.1451 40.0133H55.8304C55.8904 40.0108 55.9475 39.9866 55.9911 39.9451C56.0346 39.9037 56.0616 39.8478 56.067 39.7879V36.0689C56.0643 36.007 56.0384 35.9484 55.9946 35.9046C55.9508 35.8608 55.8922 35.835 55.8304 35.8322H52.1451C52.1145 35.8322 52.0843 35.8384 52.0562 35.8504C52.0281 35.8624 52.0027 35.88 51.9816 35.9022C51.9605 35.9243 51.9442 35.9505 51.9335 35.9792C51.9229 36.0078 51.9182 36.0384 51.9197 36.0689V39.7879ZM51.9197 46.4371C51.9182 46.4677 51.9229 46.4982 51.9335 46.5269C51.9442 46.5555 51.9605 46.5817 51.9816 46.6039C52.0027 46.626 52.0281 46.6436 52.0562 46.6556C52.0843 46.6677 52.1145 46.6738 52.1451 46.6738H55.8304C55.8922 46.671 55.9508 46.6452 55.9946 46.6014C56.0384 46.5576 56.0643 46.499 56.067 46.4371V42.7294C56.0643 42.6675 56.0384 42.6089 55.9946 42.5651C55.9508 42.5213 55.8922 42.4954 55.8304 42.4927H52.1451C52.1145 42.4927 52.0843 42.4988 52.0562 42.5109C52.0281 42.5229 52.0027 42.5405 51.9816 42.5626C51.9605 42.5848 51.9442 42.611 51.9335 42.6396C51.9229 42.6683 51.9182 42.6988 51.9197 42.7294V46.4371ZM52.1451 53.3455H55.8304C55.8922 53.3428 55.9508 53.317 55.9946 53.2732C56.0384 53.2294 56.0643 53.1708 56.067 53.1089V49.3786C56.0616 49.3187 56.0346 49.2628 55.9911 49.2213C55.9475 49.1799 55.8904 49.1557 55.8304 49.1532H52.1451C52.1155 49.1532 52.0862 49.159 52.0589 49.1703C52.0315 49.1816 52.0067 49.1982 51.9857 49.2192C51.9648 49.2401 51.9482 49.265 51.9369 49.2923C51.9256 49.3197 51.9197 49.349 51.9197 49.3786V53.0638C51.9182 53.0943 51.9229 53.1249 51.9335 53.1535C51.9442 53.1822 51.9605 53.2084 51.9816 53.2305C52.0027 53.2527 52.0281 53.2703 52.0562 53.2823C52.0843 53.2943 52.1145 53.3005 52.1451 53.3005V53.3455ZM13.6023 13.7433H57.8477V55.577H13.6023V13.7433ZM19.7331 53.0638V49.3786C19.7331 49.348 19.7269 49.3177 19.7149 49.2896C19.7029 49.2615 19.6853 49.2361 19.6631 49.2151C19.641 49.194 19.6148 49.1776 19.5861 49.167C19.5575 49.1563 19.527 49.1516 19.4964 49.1532H15.7774C15.7468 49.1516 15.7163 49.1563 15.6877 49.167C15.659 49.1776 15.6328 49.194 15.6107 49.2151C15.5885 49.2361 15.5709 49.2615 15.5589 49.2896C15.5468 49.3177 15.5407 49.348 15.5407 49.3786V53.0638C15.5407 53.1266 15.5656 53.1868 15.61 53.2311C15.6544 53.2755 15.7146 53.3005 15.7774 53.3005H19.4964C19.5592 53.3005 19.6194 53.2755 19.6638 53.2311C19.7081 53.1868 19.7331 53.1266 19.7331 53.0638ZM19.7331 46.4033V42.7294C19.7331 42.6666 19.7081 42.6064 19.6638 42.562C19.6194 42.5176 19.5592 42.4927 19.4964 42.4927H15.7774C15.7146 42.4927 15.6544 42.5176 15.61 42.562C15.5656 42.6064 15.5407 42.6666 15.5407 42.7294V46.3921C15.5407 46.4548 15.5656 46.515 15.61 46.5594C15.6544 46.6038 15.7146 46.6287 15.7774 46.6287H19.4964C19.5592 46.6287 19.6194 46.6038 19.6638 46.5594C19.7081 46.515 19.7331 46.4548 19.7331 46.3921V46.4033ZM19.7331 39.7541V36.0689C19.7331 36.0061 19.7081 35.9459 19.6638 35.9015C19.6194 35.8572 19.5592 35.8322 19.4964 35.8322H15.7774C15.7146 35.8322 15.6544 35.8572 15.61 35.9015C15.5656 35.9459 15.5407 36.0061 15.5407 36.0689V39.7541C15.5407 39.7847 15.5468 39.815 15.5589 39.8431C15.5709 39.8712 15.5885 39.8965 15.6107 39.9176C15.6328 39.9387 15.659 39.9551 15.6877 39.9657C15.7163 39.9763 15.7468 39.9811 15.7774 39.9795H19.4964C19.5279 39.9811 19.5594 39.9761 19.5889 39.9648C19.6183 39.9535 19.6451 39.9361 19.6674 39.9138C19.6897 39.8915 19.707 39.8647 19.7184 39.8353C19.7297 39.8059 19.7347 39.7744 19.7331 39.7429V39.7541ZM19.7331 33.0937V29.3971C19.7331 29.3666 19.7269 29.3363 19.7149 29.3082C19.7029 29.2801 19.6853 29.2547 19.6631 29.2336C19.641 29.2126 19.6148 29.1962 19.5861 29.1856C19.5575 29.1749 19.527 29.1702 19.4964 29.1717H15.7774C15.7468 29.1702 15.7163 29.1749 15.6877 29.1856C15.659 29.1962 15.6328 29.2126 15.6107 29.2336C15.5885 29.2547 15.5709 29.2801 15.5589 29.3082C15.5468 29.3363 15.5407 29.3666 15.5407 29.3971V33.0824C15.5374 33.1148 15.5412 33.1475 15.5517 33.1783C15.5623 33.2092 15.5794 33.2373 15.6019 33.2609C15.6244 33.2845 15.6517 33.3029 15.682 33.3149C15.7123 33.3268 15.7448 33.3321 15.7774 33.3303H19.4964C19.5289 33.3321 19.5615 33.3268 19.5918 33.3149C19.6221 33.3029 19.6494 33.2845 19.6719 33.2609C19.6944 33.2373 19.7115 33.2092 19.7221 33.1783C19.7326 33.1475 19.7364 33.1148 19.7331 33.0824V33.0937ZM19.7331 26.4332V22.7479C19.7331 22.6852 19.7081 22.625 19.6638 22.5806C19.6194 22.5362 19.5592 22.5113 19.4964 22.5113H15.7774C15.7146 22.5113 15.6544 22.5362 15.61 22.5806C15.5656 22.625 15.5407 22.6852 15.5407 22.7479V26.4106C15.5407 26.4734 15.5656 26.5336 15.61 26.578C15.6544 26.6224 15.7146 26.6473 15.7774 26.6473H19.4964C19.5573 26.6474 19.6158 26.624 19.6599 26.582C19.704 26.54 19.7302 26.4827 19.7331 26.4219V26.4332ZM19.7331 16.0987C19.7331 16.036 19.7081 15.9758 19.6638 15.9314C19.6194 15.887 19.5592 15.8621 19.4964 15.8621H15.7774C15.7146 15.8621 15.6544 15.887 15.61 15.9314C15.5656 15.9758 15.5407 16.036 15.5407 16.0987V19.8065C15.5407 19.8693 15.5656 19.9295 15.61 19.9739C15.6544 20.0182 15.7146 20.0432 15.7774 20.0432H19.4964C19.5592 20.0432 19.6194 20.0182 19.6638 19.9739C19.7081 19.9295 19.7331 19.8693 19.7331 19.8065V16.0987Z" fill="#32393E"/>
<path d="M52.3818 19.5362H55.5824V16.313H52.3818V19.5362ZM51.9197 19.7616V16.0876C51.9182 16.0571 51.9229 16.0266 51.9335 15.9979C51.9442 15.9692 51.9605 15.943 51.9816 15.9209C52.0027 15.8988 52.0281 15.8811 52.0562 15.8691C52.0843 15.8571 52.1145 15.8509 52.1451 15.851H55.8303C55.8922 15.8537 55.9508 15.8795 55.9946 15.9233C56.0384 15.9671 56.0643 16.0257 56.067 16.0876V19.8067C56.0643 19.8685 56.0384 19.9272 55.9946 19.971C55.9508 20.0148 55.8922 20.0406 55.8303 20.0433H52.1451C52.1145 20.0434 52.0843 20.0372 52.0562 20.0252C52.0281 20.0131 52.0027 19.9955 51.9816 19.9734C51.9605 19.9512 51.9442 19.925 51.9335 19.8964C51.9229 19.8677 51.9182 19.8372 51.9197 19.8067V19.7616Z" fill="#32393E"/>
<path d="M52.3818 26.174H55.5824V22.9734H52.3818V26.174ZM51.9197 26.4107V22.748C51.9182 22.7174 51.9229 22.6869 51.9335 22.6582C51.9442 22.6296 51.9605 22.6034 51.9816 22.5812C52.0027 22.5591 52.0281 22.5415 52.0562 22.5295C52.0843 22.5174 52.1145 22.5113 52.1451 22.5113H55.8303C55.8922 22.514 55.9508 22.5399 55.9946 22.5837C56.0384 22.6275 56.0643 22.6861 56.067 22.748V26.4107C56.0643 26.4725 56.0384 26.5311 55.9946 26.5749C55.9508 26.6187 55.8922 26.6446 55.8303 26.6473H52.1451C52.0853 26.6473 52.028 26.6236 51.9857 26.5813C51.9435 26.539 51.9197 26.4817 51.9197 26.4219V26.4107Z" fill="#32393E"/>
<path d="M52.382 32.8457H55.5826V29.6451H52.382V32.8457ZM51.9199 33.0824V29.3972C51.9199 29.3374 51.9437 29.28 51.9859 29.2378C52.0282 29.1955 52.0855 29.1718 52.1453 29.1718H55.8306C55.8906 29.1742 55.9477 29.1985 55.9913 29.2399C56.0348 29.2814 56.0618 29.3373 56.0672 29.3972V33.0824C56.0618 33.1423 56.0348 33.1981 55.9913 33.2396C55.9477 33.2811 55.8906 33.3053 55.8306 33.3078H52.1453C52.0855 33.3078 52.0282 33.284 51.9859 33.2418C51.9437 33.1995 51.9199 33.1422 51.9199 33.0824Z" fill="#32393E"/>
<path d="M52.3818 39.5062H55.5824V36.3055H52.3818V39.5062ZM51.9197 39.7428V36.0689C51.9182 36.0383 51.9229 36.0078 51.9335 35.9792C51.9442 35.9505 51.9605 35.9243 51.9816 35.9022C52.0027 35.88 52.0281 35.8624 52.0562 35.8504C52.0843 35.8384 52.1145 35.8322 52.1451 35.8322H55.8303C55.8922 35.835 55.9508 35.8608 55.9946 35.9046C56.0384 35.9484 56.0643 36.007 56.067 36.0689V39.7541C56.0616 39.814 56.0346 39.8699 55.9911 39.9113C55.9475 39.9528 55.8904 39.977 55.8303 39.9795H52.1451C52.1145 39.9796 52.0843 39.9734 52.0562 39.9613C52.0281 39.9493 52.0027 39.9317 51.9816 39.9096C51.9605 39.8874 51.9442 39.8612 51.9335 39.8326C51.9229 39.8039 51.9182 39.7734 51.9197 39.7428Z" fill="#32393E"/>
<path d="M55.5937 42.9549H52.3818V46.178H55.5824L55.5937 42.9549ZM51.931 46.4034V42.7295C51.9295 42.6989 51.9342 42.6684 51.9448 42.6397C51.9554 42.6111 51.9718 42.5849 51.9929 42.5627C52.014 42.5406 52.0393 42.523 52.0674 42.511C52.0955 42.4989 52.1258 42.4928 52.1564 42.4928H55.8416C55.9035 42.4956 55.9621 42.5214 56.0059 42.5652C56.0497 42.609 56.0755 42.6676 56.0783 42.7295V46.3922C56.0755 46.454 56.0497 46.5127 56.0059 46.5565C55.9621 46.6003 55.9035 46.6261 55.8416 46.6288H52.1451C52.1145 46.6289 52.0843 46.6227 52.0562 46.6107C52.0281 46.5986 52.0027 46.581 51.9816 46.5589C51.9605 46.5367 51.9442 46.5105 51.9335 46.4819C51.9229 46.4532 51.9182 46.4227 51.9197 46.3922L51.931 46.4034Z" fill="#32393E"/>
<path d="M55.5937 52.816V49.6153H52.3818V52.816H55.5937ZM55.8303 53.3006H52.1451C52.1145 53.3006 52.0843 53.2944 52.0562 53.2824C52.0281 53.2704 52.0027 53.2527 51.9816 53.2306C51.9605 53.2085 51.9442 53.1823 51.9335 53.1536C51.9229 53.1249 51.9182 53.0944 51.9197 53.0639V49.3787C51.9197 49.3491 51.9255 49.3197 51.9369 49.2924C51.9482 49.2651 51.9648 49.2402 51.9857 49.2193C52.0067 49.1983 52.0315 49.1817 52.0589 49.1704C52.0862 49.1591 52.1155 49.1533 52.1451 49.1533H55.8303C55.8904 49.1557 55.9475 49.18 55.9911 49.2214C56.0346 49.2629 56.0616 49.3188 56.067 49.3787V53.0639C56.0643 53.1258 56.0384 53.1844 55.9946 53.2282C55.9508 53.272 55.8922 53.2978 55.8303 53.3006Z" fill="#32393E"/>
<path d="M19.2718 19.5362V16.313H16.0486V19.5362H19.2718ZM19.7339 16.0876V19.8067C19.7339 19.8694 19.7089 19.9296 19.6646 19.974C19.6202 20.0184 19.56 20.0433 19.4972 20.0433H15.7782C15.7154 20.0433 15.6552 20.0184 15.6108 19.974C15.5664 19.9296 15.5415 19.8694 15.5415 19.8067V16.0876C15.5415 16.0249 15.5664 15.9647 15.6108 15.9203C15.6552 15.8759 15.7154 15.851 15.7782 15.851H19.4972C19.56 15.851 19.6202 15.8759 19.6646 15.9203C19.7089 15.9647 19.7339 16.0249 19.7339 16.0876Z" fill="#32393E"/>
<path d="M19.2718 26.174V22.9734H16.0486V26.174H19.2718ZM19.7339 22.793V26.4557C19.7339 26.5185 19.7089 26.5787 19.6646 26.6231C19.6202 26.6675 19.56 26.6924 19.4972 26.6924H15.7782C15.7154 26.6924 15.6552 26.6675 15.6108 26.6231C15.5664 26.5787 15.5415 26.5185 15.5415 26.4557V22.748C15.5415 22.6852 15.5664 22.625 15.6108 22.5806C15.6552 22.5362 15.7154 22.5113 15.7782 22.5113H19.4972C19.56 22.5113 19.6202 22.5362 19.6646 22.5806C19.7089 22.625 19.7339 22.6852 19.7339 22.748V22.793Z" fill="#32393E"/>
<path d="M19.2718 32.8458V29.6451H16.0486V32.8458H19.2718ZM19.7339 29.3972V33.0824C19.7339 33.113 19.7277 33.1433 19.7157 33.1714C19.7037 33.1995 19.6861 33.2248 19.6639 33.2459C19.6418 33.267 19.6156 33.2834 19.5869 33.294C19.5583 33.3046 19.5277 33.3093 19.4972 33.3078H15.7782C15.7476 33.3093 15.7171 33.3046 15.6885 33.294C15.6598 33.2834 15.6336 33.267 15.6115 33.2459C15.5893 33.2248 15.5717 33.1995 15.5597 33.1714C15.5476 33.1433 15.5415 33.113 15.5415 33.0824V29.3972C15.5415 29.3666 15.5476 29.3364 15.5597 29.3082C15.5717 29.2801 15.5893 29.2548 15.6115 29.2337C15.6336 29.2126 15.6598 29.1962 15.6885 29.1856C15.7171 29.175 15.7476 29.1703 15.7782 29.1718H19.4972C19.5277 29.1703 19.5583 29.175 19.5869 29.1856C19.6156 29.1962 19.6418 29.2126 19.6639 29.2337C19.6861 29.2548 19.7037 29.2801 19.7157 29.3082C19.7277 29.3364 19.7339 29.3666 19.7339 29.3972Z" fill="#32393E"/>
<path d="M19.2718 39.5062V36.3055H16.0486V39.5062H19.2718ZM19.7339 36.0576V39.7428C19.7339 39.7734 19.7277 39.8037 19.7157 39.8318C19.7037 39.8599 19.6861 39.8853 19.6639 39.9063C19.6418 39.9274 19.6156 39.9438 19.5869 39.9544C19.5583 39.9651 19.5277 39.9698 19.4972 39.9682H15.7782C15.7476 39.9698 15.7171 39.9651 15.6885 39.9544C15.6598 39.9438 15.6336 39.9274 15.6115 39.9063C15.5893 39.8853 15.5717 39.8599 15.5597 39.8318C15.5476 39.8037 15.5415 39.7734 15.5415 39.7428V36.0689C15.5415 36.0061 15.5664 35.9459 15.6108 35.9015C15.6552 35.8571 15.7154 35.8322 15.7782 35.8322H19.4972C19.56 35.8322 19.6202 35.8571 19.6646 35.9015C19.7089 35.9459 19.7339 36.0061 19.7339 36.0689V36.0576Z" fill="#32393E"/>
<path d="M19.2718 46.178V42.9549H16.0486V46.178H19.2718ZM19.7339 42.7295V46.3922C19.7339 46.4549 19.7089 46.5151 19.6646 46.5595C19.6202 46.6039 19.56 46.6288 19.4972 46.6288H15.7782C15.7154 46.6288 15.6552 46.6039 15.6108 46.5595C15.5664 46.5151 15.5415 46.4549 15.5415 46.3922V42.7295C15.5415 42.6667 15.5664 42.6065 15.6108 42.5621C15.6552 42.5177 15.7154 42.4928 15.7782 42.4928H19.4972C19.56 42.4928 19.6202 42.5177 19.6646 42.5621C19.7089 42.6065 19.7339 42.6667 19.7339 42.7295Z" fill="#32393E"/>
<path d="M19.2714 52.816V49.6154H16.0482V52.816H19.2714ZM19.7334 49.3674V53.0527C19.7334 53.1154 19.7085 53.1756 19.6641 53.22C19.6197 53.2644 19.5595 53.2893 19.4968 53.2893H15.7777C15.7149 53.2893 15.6547 53.2644 15.6104 53.22C15.566 53.1756 15.541 53.1154 15.541 53.0527V49.3787C15.534 49.3446 15.5349 49.3093 15.5438 49.2757C15.5527 49.242 15.5692 49.2108 15.5921 49.1846C15.6151 49.1584 15.6438 49.1379 15.676 49.1246C15.7082 49.1114 15.743 49.1058 15.7777 49.1082H19.4968C19.5315 49.1058 19.5663 49.1114 19.5985 49.1246C19.6307 49.1379 19.6594 49.1584 19.6823 49.1846C19.7053 49.2108 19.7218 49.242 19.7307 49.2757C19.7395 49.3093 19.7405 49.3446 19.7334 49.3787V49.3674Z" fill="#32393E"/>
<path d="M0 13.4954H11.0332" stroke="#32393E" stroke-width="0.7" stroke-miterlimit="10"/>
<path d="M13.4675 0.264587V11.2865" stroke="#32393E" stroke-width="0.7" stroke-miterlimit="10"/>
<path d="M70.9997 55.5769H59.9666" stroke="#32393E" stroke-width="0.7" stroke-miterlimit="10"/>
<path d="M57.5325 68.8189V57.7858" stroke="#32393E" stroke-width="0.7" stroke-miterlimit="10"/>
<path d="M13.4675 69.0445V58.0226" stroke="#32393E" stroke-width="0.7" stroke-miterlimit="10"/>
<path d="M0.236816 55.5769H11.2587" stroke="#32393E" stroke-width="0.7" stroke-miterlimit="10"/>
<path d="M57.7688 0.0279541V11.0499" stroke="#32393E" stroke-width="0.7" stroke-miterlimit="10"/>
<path d="M71 13.4953H59.9668" stroke="#32393E" stroke-width="0.7" stroke-miterlimit="10"/>
</svg>
