<svg width="71" height="70" viewBox="0 0 71 70" fill="none" xmlns="http://www.w3.org/2000/svg">
<path d="M49.9925 53.9203V15.4H21.4122V53.9203H49.9925ZM51.9196 19.8065C51.9181 19.8371 51.9228 19.8676 51.9334 19.8962C51.9441 19.9249 51.9604 19.9511 51.9815 19.9732C52.0026 19.9954 52.028 20.013 52.0561 20.025C52.0842 20.037 52.1144 20.0432 52.145 20.0432H55.8302C55.8921 20.0404 55.9507 20.0146 55.9945 19.9708C56.0383 19.927 56.0641 19.8684 56.0669 19.8065V16.0875C56.0641 16.0256 56.0383 15.967 55.9945 15.9232C55.9507 15.8794 55.8921 15.8536 55.8302 15.8508H52.145C52.1144 15.8508 52.0842 15.8569 52.0561 15.869C52.028 15.881 52.0026 15.8986 51.9815 15.9208C51.9604 15.9429 51.9441 15.9691 51.9334 15.9978C51.9228 16.0264 51.9181 16.0569 51.9196 16.0875V19.8065ZM51.9196 26.467C51.9181 26.4975 51.9228 26.528 51.9334 26.5567C51.9441 26.5854 51.9604 26.6116 51.9815 26.6337C52.0026 26.6558 52.028 26.6735 52.0561 26.6855C52.0842 26.6975 52.1144 26.7037 52.145 26.7037H55.8302C55.8921 26.7009 55.9507 26.6751 55.9945 26.6313C56.0383 26.5875 56.0641 26.5289 56.0669 26.467V22.7479C56.0641 22.6861 56.0383 22.6275 55.9945 22.5836C55.9507 22.5398 55.8921 22.514 55.8302 22.5113H52.145C52.1144 22.5112 52.0842 22.5174 52.0561 22.5294C52.028 22.5415 52.0026 22.5591 51.9815 22.5812C51.9604 22.6034 51.9441 22.6296 51.9334 22.6582C51.9228 22.6869 51.9181 22.7174 51.9196 22.7479V26.467ZM51.9196 33.1275C51.9196 33.1872 51.9433 33.2446 51.9856 33.2868C52.0279 33.3291 52.0852 33.3529 52.145 33.3529H55.8302C55.8903 33.3504 55.9474 33.3261 55.991 33.2847C56.0345 33.2432 56.0615 33.1873 56.0669 33.1275V29.3971C56.0615 29.3373 56.0345 29.2814 55.991 29.2399C55.9474 29.1985 55.8903 29.1742 55.8302 29.1717H52.145C52.0852 29.1717 52.0279 29.1955 51.9856 29.2378C51.9433 29.28 51.9196 29.3374 51.9196 29.3971V33.1275ZM51.9196 39.7879C51.9196 39.8477 51.9433 39.905 51.9856 39.9473C52.0279 39.9896 52.0852 40.0133 52.145 40.0133H55.8302C55.8903 40.0108 55.9474 39.9866 55.991 39.9451C56.0345 39.9037 56.0615 39.8478 56.0669 39.7879V36.0689C56.0641 36.007 56.0383 35.9484 55.9945 35.9046C55.9507 35.8608 55.8921 35.835 55.8302 35.8322H52.145C52.1144 35.8322 52.0842 35.8384 52.0561 35.8504C52.028 35.8624 52.0026 35.88 51.9815 35.9022C51.9604 35.9243 51.9441 35.9505 51.9334 35.9792C51.9228 36.0078 51.9181 36.0384 51.9196 36.0689V39.7879ZM51.9196 46.4371C51.9181 46.4677 51.9228 46.4982 51.9334 46.5269C51.9441 46.5555 51.9604 46.5817 51.9815 46.6039C52.0026 46.626 52.028 46.6436 52.0561 46.6556C52.0842 46.6677 52.1144 46.6738 52.145 46.6738H55.8302C55.8921 46.671 55.9507 46.6452 55.9945 46.6014C56.0383 46.5576 56.0641 46.499 56.0669 46.4371V42.7294C56.0641 42.6675 56.0383 42.6089 55.9945 42.5651C55.9507 42.5213 55.8921 42.4954 55.8302 42.4927H52.145C52.1144 42.4927 52.0842 42.4988 52.0561 42.5109C52.028 42.5229 52.0026 42.5405 51.9815 42.5626C51.9604 42.5848 51.9441 42.611 51.9334 42.6396C51.9228 42.6683 51.9181 42.6988 51.9196 42.7294V46.4371ZM52.145 53.3455H55.8302C55.8921 53.3428 55.9507 53.317 55.9945 53.2732C56.0383 53.2294 56.0641 53.1708 56.0669 53.1089V49.3786C56.0615 49.3187 56.0345 49.2628 55.991 49.2213C55.9474 49.1799 55.8903 49.1557 55.8302 49.1532H52.145C52.1154 49.1532 52.0861 49.159 52.0587 49.1703C52.0314 49.1816 52.0065 49.1982 51.9856 49.2192C51.9647 49.2401 51.9481 49.265 51.9368 49.2923C51.9254 49.3197 51.9196 49.349 51.9196 49.3786V53.0638C51.9181 53.0943 51.9228 53.1249 51.9334 53.1535C51.9441 53.1822 51.9604 53.2084 51.9815 53.2305C52.0026 53.2527 52.028 53.2703 52.0561 53.2823C52.0842 53.2943 52.1144 53.3005 52.145 53.3005V53.3455ZM13.6022 13.7433H57.8475V55.577H13.6022V13.7433ZM19.733 53.0638V49.3786C19.733 49.348 19.7268 49.3177 19.7148 49.2896C19.7028 49.2615 19.6851 49.2361 19.663 49.2151C19.6409 49.194 19.6147 49.1776 19.586 49.167C19.5574 49.1563 19.5268 49.1516 19.4963 49.1532H15.7773C15.7467 49.1516 15.7162 49.1563 15.6875 49.167C15.6589 49.1776 15.6327 49.194 15.6105 49.2151C15.5884 49.2361 15.5708 49.2615 15.5588 49.2896C15.5467 49.3177 15.5405 49.348 15.5406 49.3786V53.0638C15.5406 53.1266 15.5655 53.1868 15.6099 53.2311C15.6543 53.2755 15.7145 53.3005 15.7773 53.3005H19.4963C19.5591 53.3005 19.6193 53.2755 19.6636 53.2311C19.708 53.1868 19.733 53.1266 19.733 53.0638ZM19.733 46.4033V42.7294C19.733 42.6666 19.708 42.6064 19.6636 42.562C19.6193 42.5176 19.5591 42.4927 19.4963 42.4927H15.7773C15.7145 42.4927 15.6543 42.5176 15.6099 42.562C15.5655 42.6064 15.5406 42.6666 15.5406 42.7294V46.3921C15.5406 46.4548 15.5655 46.515 15.6099 46.5594C15.6543 46.6038 15.7145 46.6287 15.7773 46.6287H19.4963C19.5591 46.6287 19.6193 46.6038 19.6636 46.5594C19.708 46.515 19.733 46.4548 19.733 46.3921V46.4033ZM19.733 39.7541V36.0689C19.733 36.0061 19.708 35.9459 19.6636 35.9015C19.6193 35.8572 19.5591 35.8322 19.4963 35.8322H15.7773C15.7145 35.8322 15.6543 35.8572 15.6099 35.9015C15.5655 35.9459 15.5406 36.0061 15.5406 36.0689V39.7541C15.5405 39.7847 15.5467 39.815 15.5588 39.8431C15.5708 39.8712 15.5884 39.8965 15.6105 39.9176C15.6327 39.9387 15.6589 39.9551 15.6875 39.9657C15.7162 39.9763 15.7467 39.9811 15.7773 39.9795H19.4963C19.5278 39.9811 19.5593 39.9761 19.5887 39.9648C19.6182 39.9535 19.6449 39.9361 19.6672 39.9138C19.6895 39.8915 19.7069 39.8647 19.7182 39.8353C19.7296 39.8059 19.7346 39.7744 19.733 39.7429V39.7541ZM19.733 33.0937V29.3971C19.733 29.3666 19.7268 29.3363 19.7148 29.3082C19.7028 29.2801 19.6851 29.2547 19.663 29.2336C19.6409 29.2126 19.6147 29.1962 19.586 29.1856C19.5574 29.1749 19.5268 29.1702 19.4963 29.1717H15.7773C15.7467 29.1702 15.7162 29.1749 15.6875 29.1856C15.6589 29.1962 15.6327 29.2126 15.6105 29.2336C15.5884 29.2547 15.5708 29.2801 15.5588 29.3082C15.5467 29.3363 15.5405 29.3666 15.5406 29.3971V33.0824C15.5373 33.1148 15.541 33.1475 15.5516 33.1783C15.5622 33.2092 15.5793 33.2373 15.6018 33.2609C15.6243 33.2845 15.6516 33.3029 15.6819 33.3149C15.7122 33.3268 15.7447 33.3321 15.7773 33.3303H19.4963C19.5288 33.3321 19.5614 33.3268 19.5916 33.3149C19.6219 33.3029 19.6493 33.2845 19.6718 33.2609C19.6943 33.2373 19.7114 33.2092 19.7219 33.1783C19.7325 33.1475 19.7363 33.1148 19.733 33.0824V33.0937ZM19.733 26.4332V22.7479C19.733 22.6852 19.708 22.625 19.6636 22.5806C19.6193 22.5362 19.5591 22.5113 19.4963 22.5113H15.7773C15.7145 22.5113 15.6543 22.5362 15.6099 22.5806C15.5655 22.625 15.5406 22.6852 15.5406 22.7479V26.4106C15.5406 26.4734 15.5655 26.5336 15.6099 26.578C15.6543 26.6224 15.7145 26.6473 15.7773 26.6473H19.4963C19.5572 26.6474 19.6157 26.624 19.6598 26.582C19.7039 26.54 19.7301 26.4827 19.733 26.4219V26.4332ZM19.733 16.0987C19.733 16.036 19.708 15.9758 19.6636 15.9314C19.6193 15.887 19.5591 15.8621 19.4963 15.8621H15.7773C15.7145 15.8621 15.6543 15.887 15.6099 15.9314C15.5655 15.9758 15.5406 16.036 15.5406 16.0987V19.8065C15.5406 19.8693 15.5655 19.9295 15.6099 19.9739C15.6543 20.0182 15.7145 20.0432 15.7773 20.0432H19.4963C19.5591 20.0432 19.6193 20.0182 19.6636 19.9739C19.708 19.9295 19.733 19.8693 19.733 19.8065V16.0987Z" fill="#FC4B15"/>
<path d="M52.3817 19.5362H55.5823V16.313H52.3817V19.5362ZM51.9196 19.7616V16.0876C51.9181 16.0571 51.9228 16.0266 51.9334 15.9979C51.944 15.9692 51.9604 15.943 51.9815 15.9209C52.0026 15.8988 52.0279 15.8811 52.0561 15.8691C52.0842 15.8571 52.1144 15.8509 52.145 15.851H55.8302C55.8921 15.8537 55.9507 15.8795 55.9945 15.9233C56.0383 15.9671 56.0641 16.0257 56.0669 16.0876V19.8067C56.0641 19.8685 56.0383 19.9272 55.9945 19.971C55.9507 20.0148 55.8921 20.0406 55.8302 20.0433H52.145C52.1144 20.0434 52.0842 20.0372 52.0561 20.0252C52.0279 20.0131 52.0026 19.9955 51.9815 19.9734C51.9604 19.9512 51.944 19.925 51.9334 19.8964C51.9228 19.8677 51.9181 19.8372 51.9196 19.8067V19.7616Z" fill="#FC4B15"/>
<path d="M52.3817 26.174H55.5823V22.9734H52.3817V26.174ZM51.9196 26.4107V22.748C51.9181 22.7174 51.9228 22.6869 51.9334 22.6582C51.944 22.6296 51.9604 22.6034 51.9815 22.5812C52.0026 22.5591 52.0279 22.5415 52.0561 22.5295C52.0842 22.5174 52.1144 22.5113 52.145 22.5113H55.8302C55.8921 22.514 55.9507 22.5399 55.9945 22.5837C56.0383 22.6275 56.0641 22.6861 56.0669 22.748V26.4107C56.0641 26.4725 56.0383 26.5311 55.9945 26.5749C55.9507 26.6187 55.8921 26.6446 55.8302 26.6473H52.145C52.0852 26.6473 52.0279 26.6236 51.9856 26.5813C51.9433 26.539 51.9196 26.4817 51.9196 26.4219V26.4107Z" fill="#FC4B15"/>
<path d="M52.382 32.8457H55.5826V29.6451H52.382V32.8457ZM51.9199 33.0824V29.3972C51.9199 29.3374 51.9437 29.28 51.9859 29.2378C52.0282 29.1955 52.0855 29.1718 52.1453 29.1718H55.8306C55.8906 29.1742 55.9477 29.1985 55.9913 29.2399C56.0348 29.2814 56.0618 29.3373 56.0672 29.3972V33.0824C56.0618 33.1423 56.0348 33.1981 55.9913 33.2396C55.9477 33.2811 55.8906 33.3053 55.8306 33.3078H52.1453C52.0855 33.3078 52.0282 33.284 51.9859 33.2418C51.9437 33.1995 51.9199 33.1422 51.9199 33.0824Z" fill="#FC4B15"/>
<path d="M52.3817 39.5062H55.5823V36.3055H52.3817V39.5062ZM51.9196 39.7428V36.0689C51.9181 36.0383 51.9228 36.0078 51.9334 35.9792C51.944 35.9505 51.9604 35.9243 51.9815 35.9022C52.0026 35.88 52.0279 35.8624 52.0561 35.8504C52.0842 35.8384 52.1144 35.8322 52.145 35.8322H55.8302C55.8921 35.835 55.9507 35.8608 55.9945 35.9046C56.0383 35.9484 56.0641 36.007 56.0669 36.0689V39.7541C56.0615 39.814 56.0345 39.8699 55.991 39.9113C55.9474 39.9528 55.8903 39.977 55.8302 39.9795H52.145C52.1144 39.9796 52.0842 39.9734 52.0561 39.9613C52.0279 39.9493 52.0026 39.9317 51.9815 39.9096C51.9604 39.8874 51.944 39.8612 51.9334 39.8326C51.9228 39.8039 51.9181 39.7734 51.9196 39.7428Z" fill="#FC4B15"/>
<path d="M55.5936 42.9549H52.3817V46.178H55.5823L55.5936 42.9549ZM51.9309 46.4034V42.7295C51.9293 42.6989 51.934 42.6684 51.9447 42.6397C51.9553 42.6111 51.9717 42.5849 51.9928 42.5627C52.0138 42.5406 52.0392 42.523 52.0673 42.511C52.0954 42.4989 52.1257 42.4928 52.1563 42.4928H55.8415C55.9034 42.4956 55.962 42.5214 56.0058 42.5652C56.0496 42.609 56.0754 42.6676 56.0782 42.7295V46.3922C56.0754 46.454 56.0496 46.5127 56.0058 46.5565C55.962 46.6003 55.9034 46.6261 55.8415 46.6288H52.145C52.1144 46.6289 52.0842 46.6227 52.0561 46.6107C52.0279 46.5986 52.0026 46.581 51.9815 46.5589C51.9604 46.5367 51.944 46.5105 51.9334 46.4819C51.9228 46.4532 51.9181 46.4227 51.9196 46.3922L51.9309 46.4034Z" fill="#FC4B15"/>
<path d="M55.5936 52.816V49.6153H52.3817V52.816H55.5936ZM55.8302 53.3006H52.145C52.1144 53.3006 52.0842 53.2944 52.0561 53.2824C52.0279 53.2704 52.0026 53.2527 51.9815 53.2306C51.9604 53.2085 51.944 53.1823 51.9334 53.1536C51.9228 53.1249 51.9181 53.0944 51.9196 53.0639V49.3787C51.9196 49.3491 51.9254 49.3197 51.9368 49.2924C51.9481 49.2651 51.9647 49.2402 51.9856 49.2193C52.0065 49.1983 52.0314 49.1817 52.0587 49.1704C52.0861 49.1591 52.1154 49.1533 52.145 49.1533H55.8302C55.8903 49.1557 55.9474 49.18 55.991 49.2214C56.0345 49.2629 56.0615 49.3188 56.0669 49.3787V53.0639C56.0641 53.1258 56.0383 53.1844 55.9945 53.2282C55.9507 53.272 55.8921 53.2978 55.8302 53.3006Z" fill="#FC4B15"/>
<path d="M19.2716 19.5362V16.313H16.0484V19.5362H19.2716ZM19.7336 16.0876V19.8067C19.7336 19.8694 19.7087 19.9296 19.6643 19.974C19.6199 20.0184 19.5597 20.0433 19.497 20.0433H15.7779C15.7152 20.0433 15.655 20.0184 15.6106 19.974C15.5662 19.9296 15.5413 19.8694 15.5413 19.8067V16.0876C15.5413 16.0249 15.5662 15.9647 15.6106 15.9203C15.655 15.8759 15.7152 15.851 15.7779 15.851H19.497C19.5597 15.851 19.6199 15.8759 19.6643 15.9203C19.7087 15.9647 19.7336 16.0249 19.7336 16.0876Z" fill="#FC4B15"/>
<path d="M19.2716 26.174V22.9734H16.0484V26.174H19.2716ZM19.7336 22.793V26.4557C19.7336 26.5185 19.7087 26.5787 19.6643 26.6231C19.6199 26.6675 19.5597 26.6924 19.497 26.6924H15.7779C15.7152 26.6924 15.655 26.6675 15.6106 26.6231C15.5662 26.5787 15.5413 26.5185 15.5413 26.4557V22.748C15.5413 22.6852 15.5662 22.625 15.6106 22.5806C15.655 22.5362 15.7152 22.5113 15.7779 22.5113H19.497C19.5597 22.5113 19.6199 22.5362 19.6643 22.5806C19.7087 22.625 19.7336 22.6852 19.7336 22.748V22.793Z" fill="#FC4B15"/>
<path d="M19.2716 32.8458V29.6451H16.0484V32.8458H19.2716ZM19.7336 29.3972V33.0824C19.7337 33.113 19.7275 33.1433 19.7155 33.1714C19.7034 33.1995 19.6858 33.2248 19.6637 33.2459C19.6415 33.267 19.6154 33.2834 19.5867 33.294C19.558 33.3046 19.5275 33.3093 19.497 33.3078H15.7779C15.7474 33.3093 15.7169 33.3046 15.6882 33.294C15.6595 33.2834 15.6333 33.267 15.6112 33.2459C15.5891 33.2248 15.5715 33.1995 15.5594 33.1714C15.5474 33.1433 15.5412 33.113 15.5413 33.0824V29.3972C15.5412 29.3666 15.5474 29.3364 15.5594 29.3082C15.5715 29.2801 15.5891 29.2548 15.6112 29.2337C15.6333 29.2126 15.6595 29.1962 15.6882 29.1856C15.7169 29.175 15.7474 29.1703 15.7779 29.1718H19.497C19.5275 29.1703 19.558 29.175 19.5867 29.1856C19.6154 29.1962 19.6415 29.2126 19.6637 29.2337C19.6858 29.2548 19.7034 29.2801 19.7155 29.3082C19.7275 29.3364 19.7337 29.3666 19.7336 29.3972Z" fill="#FC4B15"/>
<path d="M19.2716 39.5062V36.3055H16.0484V39.5062H19.2716ZM19.7336 36.0576V39.7428C19.7337 39.7734 19.7275 39.8037 19.7155 39.8318C19.7034 39.8599 19.6858 39.8853 19.6637 39.9063C19.6415 39.9274 19.6154 39.9438 19.5867 39.9544C19.558 39.9651 19.5275 39.9698 19.497 39.9682H15.7779C15.7474 39.9698 15.7169 39.9651 15.6882 39.9544C15.6595 39.9438 15.6333 39.9274 15.6112 39.9063C15.5891 39.8853 15.5715 39.8599 15.5594 39.8318C15.5474 39.8037 15.5412 39.7734 15.5413 39.7428V36.0689C15.5413 36.0061 15.5662 35.9459 15.6106 35.9015C15.655 35.8571 15.7152 35.8322 15.7779 35.8322H19.497C19.5597 35.8322 19.6199 35.8571 19.6643 35.9015C19.7087 35.9459 19.7336 36.0061 19.7336 36.0689V36.0576Z" fill="#FC4B15"/>
<path d="M19.2716 46.178V42.9549H16.0484V46.178H19.2716ZM19.7336 42.7295V46.3922C19.7336 46.4549 19.7087 46.5151 19.6643 46.5595C19.6199 46.6039 19.5597 46.6288 19.497 46.6288H15.7779C15.7152 46.6288 15.655 46.6039 15.6106 46.5595C15.5662 46.5151 15.5413 46.4549 15.5413 46.3922V42.7295C15.5413 42.6667 15.5662 42.6065 15.6106 42.5621C15.655 42.5177 15.7152 42.4928 15.7779 42.4928H19.497C19.5597 42.4928 19.6199 42.5177 19.6643 42.5621C19.7087 42.6065 19.7336 42.6667 19.7336 42.7295Z" fill="#FC4B15"/>
<path d="M19.2714 52.816V49.6154H16.0482V52.816H19.2714ZM19.7334 49.3674V53.0527C19.7334 53.1154 19.7085 53.1756 19.6641 53.22C19.6197 53.2644 19.5595 53.2893 19.4968 53.2893H15.7777C15.7149 53.2893 15.6547 53.2644 15.6104 53.22C15.566 53.1756 15.541 53.1154 15.541 53.0527V49.3787C15.534 49.3446 15.5349 49.3093 15.5438 49.2757C15.5527 49.242 15.5692 49.2108 15.5921 49.1846C15.6151 49.1584 15.6438 49.1379 15.676 49.1246C15.7082 49.1114 15.743 49.1058 15.7777 49.1082H19.4968C19.5315 49.1058 19.5663 49.1114 19.5985 49.1246C19.6307 49.1379 19.6594 49.1584 19.6823 49.1846C19.7053 49.2108 19.7218 49.242 19.7307 49.2757C19.7395 49.3093 19.7405 49.3446 19.7334 49.3787V49.3674Z" fill="#FC4B15"/>
<path d="M0 13.4954H11.0332" stroke="#FC4B15" stroke-width="0.7" stroke-miterlimit="10"/>
<path d="M13.4675 0.264587V11.2865" stroke="#FC4B15" stroke-width="0.7" stroke-miterlimit="10"/>
<path d="M70.9998 55.5769H59.9667" stroke="#FC4B15" stroke-width="0.7" stroke-miterlimit="10"/>
<path d="M57.5325 68.8189V57.7858" stroke="#FC4B15" stroke-width="0.7" stroke-miterlimit="10"/>
<path d="M13.4674 69.0445V58.0226" stroke="#FC4B15" stroke-width="0.7" stroke-miterlimit="10"/>
<path d="M0.236694 55.5769H11.2586" stroke="#FC4B15" stroke-width="0.7" stroke-miterlimit="10"/>
<path d="M57.7687 0.0279541V11.0499" stroke="#FC4B15" stroke-width="0.7" stroke-miterlimit="10"/>
<path d="M71 13.4953H59.9668" stroke="#FC4B15" stroke-width="0.7" stroke-miterlimit="10"/>
</svg>
