<svg width="52" height="51" viewBox="0 0 52 51" fill="none" xmlns="http://www.w3.org/2000/svg">
<path fill-rule="evenodd" clip-rule="evenodd" d="M45 0H0V43H45V0ZM37 2H8V41H37V2ZM2.01685 2.20093C2.021 2.18896 2.02588 2.17737 2.03149 2.16614L2.03784 2.15393L2.04614 2.14026C2.05078 2.13281 2.05566 2.12561 2.06104 2.11865C2.0686 2.10876 2.07666 2.09937 2.08545 2.09045C2.13989 2.03467 2.21582 2 2.30005 2H5.69995C5.86572 2 6 2.13428 6 2.30005V5.69995C6 5.86572 5.86572 6 5.69995 6H2.30005C2.13428 6 2 5.86572 2 5.69995V2.30005C2 2.26526 2.00586 2.23193 2.01685 2.20093ZM39.3 2C39.1343 2 39 2.13428 39 2.30005V5.69995C39 5.86572 39.1343 6 39.3 6H42.7C42.7134 6 42.7268 5.99915 42.7397 5.99744C42.783 5.9917 42.823 5.97681 42.8584 5.95483C42.8752 5.94434 42.8911 5.93213 42.9055 5.91858C42.9272 5.89819 42.9458 5.87463 42.9607 5.84863C42.9763 5.82117 42.9878 5.79102 42.9941 5.75903C42.998 5.73999 43 5.72021 43 5.69995V2.30005C43 2.13428 42.8657 2 42.7 2H39.3ZM2 9.30005C2 9.13428 2.13428 9 2.30005 9H5.69995C5.86572 9 6 9.13428 6 9.30005V12.7C6 12.8351 5.91089 12.9493 5.78784 12.9868C5.76001 12.9954 5.73047 13 5.69995 13H2.30005C2.13428 13 2 12.8657 2 12.7V9.30005ZM39.3 9C39.1343 9 39 9.13428 39 9.30005V12.7C39 12.8657 39.1343 13 39.3 13H42.7C42.7827 13 42.8574 12.9667 42.9116 12.9126C42.9663 12.8583 43 12.7831 43 12.7V9.30005C43 9.13428 42.8657 9 42.7 9H39.3ZM2 16.3C2 16.1343 2.13428 16 2.30005 16H5.69995C5.86572 16 6 16.1343 6 16.3V19.7C6 19.8657 5.86572 20 5.69995 20H2.30005C2.13428 20 2 19.8657 2 19.7V16.3ZM39.3 16C39.1343 16 39 16.1343 39 16.3V19.7C39 19.8657 39.1343 20 39.3 20H42.7C42.8657 20 43 19.8657 43 19.7V16.3C43 16.2184 42.9675 16.1444 42.9146 16.0903C42.8601 16.0345 42.7842 16 42.7 16H39.3ZM2 23.3C2 23.2271 2.02612 23.1602 2.06934 23.1082C2.12427 23.0421 2.20728 23 2.30005 23H5.69995C5.86572 23 6 23.1343 6 23.3V26.7C6 26.8657 5.86572 27 5.69995 27H2.30005C2.21436 27 2.13721 26.9642 2.08252 26.9067C2.05518 26.8778 2.03345 26.8434 2.01904 26.8053C2.00684 26.7726 2 26.7371 2 26.7V23.3ZM39.3 23C39.1343 23 39 23.1343 39 23.3V26.7C39 26.8657 39.1343 27 39.3 27H42.7C42.8657 27 43 26.8657 43 26.7V23.3C43 23.1343 42.8657 23 42.7 23H39.3ZM2.17236 30.0283C2.21118 30.0101 2.25439 30 2.30005 30H5.69995C5.73511 30 5.7688 30.0061 5.80029 30.0172C5.82397 30.0255 5.84644 30.0369 5.86694 30.0507C5.89722 30.0709 5.92358 30.0966 5.94458 30.1263C5.97949 30.1754 6 30.2354 6 30.3V33.7C6 33.8657 5.86572 34 5.69995 34H2.30005C2.13428 34 2 33.8657 2 33.7V30.3C2 30.2186 2.03247 30.1447 2.08521 30.0906C2.11011 30.0649 2.13965 30.0438 2.17236 30.0283ZM39.1226 30.0581C39.0845 30.0862 39.0532 30.123 39.0317 30.1656C39.0217 30.1858 39.0139 30.2073 39.0085 30.2296C39.0029 30.2522 39 30.2758 39 30.3V33.7C39 33.8657 39.1343 34 39.3 34H42.7C42.791 34 42.8726 33.9595 42.9275 33.8956C42.9727 33.8431 43 33.7748 43 33.7V30.3C43 30.1343 42.8657 30 42.7 30H39.3C39.2742 30 39.249 30.0033 39.2251 30.0094C39.1877 30.019 39.1531 30.0358 39.1226 30.0581ZM2 37.3C2 37.1343 2.13428 37 2.30005 37H5.69995C5.86572 37 6 37.1343 6 37.3V40.7C6 40.8657 5.86572 41 5.69995 41H2.30005C2.13428 41 2 40.8657 2 40.7V37.3ZM39.3 37C39.1343 37 39 37.1343 39 37.3V40.7C39 40.8657 39.1343 41 39.3 41H42.7C42.8657 41 43 40.8657 43 40.7V37.3C43 37.1343 42.8657 37 42.7 37H39.3Z" fill="#FC4B15"/>
<path d="M50.7895 28.7729H30.9009C30.3179 28.7729 29.8452 29.2456 29.8452 29.8287V49.7172C29.8452 50.3003 30.3179 50.7729 30.9009 50.7729H50.7895C51.3726 50.7729 51.8452 50.3003 51.8452 49.7172V29.8287C51.8452 29.2456 51.3726 28.7729 50.7895 28.7729Z" fill="#FC4B15"/>
<path d="M47.7194 39.779H33.9709M40.8512 32.8987V46.6472" stroke="white" stroke-miterlimit="10"/>
</svg>
