<svg width="71" height="74" viewBox="0 0 71 74" fill="none" xmlns="http://www.w3.org/2000/svg">
<path d="M44.6178 53.5144V14.5904H15.4954V53.5144H44.6178ZM46.5984 18.981C46.5967 19.0118 46.6012 19.0426 46.6115 19.0717C46.6219 19.1008 46.638 19.1275 46.6588 19.1504C46.6796 19.1733 46.7048 19.192 46.7329 19.2052C46.761 19.2185 46.7915 19.2261 46.8226 19.2277H50.5594C50.5921 19.2277 50.6245 19.2213 50.6548 19.2089C50.685 19.1965 50.7124 19.1783 50.7356 19.1554C50.7587 19.1325 50.7771 19.1053 50.7896 19.0754C50.8021 19.0455 50.8085 19.0134 50.8085 18.981V15.281C50.8085 15.2486 50.8021 15.2166 50.7896 15.1866C50.7771 15.1567 50.7587 15.1295 50.7356 15.1066C50.7124 15.0837 50.685 15.0655 50.6548 15.0531C50.6245 15.0407 50.5921 15.0344 50.5594 15.0344H46.8226C46.7915 15.0359 46.761 15.0436 46.7329 15.0568C46.7048 15.0701 46.6796 15.0887 46.6588 15.1116C46.638 15.1345 46.6219 15.1613 46.6115 15.1904C46.6012 15.2194 46.5967 15.2502 46.5984 15.281V18.981ZM46.5984 25.715C46.5967 25.7458 46.6012 25.7766 46.6115 25.8057C46.6219 25.8348 46.638 25.8615 46.6588 25.8844C46.6796 25.9073 46.7048 25.926 46.7329 25.9392C46.761 25.9525 46.7915 25.9601 46.8226 25.9617H50.5594C50.5921 25.9617 50.6245 25.9553 50.6548 25.9429C50.685 25.9305 50.7124 25.9123 50.7356 25.8894C50.7587 25.8665 50.7771 25.8393 50.7896 25.8094C50.8021 25.7795 50.8085 25.7474 50.8085 25.715V22.015C50.8085 21.9826 50.8021 21.9506 50.7896 21.9206C50.7771 21.8907 50.7587 21.8635 50.7356 21.8406C50.7124 21.8177 50.685 21.7995 50.6548 21.7871C50.6245 21.7747 50.5921 21.7684 50.5594 21.7684H46.8226C46.7915 21.7699 46.761 21.7776 46.7329 21.7908C46.7048 21.8041 46.6796 21.8227 46.6588 21.8456C46.638 21.8685 46.6219 21.8953 46.6115 21.9244C46.6012 21.9534 46.5967 21.9842 46.5984 22.015V25.715ZM46.5984 32.449C46.6014 32.5069 46.626 32.5617 46.6674 32.6027C46.7088 32.6437 46.7641 32.6681 46.8226 32.671H50.5594C50.6214 32.6713 50.6813 32.6488 50.7273 32.6077C50.7734 32.5667 50.8023 32.5101 50.8085 32.449V28.749C50.8023 28.688 50.7734 28.6314 50.7273 28.5903C50.6813 28.5493 50.6214 28.5267 50.5594 28.527H46.8226C46.7641 28.53 46.7088 28.5543 46.6674 28.5954C46.626 28.6364 46.6014 28.6911 46.5984 28.749V32.449ZM46.5984 39.183C46.6014 39.2409 46.626 39.2957 46.6674 39.3367C46.7088 39.3777 46.7641 39.402 46.8226 39.405H50.5594C50.6214 39.4053 50.6813 39.3828 50.7273 39.3417C50.7734 39.3007 50.8023 39.2441 50.8085 39.183V35.483C50.8085 35.4506 50.8021 35.4186 50.7896 35.3886C50.7771 35.3587 50.7587 35.3315 50.7356 35.3086C50.7124 35.2857 50.685 35.2675 50.6548 35.2551C50.6245 35.2427 50.5921 35.2364 50.5594 35.2364H46.8226C46.7915 35.2379 46.761 35.2456 46.7329 35.2588C46.7048 35.2721 46.6796 35.2907 46.6588 35.3136C46.638 35.3365 46.6219 35.3633 46.6115 35.3924C46.6012 35.4214 46.5967 35.4522 46.5984 35.483V39.183ZM46.5984 45.9047C46.5967 45.9355 46.6012 45.9663 46.6115 45.9953C46.6219 46.0244 46.638 46.0512 46.6588 46.0741C46.6796 46.097 46.7048 46.1156 46.7329 46.1289C46.761 46.1421 46.7915 46.1498 46.8226 46.1514H50.5594C50.5921 46.1514 50.6245 46.145 50.6548 46.1326C50.685 46.1202 50.7124 46.102 50.7356 46.0791C50.7587 46.0562 50.7771 46.029 50.7896 45.9991C50.8021 45.9692 50.8085 45.9371 50.8085 45.9047V42.2047C50.8085 42.1723 50.8021 42.1402 50.7896 42.1103C50.7771 42.0804 50.7587 42.0532 50.7356 42.0303C50.7124 42.0074 50.685 41.9892 50.6548 41.9768C50.6245 41.9644 50.5921 41.958 50.5594 41.958H46.8226C46.7915 41.9596 46.761 41.9672 46.7329 41.9805C46.7048 41.9938 46.6796 42.0124 46.6588 42.0353C46.638 42.0582 46.6219 42.085 46.6115 42.114C46.6012 42.1431 46.5967 42.1739 46.5984 42.2047V45.9047ZM46.8226 52.8854H50.5594C50.5921 52.8854 50.6245 52.879 50.6548 52.8666C50.685 52.8542 50.7124 52.836 50.7356 52.8131C50.7587 52.7902 50.7771 52.763 50.7896 52.7331C50.8021 52.7032 50.8085 52.6711 50.8085 52.6387V48.9387C50.8023 48.8776 50.7734 48.8211 50.7273 48.78C50.6813 48.739 50.6214 48.7164 50.5594 48.7167H46.8226C46.7641 48.7197 46.7088 48.744 46.6674 48.785C46.626 48.826 46.6014 48.8808 46.5984 48.9387V52.6387C46.5967 52.6695 46.6012 52.7003 46.6115 52.7294C46.6219 52.7584 46.638 52.7852 46.6588 52.8081C46.6796 52.831 46.7048 52.8496 46.7329 52.8629C46.761 52.8761 46.7915 52.8838 46.8226 52.8854ZM7.47363 12.913H52.6396V55.1917H7.47363V12.913ZM13.7017 52.651V48.951C13.7001 48.9202 13.6924 48.8901 13.679 48.8622C13.6656 48.8344 13.6468 48.8095 13.6237 48.7888C13.6005 48.7682 13.5735 48.7523 13.5441 48.7421C13.5148 48.7318 13.4837 48.7274 13.4526 48.729H9.71574C9.68465 48.7274 9.65353 48.7318 9.62418 48.7421C9.59482 48.7523 9.56779 48.7682 9.54465 48.7888C9.52151 48.8095 9.5027 48.8344 9.48931 48.8622C9.47592 48.8901 9.46821 48.9202 9.46662 48.951V52.651C9.46482 52.6839 9.47003 52.7168 9.48191 52.7475C9.4938 52.7782 9.51209 52.8061 9.53559 52.8294C9.55909 52.8527 9.58728 52.8708 9.61832 52.8825C9.64936 52.8943 9.68255 52.8995 9.71574 52.8977H13.4526C13.4858 52.8995 13.519 52.8943 13.55 52.8825C13.581 52.8708 13.6092 52.8527 13.6327 52.8294C13.6562 52.8061 13.6745 52.7782 13.6864 52.7475C13.6983 52.7168 13.7035 52.6839 13.7017 52.651ZM13.7017 45.917V42.217C13.7035 42.1842 13.6983 42.1513 13.6864 42.1206C13.6745 42.0898 13.6562 42.0619 13.6327 42.0387C13.6092 42.0154 13.581 41.9973 13.55 41.9855C13.519 41.9737 13.4858 41.9686 13.4526 41.9704H9.71574C9.68255 41.9686 9.64936 41.9737 9.61832 41.9855C9.58728 41.9973 9.55909 42.0154 9.53559 42.0387C9.51209 42.0619 9.4938 42.0898 9.48191 42.1206C9.47003 42.1513 9.46482 42.1842 9.46662 42.217V45.917C9.46482 45.9499 9.47003 45.9828 9.48191 46.0135C9.4938 46.0442 9.51209 46.0721 9.53559 46.0954C9.55909 46.1187 9.58728 46.1368 9.61832 46.1485C9.64936 46.1603 9.68255 46.1655 9.71574 46.1637H13.4526C13.4858 46.1655 13.519 46.1603 13.55 46.1485C13.581 46.1368 13.6092 46.1187 13.6327 46.0954C13.6562 46.0721 13.6745 46.0442 13.6864 46.0135C13.6983 45.9828 13.7035 45.9499 13.7017 45.917ZM13.7017 39.1954V35.4954C13.7035 35.4625 13.6983 35.4296 13.6864 35.3989C13.6745 35.3682 13.6562 35.3403 13.6327 35.317C13.6092 35.2937 13.581 35.2756 13.55 35.2638C13.519 35.2521 13.4858 35.2469 13.4526 35.2487H9.71574C9.68255 35.2469 9.64936 35.2521 9.61832 35.2638C9.58728 35.2756 9.55909 35.2937 9.53559 35.317C9.51209 35.3403 9.4938 35.3682 9.48191 35.3989C9.47003 35.4296 9.46482 35.4625 9.46662 35.4954V39.1954C9.46821 39.2261 9.47592 39.2563 9.48931 39.2841C9.5027 39.312 9.52151 39.3369 9.54465 39.3575C9.56779 39.3782 9.59482 39.3941 9.62418 39.4043C9.65353 39.4146 9.68465 39.419 9.71574 39.4174H13.4526C13.4837 39.419 13.5148 39.4146 13.5441 39.4043C13.5735 39.3941 13.6005 39.3782 13.6237 39.3575C13.6468 39.3369 13.6656 39.312 13.679 39.2841C13.6924 39.2563 13.7001 39.2261 13.7017 39.1954ZM13.7017 32.4614V28.7614C13.7001 28.7306 13.6924 28.7004 13.679 28.6726C13.6656 28.6447 13.6468 28.6198 13.6237 28.5992C13.6005 28.5785 13.5735 28.5627 13.5441 28.5524C13.5148 28.5421 13.4837 28.5377 13.4526 28.5394H9.71574C9.68465 28.5377 9.65353 28.5421 9.62418 28.5524C9.59482 28.5627 9.56779 28.5785 9.54465 28.5992C9.52151 28.6198 9.5027 28.6447 9.48931 28.6726C9.47592 28.7004 9.46821 28.7306 9.46662 28.7614V32.4614C9.46821 32.4921 9.47592 32.5223 9.48931 32.5501C9.5027 32.578 9.52151 32.6029 9.54465 32.6235C9.56779 32.6442 9.59482 32.6601 9.62418 32.6703C9.65353 32.6806 9.68465 32.685 9.71574 32.6834H13.4526C13.4837 32.685 13.5148 32.6806 13.5441 32.6703C13.5735 32.6601 13.6005 32.6442 13.6237 32.6235C13.6468 32.6029 13.6656 32.578 13.679 32.5501C13.6924 32.5223 13.7001 32.4921 13.7017 32.4614ZM13.7017 25.7274V22.0274C13.7035 21.9945 13.6983 21.9616 13.6864 21.9309C13.6745 21.9002 13.6562 21.8723 13.6327 21.849C13.6092 21.8257 13.581 21.8076 13.55 21.7958C13.519 21.7841 13.4858 21.7789 13.4526 21.7807H9.71574C9.68255 21.7789 9.64936 21.7841 9.61832 21.7958C9.58728 21.8076 9.55909 21.8257 9.53559 21.849C9.51209 21.8723 9.4938 21.9002 9.48191 21.9309C9.47003 21.9616 9.46482 21.9945 9.46662 22.0274V25.7274C9.46482 25.7602 9.47003 25.7931 9.48191 25.8238C9.4938 25.8546 9.51209 25.8825 9.53559 25.9057C9.55909 25.929 9.58728 25.9471 9.61832 25.9589C9.64936 25.9706 9.68255 25.9758 9.71574 25.974H13.4526C13.4858 25.9758 13.519 25.9706 13.55 25.9589C13.581 25.9471 13.6092 25.929 13.6327 25.9057C13.6562 25.8825 13.6745 25.8546 13.6864 25.8238C13.6983 25.7931 13.7035 25.7602 13.7017 25.7274ZM13.7017 15.2934C13.7035 15.2605 13.6983 15.2276 13.6864 15.1969C13.6745 15.1662 13.6562 15.1383 13.6327 15.115C13.6092 15.0917 13.581 15.0736 13.55 15.0618C13.519 15.0501 13.4858 15.0449 13.4526 15.0467H9.71574C9.68255 15.0449 9.64936 15.0501 9.61832 15.0618C9.58728 15.0736 9.55909 15.0917 9.53559 15.115C9.51209 15.1383 9.4938 15.1662 9.48191 15.1969C9.47003 15.2276 9.46482 15.2605 9.46662 15.2934V18.9934C9.46482 19.0262 9.47003 19.0591 9.48191 19.0898C9.4938 19.1206 9.51209 19.1485 9.53559 19.1717C9.55909 19.195 9.58728 19.2131 9.61832 19.2249C9.64936 19.2366 9.68255 19.2418 9.71574 19.24H13.4526C13.4858 19.2418 13.519 19.2366 13.55 19.2249C13.581 19.2131 13.6092 19.195 13.6327 19.1717C13.6562 19.1485 13.6745 19.1206 13.6864 19.0898C13.6983 19.0591 13.7035 19.0262 13.7017 18.9934V15.2934Z" fill="#FC4B15"/>
<path d="M47.0594 18.7714H50.3353V15.5154H47.0594V18.7714ZM46.586 18.9934V15.2934C46.5844 15.2626 46.5888 15.2318 46.5992 15.2027C46.6096 15.1736 46.6256 15.1469 46.6464 15.124C46.6673 15.101 46.6925 15.0824 46.7206 15.0692C46.7487 15.0559 46.7792 15.0483 46.8102 15.0467H50.5471C50.6132 15.0467 50.6765 15.0727 50.7232 15.1189C50.77 15.1652 50.7962 15.2279 50.7962 15.2934V18.9934C50.7962 19.0588 50.77 19.1215 50.7232 19.1678C50.6765 19.214 50.6132 19.24 50.5471 19.24H46.8102C46.7792 19.2384 46.7487 19.2308 46.7206 19.2176C46.6925 19.2043 46.6673 19.1857 46.6464 19.1628C46.6256 19.1398 46.6096 19.1131 46.5992 19.084C46.5888 19.055 46.5844 19.0241 46.586 18.9934Z" fill="#FC4B15"/>
<path d="M47.0594 25.4807H50.3353V22.2H47.0594V25.4807ZM46.586 25.7274V22.0274C46.5844 21.9966 46.5888 21.9658 46.5992 21.9367C46.6096 21.9076 46.6256 21.8809 46.6464 21.858C46.6673 21.8351 46.6925 21.8164 46.7206 21.8032C46.7487 21.7899 46.7792 21.7823 46.8102 21.7807H50.5471C50.6132 21.7807 50.6765 21.8067 50.7232 21.8529C50.77 21.8992 50.7962 21.9619 50.7962 22.0274V25.7274C50.7962 25.7928 50.77 25.8555 50.7232 25.9018C50.6765 25.948 50.6132 25.974 50.5471 25.974H46.8102C46.7792 25.9725 46.7487 25.9648 46.7206 25.9516C46.6925 25.9383 46.6673 25.9197 46.6464 25.8968C46.6256 25.8739 46.6096 25.8471 46.5992 25.818C46.5888 25.789 46.5844 25.7582 46.586 25.7274Z" fill="#FC4B15"/>
<path d="M47.0593 32.2147H50.3352V28.9834H47.0593V32.2147ZM46.5859 32.4614V28.7614C46.5889 28.7035 46.6135 28.6487 46.6549 28.6077C46.6964 28.5667 46.7517 28.5423 46.8101 28.5394H50.547C50.609 28.5391 50.6688 28.5616 50.7149 28.6027C50.761 28.6437 50.7899 28.7003 50.7961 28.7614V32.4614C50.7899 32.5224 50.761 32.579 50.7149 32.6201C50.6688 32.6611 50.609 32.6837 50.547 32.6834H46.8101C46.7517 32.6804 46.6964 32.6561 46.6549 32.615C46.6135 32.574 46.5889 32.5193 46.5859 32.4614Z" fill="#FC4B15"/>
<path d="M47.0594 38.9487H50.3353V35.7667H47.0594V38.9487ZM46.586 39.1954V35.4954C46.5844 35.4646 46.5888 35.4338 46.5992 35.4047C46.6096 35.3757 46.6256 35.3489 46.6464 35.326C46.6673 35.3031 46.6925 35.2844 46.7206 35.2712C46.7487 35.2579 46.7792 35.2503 46.8102 35.2487H50.5471C50.6132 35.2487 50.6765 35.2747 50.7232 35.321C50.77 35.3672 50.7962 35.43 50.7962 35.4954V39.1954C50.79 39.2564 50.7611 39.313 50.715 39.3541C50.6689 39.3951 50.6091 39.4177 50.5471 39.4174H46.8102C46.7518 39.4144 46.6965 39.3901 46.655 39.3491C46.6136 39.3081 46.589 39.2533 46.586 39.1954Z" fill="#FC4B15"/>
<path d="M50.3353 42.439H47.0594V45.6333H50.3353V42.439ZM46.5985 45.917V42.217C46.5968 42.1862 46.6013 42.1554 46.6116 42.1263C46.622 42.0973 46.6381 42.0705 46.6589 42.0476C46.6797 42.0247 46.7049 42.0061 46.733 41.9928C46.7611 41.9796 46.7916 41.9719 46.8227 41.9703H50.5595C50.6256 41.9703 50.689 41.9963 50.7357 42.0426C50.7824 42.0888 50.8086 42.1516 50.8086 42.217V45.917C50.8086 45.9824 50.7824 46.0452 50.7357 46.0914C50.689 46.1377 50.6256 46.1637 50.5595 46.1637H46.8227C46.7905 46.1637 46.7587 46.1573 46.7291 46.1447C46.6996 46.1322 46.6729 46.1138 46.6508 46.0907C46.6286 46.0677 46.6115 46.0404 46.6003 46.0105C46.5892 45.9806 46.5843 45.9488 46.586 45.917H46.5985Z" fill="#FC4B15"/>
<path d="M50.3353 52.4043V49.173H47.0594V52.4167L50.3353 52.4043ZM50.5844 52.8853H46.8476C46.8165 52.8838 46.786 52.8761 46.7579 52.8629C46.7298 52.8496 46.7046 52.831 46.6838 52.8081C46.663 52.7852 46.6469 52.7584 46.6365 52.7293C46.6262 52.7003 46.6217 52.6695 46.6234 52.6387V48.9387C46.6264 48.8808 46.651 48.826 46.6924 48.785C46.7338 48.744 46.7891 48.7197 46.8476 48.7167H50.5844C50.6464 48.7164 50.7063 48.7389 50.7523 48.78C50.7984 48.821 50.8274 48.8776 50.8336 48.9387V52.6387C50.8336 52.6721 50.8268 52.7052 50.8135 52.736C50.8002 52.7668 50.7807 52.7945 50.7563 52.8176C50.7318 52.8407 50.7028 52.8586 50.6712 52.8702C50.6395 52.8819 50.6057 52.887 50.572 52.8853H50.5844Z" fill="#FC4B15"/>
<path d="M13.2658 18.7713V15.5153H9.9649V18.7713H13.2658ZM13.7017 15.281V18.981C13.7035 19.0139 13.6983 19.0467 13.6864 19.0775C13.6746 19.1082 13.6563 19.1361 13.6328 19.1594C13.6093 19.1827 13.5811 19.2008 13.55 19.2125C13.519 19.2243 13.4858 19.2295 13.4526 19.2277H9.71578C9.68259 19.2295 9.6494 19.2243 9.61836 19.2125C9.58732 19.2008 9.55913 19.1827 9.53563 19.1594C9.51213 19.1361 9.49384 19.1082 9.48195 19.0775C9.47007 19.0467 9.46486 19.0139 9.46666 18.981V15.281C9.46486 15.2481 9.47007 15.2153 9.48195 15.1845C9.49384 15.1538 9.51213 15.1259 9.53563 15.1026C9.55913 15.0794 9.58732 15.0613 9.61836 15.0495C9.6494 15.0377 9.68259 15.0326 9.71578 15.0343H13.4526C13.4858 15.0326 13.519 15.0377 13.55 15.0495C13.5811 15.0613 13.6093 15.0794 13.6328 15.1026C13.6563 15.1259 13.6746 15.1538 13.6864 15.1845C13.6983 15.2153 13.7035 15.2481 13.7017 15.281Z" fill="#FC4B15"/>
<path d="M13.2658 25.4807V22.2H9.9649V25.4437L13.2658 25.4807ZM13.7017 22.015V25.715C13.7035 25.7479 13.6983 25.7807 13.6864 25.8115C13.6746 25.8422 13.6563 25.8701 13.6328 25.8934C13.6093 25.9167 13.5811 25.9348 13.55 25.9465C13.519 25.9583 13.4858 25.9635 13.4526 25.9617H9.71578C9.68259 25.9635 9.6494 25.9583 9.61836 25.9465C9.58732 25.9348 9.55913 25.9167 9.53563 25.8934C9.51213 25.8701 9.49384 25.8422 9.48195 25.8115C9.47007 25.7807 9.46486 25.7479 9.46666 25.715V22.015C9.46486 21.9822 9.47007 21.9493 9.48195 21.9186C9.49384 21.8878 9.51213 21.8599 9.53563 21.8366C9.55913 21.8134 9.58732 21.7953 9.61836 21.7835C9.6494 21.7717 9.68259 21.7666 9.71578 21.7683H13.4526C13.4858 21.7666 13.519 21.7717 13.55 21.7835C13.5811 21.7953 13.6093 21.8134 13.6328 21.8366C13.6563 21.8599 13.6746 21.8878 13.6864 21.9186C13.6983 21.9493 13.7035 21.9822 13.7017 22.015Z" fill="#FC4B15"/>
<path d="M13.2657 32.2147V28.9834H9.9648V32.227L13.2657 32.2147ZM13.7016 28.7367V32.4367C13.7 32.4675 13.6923 32.4976 13.6789 32.5255C13.6656 32.5533 13.6467 32.5782 13.6236 32.5989C13.6005 32.6195 13.5734 32.6354 13.5441 32.6457C13.5147 32.6559 13.4836 32.6603 13.4525 32.6587H9.71568C9.68459 32.6603 9.65347 32.6559 9.62411 32.6457C9.59475 32.6354 9.56773 32.6195 9.54459 32.5989C9.52145 32.5782 9.50264 32.5533 9.48925 32.5255C9.47586 32.4976 9.46815 32.4675 9.46655 32.4367V28.7367C9.46815 28.7059 9.47586 28.6757 9.48925 28.6479C9.50264 28.6201 9.52145 28.5951 9.54459 28.5745C9.56773 28.5539 9.59475 28.538 9.62411 28.5277C9.65347 28.5174 9.68459 28.513 9.71568 28.5147H13.4525C13.4836 28.513 13.5147 28.5174 13.5441 28.5277C13.5734 28.538 13.6005 28.5539 13.6236 28.5745C13.6467 28.5951 13.6656 28.6201 13.6789 28.6479C13.6923 28.6757 13.7 28.7059 13.7016 28.7367Z" fill="#FC4B15"/>
<path d="M13.2658 38.9487V35.7667H9.9649V39.0104L13.2658 38.9487ZM13.7017 35.4707V39.1707C13.7001 39.2015 13.6924 39.2317 13.679 39.2595C13.6657 39.2873 13.6468 39.3123 13.6237 39.3329C13.6006 39.3535 13.5735 39.3694 13.5442 39.3797C13.5148 39.3899 13.4837 39.3944 13.4526 39.3927H9.71578C9.68469 39.3944 9.65357 39.3899 9.62422 39.3797C9.59486 39.3694 9.56783 39.3535 9.54469 39.3329C9.52155 39.3123 9.50274 39.2873 9.48935 39.2595C9.47596 39.2317 9.46825 39.2015 9.46666 39.1707V35.4707C9.46486 35.4378 9.47007 35.405 9.48195 35.3742C9.49384 35.3435 9.51213 35.3156 9.53563 35.2923C9.55913 35.2691 9.58732 35.251 9.61836 35.2392C9.6494 35.2274 9.68259 35.2223 9.71578 35.224H13.4526C13.4858 35.2223 13.519 35.2274 13.55 35.2392C13.5811 35.251 13.6093 35.2691 13.6328 35.2923C13.6563 35.3156 13.6746 35.3435 13.6864 35.3742C13.6983 35.405 13.7035 35.4378 13.7017 35.4707Z" fill="#FC4B15"/>
<path d="M13.2658 45.6334V42.439H9.9649V45.6334H13.2658ZM13.7017 42.2047V45.9047C13.7035 45.9376 13.6983 45.9704 13.6864 46.0012C13.6746 46.0319 13.6563 46.0598 13.6328 46.0831C13.6093 46.1064 13.5811 46.1245 13.55 46.1362C13.519 46.148 13.4858 46.1532 13.4526 46.1514H9.71578C9.68259 46.1532 9.6494 46.148 9.61836 46.1362C9.58732 46.1245 9.55913 46.1064 9.53563 46.0831C9.51213 46.0598 9.49384 46.0319 9.48195 46.0012C9.47007 45.9704 9.46486 45.9376 9.46666 45.9047V42.2047C9.46486 42.1719 9.47007 42.139 9.48195 42.1083C9.49384 42.0775 9.51213 42.0496 9.53563 42.0263C9.55913 42.0031 9.58732 41.985 9.61836 41.9732C9.6494 41.9614 9.68259 41.9563 9.71578 41.958H13.4526C13.4858 41.9563 13.519 41.9614 13.55 41.9732C13.5811 41.985 13.6093 42.0031 13.6328 42.0263C13.6563 42.0496 13.6746 42.0775 13.6864 42.1083C13.6983 42.139 13.7035 42.1719 13.7017 42.2047Z" fill="#FC4B15"/>
<path d="M13.2658 52.4044V49.173H9.9649V52.4167L13.2658 52.4044ZM13.7017 48.9264V52.6264C13.7035 52.6592 13.6983 52.6921 13.6864 52.7228C13.6746 52.7536 13.6563 52.7815 13.6328 52.8048C13.6093 52.828 13.5811 52.8461 13.55 52.8579C13.519 52.8697 13.4858 52.8748 13.4526 52.873H9.71578C9.68259 52.8748 9.6494 52.8697 9.61836 52.8579C9.58732 52.8461 9.55913 52.828 9.53563 52.8048C9.51213 52.7815 9.49384 52.7536 9.48195 52.7228C9.47007 52.6921 9.46486 52.6592 9.46666 52.6264V48.9264C9.46825 48.8956 9.47596 48.8654 9.48935 48.8376C9.50274 48.8098 9.52155 48.7848 9.54469 48.7642C9.56783 48.7436 9.59486 48.7277 9.62422 48.7174C9.65357 48.7071 9.68469 48.7027 9.71578 48.7044H13.4526C13.4837 48.7027 13.5148 48.7071 13.5442 48.7174C13.5735 48.7277 13.6006 48.7436 13.6237 48.7642C13.6468 48.7848 13.6657 48.8098 13.679 48.8376C13.6924 48.8654 13.7001 48.8956 13.7017 48.9264Z" fill="#FC4B15"/>
<path d="M58.3445 41.773H37.9289C37.3304 41.773 36.8452 42.2534 36.8452 42.846V63.0603C36.8452 63.653 37.3304 64.1333 37.9289 64.1333H58.3445C58.943 64.1333 59.4282 63.653 59.4282 63.0603V42.846C59.4282 42.2534 58.943 41.773 58.3445 41.773Z" fill="#FC4B15"/>
<path d="M55.1931 52.9594H41.0803H55.1931Z" stroke="white" stroke-miterlimit="10"/>
<path d="M48.1428 45.9664V59.94V45.9664Z" stroke="white" stroke-miterlimit="10"/>
</svg>
