<svg width="41" height="44" viewBox="0 0 41 44" fill="none" xmlns="http://www.w3.org/2000/svg">
<g clip-path="url(#clip0)">
<mask id="mask0" mask-type="alpha" maskUnits="userSpaceOnUse" x="-1" y="-1" width="43" height="45">
<path fill-rule="evenodd" clip-rule="evenodd" d="M-1 -1L-1 44H42V-1H-1ZM1 7L1 36H40V7H1ZM1.20093 41.9832C1.18896 41.979 1.17737 41.9741 1.16614 41.9685L1.15393 41.9622L1.14026 41.9539C1.13281 41.9492 1.12561 41.9443 1.11865 41.939C1.10876 41.9314 1.09937 41.9233 1.09045 41.9146C1.03467 41.8601 1 41.7842 1 41.7L1 38.3C1 38.1343 1.13428 38 1.30005 38H4.69995C4.86572 38 5 38.1343 5 38.3V41.7C5 41.8657 4.86572 42 4.69995 42H1.30005C1.26526 42 1.23193 41.9941 1.20093 41.9832ZM1 4.69995C1 4.86572 1.13428 5 1.30005 5H4.69995C4.86572 5 5 4.86572 5 4.69995V1.30005C5 1.28662 4.99915 1.27319 4.99744 1.26025C4.9917 1.21704 4.97681 1.177 4.95483 1.1416C4.94434 1.12476 4.93213 1.10889 4.91858 1.09448C4.89819 1.07275 4.87463 1.0542 4.84863 1.03931C4.82117 1.02368 4.79102 1.01221 4.75903 1.00586C4.73999 1.00195 4.72021 1 4.69995 1H1.30005C1.13428 1 1 1.13428 1 1.30005L1 4.69995ZM8.30005 42C8.13428 42 8 41.8657 8 41.7V38.3C8 38.1343 8.13428 38 8.30005 38H11.7C11.8351 38 11.9493 38.0891 11.9868 38.2122C11.9954 38.24 12 38.2695 12 38.3V41.7C12 41.8657 11.8657 42 11.7 42H8.30005ZM8 4.69995C8 4.86572 8.13428 5 8.30005 5H11.7C11.8657 5 12 4.86572 12 4.69995V1.30005C12 1.21729 11.9667 1.14258 11.9126 1.08838C11.8583 1.03369 11.7831 1 11.7 1H8.30005C8.13428 1 8 1.13428 8 1.30005V4.69995ZM15.3 42C15.1343 42 15 41.8657 15 41.7V38.3C15 38.1343 15.1343 38 15.3 38H18.7C18.8657 38 19 38.1343 19 38.3V41.7C19 41.8657 18.8657 42 18.7 42H15.3ZM15 4.69995C15 4.86572 15.1343 5 15.3 5H18.7C18.8657 5 19 4.86572 19 4.69995V1.30005C19 1.13428 18.8657 1 18.7 1H15.3C15.2184 1 15.1444 1.03247 15.0903 1.08545C15.0345 1.13989 15 1.21582 15 1.30005V4.69995ZM22.3 42C22.2271 42 22.1602 41.9739 22.1082 41.9307C22.0421 41.8757 22 41.7927 22 41.7V38.3C22 38.1343 22.1343 38 22.3 38H25.7C25.8657 38 26 38.1343 26 38.3V41.7C26 41.7856 25.9642 41.8628 25.9067 41.9175C25.8778 41.9448 25.8434 41.9666 25.8053 41.981C25.7726 41.9932 25.7371 42 25.7 42H22.3ZM22 4.69995C22 4.86572 22.1343 5 22.3 5H25.7C25.8657 5 26 4.86572 26 4.69995V1.30005C26 1.13428 25.8657 1 25.7 1H22.3C22.1343 1 22 1.13428 22 1.30005V4.69995ZM29.0283 41.8276C29.0101 41.7888 29 41.7456 29 41.7V38.3C29 38.2649 29.0061 38.2312 29.0172 38.1997C29.0255 38.176 29.0369 38.1536 29.0507 38.1331C29.0709 38.1028 29.0966 38.0764 29.1263 38.0554C29.1754 38.0205 29.2354 38 29.3 38H32.7C32.8657 38 33 38.1343 33 38.3V41.7C33 41.8657 32.8657 42 32.7 42H29.3C29.2186 42 29.1447 41.9675 29.0906 41.9148C29.0649 41.8899 29.0438 41.8604 29.0283 41.8276ZM29.0581 4.87744C29.0862 4.91553 29.123 4.94678 29.1656 4.96826C29.1858 4.97827 29.2073 4.98608 29.2296 4.99146C29.2522 4.99707 29.2758 5 29.3 5H32.7C32.8657 5 33 4.86572 33 4.69995V1.30005C33 1.20898 32.9595 1.12744 32.8956 1.07251C32.8431 1.02734 32.7748 1 32.7 1H29.3C29.1343 1 29 1.13428 29 1.30005V4.69995C29 4.72583 29.0033 4.75098 29.0094 4.7749C29.019 4.81226 29.0358 4.84692 29.0581 4.87744ZM36.3 42C36.1343 42 36 41.8657 36 41.7V38.3C36 38.1343 36.1343 38 36.3 38H39.7C39.8657 38 40 38.1343 40 38.3V41.7C40 41.8657 39.8657 42 39.7 42H36.3ZM36 4.69995C36 4.86572 36.1343 5 36.3 5H39.7C39.8657 5 40 4.86572 40 4.69995V1.30005C40 1.13428 39.8657 1 39.7 1H36.3C36.1343 1 36 1.13428 36 1.30005V4.69995Z" fill="#32393E"/>
</mask>
<g mask="url(#mask0)">
<path d="M0 0V44H17.9245L25 35.4286L17.9245 28.5714L25 21.7143L17.9245 14.8571L25 8.11429L17.9245 0H0Z" fill="#32393E"/>
</g>
<path fill-rule="evenodd" clip-rule="evenodd" d="M0.331055 0.098877H18.0964L25.2252 8.44039L18.435 15.0428L25.2437 21.7754L18.4329 28.5101L25.2173 35.2187L18.1021 44.0132H0.331055V0.098877ZM1.03105 0.798877V43.3132H17.7681L24.2746 35.2709L17.4373 28.5101L24.2481 21.7754L17.4352 15.0386L24.2666 8.39614L17.7738 0.798877H1.03105Z" fill="#32393E"/>
<mask id="mask1" mask-type="alpha" maskUnits="userSpaceOnUse" x="-1" y="-1" width="43" height="45">
<path fill-rule="evenodd" clip-rule="evenodd" d="M-1 -1L-1 44H42V-1H-1ZM1 7L1 36H40V7H1ZM1.20093 41.9832C1.18896 41.979 1.17737 41.9741 1.16614 41.9685L1.15393 41.9622L1.14026 41.9539C1.13281 41.9492 1.12561 41.9443 1.11865 41.939C1.10876 41.9314 1.09937 41.9233 1.09045 41.9146C1.03467 41.8601 1 41.7842 1 41.7L1 38.3C1 38.1343 1.13428 38 1.30005 38H4.69995C4.86572 38 5 38.1343 5 38.3V41.7C5 41.8657 4.86572 42 4.69995 42H1.30005C1.26526 42 1.23193 41.9941 1.20093 41.9832ZM1 4.69995C1 4.86572 1.13428 5 1.30005 5H4.69995C4.86572 5 5 4.86572 5 4.69995V1.30005C5 1.28662 4.99915 1.27319 4.99744 1.26025C4.9917 1.21704 4.97681 1.177 4.95483 1.1416C4.94434 1.12476 4.93213 1.10889 4.91858 1.09448C4.89819 1.07275 4.87463 1.0542 4.84863 1.03931C4.82117 1.02368 4.79102 1.01221 4.75903 1.00586C4.73999 1.00195 4.72021 1 4.69995 1H1.30005C1.13428 1 1 1.13428 1 1.30005L1 4.69995ZM8.30005 42C8.13428 42 8 41.8657 8 41.7V38.3C8 38.1343 8.13428 38 8.30005 38H11.7C11.8351 38 11.9493 38.0891 11.9868 38.2122C11.9954 38.24 12 38.2695 12 38.3V41.7C12 41.8657 11.8657 42 11.7 42H8.30005ZM8 4.69995C8 4.86572 8.13428 5 8.30005 5H11.7C11.8657 5 12 4.86572 12 4.69995V1.30005C12 1.21729 11.9667 1.14258 11.9126 1.08838C11.8583 1.03369 11.7831 1 11.7 1H8.30005C8.13428 1 8 1.13428 8 1.30005V4.69995ZM15.3 42C15.1343 42 15 41.8657 15 41.7V38.3C15 38.1343 15.1343 38 15.3 38H18.7C18.8657 38 19 38.1343 19 38.3V41.7C19 41.8657 18.8657 42 18.7 42H15.3ZM15 4.69995C15 4.86572 15.1343 5 15.3 5H18.7C18.8657 5 19 4.86572 19 4.69995V1.30005C19 1.13428 18.8657 1 18.7 1H15.3C15.2184 1 15.1444 1.03247 15.0903 1.08545C15.0345 1.13989 15 1.21582 15 1.30005V4.69995ZM22.3 42C22.2271 42 22.1602 41.9739 22.1082 41.9307C22.0421 41.8757 22 41.7927 22 41.7V38.3C22 38.1343 22.1343 38 22.3 38H25.7C25.8657 38 26 38.1343 26 38.3V41.7C26 41.7856 25.9642 41.8628 25.9067 41.9175C25.8778 41.9448 25.8434 41.9666 25.8053 41.981C25.7726 41.9932 25.7371 42 25.7 42H22.3ZM22 4.69995C22 4.86572 22.1343 5 22.3 5H25.7C25.8657 5 26 4.86572 26 4.69995V1.30005C26 1.13428 25.8657 1 25.7 1H22.3C22.1343 1 22 1.13428 22 1.30005V4.69995ZM29.0283 41.8276C29.0101 41.7888 29 41.7456 29 41.7V38.3C29 38.2649 29.0061 38.2312 29.0172 38.1997C29.0255 38.176 29.0369 38.1536 29.0507 38.1331C29.0709 38.1028 29.0966 38.0764 29.1263 38.0554C29.1754 38.0205 29.2354 38 29.3 38H32.7C32.8657 38 33 38.1343 33 38.3V41.7C33 41.8657 32.8657 42 32.7 42H29.3C29.2186 42 29.1447 41.9675 29.0906 41.9148C29.0649 41.8899 29.0438 41.8604 29.0283 41.8276ZM29.0581 4.87744C29.0862 4.91553 29.123 4.94678 29.1656 4.96826C29.1858 4.97827 29.2073 4.98608 29.2296 4.99146C29.2522 4.99707 29.2758 5 29.3 5H32.7C32.8657 5 33 4.86572 33 4.69995V1.30005C33 1.20898 32.9595 1.12744 32.8956 1.07251C32.8431 1.02734 32.7748 1 32.7 1H29.3C29.1343 1 29 1.13428 29 1.30005V4.69995C29 4.72583 29.0033 4.75098 29.0094 4.7749C29.019 4.81226 29.0358 4.84692 29.0581 4.87744ZM36.3 42C36.1343 42 36 41.8657 36 41.7V38.3C36 38.1343 36.1343 38 36.3 38H39.7C39.8657 38 40 38.1343 40 38.3V41.7C40 41.8657 39.8657 42 39.7 42H36.3ZM36 4.69995C36 4.86572 36.1343 5 36.3 5H39.7C39.8657 5 40 4.86572 40 4.69995V1.30005C40 1.13428 39.8657 1 39.7 1H36.3C36.1343 1 36 1.13428 36 1.30005V4.69995Z" fill="#32393E"/>
</mask>
<g mask="url(#mask1)">
<path d="M41 0V44H34.9104H25L31.5672 35.8947L25 28.9474L31.5672 22L25 15.0526L31.5672 8.22105L25 0H41Z" fill="#32393E"/>
</g>
<path fill-rule="evenodd" clip-rule="evenodd" d="M25.0062 0H41V44H25L31.3931 35.6882L25.2435 28.8352L31.3772 22L25.2417 15.1628L31.393 8.42213L25.0062 0ZM26.4186 0.710446L32.2991 8.46494L26.1831 15.1668L32.3149 22L26.1813 28.8352L32.2989 35.6526L26.4248 43.2896H40.3123V0.710446H26.4186Z" fill="#32393E"/>
</g>
<defs>
<clipPath id="clip0">
<rect width="41" height="44" fill="white"/>
</clipPath>
</defs>
</svg>
