<svg width="45" height="60" viewBox="0 0 45 60" fill="none" xmlns="http://www.w3.org/2000/svg">
<g clip-path="url(#clip0)">
<path d="M42.1422 16.7112H3.34275V45.3779H42.1422V16.7112ZM7.73304 14.7779C7.76412 14.781 7.79552 14.7775 7.82518 14.7678C7.85485 14.758 7.88212 14.7421 7.90524 14.7212C7.92835 14.7002 7.94679 14.6747 7.95936 14.6461C7.97193 14.6176 7.97834 14.5868 7.97818 14.5556V10.8445C7.97818 10.7797 7.95235 10.7175 7.90638 10.6717C7.86041 10.6258 7.79806 10.6001 7.73304 10.6001H4.03361C3.9686 10.6001 3.90624 10.6258 3.86027 10.6717C3.8143 10.7175 3.78847 10.7797 3.78847 10.8445V14.5556C3.78831 14.5868 3.79472 14.6176 3.80729 14.6461C3.81986 14.6747 3.8383 14.7002 3.86141 14.7212C3.88453 14.7421 3.9118 14.758 3.94147 14.7678C3.97113 14.7775 4.00253 14.781 4.03361 14.7779H7.73304ZM14.4188 14.7779C14.4498 14.781 14.4812 14.7775 14.5109 14.7678C14.5406 14.758 14.5678 14.7421 14.591 14.7212C14.6141 14.7002 14.6325 14.6747 14.6451 14.6461C14.6576 14.6176 14.6641 14.5868 14.6639 14.5556V10.8445C14.6639 10.7797 14.6381 10.7175 14.5921 10.6717C14.5461 10.6258 14.4838 10.6001 14.4188 10.6001H10.7416C10.6766 10.6001 10.6142 10.6258 10.5683 10.6717C10.5223 10.7175 10.4965 10.7797 10.4965 10.8445V14.5556C10.4963 14.5868 10.5027 14.6176 10.5153 14.6461C10.5279 14.6747 10.5463 14.7002 10.5694 14.7212C10.5925 14.7421 10.6198 14.758 10.6495 14.7678C10.6791 14.7775 10.7105 14.781 10.7416 14.7779H14.4188ZM21.1045 14.7779C21.1636 14.7779 21.2203 14.7545 21.262 14.7128C21.3038 14.6711 21.3273 14.6146 21.3273 14.5556V10.8445C21.3276 10.7834 21.3048 10.7243 21.2636 10.6791C21.2223 10.6338 21.1655 10.6056 21.1045 10.6001H17.4496C17.3885 10.6056 17.3318 10.6338 17.2905 10.6791C17.2492 10.7243 17.2265 10.7834 17.2268 10.8445V14.5556C17.2268 14.6146 17.2502 14.6711 17.292 14.7128C17.3338 14.7545 17.3905 14.7779 17.4496 14.7779H21.1045ZM27.7902 14.7779C27.8493 14.7779 27.906 14.7545 27.9478 14.7128C27.9896 14.6711 28.013 14.6146 28.013 14.5556V10.8445C28.0133 10.7834 27.9905 10.7243 27.9493 10.6791C27.908 10.6338 27.8513 10.6056 27.7902 10.6001H24.1576C24.0926 10.6001 24.0302 10.6258 23.9843 10.6717C23.9383 10.7175 23.9125 10.7797 23.9125 10.8445V14.5556C23.9123 14.5868 23.9187 14.6176 23.9313 14.6461C23.9439 14.6747 23.9623 14.7002 23.9854 14.7212C24.0085 14.7421 24.0358 14.758 24.0655 14.7678C24.0951 14.7775 24.1265 14.781 24.1576 14.7779H27.7902ZM34.4759 14.7779C34.507 14.781 34.5384 14.7775 34.568 14.7678C34.5977 14.758 34.625 14.7421 34.6481 14.7212C34.6712 14.7002 34.6896 14.6747 34.7022 14.6461C34.7148 14.6176 34.7212 14.5868 34.721 14.5556V10.8445C34.721 10.7797 34.6952 10.7175 34.6492 10.6717C34.6033 10.6258 34.5409 10.6001 34.4759 10.6001H30.8656C30.8006 10.6001 30.7382 10.6258 30.6923 10.6717C30.6463 10.7175 30.6205 10.7797 30.6205 10.8445V14.5556C30.6203 14.5868 30.6267 14.6176 30.6393 14.6461C30.6519 14.6747 30.6703 14.7002 30.6934 14.7212C30.7165 14.7421 30.7438 14.758 30.7735 14.7678C30.8031 14.7775 30.8345 14.781 30.8656 14.7779H34.4759ZM41.429 14.5556V10.8445C41.429 10.7797 41.4032 10.7175 41.3572 10.6717C41.3113 10.6258 41.2489 10.6001 41.1839 10.6001H37.5736C37.5125 10.6056 37.4558 10.6338 37.4145 10.6791C37.3732 10.7243 37.3505 10.7834 37.3507 10.8445V14.5556C37.3507 14.5848 37.3565 14.6137 37.3677 14.6407C37.3789 14.6676 37.3953 14.6921 37.416 14.7128C37.4367 14.7334 37.4613 14.7498 37.4883 14.761C37.5154 14.7721 37.5443 14.7779 37.5736 14.7779H41.273C41.3041 14.781 41.3355 14.7775 41.3652 14.7678C41.3948 14.758 41.4221 14.7421 41.4452 14.7212C41.4683 14.7002 41.4868 14.6747 41.4994 14.6461C41.5119 14.6176 41.5183 14.5868 41.5182 14.5556H41.429ZM1.67133 53.3334V8.88898H43.8136V53.3334H1.67133ZM41.273 47.1112H37.5736C37.5424 47.111 37.5114 47.1174 37.4828 47.13C37.4542 47.1425 37.4286 47.1609 37.4076 47.1839C37.3866 47.207 37.3707 47.2342 37.3609 47.2638C37.3511 47.2933 37.3476 47.3246 37.3507 47.3556V51.1112C37.3476 51.1422 37.3511 51.1735 37.3609 51.2031C37.3707 51.2327 37.3866 51.2599 37.4076 51.2829C37.4286 51.306 37.4542 51.3243 37.4828 51.3369C37.5114 51.3494 37.5424 51.3558 37.5736 51.3556H41.273C41.3381 51.3556 41.4004 51.3299 41.4464 51.284C41.4924 51.2382 41.5182 51.176 41.5182 51.1112V47.3556C41.5182 47.2908 41.4924 47.2286 41.4464 47.1828C41.4004 47.137 41.3381 47.1112 41.273 47.1112ZM34.5873 47.1112H30.8656C30.8006 47.1112 30.7382 47.137 30.6923 47.1828C30.6463 47.2286 30.6205 47.2908 30.6205 47.3556V51.1112C30.6205 51.176 30.6463 51.2382 30.6923 51.284C30.7382 51.3299 30.8006 51.3556 30.8656 51.3556H34.565C34.6301 51.3556 34.6924 51.3299 34.7384 51.284C34.7844 51.2382 34.8102 51.176 34.8102 51.1112V47.3556C34.8102 47.2908 34.7844 47.2286 34.7384 47.1828C34.6924 47.137 34.6301 47.1112 34.565 47.1112H34.5873ZM27.9016 47.1112H24.1576C24.0926 47.1112 24.0302 47.137 23.9843 47.1828C23.9383 47.2286 23.9125 47.2908 23.9125 47.3556V51.1112C23.9125 51.176 23.9383 51.2382 23.9843 51.284C24.0302 51.3299 24.0926 51.3556 24.1576 51.3556H27.857C27.8883 51.3558 27.9192 51.3494 27.9478 51.3369C27.9764 51.3243 28.002 51.306 28.0231 51.2829C28.0441 51.2599 28.06 51.2327 28.0698 51.2031C28.0796 51.1735 28.083 51.1422 28.0799 51.1112V47.3556C28.083 47.3246 28.0796 47.2933 28.0698 47.2638C28.06 47.2342 28.0441 47.207 28.0231 47.1839C28.002 47.1609 27.9764 47.1425 27.9478 47.13C27.9192 47.1174 27.8883 47.111 27.857 47.1112H27.9016ZM21.2159 47.1112H17.4496C17.4184 47.111 17.3874 47.1174 17.3588 47.13C17.3302 47.1425 17.3046 47.1609 17.2836 47.1839C17.2626 47.207 17.2467 47.2342 17.2369 47.2638C17.2271 47.2933 17.2236 47.3246 17.2268 47.3556V51.1112C17.2236 51.1422 17.2271 51.1735 17.2369 51.2031C17.2467 51.2327 17.2626 51.2599 17.2836 51.2829C17.3046 51.306 17.3302 51.3243 17.3588 51.3369C17.3874 51.3494 17.4184 51.3558 17.4496 51.3556H21.149C21.1803 51.3558 21.2112 51.3494 21.2398 51.3369C21.2684 51.3243 21.294 51.306 21.3151 51.2829C21.3361 51.2599 21.352 51.2327 21.3618 51.2031C21.3716 51.1735 21.375 51.1422 21.3719 51.1112V47.3556C21.375 47.3246 21.3716 47.2933 21.3618 47.2638C21.352 47.2342 21.3361 47.207 21.3151 47.1839C21.294 47.1609 21.2684 47.1425 21.2398 47.13C21.2112 47.1174 21.1803 47.111 21.149 47.1112H21.2159ZM14.5302 47.1112H10.7416C10.6766 47.1112 10.6142 47.137 10.5683 47.1828C10.5223 47.2286 10.4965 47.2908 10.4965 47.3556V51.1112C10.4965 51.176 10.5223 51.2382 10.5683 51.284C10.6142 51.3299 10.6766 51.3556 10.7416 51.3556H14.441C14.5061 51.3556 14.5684 51.3299 14.6144 51.284C14.6604 51.2382 14.6862 51.176 14.6862 51.1112V47.3556C14.6862 47.2908 14.6604 47.2286 14.6144 47.1828C14.5684 47.137 14.5061 47.1112 14.441 47.1112H14.5302ZM4.12275 47.1112C4.05774 47.1112 3.99538 47.137 3.94941 47.1828C3.90344 47.2286 3.87761 47.2908 3.87761 47.3556V51.1112C3.87761 51.176 3.90344 51.2382 3.94941 51.284C3.99538 51.3299 4.05774 51.3556 4.12275 51.3556H7.73304C7.79806 51.3556 7.86041 51.3299 7.90638 51.284C7.95235 51.2382 7.97818 51.176 7.97818 51.1112V47.3556C7.97818 47.2908 7.95235 47.2286 7.90638 47.1828C7.86041 47.137 7.79806 47.1112 7.73304 47.1112H4.12275Z" fill="#FC4B15"/>
<path d="M7.5105 14.3112V11.1112H4.25679V14.3112H7.5105ZM7.73336 14.7779H4.03393C4.00285 14.781 3.97146 14.7776 3.94179 14.7678C3.91213 14.758 3.88485 14.7422 3.86173 14.7212C3.83862 14.7002 3.82018 14.6747 3.80761 14.6462C3.79505 14.6176 3.78863 14.5868 3.78879 14.5557V10.8445C3.78879 10.7797 3.81462 10.7175 3.86059 10.6717C3.90656 10.6259 3.96892 10.6001 4.03393 10.6001H7.73336C7.79838 10.6001 7.86073 10.6259 7.9067 10.6717C7.95268 10.7175 7.9785 10.7797 7.9785 10.8445V14.5557C7.97866 14.5868 7.97225 14.6176 7.95968 14.6462C7.94711 14.6747 7.92868 14.7002 7.90556 14.7212C7.88244 14.7422 7.85517 14.758 7.8255 14.7678C7.79584 14.7776 7.76444 14.781 7.73336 14.7779Z" fill="#FC4B15"/>
<path d="M14.1959 14.3112V11.1112H10.9645V14.3112H14.1959ZM14.441 14.7779H10.7416C10.7105 14.781 10.6791 14.7776 10.6495 14.7678C10.6198 14.758 10.5925 14.7422 10.5694 14.7212C10.5463 14.7002 10.5279 14.6747 10.5153 14.6462C10.5027 14.6176 10.4963 14.5868 10.4965 14.5557V10.8445C10.4965 10.7797 10.5223 10.7175 10.5683 10.6717C10.6142 10.6259 10.6766 10.6001 10.7416 10.6001H14.441C14.5061 10.6001 14.5684 10.6259 14.6144 10.6717C14.6604 10.7175 14.6862 10.7797 14.6862 10.8445V14.5557C14.6863 14.5868 14.6799 14.6176 14.6674 14.6462C14.6548 14.6747 14.6363 14.7002 14.6132 14.7212C14.5901 14.7422 14.5628 14.758 14.5332 14.7678C14.5035 14.7776 14.4721 14.781 14.441 14.7779Z" fill="#FC4B15"/>
<path d="M20.9039 14.3112V11.1112H17.6947V14.3112H20.9039ZM21.149 14.7779H17.4496C17.3905 14.7779 17.3338 14.7545 17.292 14.7128C17.2502 14.6711 17.2267 14.6146 17.2267 14.5557V10.8445C17.2265 10.7834 17.2492 10.7244 17.2905 10.6791C17.3318 10.6338 17.3885 10.6057 17.4496 10.6001H21.149C21.2101 10.6057 21.2669 10.6338 21.3081 10.6791C21.3494 10.7244 21.3721 10.7834 21.3719 10.8445V14.5557C21.3719 14.6146 21.3484 14.6711 21.3066 14.7128C21.2648 14.7545 21.2081 14.7779 21.149 14.7779Z" fill="#FC4B15"/>
<path d="M27.6342 14.3112V11.1112H24.4028V14.3112H27.6342ZM27.8794 14.7779H24.1576C24.1266 14.781 24.0952 14.7776 24.0655 14.7678C24.0358 14.758 24.0086 14.7422 23.9854 14.7212C23.9623 14.7002 23.9439 14.6747 23.9313 14.6462C23.9188 14.6176 23.9123 14.5868 23.9125 14.5557V10.8445C23.9125 10.7797 23.9383 10.7175 23.9843 10.6717C24.0303 10.6259 24.0926 10.6001 24.1576 10.6001H27.8571C27.9181 10.6057 27.9749 10.6338 28.0162 10.6791C28.0574 10.7244 28.0802 10.7834 28.0799 10.8445V14.5557C28.0799 14.6146 28.0564 14.6711 28.0147 14.7128C27.9729 14.7545 27.9162 14.7779 27.8571 14.7779H27.8794Z" fill="#FC4B15"/>
<path d="M31.2002 11.1112V14.3112H34.4539V11.1112H31.2002ZM34.6768 14.8001H30.8659C30.8348 14.8032 30.8034 14.7998 30.7738 14.79C30.7441 14.7803 30.7168 14.7644 30.6937 14.7434C30.6706 14.7225 30.6522 14.6969 30.6396 14.6684C30.627 14.6399 30.6206 14.609 30.6208 14.5779V10.8445C30.6208 10.7797 30.6466 10.7175 30.6926 10.6717C30.7386 10.6259 30.8009 10.6001 30.8659 10.6001H34.5653C34.6304 10.6001 34.6927 10.6259 34.7387 10.6717C34.7847 10.7175 34.8105 10.7797 34.8105 10.8445V14.5557C34.8106 14.5868 34.8042 14.6176 34.7917 14.6462C34.7791 14.6747 34.7607 14.7002 34.7375 14.7212C34.7144 14.7422 34.6872 14.758 34.6575 14.7678C34.6278 14.7776 34.5964 14.781 34.5653 14.7779L34.6768 14.8001Z" fill="#FC4B15"/>
<path d="M41.0276 11.1112H37.8853V14.3112H41.1167L41.0276 11.1112ZM41.5179 10.8668V14.5557C41.518 14.5868 41.5116 14.6176 41.499 14.6462C41.4865 14.6747 41.468 14.7002 41.4449 14.7212C41.4218 14.7422 41.3945 14.758 41.3649 14.7678C41.3352 14.7776 41.3038 14.781 41.2727 14.7779H37.5733C37.544 14.7779 37.515 14.7721 37.488 14.761C37.461 14.7498 37.4364 14.7334 37.4157 14.7128C37.395 14.6922 37.3786 14.6677 37.3674 14.6407C37.3562 14.6137 37.3504 14.5848 37.3504 14.5557V10.8445C37.3502 10.7834 37.3729 10.7244 37.4142 10.6791C37.4554 10.6338 37.5122 10.6057 37.5733 10.6001H41.2727C41.3377 10.6001 41.4001 10.6259 41.4461 10.6717C41.492 10.7175 41.5179 10.7797 41.5179 10.8445V10.8668Z" fill="#FC4B15"/>
<path d="M7.5105 47.5778H4.25679V50.8223H7.5105V47.5778ZM4.03393 47.1111H7.73336C7.79837 47.1111 7.86073 47.1369 7.9067 47.1827C7.95267 47.2286 7.9785 47.2908 7.9785 47.3556V51.1111C7.9785 51.176 7.95267 51.2381 7.9067 51.284C7.86073 51.3298 7.79837 51.3556 7.73336 51.3556H4.03393C3.96891 51.3556 3.90656 51.3298 3.86059 51.284C3.81462 51.2381 3.78879 51.176 3.78879 51.1111V47.3556C3.78879 47.2908 3.81462 47.2286 3.86059 47.1827C3.90656 47.1369 3.96891 47.1111 4.03393 47.1111Z" fill="#FC4B15"/>
<path d="M14.1962 47.5778H10.9648V50.8223H14.1962V47.5778ZM10.7419 47.1111H14.4414C14.5064 47.1111 14.5687 47.1369 14.6147 47.1827C14.6607 47.2286 14.6865 47.2908 14.6865 47.3556V51.1111C14.6865 51.176 14.6607 51.2381 14.6147 51.284C14.5687 51.3298 14.5064 51.3556 14.4414 51.3556H10.7419C10.6809 51.35 10.6241 51.3218 10.5828 51.2766C10.5416 51.2313 10.5188 51.1723 10.5191 51.1111V47.3556C10.5188 47.2944 10.5416 47.2354 10.5828 47.1901C10.6241 47.1449 10.6809 47.1167 10.7419 47.1111Z" fill="#FC4B15"/>
<path d="M20.9039 47.5778H17.6948V50.8223H20.9039V47.5778ZM17.4497 47.1111H21.1491C21.1803 47.111 21.2112 47.1174 21.2398 47.1299C21.2684 47.1424 21.2941 47.1608 21.3151 47.1839C21.3361 47.2069 21.352 47.2341 21.3618 47.2637C21.3716 47.2933 21.3751 47.3246 21.3719 47.3556V51.1111C21.3751 51.1421 21.3716 51.1734 21.3618 51.203C21.352 51.2326 21.3361 51.2598 21.3151 51.2829C21.2941 51.3059 21.2684 51.3243 21.2398 51.3368C21.2112 51.3493 21.1803 51.3557 21.1491 51.3556H17.4497C17.4184 51.3557 17.3875 51.3493 17.3589 51.3368C17.3303 51.3243 17.3046 51.3059 17.2836 51.2829C17.2626 51.2598 17.2467 51.2326 17.2369 51.203C17.2271 51.1734 17.2237 51.1421 17.2268 51.1111V47.3556C17.2237 47.3246 17.2271 47.2933 17.2369 47.2637C17.2467 47.2341 17.2626 47.2069 17.2836 47.1839C17.3046 47.1608 17.3303 47.1424 17.3589 47.1299C17.3875 47.1174 17.4184 47.111 17.4497 47.1111Z" fill="#FC4B15"/>
<path d="M27.6342 47.5778H24.4028V50.8223H27.6342V47.5778ZM24.1576 47.1111H27.8571C27.8883 47.111 27.9192 47.1174 27.9478 47.1299C27.9764 47.1424 28.0021 47.1608 28.0231 47.1839C28.0441 47.2069 28.06 47.2341 28.0698 47.2637C28.0796 47.2933 28.083 47.3246 28.0799 47.3556V51.1111C28.083 51.1421 28.0796 51.1734 28.0698 51.203C28.06 51.2326 28.0441 51.2598 28.0231 51.2829C28.0021 51.3059 27.9764 51.3243 27.9478 51.3368C27.9192 51.3493 27.8883 51.3557 27.8571 51.3556H24.1576C24.0926 51.3556 24.0303 51.3298 23.9843 51.284C23.9383 51.2381 23.9125 51.176 23.9125 51.1111V47.3556C23.9125 47.2908 23.9383 47.2286 23.9843 47.1827C24.0303 47.1369 24.0926 47.1111 24.1576 47.1111Z" fill="#FC4B15"/>
<path d="M34.3425 47.5778H31.2002V50.8223H34.4539L34.3425 47.5778ZM30.8659 47.1111H34.5653C34.6304 47.1111 34.6927 47.1369 34.7387 47.1827C34.7847 47.2286 34.8105 47.2908 34.8105 47.3556V51.1111C34.8105 51.176 34.7847 51.2381 34.7387 51.284C34.6927 51.3298 34.6304 51.3556 34.5653 51.3556H30.8659C30.8009 51.3556 30.7385 51.3298 30.6926 51.284C30.6466 51.2381 30.6208 51.176 30.6208 51.1111V47.3556C30.6208 47.2908 30.6466 47.2286 30.6926 47.1827C30.7385 47.1369 30.8009 47.1111 30.8659 47.1111Z" fill="#FC4B15"/>
<path d="M41.0275 47.5778H37.8852V50.8223H41.1166L41.0275 47.5778ZM37.5509 47.1111H41.2504C41.3154 47.1111 41.3777 47.1369 41.4237 47.1827C41.4697 47.2286 41.4955 47.2908 41.4955 47.3556V51.1111C41.4955 51.176 41.4697 51.2381 41.4237 51.284C41.3777 51.3298 41.3154 51.3556 41.2504 51.3556H37.5732C37.542 51.3557 37.5111 51.3493 37.4825 51.3368C37.4539 51.3243 37.4282 51.3059 37.4072 51.2829C37.3862 51.2598 37.3703 51.2326 37.3605 51.203C37.3507 51.1734 37.3472 51.1421 37.3504 51.1111V47.3556C37.3472 47.3246 37.3507 47.2933 37.3605 47.2637C37.3703 47.2341 37.3862 47.2069 37.4072 47.1839C37.4282 47.1608 37.4539 47.1424 37.4825 47.1299C37.5111 47.1174 37.542 47.111 37.5732 47.1111H37.5509Z" fill="#FC4B15"/>
<path d="M26.0746 2.22223H19.3889V60H26.0746V2.22223Z" fill="white" stroke="#FC4B15" stroke-width="0.7" stroke-miterlimit="10"/>
</g>
<defs>
<clipPath id="clip0">
<rect width="44.5714" height="60" fill="white"/>
</clipPath>
</defs>
</svg>
