<svg width="45" height="60" viewBox="0 0 45 60" fill="none" xmlns="http://www.w3.org/2000/svg">
<g clip-path="url(#clip0)">
<path fill-rule="evenodd" clip-rule="evenodd" d="M45 10H0V53H45V10ZM37 12H8V51H37V12ZM2.01685 12.2009C2.021 12.189 2.02588 12.1774 2.03149 12.1661L2.03784 12.1539L2.04614 12.1403C2.05078 12.1328 2.05566 12.1256 2.06104 12.1187C2.0686 12.1088 2.07666 12.0994 2.08545 12.0905C2.13989 12.0347 2.21582 12 2.30005 12H5.69995C5.86572 12 6 12.1343 6 12.3V15.7C6 15.8657 5.86572 16 5.69995 16H2.30005C2.13428 16 2 15.8657 2 15.7V12.3C2 12.2653 2.00586 12.2319 2.01685 12.2009ZM39.3 12C39.1343 12 39 12.1343 39 12.3V15.7C39 15.8657 39.1343 16 39.3 16H42.7C42.7134 16 42.7268 15.9991 42.7397 15.9974C42.783 15.9917 42.823 15.9768 42.8584 15.9548C42.8752 15.9443 42.8911 15.9321 42.9055 15.9186C42.9272 15.8982 42.9458 15.8746 42.9607 15.8486C42.9763 15.8212 42.9878 15.791 42.9941 15.759C42.998 15.74 43 15.7202 43 15.7V12.3C43 12.1343 42.8657 12 42.7 12H39.3ZM2 19.3C2 19.1343 2.13428 19 2.30005 19H5.69995C5.86572 19 6 19.1343 6 19.3V22.7C6 22.8351 5.91089 22.9493 5.78784 22.9868C5.76001 22.9954 5.73047 23 5.69995 23H2.30005C2.13428 23 2 22.8657 2 22.7V19.3ZM39.3 19C39.1343 19 39 19.1343 39 19.3V22.7C39 22.8657 39.1343 23 39.3 23H42.7C42.7827 23 42.8574 22.9667 42.9116 22.9126C42.9663 22.8583 43 22.7831 43 22.7V19.3C43 19.1343 42.8657 19 42.7 19H39.3ZM2 26.3C2 26.1343 2.13428 26 2.30005 26H5.69995C5.86572 26 6 26.1343 6 26.3V29.7C6 29.8657 5.86572 30 5.69995 30H2.30005C2.13428 30 2 29.8657 2 29.7V26.3ZM39.3 26C39.1343 26 39 26.1343 39 26.3V29.7C39 29.8657 39.1343 30 39.3 30H42.7C42.8657 30 43 29.8657 43 29.7V26.3C43 26.2184 42.9675 26.1444 42.9146 26.0903C42.8601 26.0345 42.7842 26 42.7 26H39.3ZM2 33.3C2 33.2271 2.02612 33.1602 2.06934 33.1082C2.12427 33.0421 2.20728 33 2.30005 33H5.69995C5.86572 33 6 33.1343 6 33.3V36.7C6 36.8657 5.86572 37 5.69995 37H2.30005C2.21436 37 2.13721 36.9642 2.08252 36.9067C2.05518 36.8778 2.03345 36.8434 2.01904 36.8053C2.00684 36.7726 2 36.7371 2 36.7V33.3ZM39.3 33C39.1343 33 39 33.1343 39 33.3V36.7C39 36.8657 39.1343 37 39.3 37H42.7C42.8657 37 43 36.8657 43 36.7V33.3C43 33.1343 42.8657 33 42.7 33H39.3ZM2.17236 40.0283C2.21118 40.0101 2.25439 40 2.30005 40H5.69995C5.73511 40 5.7688 40.0061 5.80029 40.0172C5.82397 40.0255 5.84644 40.0369 5.86694 40.0507C5.89722 40.0709 5.92358 40.0966 5.94458 40.1263C5.97949 40.1754 6 40.2354 6 40.3V43.7C6 43.8657 5.86572 44 5.69995 44H2.30005C2.13428 44 2 43.8657 2 43.7V40.3C2 40.2186 2.03247 40.1447 2.08521 40.0906C2.11011 40.0649 2.13965 40.0438 2.17236 40.0283ZM39.1226 40.0581C39.0845 40.0862 39.0532 40.123 39.0317 40.1656C39.0217 40.1858 39.0139 40.2073 39.0085 40.2296C39.0029 40.2522 39 40.2758 39 40.3V43.7C39 43.8657 39.1343 44 39.3 44H42.7C42.791 44 42.8726 43.9595 42.9275 43.8956C42.9727 43.8431 43 43.7748 43 43.7V40.3C43 40.1343 42.8657 40 42.7 40H39.3C39.2742 40 39.249 40.0033 39.2251 40.0094C39.1877 40.019 39.1531 40.0358 39.1226 40.0581ZM2 47.3C2 47.1343 2.13428 47 2.30005 47H5.69995C5.86572 47 6 47.1343 6 47.3V50.7C6 50.8657 5.86572 51 5.69995 51H2.30005C2.13428 51 2 50.8657 2 50.7V47.3ZM39.3 47C39.1343 47 39 47.1343 39 47.3V50.7C39 50.8657 39.1343 51 39.3 51H42.7C42.8657 51 43 50.8657 43 50.7V47.3C43 47.1343 42.8657 47 42.7 47H39.3Z" fill="#32393E"/>
<path d="M25.6857 2.22217H19V59.9999H25.6857V2.22217Z" fill="white"/>
<path fill-rule="evenodd" clip-rule="evenodd" d="M18.6499 1.87231H26.0356V60.3501H18.6499V1.87231ZM19.3499 2.57231V59.6501H25.3356V2.57231H19.3499Z" fill="#32393E"/>
</g>
<defs>
<clipPath id="clip0">
<rect width="44.5714" height="60" fill="white"/>
</clipPath>
</defs>
</svg>
