<svg width="45" height="60" viewBox="0 0 45 60" fill="none" xmlns="http://www.w3.org/2000/svg">
<g clip-path="url(#clip0)">
<path d="M42.1421 16.7112H3.34269V45.3779H42.1421V16.7112ZM7.73298 14.7779C7.76406 14.781 7.79545 14.7775 7.82512 14.7678C7.85479 14.758 7.88206 14.7421 7.90518 14.7212C7.92829 14.7002 7.94673 14.6747 7.9593 14.6461C7.97186 14.6176 7.97828 14.5868 7.97812 14.5556V10.8445C7.97812 10.7797 7.95229 10.7175 7.90632 10.6717C7.86035 10.6258 7.79799 10.6001 7.73298 10.6001H4.03355C3.96853 10.6001 3.90618 10.6258 3.86021 10.6717C3.81423 10.7175 3.78841 10.7797 3.78841 10.8445V14.5556C3.78825 14.5868 3.79466 14.6176 3.80723 14.6461C3.8198 14.6747 3.83824 14.7002 3.86135 14.7212C3.88447 14.7421 3.91174 14.758 3.94141 14.7678C3.97107 14.7775 4.00247 14.781 4.03355 14.7779H7.73298ZM14.4187 14.7779C14.4498 14.781 14.4812 14.7775 14.5108 14.7678C14.5405 14.758 14.5678 14.7421 14.5909 14.7212C14.614 14.7002 14.6324 14.6747 14.645 14.6461C14.6576 14.6176 14.664 14.5868 14.6638 14.5556V10.8445C14.6638 10.7797 14.638 10.7175 14.592 10.6717C14.5461 10.6258 14.4837 10.6001 14.4187 10.6001H10.7415C10.6765 10.6001 10.6142 10.6258 10.5682 10.6717C10.5222 10.7175 10.4964 10.7797 10.4964 10.8445V14.5556C10.4963 14.5868 10.5027 14.6176 10.5152 14.6461C10.5278 14.6747 10.5462 14.7002 10.5694 14.7212C10.5925 14.7421 10.6197 14.758 10.6494 14.7678C10.6791 14.7775 10.7105 14.781 10.7415 14.7779H14.4187ZM21.1044 14.7779C21.1635 14.7779 21.2202 14.7545 21.262 14.7128C21.3038 14.6711 21.3273 14.6146 21.3273 14.5556V10.8445C21.3275 10.7834 21.3048 10.7243 21.2635 10.6791C21.2223 10.6338 21.1655 10.6056 21.1044 10.6001H17.4495C17.3885 10.6056 17.3317 10.6338 17.2904 10.6791C17.2492 10.7243 17.2264 10.7834 17.2267 10.8445V14.5556C17.2267 14.6146 17.2502 14.6711 17.292 14.7128C17.3338 14.7545 17.3904 14.7779 17.4495 14.7779H21.1044ZM27.7901 14.7779C27.8492 14.7779 27.9059 14.7545 27.9477 14.7128C27.9895 14.6711 28.013 14.6146 28.013 14.5556V10.8445C28.0132 10.7834 27.9905 10.7243 27.9492 10.6791C27.908 10.6338 27.8512 10.6056 27.7901 10.6001H24.1575C24.0925 10.6001 24.0302 10.6258 23.9842 10.6717C23.9382 10.7175 23.9124 10.7797 23.9124 10.8445V14.5556C23.9122 14.5868 23.9187 14.6176 23.9312 14.6461C23.9438 14.6747 23.9622 14.7002 23.9853 14.7212C24.0085 14.7421 24.0357 14.758 24.0654 14.7678C24.0951 14.7775 24.1265 14.781 24.1575 14.7779H27.7901ZM34.4758 14.7779C34.5069 14.781 34.5383 14.7775 34.568 14.7678C34.5976 14.758 34.6249 14.7421 34.648 14.7212C34.6711 14.7002 34.6896 14.6747 34.7022 14.6461C34.7147 14.6176 34.7211 14.5868 34.721 14.5556V10.8445C34.721 10.7797 34.6951 10.7175 34.6492 10.6717C34.6032 10.6258 34.5408 10.6001 34.4758 10.6001H30.8655C30.8005 10.6001 30.7382 10.6258 30.6922 10.6717C30.6462 10.7175 30.6204 10.7797 30.6204 10.8445V14.5556C30.6202 14.5868 30.6267 14.6176 30.6392 14.6461C30.6518 14.6747 30.6702 14.7002 30.6933 14.7212C30.7165 14.7421 30.7437 14.758 30.7734 14.7678C30.8031 14.7775 30.8345 14.781 30.8655 14.7779H34.4758ZM41.429 14.5556V10.8445C41.429 10.7797 41.4031 10.7175 41.3572 10.6717C41.3112 10.6258 41.2488 10.6001 41.1838 10.6001H37.5735C37.5125 10.6056 37.4557 10.6338 37.4144 10.6791C37.3732 10.7243 37.3504 10.7834 37.3507 10.8445V14.5556C37.3507 14.5848 37.3565 14.6137 37.3677 14.6407C37.3789 14.6676 37.3953 14.6921 37.416 14.7128C37.4367 14.7334 37.4612 14.7498 37.4883 14.761C37.5153 14.7721 37.5443 14.7779 37.5735 14.7779H41.273C41.3041 14.781 41.3355 14.7775 41.3651 14.7678C41.3948 14.758 41.4221 14.7421 41.4452 14.7212C41.4683 14.7002 41.4867 14.6747 41.4993 14.6461C41.5119 14.6176 41.5183 14.5868 41.5181 14.5556H41.429ZM1.67126 53.3334V8.88898H43.8135V53.3334H1.67126ZM41.273 47.1112H37.5735C37.5423 47.111 37.5114 47.1174 37.4828 47.13C37.4542 47.1425 37.4285 47.1609 37.4075 47.1839C37.3865 47.207 37.3706 47.2342 37.3608 47.2638C37.351 47.2933 37.3476 47.3246 37.3507 47.3556V51.1112C37.3476 51.1422 37.351 51.1735 37.3608 51.2031C37.3706 51.2327 37.3865 51.2599 37.4075 51.2829C37.4285 51.306 37.4542 51.3243 37.4828 51.3369C37.5114 51.3494 37.5423 51.3558 37.5735 51.3556H41.273C41.338 51.3556 41.4003 51.3299 41.4463 51.284C41.4923 51.2382 41.5181 51.176 41.5181 51.1112V47.3556C41.5181 47.2908 41.4923 47.2286 41.4463 47.1828C41.4003 47.137 41.338 47.1112 41.273 47.1112ZM34.5873 47.1112H30.8655C30.8005 47.1112 30.7382 47.137 30.6922 47.1828C30.6462 47.2286 30.6204 47.2908 30.6204 47.3556V51.1112C30.6204 51.176 30.6462 51.2382 30.6922 51.284C30.7382 51.3299 30.8005 51.3556 30.8655 51.3556H34.565C34.63 51.3556 34.6923 51.3299 34.7383 51.284C34.7843 51.2382 34.8101 51.176 34.8101 51.1112V47.3556C34.8101 47.2908 34.7843 47.2286 34.7383 47.1828C34.6923 47.137 34.63 47.1112 34.565 47.1112H34.5873ZM27.9015 47.1112H24.1575C24.0925 47.1112 24.0302 47.137 23.9842 47.1828C23.9382 47.2286 23.9124 47.2908 23.9124 47.3556V51.1112C23.9124 51.176 23.9382 51.2382 23.9842 51.284C24.0302 51.3299 24.0925 51.3556 24.1575 51.3556H27.857C27.8882 51.3558 27.9191 51.3494 27.9477 51.3369C27.9763 51.3243 28.002 51.306 28.023 51.2829C28.044 51.2599 28.0599 51.2327 28.0697 51.2031C28.0795 51.1735 28.083 51.1422 28.0798 51.1112V47.3556C28.083 47.3246 28.0795 47.2933 28.0697 47.2638C28.0599 47.2342 28.044 47.207 28.023 47.1839C28.002 47.1609 27.9763 47.1425 27.9477 47.13C27.9191 47.1174 27.8882 47.111 27.857 47.1112H27.9015ZM21.2158 47.1112H17.4495C17.4183 47.111 17.3874 47.1174 17.3588 47.13C17.3302 47.1425 17.3045 47.1609 17.2835 47.1839C17.2625 47.207 17.2466 47.2342 17.2368 47.2638C17.227 47.2933 17.2236 47.3246 17.2267 47.3556V51.1112C17.2236 51.1422 17.227 51.1735 17.2368 51.2031C17.2466 51.2327 17.2625 51.2599 17.2835 51.2829C17.3045 51.306 17.3302 51.3243 17.3588 51.3369C17.3874 51.3494 17.4183 51.3558 17.4495 51.3556H21.149C21.1802 51.3558 21.2111 51.3494 21.2397 51.3369C21.2683 51.3243 21.294 51.306 21.315 51.2829C21.336 51.2599 21.3519 51.2327 21.3617 51.2031C21.3715 51.1735 21.375 51.1422 21.3718 51.1112V47.3556C21.375 47.3246 21.3715 47.2933 21.3617 47.2638C21.3519 47.2342 21.336 47.207 21.315 47.1839C21.294 47.1609 21.2683 47.1425 21.2397 47.13C21.2111 47.1174 21.1802 47.111 21.149 47.1112H21.2158ZM14.5301 47.1112H10.7415C10.6765 47.1112 10.6142 47.137 10.5682 47.1828C10.5222 47.2286 10.4964 47.2908 10.4964 47.3556V51.1112C10.4964 51.176 10.5222 51.2382 10.5682 51.284C10.6142 51.3299 10.6765 51.3556 10.7415 51.3556H14.441C14.506 51.3556 14.5683 51.3299 14.6143 51.284C14.6603 51.2382 14.6861 51.176 14.6861 51.1112V47.3556C14.6861 47.2908 14.6603 47.2286 14.6143 47.1828C14.5683 47.137 14.506 47.1112 14.441 47.1112H14.5301ZM4.12269 47.1112C4.05768 47.1112 3.99532 47.137 3.94935 47.1828C3.90338 47.2286 3.87755 47.2908 3.87755 47.3556V51.1112C3.87755 51.176 3.90338 51.2382 3.94935 51.284C3.99532 51.3299 4.05768 51.3556 4.12269 51.3556H7.73298C7.79799 51.3556 7.86035 51.3299 7.90632 51.284C7.95229 51.2382 7.97812 51.176 7.97812 51.1112V47.3556C7.97812 47.2908 7.95229 47.2286 7.90632 47.1828C7.86035 47.137 7.79799 47.1112 7.73298 47.1112H4.12269Z" fill="#32393E"/>
<path d="M7.51041 14.3112V11.1112H4.2567V14.3112H7.51041ZM7.73327 14.7779H4.03384C4.00276 14.781 3.97137 14.7776 3.9417 14.7678C3.91203 14.758 3.88476 14.7422 3.86164 14.7212C3.83853 14.7002 3.82009 14.6747 3.80752 14.6462C3.79496 14.6176 3.78854 14.5868 3.7887 14.5557V10.8445C3.7887 10.7797 3.81453 10.7175 3.8605 10.6717C3.90647 10.6259 3.96883 10.6001 4.03384 10.6001H7.73327C7.79829 10.6001 7.86064 10.6259 7.90661 10.6717C7.95259 10.7175 7.97841 10.7797 7.97841 10.8445V14.5557C7.97857 14.5868 7.97216 14.6176 7.95959 14.6462C7.94702 14.6747 7.92858 14.7002 7.90547 14.7212C7.88235 14.7422 7.85508 14.758 7.82541 14.7678C7.79575 14.7776 7.76435 14.781 7.73327 14.7779Z" fill="#32393E"/>
<path d="M14.1959 14.3112V11.1112H10.9645V14.3112H14.1959ZM14.441 14.7779H10.7416C10.7105 14.781 10.6791 14.7776 10.6495 14.7678C10.6198 14.758 10.5925 14.7422 10.5694 14.7212C10.5463 14.7002 10.5279 14.6747 10.5153 14.6462C10.5027 14.6176 10.4963 14.5868 10.4965 14.5557V10.8445C10.4965 10.7797 10.5223 10.7175 10.5683 10.6717C10.6142 10.6259 10.6766 10.6001 10.7416 10.6001H14.441C14.5061 10.6001 14.5684 10.6259 14.6144 10.6717C14.6604 10.7175 14.6862 10.7797 14.6862 10.8445V14.5557C14.6863 14.5868 14.6799 14.6176 14.6674 14.6462C14.6548 14.6747 14.6363 14.7002 14.6132 14.7212C14.5901 14.7422 14.5628 14.758 14.5332 14.7678C14.5035 14.7776 14.4721 14.781 14.441 14.7779Z" fill="#32393E"/>
<path d="M20.9038 14.3112V11.1112H17.6947V14.3112H20.9038ZM21.149 14.7779H17.4495C17.3904 14.7779 17.3338 14.7545 17.292 14.7128C17.2502 14.6711 17.2267 14.6146 17.2267 14.5557V10.8445C17.2264 10.7834 17.2492 10.7244 17.2904 10.6791C17.3317 10.6338 17.3885 10.6057 17.4495 10.6001H21.149C21.2101 10.6057 21.2668 10.6338 21.3081 10.6791C21.3493 10.7244 21.3721 10.7834 21.3718 10.8445V14.5557C21.3718 14.6146 21.3484 14.6711 21.3066 14.7128C21.2648 14.7545 21.2081 14.7779 21.149 14.7779Z" fill="#32393E"/>
<path d="M27.6342 14.3112V11.1112H24.4028V14.3112H27.6342ZM27.8793 14.7779H24.1576C24.1265 14.781 24.0951 14.7776 24.0655 14.7678C24.0358 14.758 24.0085 14.7422 23.9854 14.7212C23.9623 14.7002 23.9439 14.6747 23.9313 14.6462C23.9187 14.6176 23.9123 14.5868 23.9125 14.5557V10.8445C23.9125 10.7797 23.9383 10.7175 23.9843 10.6717C24.0303 10.6259 24.0926 10.6001 24.1576 10.6001H27.8571C27.9181 10.6057 27.9749 10.6338 28.0162 10.6791C28.0574 10.7244 28.0802 10.7834 28.0799 10.8445V14.5557C28.0799 14.6146 28.0564 14.6711 28.0146 14.7128C27.9728 14.7545 27.9162 14.7779 27.8571 14.7779H27.8793Z" fill="#32393E"/>
<path d="M31.2002 11.1112V14.3112H34.4539V11.1112H31.2002ZM34.6767 14.8001H30.8659C30.8348 14.8032 30.8034 14.7998 30.7737 14.79C30.7441 14.7803 30.7168 14.7644 30.6937 14.7434C30.6706 14.7225 30.6521 14.6969 30.6396 14.6684C30.627 14.6399 30.6206 14.609 30.6207 14.5779V10.8445C30.6207 10.7797 30.6466 10.7175 30.6925 10.6717C30.7385 10.6259 30.8009 10.6001 30.8659 10.6001H34.5653C34.6303 10.6001 34.6927 10.6259 34.7386 10.6717C34.7846 10.7175 34.8104 10.7797 34.8104 10.8445V14.5557C34.8106 14.5868 34.8042 14.6176 34.7916 14.6462C34.7791 14.6747 34.7606 14.7002 34.7375 14.7212C34.7144 14.7422 34.6871 14.758 34.6574 14.7678C34.6278 14.7776 34.5964 14.781 34.5653 14.7779L34.6767 14.8001Z" fill="#32393E"/>
<path d="M41.0275 11.1112H37.8852V14.3112H41.1166L41.0275 11.1112ZM41.5178 10.8668V14.5557C41.5179 14.5868 41.5115 14.6176 41.499 14.6462C41.4864 14.6747 41.4679 14.7002 41.4448 14.7212C41.4217 14.7422 41.3944 14.758 41.3648 14.7678C41.3351 14.7776 41.3037 14.781 41.2726 14.7779H37.5732C37.5439 14.7779 37.515 14.7721 37.4879 14.761C37.4609 14.7498 37.4363 14.7334 37.4156 14.7128C37.3949 14.6922 37.3785 14.6677 37.3673 14.6407C37.3561 14.6137 37.3503 14.5848 37.3503 14.5557V10.8445C37.3501 10.7834 37.3728 10.7244 37.4141 10.6791C37.4553 10.6338 37.5121 10.6057 37.5732 10.6001H41.2726C41.3376 10.6001 41.4 10.6259 41.446 10.6717C41.4919 10.7175 41.5178 10.7797 41.5178 10.8445V10.8668Z" fill="#32393E"/>
<path d="M7.51041 47.5778H4.2567V50.8223H7.51041V47.5778ZM4.03384 47.1111H7.73327C7.79828 47.1111 7.86064 47.1369 7.90661 47.1827C7.95258 47.2286 7.97841 47.2908 7.97841 47.3556V51.1111C7.97841 51.176 7.95258 51.2381 7.90661 51.284C7.86064 51.3298 7.79828 51.3556 7.73327 51.3556H4.03384C3.96882 51.3556 3.90647 51.3298 3.8605 51.284C3.81452 51.2381 3.7887 51.176 3.7887 51.1111V47.3556C3.7887 47.2908 3.81452 47.2286 3.8605 47.1827C3.90647 47.1369 3.96882 47.1111 4.03384 47.1111Z" fill="#32393E"/>
<path d="M14.1962 47.5778H10.9648V50.8223H14.1962V47.5778ZM10.7419 47.1111H14.4413C14.5063 47.1111 14.5687 47.1369 14.6147 47.1827C14.6606 47.2286 14.6865 47.2908 14.6865 47.3556V51.1111C14.6865 51.176 14.6606 51.2381 14.6147 51.284C14.5687 51.3298 14.5063 51.3556 14.4413 51.3556H10.7419C10.6808 51.35 10.6241 51.3218 10.5828 51.2766C10.5415 51.2313 10.5188 51.1723 10.519 51.1111V47.3556C10.5188 47.2944 10.5415 47.2354 10.5828 47.1901C10.6241 47.1449 10.6808 47.1167 10.7419 47.1111Z" fill="#32393E"/>
<path d="M20.9038 47.5778H17.6947V50.8223H20.9038V47.5778ZM17.4496 47.1111H21.149C21.1802 47.111 21.2112 47.1174 21.2398 47.1299C21.2684 47.1424 21.294 47.1608 21.315 47.1839C21.336 47.2069 21.3519 47.2341 21.3617 47.2637C21.3715 47.2933 21.375 47.3246 21.3718 47.3556V51.1111C21.375 51.1421 21.3715 51.1734 21.3617 51.203C21.3519 51.2326 21.336 51.2598 21.315 51.2829C21.294 51.3059 21.2684 51.3243 21.2398 51.3368C21.2112 51.3493 21.1802 51.3557 21.149 51.3556H17.4496C17.4183 51.3557 17.3874 51.3493 17.3588 51.3368C17.3302 51.3243 17.3046 51.3059 17.2835 51.2829C17.2625 51.2598 17.2466 51.2326 17.2368 51.203C17.227 51.1734 17.2236 51.1421 17.2267 51.1111V47.3556C17.2236 47.3246 17.227 47.2933 17.2368 47.2637C17.2466 47.2341 17.2625 47.2069 17.2835 47.1839C17.3046 47.1608 17.3302 47.1424 17.3588 47.1299C17.3874 47.1174 17.4183 47.111 17.4496 47.1111Z" fill="#32393E"/>
<path d="M27.6342 47.5778H24.4028V50.8223H27.6342V47.5778ZM24.1576 47.1111H27.857C27.8883 47.111 27.9192 47.1174 27.9478 47.1299C27.9764 47.1424 28.002 47.1608 28.0231 47.1839C28.0441 47.2069 28.06 47.2341 28.0698 47.2637C28.0796 47.2933 28.083 47.3246 28.0799 47.3556V51.1111C28.083 51.1421 28.0796 51.1734 28.0698 51.203C28.06 51.2326 28.0441 51.2598 28.0231 51.2829C28.002 51.3059 27.9764 51.3243 27.9478 51.3368C27.9192 51.3493 27.8883 51.3557 27.857 51.3556H24.1576C24.0926 51.3556 24.0303 51.3298 23.9843 51.284C23.9383 51.2381 23.9125 51.176 23.9125 51.1111V47.3556C23.9125 47.2908 23.9383 47.2286 23.9843 47.1827C24.0303 47.1369 24.0926 47.1111 24.1576 47.1111Z" fill="#32393E"/>
<path d="M34.3424 47.5778H31.2002V50.8223H34.4539L34.3424 47.5778ZM30.8659 47.1111H34.5653C34.6303 47.1111 34.6927 47.1369 34.7386 47.1827C34.7846 47.2286 34.8104 47.2908 34.8104 47.3556V51.1111C34.8104 51.176 34.7846 51.2381 34.7386 51.284C34.6927 51.3298 34.6303 51.3556 34.5653 51.3556H30.8659C30.8009 51.3556 30.7385 51.3298 30.6925 51.284C30.6466 51.2381 30.6207 51.176 30.6207 51.1111V47.3556C30.6207 47.2908 30.6466 47.2286 30.6925 47.1827C30.7385 47.1369 30.8009 47.1111 30.8659 47.1111Z" fill="#32393E"/>
<path d="M41.0274 47.5778H37.8851V50.8223H41.1165L41.0274 47.5778ZM37.5508 47.1111H41.2502C41.3152 47.1111 41.3776 47.1369 41.4236 47.1827C41.4695 47.2286 41.4954 47.2908 41.4954 47.3556V51.1111C41.4954 51.176 41.4695 51.2381 41.4236 51.284C41.3776 51.3298 41.3152 51.3556 41.2502 51.3556H37.5731C37.5419 51.3557 37.5109 51.3493 37.4823 51.3368C37.4537 51.3243 37.4281 51.3059 37.4071 51.2829C37.3861 51.2598 37.3701 51.2326 37.3604 51.203C37.3506 51.1734 37.3471 51.1421 37.3502 51.1111V47.3556C37.3471 47.3246 37.3506 47.2933 37.3604 47.2637C37.3701 47.2341 37.3861 47.2069 37.4071 47.1839C37.4281 47.1608 37.4537 47.1424 37.4823 47.1299C37.5109 47.1174 37.5419 47.111 37.5731 47.1111H37.5508Z" fill="#32393E"/>
<path d="M26.0746 2.22223H19.3889V60H26.0746V2.22223Z" fill="white" stroke="#32393E" stroke-width="0.7" stroke-miterlimit="10"/>
</g>
<defs>
<clipPath id="clip0">
<rect width="44.5714" height="60" fill="white"/>
</clipPath>
</defs>
</svg>
