<svg xmlns="http://www.w3.org/2000/svg" width="76.161" height="76.16" viewBox="0 0 76.161 76.16"><defs><style>.a{fill:#ffb782;}.b{fill:#418ad1;}.c{fill:#7a4930;}.d{fill:#fb8a29;}.e{fill:#fff;}.f{fill:#464848;}.g{fill:#fcfcfc;}.h{fill:#fd7b2f;}.i{fill:#f2a46f;}</style></defs><g transform="translate(0 -0.301)"><path class="a" d="M462.841,75.306,449.1,61.543v55.151h18.383V86.48A15.76,15.76,0,0,0,462.841,75.306Zm0,0" transform="translate(-391.328 -53.363)"/><path class="b" d="M10.736,53.287.352,26.329A5.252,5.252,0,0,1,3.366,19.54L52.38.661a5.251,5.251,0,0,1,6.788,3.014L69.553,30.633a5.252,5.252,0,0,1-3.014,6.789L17.526,56.3A5.254,5.254,0,0,1,10.736,53.287Zm0,0" transform="translate(0 -0.006)"/><path class="c" d="M90.965,101.961,32.2,124.741,36.109,134.9,94.88,112.13Zm0,0" transform="translate(-28.054 -88.582)"/><path class="d" d="M0,34.442V5.553A5.253,5.253,0,0,1,5.256.3H57.781a5.253,5.253,0,0,1,5.253,5.253V34.442a5.253,5.253,0,0,1-5.253,5.253H5.256A5.253,5.253,0,0,1,0,34.442Zm0,0" transform="translate(-0.004 0)"/><path class="d" d="M144.494.3h-5.581L99.52,39.694h44.974a5.253,5.253,0,0,0,5.253-5.253V5.553A5.253,5.253,0,0,0,144.494.3Zm0,0" transform="translate(-86.717 0)"/><g transform="translate(5.253 5.553)"><path class="e" d="M40.832,163.609h5.253v2.626H40.832Zm0,0" transform="translate(-40.832 -147.852)"/><path class="e" d="M40.832,224.852h5.253v2.626H40.832Zm0,0" transform="translate(-40.832 -201.216)"/><path class="e" d="M224.555,224.852h5.253v2.626h-5.253Zm0,0" transform="translate(-200.919 -201.216)"/><path class="e" d="M102.074,163.609h5.252v2.626h-5.252Zm0,0" transform="translate(-94.195 -147.852)"/><path class="e" d="M163.313,163.609h5.253v2.626h-5.253Zm0,0" transform="translate(-147.556 -147.852)"/><path class="e" d="M224.555,163.609h5.253v2.626h-5.253Zm0,0" transform="translate(-200.919 -147.852)"/><path class="e" d="M418.484,41.129h2.626v3.939h-2.626Zm0,0" transform="translate(-369.899 -41.129)"/><path class="e" d="M377.656,41.129h2.626v3.939h-2.626Zm0,0" transform="translate(-334.324 -41.129)"/><path class="e" d="M336.828,41.129h2.626v3.939h-2.626Zm0,0" transform="translate(-298.748 -41.129)"/><path class="e" d="M296,41.129h2.626v3.939H296Zm0,0" transform="translate(-263.176 -41.129)"/></g><path class="f" d="M408.277,490.23h23.636v13.131H408.277Zm0,0" transform="translate(-355.753 -426.9)"/><path class="a" d="M312.551,173.443a5.692,5.692,0,0,0-8.22,7.872l10.761,11.739a17.709,17.709,0,0,0,.358,18.169l.955,1.527h17.07V194.368Zm0,0" transform="translate(-263.881 -149.421)"/><path class="e" d="M438.9,520.852h2.626v2.626H438.9Zm0,0" transform="translate(-382.434 -453.582)"/><path class="g" d="M40.832,49.533v-6.3a2.1,2.1,0,0,1,2.1-2.1h6.3a2.1,2.1,0,0,1,2.1,2.1v6.3a2.1,2.1,0,0,1-2.1,2.1h-6.3A2.1,2.1,0,0,1,40.832,49.533Zm0,0" transform="translate(-35.579 -35.576)"/><path class="h" d="M40.832,71.75h3.939v2.626H40.832Zm0,0" transform="translate(-35.579 -62.257)"/><path class="h" d="M91.867,71.75h3.939v2.626H91.867Zm0,0" transform="translate(-80.049 -62.257)"/><path class="i" d="M486.4,294.083a1.311,1.311,0,0,1-.928-.385l-5.253-5.253a1.313,1.313,0,0,1,1.857-1.857l5.253,5.253a1.313,1.313,0,0,1-.929,2.242Zm0,0" transform="translate(-418.117 -249.136)"/></g></svg>