<svg xmlns="http://www.w3.org/2000/svg" width="85" height="85" viewBox="0 0 85 85"><defs><style>.a{fill:none;}.b{fill:#fb8a29;}.c{fill:#464848;}.d{fill:#418ad1;}</style></defs><g transform="translate(0 3)"><rect class="a" width="85" height="85" transform="translate(0 -3)"/><g transform="translate(0 0)"><path class="b" d="M64.262,4.7,77.675,19.718l-7.682.111c0,38.118-28.317,53.967-62.1,53.967C27.924,68.625,58.778,60.988,58.778,20l-7.684.107Z" transform="translate(7.325 4.878)"/><path class="b" d="M17.515,24.558a3.814,3.814,0,0,0-1.885-1.81l-3.745.528a1.87,1.87,0,0,1-1.378-.346,1.966,1.966,0,0,1-.314-.3l2.659,5.622a.61.61,0,0,0,.811.291l16.63-7.864-6.535.919Z" transform="translate(10.305 20.995)"/><path class="c" d="M16.119,32.026l-.73-1.541c.175.1.365.169.546.255L14.042,17.3a10.748,10.748,0,0,0-2.517,5.013l-4.29-9.072a3.84,3.84,0,0,0,1.83-5.111L12.518,6.5l-.285-2.034-8.7,4.112a.611.611,0,0,0-.289.811l13.806,29.2c-.006-.029-.016-.053-.02-.079Z" transform="translate(3.306 4.634)"/><path class="b" d="M18.526,28.627a3.821,3.821,0,0,0-2.321-1.2L12.765,29a1.849,1.849,0,0,1-1.805-.137L15.107,33.5a.609.609,0,0,0,.86.047L29.679,21.283,23.674,24.02Z" transform="translate(11.087 21.57)"/><path class="b" d="M18.927,34.587l-1.135-1.27c.194.041.4.057.6.088L12.757,21.057a10.768,10.768,0,0,0-.992,5.522L5.076,19.1a3.841,3.841,0,0,0,.306-5.42l2.845-2.547L7.373,9.264.2,15.681a.61.61,0,0,0-.049.858l21.533,24.07a.788.788,0,0,1-.043-.069Z" transform="translate(0 9.301)"/><path class="d" d="M15.022,2.832a2.452,2.452,0,1,0,2.769,2.085,2.45,2.45,0,0,0-2.769-2.085" transform="translate(13.12 2.914)"/><path class="d" d="M14.813,18.92A2.452,2.452,0,1,0,16.9,16.15a2.45,2.45,0,0,0-2.085,2.769" transform="translate(15.026 16.383)"/><path class="b" d="M31.321,37.408a3.835,3.835,0,0,0-.171,1.687l-12.192,1.72a3.837,3.837,0,0,0-4.326-3.226l-1.408-9.975a12.269,12.269,0,0,0,10.539,3.175c.106-.016.206-.045.31-.061a4.8,4.8,0,0,1,2.474-5.808l-1.314-.907a3.478,3.478,0,0,0,.642-2.584c-.132-.956-.675-1.479-1.424-1.373-.723.1-.982.5-1.223,1.989-.381,2.29-1.168,3.212-2.61,3.415a2.916,2.916,0,0,1-3.161-2.392l-2.178.308L15.042,21.7l2.178-.306a4.365,4.365,0,0,1,.848-2.614l1.418.9a3.2,3.2,0,0,0-.524,2.252c.114.809.526,1.278,1.145,1.192s.815-.493,1.084-2.093c.33-1.922.96-3.108,2.741-3.358a3.055,3.055,0,0,1,3.373,2.3l2.327-.328.236,1.679-2.24.316a5.1,5.1,0,0,1-.787,3.154,4.922,4.922,0,0,1,4.825.54l.7.538a9.322,9.322,0,0,0,.646-1.045l.242,1.73,2.221,1.708-.937-6.649-.029-.19h0L31.568.524a.608.608,0,0,0-.689-.518L8.415,3.171a.609.609,0,0,0-.518.687l5.512,39.105a.607.607,0,0,0,.687.518l17.637-2.486a9.31,9.31,0,0,1,.43-2.936ZM11.962,18.662l-1.4-9.936a3.839,3.839,0,0,0,3.267-4.338L26.015,2.67a3.835,3.835,0,0,0,4.334,3.267l1.4,9.936A12.268,12.268,0,0,0,21.212,12.7a12.263,12.263,0,0,0-9.249,5.967" transform="translate(7.951 0)"/></g><path class="c" d="M42.076,33.248S38.524,20.213,35.763,17.8c-2.062-1.8-8.328-5.985-8.328-5.985l.833,5.471,3.419,2.584.369,1.842L22.206,14.14a3.651,3.651,0,0,0-5.119.668,3.589,3.589,0,0,0,.656,5.031l7.193,5.531-.01.014s-3.313,6.659,4.654,11.3a8.62,8.62,0,0,1-5.29-3.415l-1.63.249c2.286,5.451,5.928,8.394,12.8,8.722ZM18.344,19.067a2.635,2.635,0,0,1-.5-3.69,2.682,2.682,0,0,1,3.762-.469l.858.66-3.222,4.188Z" transform="translate(16.482 11.873)"/></g></svg>