<svg xmlns="http://www.w3.org/2000/svg" xmlns:xlink="http://www.w3.org/1999/xlink" width="85" height="85" viewBox="0 0 85 85"><defs><style>.a{fill:none;}.b{fill:#fb8a29;}.c{fill:#418ad1;}.d{clip-path:url(#a);}.e{fill:#ffb782;}.f{fill:#43575e;}</style><clipPath id="a"><rect class="a" width="70.552" height="76.572"/></clipPath></defs><g transform="translate(0 3)"><rect class="a" width="85" height="85" transform="translate(0 -3)"/><g transform="translate(6.991 2.313)"><rect class="b" width="18.012" height="6.838" transform="translate(27.539 13.631)"/><rect class="b" width="18.013" height="6.838" transform="translate(47.879 13.631)"/><path class="b" d="M131.922,97.93V116.6h15.858V99.533l-4.169,5.751-1.09-2.144-2.671.071,3.828-5.28Z" transform="translate(-102.229 -75.888)"/><path class="b" d="M216.057,104.755l-3.337-4.6V116.6h15.858V97.93H216.372l3.488,4.812-2.883.181Z" transform="translate(-164.841 -75.888)"/><path class="c" d="M143.475,11.753a56.09,56.09,0,0,0,8.67.649v0l.555,0c.332,0,.566,0,.677,0H154c.111,0,.346,0,.678,0l.567,0,0,0a56.015,56.015,0,0,0,8.655-.648,6.834,6.834,0,0,0,4.462-3.068,6.653,6.653,0,0,0,.753-5.15A4.5,4.5,0,0,0,167.105.767,5.654,5.654,0,0,0,164.148,0a7.614,7.614,0,0,0-3.988,1.127,19.166,19.166,0,0,0-5.907,6.137c-.2.329-.388.664-.565,1-.177-.337-.366-.672-.565-1a19.163,19.163,0,0,0-5.907-6.137A7.613,7.613,0,0,0,143.227,0a5.654,5.654,0,0,0-2.958.767,4.5,4.5,0,0,0-2.009,2.768,6.653,6.653,0,0,0,.753,5.15,6.834,6.834,0,0,0,4.462,3.068M161.63,3.4a4.876,4.876,0,0,1,2.517-.692A2.108,2.108,0,0,1,166.5,4.22a3.936,3.936,0,0,1-.44,3.047,4.077,4.077,0,0,1-2.726,1.84A49.892,49.892,0,0,1,156,9.683,16.532,16.532,0,0,1,161.63,3.4m-20.754.823a2.108,2.108,0,0,1,2.35-1.515,4.875,4.875,0,0,1,2.517.692,16.439,16.439,0,0,1,5.028,5.209c.216.354.417.714.6,1.077a49.893,49.893,0,0,1-7.332-.575,4.076,4.076,0,0,1-2.726-1.84,3.936,3.936,0,0,1-.44-3.047" transform="translate(-106.972)"/><g class="d"><path class="e" d="M107.224,194.569c-1.254-.139-3.484,1.115-3.484,1.115l-6.132,2.927c-1.076.625-2.125,1.223-2.2,1.246a4.821,4.821,0,0,0-2.118,1.416,5.23,5.23,0,0,1-1.719,4.352,7.289,7.289,0,0,1-2.688,1.407,23.671,23.671,0,0,1-8.645,1.064c-2.011-.041-3.909-.587-9.7-1.071-1.341-.112-2.19-.085-2.058-.332.377-.7,12.125.509,13.517.433,4.509-.246,8.052-1.418,8.967-2.524a3.044,3.044,0,0,0,.65-3.33c-.584-.971-1.96-1.479-6.3-1.671-2.178-.1-4.151-.3-6.1-.3a8.325,8.325,0,0,1-2.591-.526c-6.39-2.764-14.612-5.737-20.83-.951a12.6,12.6,0,0,0-1.356,1.235A11.978,11.978,0,0,0,53.27,200.5c-.507.53-1.146,1.147-1.93,1.873a24.366,24.366,0,0,1-2.038,1.62l9.246,13.213q.868-.661,1.757-1.3l1.417-1.01a7.228,7.228,0,0,1,4.192-1.34H76.7l2.634-.289A23.429,23.429,0,0,0,84.787,212l1.951-.709,5.519-1.985.06-.022a29.769,29.769,0,0,0,8.745-4.986l1.841-1.508c.65-.65,2.535-2.165,3.723-3.1a6.274,6.274,0,0,0,1.92-2.53,2.335,2.335,0,0,0,.21-.776,1.657,1.657,0,0,0-1.533-1.812" transform="translate(-38.205 -150.767)"/><path class="f" d="M0,238.122l12.774,18.787,7.935-6.774L8.52,232.717ZM14.537,248.81a1.759,1.759,0,1,1-1.759,1.759,1.759,1.759,0,0,1,1.759-1.759" transform="translate(0 -180.337)"/></g></g></g></svg>