<svg xmlns="http://www.w3.org/2000/svg" width="85" height="85" viewBox="0 0 85 85"><defs><style>.a,.h{fill:none;}.b{fill:#43575e;}.c{fill:#5c6f75;}.d{fill:#fb8a29;}.e,.i{fill:#fff;}.f{opacity:0.1;}.g{isolation:isolate;}.h{stroke:#fff;stroke-linecap:round;stroke-width:2px;}.i{fill-rule:evenodd;}</style></defs><g transform="translate(0 3)"><rect class="a" width="85" height="85" transform="translate(0 -3)"/><g transform="translate(9 -16.497)"><path class="b" d="M178.293,398.283H153.4a1.051,1.051,0,0,1-.637-1.886,13.6,13.6,0,0,0,4.063-5.11,16.894,16.894,0,0,0,1.576-6.214h14.888a16.894,16.894,0,0,0,1.576,6.214,13.594,13.594,0,0,0,4.063,5.11A1.051,1.051,0,0,1,178.293,398.283Z" transform="translate(-132.506 -312.748)"/><path class="c" d="M207.772,390.031a16.61,16.61,0,0,1-1.049-4.957H191.835a16.614,16.614,0,0,1-1.049,4.957Z" transform="translate(-165.939 -312.748)"/><path class="d" d="M66.679,30.439V66.532H0V30.439A4.94,4.94,0,0,1,4.939,25.5h56.8A4.94,4.94,0,0,1,66.679,30.439Z" transform="translate(0 0)"/><rect class="d" width="66.679" height="3.572" transform="translate(0 62.959)"/><path class="b" d="M64.494,342.894H2.186A2.186,2.186,0,0,1,0,340.708v-7.052H66.68v7.052A2.186,2.186,0,0,1,64.494,342.894Z" transform="translate(0 -268.026)"/><circle class="e" cx="1.499" cy="1.499" r="1.499" transform="translate(31.841 68.749)"/><g class="g" transform="translate(9.1 35.238)"><g transform="translate(0 0)"><line class="h" x2="9.696" transform="translate(38.783 -0.242)"/><line class="h" x2="9.696" transform="translate(38.783 5.742)"/><line class="h" x2="9.696" transform="translate(38.783 12.473)"/><line class="h" x2="10.079" transform="translate(38.399 18.457)"/><line class="h" x2="49.079" transform="translate(-0.601 24.457)"/></g></g><path class="i" d="M12.624,0a9.441,9.441,0,0,1,7.291,3.448l-.01.01L18.632,3.37,20.711,6.8l0,2.515h1.078V7.07c-.016-.061-.034-.122-.051-.182l0-.007,0-.006,0-.007V6.861l0-.007,0-.006V6.841l0-.006,0-.007h0l0-.006,0-.007,0-.006h0l0-.013,0-.006h0l0-.011h0l0-.007,0-.007,0-.006h0l0-.006,0-.013h0v0l0-.009h0l0-.006,0-.013,0-.007-.01-.03v0l0-.007,0-.006,0-.007h0l0-.007h0l0-.013V6.618l0-.007,0-.011h0v0l-.011-.01,0-.006h0l0-.009-.005-.016V6.549l0-.007-.009-.026,0-.007h0l0-.006,0-.013v0l0,0L21.6,6.463c-.093-.272-.2-.539-.315-.8l-.043.076,1.313-2.281h1.325L21.79,6.8v.265A9.672,9.672,0,0,1,17.769,17.7,9.415,9.415,0,0,1,6.54,17l2.033-5.451H7.339l-1.41,4.1-1.458-4.1H3.315a9.709,9.709,0,0,1,1.947-8.01A9.467,9.467,0,0,1,12.624,0ZM4.96,17.087l-1.98-5.522H1.925L0,17.087H1.059l.407-1.254H3.442l.431,1.254ZM3.122,14.9l-.681-2.049L1.773,14.9ZM23.258,6.45a3,3,0,0,0,.75,2.162,2.666,2.666,0,0,0,2.021.784,2.633,2.633,0,0,0,2-.789,2.594,2.594,0,0,0,.622-1.126,4.5,4.5,0,0,0,.086.635,1.578,1.578,0,0,0,.322.639,1.764,1.764,0,0,0,.666.495,3.094,3.094,0,0,0,1.238.191,2.879,2.879,0,0,0,1.1-.174,1.765,1.765,0,0,0,.671-.469,1.643,1.643,0,0,0,.343-.724,7.89,7.89,0,0,0,.092-1.466V3.577H32.022V6.765a6.282,6.282,0,0,1-.052.981.792.792,0,0,1-.3.5,1.149,1.149,0,0,1-.739.2,1.213,1.213,0,0,1-.76-.214.933.933,0,0,1-.352-.567,6.568,6.568,0,0,1-.042-.965V3.577H28.63V5.271a2.564,2.564,0,0,0-.6-1.044,2.653,2.653,0,0,0-2.015-.792,3.062,3.062,0,0,0-1.228.23,2.218,2.218,0,0,0-.737.516,2.769,2.769,0,0,0-.531.792,3.7,3.7,0,0,0-.26,1.479Zm1.185-.039a2.191,2.191,0,0,1,.435-1.488,1.578,1.578,0,0,1,2.288-.007A2.2,2.2,0,0,1,27.6,6.4a2.218,2.218,0,0,1-.441,1.5,1.525,1.525,0,0,1-2.264,0,2.184,2.184,0,0,1-.447-1.485ZM21.6,6.463l.135.425,0-.007,0-.006,0-.007V6.861l0-.007,0-.006V6.841l0-.006,0-.007h0l0-.006,0-.007,0-.006h0l0-.013,0-.006h0l0-.011h0l0-.007,0-.007,0-.006h0l0-.006,0-.013h0v0l0-.009h0l0-.006,0-.013,0-.007-.01-.03v0l0-.007,0-.006,0-.007h0l0-.007h0l0-.013V6.618l0-.007,0-.011h0v0l-.01-.01,0-.006h0l0-.009-.005-.016V6.549l0-.007-.009-.026,0-.007h0l0-.006,0-.013v0l0,0L21.6,6.463ZM8.548,15.424a2.308,2.308,0,0,0,.57,1.437,1.829,1.829,0,0,0,1.373.493,2.28,2.28,0,0,0,1.026-.206,1.439,1.439,0,0,0,.636-.628,1.884,1.884,0,0,0,.226-.9,1.953,1.953,0,0,0-.187-.9,1.47,1.47,0,0,0-.522-.573,4.167,4.167,0,0,0-1.029-.4,2.275,2.275,0,0,1-.875-.377.466.466,0,0,1-.141-.342.437.437,0,0,1,.152-.349.951.951,0,0,1,.649-.2.853.853,0,0,1,.6.19c.134.128.138.284.179.574h1.036a1.8,1.8,0,0,0-.471-1.242,1.782,1.782,0,0,0-1.337-.463,2.036,2.036,0,0,0-.928.2,1.347,1.347,0,0,0-.588.57,1.657,1.657,0,0,0-.2.8,1.6,1.6,0,0,0,.435,1.132,2.4,2.4,0,0,0,1.074.56c.4.118.65.2.761.246a.735.735,0,0,1,.341.243.563.563,0,0,1,.1.34.741.741,0,0,1-.235.543.935.935,0,0,1-.692.234.918.918,0,0,1-.688-.263,1.075,1.075,0,0,1-.265-.708ZM14.8,12.659h2.1v-2.3h1.4V8.423H16.9V1.154H15.075L10.161,8.43v1.925H14.8Zm0-4.236V4.505l-2.6,3.917Z" transform="translate(8.659 33.548)"/></g></g></svg>