<svg xmlns="http://www.w3.org/2000/svg" xmlns:xlink="http://www.w3.org/1999/xlink" width="16" height="16.001" viewBox="0 0 16 16.001">
  <defs>
    <clipPath id="clip-path">
      <rect id="Rectangle_3750" data-name="Rectangle 3750" width="16" height="16.001" fill="none"/>
    </clipPath>
  </defs>
  <g id="us_uk" transform="translate(0 0)">
    <g id="Group_4118" data-name="Group 4118" transform="translate(0 0)" clip-path="url(#clip-path)">
      <path id="Path_24001" data-name="Path 24001" d="M8.02,0A8,8,0,1,1,.04,8,7.99,7.99,0,0,1,8.02,0" transform="translate(0 0)" fill="#ececec"/>
      <path id="Path_24002" data-name="Path 24002" d="M7.692,8H16.02a8.011,8.011,0,0,0-.276-2.087H7.692Z" transform="translate(-0.02 0)" fill="#cb001e"/>
      <path id="Path_24003" data-name="Path 24003" d="M7.692,3.827h7.156A7.994,7.994,0,0,0,13.006,1.74H7.692Z" transform="translate(-0.02 0)" fill="#cb001e"/>
      <path id="Path_24004" data-name="Path 24004" d="M8.028,16a7.937,7.937,0,0,0,4.966-1.739H3.061A7.937,7.937,0,0,0,8.028,16" transform="translate(-0.008 0)" fill="#cb001e"/>
      <path id="Path_24005" data-name="Path 24005" d="M1.213,12.175H14.828a7.93,7.93,0,0,0,.9-2.087H.316a7.958,7.958,0,0,0,.9,2.087" transform="translate(-0.001 0)" fill="#cb001e"/>
      <path id="Path_24006" data-name="Path 24006" d="M3.737,1.249h.727l-.676.493.258.8-.676-.493-.676.493.223-.689A8.017,8.017,0,0,0,1.369,3.58H1.6l-.431.314c-.067.112-.131.226-.194.342l.205.634L.8,4.59q-.142.3-.261.621l.225.7H1.6L.925,6.4l.258.8L.507,6.707.1,7A8.156,8.156,0,0,0,.04,8H8.02V0A7.921,7.921,0,0,0,3.737,1.249M4.046,7.2l-.676-.493L2.692,7.2l.258-.8-.676-.49H3.11l.258-.8.258.8h.836l-.675.49ZM3.787,4.072l.258.8-.676-.493-.676.493.258-.8L2.274,3.58H3.11l.258-.8.258.8h.836ZM6.906,7.2l-.675-.493L5.555,7.2l.257-.8-.676-.49h.837l.258-.8.257.8H7.32l-.671.49ZM6.649,4.072l.257.8-.675-.493-.676.493.257-.8L5.136,3.58h.837l.258-.8.257.8H7.32Zm0-2.33.257.8-.675-.493-.676.493.257-.8-.676-.493h.837l.258-.8.257.8H7.32Z" transform="translate(0 0)" fill="#004493"/>
      <path id="Path_24007" data-name="Path 24007" d="M11.843,7.96c-1.589-.005-3.164-.1-4.752-.032-1.639.069-3.278.051-4.916.1a7.057,7.057,0,0,1-2.133.012A7.978,7.978,0,0,0,16,8.026c-1.383-.009-2.771-.062-4.154-.066" transform="translate(0 0)" fill="#ececec"/>
      <path id="Path_24008" data-name="Path 24008" d="M.315,10.073a7.948,7.948,0,0,0,1.372,2.78l2.773-2.78Z" transform="translate(-0.001 0)" fill="#004493"/>
      <path id="Path_24009" data-name="Path 24009" d="M3.165,14.327A7.929,7.929,0,0,0,5.938,15.7V11.547Z" transform="translate(-0.008 0)" fill="#004493"/>
      <path id="Path_24010" data-name="Path 24010" d="M10.112,15.7a7.9,7.9,0,0,0,2.773-1.376l-2.773-2.78Z" transform="translate(-0.026 0)" fill="#004493"/>
      <path id="Path_24011" data-name="Path 24011" d="M11.587,10.073l2.773,2.78a7.983,7.983,0,0,0,1.372-2.78Z" transform="translate(-0.03 0)" fill="#004493"/>
      <path id="Path_24012" data-name="Path 24012" d="M11.843,7.96c-1.589-.005-3.164-.1-4.752-.032-1.639.069-3.278.051-4.916.1a8.385,8.385,0,0,0-2.131.013,7.944,7.944,0,0,0,.064.986H6.97v6.88a7.94,7.94,0,0,0,2.078,0V9.03h6.863a8.054,8.054,0,0,0,.065-1c-1.376-.01-2.757-.062-4.133-.066" transform="translate(0 0)" fill="#cb001e"/>
      <path id="Path_24013" data-name="Path 24013" d="M0,7.842" transform="translate(0 0)" fill="#cb001e"/>
      <path id="Path_24014" data-name="Path 24014" d="M10.112,10.073h0l3.556,3.565q.245-.246.469-.513l-3.044-3.052h-.98Z" transform="translate(-0.026 0)" fill="#cb001e"/>
      <path id="Path_24015" data-name="Path 24015" d="M5.936,10.073h0L2.38,13.638c.164.164.334.32.512.47l3.044-3.052Z" transform="translate(-0.006 0)" fill="#cb001e"/>
      <path id="Path_24016" data-name="Path 24016" d="M15.959,7.842h0Z" transform="translate(0 0)" fill="#fff"/>
      <path id="Path_24017" data-name="Path 24017" d="M15.959,7.842h0Z" transform="translate(0 0)" fill="none" stroke="#ececec" stroke-miterlimit="10" stroke-width="0.75"/>
    </g>
  </g>
</svg>
