<svg id="korean" xmlns="http://www.w3.org/2000/svg" xmlns:xlink="http://www.w3.org/1999/xlink" width="16" height="16" viewBox="0 0 16 16">
  <defs>
    <clipPath id="clip-path">
      <path id="Path_20800" data-name="Path 20800" d="M108.451,70.673l-.007-.011.007.011m-.007-.011,0-.006,0,.006" transform="translate(-108.44 -70.656)" fill="none"/>
    </clipPath>
    <linearGradient id="linear-gradient" x1="-1063.165" y1="522.788" x2="-1053.36" y2="522.788" gradientUnits="objectBoundingBox">
      <stop offset="0" stop-color="#fff"/>
      <stop offset="0.676" stop-color="#fdfdfd"/>
      <stop offset="0.921" stop-color="#f6f6f6"/>
      <stop offset="1" stop-color="#f2f2f2"/>
    </linearGradient>
    <clipPath id="clip-path-2">
      <rect id="Rectangle_2568" data-name="Rectangle 2568" width="16" height="16" fill="none"/>
    </clipPath>
    <clipPath id="clip-path-3">
      <path id="Path_20802" data-name="Path 20802" d="M109.017,71.674c-.006-.015-.013-.03-.02-.044l.02.044M109,71.63c-.01-.02-.02-.04-.031-.06l.031.06" transform="translate(-108.966 -71.57)" fill="none"/>
    </clipPath>
    <linearGradient id="linear-gradient-2" x1="-224.21" y1="83.146" x2="-222.152" y2="83.146" xlink:href="#linear-gradient"/>
    <clipPath id="clip-path-5">
      <path id="Path_20804" data-name="Path 20804" d="M45.8,82.5l-.028-.055c.009.019.018.037.028.055m-.028-.055-.022-.048c.007.016.015.032.022.048" transform="translate(-45.745 -82.394)" fill="none"/>
    </clipPath>
    <linearGradient id="linear-gradient-3" x1="-94.514" y1="73.001" x2="-92.448" y2="73.001" xlink:href="#linear-gradient"/>
    <clipPath id="clip-path-7">
      <path id="Path_20806" data-name="Path 20806" d="M109.548,72.848c0-.007,0-.015,0-.022a1.394,1.394,0,0,0-.075-.218,1.57,1.57,0,0,1,.077.24" transform="translate(-109.471 -72.608)" fill="none"/>
    </clipPath>
    <linearGradient id="linear-gradient-4" x1="-149.55" y1="35.673" x2="-148.184" y2="35.673" xlink:href="#linear-gradient"/>
    <clipPath id="clip-path-9">
      <path id="Path_20808" data-name="Path 20808" d="M46.665,84.156l0-.005,0,.005m0-.005-.007-.011.007.011" transform="translate(-46.655 -84.14)" fill="none"/>
    </clipPath>
    <linearGradient id="linear-gradient-5" x1="-471.249" y1="449.727" x2="-461.148" y2="449.727" xlink:href="#linear-gradient"/>
    <clipPath id="clip-path-11">
      <path id="Path_20810" data-name="Path 20810" d="M44.844,79.458a1.4,1.4,0,0,0,.092.3,1.589,1.589,0,0,1-.092-.3h0" transform="translate(-44.844 -79.457)" fill="none"/>
    </clipPath>
    <linearGradient id="linear-gradient-6" x1="-51.017" y1="25.96" x2="-49.88" y2="25.96" xlink:href="#linear-gradient"/>
    <clipPath id="clip-path-12">
      <path id="Path_20818" data-name="Path 20818" d="M46.274,83.459l-.026-.045c.008.015.017.03.026.045m-.026-.045-.019-.035.019.035" transform="translate(-46.229 -83.379)" fill="none"/>
    </clipPath>
    <linearGradient id="linear-gradient-7" x1="-108.52" y1="93.195" x2="-106.173" y2="93.195" xlink:href="#linear-gradient"/>
    <clipPath id="clip-path-14">
      <path id="Path_20820" data-name="Path 20820" d="M47.161,84.741a2.149,2.149,0,0,0,.24.157l.016,0a2.111,2.111,0,0,1-.333-.232,1.7,1.7,0,0,1-.33-.372,1.648,1.648,0,0,0,.407.445" transform="translate(-46.754 -84.296)" fill="none"/>
    </clipPath>
    <linearGradient id="linear-gradient-8" x1="-7.4" y1="12.175" x2="-7.242" y2="12.175" xlink:href="#linear-gradient"/>
    <clipPath id="clip-path-16">
      <path id="Path_20824" data-name="Path 20824" d="M108.587,70.9l-.018-.033.018.033m-.018-.033c-.008-.015-.017-.031-.026-.046l.026.046" transform="translate(-108.542 -70.816)" fill="none"/>
    </clipPath>
    <linearGradient id="linear-gradient-9" x1="-255.998" y1="110.722" x2="-253.639" y2="110.722" xlink:href="#linear-gradient"/>
    <clipPath id="clip-path-18">
      <path id="Path_20826" data-name="Path 20826" d="M45.725,82.346l0-.006,0,.006" transform="translate(-45.723 -82.34)" fill="none"/>
    </clipPath>
    <linearGradient id="linear-gradient-10" x1="-2078.379" y1="1332.571" x2="-2032.923" y2="1332.571" xlink:href="#linear-gradient"/>
    <clipPath id="clip-path-20">
      <path id="Path_20828" data-name="Path 20828" d="M109.454,72.57l0,0,0,0" transform="translate(-109.452 -72.565)" fill="none"/>
    </clipPath>
    <linearGradient id="linear-gradient-11" x1="-5763.798" y1="1901.184" x2="-5711.137" y2="1901.184" xlink:href="#linear-gradient"/>
  </defs>
  <g id="Group_4020" data-name="Group 4020">
    <g id="Group_4068" data-name="Group 4068">
      <path id="Path_20795" data-name="Path 20795" d="M8,0a8,8,0,1,0,8,8A8,8,0,0,0,8,0M3.342,12.89,1.615,10.9l.392-.342,1.727,1.985ZM2.166,10.426l.392-.341.731.84-.393.341Zm1.727,1.985-.731-.84.393-.341.731.84Zm.551-.479L2.716,9.947l.393-.341,1.727,1.985Zm6.8-.4.736-.836.39.344-.736.836Zm1.393-.8-.391-.344.736-.836.39.344Zm.893-.7.39.344-.736.836-.391-.344Zm-1.739,1.975.736-.836.391.344-.736.836Zm.938.826-.391-.344.736-.836.39.344Zm1-1.139-.391-.344.736-.836.391.344Zm1.137-5.942c.448,2.034-1.277,3.055-3.658,3.475a3.4,3.4,0,0,1-6.333.008C2.548,8.847.882,7.864,1.3,5.763c.019-.1.041-.191.065-.286A6.587,6.587,0,0,1,8.084.667a6.629,6.629,0,0,1,6.711,4.809c.026.095.05.19.071.286" transform="translate(0 -0.001)" fill="#f0f0f0"/>
      <rect id="Rectangle_2556" data-name="Rectangle 2556" width="1.114" height="0.52" transform="matrix(0.661, -0.751, 0.751, 0.661, 11.24, 11.535)"/>
      <rect id="Rectangle_2557" data-name="Rectangle 2557" width="1.114" height="0.52" transform="matrix(0.661, -0.751, 0.751, 0.661, 12.243, 10.396)"/>
      <rect id="Rectangle_2558" data-name="Rectangle 2558" width="1.114" height="0.52" transform="matrix(0.661, -0.751, 0.751, 0.661, 11.788, 12.017)"/>
      <rect id="Rectangle_2559" data-name="Rectangle 2559" width="1.114" height="0.52" transform="matrix(0.661, -0.75, 0.75, 0.661, 12.79, 10.877)"/>
      <rect id="Rectangle_2560" data-name="Rectangle 2560" width="1.114" height="0.52" transform="translate(12.336 12.499) rotate(-48.66)"/>
      <rect id="Rectangle_2561" data-name="Rectangle 2561" width="1.114" height="0.52" transform="matrix(0.661, -0.751, 0.751, 0.661, 13.338, 11.36)"/>
      <rect id="Rectangle_2562" data-name="Rectangle 2562" width="0.52" height="2.631" transform="matrix(0.755, -0.656, 0.656, 0.755, 2.716, 9.946)"/>
      <rect id="Rectangle_2563" data-name="Rectangle 2563" width="0.52" height="1.114" transform="translate(2.166 10.425) rotate(-41.015)"/>
      <rect id="Rectangle_2564" data-name="Rectangle 2564" width="0.52" height="1.114" transform="matrix(0.755, -0.656, 0.656, 0.755, 3.162, 11.57)"/>
      <rect id="Rectangle_2565" data-name="Rectangle 2565" width="0.52" height="2.631" transform="translate(1.615 10.904) rotate(-41.018)"/>
      <path id="Path_20796" data-name="Path 20796" d="M54.5,90.162c-.488-.022-.966-.06-1.425-.116a1.762,1.762,0,0,0,.879.232,1.37,1.37,0,0,0,.546-.116" transform="translate(-47.569 -80.709)" fill="#ff241f"/>
      <path id="Path_20797" data-name="Path 20797" d="M49.224,89.3a1.062,1.062,0,0,1-.537.148,2.116,2.116,0,0,1-1.066-.273q-.313-.039-.613-.09a3.4,3.4,0,0,0,6.333-.008,18.32,18.32,0,0,1-3.124.242c-.333,0-.665-.006-.993-.018" transform="translate(-42.134 -79.84)" fill="#0022d4"/>
      <path id="Path_20798" data-name="Path 20798" d="M53.817,90.261a1.762,1.762,0,0,1-.879-.232l-.015,0a2.115,2.115,0,0,0,1.065.273,1.062,1.062,0,0,0,.537-.148l-.162-.007a1.37,1.37,0,0,1-.546.116" transform="translate(-47.435 -80.692)" fill="#0022d4"/>
      <path id="Path_20799" data-name="Path 20799" d="M108.451,70.673l-.011-.017.011.017" transform="translate(-97.195 -63.329)" fill="#e6e6e6"/>
    </g>
  </g>
  <g id="Group_4022" data-name="Group 4022" transform="translate(11.245 7.327)">
    <g id="Group_4021" data-name="Group 4021" clip-path="url(#clip-path)">
      <rect id="Rectangle_2567" data-name="Rectangle 2567" width="0.011" height="0.017" transform="translate(0 0)" fill="url(#linear-gradient)"/>
    </g>
  </g>
  <g id="Group_4024" data-name="Group 4024">
    <g id="Group_4023" data-name="Group 4023" clip-path="url(#clip-path-2)">
      <path id="Path_20801" data-name="Path 20801" d="M109.016,71.674c-.015-.035-.032-.069-.05-.1.018.034.035.068.05.1" transform="translate(-97.667 -64.149)" fill="#e6e6e6"/>
    </g>
  </g>
  <g id="Group_4026" data-name="Group 4026" transform="translate(11.299 7.421)">
    <g id="Group_4025" data-name="Group 4025" clip-path="url(#clip-path-3)">
      <rect id="Rectangle_2569" data-name="Rectangle 2569" width="0.051" height="0.104" transform="translate(0)" fill="url(#linear-gradient-2)"/>
    </g>
  </g>
  <g id="Group_4028" data-name="Group 4028">
    <g id="Group_4027" data-name="Group 4027" clip-path="url(#clip-path-2)">
      <path id="Path_20803" data-name="Path 20803" d="M45.8,82.5c-.018-.034-.035-.067-.05-.1q.023.052.05.1" transform="translate(-41.001 -73.85)" fill="#e6e6e6"/>
    </g>
  </g>
  <g id="Group_4030" data-name="Group 4030" transform="translate(4.743 8.543)">
    <g id="Group_4029" data-name="Group 4029" clip-path="url(#clip-path-5)">
      <rect id="Rectangle_2571" data-name="Rectangle 2571" width="0.051" height="0.103" transform="translate(0 0)" fill="url(#linear-gradient-3)"/>
    </g>
  </g>
  <g id="Group_4032" data-name="Group 4032">
    <g id="Group_4031" data-name="Group 4031" clip-path="url(#clip-path-2)">
      <path id="Path_20805" data-name="Path 20805" d="M109.547,72.845l0-.022a1.374,1.374,0,0,0-.074-.216,1.555,1.555,0,0,1,.076.237" transform="translate(-98.119 -65.079)" fill="#e6e6e6"/>
    </g>
  </g>
  <g id="Group_4034" data-name="Group 4034" transform="translate(11.351 7.528)">
    <g id="Group_4033" data-name="Group 4033" clip-path="url(#clip-path-7)">
      <rect id="Rectangle_2573" data-name="Rectangle 2573" width="0.077" height="0.24" transform="translate(0 0)" fill="url(#linear-gradient-4)"/>
    </g>
  </g>
  <g id="Group_4036" data-name="Group 4036">
    <g id="Group_4035" data-name="Group 4035" clip-path="url(#clip-path-2)">
      <path id="Path_20807" data-name="Path 20807" d="M46.665,84.156l-.01-.016.01.016" transform="translate(-41.817 -75.415)" fill="#e6e6e6"/>
    </g>
  </g>
  <g id="Group_4038" data-name="Group 4038" transform="translate(4.838 8.725)">
    <g id="Group_4037" data-name="Group 4037" clip-path="url(#clip-path-9)">
      <rect id="Rectangle_2575" data-name="Rectangle 2575" width="0.01" height="0.016" fill="url(#linear-gradient-5)"/>
    </g>
  </g>
  <g id="Group_4040" data-name="Group 4040">
    <g id="Group_4039" data-name="Group 4039" clip-path="url(#clip-path-2)">
      <path id="Path_20809" data-name="Path 20809" d="M44.844,79.457h0a1.382,1.382,0,0,0,.091.3,1.577,1.577,0,0,1-.091-.3" transform="translate(-40.194 -71.218)" fill="#e6e6e6"/>
    </g>
  </g>
  <g id="Group_4042" data-name="Group 4042" transform="translate(4.65 8.237)">
    <g id="Group_4041" data-name="Group 4041" clip-path="url(#clip-path-11)">
      <rect id="Rectangle_2577" data-name="Rectangle 2577" width="0.092" height="0.303" fill="url(#linear-gradient-6)"/>
    </g>
  </g>
  <g id="Group_4044" data-name="Group 4044">
    <g id="Group_4067" data-name="Group 4067">
      <path id="Path_20811" data-name="Path 20811" d="M18.774,6.424a6.587,6.587,0,0,0-6.717,4.809c-.024.095-.046.19-.065.286-.419,2.1,1.247,3.084,3.573,3.483a3.377,3.377,0,0,1-.224-1h0c-.005-.076-.009-.153-.009-.231a3.4,3.4,0,0,1,6.784-.264l0,.022c.006.08.009.161.009.242a3.388,3.388,0,0,1-.23,1.228c2.381-.42,4.106-1.441,3.658-3.475-.021-.1-.045-.191-.071-.286a6.629,6.629,0,0,0-6.711-4.809m-6.463,4.463,1.717-1.994.394.339L12.7,11.226Zm.553.476L14.58,9.369l.394.339L13.258,11.7Zm.553.476,1.717-1.994.394.339-1.717,1.994Zm8.5-1.654.394-.34.728.843-.394.34Zm1.72,1.992-.728-.843.394-.34.728.843Zm.552-.477-1.72-1.992.394-.34,1.72,1.992Zm.946-.817-.394.34-.728-.843.394-.34Zm-1.385-.809-.728-.843.394-.34.728.843Z" transform="translate(-10.69 -5.758)" fill="#f0f0f0"/>
    </g>
  </g>
  <g id="Group_4048" data-name="Group 4048">
    <g id="Group_4069" data-name="Group 4069">
      <rect id="Rectangle_2580" data-name="Rectangle 2580" width="0.52" height="1.114" transform="matrix(0.757, -0.654, 0.654, 0.757, 12.335, 3.473)"/>
      <rect id="Rectangle_2582" data-name="Rectangle 2582" width="0.52" height="1.114" transform="translate(13.327 4.622) rotate(-40.803)"/>
      <rect id="Rectangle_2584" data-name="Rectangle 2584" width="0.52" height="2.631" transform="matrix(0.757, -0.654, 0.654, 0.757, 11.783, 3.95)"/>
      <rect id="Rectangle_2586" data-name="Rectangle 2586" width="0.52" height="1.114" transform="translate(11.231 4.427) rotate(-40.797)"/>
      <rect id="Rectangle_2588" data-name="Rectangle 2588" width="0.52" height="1.114" transform="translate(12.222 5.576) rotate(-40.817)"/>
      <rect id="Rectangle_2590" data-name="Rectangle 2590" width="2.631" height="0.52" transform="matrix(0.652, -0.758, 0.758, 0.652, 1.62, 5.129)"/>
      <rect id="Rectangle_2592" data-name="Rectangle 2592" width="2.631" height="0.52" transform="matrix(0.652, -0.758, 0.758, 0.652, 2.173, 5.605)"/>
      <rect id="Rectangle_2594" data-name="Rectangle 2594" width="2.631" height="0.52" transform="translate(2.726 6.081) rotate(-49.277)"/>
      <path id="Path_20813" data-name="Path 20813" d="M44.863,48.4c.015.035.033.069.05.1s.028.053.044.079l.01.016a1.673,1.673,0,0,0,.326.367,2.085,2.085,0,0,0,.329.229c.459.057.937.094,1.425.116a1.976,1.976,0,0,0,.552-.369,1.672,1.672,0,0,0,.528-1.046,2.091,2.091,0,0,1,.582-1.123,1.365,1.365,0,0,1,.949-.455,2.088,2.088,0,0,1,1.3.428,1.628,1.628,0,0,1,.4.439l.01.017q.023.038.044.078t.05.1l0,0a1.384,1.384,0,0,1,.074.216,3.4,3.4,0,0,0-6.784.264c0,.078,0,.154.009.231a1.57,1.57,0,0,0,.091.3l0,.006" transform="translate(-40.12 -39.858)" fill="#f02800"/>
      <path id="Path_20814" data-name="Path 20814" d="M44.863,48.4c.015.035.033.069.05.1s.028.053.044.079l.01.016a1.673,1.673,0,0,0,.326.367,2.085,2.085,0,0,0,.329.229c.459.057.937.094,1.425.116a1.976,1.976,0,0,0,.552-.369,1.672,1.672,0,0,0,.528-1.046,2.091,2.091,0,0,1,.582-1.123,1.365,1.365,0,0,1,.949-.455,2.088,2.088,0,0,1,1.3.428,1.628,1.628,0,0,1,.4.439l.01.017q.023.038.044.078t.05.1l0,0a1.384,1.384,0,0,1,.074.216,3.4,3.4,0,0,0-6.784.264c0,.078,0,.154.009.231a1.57,1.57,0,0,0,.091.3l0,.006" transform="translate(-40.12 -39.858)" fill="#ff241f"/>
      <path id="Path_20815" data-name="Path 20815" d="M45.445,80.407a1.624,1.624,0,0,1-.4-.439l-.01-.016c-.016-.026-.03-.052-.044-.079s-.035-.068-.05-.1l0-.006a1.387,1.387,0,0,1-.091-.3,3.381,3.381,0,0,0,.224,1q.3.051.613.09a2.1,2.1,0,0,1-.237-.155" transform="translate(-40.195 -71.227)" fill="#0600a4"/>
      <path id="Path_20816" data-name="Path 20816" d="M72.714,63.936a1.554,1.554,0,0,0-.076-.237l0,0c-.015-.035-.033-.069-.05-.1s-.028-.053-.044-.078l-.011-.017a1.677,1.677,0,0,0-.326-.367A1.819,1.819,0,0,0,71,62.668a1.615,1.615,0,0,0-1.1.485,1.675,1.675,0,0,0-.528,1.046,2.088,2.088,0,0,1-.582,1.123,2.235,2.235,0,0,1-.412.308c.328.013.66.018.993.018a18.319,18.319,0,0,0,3.124-.242,3.386,3.386,0,0,0,.23-1.228c0-.082,0-.162-.01-.242" transform="translate(-61.287 -56.17)" fill="#0600a4"/>
      <path id="Path_20817" data-name="Path 20817" d="M46.272,83.458c-.016-.026-.03-.052-.044-.079q.021.04.044.079" transform="translate(-41.434 -74.733)" fill="#0600a4"/>
    </g>
  </g>
  <g id="Group_4050" data-name="Group 4050" transform="translate(4.794 8.645)">
    <g id="Group_4049" data-name="Group 4049" clip-path="url(#clip-path-12)">
      <rect id="Rectangle_2597" data-name="Rectangle 2597" width="0.045" height="0.08" transform="translate(0 0)" fill="url(#linear-gradient-7)"/>
    </g>
  </g>
  <g id="Group_4052" data-name="Group 4052">
    <g id="Group_4051" data-name="Group 4051" clip-path="url(#clip-path-2)">
      <path id="Path_20819" data-name="Path 20819" d="M47.08,84.663a1.675,1.675,0,0,1-.326-.367,1.624,1.624,0,0,0,.4.439,2.109,2.109,0,0,0,.237.155l.016,0a2.086,2.086,0,0,1-.329-.229" transform="translate(-41.906 -75.555)" fill="#0600a4"/>
    </g>
  </g>
  <g id="Group_4054" data-name="Group 4054" transform="translate(4.846 8.737)">
    <g id="Group_4053" data-name="Group 4053" clip-path="url(#clip-path-14)">
      <rect id="Rectangle_2599" data-name="Rectangle 2599" width="0.663" height="0.604" transform="translate(0 0)" fill="url(#linear-gradient-8)"/>
    </g>
  </g>
  <g id="Group_4056" data-name="Group 4056">
    <g id="Group_4055" data-name="Group 4055" clip-path="url(#clip-path-2)">
      <path id="Path_20821" data-name="Path 20821" d="M70.727,62.725a2.088,2.088,0,0,0-1.3-.428,1.365,1.365,0,0,0-.949.455,2.092,2.092,0,0,0-.582,1.123,1.673,1.673,0,0,1-.528,1.046,1.979,1.979,0,0,1-.552.369l.162.007a2.238,2.238,0,0,0,.412-.308,2.088,2.088,0,0,0,.582-1.123A1.675,1.675,0,0,1,68.5,62.82a1.616,1.616,0,0,1,1.1-.485A1.819,1.819,0,0,1,70.8,62.8a1.676,1.676,0,0,1,.326.367,1.628,1.628,0,0,0-.4-.439" transform="translate(-59.885 -55.837)" fill="#0600a4"/>
      <path id="Path_20822" data-name="Path 20822" d="M45.043,64.578l-.01-.016q-.023-.039-.044-.079t-.05-.1l0-.006a1.388,1.388,0,0,1-.091-.3,3.381,3.381,0,0,0,.224,1q.3.051.613.09a2.125,2.125,0,0,1-.237-.155,1.628,1.628,0,0,1-.4-.439m6.579-.975a1.555,1.555,0,0,0-.076-.237l0,0c-.015-.035-.033-.069-.05-.1s-.028-.053-.044-.078l-.011-.017a1.625,1.625,0,0,0-.4-.439,2.088,2.088,0,0,0-1.3-.428,1.365,1.365,0,0,0-.949.455,2.091,2.091,0,0,0-.582,1.123,1.672,1.672,0,0,1-.528,1.046,1.975,1.975,0,0,1-.552.369l.162.007c.328.013.66.018.993.018a18.318,18.318,0,0,0,3.124-.242,3.386,3.386,0,0,0,.23-1.228c0-.082,0-.162-.01-.242" transform="translate(-40.195 -55.837)" fill="#0022d4"/>
      <path id="Path_20823" data-name="Path 20823" d="M108.586,70.894q-.021-.04-.044-.078c.016.026.03.052.044.078" transform="translate(-97.287 -63.473)" fill="#0600a4"/>
    </g>
  </g>
  <g id="Group_4058" data-name="Group 4058" transform="translate(11.255 7.343)">
    <g id="Group_4057" data-name="Group 4057" clip-path="url(#clip-path-16)">
      <rect id="Rectangle_2601" data-name="Rectangle 2601" width="0.045" height="0.079" fill="url(#linear-gradient-9)"/>
    </g>
  </g>
  <g id="Group_4060" data-name="Group 4060">
    <g id="Group_4059" data-name="Group 4059" clip-path="url(#clip-path-2)">
      <path id="Path_20825" data-name="Path 20825" d="M45.725,82.346l0-.006,0,.006" transform="translate(-40.982 -73.802)" fill="#0600a4"/>
    </g>
  </g>
  <g id="Group_4062" data-name="Group 4062" transform="translate(4.741 8.538)">
    <g id="Group_4061" data-name="Group 4061" clip-path="url(#clip-path-18)">
      <rect id="Rectangle_2603" data-name="Rectangle 2603" width="0.002" height="0.006" transform="translate(0 0)" fill="url(#linear-gradient-10)"/>
    </g>
  </g>
  <g id="Group_4064" data-name="Group 4064">
    <g id="Group_4063" data-name="Group 4063" clip-path="url(#clip-path-2)">
      <path id="Path_20827" data-name="Path 20827" d="M109.454,72.569l0,0,0,0" transform="translate(-98.102 -65.04)" fill="#0600a4"/>
    </g>
  </g>
  <g id="Group_4066" data-name="Group 4066" transform="translate(11.35 7.525)">
    <g id="Group_4065" data-name="Group 4065" clip-path="url(#clip-path-20)">
      <rect id="Rectangle_2605" data-name="Rectangle 2605" width="0.002" height="0.005" fill="url(#linear-gradient-11)"/>
    </g>
  </g>
</svg>
