<svg xmlns="http://www.w3.org/2000/svg" width="16" height="16" viewBox="0 0 16 16"><defs><style>.a{fill:#333;}</style></defs><path class="a" d="M8,0a8,8,0,1,0,8,8A8.024,8.024,0,0,0,8,0Zm5.52,4.8H11.2a12.644,12.644,0,0,0-1.12-2.88A6.439,6.439,0,0,1,13.52,4.8ZM8,1.6A10.742,10.742,0,0,1,9.52,4.8H6.48A11.763,11.763,0,0,1,8,1.6Zm-6.16,8A5.158,5.158,0,0,1,1.6,8a5.158,5.158,0,0,1,.24-1.6H4.56A10.722,10.722,0,0,0,4.48,8c0,.56.08,1.04.08,1.6Zm.64,1.6H4.8a12.644,12.644,0,0,0,1.12,2.88A6.439,6.439,0,0,1,2.48,11.2ZM4.8,4.8H2.48A6.742,6.742,0,0,1,5.92,1.92,12.644,12.644,0,0,0,4.8,4.8ZM8,14.4a10.742,10.742,0,0,1-1.52-3.2H9.52A11.763,11.763,0,0,1,8,14.4ZM9.84,9.6H6.16A10.842,10.842,0,0,1,6,8a10.842,10.842,0,0,1,.16-1.6H9.92A10.842,10.842,0,0,1,10.08,8,11.043,11.043,0,0,1,9.84,9.6Zm.24,4.48A11.35,11.35,0,0,0,11.2,11.2h2.32A6.439,6.439,0,0,1,10.08,14.08ZM11.52,9.6A10.722,10.722,0,0,0,11.6,8c0-.56-.08-1.04-.08-1.6h2.72A5.158,5.158,0,0,1,14.48,8a5.159,5.159,0,0,1-.24,1.6Z"/></svg>