<svg xmlns="http://www.w3.org/2000/svg" xmlns:xlink="http://www.w3.org/1999/xlink" width="16" height="16" viewBox="0 0 16 16">
  <defs>
    <clipPath id="clip-path">
      <circle id="Ellipse_771" data-name="Ellipse 771" cx="8" cy="8" r="8" transform="translate(0.203 0.203)" fill="none"/>
    </clipPath>
    <clipPath id="clip-path-2">
      <path id="Path_21267" data-name="Path 21267" d="M150,78.773A3.773,3.773,0,1,0,153.773,75,3.773,3.773,0,0,0,150,78.773" transform="translate(-150 -75)" fill="none"/>
    </clipPath>
  </defs>
  <g id="Portugal" transform="translate(-74.467 0.533)">
    <g id="Group_4078" data-name="Group 4078" transform="translate(74.264 -0.736)">
      <g id="Group_4077" data-name="Group 4077" clip-path="url(#clip-path)">
        <rect id="Rectangle_2609" data-name="Rectangle 2609" width="23.559" height="17.091" transform="translate(-3.576 -0.343)" fill="#009b3a"/>
        <path id="Path_21264" data-name="Path 21264" d="M47.143,42.142l8.947,5.713,8.947-5.713L56.09,36.429Z" transform="translate(-47.887 -33.939)" fill="#fedf00"/>
        <path id="Path_21265" data-name="Path 21265" d="M153.773,75A3.773,3.773,0,1,1,150,78.773,3.773,3.773,0,0,1,153.773,75" transform="translate(-145.57 -70.57)" fill="#002776"/>
      </g>
    </g>
    <g id="Group_4080" data-name="Group 4080" transform="translate(78.694 3.694)">
      <g id="Group_4079" data-name="Group 4079" clip-path="url(#clip-path-2)">
        <path id="Path_21266" data-name="Path 21266" d="M0,127.02a9.163,9.163,0,0,1,18.325,0h-.539a8.624,8.624,0,1,0-17.247,0Z" transform="translate(-7.546 -115.701)" fill="#fff"/>
      </g>
    </g>
    <g id="Group_4082" data-name="Group 4082" transform="translate(74.264 -0.736)">
      <g id="Group_4081" data-name="Group 4081" clip-path="url(#clip-path)">
        <path id="Path_21268" data-name="Path 21268" d="M184.976,120l.323.011,0-.067-.262-.009,0-.092.205.007,0-.062-.205-.007,0-.072.246.009,0-.067-.308-.011Z" transform="translate(-178.786 -112.964)" fill="#009b3a"/>
        <path id="Path_21269" data-name="Path 21269" d="M194.038,120.407l.061.005.021-.245.05.252.056,0,.093-.239-.021.245.061.005.031-.358-.089-.008-.093.239-.05-.252-.089-.008Z" transform="translate(-187.392 -113.353)" fill="#009b3a"/>
        <path id="Path_21270" data-name="Path 21270" d="M208.837,122.817l.266.046.01-.061-.2-.035.014-.081.167.029.01-.061-.167-.029.01-.056.2.034.01-.061-.259-.045Z" transform="translate(-201.447 -115.678)" fill="#009b3a"/>
        <rect id="Rectangle_2610" data-name="Rectangle 2610" width="0.051" height="0.136" transform="translate(9.596 7.651) rotate(-66.498)" fill="#009b3a"/>
        <rect id="Rectangle_2611" data-name="Rectangle 2611" width="0.18" height="0.051" transform="matrix(0.398, -0.917, 0.917, 0.398, 9.623, 7.802)" fill="#009b3a"/>
        <path id="Path_21271" data-name="Path 21271" d="M273.477,147.263c-.019.03,0,.064.044.092s.073.027.085.007c.039-.062-.188-.152-.118-.259.06-.092.164-.021.2,0a.117.117,0,0,1,.053.163l-.066-.042c.021-.032,0-.064-.037-.086s-.061-.031-.081,0c-.033.05.189.145.121.252-.05.079-.138.045-.2.007s-.124-.106-.076-.182Z" transform="translate(-262.755 -139.001)" fill="#009b3a"/>
        <path id="Path_21272" data-name="Path 21272" d="M264.641,141.755l.281.159.033-.058-.228-.129.046-.08.179.1.03-.054-.179-.1.035-.063.214.121.033-.058-.268-.152Z" transform="translate(-254.443 -133.67)" fill="#009b3a"/>
        <path id="Path_21273" data-name="Path 21273" d="M281.132,152.422c-.021.029,0,.064.039.094s.071.03.085.012c.042-.06-.18-.161-.1-.265s.165-.012.2.015a.117.117,0,0,1,.044.166l-.064-.045c.022-.031,0-.064-.032-.088s-.059-.034-.081,0c-.036.048.181.155.108.258-.054.076-.14.037-.2,0s-.118-.113-.066-.186Z" transform="translate(-270.025 -143.906)" fill="#009b3a"/>
        <path id="Path_21274" data-name="Path 21274" d="M157.7,121.125a.163.163,0,1,0-.139.2.171.171,0,0,0,.139-.2m-.16-.09c.122,0,.122.219,0,.219s-.122-.219,0-.219" transform="translate(-152.577 -114.222)" fill="#009b3a"/>
        <path id="Path_21275" data-name="Path 21275" d="M289.558,158.571a.163.163,0,1,0-.226.085.171.171,0,0,0,.226-.085m-.082-.165c.1.069-.023.25-.124.181s.023-.25.124-.181" transform="translate(-277.814 -149.699)" fill="#009b3a"/>
        <path id="Path_21276" data-name="Path 21276" d="M176.082,119.738a.158.158,0,0,0-.119-.067l-.18,0,.006.359s.143,0,.18,0a.166.166,0,0,0,.111-.064.173.173,0,0,0,.028-.111.188.188,0,0,0-.027-.117m-.147.227h-.081l0-.226h.106a.1.1,0,0,1,.087.066.506.506,0,0,1,.005.065.105.105,0,0,1-.034.07.118.118,0,0,1-.08.025" transform="translate(-170.056 -112.994)" fill="#009b3a"/>
        <path id="Path_21277" data-name="Path 21277" d="M166.734,120.22a.157.157,0,0,0,.047-.077.113.113,0,0,0-.1-.128l-.22.014.02.359.067,0-.009-.133.116-.008.028,0a.309.309,0,0,1,.039.095.342.342,0,0,1,0,.039h.065a.275.275,0,0,0-.017-.1.2.2,0,0,0-.032-.052m-.04-.056a.116.116,0,0,1-.053.012l-.111.007-.006-.092c.017,0,.105-.007.107-.007l.038,0a.051.051,0,0,1,.029.013.038.038,0,0,1,.015.031.052.052,0,0,1-.017.038" transform="translate(-161.199 -113.32)" fill="#009b3a"/>
        <path id="Path_21278" data-name="Path 21278" d="M241.331,131.15a.163.163,0,1,0-.185.156.171.171,0,0,0,.185-.156m-.132-.128c.118.031.062.243-.056.212s-.062-.243.056-.212" transform="translate(-232.001 -123.704)" fill="#009b3a"/>
        <path id="Path_21279" data-name="Path 21279" d="M231.52,127.067a.157.157,0,0,0,.07-.058.113.113,0,0,0-.057-.155c-.035-.011-.213-.059-.213-.059l-.1.346.064.017.035-.129.112.03.027.007a.31.31,0,0,1,.006.1.351.351,0,0,1-.011.038l.061.021a.273.273,0,0,0,.018-.1.206.206,0,0,0-.014-.06M231.5,127a.116.116,0,0,1-.054-.006l-.107-.029.024-.089c.016.006.1.028.1.028l.037.01a.051.051,0,0,1,.023.022.038.038,0,0,1,0,.034.052.052,0,0,1-.029.031" transform="translate(-222.706 -119.76)" fill="#009b3a"/>
        <path id="Path_21280" data-name="Path 21280" d="M257.364,137.278a.158.158,0,0,0,.075-.051.113.113,0,0,0-.044-.159l-.207-.076-.127.336.063.023.046-.126.109.04.026.009a.31.31,0,0,1,0,.1.369.369,0,0,1-.014.037l.059.026a.274.274,0,0,0,.026-.1.2.2,0,0,0-.008-.061m-.014-.067a.115.115,0,0,1-.054-.011l-.1-.038.031-.087c.015.007.1.036.1.037l.036.013a.051.051,0,0,1,.021.024.038.038,0,0,1,0,.034.051.051,0,0,1-.031.028" transform="translate(-247.245 -129.442)" fill="#009b3a"/>
        <path id="Path_21281" data-name="Path 21281" d="M222.767,124.775a.157.157,0,0,0,.068-.059.113.113,0,0,0-.061-.153c-.036-.01-.214-.053-.214-.053l-.09.348.065.016.032-.13.113.027.027.007m.039-.067a.116.116,0,0,1-.055,0l-.108-.027.022-.09c.016.005.1.025.1.025l.037.009a.051.051,0,0,1,.024.021.038.038,0,0,1,0,.034.052.052,0,0,1-.028.031" transform="translate(-214.395 -117.588)" fill="#009b3a"/>
        <path id="Path_21282" data-name="Path 21282" d="M249.682,134.6l-.029-.01a.1.1,0,0,1-.146.053c-.1-.069.023-.25.124-.181a.082.082,0,0,1,.037.064c.015.007.032.01.047.017l.019.009a.161.161,0,0,0-.082-.159.181.181,0,1,0,.061.234l0-.011-.036-.016" transform="translate(-239.973 -126.96)" fill="#009b3a"/>
        <path id="Path_21283" data-name="Path 21283" d="M246.2,123.989l-.08.058.031.094-.08-.058-.08.058.03-.094-.08-.058h.1l.031-.094.03.094Z" transform="translate(-236.685 -117.005)" fill="#fff"/>
        <path id="Path_21284" data-name="Path 21284" d="M160.719,133.428l.1.069-.036.112.1-.069.095.069-.036-.112.1-.069h-.118l-.036-.112-.036.112Z" transform="translate(-155.749 -125.952)" fill="#fff"/>
        <path id="Path_21285" data-name="Path 21285" d="M243.422,144.1l.066.048-.025.077.066-.048.066.048-.025-.077.066-.048h-.081l-.025-.077-.025.077Z" transform="translate(-234.292 -136.122)" fill="#fff"/>
        <path id="Path_21286" data-name="Path 21286" d="M176.407,162.268l.04.028-.016.048.04-.029.04.029-.015-.047.04-.029h-.049l-.015-.047-.015.047Z" transform="translate(-170.649 -153.403)" fill="#fff"/>
        <path id="Path_21287" data-name="Path 21287" d="M167.5,164.848l-.036.112h-.117l.1.069-.036.112.1-.069.1.069-.036-.112.1-.069h-.117l-.036-.112" transform="translate(-162.048 -155.898)" fill="#fff"/>
        <path id="Path_21288" data-name="Path 21288" d="M158.678,172.21l.079.058-.03.093.079-.058.079.058-.03-.093.079-.058h-.1l-.03-.093-.03.093Z" transform="translate(-153.811 -162.801)" fill="#fff"/>
        <path id="Path_21289" data-name="Path 21289" d="M193.979,150.462l.078.056-.03.091.078-.056.078.056-.03-.091.078-.056h-.1l-.03-.091-.03.091Z" transform="translate(-187.336 -142.149)" fill="#fff"/>
        <path id="Path_21290" data-name="Path 21290" d="M183.893,173l.072.052-.027.084.072-.052.072.052-.027-.084.072-.052h-.088l-.027-.084-.027.084Z" transform="translate(-177.757 -163.555)" fill="#fff"/>
        <path id="Path_21291" data-name="Path 21291" d="M181.776,180.972l.066.048-.025.077.066-.048.066.048-.025-.077.066-.048h-.081l-.025-.077-.025.077Z" transform="translate(-175.748 -171.137)" fill="#fff"/>
        <path id="Path_21292" data-name="Path 21292" d="M191.905,186.3l.1.069-.036.112.1-.069.1.069-.036-.112.1-.069H192.1l-.036-.112-.036.112Z" transform="translate(-185.367 -176.16)" fill="#fff"/>
        <path id="Path_21293" data-name="Path 21293" d="M222.433,159.709l.08.058-.031.094.08-.058.08.058-.03-.094.08-.058h-.1l-.03-.094-.03.094Z" transform="translate(-214.359 -150.929)" fill="#fff"/>
        <path id="Path_21294" data-name="Path 21294" d="M215.3,166.776l.066.048-.025.077.066-.048.066.048-.025-.077.066-.048h-.081l-.025-.077-.025.077Z" transform="translate(-207.588 -157.655)" fill="#fff"/>
        <path id="Path_21295" data-name="Path 21295" d="M219.887,172.519l.04.029-.015.047.04-.029.04.029-.015-.047.04-.029h-.049l-.015-.047-.015.047Z" transform="translate(-211.941 -163.139)" fill="#fff"/>
        <path id="Path_21296" data-name="Path 21296" d="M231.1,166.264l.08.058-.031.094.08-.058.08.058-.03-.094.08-.058h-.1l-.031-.094-.03.094Z" transform="translate(-222.591 -157.154)" fill="#fff"/>
        <path id="Path_21297" data-name="Path 21297" d="M221.943,180.907l.1.069-.036.112.1-.069.1.069-.036-.112.1-.069h-.117l-.036-.112-.036.112Z" transform="translate(-213.894 -171.043)" fill="#fff"/>
        <path id="Path_21298" data-name="Path 21298" d="M223.972,207.675l.03.022-.012.036.03-.022.03.022-.012-.036.03-.022h-.038l-.012-.036-.011.036Z" transform="translate(-215.82 -196.537)" fill="#fff"/>
        <path id="Path_21299" data-name="Path 21299" d="M239.4,189.952l.066.048-.025.077.066-.048.066.048-.025-.077.066-.048h-.081l-.025-.077-.025.077Z" transform="translate(-230.469 -179.666)" fill="#fff"/>
        <path id="Path_21300" data-name="Path 21300" d="M244.851,197.873l.08.058-.031.094.08-.058.08.058-.031-.094.08-.058h-.1l-.031-.094-.03.094Z" transform="translate(-235.649 -187.173)" fill="#fff"/>
        <path id="Path_21301" data-name="Path 21301" d="M251.941,191.7l.066-.048h-.081l-.025-.077-.025.077h-.082l.066.048-.025.077.066-.048.066.048Z" transform="translate(-242.243 -181.285)" fill="#fff"/>
        <path id="Path_21302" data-name="Path 21302" d="M260.134,189.166l.066.048-.025.077.066-.048.066.048-.025-.077.066-.048h-.081l-.025-.077-.025.077Z" transform="translate(-250.163 -178.92)" fill="#fff"/>
        <path id="Path_21303" data-name="Path 21303" d="M259.874,195.947l.08.058-.031.094.08-.058.08.058-.031-.094.08-.058h-.1l-.031-.094-.03.094Z" transform="translate(-249.917 -185.343)" fill="#fff"/>
        <path id="Path_21304" data-name="Path 21304" d="M260.5,204.092l.066.048-.025.077.066-.048.066.048-.025-.077.066-.048h-.082l-.025-.077-.025.077Z" transform="translate(-250.516 -193.094)" fill="#fff"/>
        <path id="Path_21305" data-name="Path 21305" d="M267.971,190.508l.066.048-.025.077.066-.048.066.048-.025-.077.066-.048H268.1l-.025-.077-.025.077Z" transform="translate(-257.606 -180.194)" fill="#fff"/>
        <path id="Path_21306" data-name="Path 21306" d="M273.521,186.311l.08.058-.031.094.08-.058.08.058-.03-.094.08-.058h-.1l-.031-.094-.03.094h-.1" transform="translate(-262.877 -176.192)" fill="#fff"/>
        <path id="Path_21307" data-name="Path 21307" d="M278.028,180.46l.08.058-.03.094.08-.058.08.058-.03-.094.08-.058h-.1l-.031-.094-.03.094Z" transform="translate(-267.158 -170.636)" fill="#fff"/>
        <path id="Path_21308" data-name="Path 21308" d="M274.481,173.169l.1.069-.036.112.1-.069.1.069-.036-.112.1-.069h-.117l-.036-.112-.036.112Z" transform="translate(-263.789 -163.694)" fill="#fff"/>
        <path id="Path_21309" data-name="Path 21309" d="M285.925,174.951l.066.048-.025.077.066-.048.066.048-.025-.077.066-.048h-.081l-.025-.077-.025.077Z" transform="translate(-274.657 -165.419)" fill="#fff"/>
      </g>
    </g>
  </g>
</svg>
