<svg width="90" height="90" viewBox="0 0 90 90" fill="none" xmlns="http://www.w3.org/2000/svg">
<path d="M22.9999 34C29.075 34 33.9999 29.0751 33.9999 23C33.9999 16.9249 29.075 12 22.9999 12C16.9247 12 11.9999 16.9249 11.9999 23C11.9999 29.0751 16.9247 34 22.9999 34Z" fill="white"/>
<path d="M51 34C58.732 34 65 27.732 65 20C65 12.268 58.732 6 51 6C43.268 6 37 12.268 37 20C37 27.732 43.268 34 51 34Z" fill="white"/>
<path d="M78.656 44.9573L68.1357 50.9324V43.8114C68.1357 40.6192 65.5056 38 62.3002 38H11.8355C8.63008 38 6 40.6192 6 43.8114V78.1886C6 81.3808 8.63008 84 11.8355 84H62.3002C65.5056 84 68.1357 81.3808 68.1357 78.1886V71.0676L78.5738 77.0427C81.0395 78.4342 83.9984 76.7153 83.9984 73.9324V48.0676C84.0806 45.2847 81.0395 43.5658 78.656 44.9573ZM45.6978 62.7189L32.7118 70.331C31.3145 71.1495 29.5885 70.1673 29.5885 68.6121V53.3879C29.5885 51.8327 31.3145 50.8505 32.7118 51.669L45.6978 59.2811C47.095 60.0178 47.095 61.9822 45.6978 62.7189Z" fill="white"/>
</svg>
