<svg width="90" height="90" viewBox="0 0 90 90" fill="none" xmlns="http://www.w3.org/2000/svg">
<path fill-rule="evenodd" clip-rule="evenodd" d="M61.854 27.9451C57.7314 27.9451 54.4172 24.5752 54.4172 20.3835V6H21.1943C19.2542 6 17.4759 6.73972 16.1017 8.13697C14.7275 9.53422 14 11.3424 14 13.315V76.6845C14 80.7118 17.2334 83.9995 21.1943 83.9995H68.8057C72.7666 83.9995 76 80.7118 76 76.6845V27.9451H61.854ZM61.8543 22.438H74.8686C74.6261 22.0271 74.3028 21.6161 73.8986 21.2052L61.0459 8.13676C60.7226 7.808 60.3184 7.47923 59.8334 7.15047V20.3011C59.8334 21.5339 60.7226 22.438 61.8543 22.438ZM28.6051 60.9999L24.4699 46.8781H24.3642C24.513 49.7509 24.5874 51.6675 24.5874 52.6278V60.9999H21.3333V42.9999H26.2908L30.3555 56.7646H30.426L34.7375 42.9999H39.695V60.9999H36.2999V52.48C36.2999 52.0779 36.3038 51.6141 36.3117 51.0888C36.3273 50.5635 36.3822 49.1681 36.4761 46.9028H36.3704L31.9415 60.9999H28.6051ZM47.6718 51.4705H48.8701C49.99 51.4705 50.828 51.2406 51.3841 50.781C51.9401 50.3131 52.2182 49.636 52.2182 48.7495C52.2182 47.8549 51.9832 47.1941 51.5133 46.7673C51.0512 46.3405 50.3229 46.1271 49.3282 46.1271H47.6718V51.4705ZM55.8952 48.6141C55.8952 50.5512 55.3157 52.0327 54.1566 53.0587C53.0053 54.0847 51.3645 54.5977 49.2342 54.5977H47.6718V60.9999H44.03V42.9999H49.5162C51.5995 42.9999 53.1815 43.4718 54.2623 44.4157C55.3509 45.3515 55.8952 46.7509 55.8952 48.6141ZM68.2656 57.2694H70.3333V54.3145H68.2656V42.9999H64.9175L57.3872 54.6223V57.2694H64.7178V60.9999H68.2656V57.2694ZM64.7178 51.2612V54.3145H60.5826L63.731 49.3282C64.1383 48.688 64.4868 48.0313 64.7766 47.3583H64.8705C64.847 47.5142 64.8157 48.0765 64.7766 49.045C64.7374 50.0136 64.7178 50.7523 64.7178 51.2612Z" fill="white"/>
</svg>
