<svg width="90" height="90" viewBox="0 0 90 90" fill="none" xmlns="http://www.w3.org/2000/svg">
<path fill-rule="evenodd" clip-rule="evenodd" d="M13.4984 11C9.37627 11 6 14.35 6 18.4734V54.5089C6 58.6323 9.37627 62.0095 13.4984 62.0095H39.8516V68.6677H37.7868C35.7064 68.6677 33.533 69.4249 31.7555 70.7058C29.978 71.9868 28.5346 73.879 28.5225 76.141V78.8315C28.5239 79.141 28.6475 79.4373 28.8663 79.6562C29.085 79.875 29.3813 79.9985 29.6907 80H60.3093C60.6187 79.9985 60.915 79.875 61.1337 79.6562C61.3525 79.4373 61.4761 79.141 61.4775 78.8315V76.141C61.4655 73.893 60.1306 71.9915 58.3804 70.7058C56.6301 69.4201 54.4213 68.6677 52.2132 68.6677H50.1212V62.0095H76.5287C80.6509 62.0095 84 58.6323 84 54.5089V18.4734C84 14.35 80.6509 11 76.5287 11H13.4984ZM56.5 38.366C57.1667 37.9811 57.1667 37.0189 56.5 36.634L39.25 26.6747C38.5833 26.2898 37.75 26.7709 37.75 27.5407L37.75 47.4593C37.75 48.2291 38.5833 48.7102 39.25 48.3253L56.5 38.366Z" fill="white"/>
</svg>
