<svg width="480" height="96" viewBox="0 0 480 96" fill="none" xmlns="http://www.w3.org/2000/svg">
<path d="M2.58507 5H11.3612V6.23695H3.17015V11.0964H2V5.61847C2 5.26506 2.25075 5 2.58507 5ZM20.6388 5H29.4149C29.7493 5 30 5.26506 30 5.61847V11.0964H28.8299V6.23695H20.6388V5ZM30 20.9036V26.3815C30 26.7349 29.7493 27 29.4149 27H20.6388V25.7631H28.8299V20.9036H30ZM11.3612 27H2.58507C2.25075 27 2 26.7349 2 26.3815V20.9036H3.17015V25.7631H11.3612V27Z" fill="#A3A3A3"/>
<path fill-rule="evenodd" clip-rule="evenodd" d="M16 21C18.7614 21 21 18.7614 21 16C21 13.2386 18.7614 11 16 11C13.2386 11 11 13.2386 11 16C11 18.7614 13.2386 21 16 21ZM16 20C18.2091 20 20 18.2091 20 16C20 13.7909 18.2091 12 16 12C13.7909 12 12 13.7909 12 16C12 18.2091 13.7909 20 16 20Z" fill="#A3A3A3"/>
<path d="M91.863 23.7256H80.0082V10.9063H82.424L81.3342 9.83788H80.0082V8.54003L78.0633 6.63342H66V28H92.9388V17.2154L91.863 16.1592V23.7256ZM67.0791 9.83825V7.70108H69.2322V9.83825H67.0791ZM70.3113 9.83825V7.70108H72.4669V9.83825H70.3113ZM73.5431 9.83825V7.70108H75.6988V9.83825H73.5431ZM76.7757 9.83825V7.70108H78.932V9.83825H76.7757ZM67.0791 23.7256V10.9063H78.932V23.7256H67.0791ZM91.863 24.7955V26.9327H89.7062V24.7955H91.863ZM88.6301 24.7955V26.9327H86.4748V24.7955H88.6301ZM85.3964 24.7955V26.9327H83.24V24.7955H85.3964ZM82.1642 24.7955V26.9327H80.0078V24.7955H82.1642ZM78.932 24.7955V26.9327H76.7757V24.7955H78.932ZM75.6984 24.7955V26.9327H73.5427V24.7955H75.6984ZM72.4669 24.7955V26.9327H70.3113V24.7955H72.4669ZM69.2318 24.7955V26.9327H67.0787V24.7955H69.2318Z" fill="#A3A3A3"/>
<path fill-rule="evenodd" clip-rule="evenodd" d="M88.7849 8.66588C88.5027 8.67033 88.2846 8.93382 88.2916 9.24357C88.2967 9.55332 88.5248 9.81015 88.8059 9.80201C89.0771 9.79868 89.297 9.53519 89.2919 9.22396C89.2856 8.91383 89.0594 8.65737 88.7849 8.66588ZM91.5835 3.98556C90.8223 4.00073 90.2137 4.71572 90.228 5.5828C90.2446 6.44692 90.8798 7.14007 91.638 7.12712C92.4087 7.11083 93.0107 6.39215 92.9949 5.53062C92.9772 4.66354 92.349 3.96817 91.5835 3.98556ZM91.7135 11.3197C90.9538 11.3352 90.3426 12.0491 90.3603 12.9151C90.3732 13.784 91.0117 14.469 91.7721 14.4561C92.5369 14.442 93.1393 13.7292 93.1264 12.861C93.1106 11.9932 92.4806 11.3086 91.7135 11.3197ZM91.7883 15.446C90.5419 15.4704 89.5144 14.3443 89.4912 12.9325C89.4746 12.179 89.7432 11.5029 90.1934 11.0288L88.7326 10.171L83.1856 13.9887C82.357 14.4598 81.5148 14.1393 80.6604 13.5131L87.2383 9.28724L80.5156 5.30672C81.3435 4.65132 82.1772 4.2979 83.0202 4.73422L88.6987 8.34207L90.0965 7.44242C89.65 6.98094 89.3729 6.32665 89.3578 5.59538C89.3331 4.19206 90.3179 3.02485 91.5654 3.00042C92.8103 2.97489 93.8445 4.10435 93.8688 5.50878C93.8949 6.89952 92.9334 8.05045 91.712 8.10929L90.0932 9.23062L91.8373 10.336C93.0188 10.3901 93.9767 11.4847 93.9996 12.8448C94.0283 14.2551 93.0358 15.4197 91.7883 15.446Z" fill="#A3A3A3"/>
<path d="M141.672 15.8597L144.302 18.4599L132.63 30L130 27.3999L141.672 15.8597ZM144.856 17.9126L142.226 15.3125L146.747 10.8425L149.378 13.4422L144.856 17.9126Z" fill="#A3A3A3"/>
<path d="M154.775 16.1748L155.558 16.1744V13.7608H158V12.9867H155.558V10.5731H154.775V12.9867H152.334V13.7608H154.775V16.1748Z" fill="#A3A3A3"/>
<path d="M155.642 18.8926V18.1185H153.201V15.7049H152.418V18.1185H149.977V18.8926H152.418V21.3062H153.201V18.8926H155.642Z" fill="#A3A3A3"/>
<path d="M149.716 4.41359H147.275V2H146.492V4.41359H144.051V5.1877H146.492V7.60135H147.275V5.1877H149.716V4.41359Z" fill="#A3A3A3"/>
<path d="M144.526 6.74481H142.085V4.33076H141.302V6.74481H138.86V7.51853H141.302V9.9325H142.085V7.51853H144.526V6.74481Z" fill="#A3A3A3"/>
<path d="M203.88 20.86L206.64 19.66C206.86 19.56 207.04 19.46 207.24 19.28L213.04 13.54C213.2 13.38 213.2 13.12 213.06 12.96L211.26 11.16C211.14 11.04 210.9 10.96 210.68 11.18L204.94 16.94C204.74 17.14 204.62 17.34 204.52 17.56L203.36 20.32C203.2 20.7 203.5 21.04 203.88 20.86ZM195.6 27H220.4C221.48 27 222 26.48 222 25.4V6.6C222 5.52 221.48 5 220.4 5H195.6C194.52 5 194 5.52 194 6.6V25.4C194 26.48 194.52 27 195.6 27ZM196 25V23H198V25H196ZM196 21V19H198V21H196ZM196 17V15H198V17H196ZM196 13V11H198V13H196ZM196 9V7H198V9H196ZM200 25V7H216V25H200ZM218 25V23H220V25H218ZM218 21V19H220V21H218ZM218 17V15H220V17H218ZM218 13V11H220V13H218ZM218 9V7H220V9H218Z" fill="#A3A3A3"/>
<path fill-rule="evenodd" clip-rule="evenodd" d="M203.91 20.3017L204.978 17.7606C205.06 17.5826 205.148 17.4389 205.294 17.2936L210.98 11.5872L212.633 13.2397L206.897 18.9158C206.752 19.0446 206.623 19.1181 206.437 19.2032L203.91 20.3017ZM206.64 19.66C206.86 19.56 207.04 19.46 207.24 19.28L213.04 13.54C213.2 13.38 213.2 13.12 213.06 12.96L211.26 11.16C211.14 11.04 210.9 10.96 210.68 11.18L204.94 16.94C204.74 17.14 204.62 17.34 204.52 17.56L203.36 20.32C203.2 20.7 203.5 21.04 203.88 20.86L206.64 19.66ZM195.5 25.5H198.5V22.5H195.5V25.5ZM195.5 21.5H198.5V18.5H195.5V21.5ZM195.5 17.5H198.5V14.5H195.5V17.5ZM195.5 13.5H198.5V10.5H195.5V13.5ZM195.5 9.5H198.5V6.5H195.5V9.5ZM199.5 25.5H216.5V6.5H199.5V25.5ZM217.5 25.5H220.5V22.5H217.5V25.5ZM217.5 21.5H220.5V18.5H217.5V21.5ZM217.5 17.5H220.5V14.5H217.5V17.5ZM217.5 13.5H220.5V10.5H217.5V13.5ZM217.5 9.5H220.5V6.5H217.5V9.5ZM220.4 26.5H195.6C195.132 26.5 194.884 26.3873 194.749 26.2514C194.613 26.1156 194.5 25.8677 194.5 25.4V6.6C194.5 6.13231 194.613 5.88436 194.749 5.74855C194.884 5.61274 195.132 5.5 195.6 5.5H220.4C220.868 5.5 221.116 5.61274 221.251 5.74855C221.387 5.88436 221.5 6.13231 221.5 6.6V25.4C221.5 25.8677 221.387 26.1156 221.251 26.2514C221.116 26.3873 220.868 26.5 220.4 26.5ZM196 23V25H198V23H196ZM196 19V21H198V19H196ZM196 15V17H198V15H196ZM196 11V13H198V11H196ZM196 7V9H198V7H196ZM200 7V25H216V7H200ZM218 23V25H220V23H218ZM218 19V21H220V19H218ZM218 15V17H220V15H218ZM218 11V13H220V11H218ZM218 7V9H220V7H218ZM220.4 27H195.6C194.52 27 194 26.48 194 25.4V6.6C194 5.52 194.52 5 195.6 5H220.4C221.48 5 222 5.52 222 6.6V25.4C222 26.48 221.48 27 220.4 27Z" fill="white"/>
<path d="M273.354 12.0326C273.354 13.5049 272.155 14.7031 270.682 14.7031C269.209 14.7031 268.01 13.5049 268.01 12.0326C268.01 10.56 269.209 9.36185 270.682 9.36185C272.155 9.36185 273.354 10.56 273.354 12.0326ZM271.964 12.0326C271.964 11.326 271.389 10.7515 270.682 10.7515C269.975 10.7515 269.4 11.326 269.4 12.0326C269.4 12.739 269.975 13.3135 270.682 13.3135C271.389 13.3135 271.964 12.739 271.964 12.0326Z" fill="#A3A3A3" stroke="white" stroke-width="0.25"/>
<path d="M284.484 5.63965V5.51465H284.359H259.641H259.516V5.63965V21.2495V21.5511L259.729 21.3379L264.888 16.1815C265.028 16.042 265.213 15.9655 265.41 15.9655C265.608 15.9655 265.793 16.0422 265.932 16.1819L265.932 16.1819L270.594 20.8404L270.682 20.9287L270.771 20.8404L278.068 13.5472C278.356 13.2599 278.824 13.2597 279.111 13.5466L284.271 18.7035L284.484 18.9168V18.6151V5.63965ZM259.516 26.3603V26.4853H259.641H284.36H284.485V26.3603V20.9339V20.8821L284.448 20.8455L278.678 15.0792L278.59 14.9909L278.501 15.0792L271.204 22.3726L271.204 22.3727C271.064 22.5121 270.879 22.5888 270.682 22.5888C270.485 22.5888 270.3 22.512 270.16 22.3722L265.499 17.7137L265.41 17.6254L265.322 17.7137L259.552 23.4798L259.516 23.5164V23.5682V26.3603ZM259.022 4.125H284.978C285.472 4.125 285.875 4.52748 285.875 5.02179V26.9782C285.875 27.4725 285.472 27.875 284.978 27.875H259.022C258.528 27.875 258.125 27.4725 258.125 26.9782V5.02179C258.125 4.52748 258.528 4.125 259.022 4.125Z" fill="#A3A3A3" stroke="white" stroke-width="0.25"/>
<path d="M329.376 7.61174L338.131 5.00115L338.127 10.0824L330.999 11.854L330.885 11.8823V11.9996V23.4944C330.885 23.9006 330.849 24.3893 330.78 24.849C330.711 25.3109 330.611 25.7314 330.487 26.0084C329.747 27.6129 327.828 28.951 325.932 28.951C324.607 28.951 323.661 28.5897 323.049 28.0707C322.437 27.552 322.15 26.8688 322.15 26.2013C322.15 24.7702 322.971 23.1669 324.732 22.4609L324.733 22.4606C325.44 22.1732 326.421 22.0497 327.04 22.0497C328.044 22.0497 328.518 22.2024 329.164 22.4937L329.376 22.5891V22.357V7.61174ZM349.85 23.8496V25.3497H333.901V23.8496H349.85ZM349.85 19.3499V20.8501H333.901V19.3499H349.85ZM349.85 16.3498H333.93V14.8497H349.85V16.3498Z" fill="#B4B4B4" stroke="white" stroke-width="0.3"/>
<path d="M395.772 8.65217V8.40217H395.522H387.25V5.25H407.446V8.40217H399.174H398.924V8.65217V27.75H395.772V8.65217ZM410.098 16.1739V16.4239H410.348H413.75V18.3587H410.348H410.098V18.6087V22.0109H408.163V18.6087V18.3587H407.913H404.511V16.4239H407.913H408.163V16.1739V12.7717H410.098V16.1739Z" fill="#A3A3A3" stroke="white" stroke-width="0.5"/>
<path d="M450 16C450 23.7329 456.267 30 464 30C471.733 30 478 23.7329 478 16C478 8.26708 471.733 2 464 2C456.267 2 450 8.26708 450 16ZM476.643 16C476.643 22.9627 470.963 28.6428 464 28.6428C457.037 28.6428 451.357 22.9627 451.357 16C451.357 9.0373 457.037 3.35724 464 3.35724C470.963 3.35724 476.643 9.0373 476.643 16ZM464.441 10.5405C464.699 10.2826 465.137 10.2826 465.395 10.5405L470.413 15.525C470.45 15.5623 470.488 15.5996 470.488 15.6336L470.525 15.6709C470.525 15.7082 470.562 15.7082 470.562 15.7456C470.562 15.7829 470.562 15.7829 470.6 15.8202C470.6 15.8575 470.6 15.8575 470.6 15.8949C470.6 15.9322 470.6 15.9695 470.6 16.0408C470.6 16.0781 470.6 16.1154 470.6 16.1866C470.6 16.224 470.6 16.224 470.6 16.2613C470.6 16.2986 470.6 16.2986 470.562 16.336C470.562 16.3733 470.525 16.3733 470.525 16.4106C470.525 16.4106 470.525 16.4479 470.488 16.4479C470.45 16.4853 470.45 16.5226 470.413 16.5565L465.357 21.4969C465.099 21.7547 464.662 21.7547 464.404 21.4969C464.146 21.239 464.146 20.8013 464.404 20.5434L468.289 16.6582L457.55 16.6582C457.183 16.6582 456.891 16.3664 456.891 16C456.891 15.6335 457.183 15.3417 457.55 15.3417L468.286 15.3417L464.475 11.5278C464.183 11.236 464.183 10.795 464.441 10.5405Z" fill="#A3A3A3"/>
<path d="M2.58507 69H11.3612V70.2369H3.17015V75.0964H2V69.6185C2 69.2651 2.25075 69 2.58507 69ZM20.6388 69H29.4149C29.7493 69 30 69.2651 30 69.6185V75.0964H28.8299V70.2369H20.6388V69ZM30 84.9036V90.3815C30 90.7349 29.7493 91 29.4149 91H20.6388V89.7631H28.8299V84.9036H30ZM11.3612 91H2.58507C2.25075 91 2 90.7349 2 90.3815V84.9036H3.17015V89.7631H11.3612V91Z" fill="white"/>
<path fill-rule="evenodd" clip-rule="evenodd" d="M16 85C18.7614 85 21 82.7614 21 80C21 77.2386 18.7614 75 16 75C13.2386 75 11 77.2386 11 80C11 82.7614 13.2386 85 16 85ZM16 84C18.2091 84 20 82.2091 20 80C20 77.7909 18.2091 76 16 76C13.7909 76 12 77.7909 12 80C12 82.2091 13.7909 84 16 84Z" fill="white"/>
<path d="M91.863 87.7257H80.0082V74.9063H82.424L81.3342 73.8379H80.0082V72.54L78.0633 70.6334H66V92H92.9388V81.2154L91.863 80.1593V87.7257ZM67.0791 73.8383V71.7011H69.2322V73.8383H67.0791ZM70.3113 73.8383V71.7011H72.4669V73.8383H70.3113ZM73.5431 73.8383V71.7011H75.6988V73.8383H73.5431ZM76.7757 73.8383V71.7011H78.932V73.8383H76.7757ZM67.0791 87.7257V74.9063H78.932V87.7257H67.0791ZM91.863 88.7955V90.9327H89.7062V88.7955H91.863ZM88.6301 88.7955V90.9327H86.4748V88.7955H88.6301ZM85.3964 88.7955V90.9327H83.24V88.7955H85.3964ZM82.1642 88.7955V90.9327H80.0078V88.7955H82.1642ZM78.932 88.7955V90.9327H76.7757V88.7955H78.932ZM75.6984 88.7955V90.9327H73.5427V88.7955H75.6984ZM72.4669 88.7955V90.9327H70.3113V88.7955H72.4669ZM69.2318 88.7955V90.9327H67.0787V88.7955H69.2318Z" fill="white"/>
<path fill-rule="evenodd" clip-rule="evenodd" d="M88.7849 72.6659C88.5027 72.6703 88.2846 72.9338 88.2916 73.2436C88.2967 73.5533 88.5248 73.8102 88.8059 73.802C89.0771 73.7987 89.297 73.5352 89.2919 73.224C89.2856 72.9138 89.0594 72.6574 88.7849 72.6659ZM91.5835 67.9856C90.8223 68.0007 90.2137 68.7157 90.228 69.5828C90.2446 70.4469 90.8798 71.1401 91.638 71.1271C92.4087 71.1108 93.0107 70.3922 92.9949 69.5306C92.9772 68.6635 92.349 67.9682 91.5835 67.9856ZM91.7135 75.3197C90.9538 75.3352 90.3426 76.0491 90.3603 76.9151C90.3732 77.784 91.0117 78.469 91.7721 78.4561C92.5369 78.442 93.1393 77.7292 93.1264 76.861C93.1106 75.9932 92.4806 75.3086 91.7135 75.3197ZM91.7883 79.446C90.5419 79.4704 89.5144 78.3443 89.4912 76.9325C89.4746 76.179 89.7432 75.5029 90.1934 75.0288L88.7326 74.171L83.1856 77.9887C82.357 78.4598 81.5148 78.1393 80.6604 77.5131L87.2383 73.2872L80.5156 69.3067C81.3435 68.6513 82.1772 68.2979 83.0202 68.7342L88.6987 72.3421L90.0965 71.4424C89.65 70.9809 89.3729 70.3266 89.3578 69.5954C89.3331 68.1921 90.3179 67.0248 91.5654 67.0004C92.8103 66.9749 93.8445 68.1044 93.8688 69.5088C93.8949 70.8995 92.9334 72.0505 91.712 72.1093L90.0932 73.2306L91.8373 74.336C93.0188 74.3901 93.9767 75.4847 93.9996 76.8448C94.0283 78.2551 93.0358 79.4197 91.7883 79.446Z" fill="white"/>
<path d="M141.672 79.8597L144.302 82.4599L132.63 94L130 91.3998L141.672 79.8597ZM144.856 81.9126L142.226 79.3124L146.747 74.8425L149.378 77.4422L144.856 81.9126Z" fill="white"/>
<path d="M154.775 80.1748L155.558 80.1744V77.7608H158V76.9867H155.558V74.5731H154.775V76.9867H152.334V77.7608H154.775V80.1748Z" fill="white"/>
<path d="M155.642 82.8926V82.1185H153.201V79.7049H152.418V82.1185H149.977V82.8926H152.418V85.3062H153.201V82.8926H155.642Z" fill="white"/>
<path d="M149.716 68.4136H147.275V66H146.492V68.4136H144.051V69.1877H146.492V71.6013H147.275V69.1877H149.716V68.4136Z" fill="white"/>
<path d="M144.526 70.7448H142.085V68.3308H141.302V70.7448H138.86V71.5185H141.302V73.9325H142.085V71.5185H144.526V70.7448Z" fill="white"/>
<path d="M203.88 84.86L206.64 83.66C206.86 83.56 207.04 83.46 207.24 83.28L213.04 77.54C213.2 77.38 213.2 77.12 213.06 76.96L211.26 75.16C211.14 75.04 210.9 74.96 210.68 75.18L204.94 80.94C204.74 81.14 204.62 81.34 204.52 81.56L203.36 84.32C203.2 84.7 203.5 85.04 203.88 84.86ZM195.6 91H220.4C221.48 91 222 90.48 222 89.4V70.6C222 69.52 221.48 69 220.4 69H195.6C194.52 69 194 69.52 194 70.6V89.4C194 90.48 194.52 91 195.6 91ZM196 89V87H198V89H196ZM196 85V83H198V85H196ZM196 81V79H198V81H196ZM196 77V75H198V77H196ZM196 73V71H198V73H196ZM200 89V71H216V89H200ZM218 89V87H220V89H218ZM218 85V83H220V85H218ZM218 81V79H220V81H218ZM218 77V75H220V77H218ZM218 73V71H220V73H218Z" fill="white"/>
<path fill-rule="evenodd" clip-rule="evenodd" d="M203.91 84.3017L204.978 81.7606C205.06 81.5826 205.148 81.4389 205.294 81.2936L210.98 75.5872L212.633 77.2397L206.897 82.9158C206.752 83.0446 206.623 83.1181 206.437 83.2032L203.91 84.3017ZM206.64 83.66C206.86 83.56 207.04 83.46 207.24 83.28L213.04 77.54C213.2 77.38 213.2 77.12 213.06 76.96L211.26 75.16C211.14 75.04 210.9 74.96 210.68 75.18L204.94 80.94C204.74 81.14 204.62 81.34 204.52 81.56L203.36 84.32C203.2 84.7 203.5 85.04 203.88 84.86L206.64 83.66ZM195.5 89.5H198.5V86.5H195.5V89.5ZM195.5 85.5H198.5V82.5H195.5V85.5ZM195.5 81.5H198.5V78.5H195.5V81.5ZM195.5 77.5H198.5V74.5H195.5V77.5ZM195.5 73.5H198.5V70.5H195.5V73.5ZM199.5 89.5H216.5V70.5H199.5V89.5ZM217.5 89.5H220.5V86.5H217.5V89.5ZM217.5 85.5H220.5V82.5H217.5V85.5ZM217.5 81.5H220.5V78.5H217.5V81.5ZM217.5 77.5H220.5V74.5H217.5V77.5ZM217.5 73.5H220.5V70.5H217.5V73.5ZM220.4 90.5H195.6C195.132 90.5 194.884 90.3873 194.749 90.2514C194.613 90.1156 194.5 89.8677 194.5 89.4V70.6C194.5 70.1323 194.613 69.8844 194.749 69.7486C194.884 69.6127 195.132 69.5 195.6 69.5H220.4C220.868 69.5 221.116 69.6127 221.251 69.7486C221.387 69.8844 221.5 70.1323 221.5 70.6V89.4C221.5 89.8677 221.387 90.1156 221.251 90.2514C221.116 90.3873 220.868 90.5 220.4 90.5ZM196 87V89H198V87H196ZM196 83V85H198V83H196ZM196 79V81H198V79H196ZM196 75V77H198V75H196ZM196 71V73H198V71H196ZM200 71V89H216V71H200ZM218 87V89H220V87H218ZM218 83V85H220V83H218ZM218 79V81H220V79H218ZM218 75V77H220V75H218ZM218 71V73H220V71H218ZM220.4 91H195.6C194.52 91 194 90.48 194 89.4V70.6C194 69.52 194.52 69 195.6 69H220.4C221.48 69 222 69.52 222 70.6V89.4C222 90.48 221.48 91 220.4 91Z" fill="#7668bc"/>
<path d="M273.354 76.0326C273.354 77.5049 272.155 78.7031 270.682 78.7031C269.209 78.7031 268.01 77.5049 268.01 76.0326C268.01 74.56 269.209 73.3619 270.682 73.3619C272.155 73.3619 273.354 74.5601 273.354 76.0326ZM271.964 76.0326C271.964 75.326 271.389 74.7515 270.682 74.7515C269.975 74.7515 269.4 75.326 269.4 76.0326C269.4 76.739 269.975 77.3135 270.682 77.3135C271.389 77.3135 271.964 76.739 271.964 76.0326Z" fill="white" stroke="#FFFFFF" stroke-width="0.25"/>
<path d="M284.484 69.6397V69.5147H284.359H259.641H259.516V69.6397V85.2495V85.5511L259.729 85.3379L264.888 80.1815C265.028 80.042 265.213 79.9655 265.41 79.9655C265.608 79.9655 265.793 80.0422 265.932 80.1819L265.932 80.1819L270.594 84.8404L270.682 84.9287L270.771 84.8404L278.068 77.5472C278.356 77.2599 278.824 77.2597 279.111 77.5466L284.271 82.7035L284.484 82.9168V82.6151V69.6397ZM259.516 90.3603V90.4853H259.641H284.36H284.485V90.3603V84.9339V84.8821L284.448 84.8455L278.678 79.0792L278.59 78.9909L278.501 79.0792L271.204 86.3726L271.204 86.3727C271.064 86.5121 270.879 86.5888 270.682 86.5888C270.485 86.5888 270.3 86.512 270.16 86.3722L265.499 81.7137L265.41 81.6254L265.322 81.7137L259.552 87.4798L259.516 87.5164V87.5682V90.3603ZM259.022 68.125H284.978C285.472 68.125 285.875 68.5275 285.875 69.0218V90.9782C285.875 91.4725 285.472 91.875 284.978 91.875H259.022C258.528 91.875 258.125 91.4725 258.125 90.9782V69.0218C258.125 68.5275 258.528 68.125 259.022 68.125Z" fill="white" stroke="#FFFFFF" stroke-width="0.25"/>
<path d="M329.376 71.6117L338.131 69.0011L338.127 74.0824L330.999 75.854L330.885 75.8823V75.9996V87.4944C330.885 87.9006 330.849 88.3893 330.78 88.849C330.711 89.3109 330.611 89.7314 330.487 90.0084C329.747 91.6129 327.828 92.951 325.932 92.951C324.607 92.951 323.661 92.5897 323.049 92.0707C322.437 91.552 322.15 90.8688 322.15 90.2013C322.15 88.7702 322.971 87.1669 324.732 86.4609L324.733 86.4606C325.44 86.1732 326.421 86.0497 327.04 86.0497C328.044 86.0497 328.518 86.2024 329.164 86.4937L329.376 86.5891V86.357V71.6117ZM349.85 87.8496V89.3497H333.901V87.8496H349.85ZM349.85 83.3499V84.8501H333.901V83.3499H349.85ZM349.85 80.3498H333.93V78.8497H349.85V80.3498Z" fill="white" stroke="#FFFFFF" stroke-width="0.3"/>
<path d="M395.772 72.6522V72.4022H395.522H387.25V69.25H407.446V72.4022H399.174H398.924V72.6522V91.75H395.772V72.6522ZM410.098 80.1739V80.4239H410.348H413.75V82.3587H410.348H410.098V82.6087V86.0109H408.163V82.6087V82.3587H407.913H404.511V80.4239H407.913H408.163V80.1739V76.7717H410.098V80.1739Z" fill="white" stroke="#FFFFFF" stroke-width="0.5"/>
<path d="M450 80C450 87.7329 456.267 94 464 94C471.733 94 478 87.7329 478 80C478 72.2671 471.733 66 464 66C456.267 66 450 72.2671 450 80ZM476.643 80C476.643 86.9627 470.963 92.6428 464 92.6428C457.037 92.6428 451.357 86.9627 451.357 80C451.357 73.0373 457.037 67.3572 464 67.3572C470.963 67.3572 476.643 73.0373 476.643 80ZM464.441 74.5405C464.699 74.2826 465.137 74.2826 465.395 74.5405L470.413 79.525C470.45 79.5623 470.488 79.5996 470.488 79.6336L470.525 79.6709C470.525 79.7082 470.562 79.7082 470.562 79.7456C470.562 79.7829 470.562 79.7829 470.6 79.8202C470.6 79.8575 470.6 79.8575 470.6 79.8949C470.6 79.9322 470.6 79.9695 470.6 80.0408C470.6 80.0781 470.6 80.1154 470.6 80.1866C470.6 80.224 470.6 80.224 470.6 80.2613C470.6 80.2986 470.6 80.2986 470.562 80.336C470.562 80.3733 470.525 80.3733 470.525 80.4106C470.525 80.4106 470.525 80.4479 470.488 80.4479C470.45 80.4853 470.45 80.5226 470.413 80.5565L465.357 85.4969C465.099 85.7547 464.662 85.7547 464.404 85.4969C464.146 85.239 464.146 84.8013 464.404 84.5434L468.289 80.6582L457.55 80.6582C457.183 80.6582 456.891 80.3664 456.891 80C456.891 79.6335 457.183 79.3417 457.55 79.3417L468.286 79.3417L464.475 75.5278C464.183 75.236 464.183 74.795 464.441 74.5405Z" fill="white"/>
</svg>
