<svg width="90" height="90" viewBox="0 0 90 90" fill="none" xmlns="http://www.w3.org/2000/svg">
<path d="M81.3633 65H53.0504V68.0011H36.9512V65H8.63641C7.1792 65 6 66.345 6 68.0011C6 69.6571 7.18013 71 8.63641 71H81.3624C82.8196 71 83.9997 69.656 83.9997 68.0011C84.0007 66.3439 82.8196 65 81.3633 65Z" fill="white"/>
<path d="M73.77 20H16.2305C13.8938 20 11.9998 21.8811 11.9998 24.2008V62H77.9998V24.2008C78.0007 21.8811 76.1058 20 73.77 20ZM72.7567 57.6214H17.2448V24.5828H72.7567V57.6214Z" fill="white"/>
<path fill-rule="evenodd" clip-rule="evenodd" d="M72.9996 24H16.9998V57.9999H72.9996V24ZM56.9764 37.6537H58.4382C59.2355 37.6537 59.9 38.3196 59.9996 39.1187V42.8479C59.9996 43.647 59.3352 44.3129 58.5379 44.3129H57.0761C56.8103 45.3451 56.4116 46.2774 55.9133 47.1764L56.9432 48.2086C57.508 48.7746 57.508 49.7069 56.9432 50.2729L54.2854 52.9366C53.7206 53.5027 52.7904 53.5027 52.2256 52.9366L51.1957 51.9045C50.2987 52.4039 49.3352 52.8035 48.3386 53.0698V54.5349C48.3386 55.334 47.6741 55.9999 46.8768 55.9999H43.1226C42.3253 55.9999 41.6608 55.334 41.6608 54.5349V53.0698C40.6309 52.8035 39.7007 52.4039 38.8037 51.9045L37.7738 52.9366C37.209 53.5027 36.2788 53.5027 35.714 52.9366L33.0562 50.2729C32.4914 49.7069 32.4914 48.7746 33.0562 48.2086L34.0861 47.1764C33.5878 46.2774 33.1891 45.3118 32.9233 44.3129H31.4615C30.6642 44.3129 29.9998 43.6803 29.9998 42.8812V39.1187C29.9998 38.3196 30.6642 37.6537 31.4615 37.687H32.8901C33.1559 36.6548 33.5546 35.7225 34.0529 34.8235L33.023 33.7913C32.4582 33.2253 32.4582 32.293 33.023 31.7269L35.6808 29.0633C36.2456 28.4972 37.1758 28.4972 37.7406 29.0633L38.7705 30.0954C39.6675 29.596 40.6309 29.1964 41.6276 28.9301V27.465C41.6276 26.6659 42.2921 26 43.0894 26H46.8103C47.6077 26 48.2721 26.6659 48.2389 27.465V28.8968C49.2688 29.1631 50.199 29.5627 51.096 30.0621L52.1259 29.03C52.6907 28.4639 53.6209 28.4639 54.1857 29.03L56.8435 31.6937C57.4083 32.2597 57.4083 33.192 56.8435 33.758L55.8136 34.7902C56.312 35.6892 56.7106 36.6548 56.9764 37.6537ZM37.4748 40.9833C37.4748 45.112 40.8303 48.4749 44.9499 48.4749C49.0695 48.4749 52.4249 45.112 52.4249 40.9833C52.4249 36.8546 49.0695 33.4916 44.9499 33.4916C40.8303 33.4916 37.4748 36.8546 37.4748 40.9833Z" fill="white"/>
</svg>
