<svg xmlns="http://www.w3.org/2000/svg" width="16" height="16" viewBox="0 0 16 16">
  <g id="star" transform="translate(-1079.999 -975.999)">
    <path id="Path_14103" data-name="Path 14103" d="M8.378.716l2.035,5.051,5.21.469a.436.436,0,0,1,.234.754l-3.952,3.591,1.184,5.341a.415.415,0,0,1-.612.466L8,13.557,3.523,16.388a.415.415,0,0,1-.612-.466l1.184-5.341L.142,6.99a.435.435,0,0,1,.234-.754l5.21-.469L7.622.716a.4.4,0,0,1,.756,0Z" transform="translate(1080 975.548)" fill="#FDBE4B"/>
  </g>
</svg>
