<svg width="82" height="58" viewBox="0 0 82 58" fill="none" xmlns="http://www.w3.org/2000/svg">
<path d="M81.9687 19.9865C81.9687 19.0001 81.8982 18.0137 81.8278 17.0978C81.546 13.0113 81.053 8.29082 78.3058 4.9794C75.9812 2.16117 72.3888 1.52707 68.9372 1.17479C64.6403 0.681605 60.273 0.399782 55.9057 0.188415C47.1006 -0.163863 38.2955 0.0475037 29.42 0.258871C24.9118 0.329326 20.4036 0.399782 15.8954 0.75206C10.3306 1.17479 4.62491 2.02026 2.08905 7.51581C-0.235493 12.5182 0.0462692 18.7887 0.0462692 24.1433C-0.0241714 29.0048 -0.0241714 33.7958 0.11671 38.5868C0.398472 44.7869 0.750676 52.8893 7.44253 55.637C11.035 57.1166 15.3319 57.3984 19.2061 57.6802C23.2917 57.9621 27.3068 57.8916 31.3923 57.9621C39.9156 58.103 48.439 57.8212 56.9623 57.6098C62.8793 57.4689 68.9372 57.3984 74.6429 55.4961C79.5033 53.8052 80.8416 48.521 81.4756 43.9414C82.1096 39.3618 81.9687 34.7117 81.9687 30.1321C81.9687 26.7502 82.0391 23.3683 81.9687 19.9865Z" fill="#FF0000"/>
<path d="M53.9327 28.9348C46.7478 24.7074 39.7742 20.621 32.6597 16.4641C32.6597 24.8483 32.6597 33.0917 32.6597 41.4054C39.7742 37.2485 46.7478 33.0917 53.9327 28.9348Z" fill="white"/>
</svg>
