<svg width="787" height="822" viewBox="0 0 787 822" fill="none" xmlns="http://www.w3.org/2000/svg">
<path d="M720.135 285.253C725.546 285.513 729.431 289.011 729.153 293.676C728.876 297.693 725.269 300.803 720.69 300.543C716.528 300.284 712.782 296.527 712.782 292.769C712.782 289.659 715.834 284.606 720.135 285.253ZM720.551 290.696C719.441 290.696 718.47 291.603 718.609 292.639C718.748 293.805 719.996 294.972 721.384 294.842C722.355 294.712 723.187 294.453 723.326 293.287C723.326 291.862 722.216 290.696 720.551 290.696Z" fill="#FF7A7A"/>
<path d="M462.059 28.2012C467.47 28.4604 471.355 31.9589 471.077 36.6236C470.8 40.6405 467.193 43.7503 462.614 43.4911C458.452 43.232 454.706 39.4743 454.706 35.7166C454.706 32.6068 457.758 27.5534 462.059 28.2012ZM462.475 33.6434C461.365 33.6434 460.394 34.5504 460.533 35.587C460.672 36.7532 461.92 37.9194 463.308 37.7898C464.279 37.6602 465.111 37.4011 465.25 36.2349C465.25 34.8096 464.14 33.6434 462.475 33.6434Z" fill="#FF7A7A"/>
<path d="M6.43426 129.585C11.1689 129.827 14.5681 133.092 14.3253 137.446C14.0825 141.195 10.9261 144.097 6.91987 143.855C3.27783 143.613 0 140.106 0 136.599C0 133.697 2.67082 128.98 6.43426 129.585ZM6.79846 134.664C5.82725 134.664 4.97745 135.511 5.09885 136.478C5.22025 137.567 6.31286 138.655 7.52687 138.534C8.37668 138.413 9.10509 138.171 9.22649 137.083C9.22649 135.752 8.25528 134.664 6.79846 134.664Z" fill="#FF7A7A"/>
<path d="M98.4994 416.336C103.91 416.578 107.795 419.843 107.518 424.197C107.24 427.946 103.633 430.849 99.0544 430.607C94.892 430.365 91.146 426.858 91.146 423.35C91.146 420.448 94.1983 415.731 98.4994 416.336ZM98.9156 421.415C97.8057 421.415 96.8345 422.262 96.9732 423.23C97.112 424.318 98.3607 425.406 99.7481 425.285C100.719 425.165 101.552 424.923 101.691 423.834C101.829 422.504 100.581 421.415 98.9156 421.415Z" fill="#1D2A51"/>
<path d="M492.782 800.378C498.193 800.62 502.078 803.885 501.801 808.239C501.523 811.988 497.916 814.89 493.337 814.648C489.175 814.406 485.429 810.899 485.429 807.392C485.429 804.489 488.481 799.773 492.782 800.378ZM493.199 805.457C492.089 805.457 491.117 806.304 491.256 807.271C491.395 808.359 492.644 809.448 494.031 809.327C495.002 809.206 495.835 808.964 495.974 807.876C496.112 806.545 494.864 805.457 493.199 805.457Z" fill="#1D2A51"/>
<path d="M639.353 431.053C644.764 431.295 648.649 434.56 648.372 438.914C648.094 442.663 644.487 445.565 639.908 445.323C635.746 445.082 632 441.574 632 438.067C632 435.165 635.052 430.448 639.353 431.053ZM639.77 436.132C638.66 436.132 637.689 436.979 637.827 437.946C637.966 439.035 639.215 440.123 640.602 440.002C641.573 439.881 642.406 439.639 642.545 438.551C642.683 437.221 641.435 436.132 639.77 436.132Z" fill="#1D2A51"/>
<path d="M159.353 685.053C164.764 685.295 168.649 688.56 168.372 692.914C168.094 696.663 164.487 699.565 159.908 699.323C155.746 699.082 152 695.574 152 692.067C152 689.165 155.052 684.448 159.353 685.053ZM159.77 690.132C158.66 690.132 157.688 690.979 157.827 691.946C157.966 693.035 159.215 694.123 160.602 694.002C161.573 693.881 162.406 693.639 162.545 692.551C162.683 691.221 161.435 690.132 159.77 690.132Z" fill="#1D2A51"/>
<path d="M261.434 511.053C266.169 511.295 269.568 514.56 269.325 518.914C269.083 522.663 265.926 525.565 261.92 525.323C258.278 525.082 255 521.574 255 518.067C255 515.165 257.671 510.448 261.434 511.053ZM261.798 516.132C260.827 516.132 259.977 516.979 260.099 517.946C260.22 519.035 261.313 520.123 262.527 520.002C263.377 519.881 264.105 519.639 264.226 518.551C264.348 517.221 263.255 516.132 261.798 516.132Z" fill="#FDB41C"/>
<path d="M46.3746 748.148C51.1093 748.39 54.5085 751.655 54.2657 756.009C54.0229 759.758 50.8665 762.66 46.8602 762.418C43.2182 762.176 39.9404 758.669 39.9404 755.162C39.9404 752.259 42.6112 747.543 46.3746 748.148ZM46.7388 753.227C45.7676 753.227 44.9178 754.074 45.0392 755.041C45.1606 756.13 46.2532 757.218 47.4672 757.097C48.317 756.976 49.0454 756.734 49.1668 755.646C49.2882 754.315 48.1956 753.227 46.7388 753.227Z" fill="#FDB41C"/>
<path d="M665.434 664.053C670.169 664.295 673.568 667.56 673.325 671.914C673.083 675.663 669.926 678.565 665.92 678.323C662.278 678.082 659 674.574 659 671.067C659 668.165 661.671 663.448 665.434 664.053ZM665.798 669.132C664.827 669.132 663.977 669.979 664.099 670.946C664.22 672.035 665.313 673.123 666.527 673.002C667.377 672.881 668.105 672.639 668.226 671.551C668.348 670.221 667.255 669.132 665.798 669.132Z" fill="#FDB41C"/>
<path d="M49.4342 287.053C54.1689 287.295 57.5681 290.56 57.3253 294.914C57.0825 298.663 53.9261 301.565 49.9199 301.323C46.2778 301.082 43 297.574 43 294.067C43 291.165 45.6708 286.448 49.4342 287.053ZM49.7984 292.132C48.8272 292.132 47.9774 292.979 48.0988 293.946C48.2202 295.035 49.3129 296.123 50.5269 296.002C51.3767 295.881 52.1051 295.639 52.2265 294.551C52.3479 293.221 51.2553 292.132 49.7984 292.132Z" fill="#FDB41C"/>
<path d="M126.434 14.0529C131.169 14.2948 134.568 17.5601 134.325 21.9138C134.083 25.6629 130.926 28.5653 126.92 28.3235C123.278 28.0816 120 24.5744 120 21.0673C120 18.1648 122.671 13.4482 126.434 14.0529ZM126.798 19.1323C125.827 19.1323 124.977 19.9789 125.099 20.9463C125.22 22.0348 126.313 23.1232 127.527 23.0023C128.377 22.8813 129.105 22.6395 129.226 21.551C129.348 20.2207 128.255 19.1323 126.798 19.1323Z" fill="#FDB41C"/>
<path d="M356.434 671.053C361.169 671.295 364.568 674.56 364.325 678.914C364.083 682.663 360.926 685.565 356.92 685.323C353.278 685.082 350 681.574 350 678.067C350 675.165 352.671 670.448 356.434 671.053ZM356.798 676.132C355.827 676.132 354.977 676.979 355.099 677.946C355.22 679.035 356.313 680.123 357.527 680.002C358.377 679.881 359.105 679.639 359.226 678.551C359.348 677.221 358.255 676.132 356.798 676.132Z" fill="#FF7A7A"/>
<path d="M211.434 793.053C216.169 793.295 219.568 796.56 219.325 800.914C219.083 804.663 215.926 807.565 211.92 807.323C208.278 807.082 205 803.574 205 800.067C205 797.165 207.671 792.448 211.434 793.053ZM211.798 798.132C210.827 798.132 209.977 798.979 210.099 799.946C210.22 801.035 211.313 802.123 212.527 802.002C213.377 801.881 214.105 801.639 214.226 800.551C214.348 799.221 213.255 798.132 211.798 798.132Z" fill="#9DDBFC"/>
<path d="M326.981 365.131C331.716 365.372 335.115 368.638 334.872 372.991C334.629 376.741 331.473 379.643 327.467 379.401C323.825 379.159 320.547 375.652 320.547 372.145C320.547 369.242 323.218 364.526 326.981 365.131ZM327.345 370.21C326.374 370.21 325.524 371.056 325.646 372.024C325.767 373.112 326.86 374.201 328.074 374.08C328.924 373.959 329.652 373.717 329.773 372.629C329.895 371.298 328.802 370.21 327.345 370.21Z" fill="#9DDBFC"/>
<path d="M658.975 0.0529256C663.371 0.2948 666.528 3.5601 666.302 7.91383C666.077 11.6629 663.146 14.5653 659.426 14.3235C656.044 14.0816 653 10.5744 653 7.06726C653 4.16477 655.48 -0.551759 658.975 0.0529256ZM659.313 5.13229C658.411 5.13229 657.622 5.97885 657.735 6.94635C657.847 8.03478 658.862 9.12319 659.989 9.00226C660.778 8.88132 661.455 8.63947 661.567 7.55103C661.68 6.22073 660.666 5.13229 659.313 5.13229Z" fill="#FDB41C"/>
<path d="M500.975 235.053C505.371 235.295 508.528 238.56 508.302 242.914C508.077 246.663 505.146 249.565 501.426 249.323C498.044 249.082 495 245.574 495 242.067C495 239.165 497.48 234.448 500.975 235.053ZM501.313 240.132C500.411 240.132 499.622 240.979 499.735 241.946C499.847 243.035 500.862 244.123 501.989 244.002C502.778 243.881 503.455 243.639 503.567 242.551C503.68 241.221 502.666 240.132 501.313 240.132Z" fill="#FDB41C"/>
<path d="M493.894 495.06C498.967 495.337 502.609 499.069 502.349 504.044C502.088 508.329 498.707 511.646 494.414 511.37C490.512 511.093 487 507.085 487 503.077C487 499.76 489.862 494.369 493.894 495.06ZM494.284 500.865C493.243 500.865 492.333 501.833 492.463 502.939C492.593 504.183 493.764 505.427 495.065 505.288C495.975 505.15 496.755 504.874 496.886 503.63C497.016 502.109 495.845 500.865 494.284 500.865Z" fill="#F95847"/>
<path d="M744.819 129.585C749.553 129.827 752.953 133.092 752.71 137.446C752.467 141.195 749.311 144.097 745.304 143.855C741.662 143.613 738.385 140.106 738.385 136.599C738.385 133.697 741.055 128.98 744.819 129.585ZM745.183 134.664C744.212 134.664 743.362 135.511 743.483 136.478C743.605 137.567 744.697 138.655 745.911 138.534C746.761 138.413 747.49 138.171 747.611 137.083C747.732 135.752 746.64 134.664 745.183 134.664Z" fill="#9DDBFC"/>
<path d="M778.614 459.349C783.349 459.591 786.748 462.856 786.506 467.21C786.263 470.959 783.106 473.861 779.1 473.619C775.458 473.378 772.18 469.87 772.18 466.363C772.18 463.461 774.851 458.744 778.614 459.349ZM778.979 464.428C778.007 464.428 777.158 465.275 777.279 466.242C777.4 467.331 778.493 468.419 779.707 468.298C780.557 468.177 781.285 467.935 781.407 466.847C781.528 465.517 780.436 464.428 778.979 464.428Z" fill="#9DDBFC"/>
<path d="M771.434 807.053C776.169 807.295 779.568 810.56 779.325 814.914C779.083 818.663 775.926 821.565 771.92 821.323C768.278 821.082 765 817.574 765 814.067C765 811.165 767.671 806.448 771.434 807.053ZM771.798 812.132C770.827 812.132 769.977 812.979 770.099 813.946C770.22 815.035 771.313 816.123 772.527 816.002C773.377 815.881 774.105 815.639 774.226 814.551C774.348 813.221 773.255 812.132 771.798 812.132Z" fill="#9DDBFC"/>
<path d="M21.691 559.719C27.1021 559.996 30.9869 563.727 30.7094 568.703C30.4319 572.988 26.8246 576.305 22.246 576.028C18.0837 575.752 14.3376 571.744 14.3376 567.736C14.3376 564.418 17.39 559.028 21.691 559.719ZM22.1073 565.524C20.9973 565.524 20.0261 566.492 20.1649 567.597C20.3036 568.841 21.5523 570.085 22.9397 569.947C23.9109 569.809 24.7434 569.532 24.8821 568.288C25.0209 566.768 23.7722 565.524 22.1073 565.524Z" fill="#9DDBFC"/>
<path d="M286.434 105.053C291.169 105.295 294.568 108.56 294.325 112.914C294.083 116.663 290.926 119.565 286.92 119.323C283.278 119.082 280 115.574 280 112.067C280 109.165 282.671 104.448 286.434 105.053ZM286.798 110.132C285.827 110.132 284.977 110.979 285.099 111.946C285.22 113.035 286.313 114.123 287.527 114.002C288.377 113.881 289.105 113.639 289.226 112.551C289.348 111.221 288.255 110.132 286.798 110.132Z" fill="#181C47"/>
</svg>
