<svg width="33" height="31" viewBox="0 0 33 31" fill="none" xmlns="http://www.w3.org/2000/svg">
<path d="M16.1533 30.4043C25.0745 30.4043 32.3066 23.6326 32.3066 15.2793C32.3066 6.92599 25.0745 0.154297 16.1533 0.154297C7.23207 0.154297 0 6.92599 0 15.2793C0 23.6326 7.23207 30.4043 16.1533 30.4043Z" fill="#FE9235"/>
<path d="M13.599 18.2061V17.4473C13.599 16.791 13.7391 16.2202 14.0194 15.7349C14.2997 15.2495 14.8124 14.7334 15.5575 14.1865C16.2753 13.6738 16.7469 13.2568 16.9725 12.9355C17.205 12.6143 17.3212 12.2554 17.3212 11.8589C17.3212 11.4146 17.1571 11.0762 16.829 10.8438C16.5009 10.6113 16.0428 10.4951 15.455 10.4951C14.4296 10.4951 13.2606 10.8301 11.9481 11.5L10.8304 9.25439C12.3549 8.3999 13.9716 7.97266 15.6805 7.97266C17.0887 7.97266 18.2064 8.31104 19.0336 8.98779C19.8676 9.66455 20.2845 10.5669 20.2845 11.6948C20.2845 12.4468 20.1136 13.0962 19.7719 13.6431C19.4301 14.1899 18.7806 14.8052 17.8236 15.4888C17.1674 15.9741 16.7504 16.3433 16.5726 16.5962C16.4017 16.8491 16.3163 17.1807 16.3163 17.5908V18.2061H13.599ZM13.2709 21.7129C13.2709 21.1387 13.4247 20.7046 13.7323 20.4106C14.0399 20.1167 14.4877 19.9697 15.0756 19.9697C15.6429 19.9697 16.0804 20.1201 16.3881 20.4209C16.7025 20.7217 16.8597 21.1523 16.8597 21.7129C16.8597 22.2529 16.7025 22.6802 16.3881 22.9946C16.0736 23.3022 15.6361 23.4561 15.0756 23.4561C14.5013 23.4561 14.057 23.3057 13.7426 23.0049C13.4281 22.6973 13.2709 22.2666 13.2709 21.7129Z" fill="white"/>
</svg>
