<svg width="35" height="38" viewBox="0 0 35 38" fill="none" xmlns="http://www.w3.org/2000/svg">
<path d="M21.7553 30.5569C21.7479 30.5989 21.7416 30.6356 21.7363 30.6665C21.6977 30.7426 21.6311 30.8337 21.5435 30.9084C21.45 30.9882 21.3945 30.9989 21.3931 31H13.0259H12.6621C12.6606 30.9989 12.6052 30.9882 12.5117 30.9084C12.4196 30.8298 12.3506 30.7332 12.3131 30.6548C12.306 30.6201 12.2969 30.5763 12.2858 30.524C12.2559 30.3827 12.2117 30.1795 12.1535 29.9274C12.0371 29.4238 11.8642 28.7228 11.6374 27.9307C11.1897 26.3668 10.5102 24.3686 9.60497 22.8427L9.57683 22.7953L9.54365 22.7512C7.90823 20.5804 7.55518 17.5919 8.56535 14.8783L8.57198 14.8605L8.57792 14.8424C9.40363 12.3373 11.3869 10.4491 13.8856 9.6594C15.0337 9.29654 15.9996 9 16.9345 9C19.7468 9 22.439 10.4085 24.3191 12.8291C26.0104 15.2454 26.4671 18.0621 25.4971 20.5146L25.466 20.5932L25.4485 20.676C25.2999 21.3805 25.0051 21.9645 24.47 22.8106C23.4528 24.3572 22.7699 26.3745 22.3442 27.9441C22.1279 28.7419 21.9718 29.4478 21.8696 29.9551C21.8184 30.209 21.7806 30.4141 21.7553 30.5569Z" fill="#FE9235" stroke="#FE9235" stroke-width="2"/>
<path d="M17 20V31" stroke="white" stroke-miterlimit="10"/>
<path d="M17 0V5.25724" stroke="#FE9235" stroke-width="2" stroke-miterlimit="10"/>
<path d="M22 34L12 34" stroke="#FE9235" stroke-width="2" stroke-miterlimit="10"/>
<path d="M21 37L13 37" stroke="#FE9235" stroke-width="2" stroke-miterlimit="10"/>
<path d="M5.34729 17H0" stroke="#FE9235" stroke-width="2" stroke-miterlimit="10"/>
<path d="M34.3473 17H29" stroke="#FE9235" stroke-width="2" stroke-miterlimit="10"/>
<path d="M28.7431 5L25 8.50483" stroke="#FE9235" stroke-width="2" stroke-miterlimit="10"/>
<path d="M8.7431 8.50483L5 5" stroke="#FE9235" stroke-width="2" stroke-miterlimit="10"/>
<path d="M12 19H23" stroke="white" stroke-width="2" stroke-miterlimit="10"/>
</svg>
