<svg width="65" height="37" viewBox="0 0 65 37" fill="none" xmlns="http://www.w3.org/2000/svg">
<path fill-rule="evenodd" clip-rule="evenodd" d="M24.7357 0C27.4683 0.00084761 30.1668 0.5944 32.6371 1.73799C35.1075 2.88158 37.2884 4.5468 39.023 6.61395L39.0033 6.6324L36.5077 6.46546L40.5822 13.0536V17.8782H42.6943V13.5581C42.6622 13.4419 42.6283 13.3248 42.5944 13.2095V13.1956V13.1836V13.1698V13.1624V13.1486V13.1366V13.1274V13.1154V13.1016V13.0905V13.0776V13.0656L42.5869 13.0407V13.0287L42.5803 13.0066V12.9936V12.9798V12.9678V12.9558L42.5727 12.9309V12.9125L42.5671 12.895V12.883L42.5595 12.8581V12.8442L42.5407 12.7861V12.7815V12.7686V12.7566V12.7437V12.7308L42.5322 12.7059V12.7013V12.693V12.6801L42.5256 12.6588L42.5049 12.6395V12.6275L42.4992 12.61L42.3928 12.5758V12.5694V12.5629V12.55L42.3758 12.4993V12.4854V12.4744L42.3674 12.4495V12.4421L42.3617 12.4329L42.3495 12.396C42.1667 11.873 41.9623 11.3611 41.7324 10.8603L41.6476 11.0051L44.2034 6.63148H46.8007L42.6961 13.0527V13.5581C43.75 17.3369 43.5552 21.3453 42.1398 25.0091C40.7245 28.6728 38.161 31.8041 34.8167 33.9543C31.4905 36.0803 27.5522 37.0984 23.5876 36.8571C19.6229 36.6158 15.8437 35.128 12.812 32.6151L16.7951 22.1587H14.3796L11.6166 30.0178L8.76118 22.1606H6.50023C5.94567 19.4822 5.99992 16.7172 6.65913 14.0617C7.31834 11.4061 8.56635 8.92514 10.3146 6.79473C12.0479 4.68007 14.2428 2.97219 16.7382 1.79642C19.2337 0.620652 21.9664 0.00683041 24.7357 0V0ZM9.71926 32.7783L5.84079 22.1855H3.76825L0 32.7783H2.07254L2.87046 30.3729H6.74516L7.59302 32.7783H9.71926ZM6.11775 28.5873L4.78285 24.6564L3.47527 28.5873H6.11775ZM45.5723 12.3738C45.4825 13.8931 46.0109 15.3854 47.0419 16.5243C47.5571 17.0322 48.1755 17.4285 48.8571 17.6876C49.5387 17.9467 50.2682 18.0629 50.9985 18.0286C51.7251 18.0618 52.4506 17.9442 53.1275 17.6835C53.8044 17.4228 54.4173 17.0249 54.926 16.516C55.5124 15.9064 55.9323 15.1619 56.1469 14.3513C56.1732 14.7605 56.2292 15.1673 56.3146 15.5688C56.4263 16.0193 56.6423 16.4386 56.9458 16.7945C57.2975 17.2079 57.7447 17.5333 58.2505 17.7436C59.0247 18.0271 59.8499 18.1526 60.6754 18.1125C61.4074 18.1386 62.1376 18.0249 62.8252 17.7777C63.3291 17.5829 63.7793 17.2749 64.1394 16.8784C64.4772 16.4769 64.7083 15.9997 64.812 15.4894C64.9615 14.5593 65.0221 13.6175 64.9929 12.6764V6.86206H62.7413V12.977C62.7574 13.6062 62.723 14.2356 62.6387 14.8595C62.574 15.237 62.366 15.5766 62.0565 15.8104C61.6337 16.0981 61.123 16.2351 60.6095 16.1987C60.0797 16.2284 59.555 16.0836 59.1191 15.7873C58.76 15.5203 58.5144 15.1327 58.4295 14.699C58.3558 14.0848 58.3284 13.4661 58.3476 12.8479V6.86206H56.0979V10.1114C55.8742 9.36138 55.4711 8.67435 54.9222 8.10719C54.4102 7.5964 53.794 7.19709 53.1136 6.93534C52.4333 6.67358 51.7042 6.55527 50.974 6.58813C50.1497 6.57139 49.3306 6.72115 48.568 7.02808C48.0225 7.2582 47.531 7.59532 47.1238 8.01865C46.6896 8.46254 46.3374 8.97683 46.0829 9.53863C45.7165 10.4402 45.5431 11.4058 45.5732 12.3757L45.5723 12.3738ZM47.8944 12.3001C47.8141 11.2789 48.1173 10.2642 48.747 9.4464C49.035 9.14794 49.3819 8.90992 49.7667 8.74683C50.1516 8.58373 50.5663 8.49896 50.9856 8.49767C51.405 8.49637 51.8202 8.57858 52.2061 8.7393C52.5919 8.90002 52.9404 9.13589 53.2303 9.43256C53.8517 10.2467 54.1515 11.2533 54.0744 12.2669C54.1545 13.2994 53.8474 14.3251 53.2105 15.1519C52.9299 15.4555 52.5874 15.698 52.205 15.8639C51.8227 16.0297 51.4091 16.1152 50.9909 16.1148C50.5727 16.1144 50.1593 16.028 49.7773 15.8614C49.3953 15.6947 49.0533 15.4514 48.7734 15.1473C48.1352 14.3345 47.8235 13.3208 47.8973 12.2982L47.8944 12.3001ZM42.3363 12.3987L42.6001 13.2141V13.2002V13.1882V13.1744V13.167V13.1532V13.1412V13.132V13.12V13.1062V13.0951V13.0822V13.0702L42.5925 13.0453V13.0333L42.5859 13.0112V12.9983V12.9844V12.9724V12.9604L42.5784 12.9355V12.9125L42.5727 12.895V12.883L42.5652 12.8581V12.8442L42.5464 12.7861V12.7815V12.7686V12.7566V12.7437V12.7308L42.5379 12.7059V12.7013V12.693V12.6801L42.5313 12.6588L42.5115 12.6395V12.6275L42.5058 12.61L42.3928 12.5758V12.5694V12.5629V12.55L42.3758 12.4993V12.4854V12.4744L42.3674 12.4495V12.4421L42.3617 12.4329L42.3495 12.396L42.3363 12.3987ZM16.7489 29.5899C16.7865 30.6072 17.1811 31.5808 17.8662 32.3467C18.224 32.6774 18.6475 32.9324 19.1105 33.0957C19.5734 33.259 20.0657 33.3271 20.5567 33.2957C21.249 33.3188 21.9372 33.184 22.5671 32.9019C23.1028 32.6399 23.5393 32.2176 23.8134 31.6964C24.107 31.1632 24.2589 30.5663 24.2553 29.9606C24.2744 29.367 24.1491 28.7774 23.8898 28.2405C23.6552 27.7914 23.3019 27.412 22.8667 27.142C22.2328 26.7973 21.5548 26.5367 20.8507 26.3673C20.2338 26.2476 19.6498 26.0015 19.137 25.6451C19.0475 25.56 18.9768 25.4578 18.9291 25.3448C18.8815 25.2319 18.858 25.1106 18.8601 24.9884C18.8549 24.8623 18.8788 24.7366 18.9302 24.6208C18.9816 24.505 19.0591 24.4021 19.1568 24.3197C19.517 24.0404 19.9699 23.9011 20.4286 23.9287C20.8549 23.898 21.277 24.0283 21.6081 24.293C21.8709 24.5374 21.8794 24.8381 21.9576 25.3933H23.9877C24.0007 24.5136 23.6709 23.662 23.0654 23.0119C22.7137 22.6964 22.2997 22.4548 21.849 22.3021C21.3982 22.1493 20.9203 22.0886 20.4446 22.1237C19.8172 22.1071 19.1945 22.2357 18.6274 22.4991C18.1366 22.7377 17.7339 23.12 17.4753 23.5929C17.2107 24.0655 17.0733 24.5962 17.0758 25.1351C17.0557 25.9398 17.3603 26.7199 17.9237 27.3062C18.52 27.8344 19.2445 28.2043 20.0282 28.3807C20.8026 28.6076 21.3019 28.7635 21.5195 28.852C21.7836 28.9406 22.0156 29.1024 22.1874 29.3178C22.3234 29.5086 22.3928 29.7373 22.3853 29.9699C22.3858 30.165 22.3452 30.3582 22.2661 30.5374C22.187 30.7165 22.0711 30.8778 21.9256 31.0112C21.7419 31.1711 21.5272 31.2932 21.2943 31.3702C21.0614 31.4472 20.815 31.4775 20.5699 31.4594C20.3217 31.4713 20.0737 31.4326 19.8415 31.346C19.6093 31.2593 19.398 31.1264 19.2209 30.9558C18.8857 30.5797 18.7012 30.0973 18.7018 29.5982L16.7489 29.5899ZM28.991 24.2838H33.1097V19.864H35.8615V16.1581H33.1088V2.21357H29.5393L19.9086 16.171V19.8603H28.9901L28.991 24.2838ZM28.991 16.1572V8.64306L23.8926 16.1572H28.991Z" fill="#181C47"/>
</svg>
