<svg xmlns="http://www.w3.org/2000/svg" width="85" height="85.002" viewBox="0 0 85 85.002"><defs><style>.a{fill:#4189d1;}.b{fill:#5096dc;}</style></defs><g transform="translate(0 0)"><g transform="translate(34.98 2.784)"><path class="a" d="M253.017,16.768H212.2a1.842,1.842,0,0,0-1.842,1.842V32.962l2.043-1.268a5.107,5.107,0,0,1,1.641-.66V20.452h37.132V47.018H214.043v-4.3l-3.684,2.287V48.86A1.842,1.842,0,0,0,212.2,50.7h40.816a1.842,1.842,0,0,0,1.842-1.842V18.61A1.842,1.842,0,0,0,253.017,16.768Z" transform="translate(-210.359 -16.768)"/></g><g transform="translate(42.473 12.469)"><path class="a" d="M264.133,75.645a1.417,1.417,0,0,0-1.99-.235l-6.345,5a5.094,5.094,0,0,1,1.544,1.582,5.148,5.148,0,0,1,.3.57l6.251-4.929A1.417,1.417,0,0,0,264.133,75.645Z" transform="translate(-255.798 -75.106)"/></g><g transform="translate(14.84 0)"><circle class="a" cx="5.302" cy="5.302" r="5.302"/></g><g transform="translate(7.09 12.293)"><path class="a" d="M77.749,82.462a2.558,2.558,0,0,0-3.523-.824l-5.181,3.217c-.022-4.3-.01-2.016-.024-4.783a6.067,6.067,0,0,0-6.054-6.023H60.452c-2.15,5.576-1.457,3.506-3.283,8.239l.768-3.342a1.066,1.066,0,0,0-.109-.735l-1.04-1.891.923-1.678a.376.376,0,0,0-.33-.557H54.846a.376.376,0,0,0-.33.557l.925,1.682L54.4,78.217a1.068,1.068,0,0,0-.112.722l.665,3.349-3.177-8.239H49.208a6.067,6.067,0,0,0-6.054,6.023L43.06,98.865a2.558,2.558,0,0,0,2.545,2.571h.013a2.558,2.558,0,0,0,2.558-2.545L48.27,80.1v-.009a.507.507,0,0,1,1.015.007v26.626a8.535,8.535,0,0,1,6.14,2.228V98.563h1.325v11.916a8.559,8.559,0,0,1,.24,9.248,9.318,9.318,0,0,1,2.341.309,8.557,8.557,0,0,1,3.559-1.849c0-46.376-.056-17.7-.056-38.088a.535.535,0,0,1,1.071,0c.009,1.794.037,7.4.047,9.355a2.558,2.558,0,0,0,3.907,2.16l9.065-5.629A2.558,2.558,0,0,0,77.749,82.462Z" transform="translate(-43.06 -74.048)"/></g><g transform="translate(65.703 47.984)"><circle class="a" cx="5.612" cy="5.612" r="5.612"/></g><g transform="translate(64.187 60.996)"><path class="a" d="M407.065,373.783a6.422,6.422,0,0,0-6.408-6.376H386.582a8.554,8.554,0,0,1-.3,8.356,9.382,9.382,0,0,1,7.5,4.3h6.737v-6.214a.567.567,0,0,1,1.133-.039h0l.032,6.252H407.1Z" transform="translate(-386.284 -367.407)"/></g><g transform="translate(36.368 60.935)"><path class="a" d="M230.919,371.007a8.521,8.521,0,0,1,.979-3.971H219.4a8.555,8.555,0,0,1-.337,8.261,9.348,9.348,0,0,1,6.688,2.867,9.278,9.278,0,0,1,6.447-2.655A8.564,8.564,0,0,1,230.919,371.007Z" transform="translate(-219.064 -367.036)"/></g><g transform="translate(38.354 47.922)"><path class="a" d="M236.627,288.655a5.612,5.612,0,1,0,5.612,5.612A5.612,5.612,0,0,0,236.627,288.655Z" transform="translate(-231.015 -288.655)"/></g><g transform="translate(0 60.934)"><path class="a" d="M20.751,370.856a8.524,8.524,0,0,1,.9-3.815c-.242-.012.776-.008-14.856-.008a6.424,6.424,0,0,0-6.408,6.376L.353,379.75H5.769l.032-6.314a.567.567,0,0,1,1.133,0v6.311h7.592a9.327,9.327,0,0,1,7.511-4.384A8.51,8.51,0,0,1,20.751,370.856Z" transform="translate(-0.353 -367.033)"/></g><g transform="translate(8.073 47.922)"><path class="a" d="M54.595,288.655a5.612,5.612,0,1,0,5.612,5.612A5.612,5.612,0,0,0,54.595,288.655Z" transform="translate(-48.983 -288.655)"/></g><g transform="translate(15.68 72.137)"><path class="a" d="M148.911,441.034a6.422,6.422,0,0,0-6.408-6.376h-14.2a6.583,6.583,0,0,0-6.592,6.376l-.046-.148a6.422,6.422,0,0,0-6.408-6.376h-14.2a6.583,6.583,0,0,0-6.592,6.376l-.032,6.489h5.416l.032-6.462a.488.488,0,0,1,.976,0v6.459h14.343v-6.459a.523.523,0,0,1,1.046,0l.032,6.462H127.1l.032-6.314h0a.488.488,0,0,1,.976,0v6.311H142.45v-6.311a.523.523,0,0,1,1.046,0l.032,6.314h5.416Z" transform="translate(-94.442 -434.51)"/></g><g transform="translate(23.509 59.058)"><circle class="a" cx="5.677" cy="5.677" r="5.677"/></g><g transform="translate(51.134 59.206)"><circle class="a" cx="5.677" cy="5.677" r="5.677"/></g></g><path class="b" d="M56.692,85l-.032-6.313a.527.527,0,0,0-1.053,0V85H47.684l-8.4-12.376a6.623,6.623,0,0,1,2.093-.341H55.661a6.443,6.443,0,0,1,6.449,6.377L62.142,85ZM71.549,73.652,71.518,67.4a.571.571,0,0,0-1.141.039v6.215H63.6a9.454,9.454,0,0,0-7.543-4.3,8.506,8.506,0,0,0,.3-8.356H70.519a6.442,6.442,0,0,1,6.449,6.376L77,73.652Zm-28.6-8.77a5.714,5.714,0,1,1,5.713,5.678A5.7,5.7,0,0,1,42.953,64.883ZM31.347,60.935H41.03a8.5,8.5,0,0,0,.3,8.473,9.346,9.346,0,0,0-3.7.783ZM57.58,53.6a5.648,5.648,0,1,1,5.648,5.612A5.63,5.63,0,0,1,57.58,53.6Zm-27.468-.061a5.648,5.648,0,1,1,5.648,5.612A5.63,5.63,0,0,1,30.112,53.534ZM4.974,22.082V18.341a.511.511,0,0,0-1.021-.008v.009L3.942,20.56,0,14.753a6.1,6.1,0,0,1,4.9-2.46H7.481c.343.884,2.837,7.31,3.2,8.24l-.669-3.349a1.062,1.062,0,0,1,.112-.722l1.049-1.895-.931-1.682a.376.376,0,0,1,.331-.557h2.552a.376.376,0,0,1,.332.557l-.929,1.679,1.047,1.891a1.063,1.063,0,0,1,.109.736l-.772,3.342c1.837-4.733,1.139-2.663,3.3-8.24h2.534a6.087,6.087,0,0,1,6.092,6.024c.014,2.767,0,.486.023,4.783l5.214-3.217a2.584,2.584,0,0,1,3.545.824,2.547,2.547,0,0,1-.829,3.522l-9.122,5.629a2.589,2.589,0,0,1-2.6.066A2.557,2.557,0,0,1,19.735,27.7c-.01-1.953-.038-7.561-.047-9.355a.539.539,0,0,0-1.078,0c0,17.822.043-1.856.054,23.905Zm23.54,14.635a1.848,1.848,0,0,1-1.854-1.842V31.022l3.707-2.287v4.3H67.737V6.467H30.368V17.05a5.17,5.17,0,0,0-1.652.66l-2.056,1.269V4.626a1.848,1.848,0,0,1,1.854-1.842H69.591a1.848,1.848,0,0,1,1.854,1.842V34.875a1.848,1.848,0,0,1-1.854,1.842Zm7.293-17.36a5.1,5.1,0,0,0-1.554-1.581l6.385-5a1.432,1.432,0,0,1,2,.236A1.411,1.411,0,0,1,42.4,15l-6.291,4.928A5.052,5.052,0,0,0,35.807,19.357ZM6.485,5.3a5.336,5.336,0,1,1,5.335,5.3A5.318,5.318,0,0,1,6.485,5.3Z" transform="translate(8)"/></svg>