<svg xmlns="http://www.w3.org/2000/svg" xmlns:xlink="http://www.w3.org/1999/xlink" width="64" height="64" viewBox="0 0 64 64"><defs><style>.a{fill:none;}.b{fill:#2474cd;}.c{fill:url(#a);}</style><linearGradient id="a" x1="0.315" y1="0.405" x2="0.899" y2="0.706" gradientUnits="objectBoundingBox"><stop offset="0" stop-color="#458bd4"/><stop offset="1" stop-color="#2372cb"/></linearGradient></defs><g transform="translate(1 -27.618)"><rect class="a" width="64" height="64" transform="translate(-1 27.618)"/><path class="b" d="M-14828.336,20391.617a28.8,28.8,0,0,1-15.568-4.525l-14.677,4.238a1.968,1.968,0,0,1-.507.072,1.882,1.882,0,0,1-1.5-.768,2.108,2.108,0,0,1-.174-2.223l6.7-12.748a26.559,26.559,0,0,1-2.615-11.549,26.637,26.637,0,0,1,2.227-10.705,27.394,27.394,0,0,1,6.072-8.74,28.3,28.3,0,0,1,9.009-5.891,28.9,28.9,0,0,1,11.029-2.162,28.9,28.9,0,0,1,11.029,2.162,28.291,28.291,0,0,1,9.008,5.891,27.394,27.394,0,0,1,6.072,8.74,26.637,26.637,0,0,1,2.227,10.705,26.621,26.621,0,0,1-2.227,10.7,27.393,27.393,0,0,1-6.072,8.742,28.3,28.3,0,0,1-9.008,5.895A28.9,28.9,0,0,1-14828.336,20391.617Zm-4.048-19.34h0v6.314h6.438v-6.314Zm3.648-18.859a3.514,3.514,0,0,1,2.563.9,3.76,3.76,0,0,1,.922,2.785,3.361,3.361,0,0,1-.39,1.848,5.691,5.691,0,0,1-1.125,1.355c-.475.412-.986.826-1.521,1.229a10.279,10.279,0,0,0-1.556,1.453,8.615,8.615,0,0,0-1.295,2.031,8.429,8.429,0,0,0-.676,2.953v1.842h5.538v-1.555a4.121,4.121,0,0,1,.8-2.053,8.219,8.219,0,0,1,1.453-1.453c.56-.432,1.146-.861,1.745-1.273a8.545,8.545,0,0,0,1.679-1.535,8.066,8.066,0,0,0,1.274-2.176,8.825,8.825,0,0,0,.512-3.24,7.36,7.36,0,0,0-.512-2.559,7.239,7.239,0,0,0-1.7-2.562,9.5,9.5,0,0,0-3.137-1.992,12.9,12.9,0,0,0-4.857-.8,10.569,10.569,0,0,0-4.078.758,9.1,9.1,0,0,0-3.117,2.113,9.8,9.8,0,0,0-2.011,3.2,11.794,11.794,0,0,0-.758,4.059h6.029a8.408,8.408,0,0,1,.245-2.072,4.979,4.979,0,0,1,.758-1.68,3.794,3.794,0,0,1,1.315-1.15A4,4,0,0,1-14828.735,20353.418Z" transform="translate(14861 -20305)"/><path class="c" d="M-14825.549,20424.988v-4.83h-2.788l-1.423-2.463h3.882v-1.551a4.2,4.2,0,0,1,.8-2.053,8.309,8.309,0,0,1,1.453-1.457c.533-.412,1.1-.826,1.745-1.273a8.508,8.508,0,0,0,1.678-1.535,7.767,7.767,0,0,0,1.269-2.17,8.757,8.757,0,0,0,.518-3.244,7.2,7.2,0,0,0-.518-2.557,7.093,7.093,0,0,0-1.694-2.566,9.549,9.549,0,0,0-3.141-1.986,12.8,12.8,0,0,0-4.855-.8,10.536,10.536,0,0,0-4.081.76,9.042,9.042,0,0,0-3.115,2.109,9.852,9.852,0,0,0-2.012,3.2c-.091.234-.173.473-.248.717l-7.471-12.939a28.9,28.9,0,0,1,6.451-3.682,29.235,29.235,0,0,1,11.168-2.193,29.237,29.237,0,0,1,11.164,2.193,28.644,28.644,0,0,1,9.12,5.973,27.671,27.671,0,0,1,6.148,8.865,26.942,26.942,0,0,1,2.254,10.85,26.993,26.993,0,0,1-2.254,10.852,27.77,27.77,0,0,1-6.148,8.863,28.692,28.692,0,0,1-9.12,5.975q-.507.208-1.018.395Zm-10.6-18.359h3.588a8.226,8.226,0,0,1,.247-2.068,4.887,4.887,0,0,1,.76-1.684,3.786,3.786,0,0,1,1.313-1.145,3.954,3.954,0,0,1,1.9-.432,3.482,3.482,0,0,1,2.562.9,3.774,3.774,0,0,1,.924,2.793,3.4,3.4,0,0,1-.391,1.842,5.659,5.659,0,0,1-1.129,1.355c-.493.432-1,.842-1.515,1.227a10.823,10.823,0,0,0-1.56,1.453,8.739,8.739,0,0,0-1.294,2.031,7.718,7.718,0,0,0-.584,2.088Z" transform="translate(14861.001 -20352.855)"/></g></svg>