<svg xmlns="http://www.w3.org/2000/svg" xmlns:xlink="http://www.w3.org/1999/xlink" width="64" height="64" viewBox="0 0 64 64"><defs><style>.a{fill:none;}.b{fill:#2474cd;}.c{fill:url(#a);}</style><linearGradient id="a" x1="0.393" y1="0.255" x2="1" y2="0.804" gradientUnits="objectBoundingBox"><stop offset="0" stop-color="#3984d1"/><stop offset="1" stop-color="#1d65b5"/></linearGradient></defs><rect class="a" width="64" height="64"/><g transform="translate(4 3)"><path class="b" d="M0,7.417H10.6v5.269H0Zm0,7.377H10.6V50.624H0Zm1.943,29.2A3.313,3.313,0,1,0,5.256,40.7,3.3,3.3,0,0,0,1.943,43.993ZM0,56.947H10.6V52.732H0Zm12.722-4.952v4.953H26.5V51.969c-.563-.4-2.311-1.344-6.361-1.344A17.972,17.972,0,0,0,12.722,51.994Zm0-30.316a18,18,0,0,0,7.421,1.371c4.024,0,5.777-.933,6.361-1.352V17.955H12.722Zm0,2.282V49.712a21.271,21.271,0,0,1,7.421-1.2A15.939,15.939,0,0,1,26.5,49.581V24.094a15.977,15.977,0,0,1-6.361,1.063A21.294,21.294,0,0,1,12.722,23.96ZM48.984,7.18l-7.27,1.483,1.066,5.161,7.27-1.483ZM57.72,49.507,50.451,50.99l-7.246-35.1,7.27-1.483ZM55.2,43.251c-.368-1.781-1.8-2.993-3.2-2.709s-2.234,1.962-1.864,3.743,1.8,2.995,3.195,2.709S55.567,45.034,55.2,43.251Zm2.949,8.318-7.271,1.484.853,4.127L59,55.7ZM29.684,12.686h10.6V7.417h-10.6Zm0,44.261h10.6V52.732h-10.6Zm0-11.592h10.6V20.063h-10.6Zm0,5.269h10.6V47.462h-10.6Zm0-32.669h10.6V14.793h-10.6Z" transform="translate(-1 -3.18)"/><path class="c" d="M44.159,45.873l7.277-1.483.852,4.128L45.013,50ZM28.788,49.767l-2.45-4.215h7.224v4.215Zm7.7-41.057,7.275-1.482,7.25,35.1L43.735,43.81Zm8.8,24.653c-1.4.286-2.236,1.962-1.866,3.743s1.8,2.995,3.2,2.709,2.236-1.96,1.867-3.743a3.17,3.17,0,0,0-2.788-2.75A2.052,2.052,0,0,0,45.287,33.362ZM25.113,43.444l-1.837-3.161H33.562v3.161Zm-2.16-5.269V12.883H33.562V38.175ZM10.2,17.781a25.543,25.543,0,0,0,3.207.2,16,16,0,0,0,6.366-1.062V34.251ZM8.818,15.408,6.125,10.775H19.77v3.743c-.585.418-2.338,1.351-6.366,1.351A21.651,21.651,0,0,1,8.818,15.408Zm14.134-4.633V7.614H33.562v3.161ZM34.992,1.482,42.267,0l1.067,5.162L36.058,6.644ZM22.953,5.506V.237H33.562v5.27Zm-19.89,0L0,.237H3.856v5.27Z" transform="translate(5.71 4)"/></g></svg>