<svg xmlns="http://www.w3.org/2000/svg" xmlns:xlink="http://www.w3.org/1999/xlink" width="64" height="64" viewBox="0 0 64 64"><defs><style>.a{fill:none;}.b{fill:#2474cd;}.c{fill:url(#a);}</style><linearGradient id="a" x1="0.307" y1="0.354" x2="1.094" y2="0.603" gradientUnits="objectBoundingBox"><stop offset="0" stop-color="#3d87d2"/><stop offset="1" stop-color="#2073d2"/></linearGradient></defs><g transform="translate(1 -27.618)"><rect class="a" width="64" height="64" transform="translate(-1 27.618)"/><path class="b" d="M19,960.362v56H60v-56Zm5.952,5.333h29.1a1.333,1.333,0,0,1,0,2.667h-29.1a1.333,1.333,0,0,1,0-2.667Zm0,6h29.1a1.333,1.333,0,0,1,0,2.667h-29.1a1.333,1.333,0,0,1,0-2.667Zm0,6h29.1a1.333,1.333,0,0,1,0,2.667h-29.1a1.333,1.333,0,0,1,0-2.667ZM39.5,985.029a7.334,7.334,0,1,1-7.274,7.333A7.3,7.3,0,0,1,39.5,985.029Zm-4.629,14.625a8.479,8.479,0,0,0,9.258,0v9.375l-4.629-4-4.629,4Z" transform="translate(-9 -928.745)"/><path class="c" d="M-15044.37,20418.854l-6.161-10.758v-5.951a8.464,8.464,0,0,1-2.741,1.164l-.7-1.221a7.314,7.314,0,0,0,6.085-7.23,7.305,7.305,0,0,0-7.274-7.338,7.236,7.236,0,0,0-5.62,2.68l-4.206-7.344h24.375a1.327,1.327,0,0,0,1.323-1.334,1.327,1.327,0,0,0-1.323-1.334h-25.9l-1.908-3.33h27.811a1.326,1.326,0,0,0,1.323-1.334,1.331,1.331,0,0,0-1.323-1.338h-29.094a1.324,1.324,0,0,0-.234.021l-5.718-9.982v-1.371h41v56Zm-26.657-49.332a1.325,1.325,0,0,0,1.322,1.332h29.094a1.326,1.326,0,0,0,1.323-1.332,1.326,1.326,0,0,0-1.323-1.334h-29.094A1.326,1.326,0,0,0-15071.027,20369.521Z" transform="translate(15085.658 -20331.238)"/></g></svg>