<?xml version="1.0" encoding="utf-8"?>
<!-- Generator: Adobe Illustrator 24.2.1, SVG Export Plug-In . SVG Version: 6.00 Build 0)  -->
<svg version="1.1" id="split_copy_2" xmlns="http://www.w3.org/2000/svg" xmlns:xlink="http://www.w3.org/1999/xlink" x="0px"
	 y="0px" width="84px" height="84px" viewBox="0 0 84 84" style="enable-background:new 0 0 84 84;" xml:space="preserve">
<style type="text/css">
	.st0{fill:url(#Shape_16_copy_7_1_);}
	.st1{opacity:0.8;fill-rule:evenodd;clip-rule:evenodd;fill:#FFFFFF;enable-background:new    ;}
	.st2{opacity:0.7;fill-rule:evenodd;clip-rule:evenodd;fill:#FFFFFF;enable-background:new    ;}
	.st3{fill-rule:evenodd;clip-rule:evenodd;fill:#FFFFFF;}
	.st4{opacity:0.5;fill-rule:evenodd;clip-rule:evenodd;fill:#FFFFFF;enable-background:new    ;}
</style>
<linearGradient id="Shape_16_copy_7_1_" gradientUnits="userSpaceOnUse" x1="12.7584" y1="112.1983" x2="74.7584" y2="-36.3017" gradientTransform="matrix(1 0 0 -1 0 84.16)">
	<stop  offset="0.1872" style="stop-color:#FFDAC6"/>
	<stop  offset="0.7011" style="stop-color:#FF5776"/>
</linearGradient>
<circle id="Shape_16_copy_7_9_" class="st0" cx="42" cy="42" r="42"/>
<g>
	<path class="st1" d="M31,63.16h21v-9H31V63.16z M47,57.16h3v3h-3V57.16z M40,57.16h3v3h-3V57.16z M33,57.16h3v3h-3V57.16z"/>
	<path class="st2" d="M31,50.4l0.79,0.87l7.63-6.28l6.84,3.15L52,39.67V21.16H31V50.4z M47,24.16h3v3h-3V24.16z M40,24.16h3v3h-3
		V24.16z M33,24.16h3v3h-3V24.16z"/>
	<path class="st3" d="M10,63.16h20v-9h-5.25h-0.51H15v-2.54l8.57-9.28L30,49.31V21.16H10V63.16z M25,57.16h3v3h-3V57.16z M18,57.16
		h3v3h-3V57.16z M25,24.16h3v3h-3V24.16z M25.59,34.77c0,2.04-1.7,3.7-3.8,3.7s-3.8-1.66-3.8-3.7s1.7-3.7,3.8-3.7
		C23.89,31.07,25.59,32.73,25.59,34.77z M18,24.16h3v3h-3V24.16z M11,24.16h3v3h-3V24.16z M11,57.16h3v3h-3V57.16z"/>
	<path class="st4" d="M53,21.16V38.2l3.02-4.47L68,51.46v2.7H53v9h20v-42C73,21.16,53,21.16,53,21.16z M58,27.16h-3v-3h3V27.16z
		 M65,27.16h-3v-3h3V27.16z M58,60.16h-3v-3h3V60.16z M65,60.16h-3v-3h3V60.16z M72,60.16h-3v-3h3V60.16z M72,27.16h-3v-3h3V27.16z"
		/>
</g>
</svg>
