<?xml version="1.0" encoding="utf-8"?>
<!-- Generator: Adobe Illustrator 24.2.1, SVG Export Plug-In . SVG Version: 6.00 Build 0)  -->
<svg version="1.1" id="split_copy_2" xmlns="http://www.w3.org/2000/svg" xmlns:xlink="http://www.w3.org/1999/xlink" x="0px"
	 y="0px" width="84px" height="84px" viewBox="0 0 84 84" style="enable-background:new 0 0 84 84;" xml:space="preserve">
<style type="text/css">
	.st0{fill:url(#Shape_16_copy_7_1_);}
	.st1{opacity:0.32;fill-rule:evenodd;clip-rule:evenodd;fill:#FFFFFF;enable-background:new    ;}
	.st2{opacity:0.5;fill:#FFFFFF;enable-background:new    ;}
	.st3{fill-rule:evenodd;clip-rule:evenodd;fill:#FFFFFF;}
	.st4{fill:#FFFFFF;}
</style>
<linearGradient id="Shape_16_copy_7_1_" gradientUnits="userSpaceOnUse" x1="12.7584" y1="112.1983" x2="74.7584" y2="-36.3017" gradientTransform="matrix(1 0 0 -1 0 84.16)">
	<stop  offset="0.1872" style="stop-color:#9664dd"/>
	<stop  offset="0.7011" style="stop-color:#f0c6ff"/>
</linearGradient>
<circle id="Shape_16_copy_7_7_" class="st0" cx="42" cy="42" r="42"/>
<path id="Shape_155_copy_3_1_" class="st1" d="M25.24,49.09l6.11-2.81l-8.12-8.72l-4.13,4.93"/>
<circle class="st2" cx="18.02" cy="25.75" r="5.52"/>
<path class="st2" d="M0.33,40.62c-0.14,1.16-0.22,2.34-0.27,3.53c0.33,6.11,1.97,11.87,4.64,17.01h16.34
	c0.12-3.93,0.82-6.16,3.34-10.54L6.87,32.31L0.33,40.62z"/>
<path class="st2" d="M83.93,44.18c-0.05-1.35-0.15-2.69-0.32-4.01L71.62,24.59l-14.6,23.93c5.02,2.89,5.59,7.55,5.85,12.64h16.42
	C81.95,56.03,83.6,50.28,83.93,44.18z"/>
<path class="st3" d="M57.87,61.16V59.5c0-5.04-5.46-9.27-12-10.47v-2.86c1.88-1.32,3-3.47,3-5.77v-6.51c0-2.99-1.87-5.74-4.72-6.65
	c-4.84-1.53-9.29,2.04-9.28,6.65v6.79c0,2.2,1.13,4.24,3,5.39v2.96c-6.46,1.2-12,5.43-12,10.47v1.66
	C25.87,61.16,57.87,61.16,57.87,61.16z"/>
<g>
	<path class="st4" d="M22.43,60.85l-1.98-0.26c-0.03,0.19-0.04,0.38-0.06,0.57h2.01C22.41,61.05,22.42,60.95,22.43,60.85z"/>
	<path class="st4" d="M23.62,56.32l-1.85-0.75c-0.38,0.95-0.7,1.95-0.94,2.97L22.78,59C22.99,58.08,23.27,57.18,23.62,56.32z"/>
	<path class="st4" d="M29.33,49.23l-1.07-1.69c-0.89,0.56-1.72,1.22-2.49,1.96l1.39,1.44C27.83,50.29,28.56,49.71,29.33,49.23z"/>
	<path class="st4" d="M25.93,52.3l-1.57-1.24c-0.64,0.8-1.22,1.69-1.72,2.63l1.76,0.94C24.85,53.79,25.37,53.01,25.93,52.3z"/>
	<path class="st4" d="M30.95,48.36c0.42-0.19,0.86-0.36,1.3-0.51l0.43-1.61c-0.26-0.29-0.45-0.61-0.59-0.97l-1.87,0.72
		c0.06,0.14,0.12,0.28,0.18,0.42c-0.1,0.04-0.19,0.08-0.29,0.13L30.95,48.36z"/>
	<path class="st4" d="M38.47,23.79l-0.72-1.87c-1.05,0.4-2.03,0.96-2.93,1.66l1.23,1.58C36.79,24.59,37.61,24.12,38.47,23.79z"/>
	<path class="st4" d="M34.68,26.44l-1.5-1.33c-0.75,0.84-1.37,1.78-1.86,2.79l1.8,0.87C33.54,27.93,34.06,27.15,34.68,26.44z"/>
	<rect x="51.87" y="35.16" class="st4" width="2" height="3"/>
	<path class="st4" d="M32.47,30.38l-1.93-0.53c-0.29,1.07-0.45,2.18-0.46,3.31l2,0.01C32.09,32.22,32.22,31.28,32.47,30.38z"/>
	<path class="st4" d="M31.87,43.48c0-0.66,0.07-1.37,0.14-2.12c-0.28-0.32-0.43-0.5-0.7-0.82l-1.23-0.09
		c-0.02,0.32-0.05,0.63-0.08,0.94c-0.06,0.69-0.13,1.4-0.13,2.09v0.15L31.87,43.48z"/>
	<rect x="29.87" y="35.16" class="st4" width="2" height="3"/>
	<path class="st4" d="M51.82,41.4c0.06,0.61,0.12,1.19,0.13,1.74l2-0.04c-0.01-0.63-0.08-1.28-0.14-1.9
		c-0.04-0.4-0.08-0.81-0.11-1.23l-2,0.14C51.73,40.54,51.77,40.98,51.82,41.4z"/>
	<path class="st4" d="M51.65,32.88l2-0.09c-0.05-1.12-0.25-2.23-0.6-3.29l-1.9,0.62C51.44,31.01,51.6,31.94,51.65,32.88z"/>
	<path class="st4" d="M48.49,23.27c-0.93-0.66-1.94-1.17-3-1.53l-0.63,1.9c0.88,0.29,1.71,0.72,2.48,1.26L48.49,23.27z"/>
	<path class="st4" d="M52.17,27.44c-0.53-0.99-1.2-1.9-1.98-2.71l-1.44,1.39c0.65,0.67,1.21,1.43,1.65,2.27L52.17,27.44z"/>
	<path class="st4" d="M43.04,23.23l0.25-1.98c-1.12-0.14-2.26-0.11-3.37,0.08l0.34,1.97C41.18,23.14,42.12,23.12,43.04,23.23z"/>
	<path class="st4" d="M51.73,44.85c-0.13,0.36-0.31,0.67-0.56,0.96l0.46,1.61c0.45,0.14,0.89,0.31,1.31,0.49l0.79-1.84
		c-0.1-0.04-0.19-0.08-0.29-0.12c0.07-0.14,0.13-0.29,0.18-0.44L51.73,44.85z"/>
	<path class="st4" d="M57.91,48.79c-0.74-0.68-1.54-1.29-2.4-1.8l-1.03,1.71c0.74,0.44,1.43,0.97,2.07,1.56L57.91,48.79z"/>
	<path class="st4" d="M59.22,53.68l1.74-0.98c-0.49-0.88-1.06-1.7-1.69-2.45l-1.54,1.28C58.29,52.18,58.79,52.91,59.22,53.68z"/>
	<path class="st4" d="M60.86,57.76l1.94-0.51c-0.25-0.96-0.57-1.9-0.95-2.79L60,55.25C60.34,56.05,60.63,56.89,60.86,57.76z"/>
	<path class="st4" d="M63.2,59.18l-1.97,0.32c0.09,0.55,0.15,1.11,0.19,1.66h2C63.37,60.5,63.31,59.83,63.2,59.18z"/>
</g>
</svg>
