<?xml version="1.0" encoding="utf-8"?>
<!-- Generator: Adobe Illustrator 24.2.1, SVG Export Plug-In . SVG Version: 6.00 Build 0)  -->
<svg version="1.1" id="split_copy_2" xmlns="http://www.w3.org/2000/svg" xmlns:xlink="http://www.w3.org/1999/xlink" x="0px"
	 y="0px" width="84px" height="84px" viewBox="0 0 84 84" style="enable-background:new 0 0 84 84;" xml:space="preserve">
<style type="text/css">
	.st0{fill:url(#Shape_16_copy_7_1_);}
	.st1{fill-rule:evenodd;clip-rule:evenodd;fill:#FFFFFF;}
	.st2{opacity:0.169;fill:#FFFFFF;enable-background:new    ;}
	.st3{opacity:0.522;fill:#FFFFFF;enable-background:new    ;}
</style>
<linearGradient id="Shape_16_copy_7_1_" gradientUnits="userSpaceOnUse" x1="12.7584" y1="112.1983" x2="74.7584" y2="-36.3017" gradientTransform="matrix(1 0 0 -1 0 84.16)">
	<stop  offset="0.1872" style="stop-color:#9664dd"/>
	<stop  offset="0.7011" style="stop-color:#f0c6ff"/>
</linearGradient>
<circle id="Shape_16_copy_7_5_" class="st0" cx="42" cy="42" r="42"/>
<path class="st1" d="M34.83,39.16H24.12c-0.73-0.24-1.32-0.83-1.32-1.55s0.59-1.32,1.32-1.45h10.71c0.73,0.13,1.32,0.72,1.32,1.45
	S35.56,38.92,34.83,39.16z M31.53,43.07c0,0.73-0.59,1.32-1.32,1.09H19.5c-0.73,0.23-1.32-0.36-1.32-1.09s0.59-1.32,1.32-1.91h10.71
	C30.94,41.75,31.53,42.34,31.53,43.07z M13.91,44.16H12.1c-0.73,0.23-1.32-0.36-1.32-1.09s0.59-1.32,1.32-1.91h1.81
	c0.73,0.59,1.32,1.18,1.32,1.91S14.63,44.38,13.91,44.16z"/>
<path class="st2" d="M20.81,44.29L9.95,54c0,0-3.02,2.23-1.54,4.03c1.48,1.8,4.01,0.69,4.01,0.69l11.31-9.35L20.81,44.29z"/>
<path class="st2" d="M21.53,31.16h6.53l2.44,2.48c0,0-2.03,2.22-5.72,5.82c-3.51,3.42-0.57,5.71-0.57,5.71l3.9,4.15
	c0.49-0.38,0.98-0.75,1.49-1.06c0.06-0.05,0.11-0.1,0.18-0.14c0.14-0.09,0.28-0.19,0.42-0.28c1.05-0.71,2.61-0.88,3.89-0.49
	c0.02,0,0.05,0.01,0.07,0.01c-0.02-0.07-0.02-0.14,0.01-0.21l-2.84-3.57l3.56-3.14l2.43,3.04c0.86-1.11,1.72-2.19,2.76-3.16
	c0.47-0.44,0.97-0.86,1.47-1.28c-1.32-1.65-3.37-4.23-5.54-6.98c-4.19-5.31-6.36-5.9-6.36-5.9H18.87c-1.3,0.26-1.43,1.82-0.86,3.36
	C18.59,31.05,21.53,31.16,21.53,31.16z"/>
<path class="st3" d="M31.81,44.29L20.95,54c0,0-3.02,2.23-1.54,4.03c1.48,1.8,4.01,0.69,4.01,0.69l11.31-9.35L31.81,44.29z"/>
<path class="st1" d="M72.65,44.16c-0.5,1.8-2.23,2-2.23,2h-8.55l-4.95-5.67l-3.57,3.15l4.02,5.04c0,0,3.18,3.82-0.94,6.05
	s-9.55,4.56-9.55,4.56s-1.72,0.58-2.77-1.01c-1.04-1.59-0.73-3.02,1.25-3.93c1.98-0.9,6.57-3.02,6.57-3.02l-5.74-6.1
	c0,0-2.95-2.3,0.57-5.73c3.7-3.61,5.74-5.83,5.74-5.83l-2.45-2.51h-6.73c0,0-2.95-0.09-3.52-1.63c-0.57-1.54-0.44-3.1,0.86-3.37
	h11.1c0,0,2.17,0.6,6.38,5.92c3.7,4.69,7.05,9.08,7.05,9.08h5.48C70.68,41.16,73.31,41.81,72.65,44.16z M65.94,35.3
	c-2.75,0-4.99-2.27-4.99-5.07s2.23-5.07,4.99-5.07s4.99,2.27,4.99,5.07S68.69,35.3,65.94,35.3z M45.74,49.2l-11.31,9.5
	c0,0-2.53,1.13-4.01-0.7c-1.49-1.83,1.54-4.1,1.54-4.1l10.86-9.87L45.74,49.2z"/>
<g>
	<path class="st3" d="M42.67,44.88c-0.12-0.31-0.2-0.68-0.24-1.06l-0.06-0.07l0.04-0.04c0-0.03-0.01-0.06-0.01-0.09
		c-0.08-1.48,0.63-2.96,2.1-4.39c2.1-2.04,3.67-3.65,4.67-4.69c-0.54-0.69-1.11-0.65-1.69-1.38h-5.65c-0.18-0.01-1.16-0.06-1.75,0
		l1.45,0.45c0,0-2.07,2.26-5.83,5.93c-3.58,3.49-0.58,5.82-0.58,5.82l1.68,1.79l4.73-4.31L42.67,44.88z"/>
	<path class="st3" d="M32.38,31.16h5.47c-0.3-0.28-0.55-0.61-0.7-1.02c-0.51-1.37-0.52-2.67-0.03-3.56
		c0.08-0.15,0.18-0.29,0.28-0.41h-7.68c-1.3,0.26-1.43,1.82-0.86,3.36C29.44,31.05,32.38,31.16,32.38,31.16z"/>
	<path class="st3" d="M43.31,46.08l0.35,0.63c0.07,0,0.15-0.01,0.22-0.01C43.75,46.58,43.54,46.38,43.31,46.08z"/>
</g>
</svg>
