<?xml version="1.0" encoding="utf-8"?>
<!-- Generator: Adobe Illustrator 24.2.1, SVG Export Plug-In . SVG Version: 6.00 Build 0)  -->
<svg version="1.1" id="split_copy_2" xmlns="http://www.w3.org/2000/svg" xmlns:xlink="http://www.w3.org/1999/xlink" x="0px"
	 y="0px" width="84px" height="84px" viewBox="0 0 84 84" style="enable-background:new 0 0 84 84;" xml:space="preserve">
<style type="text/css">
	.st0{fill:url(#Shape_16_copy_7_1_);}
	.st1{opacity:0.5;fill:#FFFFFF;enable-background:new    ;}
	.st2{fill-rule:evenodd;clip-rule:evenodd;fill:#FFFFFF;}
	.st3{opacity:0.5;fill-rule:evenodd;clip-rule:evenodd;fill:#FFFFFF;enable-background:new    ;}
	.st4{opacity:0.57;fill-rule:evenodd;clip-rule:evenodd;fill:#FFFFFF;enable-background:new    ;}
</style>
<linearGradient id="Shape_16_copy_7_1_" gradientUnits="userSpaceOnUse" x1="12.7584" y1="112.1983" x2="74.7584" y2="-36.3017" gradientTransform="matrix(1 0 0 -1 0 84.16)">
	<stop  offset="0.1872" style="stop-color:#9664dd"/>
	<stop  offset="0.7011" style="stop-color:#f0c6ff"/>
</linearGradient>
<circle id="Shape_16_copy_7_8_" class="st0" cx="42" cy="42" r="42"/>
<circle id="Shape_161_copy_1_" class="st1" cx="48.83" cy="42.57" r="5.83"/>
<path class="st2" d="M62.85,26.16H41.24h-18.4h-0.7c-1.19,0-2.15,0.96-2.15,2.15v28.71c0,1.19,0.96,2.15,2.15,2.15h40.71
	c1.19,0,2.15-0.96,2.15-2.15V28.3C65,27.12,64.04,26.16,62.85,26.16z M30.62,33.16L30.62,33.16h-3.59c-0.88,0-1.6-0.72-1.6-1.6
	c0.02-0.8,0.68-1.43,1.47-1.41c0.04,0,0.08,0,0.13,0.01h3.59c0.79-0.09,1.5,0.48,1.59,1.27c0,0.04,0.01,0.08,0.01,0.13
	C32.21,32.44,31.5,33.16,30.62,33.16z M48.83,52.18c-5.31,0-9.61-4.3-9.61-9.61s4.3-9.61,9.61-9.61l0,0c5.31,0,9.61,4.3,9.61,9.61
	S54.14,52.18,48.83,52.18z"/>
<path class="st3" d="M9.88,42.59c0-2.66,2.58-2.66,2.58-5.32s-2.58-2.66-2.58-5.32c0-0.09,0.01-0.17,0.02-0.25s0.01-0.15,0.01-0.22
	c0.02-0.11,0.04-0.23,0.07-0.34c0.01-0.02,0.01-0.05,0.01-0.07c0.03-0.11,0.07-0.21,0.11-0.31c0.01-0.02,0.01-0.04,0.02-0.05
	c0.04-0.1,0.09-0.19,0.14-0.28c0.01-0.02,0.02-0.03,0.03-0.05c0.05-0.08,0.1-0.16,0.15-0.24c0.01-0.02,0.03-0.04,0.04-0.06
	c0.05-0.07,0.1-0.14,0.16-0.2c0.02-0.03,0.04-0.05,0.06-0.08c0.04-0.05,0.1-0.11,0.13-0.15c0.03-0.04,0.07-0.08,0.11-0.12l0.04-0.04
	c0.87-0.67,1.41-1.68,1.04-2.77v-0.01v-0.09c0.46-0.13,0.45-0.26,0.43-0.47H12.1h-0.82h-0.35c0.02,0.21,0.02,0.34,0.02,0.47
	c0,0.03-0.01,0.07-0.01,0.1c-0.08,1.09-0.62,2.1-1.49,2.77l-0.04,0.04c-0.04,0.04-0.06,0.07-0.11,0.12
	c-0.04,0.05-0.09,0.1-0.13,0.15c-0.02,0.02-0.04,0.05-0.06,0.08c-0.06,0.07-0.11,0.13-0.16,0.2c-0.01,0.02-0.03,0.04-0.04,0.06
	c-0.05,0.08-0.11,0.15-0.15,0.24c-0.01,0.02-0.02,0.03-0.03,0.05c-0.05,0.09-0.1,0.18-0.14,0.27c-0.01,0.02-0.01,0.04-0.02,0.05
	c-0.04,0.1-0.08,0.21-0.11,0.31c-0.01,0.02-0.01,0.05-0.01,0.07c-0.03,0.11-0.05,0.22-0.07,0.34c-0.01,0.07-0.01,0.14-0.01,0.22
	s-0.02,0.16-0.02,0.24c0,2.66,2.59,2.66,2.59,5.32s-2.59,2.66-2.59,5.32s2.59,2.66,2.59,5.32s-2.59,2.66-2.59,5.32
	c0,0.09,0.01,0.17,0.02,0.24c0,0.07,0,0.15,0.01,0.22c0.02,0.11,0.04,0.23,0.07,0.34c0.01,0.02,0.01,0.05,0.01,0.07
	c0.03,0.11,0.07,0.21,0.11,0.31c0.01,0.02,0.01,0.04,0.02,0.05c0.04,0.09,0.09,0.19,0.14,0.28c0.01,0.02,0.02,0.03,0.03,0.05
	c0.05,0.08,0.1,0.16,0.15,0.24c0.01,0.02,0.03,0.04,0.04,0.06c0.05,0.07,0.1,0.14,0.16,0.2c0.02,0.03,0.04,0.05,0.06,0.08
	c0.04,0.05,0.1,0.11,0.13,0.15c0.04,0.04,0.07,0.08,0.11,0.12l0.04,0.05c0.87,0.67,1.41,1.68,1.49,2.77
	c0.01,0.03,0.01,0.06,0.01,0.1c0,0.13-0.01,0.26-0.02,0.61h0.35h0.82h0.35c0.02-0.35,0.02-0.48,0.57-0.61v-0.09v-0.01
	c-0.63-1.09-1.17-2.1-2.04-2.77l-0.04-0.04c-0.04-0.04-0.06-0.07-0.11-0.12s-0.09-0.1-0.13-0.15c-0.02-0.03-0.04-0.05-0.06-0.08
	c-0.05-0.07-0.11-0.13-0.16-0.2c-0.01-0.02-0.03-0.04-0.04-0.06c-0.05-0.08-0.11-0.15-0.15-0.24c-0.01-0.02-0.02-0.03-0.03-0.05
	c-0.05-0.09-0.09-0.17-0.14-0.27c-0.01-0.02-0.01-0.04-0.02-0.05c-0.04-0.1-0.08-0.21-0.11-0.31c-0.01-0.02-0.01-0.05-0.01-0.07
	c-0.03-0.11-0.05-0.22-0.07-0.34C9.9,53.62,9.9,53.55,9.9,53.47c-0.01-0.08-0.02-0.16-0.02-0.25c0-2.66,2.59-2.66,2.59-5.32
	C12.46,45.25,9.88,45.25,9.88,42.59z"/>
<path class="st2" d="M14.13,42.59c0-2.66,2.58-2.66,2.58-5.32s-2.58-2.66-2.58-5.32c0-0.09,0.01-0.17,0.02-0.25s0.01-0.15,0.01-0.22
	c0.02-0.11,0.04-0.23,0.07-0.34c0.01-0.02,0.01-0.05,0.01-0.07c0.03-0.11,0.07-0.21,0.11-0.31c0.01-0.02,0.01-0.04,0.02-0.05
	c0.04-0.1,0.09-0.19,0.14-0.28c0.01-0.02,0.02-0.03,0.03-0.05c0.05-0.08,0.1-0.16,0.15-0.24c0.01-0.02,0.03-0.04,0.04-0.06
	c0.05-0.07,0.1-0.14,0.16-0.2c0.02-0.03,0.04-0.05,0.06-0.08c0.04-0.05,0.1-0.11,0.13-0.15c0.03-0.04,0.07-0.08,0.11-0.12l0.04-0.04
	c0.87-0.67,1.41-1.68,0.79-2.77v-0.01v-0.09c0.71-0.13,0.7-0.26,0.68-0.47h-0.35h-0.82h-0.35c0.02,0.21,0.02,0.34,0.02,0.47
	c0,0.03-0.01,0.07-0.01,0.1c-0.08,1.09-0.62,2.1-1.49,2.77l-0.04,0.04c-0.04,0.04-0.06,0.07-0.11,0.12
	c-0.04,0.05-0.09,0.1-0.13,0.15c-0.02,0.02-0.04,0.05-0.06,0.08c-0.06,0.07-0.11,0.13-0.16,0.2c-0.01,0.02-0.03,0.04-0.04,0.06
	c-0.05,0.08-0.11,0.15-0.15,0.24c-0.01,0.02-0.02,0.03-0.03,0.05c-0.05,0.09-0.1,0.18-0.14,0.27c-0.01,0.02-0.01,0.04-0.02,0.05
	c-0.04,0.1-0.08,0.21-0.11,0.31c-0.01,0.02-0.01,0.05-0.01,0.07c-0.03,0.11-0.05,0.22-0.07,0.34c-0.01,0.07-0.01,0.14-0.01,0.22
	s-0.02,0.16-0.02,0.24c0,2.66,2.59,2.66,2.59,5.32s-2.59,2.66-2.59,5.32s2.59,2.66,2.59,5.32s-2.59,2.66-2.59,5.32
	c0,0.09,0.01,0.17,0.02,0.24c0,0.07,0,0.15,0.01,0.22c0.02,0.11,0.04,0.23,0.07,0.34c0.01,0.02,0.01,0.05,0.01,0.07
	c0.03,0.11,0.07,0.21,0.11,0.31c0.01,0.02,0.01,0.04,0.02,0.05c0.04,0.09,0.09,0.19,0.14,0.28c0.01,0.02,0.02,0.03,0.03,0.05
	c0.05,0.08,0.1,0.16,0.15,0.24c0.01,0.02,0.03,0.04,0.04,0.06c0.05,0.07,0.1,0.14,0.16,0.2c0.02,0.03,0.04,0.05,0.06,0.08
	c0.04,0.05,0.1,0.11,0.13,0.15c0.04,0.04,0.07,0.08,0.11,0.12l0.04,0.05c0.87,0.67,1.41,1.68,1.49,2.77
	c0.01,0.03,0.01,0.06,0.01,0.1c0,0.13-0.01,0.26-0.02,0.61h0.35h0.82h0.35c0.02-0.35,0.02-0.48,0.32-0.61v-0.09v-0.01
	c-0.38-1.09-0.92-2.1-1.79-2.77l-0.04-0.04c-0.04-0.04-0.06-0.07-0.11-0.12s-0.09-0.1-0.13-0.15c-0.02-0.03-0.04-0.05-0.06-0.08
	c-0.05-0.07-0.11-0.13-0.16-0.2c-0.01-0.02-0.03-0.04-0.04-0.06c-0.05-0.08-0.11-0.15-0.15-0.24c-0.01-0.02-0.02-0.03-0.03-0.05
	c-0.05-0.09-0.09-0.17-0.14-0.27c-0.01-0.02-0.01-0.04-0.02-0.05c-0.04-0.1-0.08-0.21-0.11-0.31c-0.01-0.02-0.01-0.05-0.01-0.07
	c-0.03-0.11-0.05-0.22-0.07-0.34c-0.01-0.07-0.01-0.14-0.01-0.22c-0.01-0.08-0.02-0.16-0.02-0.25c0-2.66,2.59-2.66,2.59-5.32
	C16.71,45.25,14.13,45.25,14.13,42.59z"/>
<path class="st3" d="M75.2,42.59c0-2.66-2.58-2.66-2.58-5.32s2.58-2.66,2.58-5.32c0-0.09-0.01-0.17-0.02-0.25s-0.01-0.15-0.01-0.22
	c-0.02-0.11-0.04-0.23-0.07-0.34c-0.01-0.02-0.01-0.05-0.01-0.07c-0.03-0.11-0.07-0.21-0.11-0.31c-0.01-0.02-0.01-0.04-0.02-0.05
	c-0.04-0.1-0.09-0.19-0.14-0.28c-0.01-0.02-0.02-0.03-0.03-0.05c-0.05-0.08-0.1-0.16-0.15-0.24c-0.01-0.02-0.03-0.04-0.04-0.06
	c-0.05-0.07-0.1-0.14-0.16-0.2c-0.02-0.03-0.04-0.05-0.06-0.08c-0.04-0.05-0.1-0.11-0.13-0.15c-0.03-0.04-0.07-0.08-0.11-0.12
	l-0.04-0.04c-0.87-0.67-1.41-1.68-2.11-2.77v-0.01v-0.09c0.62-0.13,0.63-0.26,0.64-0.47h0.35h0.82h0.35
	c-0.02,0.21-0.02,0.34-0.02,0.47c0,0.03,0.01,0.07,0.01,0.1c0.08,1.09,0.62,2.1,1.49,2.77l0.04,0.04c0.04,0.04,0.06,0.07,0.11,0.12
	c0.04,0.05,0.09,0.1,0.13,0.15c0.02,0.02,0.04,0.05,0.06,0.08c0.06,0.07,0.11,0.13,0.16,0.2c0.01,0.02,0.03,0.04,0.04,0.06
	c0.05,0.08,0.11,0.15,0.15,0.24c0.01,0.02,0.02,0.03,0.03,0.05c0.05,0.09,0.1,0.18,0.14,0.27c0.01,0.02,0.01,0.04,0.02,0.05
	c0.04,0.1,0.08,0.21,0.11,0.31c0.01,0.02,0.01,0.05,0.01,0.07c0.03,0.11,0.05,0.22,0.07,0.34c0.01,0.07,0.01,0.14,0.01,0.22
	s0.02,0.16,0.02,0.24c0,2.66-2.59,2.66-2.59,5.32s2.59,2.66,2.59,5.32s-2.59,2.66-2.59,5.32s2.59,2.66,2.59,5.32
	c0,0.09-0.01,0.17-0.02,0.24c0,0.07,0,0.15-0.01,0.22c-0.02,0.11-0.04,0.23-0.07,0.34c-0.01,0.02-0.01,0.05-0.01,0.07
	c-0.03,0.11-0.07,0.21-0.11,0.31c-0.01,0.02-0.01,0.04-0.02,0.05c-0.04,0.09-0.09,0.19-0.14,0.28c-0.01,0.02-0.02,0.03-0.03,0.05
	c-0.05,0.08-0.1,0.16-0.15,0.24c-0.01,0.02-0.03,0.04-0.04,0.06c-0.05,0.07-0.1,0.14-0.16,0.2c-0.02,0.03-0.04,0.05-0.06,0.08
	c-0.04,0.05-0.1,0.11-0.13,0.15c-0.04,0.04-0.07,0.08-0.11,0.12l-0.04,0.05c-0.87,0.67-1.41,1.68-1.49,2.77
	c-0.01,0.03-0.01,0.06-0.01,0.1c0,0.13,0.01,0.26,0.02,0.61H73.8h-0.82h-0.35c-0.02-0.35-0.02-0.48,0.36-0.61v-0.09v-0.01
	c-0.3-1.09,0.24-2.1,1.11-2.77l0.04-0.04c0.04-0.04,0.06-0.07,0.11-0.12s0.09-0.1,0.13-0.15c0.02-0.03,0.04-0.05,0.06-0.08
	c0.05-0.07,0.11-0.13,0.16-0.2c0.01-0.02,0.03-0.04,0.04-0.06c0.05-0.08,0.11-0.15,0.15-0.24c0.01-0.02,0.02-0.03,0.03-0.05
	c0.05-0.09,0.09-0.17,0.14-0.27c0.01-0.02,0.01-0.04,0.02-0.05c0.04-0.1,0.08-0.21,0.11-0.31c0.01-0.02,0.01-0.05,0.01-0.07
	c0.03-0.11,0.05-0.22,0.07-0.34c0.01-0.07,0.01-0.14,0.01-0.22c0.01-0.08,0.02-0.16,0.02-0.25c0-2.66-2.59-2.66-2.59-5.32
	C72.61,45.25,75.2,45.25,75.2,42.59z"/>
<path class="st2" d="M70.95,42.59c0-2.66-2.58-2.66-2.58-5.32s2.58-2.66,2.58-5.32c0-0.09-0.01-0.17-0.02-0.25s-0.01-0.15-0.01-0.22
	c-0.02-0.11-0.04-0.23-0.07-0.34c-0.01-0.02-0.01-0.05-0.01-0.07c-0.03-0.11-0.07-0.21-0.11-0.31c-0.01-0.02-0.01-0.04-0.02-0.05
	c-0.04-0.1-0.09-0.19-0.14-0.28c-0.01-0.02-0.02-0.03-0.03-0.05c-0.05-0.08-0.1-0.16-0.15-0.24c-0.01-0.02-0.03-0.04-0.04-0.06
	c-0.05-0.07-0.1-0.14-0.16-0.2c-0.02-0.03-0.04-0.05-0.06-0.08c-0.04-0.05-0.1-0.11-0.13-0.15c-0.03-0.04-0.07-0.08-0.11-0.12
	l-0.04-0.04c-0.87-0.67-1.41-1.68-1.86-2.77v-0.01v-0.09c0.37-0.13,0.38-0.26,0.39-0.47h0.35h0.82h0.35
	c-0.02,0.21-0.02,0.34-0.02,0.47c0,0.03,0.01,0.07,0.01,0.1c0.08,1.09,0.62,2.1,1.49,2.77l0.04,0.04c0.04,0.04,0.06,0.07,0.11,0.12
	c0.04,0.05,0.09,0.1,0.13,0.15c0.02,0.02,0.04,0.05,0.06,0.08c0.06,0.07,0.11,0.13,0.16,0.2c0.01,0.02,0.03,0.04,0.04,0.06
	c0.05,0.08,0.11,0.15,0.15,0.24c0.01,0.02,0.02,0.03,0.03,0.05c0.05,0.09,0.1,0.18,0.14,0.27c0.01,0.02,0.01,0.04,0.02,0.05
	c0.04,0.1,0.08,0.21,0.11,0.31c0.01,0.02,0.01,0.05,0.01,0.07c0.03,0.11,0.05,0.22,0.07,0.34c0.01,0.07,0.01,0.14,0.01,0.22
	s0.02,0.16,0.02,0.24c0,2.66-2.59,2.66-2.59,5.32s2.59,2.66,2.59,5.32s-2.59,2.66-2.59,5.32s2.59,2.66,2.59,5.32
	c0,0.09-0.01,0.17-0.02,0.24c0,0.07,0,0.15-0.01,0.22c-0.02,0.11-0.04,0.23-0.07,0.34c-0.01,0.02-0.01,0.05-0.01,0.07
	c-0.03,0.11-0.07,0.21-0.11,0.31c-0.01,0.02-0.01,0.04-0.02,0.05c-0.04,0.09-0.09,0.19-0.14,0.28c-0.01,0.02-0.02,0.03-0.03,0.05
	c-0.05,0.08-0.1,0.16-0.15,0.24c-0.01,0.02-0.03,0.04-0.04,0.06c-0.05,0.07-0.1,0.14-0.16,0.2c-0.02,0.03-0.04,0.05-0.06,0.08
	c-0.04,0.05-0.1,0.11-0.13,0.15c-0.04,0.04-0.07,0.08-0.11,0.12l-0.04,0.05c-0.87,0.67-1.41,1.68-1.49,2.77
	c-0.01,0.03-0.01,0.06-0.01,0.1c0,0.13,0.01,0.26,0.02,0.61h-0.35h-0.82h-0.35c-0.02-0.35-0.02-0.48,0.61-0.61v-0.09v-0.01
	c-0.55-1.09-0.01-2.1,0.86-2.77l0.04-0.04c0.04-0.04,0.06-0.07,0.11-0.12s0.09-0.1,0.13-0.15c0.02-0.03,0.04-0.05,0.06-0.08
	c0.05-0.07,0.11-0.13,0.16-0.2c0.01-0.02,0.03-0.04,0.04-0.06c0.05-0.08,0.11-0.15,0.15-0.24c0.01-0.02,0.02-0.03,0.03-0.05
	c0.05-0.09,0.09-0.17,0.14-0.27c0.01-0.02,0.01-0.04,0.02-0.05c0.04-0.1,0.08-0.21,0.11-0.31c0.01-0.02,0.01-0.05,0.01-0.07
	c0.03-0.11,0.05-0.22,0.07-0.34c0.01-0.07,0.01-0.14,0.01-0.22c0.01-0.08,0.02-0.16,0.02-0.25c0-2.66-2.59-2.66-2.59-5.32
	C68.36,45.25,70.95,45.25,70.95,42.59z"/>
<path class="st4" d="M41.24,26.16l-1.26-3.44c-0.19-0.36-0.56-0.57-0.96-0.56H24.28c-0.38-0.03-0.73,0.2-0.85,0.56l-0.59,3.44"/>
</svg>
