<svg xmlns="http://www.w3.org/2000/svg" width="84" height="84" xmlns:v="https://vecta.io/nano"><style><![CDATA[.F{enable-background:new}]]></style><linearGradient id="A" gradientUnits="userSpaceOnUse" x1="12.758" y1="112.198" x2="74.758" y2="-36.302" gradientTransform="matrix(1 0 0 -1 0 84.16)"><stop offset=".187" stop-color="#9664dd"/><stop offset=".701" stop-color="#f0c6ff"/></linearGradient><circle cx="42" cy="42" r="42" fill="url(#A)"/><g fill="#fff"><circle cx="48.83" cy="42.57" r="5.83" opacity=".5" class="F"/><g fill-rule="evenodd"><path d="M62.85 26.16h-40.7c-1.2 0-2.15.96-2.15 2.15v28.7c0 1.2.96 2.15 2.15 2.15h40.7c1.2 0 2.15-.96 2.15-2.15V28.3c0-1.18-.96-2.14-2.15-2.14zm-32.23 7h0-3.6c-.88 0-1.6-.72-1.6-1.6a1.44 1.44 0 0 1 1.47-1.41c.04 0 .08 0 .13.01h3.6a1.44 1.44 0 0 1 1.59 1.27c0 .04.01.08.01.13-.01.88-.72 1.6-1.6 1.6zm18.2 19.02a9.61 9.61 0 1 1 0-19.22h0a9.61 9.61 0 1 1 0 19.22z"/><path d="M9.88 42.6c0-2.66 2.58-2.66 2.58-5.32s-2.58-2.66-2.58-5.32c0-.1.01-.17.02-.25s.01-.15.01-.22l.07-.34c.01-.02.01-.05.01-.07.03-.1.07-.2.1-.3.01-.02.01-.04.02-.05.04-.1.1-.2.14-.28.01-.02.02-.03.03-.05l.15-.24c.01-.02.03-.04.04-.06a1.56 1.56 0 0 1 .16-.2c.02-.03.04-.05.06-.08l.13-.15c.03-.04.07-.08.1-.12l.04-.04c.87-.67 1.4-1.68 1.04-2.77v-.1c.46-.13.45-.26.43-.47h-1.52a4.38 4.38 0 0 1 .02.47c0 .03-.01.07-.01.1-.08 1.1-.62 2.1-1.5 2.77l-.04.04-.1.12-.13.15c-.02.02-.04.05-.06.08l-.16.2c-.01.02-.03.04-.04.06-.05.08-.1.15-.15.24-.01.02-.02.03-.03.05l-.14.27c-.01.02-.01.04-.02.05l-.1.3c-.01.02-.01.05-.01.07a3.4 3.4 0 0 0-.07.34c-.01.07-.01.14-.01.22s-.02.16-.02.24c0 2.66 2.6 2.66 2.6 5.32s-2.6 2.66-2.6 5.32 2.6 2.66 2.6 5.32-2.6 2.66-2.6 5.32a1.66 1.66 0 0 0 .02.24l.01.22.07.34a.17.17 0 0 1 .01.07c.03.1.07.2.1.3.01.02.01.04.02.05l.14.28c.01.02.02.03.03.05l.15.24c.01.02.03.04.04.06.05.07.1.14.16.2.02.03.04.05.06.08l.13.15.1.12.04.05c.87.67 1.4 1.68 1.5 2.77.01.03.01.06.01.1l-.02.6h1.52c.02-.35.02-.48.57-.6v-.1c-.63-1.1-1.17-2.1-2.04-2.77l-.04-.04-.1-.12c-.05-.05-.1-.1-.13-.15-.02-.03-.04-.05-.06-.08-.05-.07-.1-.13-.16-.2-.01-.02-.03-.04-.04-.06-.05-.08-.1-.15-.15-.24-.01-.02-.02-.03-.03-.05l-.14-.27c-.01-.02-.01-.04-.02-.05l-.1-.3c-.01-.02-.01-.05-.01-.07a3.4 3.4 0 0 1-.07-.34c-.01-.07-.01-.14-.01-.22l-.02-.25c0-2.66 2.6-2.66 2.6-5.32-.01-2.65-2.6-2.65-2.6-5.3z" opacity=".5" class="F"/><path d="M14.13 42.6c0-2.66 2.58-2.66 2.58-5.32s-2.58-2.66-2.58-5.32c0-.1.01-.17.02-.25s.01-.15.01-.22l.07-.34c.01-.02.01-.05.01-.07.03-.1.07-.2.1-.3.01-.02.01-.04.02-.05.04-.1.1-.2.14-.28.01-.02.02-.03.03-.05l.15-.24c.01-.02.03-.04.04-.06a1.56 1.56 0 0 1 .16-.2c.02-.03.04-.05.06-.08l.13-.15c.03-.04.07-.08.1-.12l.04-.04c.87-.67 1.4-1.68.8-2.77v-.1c.7-.13.7-.26.68-.47h-1.52a4.38 4.38 0 0 1 .02.47c0 .03-.01.07-.01.1-.08 1.1-.62 2.1-1.5 2.77l-.04.04-.1.12-.13.15c-.02.02-.04.05-.06.08l-.16.2c-.01.02-.03.04-.04.06-.05.08-.1.15-.15.24-.01.02-.02.03-.03.05l-.14.27c-.01.02-.01.04-.02.05l-.1.3c-.01.02-.01.05-.01.07a3.4 3.4 0 0 0-.07.34c-.01.07-.01.14-.01.22s-.02.16-.02.24c0 2.66 2.6 2.66 2.6 5.32s-2.6 2.66-2.6 5.32 2.6 2.66 2.6 5.32-2.6 2.66-2.6 5.32a1.66 1.66 0 0 0 .02.24l.01.22.07.34a.17.17 0 0 1 .01.07c.03.1.07.2.1.3.01.02.01.04.02.05l.14.28c.01.02.02.03.03.05l.15.24c.01.02.03.04.04.06.05.07.1.14.16.2.02.03.04.05.06.08l.13.15.1.12.04.05c.87.67 1.4 1.68 1.5 2.77.01.03.01.06.01.1l-.02.6h1.52c.02-.35.02-.48.32-.6v-.1c-.38-1.1-.92-2.1-1.8-2.77l-.04-.04-.1-.12c-.05-.05-.1-.1-.13-.15-.02-.03-.04-.05-.06-.08-.05-.07-.1-.13-.16-.2-.01-.02-.03-.04-.04-.06-.05-.08-.1-.15-.15-.24-.01-.02-.02-.03-.03-.05l-.14-.27c-.01-.02-.01-.04-.02-.05l-.1-.3c-.01-.02-.01-.05-.01-.07a3.4 3.4 0 0 1-.07-.34c-.01-.07-.01-.14-.01-.22l-.02-.25c0-2.66 2.6-2.66 2.6-5.32-.01-2.65-2.6-2.65-2.6-5.3z"/><path d="M75.2 42.6c0-2.66-2.58-2.66-2.58-5.32s2.58-2.66 2.58-5.32c0-.1-.01-.17-.02-.25s-.01-.15-.01-.22l-.07-.34c-.01-.02-.01-.05-.01-.07-.03-.1-.07-.2-.1-.3-.01-.02-.01-.04-.02-.05-.04-.1-.1-.2-.14-.28-.01-.02-.02-.03-.03-.05l-.15-.24c-.01-.02-.03-.04-.04-.06a1.56 1.56 0 0 0-.16-.2c-.02-.03-.04-.05-.06-.08l-.13-.15a1.2 1.2 0 0 0-.11-.12l-.04-.04c-.87-.67-1.4-1.68-2.1-2.77v-.1c.62-.13.63-.26.64-.47h1.52c-.02.2-.02.34-.02.47 0 .03.01.07.01.1.08 1.1.62 2.1 1.5 2.77l.04.04.1.12.13.15c.02.02.04.05.06.08l.16.2c.01.02.03.04.04.06.05.08.1.15.15.24.01.02.02.03.03.05l.14.27c.01.02.01.04.02.05l.1.3a.17.17 0 0 1 .01.07 3.4 3.4 0 0 1 .07.34 1.55 1.55 0 0 1 .01.22c0 .08.02.16.02.24 0 2.66-2.6 2.66-2.6 5.32s2.6 2.66 2.6 5.32-2.6 2.66-2.6 5.32 2.6 2.66 2.6 5.32a1.66 1.66 0 0 1-.02.24l-.01.22-.07.34c-.01.02-.01.05-.01.07-.03.1-.07.2-.1.3-.01.02-.01.04-.02.05l-.14.28c-.01.02-.02.03-.03.05l-.15.24c-.01.02-.03.04-.04.06-.05.07-.1.14-.16.2-.02.03-.04.05-.06.08l-.13.15-.1.12-.04.05c-.87.67-1.4 1.68-1.5 2.77-.01.03-.01.06-.01.1l.02.6h-1.52c-.02-.35-.02-.48.36-.6v-.1c-.3-1.1.24-2.1 1.1-2.77l.04-.04.1-.12a1.74 1.74 0 0 0 .13-.15c.02-.03.04-.05.06-.08.05-.07.1-.13.16-.2.01-.02.03-.04.04-.06.05-.08.1-.15.15-.24.01-.02.02-.03.03-.05l.14-.27c.01-.02.01-.04.02-.05l.1-.3c.01-.02.01-.05.01-.07a3.4 3.4 0 0 0 .07-.34c.01-.07.01-.14.01-.22l.02-.25c0-2.66-2.6-2.66-2.6-5.32 0-2.65 2.6-2.65 2.6-5.3z" opacity=".5" class="F"/><path d="M70.95 42.6c0-2.66-2.58-2.66-2.58-5.32s2.58-2.66 2.58-5.32c0-.1-.01-.17-.02-.25s-.01-.15-.01-.22l-.07-.34c-.01-.02-.01-.05-.01-.07-.03-.1-.07-.2-.1-.3-.01-.02-.01-.04-.02-.05-.04-.1-.1-.2-.14-.28-.01-.02-.02-.03-.03-.05l-.15-.24c-.01-.02-.03-.04-.04-.06a1.56 1.56 0 0 0-.16-.2c-.02-.03-.04-.05-.06-.08l-.13-.15a1.2 1.2 0 0 0-.11-.12l-.04-.04c-.87-.67-1.4-1.68-1.86-2.77v-.1c.37-.13.38-.26.4-.47h1.52c-.02.2-.02.34-.02.47 0 .03.01.07.01.1.08 1.1.62 2.1 1.5 2.77l.04.04.1.12.13.15c.02.02.04.05.06.08l.16.2c.01.02.03.04.04.06.05.08.1.15.15.24.01.02.02.03.03.05l.14.27c.01.02.01.04.02.05l.1.3a.17.17 0 0 1 .01.07 3.4 3.4 0 0 1 .07.34 1.55 1.55 0 0 1 .01.22c0 .08.02.16.02.24 0 2.66-2.6 2.66-2.6 5.32s2.6 2.66 2.6 5.32-2.6 2.66-2.6 5.32 2.6 2.66 2.6 5.32a1.66 1.66 0 0 1-.02.24l-.01.22-.07.34c-.01.02-.01.05-.01.07-.03.1-.07.2-.1.3-.01.02-.01.04-.02.05l-.14.28c-.01.02-.02.03-.03.05l-.15.24c-.01.02-.03.04-.04.06-.05.07-.1.14-.16.2-.02.03-.04.05-.06.08l-.13.15-.1.12-.04.05c-.87.67-1.4 1.68-1.5 2.77-.01.03-.01.06-.01.1l.02.6h-1.52c-.02-.35-.02-.48.6-.6v-.1c-.55-1.1-.01-2.1.86-2.77l.04-.04.1-.12a1.74 1.74 0 0 0 .13-.15c.02-.03.04-.05.06-.08.05-.07.1-.13.16-.2.01-.02.03-.04.04-.06.05-.08.1-.15.15-.24.01-.02.02-.03.03-.05l.14-.27c.01-.02.01-.04.02-.05l.1-.3c.01-.02.01-.05.01-.07a3.4 3.4 0 0 0 .07-.34c.01-.07.01-.14.01-.22l.02-.25c0-2.66-2.6-2.66-2.6-5.32 0-2.65 2.6-2.65 2.6-5.3z"/><path d="M41.24 26.16l-1.26-3.44c-.2-.36-.56-.57-.96-.56H24.28c-.38-.03-.73.2-.85.56l-.6 3.44" opacity=".57" class="F"/></g></g></svg>