<?xml version="1.0" encoding="utf-8"?>
<!-- Generator: Adobe Illustrator 24.2.1, SVG Export Plug-In . SVG Version: 6.00 Build 0)  -->
<svg version="1.1" id="split_copy_2" xmlns="http://www.w3.org/2000/svg" xmlns:xlink="http://www.w3.org/1999/xlink" x="0px"
	 y="0px" width="84px" height="84px" viewBox="0 0 84 84" style="enable-background:new 0 0 84 84;" xml:space="preserve">
<style type="text/css">
	.st0{fill:url(#Shape_16_copy_7_1_);}
	.st1{fill:#FFFFFF;}
	.st2{fill:none;stroke:#FFFFFF;stroke-linejoin:round;}
	.st3{opacity:0.34;fill-rule:evenodd;clip-rule:evenodd;fill:#FFFFFF;fill-opacity:0.96;enable-background:new    ;}
</style>
<linearGradient id="Shape_16_copy_7_1_" gradientUnits="userSpaceOnUse" x1="12.7584" y1="112.1983" x2="74.7584" y2="-36.3017" gradientTransform="matrix(1 0 0 -1 0 84.16)">
	<stop  offset="0.1872" style="stop-color:#FFDAC6"/>
	<stop  offset="0.7011" style="stop-color:#FF5776"/>
</linearGradient>
<circle id="Shape_16_copy_7_6_" class="st0" cx="42" cy="42" r="42"/>
<g>
	<path class="st1" d="M69,66.16h-6v-6h6V66.16z M64,65.16h4v-4h-4V65.16z"/>
</g>
<g>
	<path class="st1" d="M22,66.16h-6v-6h6V66.16z M17,65.16h4v-4h-4V65.16z"/>
</g>
<g>
	<path class="st1" d="M69,25.16h-6v-6h6V25.16z M64,24.16h4v-4h-4V24.16z"/>
</g>
<g>
	<path class="st1" d="M22,25.16h-6v-6h6V25.16z M17,24.16h4v-4h-4V24.16z"/>
</g>
<g>
	<line class="st2" x1="21" y1="21.66" x2="63" y2="21.66"/>
	<line class="st2" x1="22" y1="63.66" x2="63" y2="63.66"/>
	<line class="st2" x1="18.5" y1="25.16" x2="18.5" y2="60.16"/>
	<line class="st2" x1="66.5" y1="25.16" x2="66.5" y2="60.16"/>
</g>
<path class="st3" d="M22,25.32v34.84h41V25.32H22z M46,50.22l3.68,0.31v5.65H33.77v-5.64l3.22-0.32V34.27h-1.35l-0.69,3.76H29
	l0.22-9.72h25.02l0.18,9.72H48.5l-0.69-3.76H46V50.22z"/>
<polygon class="st1" points="43.88,32.18 49.26,32.18 49.93,35.95 52,35.95 51.89,30.16 31.14,30.16 31,35.95 33.09,35.95 
	33.77,32.18 39.03,32.17 39.03,51.86 36.06,52.19 36.06,54.16 38.78,54.16 44.22,54.16 46.85,54.16 46.85,52.19 43.88,51.88 "/>
</svg>
