<svg xmlns="http://www.w3.org/2000/svg" width="29" height="29" viewBox="0 0 29 29">
  <g id="music_icon_grey" transform="translate(7906 19686)">
    <rect id="Rectangle_2509" data-name="Rectangle 2509" width="29" height="29" transform="translate(-7906 -19686)" fill="none"/>
    <path id="musical-note" d="M82.292,16.535A10.042,10.042,0,0,0,83.9,11.781a6.086,6.086,0,0,0-.777-3.3,9.931,9.931,0,0,0-4-3.544,11.085,11.085,0,0,1-2.954-2.246l-.135-.164A4.321,4.321,0,0,1,75.007.862,1.1,1.1,0,0,0,73.829,0,1.048,1.048,0,0,0,72.8,1V18.819A6.97,6.97,0,0,0,69.465,18c-3.061,0-5.553,1.794-5.553,4s2.492,4,5.553,4,5.553-1.794,5.553-4V10.342a7.522,7.522,0,0,1,5.149,5.45,5.684,5.684,0,0,1-.429.546.929.929,0,0,0,.1,1.41,1.193,1.193,0,0,0,1.566-.09,7.5,7.5,0,0,0,.815-1.032A.635.635,0,0,0,82.292,16.535Z" transform="translate(-7965.912 -19684)" fill="#828282"/>
  </g>
</svg>
