<svg xmlns="http://www.w3.org/2000/svg" width="29" height="29" viewBox="0 0 29 29">
  <g id="video_icon_for_slider" transform="translate(0 1.001)">
    <rect id="Rectangle_2508" data-name="Rectangle 2508" width="29" height="29" transform="translate(0 -1.001)" fill="none"/>
    <g id="Group_3883" data-name="Group 3883">
      <path id="Path_14746" data-name="Path 14746" d="M29,27.1V40.364a.814.814,0,0,1-.589.737c-.091,0-.272.082-.408.082a1.422,1.422,0,0,1-.77-.246l-6.525-4.912v2.006a2.938,2.938,0,0,1-1.359,2.456A5.328,5.328,0,0,1,16.04,41.51H4.667a5.6,5.6,0,0,1-3.308-1.023A2.992,2.992,0,0,1,0,38.031V29.476a2.938,2.938,0,0,1,1.359-2.456A5.328,5.328,0,0,1,4.667,26H16.04a5.6,5.6,0,0,1,3.308,1.023A3.017,3.017,0,0,1,20.7,29.3a1.346,1.346,0,0,1,0,.135v2.046l6.525-4.871a.976.976,0,0,1,.68-.246.662.662,0,0,1,.408.082.682.682,0,0,1,.476.2A.647.647,0,0,1,29,27.1Z" transform="translate(0 -14.512)" fill="#fff"/>
      <ellipse id="Ellipse_258" data-name="Ellipse 258" cx="5.212" cy="5.116" rx="5.212" ry="5.116" transform="translate(10.078)" fill="#fff"/>
      <path id="Path_14747" data-name="Path 14747" d="M7.446,11.638a3.336,3.336,0,0,1-.221,1.187,2.7,2.7,0,0,1-.135.323c-.026.057-.056.115-.087.168s-.074.123-.113.184-.078.119-.122.176a3.005,3.005,0,0,1-.929.827l-.065.037a3.783,3.783,0,0,1-1.8.536,3.629,3.629,0,0,1-2.5-1.031A3.217,3.217,0,0,1,.5,11.638a3.418,3.418,0,0,1,2.4-3.262l.035-.012a3.56,3.56,0,0,1,.352-.086A3.533,3.533,0,0,1,3.928,8.2a3.482,3.482,0,0,1,.36.016,3.654,3.654,0,0,1,2.719,1.809c.022.037.039.074.056.111A3.2,3.2,0,0,1,7.446,11.638Z" transform="translate(-0.28 -4.844)" fill="#fff"/>
      <path id="Path_14748" data-name="Path 14748" d="M10.517,11.638a3.223,3.223,0,0,1-.178,1.187,2.7,2.7,0,0,1-.135.323c-.026.057-.056.115-.087.168s-.074.123-.113.184-.078.119-.122.176a3.7,3.7,0,0,1-.973.909l-.022-.045L6.009,8.376,6,8.364c.117-.033.256-.061.4-.086A3.533,3.533,0,0,1,7.042,8.2a3.481,3.481,0,0,1,.36.016,3.425,3.425,0,0,1,2.719,1.809c.022.037.039.074.056.111A3.465,3.465,0,0,1,10.517,11.638Z" transform="translate(-3.394 -4.844)" fill="#fff"/>
      <ellipse id="Ellipse_259" data-name="Ellipse 259" cx="5.212" cy="5.116" rx="5.212" ry="5.116" transform="translate(10.078)" fill="#fff"/>
      <path id="Path_14749" data-name="Path 14749" d="M35.545,27.046V40.307a.808.808,0,0,1-.565.737c-.087,0-.261.082-.391.082a1.324,1.324,0,0,1-.738-.246L27.6,35.968v2.006a2.97,2.97,0,0,1-1.3,2.456,4.961,4.961,0,0,1-3.17,1.023H21.083L13.717,25.941,13.7,25.9h9.424a5.212,5.212,0,0,1,3.17,1.023,3.028,3.028,0,0,1,1.3,2.321c0,.045,0,.09,0,.135v2.006l6.254-4.871a.913.913,0,0,1,.651-.246.613.613,0,0,1,.391.082.744.744,0,0,1,.456.246A.66.66,0,0,1,35.545,27.046Z" transform="translate(-6.545 -14.455)" fill="#fff"/>
    </g>
  </g>
</svg>
