<svg xmlns="http://www.w3.org/2000/svg" xmlns:xlink="http://www.w3.org/1999/xlink" width="85" height="85" viewBox="0 0 85 85">
  <defs>
    <clipPath id="clip-path">
      <rect id="Rectangle_3807" data-name="Rectangle 3807" width="68.753" height="67.68" transform="translate(-4 -2)" fill="none"/>
    </clipPath>
  </defs>
  <g id="icon-moneyback" transform="translate(-776 -849)">
    <rect id="Rectangle_2549" data-name="Rectangle 2549" width="85" height="85" rx="42.5" transform="translate(776 849)" fill="#fb8a29" opacity="0.15"/>
    <g id="Group_4549" data-name="Group 4549" transform="translate(787.991 867.204)">
      <g id="Group_4229" data-name="Group 4229">
        <g id="Group_4228" data-name="Group 4228" clip-path="url(#clip-path)">
          <path id="Path_26407" data-name="Path 26407" d="M96.716,194.567a6.783,6.783,0,0,0-2.852.913l-5.02,2.4c-.881.512-1.74,1-1.8,1.02a3.946,3.946,0,0,0-1.734,1.159,4.281,4.281,0,0,1-1.407,3.562,5.967,5.967,0,0,1-2.2,1.151,19.376,19.376,0,0,1-7.077.871c-1.646-.034-3.2-.48-7.938-.876-1.1-.092-1.793-.07-1.685-.271.309-.575,9.925.417,11.065.355,3.691-.2,6.592-1.161,7.34-2.066a2.491,2.491,0,0,0,.532-2.726c-.478-.795-1.6-1.211-5.158-1.367-1.783-.079-3.4-.242-4.995-.242a6.815,6.815,0,0,1-2.121-.431c-5.231-2.263-11.961-4.7-17.051-.779a10.314,10.314,0,0,0-1.11,1.011,9.806,9.806,0,0,0-.954,1.175c-.415.434-.938.939-1.58,1.533a19.947,19.947,0,0,1-1.669,1.326L56.87,213.1q.711-.541,1.438-1.06l1.16-.827a5.917,5.917,0,0,1,3.432-1.1h8.832l2.156-.237a19.178,19.178,0,0,0,4.461-1.04l1.6-.581,4.518-1.625.049-.018a24.368,24.368,0,0,0,7.159-4.081L93.18,201.3c.532-.532,2.075-1.772,3.047-2.541a5.136,5.136,0,0,0,1.572-2.071,1.911,1.911,0,0,0,.172-.635,1.357,1.357,0,0,0-1.255-1.483" transform="translate(-40.218 -158.712)" fill="#ffb782"/>
          <path id="Path_26408" data-name="Path 26408" d="M-2.971,240.438l2.16,2.483,4.526,4.054L7,249.554l4.087,2.392,5.864-4.97L6.974,232.717ZM11.9,245.89a1.44,1.44,0,1,1-1.44,1.44,1.44,1.44,0,0,1,1.44-1.44" transform="translate(0 -189.84)" fill="#1373e2"/>
        </g>
      </g>
      <g id="Group_4249" data-name="Group 4249" transform="translate(18.018 5.472)">
        <path id="Subtraction_4" data-name="Subtraction 4" d="M13.5,26a13.677,13.677,0,0,1-9.546-3.808,12.662,12.662,0,0,1,0-18.385A13.677,13.677,0,0,1,13.5,0a13.678,13.678,0,0,1,9.546,3.808,12.662,12.662,0,0,1,0,18.385A13.678,13.678,0,0,1,13.5,26ZM9.556,16.242h0L7.782,17.9a8.455,8.455,0,0,0,5.133,1.933v3.116h2.543V19.711c2.748-.452,4.388-2,4.388-4.155a3.509,3.509,0,0,0-1.274-2.872,9.036,9.036,0,0,0-3.45-1.533c-2.595-.707-3.191-1.091-3.191-2.056,0-.936.87-1.5,2.328-1.5a5.477,5.477,0,0,1,3.5,1.183l1.631-1.641A7.523,7.523,0,0,0,15.458,5.48V2.406H12.915V5.46C10.2,5.781,8.454,7.289,8.454,9.3a3.152,3.152,0,0,0,1.115,2.539,9.279,9.279,0,0,0,3.7,1.68c2.41.64,3.07,1.117,3.07,2.223a1.618,1.618,0,0,1-.768,1.4,3.647,3.647,0,0,1-1.991.486,6.271,6.271,0,0,1-4.031-1.391Z" transform="translate(-0.009 0.323)" fill="#fb8a29"/>
      </g>
      <g id="left-arrow" transform="translate(50.468 28.922) rotate(-90)">
        <path id="Path_35120" data-name="Path 35120" d="M19.751,4.175h-17l2.817-2.8A.8.8,0,0,0,4.432.234L.236,4.409h0a.8.8,0,0,0,0,1.137h0l4.2,4.175A.8.8,0,0,0,5.564,8.584l-2.817-2.8h17a.8.8,0,1,0,0-1.606Z" transform="translate(0)" fill="#1373e2"/>
      </g>
      <line id="Line_216" data-name="Line 216" y2="9.823" transform="translate(12.695 7.521)" fill="none" stroke="#1373e2" stroke-linecap="round" stroke-width="2"/>
      <line id="Line_217" data-name="Line 217" y2="9.823" transform="translate(6.965 12.432)" fill="none" stroke="#1373e2" stroke-linecap="round" stroke-width="2"/>
      <line id="Line_218" data-name="Line 218" y2="9.823" transform="translate(47.894 0.153)" fill="none" stroke="#1373e2" stroke-linecap="round" stroke-width="2"/>
    </g>
  </g>
</svg>
