<svg xmlns="http://www.w3.org/2000/svg" width="64" height="64" viewBox="0 0 64 64"><defs><style>.a{fill:#1296e6;opacity:0.15;}.b{fill:#4196d4;}</style></defs><g transform="translate(24 -8)"><rect class="a" width="64" height="64" rx="32" transform="translate(-24 8)"/><g transform="translate(-31.539 26.999)"><rect class="b" width="11.211" height="4.256" transform="translate(27.539 8.549)"/><rect class="b" width="11.211" height="4.256" transform="translate(40.328 8.549)"/><path class="b" d="M131.922,97.93v11.618h9.87V98.927l-2.595,3.579-.678-1.334-1.662.044,2.382-3.286Z" transform="translate(-103.043 -84.048)"/><path class="b" d="M214.8,102.178l-2.077-2.865v10.236h9.87V97.93h-7.6l2.171,2.995-1.794.113Z" transform="translate(-172.392 -84.049)"/><path class="b" d="M141.446,7.315a35.373,35.373,0,0,0,5.432.4v0h.348l.424,0h.392l.425,0h.355v0a35.325,35.325,0,0,0,5.423-.4,4.282,4.282,0,0,0,2.8-1.909A4.117,4.117,0,0,0,157.51,2.2,2.8,2.8,0,0,0,156.251.477,3.56,3.56,0,0,0,154.4,0a4.794,4.794,0,0,0-2.5.7,11.962,11.962,0,0,0-3.7,3.819c-.125.2-.243.413-.354.623-.111-.21-.23-.418-.354-.623A11.96,11.96,0,0,0,143.79.7a4.794,4.794,0,0,0-2.5-.7,3.561,3.561,0,0,0-1.853.477A2.8,2.8,0,0,0,138.179,2.2a4.117,4.117,0,0,0,.472,3.205,4.282,4.282,0,0,0,2.8,1.909m11.375-5.2a3.07,3.07,0,0,1,1.577-.43c.812,0,1.307.317,1.472.943a2.436,2.436,0,0,1-.276,1.9,2.554,2.554,0,0,1-1.708,1.145,31.464,31.464,0,0,1-4.594.358,10.31,10.31,0,0,1,3.528-3.912m-13,.512c.165-.626.66-.943,1.472-.943a3.07,3.07,0,0,1,1.577.43,10.26,10.26,0,0,1,3.15,3.242c.135.22.261.444.378.67a31.464,31.464,0,0,1-4.594-.358,2.554,2.554,0,0,1-1.708-1.145,2.436,2.436,0,0,1-.276-1.9" transform="translate(-108.306)"/></g></g></svg>