<svg width="642" height="78" viewBox="0 0 642 78" fill="none" xmlns="http://www.w3.org/2000/svg">
<path fill-rule="evenodd" clip-rule="evenodd" d="M143 73.5092L172.009 2H639L609.98 73.5092H143ZM204.088 53.5336H221.438C230.07 53.5336 235.948 50.3332 238.177 44.8685C239.729 41.0367 238.581 38.337 235.467 37.0742C238.789 35.6808 241.335 33.2424 242.558 30.227C244.536 25.361 241.772 21.9755 233.326 21.9755H216.893L204.088 53.5336ZM239.379 53.5336H263.799L266.672 46.4578H251.343L261.275 21.9755H252.184L239.379 53.5336ZM291.758 47.4049L291.791 53.5336H301.253L299.822 21.9755H290.873L263.886 53.5336H273.162L278.177 47.4049H291.758ZM331.65 43.0723C328.667 45.4672 325.662 46.7735 322.581 46.7735C317.304 46.7735 315.097 43.1594 317.304 37.76C319.5 32.3498 324.635 28.7466 329.912 28.7466C332.993 28.7466 334.938 30.0637 335.987 32.4477L343.854 27.3096C342.281 23.4778 338.369 21.3551 332.447 21.3551C322.253 21.3551 312.015 28.1587 308.115 37.76C304.214 47.3614 308.934 54.165 319.128 54.165C325.039 54.165 330.677 52.0423 335.354 48.2105L331.65 43.0723ZM354.267 42.0817L358.801 53.5336H369.377L362.691 35.953L381.483 21.9755H371.475L353.709 35.093L359.03 21.9755H350.038L337.233 53.5336H346.225L349.426 45.6414L354.267 42.0817ZM404.188 28.8772H420.304L423.09 21.9864H397.894L385.089 53.5445H394.179L398.572 42.724H412.754L415.551 35.8224H401.369L404.188 28.8772ZM432.016 45.1515L434.442 53.5336V53.5228H444.177L441.271 43.6057C446.024 41.7116 449.717 38.2934 451.596 33.6452C454.524 26.4387 450.82 21.9755 442.058 21.9755H427.373L414.568 53.5336H423.658L427.056 45.1515H432.016ZM448.526 53.5336H457.616L470.422 21.9755H461.331L448.526 53.5336ZM464.095 53.5336H479.283C489.925 53.5336 499.693 47.4485 503.637 37.7492C507.57 28.0607 502.741 21.9755 492.088 21.9755H476.901L464.095 53.5336ZM525.555 47.4049L525.587 53.5336H535.038L533.618 21.9755H524.67L497.682 53.5336H506.958L511.973 47.4049H525.555ZM552.804 53.5228L557.393 42.2124L577.912 21.9647H569.095L556.388 34.4943L553.853 21.9647H544.26L548.357 42.0708L543.714 53.5228H552.804ZM229.513 28.4308C232.539 28.4308 233.686 29.465 232.878 31.4462C232.058 33.471 230.07 34.5051 227.043 34.516H220.805L223.274 28.4308H229.513ZM438.649 29.0079H433.601L429.853 38.25H434.901C438.659 38.25 441.238 36.5409 442.407 33.6561C443.598 30.7169 442.418 29.0079 438.649 29.0079ZM488.821 29.0949H483.085L476.059 46.4034H481.796C487.259 46.4034 492.23 43.2029 494.437 37.7491C496.666 32.2953 494.284 29.0949 488.821 29.0949ZM291.769 40.819H283.509L291.737 30.7169L291.769 40.819ZM225.918 40.6883H218.303L215.702 47.0892H223.318C226.442 47.0892 228.507 46.0551 229.393 43.8888C230.267 41.7225 229.032 40.6883 225.918 40.6883ZM517.305 40.819H525.566L525.533 30.7169L517.305 40.819Z" fill="url(#paint0_linear)"/>
<g filter="url(#filter0_d)">
<path fill-rule="evenodd" clip-rule="evenodd" d="M6 73.5091L35.0087 1.99994H155.5L126.48 73.5091H6ZM82.3467 12.6886C78.6116 10.9195 74.5315 10.0013 70.3999 9.99994C66.2127 10.0105 62.0809 10.9601 58.3079 12.779C54.5348 14.598 51.2162 17.2401 48.5955 20.5115C45.9522 23.8073 44.0652 27.6455 43.0685 31.7536C42.0718 35.8618 41.9897 40.1394 42.8282 44.2828H46.2467L50.564 56.4382L54.7417 44.28H58.3938L52.3716 60.4562C56.9554 64.3438 62.6695 66.6454 68.6639 67.0187C74.6584 67.392 80.6131 65.817 85.6422 62.528C90.6987 59.2016 94.5746 54.3575 96.7146 48.6895C98.8547 43.0215 99.1491 36.8205 97.5557 30.9746V30.1927L103.762 20.259H99.8347L95.9704 27.0251L96.0986 26.8011C96.4461 27.5759 96.7552 28.3678 97.0315 29.1768L97.0116 29.1811L97.0971 29.4514L97.0984 29.4555L97.4019 30.4154V30.4353C97.4532 30.6136 97.5044 30.7948 97.5529 30.9746V37.658H94.3594V30.1941L88.199 20.0022L91.9722 20.2604L92.0021 20.2319C89.3793 17.0339 86.0818 14.4578 82.3467 12.6886ZM97.4019 30.4154L97.4104 30.4424V30.421V30.4025V30.3811V30.3696V30.3482V30.3297V30.3154V30.2969V30.2755V30.2583V30.2384V30.2198L97.399 30.1813V30.1627L97.3891 30.1285V30.1085V30.0871V30.0686V30.05L97.3777 30.0115V29.9758L97.3691 29.9487V29.9302L97.3577 29.8916V29.8702L97.3292 29.7804V29.7732V29.7532V29.7347V29.7147V29.6947L97.3164 29.6562V29.6491V29.6362V29.6163L97.3064 29.5834L97.2765 29.5535V29.5349L97.268 29.5078L97.0984 29.4555L97.258 29.5078L97.2666 29.5349V29.5535L97.2979 29.5834L97.3079 29.6163V29.6362V29.6491V29.6562L97.3207 29.6947V29.7147V29.7347V29.7532V29.7732V29.7804L97.3492 29.8702V29.8916L97.3606 29.9302V29.9487L97.3691 29.9758V30.0044L97.3805 30.0429V30.0614V30.08V30.1014V30.1214L97.3905 30.1556V30.1742L97.4019 30.2127V30.2312V30.2512V30.2683V30.2897V30.3083V30.3226V30.3411V30.3625V30.3739V30.3953V30.4139V30.4154ZM41.8312 44.3214L47.6953 60.7087H44.4805L43.1986 56.9875H37.3401L36.1336 60.7087H33L38.6975 44.3214H41.8312ZM40.2316 48.1439L42.2499 54.2251H38.2545L40.2316 48.1439ZM104.126 35.5634C102.568 33.8015 101.769 31.4929 101.904 29.1426L101.906 29.1454C101.86 27.645 102.122 26.1512 102.676 24.7564C103.061 23.8873 103.594 23.0917 104.25 22.405C104.866 21.7501 105.609 21.2285 106.434 20.8725C107.587 20.3977 108.825 20.166 110.072 20.1919C111.176 20.1411 112.278 20.3241 113.307 20.7291C114.335 21.134 115.267 21.7517 116.041 22.5419C116.871 23.4194 117.481 24.4822 117.819 25.6425V20.6157H121.22V29.876C121.191 30.8323 121.233 31.7894 121.344 32.7396C121.473 33.4105 121.844 34.0102 122.387 34.4233C123.046 34.8816 123.839 35.1056 124.64 35.0597C125.417 35.116 126.189 34.904 126.828 34.459C127.296 34.0973 127.611 33.5719 127.708 32.9879C127.836 32.0227 127.888 31.049 127.864 30.0757V20.6157H131.268V29.6106C131.312 31.0666 131.221 32.5235 130.994 33.9624C130.838 34.7518 130.488 35.4901 129.977 36.1113C129.433 36.7245 128.752 37.2011 127.99 37.5025C126.951 37.8849 125.847 38.0608 124.74 38.0204C123.492 38.0825 122.244 37.8883 121.074 37.4497C120.309 37.1243 119.633 36.621 119.101 35.9814C118.642 35.4309 118.315 34.7821 118.147 34.0852C118.018 33.4642 117.933 32.8348 117.893 32.2017C117.568 33.4557 116.934 34.6075 116.047 35.5505C115.278 36.3379 114.351 36.9534 113.328 37.3567C112.304 37.76 111.207 37.9419 110.109 37.8906C109.005 37.9437 107.902 37.764 106.871 37.3631C105.84 36.9622 104.905 36.3491 104.126 35.5634ZM106.705 24.6137C105.752 25.8789 105.294 27.4487 105.415 29.0284L105.42 29.0255C105.308 30.6076 105.779 32.1757 106.744 33.4331C107.168 33.9036 107.685 34.28 108.262 34.5378C108.84 34.7956 109.465 34.9292 110.097 34.9299C110.73 34.9306 111.355 34.7983 111.933 34.5417C112.511 34.2851 113.029 33.9099 113.453 33.4402C114.416 32.1612 114.881 30.5744 114.759 28.977C114.876 27.4091 114.423 25.8518 113.483 24.5923C113.045 24.1334 112.518 23.7685 111.935 23.5198C111.351 23.2712 110.723 23.144 110.089 23.146C109.455 23.148 108.828 23.2792 108.246 23.5315C107.664 23.7838 107.14 24.152 106.705 24.6137ZM60.0134 60.041C58.9775 58.8562 58.3809 57.35 58.324 55.7761L61.2768 55.789C61.2759 56.5612 61.5548 57.3075 62.0616 57.8893C62.3294 58.1533 62.6489 58.3588 63 58.4929C63.3511 58.6269 63.7261 58.6867 64.1013 58.6683C64.4719 58.6964 64.8444 58.6495 65.1965 58.5303C65.5487 58.4112 65.8733 58.2223 66.151 57.9749C66.3711 57.7686 66.5464 57.5191 66.6659 57.2419C66.7855 56.9648 66.8469 56.6659 66.8461 56.364C66.8575 56.0042 66.7526 55.6504 66.547 55.3552C66.2872 55.0221 65.9363 54.7717 65.5371 54.6346C65.2081 54.4977 64.4531 54.2565 63.2823 53.9055C62.0974 53.6326 61.0019 53.0603 60.1002 52.2432C59.2484 51.3362 58.7878 50.1294 58.8183 48.8844C58.8145 48.0508 59.0223 47.2298 59.4222 46.4987C59.8133 45.7671 60.4222 45.1756 61.1643 44.8065C62.0218 44.3991 62.9632 44.2001 63.9119 44.2258C64.6311 44.1715 65.3537 44.2654 66.0352 44.5017C66.7168 44.7381 67.3427 45.1118 67.8745 45.5998C68.7899 46.6056 69.2886 47.923 69.269 49.284H66.1994C66.1852 49.1805 66.1725 49.0828 66.1605 48.9903C66.0725 48.3142 66.0205 47.9143 65.671 47.5817C65.1704 47.1723 64.5322 46.9706 63.8877 47.0181C63.1942 46.9755 62.5094 47.1909 61.9648 47.6231C61.817 47.7505 61.6998 47.9097 61.6221 48.0889C61.5444 48.268 61.5082 48.4624 61.5161 48.6576C61.5129 48.8466 61.5484 49.0342 61.6205 49.209C61.6925 49.3837 61.7995 49.5418 61.9348 49.6735C62.7102 50.2248 63.5931 50.6055 64.5258 50.7907C65.5905 51.0528 66.6155 51.4559 67.574 51.9893C68.232 52.407 68.7662 52.9938 69.1208 53.6886C69.513 54.5193 69.7024 55.4314 69.6735 56.3497C69.679 57.2868 69.4493 58.2102 69.0055 59.035C68.5909 59.8414 67.9309 60.4945 67.121 60.8999C66.1687 61.3363 65.128 61.5449 64.0814 61.5092C63.339 61.5577 62.5946 61.4523 61.8946 61.1997C61.1947 60.9471 60.5543 60.5526 60.0134 60.041ZM83.0612 47.5675H76.8338L76.8324 40.7243H63.1014V35.0169L77.6628 13.4244H83.0598V34.9969H87.2218V40.73H83.0612V47.5675ZM76.8338 23.3709V34.9955H69.1251L76.8338 23.3709Z" fill="url(#paint1_linear)"/>
</g>
<g filter="url(#filter1_d)">
<mask id="path-3-inside-1" fill="white">
<path fill-rule="evenodd" clip-rule="evenodd" d="M143 73.5092H146.237H609.98L637.783 5L639 2H635.762H172.009L144.217 70.5092L143 73.5092ZM174.029 5L147.454 70.5092H607.96L634.545 5H174.029Z"/>
</mask>
<path d="M143 73.5092L140.22 72.3815L138.546 76.5092H143V73.5092ZM609.98 73.5092V76.5092H612.001L612.76 74.6373L609.98 73.5092ZM637.783 5L640.562 6.1281V6.12809L637.783 5ZM639 2L641.78 3.12809L643.455 -1H639V2ZM172.009 2V-1H169.988L169.229 0.872267L172.009 2ZM144.217 70.5092L146.997 71.6369L144.217 70.5092ZM147.454 70.5092L144.674 69.3815L143 73.5092H147.454V70.5092ZM174.029 5V2H172.009L171.249 3.87227L174.029 5ZM607.96 70.5092V73.5092H609.98L610.74 71.6373L607.96 70.5092ZM634.545 5L637.325 6.1281L639 2L634.545 2V5ZM143 76.5092H146.237V70.5092H143V76.5092ZM146.237 76.5092H609.98V70.5092H146.237V76.5092ZM612.76 74.6373L640.562 6.1281L635.003 3.8719L607.201 72.3811L612.76 74.6373ZM640.562 6.12809L641.78 3.12809L636.22 0.871913L635.003 3.87191L640.562 6.12809ZM639 -1H635.762V5H639V-1ZM635.762 -1H172.009V5H635.762V-1ZM169.229 0.872267L141.437 69.3815L146.997 71.6369L174.789 3.12773L169.229 0.872267ZM141.437 69.3815L140.22 72.3815L145.78 74.6369L146.997 71.6369L141.437 69.3815ZM150.234 71.6369L176.809 6.12773L171.249 3.87227L144.674 69.3815L150.234 71.6369ZM607.96 67.5092H147.454V73.5092H607.96V67.5092ZM631.765 3.8719L605.18 69.3811L610.74 71.6373L637.325 6.1281L631.765 3.8719ZM174.029 8H634.545V2H174.029V8Z" fill="url(#paint2_linear)" mask="url(#path-3-inside-1)"/>
</g>
<g filter="url(#filter2_d)">
<mask id="path-5-inside-2" fill="white">
<path fill-rule="evenodd" clip-rule="evenodd" d="M3 73.5092H6.23745L127.5 73.5091L155.302 4.99994L156.52 1.99994L153.282 1.99994L32.0087 1.99995L4.21699 70.5092L3 73.5092ZM34.0292 4.99995L7.45444 70.5092L125.48 70.5091L152.065 4.99994L34.0292 4.99995Z"/>
</mask>
<path d="M3 73.5092L0.220033 72.3814L-1.45444 76.5092H3V73.5092ZM6.23745 73.5092V76.5092H6.23745L6.23745 73.5092ZM127.5 73.5091V76.5091H129.52L130.28 74.6372L127.5 73.5091ZM155.302 4.99994L152.522 3.87184V3.87184L155.302 4.99994ZM156.52 1.99994L159.299 3.12804L160.975 -1.00006L156.52 -1.00006V1.99994ZM153.282 1.99994V4.99994V1.99994ZM32.0087 1.99995V-1.00005L29.9883 -1.00005L29.2288 0.872221L32.0087 1.99995ZM4.21699 70.5092L6.99696 71.6369L4.21699 70.5092ZM7.45444 70.5092L4.67447 69.3814L3 73.5092H7.45444L7.45444 70.5092ZM34.0292 4.99995V1.99995L32.0087 1.99995L31.2492 3.87222L34.0292 4.99995ZM125.48 70.5091V73.5091H127.5L128.26 71.6372L125.48 70.5091ZM152.065 4.99994L154.844 6.12804L156.52 1.99994L152.065 1.99994V4.99994ZM3 76.5092H6.23745V70.5092H3V76.5092ZM6.23745 76.5092L127.5 76.5091V70.5091L6.23745 70.5092L6.23745 76.5092ZM130.28 74.6372L158.082 6.12804L152.522 3.87184L124.72 72.381L130.28 74.6372ZM158.082 6.12804L159.299 3.12804L153.74 0.87184L152.522 3.87184L158.082 6.12804ZM156.52 -1.00006L153.282 -1.00006V4.99994L156.52 4.99994V-1.00006ZM153.282 -1.00006L32.0087 -1.00005V4.99995L153.282 4.99994V-1.00006ZM29.2288 0.872221L1.43703 69.3814L6.99696 71.6369L34.7887 3.12769L29.2288 0.872221ZM1.43703 69.3814L0.220033 72.3814L5.77997 74.6369L6.99696 71.6369L1.43703 69.3814ZM10.2344 71.6369L36.8091 6.12769L31.2492 3.87222L4.67447 69.3814L10.2344 71.6369ZM125.48 67.5091L7.45444 67.5092L7.45444 73.5092L125.48 73.5091V67.5091ZM149.285 3.87184L122.7 69.381L128.26 71.6372L154.844 6.12804L149.285 3.87184ZM34.0292 7.99995L152.065 7.99994V1.99994L34.0292 1.99995V7.99995Z" fill="url(#paint3_linear)" mask="url(#path-5-inside-2)"/>
</g>
<defs>
<filter id="filter0_d" x="3" y="-6.10352e-05" width="155.5" height="77.5092" filterUnits="userSpaceOnUse" color-interpolation-filters="sRGB">
<feFlood flood-opacity="0" result="BackgroundImageFix"/>
<feColorMatrix in="SourceAlpha" type="matrix" values="0 0 0 0 0 0 0 0 0 0 0 0 0 0 0 0 0 0 127 0"/>
<feOffset dy="1"/>
<feGaussianBlur stdDeviation="1.5"/>
<feColorMatrix type="matrix" values="0 0 0 0 0 0 0 0 0 0 0 0 0 0 0 0 0 0 0.5 0"/>
<feBlend mode="normal" in2="BackgroundImageFix" result="effect1_dropShadow"/>
<feBlend mode="normal" in="SourceGraphic" in2="effect1_dropShadow" result="shape"/>
</filter>
<filter id="filter1_d" x="140" y="0" width="502" height="77.5092" filterUnits="userSpaceOnUse" color-interpolation-filters="sRGB">
<feFlood flood-opacity="0" result="BackgroundImageFix"/>
<feColorMatrix in="SourceAlpha" type="matrix" values="0 0 0 0 0 0 0 0 0 0 0 0 0 0 0 0 0 0 127 0"/>
<feOffset dy="1"/>
<feGaussianBlur stdDeviation="1.5"/>
<feColorMatrix type="matrix" values="0 0 0 0 0 0 0 0 0 0 0 0 0 0 0 0 0 0 0.5 0"/>
<feBlend mode="normal" in2="BackgroundImageFix" result="effect1_dropShadow"/>
<feBlend mode="normal" in="SourceGraphic" in2="effect1_dropShadow" result="shape"/>
</filter>
<filter id="filter2_d" x="0" y="-6.10352e-05" width="159.52" height="77.5092" filterUnits="userSpaceOnUse" color-interpolation-filters="sRGB">
<feFlood flood-opacity="0" result="BackgroundImageFix"/>
<feColorMatrix in="SourceAlpha" type="matrix" values="0 0 0 0 0 0 0 0 0 0 0 0 0 0 0 0 0 0 127 0"/>
<feOffset dy="1"/>
<feGaussianBlur stdDeviation="1.5"/>
<feColorMatrix type="matrix" values="0 0 0 0 0 0 0 0 0 0 0 0 0 0 0 0 0 0 0.5 0"/>
<feBlend mode="normal" in2="BackgroundImageFix" result="effect1_dropShadow"/>
<feBlend mode="normal" in="SourceGraphic" in2="effect1_dropShadow" result="shape"/>
</filter>
<linearGradient id="paint0_linear" x1="126.266" y1="67.1893" x2="134.596" y2="-26.3584" gradientUnits="userSpaceOnUse">
<stop stop-color="#C8992E"/>
<stop offset="0.1507" stop-color="#B57E10"/>
<stop offset="0.4298" stop-color="#F9DF7B"/>
<stop offset="0.5909" stop-color="#FFF3A6"/>
<stop offset="0.7264" stop-color="#F9DF7B"/>
<stop offset="0.9257" stop-color="#B57E10"/>
<stop offset="0.9369" stop-color="#B98416"/>
<stop offset="1" stop-color="#CDA035"/>
</linearGradient>
<linearGradient id="paint1_linear" x1="0.956247" y1="67.1893" x2="26.5746" y2="-19.5322" gradientUnits="userSpaceOnUse">
<stop stop-color="#C8992E"/>
<stop offset="0.1507" stop-color="#B57E10"/>
<stop offset="0.4298" stop-color="#F9DF7B"/>
<stop offset="0.5909" stop-color="#FFF3A6"/>
<stop offset="0.7264" stop-color="#F9DF7B"/>
<stop offset="0.9257" stop-color="#B57E10"/>
<stop offset="0.9369" stop-color="#B98416"/>
<stop offset="1" stop-color="#CDA035"/>
</linearGradient>
<linearGradient id="paint2_linear" x1="390.992" y1="5.79886" x2="390.992" y2="70.6227" gradientUnits="userSpaceOnUse">
<stop stop-color="#FBF89C"/>
<stop offset="0.0326" stop-color="#F9F498"/>
<stop offset="0.0681" stop-color="#F5EA8B"/>
<stop offset="0.1048" stop-color="#EED875"/>
<stop offset="0.1422" stop-color="#E3BF57"/>
<stop offset="0.1758" stop-color="#D8A335"/>
<stop offset="0.2232" stop-color="#CA9430"/>
<stop offset="0.314" stop-color="#A56D22"/>
<stop offset="0.3226" stop-color="#A16921"/>
<stop offset="0.3673" stop-color="#AA7324"/>
<stop offset="0.4421" stop-color="#C38C2D"/>
<stop offset="0.4957" stop-color="#D8A335"/>
<stop offset="0.564" stop-color="#E5C15A"/>
<stop offset="0.6426" stop-color="#F1DF7E"/>
<stop offset="0.7067" stop-color="#F8F194"/>
<stop offset="0.7478" stop-color="#FBF89C"/>
<stop offset="0.8083" stop-color="#FBF89C"/>
<stop offset="0.8256" stop-color="#F8F194"/>
<stop offset="0.8526" stop-color="#F1DF7E"/>
<stop offset="0.8856" stop-color="#E5C25A"/>
<stop offset="0.9145" stop-color="#D8A335"/>
<stop offset="0.9516" stop-color="#D9A738"/>
<stop offset="0.9853" stop-color="#DBB242"/>
<stop offset="1" stop-color="#DCB949"/>
</linearGradient>
<linearGradient id="paint3_linear" x1="79.7573" y1="5.7988" x2="79.7573" y2="70.6227" gradientUnits="userSpaceOnUse">
<stop stop-color="#FBF89C"/>
<stop offset="0.0326" stop-color="#F9F498"/>
<stop offset="0.0681" stop-color="#F5EA8B"/>
<stop offset="0.1048" stop-color="#EED875"/>
<stop offset="0.1422" stop-color="#E3BF57"/>
<stop offset="0.1758" stop-color="#D8A335"/>
<stop offset="0.2232" stop-color="#CA9430"/>
<stop offset="0.314" stop-color="#A56D22"/>
<stop offset="0.3226" stop-color="#A16921"/>
<stop offset="0.3673" stop-color="#AA7324"/>
<stop offset="0.4421" stop-color="#C38C2D"/>
<stop offset="0.4957" stop-color="#D8A335"/>
<stop offset="0.564" stop-color="#E5C15A"/>
<stop offset="0.6426" stop-color="#F1DF7E"/>
<stop offset="0.7067" stop-color="#F8F194"/>
<stop offset="0.7478" stop-color="#FBF89C"/>
<stop offset="0.8083" stop-color="#FBF89C"/>
<stop offset="0.8256" stop-color="#F8F194"/>
<stop offset="0.8526" stop-color="#F1DF7E"/>
<stop offset="0.8856" stop-color="#E5C25A"/>
<stop offset="0.9145" stop-color="#D8A335"/>
<stop offset="0.9516" stop-color="#D9A738"/>
<stop offset="0.9853" stop-color="#DBB242"/>
<stop offset="1" stop-color="#DCB949"/>
</linearGradient>
</defs>
</svg>
