<svg width="552" height="385" viewBox="0 0 552 385" fill="none" xmlns="http://www.w3.org/2000/svg">
<path d="M408 216.618C411.891 216.618 414.362 215.75 413.72 216.618C404.416 229.207 380.262 267.602 379.28 328.356C378.063 403.672 174.937 403.672 173.72 328.356C172.738 267.602 148.304 228.956 139 216.367C142.22 216.367 148 216.618 152.5 216.618C152.5 216.618 404.109 216.618 408 216.618Z" fill="url(#paint0_linear)" fill-opacity="0.2"/>
<path d="M412.82 216.523H140.18C129.397 215.405 121 206.294 121 195.256C121 193.757 121.167 192.282 121.453 190.855H140.18H163.462H262.771H285.434H389.514H412.797H431.523C431.833 192.282 431.976 193.757 431.976 195.256C432 206.294 423.603 215.405 412.82 216.523Z" fill="url(#paint1_linear)" fill-opacity="0.2"/>
<g style="mix-blend-mode:multiply" opacity="0.9">
<path d="M276 220.867C428.431 220.867 552 209.226 552 194.867C552 180.508 428.431 168.867 276 168.867C123.569 168.867 0 180.508 0 194.867C0 209.226 123.569 220.867 276 220.867Z" fill="url(#paint2_radial)"/>
</g>
<path d="M415.421 171.316C407.859 161.681 380.33 122.286 379.28 57.3422C378.063 -17.9741 174.937 -17.9741 173.72 57.3422C172.67 122.286 145.141 161.681 137.579 171.316L134.12 173.671H135.647H417.353H418.88L415.421 171.316Z" fill="url(#paint3_linear)"/>
<g filter="url(#filter0_d)">
<path d="M412.82 169.175H140.18C129.397 170.293 121 179.404 121 190.442C121 191.941 121.167 193.416 121.453 194.843H140.18H163.462H389.514H412.797H431.523C431.833 193.416 431.976 191.941 431.976 190.442C432 179.404 423.603 170.293 412.82 169.175Z" fill="url(#paint4_linear)"/>
</g>
<defs>
<filter id="filter0_d" x="114" y="169.175" width="324.976" height="39.6684" filterUnits="userSpaceOnUse" color-interpolation-filters="sRGB">
<feFlood flood-opacity="0" result="BackgroundImageFix"/>
<feColorMatrix in="SourceAlpha" type="matrix" values="0 0 0 0 0 0 0 0 0 0 0 0 0 0 0 0 0 0 127 0"/>
<feOffset dy="7"/>
<feGaussianBlur stdDeviation="3.5"/>
<feColorMatrix type="matrix" values="0 0 0 0 0 0 0 0 0 0 0 0 0 0 0 0 0 0 0.5 0"/>
<feBlend mode="normal" in2="BackgroundImageFix" result="effect1_dropShadow"/>
<feBlend mode="normal" in="SourceGraphic" in2="effect1_dropShadow" result="shape"/>
</filter>
<linearGradient id="paint0_linear" x1="276" y1="308.867" x2="276.503" y2="219.001" gradientUnits="userSpaceOnUse">
<stop offset="0.3673" stop-color="#AA7324" stop-opacity="0"/>
<stop offset="0.4421" stop-color="#C38C2D" stop-opacity="0"/>
<stop offset="0.4957" stop-color="#D8A335" stop-opacity="0"/>
<stop offset="0.564" stop-color="#E5C15A" stop-opacity="0.1"/>
<stop offset="0.6426" stop-color="#F1DF7E" stop-opacity="0.2"/>
<stop offset="0.7067" stop-color="#F8F194" stop-opacity="0.3"/>
<stop offset="0.7478" stop-color="#FBF89C" stop-opacity="0.4"/>
<stop offset="0.9145" stop-color="#D8A335"/>
<stop offset="0.9516" stop-color="#D9A738"/>
<stop offset="0.9853" stop-color="#DBB242"/>
<stop offset="1" stop-color="#DCB949"/>
</linearGradient>
<linearGradient id="paint1_linear" x1="276.5" y1="190.831" x2="276.503" y2="217.331" gradientUnits="userSpaceOnUse">
<stop offset="0.00543898" stop-color="#A16921"/>
<stop offset="0.0202672" stop-color="#E3BF57"/>
<stop offset="0.0336121" stop-color="#CA9430"/>
<stop offset="0.138891" stop-color="#A56D22"/>
<stop offset="0.168149" stop-color="#AA7324"/>
<stop offset="0.2429" stop-color="#C38C2D"/>
<stop offset="0.351152" stop-color="#D8A335"/>
<stop offset="0.4957" stop-color="#D8A335"/>
<stop offset="0.564" stop-color="#E5C15A"/>
<stop offset="0.6426" stop-color="#F1DF7E"/>
<stop offset="0.7067" stop-color="#F8F194"/>
<stop offset="0.7478" stop-color="#FBF89C"/>
<stop offset="0.8083" stop-color="#FBF89C"/>
<stop offset="0.8256" stop-color="#F8F194"/>
<stop offset="0.8526" stop-color="#F1DF7E"/>
<stop offset="0.8856" stop-color="#E5C25A"/>
<stop offset="0.9145" stop-color="#D8A335"/>
<stop offset="0.9516" stop-color="#D9A738"/>
<stop offset="0.9853" stop-color="#DBB242"/>
<stop offset="1" stop-color="#DCB949"/>
</linearGradient>
<radialGradient id="paint2_radial" cx="0" cy="0" r="1" gradientUnits="userSpaceOnUse" gradientTransform="translate(265.756 195.833) scale(287.836 27.115)">
<stop stop-color="#4D4D4D"/>
<stop offset="1" stop-color="white"/>
</radialGradient>
<linearGradient id="paint3_linear" x1="276" y1="6.99994" x2="276" y2="185" gradientUnits="userSpaceOnUse">
<stop offset="0.22682" stop-color="#603B01"/>
<stop offset="0.437844" stop-color="#93631E"/>
<stop offset="0.611744" stop-color="#D8A335"/>
<stop offset="0.7067" stop-color="#F8F194"/>
<stop offset="0.7478" stop-color="#FBF89C"/>
<stop offset="0.8083" stop-color="#FBF89C"/>
<stop offset="0.8256" stop-color="#F8F194"/>
<stop offset="0.8526" stop-color="#F1DF7E"/>
<stop offset="0.8856" stop-color="#E5C25A"/>
<stop offset="0.9145" stop-color="#D8A335"/>
<stop offset="0.9516" stop-color="#D9A738"/>
<stop offset="0.9853" stop-color="#DBB242"/>
<stop offset="1" stop-color="#DCB949"/>
</linearGradient>
<linearGradient id="paint4_linear" x1="276.5" y1="194.867" x2="276.503" y2="168.367" gradientUnits="userSpaceOnUse">
<stop offset="0.00543898" stop-color="#6C420A"/>
<stop offset="0.185134" stop-color="#603D0C"/>
<stop offset="0.351152" stop-color="#D8A335"/>
<stop offset="0.4957" stop-color="#D8A335"/>
<stop offset="0.564" stop-color="#E5C15A"/>
<stop offset="0.6426" stop-color="#F1DF7E"/>
<stop offset="0.7067" stop-color="#F8F194"/>
<stop offset="0.7478" stop-color="#FBF89C"/>
<stop offset="0.8083" stop-color="#FBF89C"/>
<stop offset="0.8256" stop-color="#F8F194"/>
<stop offset="0.8526" stop-color="#F1DF7E"/>
<stop offset="0.8856" stop-color="#E5C25A"/>
<stop offset="0.9145" stop-color="#D8A335"/>
<stop offset="0.9516" stop-color="#D9A738"/>
<stop offset="0.985028" stop-color="#DBB242"/>
<stop offset="1" stop-color="#DCB949"/>
</linearGradient>
</defs>
</svg>
