<svg width="52" height="55" viewBox="0 0 52 55" fill="none" xmlns="http://www.w3.org/2000/svg">
<g filter="url(#filter0_d)">
<g opacity="0.15" filter="url(#filter1_d)">
<rect x="7" y="3" width="38" height="38" rx="5" fill="white"/>
</g>
<g opacity="0.3">
<path d="M34.2744 26.61V10.6621C34.2744 10.3306 34.0835 10.0166 33.7885 9.877C33.4762 9.71999 33.1291 9.77232 32.8688 9.98168L24.4626 16.7458L34.2744 26.61Z" fill="white"/>
<path d="M17.6573 11.831C17.3926 11.5649 16.9631 11.5649 16.6985 11.831C16.4338 12.097 16.4338 12.5288 16.6985 12.7949L20.6518 16.7693L20.3915 16.7682C19.8536 16.7682 19.385 17.0125 19.0727 17.3963C18.8124 17.6929 18.6562 18.0941 18.6562 18.5128V25.4913C18.6562 26.4508 19.4371 27.2359 20.3915 27.2359H24.4175L32.8687 34.0224C33.0249 34.1445 33.2158 34.2143 33.4067 34.2143C33.5281 34.2143 33.667 34.1794 33.7884 34.1271C34.0834 33.9875 34.2743 33.6735 34.2743 33.342V30.4645L36.8302 33.034C37.0948 33.3 37.5243 33.3 37.789 33.034C38.0536 32.7679 38.0536 32.3361 37.789 32.0701L17.6573 11.831Z" fill="white"/>
</g>
</g>
<defs>
<filter id="filter0_d" x="0" y="3" width="52" height="52" filterUnits="userSpaceOnUse" color-interpolation-filters="sRGB">
<feFlood flood-opacity="0" result="BackgroundImageFix"/>
<feColorMatrix in="SourceAlpha" type="matrix" values="0 0 0 0 0 0 0 0 0 0 0 0 0 0 0 0 0 0 127 0"/>
<feOffset dy="7"/>
<feGaussianBlur stdDeviation="3.5"/>
<feColorMatrix type="matrix" values="0 0 0 0 0 0 0 0 0 0 0 0 0 0 0 0 0 0 0.5 0"/>
<feBlend mode="normal" in2="BackgroundImageFix" result="effect1_dropShadow"/>
<feBlend mode="normal" in="SourceGraphic" in2="effect1_dropShadow" result="shape"/>
</filter>
<filter id="filter1_d" x="2" y="0" width="48" height="48" filterUnits="userSpaceOnUse" color-interpolation-filters="sRGB">
<feFlood flood-opacity="0" result="BackgroundImageFix"/>
<feColorMatrix in="SourceAlpha" type="matrix" values="0 0 0 0 0 0 0 0 0 0 0 0 0 0 0 0 0 0 127 0"/>
<feOffset dy="2"/>
<feGaussianBlur stdDeviation="2.5"/>
<feColorMatrix type="matrix" values="0 0 0 0 0 0 0 0 0 0 0 0 0 0 0 0 0 0 0.25 0"/>
<feBlend mode="normal" in2="BackgroundImageFix" result="effect1_dropShadow"/>
<feBlend mode="normal" in="SourceGraphic" in2="effect1_dropShadow" result="shape"/>
</filter>
</defs>
</svg>
