<svg width="2050" height="600" viewBox="0 0 2050 600" fill="none" xmlns="http://www.w3.org/2000/svg">
<path fill-rule="evenodd" clip-rule="evenodd" d="M2050 600H0C28.7718 525.214 52.7254 445.02 70.5777 361.004C83.1383 301.745 92.1465 243.431 97.6021 186.795C329.149 171.167 522.506 98.7987 614.237 0C727.536 42.3723 870.144 67.544 1025.06 67.544C1178.7 67.544 1320.17 42.687 1432.96 1.04882C1525.58 99.8475 1720.08 172.006 1952.39 187.004C1957.97 243.536 1966.85 301.745 1979.41 360.899C1997.25 444.968 2021.22 525.196 2050 600Z" fill="#C00A0A"/>
<g opacity="0.16">
<path d="M661 592.7C665.2 594.3 668.6 595.1 672.9 596.4C669.9 594.5 667.1 592.2 664.3 589.9C656.6 583.5 648.7 577 642.7 569.1C646.8 571.5 651.4 573.2 655.9 574.5C662.7 576.4 669.2 576.9 675.9 579C668.1 572.5 660.9 565 655.2 556.5C657.4 558.2 660.4 558.5 663.1 558.7C667.8 559.1 671.5 559.8 676.2 560.2C664.5 553.3 654 545.8 643.7 536.8C647.8 538.6 651.9 538.7 656.3 538.3C644.4 531.9 634.2 522.4 626.9 511C627.6 511.6 628.3 512.3 629 512.9C632.8 516.1 636.9 518.9 641.3 521.1C645.9 523.5 650.8 524.8 655.6 526.9C654.9 526.1 654.1 525.3 653.3 524.4C650.3 521 647.3 517.5 644.5 513.9C638.8 506.6 633.6 498.9 628.9 490.9C634.5 495.1 640.9 498.1 647.7 499.1C638.2 493 628.1 486.2 621.3 477.1C625.7 480.4 630.6 482.7 636.1 483.4C628.2 479.2 621.7 472.4 616.8 464.9C611.8 457.4 608.2 449 604.9 440.6C603.5 437.1 602.2 433.5 601.5 429.8C600.4 435.1 598.5 439.1 597.1 444.3C596.2 447.4 595.3 450.6 593.9 453.5C589.6 463.1 582 470 574.4 477.2C574.7 477.5 575.3 477.4 575.7 477.2C577.6 476.5 579.6 475.8 581.5 475.1C579.6 479.2 577.1 483 573.7 485.9C576.5 485.3 578.3 484.1 580.7 482.3C579 485.6 576.7 488.4 574.4 491.2C568.9 497.8 562.6 504.3 557.2 511C558.6 510.9 559.9 510.2 561.1 509.6C562.4 508.9 563.7 508.2 565.1 507.5C567.1 506.4 569 505.5 569.9 503.3C566.4 511.7 560.7 518.9 555.2 526.3C554.7 527 554.1 528.2 554 529C557.2 526.2 560.9 524.2 564.6 522.2C560.2 528 555.1 533.2 548.8 536.9C553.8 536 559 534.4 563.5 532.2C557.8 539.4 548.4 544.6 542.9 552C547.4 550.9 551.7 547.8 555.2 544.8C553.9 548.5 550.9 551.4 547.9 554.1C546.8 555.1 545.6 556.1 544.5 557.1C535.8 549.5 527.8 540.8 521.4 531.3C524.3 533.4 528 533.8 531.6 534.2C537.6 534.8 542.3 535.6 548.4 536.1C533.5 527.3 520 517.7 506.9 506.3C512.1 508.6 517.4 508.7 523 508.3C507.8 500.1 494.8 488 485.4 473.5C486.3 474.3 487.2 475.1 488.1 475.9C492.9 480 498.2 483.6 503.9 486.4C509.8 489.4 516.1 491.1 522.2 493.7C521.2 492.7 520.3 491.6 519.3 490.5C515.4 486.2 511.6 481.7 508 477.1C500.7 467.8 494 458 488.1 447.8C495.2 453.1 503.4 457 512.2 458.2C500 450.4 487.1 441.7 478.4 430.1C484 434.3 490.3 437.2 497.3 438.1C487.2 432.7 478.9 424.1 472.6 414.5C466.3 404.9 461.6 394.3 457.4 383.5C455.6 379 453.9 374.4 453 369.7C451.6 376.4 449.2 381.6 447.3 388.2C446.2 392.2 444.9 396.2 443.3 400C437.8 412.3 428.1 421.1 418.3 430.3C418.7 430.7 419.5 430.6 420 430.3C422.4 429.4 425 428.5 427.4 427.6C425 432.8 421.8 437.7 417.5 441.4C421.1 440.6 423.4 439.1 426.4 436.9C424.3 441.1 421.3 444.7 418.3 448.3C411.3 456.7 403.2 465 396.3 473.5C398.1 473.4 399.8 472.5 401.4 471.7C403.1 470.8 404.8 469.9 406.5 469C409.1 467.6 411.4 466.4 412.6 463.7C408.2 474.4 400.8 483.6 393.8 493C393.1 493.9 392.4 495.4 392.3 496.5C396.4 493 401.1 490.4 405.8 487.8C400.2 495.3 393.7 501.8 385.6 506.6C392 505.5 398.6 503.5 404.4 500.6C397.4 509.4 386.1 515.9 378.9 524.7C373.9 518 368.7 511.2 365.5 503.5C366.4 505.6 368.3 506.6 370.3 507.7C371.6 508.4 373 509.1 374.3 509.8C375.5 510.5 376.9 511.1 378.2 511.2C372.7 504.6 366.4 498.1 361 491.4C358.7 488.6 356.3 485.7 354.7 482.5C357.1 484.2 358.8 485.4 361.7 486.1C358.3 483.2 355.8 479.4 353.9 475.3C355.8 476 357.8 476.7 359.7 477.4C360.1 477.6 360.7 477.7 361 477.4C353.3 470.2 345.7 463.3 341.5 453.7C340.2 450.7 339.2 447.6 338.3 444.5C336.8 439.3 335 435.3 333.9 430C333.2 433.7 331.8 437.3 330.5 440.8C327.2 449.2 323.6 457.5 318.6 465.1C313.6 472.6 307.2 479.4 299.3 483.6C304.8 482.9 309.7 480.6 314.1 477.3C307.3 486.4 297.2 493.2 287.7 499.3C294.6 498.4 301 495.3 306.5 491.1C301.9 499.1 296.6 506.8 290.9 514.1C288.1 517.7 285.1 521.2 282.1 524.6C281.4 525.4 280.6 526.3 279.8 527.1C284.5 525.1 289.5 523.7 294.1 521.3C298.5 519.1 302.7 516.3 306.4 513.1C307.1 512.5 307.8 511.9 308.5 511.2C301.2 522.6 291 532.1 279.1 538.5C283.5 538.9 287.6 538.7 291.7 537C281.5 545.9 270.9 553.5 259.2 560.4C263.9 560 267.6 559.3 272.3 558.9C275.1 558.6 278 558.3 280.2 556.7C274.6 565.2 267.3 572.7 259.5 579.2C266.2 577.1 272.7 576.6 279.5 574.7C284.1 573.4 288.7 571.7 292.7 569.3C286.6 577.2 278.8 583.7 271.1 590.1C268.3 592.4 265.5 594.7 262.5 596.6C266.8 595.3 270.3 594.5 274.4 592.9C277.3 591.8 280.2 590.6 282.3 588.5C279.6 591.9 276.7 595.1 273.7 598.2H456.1C456.1 598.1 456.2 598 456.2 597.9C456.2 598 456.3 598.1 456.3 598.2H499.3C499.2 597.9 499.2 597.6 499.1 597.4C499.4 597.7 499.6 598 499.9 598.2H661C657.9 595.1 655 591.9 652.4 588.5C655.2 590.4 658.2 591.6 661 592.7ZM375.7 536.3C374.5 535.1 373.3 533.8 372.2 532.5C373.9 533.3 375.7 534.1 377.5 534.7C376.9 535.2 376.3 535.8 375.7 536.3ZM385.1 551.8C383.3 550 381.7 547.9 380.7 545.5C380.8 545.5 381 545.5 381.1 545.5C382.9 547 385 548.5 387.1 549.8C386.4 550.5 385.8 551.2 385.1 551.8ZM392 544.9C391 545.9 389.9 546.9 388.9 547.9C388 547 387 546.1 386.1 545.3C388.3 545.1 390.4 544.8 392.6 544.4C392.4 544.5 392.2 544.7 392 544.9ZM384.7 528.6C383.2 529.9 381.7 531.2 380.3 532.5C376.9 529.6 373.9 526.2 371.1 522.5C374.8 524.5 378.5 526.5 381.7 529.3C381.6 528.4 381 527.3 380.5 526.6C380.2 526.3 380 525.9 379.7 525.6C384.9 524 389.9 520.4 394.1 516.9C392.3 521.5 388.5 525.2 384.7 528.6ZM536.4 590.6L536.3 590.5C536.4 590.4 536.5 590.3 536.6 590.3C536.5 590.4 536.5 590.5 536.4 590.6ZM533.5 587.9C528.3 582.9 523.3 577.5 518.9 571.9C521.7 574.6 525.4 576.1 529.1 577.5C532 578.6 534.6 579.4 537.3 580.2C535.2 581.1 532.9 581.9 530.8 582.7C534.9 582.8 539 582.5 543.1 581.8C543.5 581.9 544 582.1 544.4 582.2C544.1 582 543.9 581.9 543.7 581.7C545 581.5 546.3 581.2 547.6 580.9C543 583.6 538.3 586 533.5 587.9ZM553.9 567.1C550.7 570.1 547.9 573.5 544.4 576.1C542.9 577.2 541.3 578.1 539.7 579C537.5 577.4 535.4 575.6 533.3 573.9C523.4 565.8 513.4 557.4 505.6 547.4C510.8 550.5 516.7 552.6 522.5 554.3C529.5 556.3 536.2 557.1 543 558.7C539.8 561.4 536.6 563.9 533.1 566.2C540.1 567.9 547.3 568.1 554.3 566.7C554.2 566.9 554.1 567 553.9 567.1Z" fill="black"/>
<path d="M1913.6 584.7C1902.6 582.4 1891.9 578.2 1882.3 572.2C1888.4 573.7 1894.6 574.4 1900.9 574.2C1895.6 572.3 1890.2 570.3 1885.7 567C1881.8 564.2 1878.7 560.4 1875.2 557.1C1875 556.9 1874.9 556.8 1874.7 556.6C1882.4 558.1 1890.4 558 1898.1 556C1892.2 552.2 1886.8 547.5 1881.5 542.9C1878.2 540 1874.9 536.8 1873.4 532.7C1877.3 536 1882.1 539.4 1887.1 540.6C1880.9 532.5 1870.6 526.8 1864.3 518.8C1869.3 521.3 1875.1 523 1880.6 524C1873.6 519.9 1868 514.2 1863.1 507.8C1867.2 510 1871.3 512.2 1874.8 515.3C1874.6 514.3 1874 513.1 1873.5 512.3C1867.5 504.2 1861.1 496.3 1857.3 487C1858.3 489.3 1860.4 490.4 1862.6 491.6C1864.1 492.4 1865.5 493.1 1867 493.9C1868.4 494.6 1869.8 495.4 1871.4 495.5C1865.4 488.2 1858.4 481 1852.3 473.7C1849.7 470.6 1847.1 467.4 1845.3 463.9C1847.9 465.8 1849.9 467.1 1853 467.8C1849.2 464.6 1846.5 460.4 1844.4 455.9C1846.5 456.7 1848.7 457.5 1850.8 458.3C1851.3 458.5 1851.9 458.6 1852.3 458.3C1843.8 450.4 1835.4 442.8 1830.7 432.2C1829.2 428.9 1828.2 425.5 1827.2 422C1825.6 416.3 1823.5 411.8 1822.3 406.1C1821.5 410.2 1820 414.1 1818.5 418C1814.8 427.3 1810.9 436.4 1805.4 444.7C1799.9 453 1792.8 460.4 1784 465.1C1790 464.3 1795.5 461.8 1800.3 458.2C1792.7 468.2 1781.6 475.7 1771.1 482.4C1778.7 481.4 1785.8 478 1791.9 473.4C1786.8 482.2 1781 490.7 1774.7 498.7C1771.6 502.7 1768.3 506.5 1765 510.3C1764.2 511.2 1763.3 512.1 1762.5 513C1767.8 510.8 1773.2 509.3 1778.3 506.7C1783.2 504.2 1787.8 501.1 1791.9 497.6C1792.7 496.9 1793.5 496.2 1794.3 495.5C1786.3 507.9 1775.2 518.2 1762.3 525.3C1753.9 519.4 1745.9 513.2 1738 506.3C1743.5 508.7 1749.1 508.9 1755.1 508.4C1739 499.7 1725.2 486.8 1715.2 471.4C1716.2 472.3 1717.1 473.1 1718.1 474C1723.2 478.4 1728.9 482.1 1734.8 485.2C1741.1 488.4 1747.8 490.3 1754.2 493C1753.2 491.9 1752.1 490.8 1751.1 489.6C1747 485 1743 480.2 1739.1 475.3C1731.4 465.4 1724.3 455 1718 444.1C1725.5 449.8 1734.2 453.9 1743.6 455.2C1730.6 446.9 1717 437.6 1707.7 425.3C1713.7 429.8 1720.3 432.9 1727.7 433.9C1716.9 428.1 1708.2 419 1701.5 408.8C1694.8 398.6 1689.9 387.3 1685.4 375.8C1683.5 371 1681.7 366.2 1680.7 361.1C1679.2 368.2 1676.7 373.7 1674.7 380.8C1673.5 385.1 1672.2 389.3 1670.4 393.3C1664.6 406.4 1654.3 415.8 1643.9 425.5C1644.3 426 1645.1 425.8 1645.7 425.5C1648.2 424.5 1651 423.6 1653.6 422.6C1651 428.1 1647.7 433.3 1643 437.3C1646.9 436.5 1649.3 434.8 1652.5 432.5C1650.2 436.9 1647 440.8 1643.9 444.6C1636.5 453.6 1627.9 462.4 1620.5 471.4C1622.4 471.3 1624.2 470.4 1625.9 469.5C1627.7 468.6 1629.5 467.6 1631.3 466.6C1634.1 465.1 1636.5 463.8 1637.8 460.9C1633.1 472.3 1625.3 482.1 1617.9 492.1C1617.2 493.1 1616.5 494.6 1616.3 495.8C1620.6 492.1 1625.6 489.3 1630.7 486.6C1624.7 494.5 1617.8 501.5 1609.2 506.6C1616 505.4 1623 503.3 1629.2 500.2C1621.4 510 1608.8 517.1 1601.2 527C1607.3 525.5 1613.2 521.3 1618 517.3C1616.2 522.4 1612.1 526.3 1608.1 529.9C1602.6 534.7 1597 539.5 1591 543.8C1588.3 541.7 1585.6 539.5 1583 537.2C1587.1 539 1591.2 539.1 1595.6 538.7C1583.7 532.3 1573.5 522.8 1566.2 511.4C1566.9 512 1567.6 512.7 1568.3 513.3C1572.1 516.5 1576.2 519.3 1580.6 521.5C1585.2 523.9 1590.1 525.2 1594.9 527.3C1594.2 526.5 1593.4 525.7 1592.6 524.8C1589.6 521.4 1586.6 517.9 1583.8 514.3C1578.1 507 1572.9 499.3 1568.2 491.3C1573.8 495.5 1580.2 498.5 1587 499.5C1577.5 493.4 1567.4 486.6 1560.6 477.5C1565 480.8 1569.9 483.1 1575.4 483.8C1567.5 479.6 1561.1 472.8 1556.1 465.3C1551.1 457.8 1547.5 449.4 1544.2 441C1542.8 437.5 1541.5 433.9 1540.8 430.2C1539.7 435.5 1537.8 439.5 1536.4 444.7C1535.5 447.8 1534.6 451 1533.2 453.9C1528.9 463.5 1521.3 470.4 1513.7 477.6C1514 477.9 1514.6 477.8 1515 477.6C1516.9 476.9 1518.9 476.2 1520.8 475.5C1518.9 479.6 1516.4 483.4 1513 486.3C1515.8 485.7 1517.6 484.5 1520 482.7C1518.3 486 1516 488.8 1513.7 491.6C1508.3 498.2 1501.9 504.7 1496.5 511.4C1497.9 511.3 1499.2 510.6 1500.5 510C1501.8 509.3 1503.1 508.6 1504.5 507.9C1506.5 506.8 1508.4 505.9 1509.3 503.7C1505.8 512.1 1500.1 519.3 1494.6 526.7C1494.1 527.4 1493.5 528.6 1493.4 529.4C1496.6 526.6 1500.3 524.6 1504 522.6C1499.6 528.4 1494.5 533.6 1488.2 537.3C1493.2 536.4 1498.4 534.8 1502.9 532.6C1497.2 539.8 1487.8 545 1482.3 552.4C1486.8 551.3 1491.1 548.2 1494.6 545.2C1493.3 548.9 1490.3 551.8 1487.3 554.5C1482.5 558.7 1477.6 562.9 1472.3 566.4C1479.3 568.1 1486.5 568.3 1493.5 566.9C1493.4 567 1493.2 567.2 1493.1 567.3C1489.9 570.3 1487.1 573.7 1483.6 576.3C1479.5 579.3 1474.6 581.1 1469.8 582.9C1475.4 583 1481.1 582.4 1486.6 581.1C1477.9 586.5 1468.3 590.3 1458.3 592.4C1464.5 593.6 1470.8 594.4 1475.8 590.5C1473.7 594 1470.1 596.3 1466.5 598.3H1474.1C1474.3 598.1 1474.5 597.9 1474.7 597.8C1474.5 598 1474.4 598.2 1474.2 598.3H1902.5C1900.3 595.7 1898.2 593.1 1895.8 590.8C1899.2 594.1 1903.2 596.5 1907.4 598.3H1917.5C1913.6 596.2 1909.7 594 1905.8 591.9C1901.5 589.6 1897 587 1894.5 582.8C1899.7 586.9 1906.7 586 1913.6 584.7ZM1581.7 569.1C1584.9 571 1588.4 572.5 1592 573.6C1590.5 574.3 1588.9 574.9 1587.3 575.5C1585.3 573.5 1583.4 571.4 1581.7 569.1ZM1591.5 579.7C1591.4 579.6 1591.3 579.5 1591.2 579.4C1591.6 579.2 1591.9 578.9 1592.3 578.6C1592 579 1591.7 579.3 1591.5 579.7ZM1594.3 556.6C1596.6 558.3 1599.5 558.6 1602.2 558.8C1602.6 558.8 1602.9 558.9 1603.3 558.9C1603.1 559 1602.9 559.2 1602.8 559.3C1601.4 560.3 1599.9 561.3 1598.4 562.1C1596.9 560.4 1595.6 558.5 1594.3 556.6ZM1603.3 568C1603 567.6 1602.6 567.2 1602.3 566.8C1603.9 566.5 1605.4 566.2 1607 565.8C1605.7 566.6 1604.5 567.3 1603.3 568ZM1615.7 547.2C1612.9 549.9 1610.2 552.8 1607.4 555.5C1603.4 552.9 1599.6 550.3 1595.8 547.5C1602.6 548.3 1609.6 548.1 1616.3 546.7C1616.1 546.8 1615.9 547 1615.7 547.2ZM1761 535.6C1759.7 536.5 1758.5 537.4 1757.2 538.4C1755.9 536.6 1754.6 534.8 1753.3 533C1755.5 534.5 1758.2 535.2 1761 535.6ZM1736.2 549.9C1741.6 553.1 1747.7 555.4 1753.8 557.1C1752 559.1 1750.1 561.1 1748.1 563C1743.9 558.9 1739.8 554.5 1736.2 549.9ZM1754.4 580.9C1753 579.3 1751.6 577.6 1750.2 575.9C1751.8 577.5 1753.8 578.7 1755.8 579.7C1755.4 580.1 1754.9 580.5 1754.4 580.9ZM1759.8 587C1759.1 586.3 1758.4 585.5 1757.8 584.8C1759.5 584.1 1761.2 583.4 1762.7 582.5C1763 582.6 1763.3 582.7 1763.5 582.8C1762.3 584.2 1761.1 585.6 1759.8 587ZM1761.7 574.8C1758.7 572.3 1755.8 569.8 1752.9 567.3C1756 566.7 1759.1 566.1 1762.3 565.2C1766 564.2 1769.7 562.9 1773.2 561.2C1773.8 561.3 1774.4 561.5 1775 561.6C1770.9 566.4 1766.4 570.7 1761.7 574.8ZM1762.9 545.5C1762.9 545.5 1763 545.5 1762.9 545.5C1763 545.5 1763 545.5 1762.9 545.5ZM1768.6 529.7C1766.6 528.4 1764.6 527 1762.6 525.6C1767.1 525.9 1771.4 525.7 1775.6 523.8C1773.3 525.9 1771 527.8 1768.6 529.7ZM1776.8 559.4C1776.7 559.4 1776.7 559.4 1776.8 559.4C1776.8 559.3 1776.9 559.3 1776.9 559.2C1776.9 559.3 1776.8 559.4 1776.8 559.4Z" fill="black"/>
</g>
</svg>
