<svg width="1801" height="800" viewBox="0 0 1801 800" fill="none" xmlns="http://www.w3.org/2000/svg">
<path d="M37 0C39.9 97.2 54.6 352.8 130.6 435.6C195.5 506.4 286.5 484 352.1 554.1C417.6 624.2 385 672.5 464.6 726.1C593.1 812.6 677.1 712.2 823.1 720.6C962.8 728.6 1040.3 778.7 1179 760.8C1300.6 745.1 1288.6 681.6 1370.1 605.6C1451.6 529.6 1536 557.8 1631.1 475.6C1739.3 382 1759.9 92.9 1763.7 0H37Z" fill="url(#paint0_radial_52_1279)"/>
<path opacity="0.16" fill-rule="evenodd" clip-rule="evenodd" d="M358.7 561.4C356.6 559 354.4 556.6 352.1 554.1C319.438 519.172 280.487 507.174 241.631 495.205C205.062 483.941 168.578 472.702 137.5 442.4C145.6 442.3 153.7 441.7 161.5 440.1C155.5 439.1 149.7 436.9 144.2 434.4C140.401 432.665 136.889 430.666 133.383 428.671C129.414 426.412 125.454 424.159 121.1 422.3C134 422.5 147.2 421.1 159.6 417.6C156 417.3 152.9 415.2 150 413.2C147.739 411.663 145.663 410.31 143.613 408.974L143.603 408.968L143.602 408.967C141.121 407.351 138.68 405.76 136 403.9C153 406.9 169.5 408.3 186.7 408.1C181.3 406.5 177.2 403.2 173.2 399.2C190 402.7 207.7 402 224.1 397C222.9 397.1 221.7 397.1 220.5 397.1C214.2 397.1 207.9 396.4 201.8 394.9C198.048 394.021 194.467 392.694 190.878 391.365L190.877 391.364L190.876 391.364C188.343 390.426 185.806 389.486 183.2 388.7C183.899 388.6 184.598 388.525 185.297 388.45L185.3 388.45L185.302 388.45C186.001 388.375 186.7 388.3 187.4 388.2C193.1 387.4 198.8 386.5 204.5 385.3C216 382.9 227.3 379.8 238.4 375.9C229.6 375.4 220.8 373.1 213.4 368.3C227.7 370.2 243 371.9 257.1 368.8C250.1 368.4 243.5 366.5 237.6 362.7C248.7 365.1 260.5 363.9 271.5 360.7C282.5 357.5 292.8 352.4 302.9 347C307.1 344.8 311.4 342.4 315.1 339.4C313.189 342.983 311.884 346.351 310.547 349.804L310.547 349.805C309.645 352.134 308.728 354.502 307.6 357C305.9 360.8 304.3 364.5 303.1 368.5C299.483 381.011 301.026 393.713 302.591 406.605L302.7 407.5C302.2 407.5 301.7 406.9 301.4 406.4C300.8 405.301 300.125 404.152 299.451 403.002L299.45 403C298.775 401.85 298.1 400.7 297.5 399.6C296 405.1 295.3 410.8 296.2 416.4C293.9 413.4 293.2 410.8 292.3 407.2C291.293 411.41 291.208 415.704 291.124 419.928V419.929C291.116 420.32 291.108 420.71 291.1 421.1C291 426.7 291.2 432.5 291.4 438.3L292.362 437.917C301.839 434.149 311.274 430.397 319.4 424.4C316.9 426 314.3 425.9 311.4 425.7L305.7 425.4C304 425.3 302.1 425.1 300.5 424.3C305.65 422.5 311 420.9 316.35 419.3C321.7 417.7 327.05 416.1 332.2 414.3C332.584 414.16 332.968 414.021 333.353 413.882C337.365 412.431 341.349 410.99 345 408.8C341.2 409.1 338.5 409.2 335 408C340.7 407.2 345.8 404.6 350.6 401.5C348.775 401.208 346.843 400.81 344.961 400.421C344.265 400.277 343.575 400.135 342.9 400C342.4 399.9 341.6 399.7 341.5 399.1C342.022 398.992 342.543 398.885 343.064 398.778L343.099 398.771L343.111 398.769C355.647 396.194 367.851 393.688 378.4 386.4C381.8 384 384.9 381.3 387.9 378.5C389.96 376.566 391.984 374.88 393.989 373.21L393.989 373.21C396.752 370.908 399.476 368.64 402.2 365.8C400.5 370.3 399.6 375.1 398.8 379.8C396.8 391.1 395.3 402.5 395.7 413.9C396.1 425.3 398.7 436.9 404.5 446.7C399.1 442.3 395.2 436.6 392.6 430.1C394.1 444.4 400.5 458.5 406.9 471.4C400.1 465.9 395.1 458.3 391.8 450.1C391.5 461.9 392.2 473.7 393.6 485.3C394.3 491.1 395.2 496.8 396.3 502.5C396.499 503.899 396.799 505.298 397.099 506.697L397.099 506.698L397.099 506.699L397.1 506.7C395.557 504.564 393.936 502.538 392.324 500.522C389.86 497.441 387.415 494.385 385.3 491C382 485.6 379.3 479.9 377.3 473.9C377.219 473.658 377.138 473.419 377.058 473.183C376.742 472.251 376.439 471.358 376.2 470.4C376.6 487.5 381.5 504.5 390.2 519.3C385.1 516.8 380.8 513.9 377.5 509.3C382.8 525.7 389.3 540.8 397.5 556C394.852 554.055 392.584 552.256 390.301 550.445L390.301 550.445L390.299 550.443L390.297 550.442C388.356 548.902 386.405 547.354 384.2 545.7C381.3 543.6 378.4 541.3 377 538C377.5 550.9 380.5 563.8 384.7 576C381.518 572.387 378.075 569.298 374.621 566.198C371.67 563.55 368.71 560.895 365.9 557.9C361.7 553.5 357.8 548.6 355 543.3C355.6 549.4 357 555.4 358.7 561.4ZM285.4 441.3C285 439.7 284.8 438.2 285.3 436.5C284.3 439.7 283.5 443 282.9 446.4L282.901 446.4C284.3 446.2 285.7 446 287 445.7C286.9 445.5 286.825 445.3 286.75 445.1C286.675 444.9 286.6 444.7 286.5 444.5C286.326 443.92 286.118 443.374 285.916 442.842C285.769 442.456 285.626 442.078 285.5 441.7C285.457 441.7 285.415 441.705 285.372 441.712C285.315 441.721 285.257 441.736 285.2 441.75C285.155 441.761 285.111 441.772 285.066 441.781C285.011 441.792 284.955 441.8 284.9 441.8L285.4 441.3ZM274.9 459.8V460.3C275 460.2 275.2 460.1 275.3 460.1C275.3 460.05 275.275 460 275.25 459.95C275.225 459.9 275.2 459.85 275.2 459.8H274.9ZM282.15 451.85L282.149 451.853L282.149 451.854C282.074 452.628 281.999 453.401 281.9 454.2C284.7 453.8 287.4 453.2 290 452.4C289.7 451.9 289.4 451.4 289.2 450.9C286.9 450.6 284.6 450.1 282.4 449.5C282.3 450.299 282.225 451.072 282.15 451.846L282.15 451.847L282.15 451.85ZM291.4 451.3V452.1C291.6 452.033 291.788 451.967 291.977 451.9C292.355 451.767 292.733 451.633 293.2 451.5C292.9 451.45 292.6 451.425 292.3 451.4C292 451.375 291.7 451.35 291.4 451.3ZM291.25 442.85C291.275 443.425 291.3 444 291.3 444.6C294.5 443.7 297.7 442.6 300.9 441.3C300.119 441.276 299.333 441.245 298.543 441.215L298.532 441.214H298.532H298.531C296.088 441.12 293.615 441.025 291.2 441.1C291.2 441.7 291.225 442.275 291.25 442.85ZM1091.6 727.1C1087.9 725.7 1084.2 724.2 1081.4 721.6C1093.1 736.1 1107.8 748.8 1123.2 758.8C1108.6 758 1094.7 755.4 1081.1 750.2C1085.6 755 1090.3 759.6 1095.2 763.9C1090.2 763.6 1085.2 763.2 1080.2 762.8C1073.6 758.2 1067.9 752.5 1062.2 746.8C1063.1 751.9 1065.2 756.8 1067.7 761.5C1062.1 760.9 1056.6 760.2 1051.2 759.4C1047.9 756.7 1044.8 753.7 1041.9 750.4C1042.2 753.1 1042.7 755.7 1043.4 758.3C1036.4 757.2 1029.4 756 1022.5 754.7C1021.4 752.4 1020.4 750 1019.5 747.6C1018.8 749.7 1017.9 751.7 1017 753.7C1001.52 750.705 986.135 747.335 970.505 743.909L970.502 743.909L970.5 743.908C930.813 735.212 889.512 726.161 840.8 722C841.5 721.2 842.2 720.4 842.8 719.6C841.9 720.5 840.8 721.3 839.7 721.9C838.15 721.8 836.625 721.675 835.1 721.55H835.099H835.098C833.573 721.425 832.049 721.3 830.5 721.2C838.9 714.3 847.5 707.1 854.2 698.5C849.7 701.2 844.7 703.1 839.6 704.5C836.114 705.476 832.694 706.128 829.288 706.777C825.365 707.525 821.461 708.269 817.5 709.5C826.2 702.3 834.2 694 840.4 684.7C837.914 686.589 834.737 686.897 831.653 687.195L831.6 687.2C829 687.45 826.675 687.75 824.35 688.05C822.025 688.35 819.7 688.65 817.1 688.9C830 681.3 841.7 673 853 663.2C848.5 665.2 844 665.3 839.1 664.9C852.2 657.8 863.5 647.3 871.6 634.8L869.2 636.9C865.1 640.4 860.5 643.5 855.6 646C852.508 647.576 849.269 648.748 846.04 649.917C843.942 650.676 841.847 651.434 839.8 652.3C840.2 651.85 840.625 651.4 841.05 650.95C841.279 650.707 841.508 650.464 841.734 650.222C841.854 650.092 841.973 649.962 842.091 649.832C842.161 649.755 842.231 649.677 842.3 649.6L842.301 649.598C845.601 645.799 848.9 641.999 852 638C858.3 630 864.1 621.5 869.2 612.7C863.1 617.3 856 620.7 848.4 621.7C858.9 615 870 607.5 877.6 597.5C872.8 601.1 867.3 603.6 861.3 604.4C870.1 599.7 877.2 592.3 882.7 584C888.2 575.7 892.2 566.6 895.8 557.3C897.3 553.4 898.8 549.5 899.6 545.4C900.307 548.76 901.327 551.703 902.373 554.721L902.373 554.721L902.374 554.723C903.102 556.823 903.843 558.961 904.5 561.3C905.5 564.8 906.6 568.2 908 571.5C912.553 581.769 920.579 589.223 928.804 596.861L928.805 596.862L929.6 597.6C929.2 597.9 928.6 597.8 928.1 597.6C927.052 597.201 925.98 596.802 924.908 596.403L924.9 596.4L924.316 596.183L923.846 596.008C923.124 595.738 922.406 595.469 921.7 595.2C923.8 599.7 926.5 603.9 930.3 607.1C927.2 606.4 925.2 605.1 922.6 603.2C924.4 606.7 927 609.9 929.6 613C932.503 616.475 935.61 619.927 938.717 623.377C942.137 627.177 945.555 630.975 948.7 634.8C947.277 634.711 946.013 634.069 944.766 633.435L944.765 633.435C944.61 633.356 944.455 633.278 944.3 633.2C943.19 632.682 942.135 632.11 941.054 631.523C940.674 631.317 940.29 631.108 939.9 630.9L939.737 630.811C937.597 629.645 935.575 628.543 934.6 626.3C937.902 634.382 943.168 641.407 948.429 648.425C949.059 649.266 949.69 650.107 950.317 650.95C950.478 651.166 950.639 651.383 950.8 651.6C951.3 652.4 951.9 653.6 952.1 654.6C948.6 651.5 944.5 649.3 940.4 647.1C943.2 650.7 946.2 654.1 949.5 657.1C957.1 652.4 963.3 646.1 968.7 638.9C963.9 641.4 959.2 644 955.2 647.5C955.4 646.4 956 644.9 956.7 644C957.609 642.762 958.525 641.528 959.44 640.296L959.449 640.284L959.45 640.283C965.479 632.166 971.481 624.085 975.3 614.8C974.121 617.451 971.883 618.656 969.341 620.024L969.2 620.1C967.602 620.999 965.904 621.898 964.206 622.797L964.2 622.8C964.04 622.88 963.88 622.961 963.72 623.042C962.278 623.772 960.82 624.51 959.2 624.6C962.65 620.4 966.375 616.225 970.1 612.05L970.102 612.047C973.826 607.873 977.55 603.699 981 599.5L981.135 599.332L981.136 599.331C983.993 595.784 986.933 592.136 989 588.1C986 590.3 983.7 591.8 980.1 592.6C984.4 588.9 987.5 584.1 989.9 578.9C988.7 579.35 987.45 579.8 986.2 580.25C984.95 580.7 983.7 581.15 982.5 581.6C982 581.8 981.2 582 980.8 581.6L981.253 581.179C990.895 572.228 1000.28 563.512 1005.6 551.5C1007.3 547.7 1008.5 543.8 1009.6 539.8C1010.33 537.249 1011.13 534.923 1011.91 532.641L1011.91 532.64L1011.91 532.636C1013.14 529.016 1014.34 525.509 1015.2 521.4C1016.1 526.1 1017.8 530.6 1019.6 535.1C1023.8 545.8 1028.4 556.3 1034.8 565.8C1041.2 575.3 1049.4 583.8 1059.5 589.1C1052.6 588.2 1046.3 585.4 1040.7 581.2C1049.5 592.6 1062.3 601.2 1074.5 608.9C1065.8 607.8 1057.6 603.9 1050.5 598.7C1056.5 608.8 1063.2 618.5 1070.5 627.7C1074.1 632.3 1077.9 636.7 1081.8 641C1082.8 642 1083.8 643.1 1084.7 644.1C1082.38 643.135 1080.02 642.289 1077.66 641.442C1073.9 640.094 1070.12 638.742 1066.5 636.9C1060.9 634.1 1055.6 630.5 1050.8 626.5L1048.1 624.1C1057.5 638.5 1070.6 650.4 1085.7 658.5C1080 659 1074.8 658.8 1069.6 656.6C1082.6 667.9 1096.1 677.3 1111 686C1108 685.75 1105.33 685.425 1102.65 685.1L1102.65 685.1L1102.65 685.1L1102.64 685.099C1099.97 684.775 1097.3 684.45 1094.3 684.2C1090.8 683.9 1087.1 683.5 1084.2 681.4C1091.4 692 1100.6 701.6 1110.6 709.7C1106.07 708.33 1101.62 707.515 1097.16 706.699C1093.17 705.967 1089.17 705.235 1085.1 704.1C1079.3 702.5 1073.4 700.4 1068.2 697.3C1075.9 707.2 1086 715.5 1095.8 723.5C1096.12 723.759 1096.44 724.018 1096.76 724.276L1096.76 724.277L1096.77 724.28C1100.03 726.916 1103.25 729.515 1106.8 731.7C1105.12 731.203 1103.53 730.763 1101.97 730.334C1098.52 729.382 1095.25 728.478 1091.6 727.1ZM955.7 662.6C950.9 661.6 946 660 941.7 657.9C944.3 661.1 947.5 664 950.8 666.7C951.6 666 952.425 665.325 953.25 664.65L953.253 664.647L953.256 664.645C954.079 663.971 954.902 663.298 955.7 662.6ZM953.2 673.7C952.4 673.1 951.7 672.5 951 671.9C951.3 672.9 951.8 673.8 952.3 674.7C952.331 674.669 952.362 674.636 952.394 674.603C952.426 674.568 952.459 674.533 952.491 674.497C952.526 674.458 952.561 674.418 952.596 674.378C952.647 674.319 952.699 674.26 952.75 674.2C952.9 674.025 953.05 673.85 953.2 673.7ZM952.7 696.1L953.5 696.9C953.7 696.6 954 696.3 954.3 696C954.113 695.973 953.927 695.94 953.74 695.903C953.577 695.87 953.413 695.835 953.25 695.8C953.046 695.756 952.843 695.713 952.639 695.674C952.492 695.646 952.346 695.621 952.2 695.6L952.7 696.1ZM954.8 670.1C955 670.275 955.2 670.45 955.4 670.6C956 669.6 956.5 668.5 956.9 667.4C956.1 668.1 955.1 668.9 954.2 669.6C954.4 669.75 954.6 669.925 954.8 670.1ZM949.9 657.2C951.9 659 954.1 660.6 956.4 662.1L956.401 662.099C960.4 658.699 964.4 655.3 967.5 651.4C962 654.1 955.9 656.1 949.9 657.2ZM669.6 721.6C666.992 719.318 664.809 716.654 662.608 713.968L662.606 713.965C661.432 712.532 660.252 711.092 659 709.7C658.929 709.63 658.871 709.559 658.817 709.493L658.816 709.492C658.716 709.371 658.629 709.265 658.5 709.2C666.8 711.7 675.6 712.3 684.3 710.9C678.2 706.1 672.7 700.5 667.3 694.9C663.9 691.4 660.6 687.6 659.4 682.9C663.4 686.9 668.3 691.1 673.6 692.9C670.556 688.081 666.277 683.828 662.004 679.58C657.852 675.454 653.705 671.332 650.7 666.7C656 669.9 662.1 672.4 668.1 674C660.8 668.8 655.2 662 650.5 654.4C654.8 657.2 659.1 660.1 662.6 663.8C662.5 662.7 662 661.3 661.4 660.4C660.681 659.223 659.957 658.05 659.232 656.877L659.232 656.876C654.108 648.576 648.991 640.287 646.1 631C647 633.7 649.1 635.1 651.5 636.6C652.248 637.099 653.021 637.598 653.794 638.096L653.8 638.1L653.805 638.104C654.578 638.602 655.351 639.101 656.1 639.6C657.5 640.5 659.1 641.5 660.7 641.8C657.75 637.5 654.525 633.2 651.3 628.9C648.075 624.6 644.85 620.3 641.9 616C641.717 615.73 641.534 615.46 641.351 615.19C639.026 611.758 636.683 608.301 635.2 604.5C637.9 606.9 639.9 608.5 643.3 609.6C639.5 605.7 636.9 600.8 635 595.7C637.2 596.8 639.6 597.9 641.8 598.9L641.849 598.92C642.345 599.119 643.013 599.387 643.4 599L642.746 598.27L642.746 598.269C634.466 589.021 626.292 579.89 622.2 568.1C620.9 564.4 620.1 560.5 619.4 556.6C618.912 554 618.326 551.615 617.747 549.263C616.902 545.825 616.075 542.46 615.6 538.6C614.3 543 612.3 547.2 610.2 551.3C605.3 561.1 599.9 570.8 593.1 579.3C586.2 587.9 577.7 595.3 567.5 599.6C574.2 599.3 580.5 597.2 586.2 593.6C576.9 603.8 563.9 610.9 551.6 617.3C560.1 616.9 568.2 613.9 575.4 609.5C568.9 618.7 561.6 627.4 553.9 635.6C553.5 636.05 553.075 636.475 552.65 636.9C552.225 637.325 551.8 637.75 551.4 638.2C547.1 631.7 544.1 624.5 541.8 617C541.998 617.224 542.198 617.448 542.397 617.671C546.204 621.949 550.044 626.263 552.8 631.3C553 630.1 552.8 628.3 552.5 627.1C552.063 625.665 551.62 624.229 551.177 622.794C547.761 611.723 544.331 600.607 543.8 589.1C544 592.4 546 594.6 548.3 597C549.799 598.599 551.198 600.198 552.597 601.797L552.6 601.8C554 603.3 555.4 604.8 557.2 605.6C555.154 599.949 552.823 594.251 550.497 588.563L550.495 588.56C548.046 582.573 545.602 576.597 543.5 570.7C541.7 565.8 539.9 560.8 539.3 555.6C541.6 559.1 543.5 561.6 547 563.8C543.8 558.2 542.3 551.9 541.7 545.5C542.8 546.45 543.95 547.4 545.1 548.35C546.25 549.3 547.4 550.25 548.5 551.2C549 551.6 549.7 552.1 550.3 551.8C550.131 551.472 549.962 551.145 549.793 550.817L549.684 550.606C542.994 537.625 536.464 524.954 535.3 510.4C535 505.8 535.2 501.1 535.5 496.5C535.699 493.471 535.739 490.632 535.779 487.832V487.831C535.839 483.607 535.898 479.47 536.5 474.9C533.7 479.6 530.2 483.7 526.6 487.8C518.1 497.5 509.2 506.9 498.8 514.6C488.5 522.3 476.5 528.3 463.7 530.1C471.4 531.8 479.2 531.1 486.7 528.8C473.1 537.7 456.2 541.9 440.3 545.5C450 547.6 460.2 546.6 469.7 543.7C459.6 552.2 448.8 560 437.5 567C432 570.5 426.3 573.7 420.5 576.8C419.447 577.402 418.337 577.947 417.256 578.478C416.9 578.653 416.547 578.826 416.2 579C419.095 578.844 421.975 578.825 424.851 578.806C429.327 578.777 433.795 578.748 438.3 578.2C445.3 577.3 452.3 575.6 458.9 573.1C459.55 572.85 460.175 572.6 460.8 572.35C461.118 572.223 461.437 572.095 461.759 571.968C462.068 571.845 462.381 571.723 462.7 571.6C447.3 583.3 428.9 591.1 409.8 594C415.6 596.7 421.2 598.5 427.6 598.1C414.7 603.1 401.8 607.1 388.6 610.2C389.799 612.899 390.899 615.598 391.998 618.297L391.999 618.3L392 618.3C395.6 619.2 399.3 619.9 402.8 618.9C400.1 620.9 397.3 622.8 394.5 624.5C396.583 629.97 398.441 635.289 400.269 640.522L400.643 641.594C400.795 642.03 400.947 642.465 401.1 642.9C405.4 642.9 409.6 642.6 413.8 641.8C410.3 644 406.7 646 402.9 647.8C412.8 674.8 424.8 699.9 463.9 726.2C464.45 726.55 464.975 726.9 465.5 727.25C466.025 727.6 466.55 727.95 467.1 728.3C467.2 728.2 467.275 728.075 467.35 727.95C467.425 727.825 467.5 727.7 467.6 727.6C467.7 728 467.8 728.4 467.8 728.8C487.1 741.3 505.4 749.6 523.1 754.7C523.1 754.6 523.075 754.5 523.05 754.401L523.05 754.4C523.025 754.3 523 754.2 523 754.1C526 753.5 529.1 752.8 532.1 751.9C532.2 752 532.3 752.1 532.5 752.2C531.1 753.5 529.6 754.8 528.1 756C532.3 757.1 536.4 758 540.6 758.7C540.75 758.6 540.925 758.475 541.1 758.35C541.163 758.305 541.226 758.26 541.288 758.216C541.398 758.138 541.504 758.064 541.6 758C542.8 758.6 544.1 759.1 545.4 759.5C551.4 760.4 557.3 761 563.2 761.3C565.3 759.7 567.3 758.1 569.3 756.3L570.2 756.9C569.8 758.499 569.3 759.999 568.8 761.498L568.8 761.5C575.5 761.6 582.1 761.4 588.7 760.9C590 758.7 591.2 756.5 592.3 754.3C592.799 756.399 593.499 758.398 594.198 760.397L594.199 760.397L594.2 760.4C621.026 757.591 647.665 750.187 675.479 742.456L675.479 742.456C676.385 742.204 677.292 741.952 678.2 741.7C677.8 741.1 677.4 740.4 677 739.7C677.7 740.4 678.4 740.9 679.2 741.4C680.209 741.137 681.218 740.854 682.235 740.569C683.537 740.205 684.853 739.837 686.2 739.5C678.7 736.2 671.5 732 664.9 727.1C671.4 729.3 678.3 730.7 685.1 731.2C684.189 730.7 683.259 730.203 682.319 729.701L682.318 729.701C677.995 727.391 673.46 724.968 669.6 721.6ZM549.8 640C548.3 641.5 546.9 642.9 545.4 644.3C542.8 639.8 540.4 635.3 538.8 630.7C542.1 634.1 545.8 637.2 549.8 640ZM542.7 709.8C541.6 708.6 540.5 707.4 539.5 706.1L539.503 706.099C539.902 706 540.301 705.9 540.8 705.8C541.703 706.356 542.607 706.864 543.545 707.391C543.956 707.622 544.373 707.856 544.8 708.1C544.1 708.6 543.4 709.199 542.701 709.799L542.7 709.8ZM544 651.7C545.2 653.9 546.6 656.1 548.2 658.2C547.75 658.45 547.325 658.7 546.9 658.95C546.475 659.2 546.05 659.45 545.6 659.7C544.6 657.1 544 654.4 544 651.7ZM548.5 704.5C548.2 704.2 547.9 703.9 547.6 703.5C548.435 703.196 549.212 702.835 550.019 702.46C550.275 702.341 550.535 702.22 550.8 702.1C550 703 549.3 703.7 548.5 704.5ZM548.5 666.2C548.1 665.6 547.8 664.9 547.5 664.2C548.982 664.107 550.465 663.757 552.027 663.388L552.029 663.387L552.4 663.3L552.5 663.4C551.2 664.4 549.9 665.3 548.5 666.2ZM552 655.8C550.5 653.1 548.9 650.3 547.3 647.6L547.301 647.6C550.701 646.7 554.1 645.8 557.4 644.5C563 642.3 568.4 639.4 573.3 635.9C573.535 635.735 573.765 635.576 573.99 635.42C574.723 634.912 575.411 634.435 576.1 633.9C569.4 642.5 561.2 649.9 552 655.8ZM1625.5 474.1C1620.1 477 1614.4 479.4 1608.3 480.2C1611.37 481.778 1614.65 483.012 1618.08 484.301C1618.78 484.564 1619.49 484.829 1620.2 485.1C1576.26 519.583 1534.56 531.897 1494.29 543.787C1491.12 544.723 1487.95 545.658 1484.8 546.6L1485.1 543.6C1480.6 545.7 1475.9 547.4 1471.1 548.7C1471.05 548.8 1470.97 548.9 1470.9 549C1470.82 549.1 1470.75 549.2 1470.7 549.3L1474 549.9L1474 549.901C1468.5 551.601 1463 553.3 1457.6 555.2C1457.5 555.2 1457.4 555.175 1457.3 555.15C1457.2 555.125 1457.1 555.1 1457 555.1C1457.1 555.1 1457.2 555.2 1457.3 555.3C1427.7 565.6 1398.8 579.4 1370.3 606C1342.9 631.485 1326.09 655.629 1311.21 677.005C1307.46 682.386 1303.84 687.592 1300.2 692.6C1299.7 688.7 1299 684.8 1297.9 681C1293.6 694.5 1285.8 706.4 1277 717.5C1277.22 715.431 1277.49 713.334 1277.76 711.223C1278.86 702.723 1279.98 693.991 1277.9 685.9C1274.9 693.8 1271.8 701.8 1267.2 709C1262.6 716.1 1256.8 722.4 1249 725.7C1254.3 716.5 1258.5 706.7 1262 696.7C1251.7 707 1240 715 1227 721.6C1237.3 706.1 1245.7 688.6 1250.5 670.6C1249 674.1 1246.2 677 1243.4 679.7C1240.81 682.162 1238.38 684.146 1235.86 686.206C1234.39 687.408 1232.88 688.636 1231.3 690C1233.9 686.2 1236 682.2 1238.1 678.1L1238.36 677.574C1243.98 666.44 1249.75 655.011 1252.8 643C1249.3 647.9 1244.8 652.2 1240.1 656C1236.96 658.512 1233.76 660.683 1230.57 662.845C1226.65 665.502 1222.75 668.147 1219 671.4C1224.9 659.9 1229.5 647.5 1231.8 634.8C1230 637.9 1226.7 639.8 1223.6 641.5C1221.17 642.853 1219.01 644.14 1216.85 645.423C1214.39 646.891 1211.93 648.353 1209.1 649.9C1219.3 636 1227.8 621.9 1235.2 606.3C1231.4 610.4 1226.7 612.7 1221.3 614.5C1231.9 601 1239 584.8 1241.8 567.9L1240.3 571.2C1237.5 576.8 1234.1 582.2 1230.1 587C1227.61 590.027 1224.8 592.702 1221.98 595.381C1220.06 597.214 1218.13 599.049 1216.3 601C1216.8 599.7 1217.3 598.3 1217.7 597C1219.6 591.5 1221.2 585.9 1222.7 580.3C1225.7 568.9 1227.9 557.4 1229.3 545.7C1224.9 553.4 1219 560.2 1211.4 564.8C1219.4 552.8 1227.7 539.8 1231.1 525.8C1227.6 531.9 1223 537 1217 540.6C1224.1 531.7 1228.2 520.6 1230.2 509.3C1232.2 498 1232.2 486.5 1231.8 475.1C1231.6 470.3 1231.4 465.5 1230.3 460.8C1232.6 463.962 1234.96 466.529 1237.38 469.147C1239.16 471.083 1240.97 473.047 1242.8 475.3C1245.5 478.5 1248.2 481.6 1251.2 484.4C1260.78 493.199 1272.85 497.41 1285.16 501.706L1286 502C1285.7 502.5 1285 502.7 1284.4 502.7C1281.8 502.9 1279.1 503.1 1276.5 503.2C1280.8 507 1285.6 510.2 1291 511.8C1287.3 512.5 1284.6 512 1281 511.2C1284.44 513.972 1288.43 516.013 1292.36 518.021L1292.9 518.3C1297.75 520.75 1302.85 523.05 1307.95 525.35C1313.05 527.65 1318.15 529.95 1323 532.4C1321.55 533.033 1319.86 532.93 1318.22 532.831C1318.05 532.82 1317.87 532.81 1317.7 532.8C1316.75 532.75 1315.8 532.675 1314.85 532.6C1313.9 532.525 1312.95 532.45 1312 532.4C1309.1 532.2 1306.5 532 1304.3 530C1311.42 536.865 1320.09 541.815 1328.72 546.746C1330.15 547.562 1331.58 548.377 1333 549.2C1334 549.7 1335.2 550.8 1335.8 551.7C1331.12 550.231 1326.18 549.773 1321.3 549.321C1320.87 549.281 1320.43 549.241 1320 549.2C1328.1 553.7 1336.6 557.1 1345.9 558.2C1339.6 559.7 1332.7 560.5 1326.3 560.2C1331.32 562.815 1337.1 564.49 1342.9 566.168C1347.96 567.634 1353.03 569.102 1357.6 571.2C1358.3 568.6 1358.9 566 1359.5 563.4C1360.3 559.8 1361 556 1360 552.4C1358.9 556.5 1357.3 561.2 1354.5 564.5C1354.65 560.084 1355.84 555.562 1357.02 551.043C1358.14 546.762 1359.26 542.484 1359.5 538.3C1357.3 542.5 1354.2 546.5 1350.9 549.9C1353.7 543.7 1354.7 537 1354.9 530.2C1353.1 533.7 1351.4 537.3 1350.5 541.1C1350.1 540.4 1349.9 539.2 1349.9 538.4C1349.91 537.418 1349.93 536.436 1349.94 535.454C1350.06 527.938 1350.18 520.441 1348.5 513.1C1348.9 515.2 1348.1 517 1347.1 518.9C1346.63 519.775 1346.2 520.65 1345.79 521.494C1345.59 521.904 1345.4 522.307 1345.2 522.7C1345.12 522.852 1345.03 523.007 1344.95 523.164C1344.43 524.149 1343.86 525.21 1343 525.9C1343.25 521.9 1343.7 517.825 1344.15 513.75C1344.6 509.675 1345.05 505.6 1345.3 501.6C1345.6 498.2 1345.8 494.8 1345.3 491.4C1344.4 494 1343.7 495.9 1341.9 497.9C1342.9 493.8 1342.7 489.6 1341.9 485.5C1341.53 486.034 1341.15 486.567 1340.78 487.101C1340.02 488.167 1339.27 489.234 1338.6 490.3C1338.4 490.7 1338 491.1 1337.6 491L1337.66 490.706C1339.64 481.208 1341.58 471.902 1339.6 462.4C1339 459.4 1338 456.5 1337 453.7C1336.29 451.784 1335.74 449.954 1335.19 448.139C1334.42 445.597 1333.67 443.084 1332.5 440.4C1335.1 442.8 1338 444.8 1341 446.7C1348.1 451.2 1355.4 455.5 1363.2 458.5C1371 461.5 1379.6 463 1387.9 461.9C1383.4 464.3 1378.4 465.3 1373.3 465.2C1383.4 468.4 1394.7 468 1405.3 467.4C1399.6 470.4 1393.1 471.6 1386.6 471.5C1394.5 475 1402.6 477.9 1410.9 480.3C1415 481.5 1419.1 482.5 1423.3 483.4C1424.4 483.6 1425.4 483.8 1426.4 484C1424.63 484.415 1422.88 484.915 1421.14 485.414C1418.26 486.24 1415.39 487.064 1412.4 487.5C1407.9 488.2 1403.2 488.4 1398.6 488L1395.9 487.7C1407.6 492.3 1420.5 493.8 1433 492.2C1429.9 494.9 1426.7 497 1422.6 497.9C1431.5 498.7 1440.1 498.9 1448.8 498.5C1452.7 484.4 1453.5 469.5 1451.2 455C1451.1 456.2 1451 457.4 1450.8 458.6C1449.9 464.9 1448.4 471 1446.1 476.9C1444.69 480.63 1442.84 484.135 1440.97 487.667C1439.78 489.912 1438.59 492.168 1437.5 494.5V490.2C1437.5 484.4 1437.3 478.6 1436.9 472.8C1436.1 461.1 1434.5 449.4 1432.1 437.9C1430.4 446.6 1426.9 455 1421.2 461.7C1425 447.8 1428.7 432.9 1427.5 418.5C1426.2 425.4 1423.4 431.7 1418.9 437C1422.8 426.2 1423.2 414.4 1421.5 403.1C1419.8 391.8 1416.1 380.9 1412.1 370.2C1410.5 365.7 1408.7 361.2 1406.2 357.1C1409.52 359.517 1412.74 361.277 1416.04 363.085C1418.2 364.27 1420.4 365.475 1422.7 366.9C1426.2 369.1 1429.7 371.2 1433.5 372.9C1445.27 378.11 1457.88 378.293 1470.7 378.479L1472.1 378.5C1472.1 379.1 1471.4 379.5 1470.9 379.7C1469.7 380.15 1468.47 380.65 1467.25 381.15C1466.02 381.65 1464.8 382.15 1463.6 382.6C1468.9 384.8 1474.4 386.3 1480.1 386.1C1476.9 387.9 1474.2 388.3 1470.5 388.7C1474.9 390.3 1479.5 391 1484.1 391.7C1489.48 392.504 1495.06 393.081 1500.65 393.659C1506.18 394.231 1511.73 394.804 1517.1 395.6C1515.7 396.7 1513.9 397.2 1512.2 397.6C1511.3 397.85 1510.37 398.075 1509.45 398.3C1508.52 398.525 1507.6 398.75 1506.7 399C1503.8 399.8 1501.3 400.4 1498.6 399.2C1507.54 403.5 1517.38 405.434 1527.14 407.354C1528.73 407.666 1530.32 407.978 1531.9 408.3C1532.9 408.5 1534.4 409.1 1535.3 409.8C1529.9 410 1524.7 411.2 1519.5 412.5C1528.6 414.2 1537.8 414.7 1546.9 412.8C1541.5 416.3 1535.2 419.2 1529 421C1534.62 421.873 1540.62 421.617 1546.62 421.361C1553 421.09 1559.38 420.818 1565.3 421.9C1560.2 424.7 1553.5 425.5 1547.6 425.7C1552.1 428.1 1557.3 428.3 1562.4 428.2L1562.45 428.199C1570.54 427.999 1578.72 427.797 1586.7 426.5C1581.6 434.1 1574.9 440.5 1567.1 445.1H1567.9C1569.73 445.133 1571.57 445.244 1573.41 445.355C1577.11 445.577 1580.83 445.801 1584.5 445.4C1590.81 444.721 1596.74 442.347 1602.56 440.014L1603.1 439.8C1597.9 444.7 1592 449 1585.7 452.4C1598.4 450 1610.8 445.4 1622 438.9C1617.2 445.3 1611.9 451.5 1603.9 452C1609.2 453.6 1615 452.3 1620.5 451C1625.66 449.753 1630.81 448.539 1635.99 447.32C1639.95 446.388 1643.91 445.453 1647.9 444.5C1636.73 451.458 1624.88 458.031 1611.8 457.821C1615.6 457.953 1619.34 458.499 1623.07 459.044C1624.38 459.236 1625.69 459.427 1627 459.6C1628.03 459.747 1628.98 460.037 1629.95 460.331C1630.96 460.637 1631.98 460.947 1633.1 461.1C1635.05 461.4 1637 461.531 1638.95 461.662C1639.6 461.706 1640.25 461.75 1640.9 461.8C1638.59 463.135 1636.67 465.076 1634.75 467.028C1632.92 468.878 1631.09 470.738 1628.9 472.1C1627.8 472.8 1626.7 473.5 1625.5 474.1ZM1370.74 569.431C1370.77 569.334 1370.8 569.217 1370.8 569.1C1367.3 572.8 1363.2 575.9 1358.7 578.3C1362 579.3 1365.2 580.2 1368.5 581.1C1369.26 578.537 1369.69 575.83 1370.11 573.145C1370.3 571.954 1370.48 570.768 1370.7 569.6C1370.7 569.559 1370.72 569.5 1370.74 569.431ZM1356.56 574.055C1356.71 573.572 1356.85 573.086 1357 572.6C1352 572.8 1346.8 571.6 1342.2 570.3C1345.6 573.9 1350.6 575.8 1355.4 577.3H1355.5C1355.92 576.255 1356.24 575.162 1356.56 574.055ZM1368.4 600C1368.9 600.2 1369.3 600.3 1369.8 600.4C1370.1 599.1 1370.2 597.9 1370 596.6C1369.7 597.8 1369.1 599 1368.4 600ZM1360.43 597.079C1361.89 597.669 1363.35 598.255 1364.8 598.8C1367.1 595.6 1369.1 592.2 1370.7 588.6L1370.7 588.601C1368.8 589.601 1366.9 590.6 1364.9 591.4C1363.7 592.3 1362.5 593.2 1361.3 594C1361.5 593.7 1361.7 593.425 1361.9 593.15C1362.1 592.875 1362.3 592.6 1362.5 592.3C1359.9 593.3 1357.2 594.1 1354.4 594.7C1354.5 594.75 1354.62 594.8 1354.75 594.85C1354.87 594.9 1355 594.95 1355.1 595C1356.9 595.655 1358.67 596.37 1360.43 597.079ZM1463.6 526.4L1463 521.6C1462.6 523.2 1461.9 524.7 1461 526.2C1461.41 526.251 1461.85 526.276 1462.3 526.302C1462.72 526.326 1463.16 526.351 1463.6 526.4ZM1439.1 522.6C1443.1 523.8 1447.2 524.5 1451.3 525.1C1451.8 523.2 1452.2 521.3 1452.6 519.2C1452.57 519.234 1452.52 519.257 1452.47 519.276C1452.36 519.312 1452.23 519.334 1452.1 519.4C1447.9 521 1443.5 522.2 1439.1 522.6ZM1441.9 506.4C1446 507.9 1450.3 509.1 1454.6 510L1456.4 499.8C1454 501.1 1451.8 502.3 1449.2 503.8C1449.05 503.85 1448.92 503.925 1448.8 504C1448.67 504.075 1448.55 504.15 1448.4 504.2C1448.1 504.45 1447.77 504.7 1447.45 504.95C1447.12 505.2 1446.8 505.45 1446.5 505.7C1446.53 505.644 1446.55 505.589 1446.56 505.533C1446.61 505.389 1446.63 505.244 1446.7 505.1C1445.2 505.8 1443.6 506.4 1441.9 506.4ZM1455.4 498C1455.77 497.975 1456.15 497.95 1456.5 497.9L1457.1 493.4C1456.3 495.1 1455.4 496.7 1454.3 498.1C1454.65 498.05 1455.02 498.025 1455.4 498ZM1463.9 530.9C1461.8 531.5 1459.6 531.8 1457.4 531.5C1459.6 532.1 1461.8 532.6 1464 533.1L1464 533.1C1464 532.877 1463.99 532.661 1463.98 532.451C1463.95 531.909 1463.9 531.405 1463.9 530.9ZM1479.7 535.4C1481.7 535.6 1483.6 535.7 1485.6 535.8C1485.8 531.4 1485.8 527 1485.5 522.6C1484.1 527 1482.1 531.3 1479.7 535.4Z" fill="black"/>
<path opacity="0.6" d="M183.5 349.7C185 349.7 185 353.7 187.8 350V347.2C185.6 346.9 183.8 345.7 183.5 349.7ZM210.4 475.6C211.3 475.9 211.9 476.8 212.8 476.8C213.1 476.5 216.8 476.5 214.9 474.3C212.2 473.4 211.9 471.9 210.4 475.6ZM211.9 505.6C212.8 506.2 213.1 509.6 215.6 508.1C215.9 506.9 219.3 507.2 216.2 504.7C214.3 504.4 213.4 502.2 211.9 505.6ZM219.2 431.8C220.7 435.2 218.3 435.2 222.6 434.6C222.6 434.3 225.3 433.1 224.1 431.5C222.9 431.5 220.4 430.6 219.2 431.8ZM248.8 457.2C248.8 460 250 459.3 253.1 456.6C251.9 455.7 251.3 453.5 248.8 455.7C248.8 456.3 248.8 456.6 248.8 457.2ZM262.6 363.8C263.5 364.4 263.2 368.1 266 365.9C266.6 365 268.4 365 268.1 363.1C265.9 361.9 265.6 360.1 262.6 363.8ZM268.7 50.7C268.7 51.3 268.7 52.2 269 53.2C271.4 55 271.1 56.6 274.2 53.8C274.5 52 275.1 51 274.2 48.9C271.4 48.9 269 48.9 268.7 50.7ZM290.1 432.4C291.3 433.9 291 435.2 293.5 432.7C292.5 430.9 291.9 430.3 290.1 432.4ZM302.299 84.4C302.299 84.7 302.299 85 302.299 85.3C304.7 87.4 305.7 87.1 306 83.5C303.8 82.9 302.6 82.3 302.299 84.4ZM305.9 28.4C306.8 30.2 306.2 30.2 308 30.2C308.3 29.3 310.4 29.3 309.2 27.4C308.1 27.1 306.5 24.7 305.9 28.4ZM332.5 159.2C332.5 159.8 332.5 160.4 333.1 161.3C336.5 162.5 338 161.3 336.5 157.6C334.3 157.3 332.5 157.6 332.5 159.2ZM334 448.3C335.5 449.8 335.2 450.8 337.7 449.8C337.4 448.3 338.9 448 337.1 446.1C334.6 446.8 334.9 446.2 334 448.3ZM336.2 114.8C335.9 116 336.799 117.3 338.9 117.6C341.6 116.7 344.7 114.2 339.5 112.7C337.7 112.6 336.5 113.8 336.2 114.8ZM345.6 46.7C348.3 49.5 348.7 47.9 349 45.2C346.9 44.9 346.2 44.3 345.6 46.7ZM349.6 516.6C353 518.4 351.699 519.7 353.299 515.4C351.999 515.7 351.1 509.6 349.6 516.6ZM349.9 415.5C349.9 415.8 349.9 416.4 350.5 416.4C351.4 416.1 352.3 416.1 353.2 415.5C352.3 415.2 353.199 411.2 349.799 414.3C349.9 414.6 349.9 414.9 349.9 415.5ZM376.5 80.8C377.4 83.3 378.6 84.2 381.1 82C380.1 78.9 378.3 77.1 376.5 80.8ZM378 104.3C378.6 106.4 380.4 109.2 382.299 104.9C381.1 103.1 378.9 101 378 104.3ZM399.4 51.7C399.4 52 399.4 52.6 399.4 53.2C400.6 54.7 400.3 55 402.1 54.7C403 52.9 403 52.9 402.1 51C400.3 51 399.4 50.7 399.4 51.7ZM404.6 619.6C404.6 620.2 405.2 621.1 406.1 622.4C409.5 622.4 410.4 620.9 407.9 618.4C405.799 618.3 404.6 618.3 404.6 619.6ZM424.4 579.4C424.4 580 425 580.6 426.2 581.9C427.7 581.6 428.9 582.2 429.6 579.8C428.7 577.3 427.5 575.8 424.7 577.3C424.7 577.9 424.4 578.5 424.4 578.8C424.4 578.8 424.4 579.1 424.4 579.4ZM438.799 653.2C438.799 653.8 438.799 654.4 439.4 655.3C440 656.2 441.8 656.8 443.1 655.9C443 651.1 438.799 650.8 438.799 653.2Z" fill="white"/>
<path d="M407.3 676.5C408.2 677.1 407.9 680.8 410.7 678.6C411.3 677.7 413.1 677.7 412.8 675.8C410.7 674.7 410.1 672.8 407.3 676.5ZM413.4 363.2C413.4 363.8 413.4 364.7 413.7 365.7C416.1 367.5 415.8 369.1 418.9 366.3C419.2 364.5 419.8 363.5 418.9 361.4C415.9 361.6 413.7 361.3 413.4 363.2ZM447 396.9C447 397.2 447 397.5 447 397.8C449.4 399.9 450.4 399.6 450.7 396C448.5 395.6 447 395 447 396.9ZM450.4 340.8C451.3 342.6 450.7 342.6 452.5 342.6C452.8 341.7 454.9 341.7 453.7 339.8C452.8 339.6 451.3 337.4 450.4 340.8ZM477.2 471.9C477.2 472.5 477.2 473.1 477.8 474C481.2 475.2 482.7 474 481.2 470.3C479.1 469.8 477.2 470.1 477.2 471.9ZM480.9 427.5C480.6 428.7 481.5 430 483.6 430.3C486.3 429.4 489.4 426.9 484.2 425.4C482.4 425.4 481.2 426.3 480.9 427.5ZM490.4 359.5C493.1 362.3 493.5 360.7 493.8 358C491.6 357.3 490.7 356.7 490.4 359.5ZM494.6 728C494.6 728.3 494.6 728.9 495.2 728.9C496.1 728.6 497 728.6 497.9 728C497 727.7 497.9 723.7 494.5 726.8C494.6 727.1 494.6 727.7 494.6 728ZM521.2 393.5C522.1 395.9 523.3 396.9 525.8 394.7C524.9 391.7 522.7 389.8 521.2 393.5ZM522.7 417.1C523.3 419.2 525.1 422 527 417.7C525.8 415.5 523.6 413.7 522.7 417.1ZM543.8 364.4C543.8 364.7 543.8 365.3 543.8 365.9C545 367.4 544.7 367.7 546.5 367.4C547.4 365.6 547.4 365.6 546.5 363.7C545 363.5 544.1 363.5 543.8 364.4Z" fill="white"/>
<path opacity="0.3" d="M93.7998 228.5C93.7998 229.1 94.0998 230.3 94.9998 231.6C98.3998 236.8 102.6 231.3 100.5 224.9C97.3998 225.8 94.0998 226.4 93.7998 228.5Z" fill="white"/>
<path opacity="0.3" d="M128.3 402.5C130.1 404.3 130.4 405 132.3 402.8C132 401 132.3 400.7 130.5 400C129.5 400.7 128.3 401.3 128.3 402.5Z" fill="white"/>
<path opacity="0.3" d="M182.6 522.6C182.6 526.6 182.9 530.6 187.5 524.1C184.2 523.2 188.4 519.5 182.6 522.6Z" fill="white"/>
<path opacity="0.3" d="M205.5 110.9C205.8 112.7 205.8 114 207.3 115.5C208.8 115.2 210 115.5 210.7 114C210.7 112.5 211 110.9 210.1 109.7C208.6 109.4 206.8 108.8 205.5 110.9Z" fill="white"/>
<path opacity="0.3" d="M208.3 216.6C208.9 218.1 209.5 219.4 211 217.5C211.3 215.3 209.2 214.1 208.3 216.6Z" fill="white"/>
<path opacity="0.3" d="M217.1 295.9C217.1 296.5 217.1 297.1 217.4 298.4C218.3 298.4 221.4 301.5 222 298.4C221.7 296.9 222 295.6 221.1 294.1C218.4 294.1 217.1 294.4 217.1 295.9Z" fill="white"/>
<path opacity="0.3" d="M218.7 252.1C218.7 252.4 219 253 219.6 253.3C220.8 253.3 221.1 253.6 221.7 252.1C220.8 250 218.7 250.9 218.7 252.1Z" fill="white"/>
<path opacity="0.3" d="M240.4 241.4C240.4 241.7 240.4 241.7 240.7 242C241.6 242.3 242.2 243.2 242.5 241.7C241.9 240.5 240 239.9 240.4 241.4Z" fill="white"/>
<path opacity="0.3" d="M249.8 211.7C250.7 212.6 251.6 213.8 252.9 212C252.3 209.5 250.1 208.6 249.8 211.7Z" fill="white"/>
<path opacity="0.3" d="M255 484C256.2 484.6 256.5 487.7 258.7 486.5C259 484.7 262.7 484 259.9 481.3C257.4 480.9 255.6 478.8 255 484Z" fill="white"/>
<path opacity="0.3" d="M284.3 159.6C284.3 161.1 284.3 162.4 285.5 163.9C288.6 164.2 287.6 164.5 289.8 162.7C289.8 161.8 291.3 162.7 290.1 160.6C289.5 159.4 289.5 159.1 288 158.5C286.5 158.4 285.5 158.4 284.3 159.6Z" fill="white"/>
<path opacity="0.3" d="M284.9 446.6C284.9 446.9 284.9 447.5 285.2 447.8L287.3 449.3C287.3 449.3 290.7 447.2 288.8 445.6C288.3 446 284.9 444.2 284.9 446.6Z" fill="white"/>
<path opacity="0.3" d="M288.9 363.3C288.9 363.9 289.2 365.1 290.4 367C291.6 367 292.8 366.7 293.8 366.7C293.8 365.2 295.3 362.7 292.6 361.2C290.1 362.1 288.9 362.1 288.9 363.3Z" fill="white"/>
<path opacity="0.3" d="M291 35.8C291.3 37.3 292.5 37.9 295.3 36.4C295.9 35.5 296.5 34.3 295 33.3C293.2 33.3 291 31.2 291.3 34.2C291 34.9 290.7 35.2 291 35.8Z" fill="white"/>
<path opacity="0.3" d="M338.7 582.3C339.9 582.3 342.7 587.5 343.3 582.3C342.6 582.3 341.7 576.5 338.7 582.3Z" fill="white"/>
<path opacity="0.3" d="M366.5 428.5C371.4 433.4 371.099 432.8 372.299 427.6C371.699 427.6 367.7 423 366.5 428.5Z" fill="white"/>
<path opacity="0.3" d="M376.5 509.4C376.5 510.3 377.1 511.2 378.6 513.1C382 509.7 388.4 511.9 380.1 505.7C378.4 507.3 376.5 507.9 376.5 509.4Z" fill="white"/>
<path opacity="0.3" d="M420.5 346.4C420.5 347.3 421.4 348.2 423.6 350.1C425.7 348 430.3 350.4 425.4 344.9C424.5 344.9 420.5 344.9 420.5 346.4Z" fill="white"/>
<path opacity="0.3" d="M447.1 178.6C447.7 183.5 455.3 183.5 454.4 177.4C454.1 173.1 446.5 172.8 447.1 178.6Z" fill="white"/>
<path d="M576.5 582.2C575.6 581.3 574.7 579.1 572.5 579.8C570.7 581 570.4 581.6 571.6 584.1C572.2 584.4 573.4 585.9 574.7 585C575.3 584 576.5 583.4 576.5 582.2ZM545.3 656.6C543.2 655.4 542.6 652.9 539.8 654.8C538.9 656.6 536.7 654.8 537.7 658.8C538.9 660.6 538.9 661.9 542.9 661.3C544.1 658.8 545 663 545.3 656.6ZM530.4 542.4C528.9 540.9 529.2 540.9 526.7 540.3C525.8 540.9 524.6 540.9 524.6 542.1C523.7 543.6 523.4 544.2 525.2 545.8C526.4 545.8 527.6 546.1 528.9 545.5C529.5 544.2 530.4 543.6 530.4 542.4ZM486.1 348.8C485.8 347 485.8 345.7 484.3 344.2C482.8 344.5 481.6 344.2 480.9 345.7C480.9 347.2 480.6 348.8 481.5 350C483 350.6 484.9 350.9 486.1 348.8ZM483.3 243.4C482.7 241.9 482.1 240.6 480.6 242.5C480.3 244.6 482.4 245.5 483.3 243.4ZM474.5 163.8C474.5 163.2 474.5 162.6 474.2 161.4C473.3 161.4 470.2 158.3 469.6 161.4C469.9 162.9 469.6 164.2 470.5 165.7C473.3 165.6 474.5 165.6 474.5 163.8ZM473 207.9C473 207.6 472.7 207 472.1 206.7C470.9 206.7 470.6 206.4 470 207.9C470.8 210 473 209.1 473 207.9ZM464.1 507.7C464.1 507.4 464.1 507.1 463.8 506.8C461.4 506.5 461.4 505.9 458.3 507.4C457.7 508.3 457.4 508.9 458 510.2C459.8 510.5 460.4 510.8 462.9 510.5C463.2 509.9 463.8 509 464.1 507.7ZM451.3 218.3C451.3 218 451.3 218 451 217.7C450.1 217.4 449.5 216.5 449.2 218C449.8 219.5 451.6 219.8 451.3 218.3ZM441.8 248.3C440.9 247.4 440 246.2 438.7 248C439.4 250.1 441.5 251.1 441.8 248.3ZM420.7 647.7C419.8 646.5 420.1 644.9 417.6 645.2C416.1 645.5 415.5 644.9 415.2 647.3C417 649.1 412.5 648.5 417.6 649.8C419.2 649.6 420.1 649.3 420.7 647.7ZM407.3 300.1C407.3 298.6 407.3 297.3 406.1 295.8C403 295.5 404 295.2 401.8 297C401.8 297.9 400.3 297 401.5 299.1C402.1 300.3 402.1 300.6 403.6 301.2C405.2 301.3 406.1 301.3 407.3 300.1ZM402.7 96.7C402.7 96.1 402.4 94.9 401.2 93C400 93 398.8 93.3 397.8 93.3C397.8 94.8 396.3 97.3 399 98.8C401.5 97.9 402.7 97.6 402.7 96.7ZM400.9 423.8C400.6 422.3 399.4 421.7 396.6 423.2C396 424.1 395.4 425.3 396.9 426.3C398.7 426.3 400.9 428.4 400.6 425.4C400.9 425 400.9 424.4 400.9 423.8ZM400.6 503.8C399.7 502 400.3 501.7 398.2 502C396.1 503.5 394.5 504.1 397.3 506.9C400 505.6 400 506.2 400.6 503.8ZM271.1 113.2C271.1 112.3 270.2 111.4 268 109.5C265.9 111.6 261.3 109.2 266.2 114.7C267.2 114.8 271.1 115.1 271.1 113.2ZM244.6 281.4C244 276.5 236.4 276.5 237.3 282.6C237.5 286.9 245.2 286.9 244.6 281.4Z" fill="white"/>
<path d="M70.1997 72.2C70.1997 72.8 70.1997 73.4 70.4997 74.3C71.9997 74.9 72.5997 75.8 74.4997 74.9C77.1997 72.1 77.5997 70.9 73.5997 69.7C71.0997 70 70.1997 70.3 70.1997 72.2ZM100.7 264.5C100.7 265.4 100.7 266.3 101.6 267C102.8 267 104 267.6 104.3 266.1C104.6 265.2 104.9 264.9 104.9 264L104.6 263.7H102.8C101.7 263.6 101 263.3 100.7 264.5ZM133.1 118.4C134 119.6 134 120.2 135.8 120.2C137.6 119.9 137.6 119.3 137 117.1C135.9 115.4 134.6 115.4 133.1 118.4ZM141 20.7C141 21 141 21.6 141.3 22.2C143.1 22.5 145.9 23.4 145.3 20.7C145 19.8 145 18.9 143.8 18.6C142.3 19.5 141 19.5 141 20.7ZM142.3 140.2C142.3 140.5 142.3 140.5 142.3 140.8C143.2 141.7 143.5 142.6 145.4 141.7C146 140.8 146.6 140.8 146 139.2C145.4 138.9 145.1 137.4 143.9 138C143.2 138.6 142 138.9 142.3 140.2ZM160.9 457.8V458.1C160.9 458.4 160.9 458.7 161.2 459C162.4 459.9 163 460.5 164.6 459.3C165.5 457.8 166.1 457.8 164.6 456.2C163.7 456.2 163.1 455.9 162.2 455.9C161.2 457.2 160.9 457.5 160.9 457.8ZM169.7 296.4C170 298.2 169.7 298.5 171.8 299.5C173.6 298.6 173.9 297.7 173.6 295.5C171.9 295.2 170.7 294.2 169.7 296.4ZM193.9 136.5C195.7 137.7 196.3 139 198.5 137.4C199.4 135.6 199.7 134.6 197.6 133.7C196.7 134 195.5 134 194.5 134.6C194.2 135.3 193.9 135.9 193.9 136.5ZM207.9 198.7C207.9 199.6 208.8 200.2 210 200.8C211.2 201.1 212.1 200.5 211.8 198.3C211.5 196.5 210 195.5 208.1 196.8C207.9 197.5 207.9 198.1 207.9 198.7ZM211.6 263.9C211.3 265.7 212.8 267 214.7 265.7C215.3 264.8 216.2 263.6 215 262.9C213.1 262.1 213.1 262.4 211.6 263.9ZM213.7 175.1C214 176.9 214.9 178.8 216.8 177.2C217.1 176.6 217.7 175.1 216.8 174.1C214.6 174.2 214.3 173.6 213.7 175.1ZM219.8 107.7C219.8 108.6 220.1 109.5 220.1 110.8C221.9 111.4 222.5 112 224.1 110.8C225.3 109.3 225.9 108 223.8 106.8C222.9 106.8 221.7 105.9 220.4 106.8C220.1 107.1 219.8 107.4 219.8 107.7ZM233.9 318.4C234.5 319 235.1 319.6 236.3 319C236.6 317.8 236.9 316.9 235.1 316.9C234.5 317.5 233.6 317.5 233.9 318.4ZM241.2 135C242.7 136.5 243 136.5 244.9 135.3C245.5 133.2 245.5 132.2 242.5 132.9C242.1 133.4 241.2 134 241.2 135ZM254.3 292.1C255.2 293.3 256.1 293.9 257.4 292.7C258.3 291.5 258.9 289.6 256.2 289.9C255.2 290.6 254.3 290.3 254.3 292.1ZM254.3 97.6C254.6 100.1 254.6 99.7 255.2 101.6C257 101.9 259.2 101.9 259.5 99.8C259.5 98.3 260.1 97 258 96.7C256.2 96.4 256.2 96.4 254.3 97.6ZM254.6 471.3C254.6 471.9 254.9 472.2 255.5 473.1C257 472.8 259.2 473.1 258.9 471C258.9 470.1 259.2 469.5 258 468.9C256.5 468.6 255.9 468.3 254.9 469.5C254.6 470.4 254.6 471 254.6 471.3ZM276 195.6C276 195.9 276 196.5 276.3 196.8C276.9 197.1 277.8 198.9 279 198C279.6 195.9 279.9 196.5 278.7 194.3C276.9 194.1 276 194.4 276 195.6ZM302.9 233.3C302.9 234.8 303.2 235.4 304.7 235.1C305.9 234.5 306.8 234.2 306.8 232.6C305.6 230.5 303.8 231.1 302.9 233.3ZM312 336.8C312.6 339.3 314.4 338.3 314.7 336.5C314.2 333.5 312.7 335 312 336.8ZM326.4 299.8C326.4 300.1 326.7 300.7 327 301C328.5 300.7 329.4 300.4 329.1 298.2C327.9 297.6 326.4 298.5 326.4 299.8Z" fill="white"/>
<path d="M469.3 91.2C469.3 90.3 469 89.4 467.2 89.7C466 89.4 466.3 89.1 465.4 90C465.1 91.2 464.5 92.5 465.7 93.4C466.9 93.7 468.4 94 469.1 92.5C469.3 92.1 469.3 91.8 469.3 91.2ZM463.2 675C462.9 673.8 463.2 674.1 462 673.2C460.2 673.5 459.6 673.5 459.6 675.7C460.2 676.6 460.5 677.2 461.7 676.9C462.6 675.9 463.5 676.8 463.2 675ZM462.3 423.8C462.3 423.5 462.3 423.2 461.7 422.6C460.5 422.6 459.6 422.6 459.6 423.5C460.2 425.3 459.9 425.6 462 425C462 424.4 462.3 424.1 462.3 423.8ZM445.8 613.1C444.3 612.5 444 611.9 442.1 612.5C441.5 614 440.9 614.6 441.8 616.5C444.3 616.5 445.5 616.2 445.8 613.1ZM436.9 129.1C436.9 128.8 436.9 128.8 436.9 128.5C435.7 128.5 435.4 127.6 434.2 128.2C434.2 128.8 433.3 129.4 433.9 130C434.2 130.6 432.7 131.8 434.8 131.5C435.4 131.2 436.6 132.1 436.6 130.6C436.6 130.1 436.9 129.8 436.9 129.1ZM435.1 97.6C435.1 97.3 435.1 97 434.8 96.7C433.9 96.1 435.4 93.9 432.7 95.5C432.4 96.7 431.2 95.8 431.8 97.9C432.1 98.2 432.1 99.7 433 98.8C433.3 98.2 434.8 98.2 435.1 97.6ZM432.3 381.2C432.3 380.9 432.3 380.3 432 379.4C430.2 379.1 429.6 378.5 428.9 380.6C429.2 380.9 429.5 382.1 430.1 382.1C431.7 381.9 432.3 381.9 432.3 381.2ZM428.1 167.7C428.1 167.4 428.1 167.4 428.1 167.1C428.1 166.8 427.8 166.5 427.5 166.2C426.3 166.5 426.3 164.7 425.4 166.5C425.4 167.1 425.1 167.7 425.7 168.3C426 168.3 426.9 169.5 427.5 168.9C427.8 168.7 428.1 168.4 428.1 167.7ZM421.1 550.6C419.9 548.8 418.4 547.8 416.5 550.3C415.9 552.7 416.2 553.7 419.2 553.4C421.1 552.5 420.4 553.1 421.1 550.6ZM411.9 142.3C411.9 142 411.9 142 411.9 141.7C411.6 140.5 411.9 139.2 410.7 138.9C409.5 139.2 408.9 138.3 408.3 140.4C408.3 141 408 141.9 408.6 142.5H410.7C411 142.3 411.9 143.2 411.9 142.3ZM411.6 415.2C411.6 414.9 411.6 414.3 411.3 413.7C410.4 413.7 409.5 413.4 408.2 414.3C408.5 415.2 408.5 415.8 408.8 416.8C410.7 416.2 411.6 416.2 411.6 415.2ZM400.9 379.4C400.9 379.1 400.6 378.8 400.3 378.2C398.5 377.3 398.2 377 397.2 378.8C397.5 380 397.5 380.9 399 380.9C400.3 380.3 400.9 380 400.9 379.4ZM396.3 100.4C395.7 98.9 395.1 97.9 392.9 98.6C392.3 99.8 391.7 99.8 392 101.4C392.6 101.4 393.2 102.9 394.4 102.3C395.4 101.3 395.1 101.6 396.3 100.4ZM385.3 427.8C385.3 427.5 385.3 427.5 385 427.2C383.2 426.9 381.9 426.9 382.6 429C383.5 429.3 382.9 430.5 384.7 429.6C385 429 385.6 428.4 385.3 427.8ZM380.7 81.4C380.7 81.1 380.7 80.8 380.4 80.8C379.2 79 379.5 78 377 78.7L376.7 79L376.4 81.8C377.3 82.4 376.1 83.3 377.9 83C378.2 83 378.5 85.8 379.7 83.9C380.4 82.9 380.7 82.3 380.7 81.4ZM373.1 333.2C373.1 332.9 373.1 332.3 372.2 332.3C371.9 332.6 370.1 331.4 371 333.2C371.3 333.5 370.7 334.7 371.6 334.7C372.2 334.7 372.8 335.3 373.1 334.4C372.8 334.1 373.1 333.5 373.1 333.2ZM358.1 563.8V563.5C358.1 563.2 358.1 562.9 357.8 562.6C356.6 561.7 356 561.1 354.7 562.3C353.8 563.8 353.2 563.8 354.7 565.4C355.6 565.4 356.2 565.7 356.8 565.7C357.5 564.4 357.8 564.1 358.1 563.8ZM356.6 32.4C356.6 31.8 356.3 30.9 354.8 29.9C354.2 31.1 350.8 30.5 353 34.5C354.2 34.8 354.8 37.3 356.4 35.1C356.3 33.9 356.6 33 356.6 32.4ZM354.8 467.6C352.1 466.4 350.5 463.9 351.1 470.7C354.8 470.7 354.8 471.9 354.8 467.6ZM264.4 550.3C264.4 549.7 264.1 549.4 263.5 548.5C262 548.8 259.8 548.5 260.1 550.6C260.1 551.5 259.8 552.1 261 552.7C262.5 553 263.1 553.3 264.1 552.1C264.4 551.2 264.4 550.9 264.4 550.3Z" fill="white"/>
<path opacity="0.6" d="M561.9 501.4C561.9 499.9 565.9 499.9 562.2 497.1H559.5C559.1 499.3 557.9 501.1 561.9 501.4ZM687.4 474.5C687.7 473.6 688.6 473 688.6 472C688.3 471.7 688.3 468 686.2 469.9C685.2 472.7 683.7 473 687.4 474.5ZM717.3 473C717.9 472.1 721.3 471.8 719.7 469.3C718.5 469 718.8 465.6 716.3 468.7C716.1 470.5 713.9 471.4 717.3 473ZM643.7 465.6C647.1 464.1 647.1 466.5 646.4 462.2C646.1 462.2 644.9 459.4 643.3 460.7C643.4 461.9 642.5 464.4 643.7 465.6ZM724.9 450.6C725.2 450 729.2 450 725.8 447.2C723.7 448.8 722.5 448.1 724.9 450.6ZM669.1 435.9C671.8 435.9 671.2 434.7 668.5 431.6C667.6 432.8 665.4 433.4 667.6 435.9C668.1 435.9 668.4 435.9 669.1 435.9ZM575.9 422.1C576.5 421.2 580.2 421.5 578 418.7C577.1 418.1 577.1 416.2 575.3 416.6C574.1 418.7 572.3 419 575.9 422.1ZM263.9 416C264.5 416 265.4 416 266.3 415.7C268.1 413.2 269.7 413.6 266.9 410.5C265.1 410.2 264.2 409.6 262 410.5C262 413.2 262 415.7 263.9 416ZM644.3 394.5C645.8 393.3 647 393.6 644.6 391.1C642.8 392.1 642.2 392.7 644.3 394.5ZM297.4 382.3C297.7 382.3 298 382.3 298.3 382.3C300.4 379.9 300.1 378.9 296.5 378.6C295.9 380.8 295.3 382 297.4 382.3ZM241.6 378.6C243.4 377.7 243.4 378.3 243.4 376.5C242.5 376.2 242.5 374 240.7 375.3C240.3 376.5 237.9 378 241.6 378.6ZM766.2 367.6C767.4 366.7 769.3 366.7 769.9 364.8C769.9 364.5 769.6 364.5 769.6 364.2C768.4 363.9 767.2 363.9 765.9 363.6C764.9 365.7 762.5 366.4 766.2 367.6ZM813.5 355.3C813.8 355.3 814.4 355 814.7 354.7C816.2 352.9 816.8 351 813.5 349.8C810.4 351.4 811 355.9 813.5 355.3ZM371.9 352C372.5 352 373.1 352 374 351.4C375.2 348 374 346.5 370.3 348C370.1 350.1 370.4 352 371.9 352ZM660.2 350.4C661.7 348.9 662.6 349.2 661.7 346.7C660.2 347 659.9 345.5 658 347.3C658.7 349.8 658.1 349.5 660.2 350.4ZM327.7 348.3C328.9 348.6 330.1 347.7 330.4 345.5C329.5 342.7 327 339.7 325.5 344.9C325.5 346.8 326.8 348 327.7 348.3ZM868.8 344C869.4 344 870.3 343.7 871.5 343.1C871.8 340.7 871.8 339.1 868.8 339.1C866 341.5 866.6 344 868.8 344ZM259.9 338.8C262.6 336 261.1 335.7 258.4 335.4C258.1 337.6 257.4 338.2 259.9 338.8ZM728.3 334.8C730.1 331.4 731.4 332.7 727.1 331.1C727.4 332.4 721.3 333.3 728.3 334.8ZM627.5 334.5C627.8 334.5 628.4 334.5 628.4 333.9C628.1 333 628.1 332.1 627.5 331.1C627.2 332 623.2 331.1 626.3 334.5C626.6 334.5 626.9 334.5 627.5 334.5ZM293.8 307.9C296.2 307 297.2 305.8 295 303.3C291.9 304.2 290.1 306 293.8 307.9ZM317.3 306.3C319.4 305.7 322.2 303.8 317.9 302C316.1 303.3 313.9 305.4 317.3 306.3ZM264.8 284.9C265.1 284.9 265.7 284.9 266.3 284.9C267.8 283.7 268.1 284 267.8 282.1C266 281.2 266 281.2 264.1 282.1C264.2 284 263.9 284.9 264.8 284.9ZM830.9 279.7C831.5 279.7 832.4 279.1 833.6 278.2C833.6 274.8 832.1 273.9 829.6 276.4C829.7 278.4 829.7 279.7 830.9 279.7ZM790.9 259.8C791.5 259.8 792.1 259.2 793.3 258C793 256.5 793.6 255.2 791.2 254.6C788.8 255.5 787.2 256.7 788.8 259.5C789.4 259.5 790 259.8 790.3 259.8C790.3 259.8 790.6 259.8 790.9 259.8ZM864.5 245.4C865.1 245.4 865.7 245.4 866.6 244.8C867.5 244.2 868.1 242.3 867.2 241.1C862.3 241.1 862 245.4 864.5 245.4Z" fill="white"/>
<path d="M1000.4 363.2C1000.4 363.8 1000.4 364.7 1000.7 365.7C1003.1 367.5 1002.8 369.1 1005.9 366.3C1006.2 364.5 1006.8 363.5 1005.9 361.4C1002.9 361.6 1000.7 361.3 1000.4 363.2ZM1034 396.9C1034 397.2 1034 397.5 1034 397.8C1036.4 399.9 1037.4 399.6 1037.7 396C1035.5 395.6 1034 395 1034 396.9ZM1037.4 340.8C1038.3 342.6 1037.7 342.6 1039.5 342.6C1039.8 341.7 1041.9 341.7 1040.7 339.8C1039.8 339.6 1038.3 337.4 1037.4 340.8ZM1064.2 471.9C1064.2 472.5 1064.2 473.1 1064.8 474C1068.2 475.2 1069.7 474 1068.2 470.3C1066.1 469.8 1064.2 470.1 1064.2 471.9ZM1067.9 427.5C1067.6 428.7 1068.5 430 1070.6 430.3C1073.4 429.4 1076.4 426.9 1071.2 425.4C1069.4 425.4 1068.2 426.3 1067.9 427.5ZM1077.4 359.5C1080.2 362.3 1080.5 360.7 1080.8 358C1078.6 357.3 1077.7 356.7 1077.4 359.5ZM1108.2 393.5C1109.1 395.9 1110.3 396.9 1112.8 394.7C1111.9 391.7 1109.7 389.8 1108.2 393.5ZM1109.7 417.1C1110.3 419.2 1112.1 422 1114 417.7C1112.8 415.5 1110.7 413.7 1109.7 417.1ZM1130.8 364.4C1130.8 364.7 1130.8 365.3 1130.8 365.9C1132 367.4 1131.7 367.7 1133.6 367.4C1134.5 365.6 1134.5 365.6 1133.6 363.7C1132 363.5 1131.1 363.5 1130.8 364.4Z" fill="white"/>
<path opacity="0.6" d="M1357.5 349.7C1359 349.7 1359 353.7 1361.8 350V347.2C1359.6 346.9 1357.8 345.7 1357.5 349.7ZM1384.4 475.6C1385.3 475.9 1385.9 476.8 1386.9 476.8C1387.2 476.5 1390.9 476.5 1389 474.3C1386.2 473.4 1385.9 471.9 1384.4 475.6ZM1385.9 505.6C1386.8 506.2 1387.1 509.6 1389.6 508.1C1389.9 506.9 1393.3 507.2 1390.2 504.7C1388.3 504.4 1387.4 502.2 1385.9 505.6ZM1393.2 431.8C1394.7 435.2 1392.3 435.2 1396.6 434.6C1396.6 434.3 1399.4 433.1 1398.1 431.5C1396.9 431.5 1394.4 430.6 1393.2 431.8ZM1408.2 513.3C1408.8 513.6 1408.8 517.6 1411.6 514.2C1410 512 1410.6 510.8 1408.2 513.3ZM1422.8 457.2C1422.8 460 1424 459.3 1427.1 456.6C1425.9 455.7 1425.3 453.5 1422.8 455.7C1422.8 456.3 1422.8 456.6 1422.8 457.2ZM1436.6 363.8C1437.5 364.4 1437.2 368.1 1440 365.9C1440.6 365 1442.4 365 1442.1 363.1C1439.9 361.9 1439.6 360.1 1436.6 363.8ZM1442.7 50.7C1442.7 51.3 1442.7 52.2 1443 53.2C1445.4 55 1445.1 56.6 1448.2 53.8C1448.5 52 1449.1 51 1448.2 48.9C1445.4 48.9 1443 48.9 1442.7 50.7ZM1464.1 432.4C1465.3 433.9 1465 435.2 1467.5 432.7C1466.5 430.9 1465.9 430.3 1464.1 432.4ZM1476.3 84.4C1476.3 84.7 1476.3 85 1476.3 85.3C1478.7 87.4 1479.7 87.1 1480 83.5C1477.8 82.9 1476.6 82.3 1476.3 84.4ZM1479.9 28.4C1480.8 30.2 1480.2 30.2 1482 30.2C1482.3 29.3 1484.4 29.3 1483.2 27.4C1482.1 27.1 1480.5 24.7 1479.9 28.4ZM1490.9 554.6C1491.8 555.8 1491.8 557.7 1493.7 558.3L1490.9 554.6ZM1506.5 159.2C1506.5 159.8 1506.5 160.4 1507.1 161.3C1510.5 162.5 1512 161.3 1510.5 157.6C1508.3 157.3 1506.5 157.6 1506.5 159.2ZM1508 448.3C1509.5 449.8 1509.2 450.8 1511.7 449.8C1511.4 448.3 1512.9 448 1511.1 446.1C1508.6 446.8 1508.9 446.2 1508 448.3ZM1510.2 114.8C1509.9 116 1510.8 117.3 1513 117.6C1515.8 116.7 1518.8 114.2 1513.6 112.7C1511.7 112.6 1510.5 113.8 1510.2 114.8ZM1519.6 46.7C1522.4 49.5 1522.7 47.9 1523 45.2C1520.9 44.9 1520.2 44.3 1519.6 46.7ZM1523.6 516.6C1527 518.4 1525.7 519.7 1527.3 515.4C1526 515.7 1525.1 509.6 1523.6 516.6ZM1523.9 415.5C1523.9 415.8 1523.9 416.4 1524.5 416.4C1525.4 416.1 1526.3 416.1 1527.3 415.5C1526.4 415.2 1527.3 411.2 1523.9 414.3C1523.9 414.6 1523.9 414.9 1523.9 415.5ZM1550.5 80.8C1551.4 83.3 1552.6 84.2 1555.1 82C1554.1 78.9 1552.3 77.1 1550.5 80.8ZM1552 104.3C1552.6 106.4 1554.4 109.2 1556.3 104.9C1555.1 103.1 1552.9 101 1552 104.3ZM1573.4 51.7C1573.4 52 1573.4 52.6 1573.4 53.2C1574.6 54.7 1574.3 55 1576.1 54.7C1577 52.9 1577 52.9 1576.1 51C1574.3 51 1573.4 50.7 1573.4 51.7Z" fill="white"/>
<path d="M1587.4 363.2C1587.4 363.8 1587.4 364.7 1587.7 365.7C1590.1 367.5 1589.8 369.1 1592.9 366.3C1593.2 364.5 1593.8 363.5 1592.9 361.4C1589.9 361.6 1587.7 361.3 1587.4 363.2ZM1621 396.9C1621 397.2 1621 397.5 1621 397.8C1623.4 399.9 1624.4 399.6 1624.7 396C1622.5 395.6 1621 395 1621 396.9ZM1624.4 340.8C1625.3 342.6 1624.7 342.6 1626.5 342.6C1626.8 341.7 1628.9 341.7 1627.7 339.8C1626.8 339.6 1625.3 337.4 1624.4 340.8ZM1651.2 471.9C1651.2 472.5 1651.2 473.1 1651.8 474C1655.2 475.2 1656.7 474 1655.2 470.3C1653.1 469.8 1651.2 470.1 1651.2 471.9ZM1654.9 427.5C1654.6 428.7 1655.5 430 1657.6 430.3C1660.4 429.4 1663.4 426.9 1658.2 425.4C1656.4 425.4 1655.2 426.3 1654.9 427.5ZM1664.4 359.5C1667.2 362.3 1667.5 360.7 1667.8 358C1665.6 357.3 1664.7 356.7 1664.4 359.5ZM1695.2 393.5C1696.1 395.9 1697.3 396.9 1699.8 394.7C1698.9 391.7 1696.7 389.8 1695.2 393.5ZM1696.7 417.1C1697.3 419.2 1699.1 422 1701 417.7C1699.8 415.5 1697.7 413.7 1696.7 417.1ZM1717.8 364.4C1717.8 364.7 1717.8 365.3 1717.8 365.9C1719 367.4 1718.7 367.7 1720.6 367.4C1721.5 365.6 1721.5 365.6 1720.6 363.7C1719 363.5 1718.1 363.5 1717.8 364.4Z" fill="white"/>
<path opacity="0.3" d="M1205.1 656C1205.1 656.6 1205.1 656.9 1205.4 657.8C1205.4 659 1205.1 659.9 1206.3 660.3C1207.5 660.3 1209.4 661.2 1210.9 660C1210.9 658.8 1211.5 657.5 1211.2 656C1210 654.5 1209.4 653.5 1206.9 653.5C1205.4 654.5 1205.1 654.5 1205.1 656ZM1216.1 470.1C1216.1 470.1 1220.1 476.2 1221.6 472.6C1225.3 463.6 1216.7 465.2 1216.1 470.1ZM1217.3 166.2C1217.3 166.8 1217.6 168 1218.5 169.3C1221.9 174.5 1226.1 169 1224 162.6C1221 163.5 1217.6 164.1 1217.3 166.2ZM1225.6 566.6C1225.6 567.8 1226.5 569.1 1228.4 569.4C1230.5 568.8 1232.1 568.8 1230.8 565.7C1229.9 563.9 1229 563.2 1226.8 563.9C1226.2 564.1 1225.6 565.3 1225.6 566.6ZM1234.7 426.6C1234.7 426.9 1234.7 427.2 1235.3 428.1C1236.2 428.1 1237.1 428.1 1237.8 427.8C1238.1 427.2 1240.2 427.8 1238.4 426C1238.1 425.4 1238.1 424.5 1237.2 423.9C1236.6 424.2 1235.7 424.2 1235.1 424.8C1235 426 1234.7 426.3 1234.7 426.6ZM1240.5 535C1241.1 535.9 1240.5 536.8 1240.8 538.1C1241.1 538.4 1241.4 540.2 1243.6 539.6C1245.1 539.3 1246.7 539.3 1247 537.5C1246.4 536.9 1246.4 535.7 1245.2 535.7C1244.3 534.8 1245.5 534.2 1243.4 534.2C1243 534.1 1240.8 533.5 1240.5 535ZM1251.8 340.2C1253.6 342 1253.9 342.7 1255.8 340.5C1255.5 338.7 1255.8 338.4 1254 337.7C1253.1 338.4 1251.8 339 1251.8 340.2ZM1254 734.7C1254 735.6 1254.3 736.8 1255.8 737.8C1258.8 737.5 1259.5 738.4 1259.5 734.7C1258.6 732.6 1258.9 731.3 1255.5 731.6C1254.9 732.9 1254.3 733.8 1254 734.7ZM1257.6 652.3C1257.6 652.3 1257.6 652.6 1258.2 654.4C1260.3 655 1261 655.6 1261.9 653.5C1261.6 650.7 1261 649.8 1257.6 651C1257.9 652.3 1257.6 652.3 1257.6 652.3ZM1259.2 498.9C1261.6 503.2 1262.6 503.8 1265.6 499.2C1263.4 494.9 1262.5 493.7 1259.2 498.9ZM1306.2 460.3C1306.2 464.3 1306.5 468.3 1311.1 461.8C1307.7 460.9 1312 457.2 1306.2 460.3ZM1329.1 48.6C1329.4 50.4 1329.4 51.7 1330.9 53.2C1332.4 52.9 1333.7 53.2 1334.3 51.7C1334.3 50.2 1334.6 48.6 1333.7 47.4C1332.1 47.1 1330.3 46.4 1329.1 48.6ZM1331.8 154.3C1332.4 155.8 1333 157.1 1334.6 155.2C1334.9 153 1332.8 151.8 1331.8 154.3ZM1340.7 233.6C1340.7 234.2 1340.7 234.8 1341 236.1C1341.9 236.1 1345 239.2 1345.6 236.1C1345.3 234.6 1345.6 233.3 1344.7 231.8C1341.9 231.8 1340.7 232.1 1340.7 233.6ZM1342.2 189.8C1342.2 190.1 1342.5 190.7 1343.1 191C1344.3 191 1344.6 191.3 1345.2 189.8C1344.4 187.7 1342.2 188.6 1342.2 189.8ZM1363.9 179.1C1363.9 179.4 1363.9 179.4 1364.2 179.7C1365.1 180 1365.7 180.9 1366 179.4C1365.4 178.2 1363.6 177.5 1363.9 179.1ZM1370.6 485.7C1371.8 486.6 1372.7 488.5 1374.6 488.5C1374.9 487.6 1381.6 488.2 1376.7 484.5C1373.4 483.9 1372.5 482 1370.6 485.7ZM1373.4 149.4C1374.3 150.3 1375.2 151.5 1376.5 149.7C1375.8 147.2 1373.7 146.3 1373.4 149.4ZM1377.3 640.1C1377.3 640.1 1377.3 642.2 1378.8 643.5C1381.6 643.8 1386.1 646 1384 639.5C1383.4 638.6 1383.1 637.4 1382.5 636.7C1376.4 637.6 1379.8 636.1 1377.3 640.1ZM1378.6 421.7C1379.8 422.3 1380.1 425.4 1382.3 424.2C1382.6 422.4 1386.3 421.7 1383.5 419C1381 418.6 1379.2 416.5 1378.6 421.7ZM1407.9 97.3C1407.9 98.8 1407.9 100.1 1409.1 101.6C1412.2 101.9 1411.2 102.2 1413.4 100.4C1413.4 99.5 1414.9 100.4 1413.7 98.3C1413.1 97.1 1413.1 96.8 1411.6 96.2C1410 96.1 1409.1 96.1 1407.9 97.3ZM1408.5 384.3C1408.5 384.6 1408.5 385.2 1408.8 385.5L1410.9 387C1410.9 387 1414.3 384.9 1412.4 383.3C1411.8 383.7 1408.5 381.9 1408.5 384.3ZM1412.5 301C1412.5 301.6 1412.8 302.8 1414 304.7C1415.2 304.7 1416.4 304.4 1417.4 304.4C1417.4 302.9 1418.9 300.4 1416.2 298.9C1413.7 299.8 1412.5 299.8 1412.5 301ZM1462.2 520C1463.4 520 1466.2 525.2 1466.8 520C1466.2 520 1465.3 514.2 1462.2 520ZM1490 366.2C1494.9 371.1 1494.6 370.5 1495.8 365.3C1495.2 365.3 1491.2 360.7 1490 366.2ZM1500.1 447.1C1500.1 448 1500.7 448.9 1502.2 450.8C1505.6 447.4 1512 449.6 1503.7 443.4C1501.9 445 1500.1 445.6 1500.1 447.1ZM1544.1 284.1C1544.1 285 1545 285.9 1547.2 287.8C1549.3 285.7 1553.9 288.1 1549 282.6C1548 282.6 1544.1 282.6 1544.1 284.1ZM1570.6 116.3C1571.2 121.2 1578.8 121.2 1577.9 115.1C1577.6 110.8 1570 110.5 1570.6 116.3Z" fill="white"/>
<path d="M1737.3 57.2C1735.5 55.4 1735.2 54.8 1733.3 56.9C1733.6 58.7 1733.3 59 1735.1 59.7C1736.1 59 1737.3 58.7 1737.3 57.2ZM1660.1 348.8C1659.8 347 1659.8 345.7 1658.3 344.2C1656.8 344.5 1655.6 344.2 1654.9 345.7C1654.9 347.2 1654.6 348.8 1655.5 350C1657 350.6 1658.9 350.9 1660.1 348.8ZM1657.3 243.4C1656.7 241.9 1656.1 240.6 1654.5 242.5C1654.3 244.6 1656.4 245.5 1657.3 243.4ZM1648.5 163.8C1648.5 163.2 1648.5 162.6 1648.2 161.4C1647.3 161.4 1644.2 158.3 1643.6 161.4C1643.9 162.9 1643.6 164.2 1644.5 165.7C1647.3 165.6 1648.5 165.6 1648.5 163.8ZM1647 207.9C1647 207.6 1646.7 207 1646.1 206.7C1644.9 206.7 1644.6 206.4 1644 207.9C1644.8 210 1647 209.1 1647 207.9ZM1638.1 507.7C1638.1 507.4 1638.1 507.1 1637.8 506.8C1635.3 506.5 1635.3 505.9 1632.3 507.4C1631.7 508.3 1631.4 508.9 1632 510.2C1633.8 510.5 1634.4 510.8 1636.9 510.5C1637.2 509.9 1637.8 509 1638.1 507.7ZM1625.3 218.3C1625.3 218 1625.3 218 1625 217.7C1624.1 217.4 1623.5 216.5 1623.2 218C1623.8 219.5 1625.6 219.8 1625.3 218.3ZM1615.8 248.3C1614.9 247.4 1614 246.2 1612.7 248C1613.4 250.1 1615.5 251.1 1615.8 248.3ZM1581.3 300.1C1581.3 298.6 1581.3 297.3 1580.1 295.8C1577 295.5 1578 295.2 1575.8 297C1575.8 297.9 1574.3 297 1575.5 299.1C1576.1 300.3 1576.1 300.6 1577.6 301.2C1579.2 301.3 1580.1 301.3 1581.3 300.1ZM1580.7 13.4C1580.7 13.1 1580.7 12.5 1580.4 12.2L1578.3 10.7C1578.3 10.7 1574.9 12.8 1576.8 14.4C1577.3 13.7 1580.7 15.5 1580.7 13.4ZM1576.7 96.7C1576.7 96.1 1576.4 94.9 1575.2 93C1574 93 1572.8 93.3 1571.8 93.3C1571.8 94.8 1570.3 97.3 1573 98.8C1575.5 97.9 1576.7 97.6 1576.7 96.7ZM1574.9 423.8C1574.6 422.3 1573.4 421.7 1570.6 423.2C1570 424.1 1569.4 425.3 1570.9 426.3C1572.7 426.3 1574.9 428.4 1574.6 425.4C1574.9 425 1574.9 424.4 1574.9 423.8ZM1574.6 503.8C1573.7 502 1574.3 501.7 1572.2 502C1570.1 503.5 1568.5 504.1 1571.3 506.9C1574 505.6 1574 506.2 1574.6 503.8ZM1499.2 31.1C1494.3 26.2 1494.6 26.8 1493.4 32C1494 32 1497.9 36.6 1499.2 31.1ZM1445.1 113.2C1445.1 112.3 1444.2 111.4 1442.1 109.5C1440 111.6 1435.4 109.2 1440.3 114.7C1441.2 114.8 1445.1 115.1 1445.1 113.2ZM1427.1 569.9C1427.1 569.3 1427.1 568.4 1426.8 567.4C1422.5 565 1421.9 565.3 1422.2 571.4C1424.4 571.5 1426.8 571.8 1427.1 569.9ZM1418.6 281.4C1418 276.5 1410.4 276.5 1411.3 282.6C1411.5 286.9 1419.2 286.9 1418.6 281.4ZM1401.5 517.2C1401.5 516.6 1401.2 516 1400.9 515.4C1399.7 515.4 1398.5 514.5 1397.2 515.7C1397.2 523.1 1396.6 514.2 1398.4 519.4C1400.2 519.4 1401.5 518.8 1401.5 517.2Z" fill="white"/>
<path opacity="0.6" d="M1250.8 88.4C1250.8 88.7 1250.8 89 1251.1 89.6C1254.2 99.1 1257.8 90.8 1256 88.4C1254.1 86.3 1251.1 86 1250.8 88.4ZM1263.3 760.8C1263.3 760.8 1263.9 761.1 1266.4 761.4L1268.2 760.8C1267.9 760.2 1268.5 759.6 1267.6 759.3C1267.3 758.7 1267.9 757.8 1267 757.2C1266.4 757.2 1264.9 756.9 1264.6 757.5C1264.6 758.1 1263.7 758.7 1264 759.6C1265.1 760.5 1263.3 760.5 1263.3 760.8ZM1265.8 362.9C1265.8 363.2 1266.4 363.5 1267 364.1C1267.9 363.8 1267.9 366.6 1269.4 363.8C1269.1 362.9 1271.2 361.7 1268.5 360.7C1267.3 361.3 1265.8 361.9 1265.4 362.8C1265.8 362.9 1265.8 362.9 1265.8 362.9ZM1267.6 320.6V320.9C1267.6 321.2 1267.6 321.2 1267.9 321.5C1269.1 321.8 1270 322.1 1270 320C1269.4 319.4 1269.1 319.1 1268.2 319.1C1267.9 320 1267.6 320.3 1267.6 320.6ZM1278 669.5C1278 670.1 1278 670.7 1278.6 670.7C1279.2 671 1280.1 671.3 1280.7 670.7C1281 669.8 1281 668.6 1280.1 668.2C1278.9 668.6 1278.6 668.6 1278 669.5ZM1285 247.1C1285 247.4 1285.3 247.7 1285.3 248C1287.1 248.3 1288.1 248.6 1287.7 246.2C1286.8 245.3 1287.4 244.7 1285.6 245C1285.3 245.9 1284.7 246.5 1285 247.1ZM1291.4 614.1C1291.4 614.4 1291.4 614.4 1291.7 614.4C1291.7 615.3 1292.9 615.3 1293.5 615.3C1293.8 614.4 1293.8 613.5 1292.6 613.2C1292.3 613.2 1291.4 613.2 1291.4 613.5C1291.4 613.4 1291.4 613.8 1291.4 614.1ZM1301.8 603C1301.8 603.6 1302.1 603.9 1302.4 604.2C1303 604.8 1303.9 604.8 1304.2 603.9C1304.2 603 1303.9 601.8 1303 601.4C1302.4 601.5 1301.8 602.1 1301.8 603ZM1310 370.8C1310 371.1 1310.3 371.4 1310.3 372C1311.8 373.2 1312.7 374.5 1313.1 371.1C1312.8 369.6 1313.4 369 1311.3 369.3C1310.6 369.9 1309.7 369.9 1310 370.8ZM1314.9 286C1314.9 286.3 1314.9 286.6 1315.2 286.9H1317.6C1317.9 286.6 1318.8 286 1318.5 285.4C1317.6 284.5 1317.6 283.9 1316.1 283.9C1315.2 285.1 1314.9 285.1 1314.9 286ZM1320.1 562.6C1320.1 562.9 1320.4 563.2 1321.3 563.8C1323.7 564.4 1325.3 564.4 1324.7 561.3C1323.2 560.7 1323.5 558.8 1321 560.1C1320.7 561.4 1320.1 562 1320.1 562.6ZM1329.6 76.5C1329.6 77.1 1329.6 77.7 1329.9 78.6C1331.4 78.9 1333.3 79.8 1334.8 78C1335.1 75.9 1336 74.9 1333.6 73.7C1331.4 74 1329.9 74.6 1329.6 76.5ZM1331.1 244.3C1331.1 244.6 1331.1 245.2 1331.7 246.1C1333.8 246.4 1333.8 247 1334.8 244.6C1334.2 243.7 1334.5 242.5 1333 242.5C1332.3 243.1 1331.4 243.7 1331.1 244.3ZM1337.5 432.1C1337.8 432.7 1338.1 433 1339 433.3C1339.9 433.6 1340.5 433 1340.5 432.1C1340.5 430.9 1340.5 430.3 1339.3 429.6C1338.4 430.3 1337.5 431.2 1337.5 432.1ZM1359.8 276.5C1359.8 276.8 1360.1 277.4 1361 278.3C1362.5 277.7 1362.2 279.8 1363.4 277.4C1363.4 276.5 1363.4 275.3 1363.1 274.3C1361.9 274.3 1361 274.3 1360 274.6C1360.1 275.6 1359.8 276.2 1359.8 276.5ZM1361 630.6C1361 630.9 1361.3 631.2 1361.6 631.5C1361.9 631.8 1361.3 633.6 1363.1 632.7C1363.7 632.4 1364.3 633 1364.6 632.1C1364.6 631.2 1364.9 630.6 1364.3 629.6C1364.3 629.6 1362.8 627.8 1362.5 629.3C1362.5 629.7 1361 630 1361 630.6ZM1408.4 67C1408.4 67.6 1408.7 68.2 1409.3 69.1C1412.7 69.1 1413.9 69.4 1413 65.4C1410.8 64.8 1408.4 65.1 1408.4 67ZM1466.7 450.5C1466.7 450.8 1467 450.8 1467.6 452C1469.1 451.7 1469.7 452 1471 450.5C1471 449.9 1471.3 449.6 1470.7 449L1470.4 448.4L1467.6 447.2C1466.7 449.9 1466.4 450.5 1466.7 450.5ZM1477.1 148.5C1481.1 151.9 1482.6 152.8 1482 146.1C1477.7 145.1 1478.3 144.2 1477.1 148.5ZM1494.5 243.7C1498.8 245.5 1496.6 247.7 1499.4 241.6C1498.1 241.9 1496.6 236.7 1494.5 243.7ZM1559.8 58.4C1559.8 59 1560.4 59.9 1561.3 61.2C1565.3 66.7 1564.3 65.2 1565.9 59.4C1565.9 59.6 1559.5 56 1559.8 58.4ZM1601.3 148.8C1601.3 150.9 1602.8 152.5 1606.2 150.3C1610.2 147.5 1606.5 144.2 1603.5 145.7C1601.9 146.3 1601.3 147.5 1601.3 148.8ZM1601.3 311.4C1601 312 1601.9 313.2 1602.5 313.2C1603.4 313.2 1605.5 312.6 1604.3 311.1C1603.2 309.9 1602.6 307.7 1601.3 311.4ZM1612.9 413.4C1612.9 413.7 1612.9 414.6 1613.2 415.5C1613.5 416.1 1614.4 416.7 1615 416.4C1615.6 416.1 1617.8 414.9 1615.9 413.6C1614.5 413.1 1612.9 412.2 1612.9 413.4ZM1638.3 155.2C1638.3 156.1 1638.3 157 1638.9 158.3C1639.5 159.8 1646.8 162.6 1643.8 155.5C1642.3 152.1 1638.6 151.8 1638.3 155.2ZM1646.8 363.8C1646.8 367.2 1654.7 367.8 1650.5 362.9C1649.3 361.4 1647.1 359.8 1646.8 363.8ZM1664.2 218.6C1664.2 219.2 1664.5 219.8 1665.1 220.7C1666.9 223.8 1667.2 225.3 1670.6 221C1671.5 220.1 1671.5 217.3 1669.4 217C1666.4 217.4 1664.2 217.1 1664.2 218.6ZM1670.6 320.6C1670.6 320.9 1670.6 321.2 1670.6 321.5C1671.5 325.8 1679.8 324 1673.4 319C1671.9 317.9 1670.6 318.8 1670.6 320.6ZM1673.7 153.4C1673.4 157.1 1679.2 159.8 1679.8 153.1C1680.1 149.4 1675.5 147.3 1673.7 152.8C1673.7 152.8 1673.7 153.1 1673.7 153.4ZM1685.6 291.5C1685.6 292.4 1686.2 293.6 1687.7 292.4C1688.3 292.1 1689.8 291.8 1688.6 290.6C1687.1 289.1 1686.2 287.5 1685.5 290.6C1685.9 290.6 1685.6 290.9 1685.6 291.5ZM1695.4 384.9C1695.4 385.5 1696.9 386.1 1697.5 385.8C1698.7 385.2 1701.5 384.6 1699.6 383C1697.5 381.6 1695.1 381.3 1695.4 384.9ZM1714.9 82.9C1714.9 83.2 1714.9 83.5 1714.9 83.8C1715.2 85.3 1716.4 86.6 1718.9 86.6C1723.2 86.6 1724.7 79.6 1719.2 78.3C1717.1 78 1715.2 80.8 1714.9 82.9ZM1717.4 339.6C1717.4 339.9 1717.4 340.2 1717.7 340.8C1718.6 343.6 1722 343.6 1721.7 339.9C1721.3 337.8 1717.4 337.2 1717.4 339.6ZM1723.2 269.2C1725.3 270.4 1725.3 272.3 1726.6 268.3C1724.4 266.7 1723.8 265.5 1723.2 269.2Z" fill="white"/>
<path d="M1643.3 91.2C1643.3 90.3 1643 89.4 1641.2 89.7C1640 89.4 1640.3 89.1 1639.4 90C1639.1 91.2 1638.5 92.5 1639.7 93.4C1640.9 93.7 1642.5 94 1643.1 92.5C1643.3 92.1 1643.3 91.8 1643.3 91.2ZM1636.3 423.8C1636.3 423.5 1636.3 423.2 1635.7 422.6C1634.5 422.6 1633.6 422.6 1633.6 423.5C1634.2 425.3 1633.9 425.6 1636 425C1636 424.4 1636.3 424.1 1636.3 423.8ZM1610.9 129.1C1610.9 128.8 1610.9 128.8 1610.9 128.5C1609.7 128.5 1609.4 127.6 1608.1 128.2C1608.1 128.8 1607.2 129.4 1607.8 130C1608.1 130.6 1606.6 131.8 1608.7 131.5C1609.3 131.2 1610.5 132.1 1610.5 130.6C1610.6 130.1 1610.9 129.8 1610.9 129.1ZM1609.1 97.6C1609.1 97.3 1609.1 97 1608.8 96.7C1607.9 96.1 1609.4 93.9 1606.7 95.5C1606.4 96.7 1605.2 95.8 1605.8 97.9C1606.1 98.2 1606.1 99.7 1607 98.8C1607.3 98.2 1608.8 98.2 1609.1 97.6ZM1606.3 381.2C1606.3 380.9 1606.3 380.3 1606 379.4C1604.2 379.1 1603.6 378.5 1602.9 380.6C1603.2 380.9 1603.5 382.1 1604.1 382.1C1605.7 381.9 1606.3 381.9 1606.3 381.2ZM1602.1 167.7C1602.1 167.4 1602.1 167.4 1602.1 167.1C1602.1 166.8 1601.8 166.5 1601.5 166.2C1600.3 166.5 1600.3 164.7 1599.4 166.5C1599.4 167.1 1599.1 167.7 1599.7 168.3C1600 168.3 1600.9 169.5 1601.5 168.9C1601.8 168.7 1602.1 168.4 1602.1 167.7ZM1585.9 142.3C1585.9 142 1585.9 142 1585.9 141.7C1585.6 140.5 1585.9 139.2 1584.7 138.9C1583.5 139.2 1582.9 138.3 1582.3 140.4C1582.3 141 1582 141.9 1582.6 142.5H1584.7C1585 142.3 1585.9 143.2 1585.9 142.3ZM1585.6 415.2C1585.6 414.9 1585.6 414.3 1585.3 413.7C1584.4 413.7 1583.5 413.4 1582.2 414.3C1582.5 415.2 1582.5 415.8 1582.8 416.8C1584.7 416.2 1585.6 416.2 1585.6 415.2ZM1574.9 379.4C1574.9 379.1 1574.6 378.8 1574.3 378.2C1572.5 377.3 1572.2 377 1571.2 378.8C1571.5 380 1571.5 380.9 1573 380.9C1574.3 380.3 1574.9 380 1574.9 379.4ZM1570.3 100.4C1569.7 98.9 1569.1 97.9 1566.9 98.6C1566.3 99.8 1565.7 99.8 1566 101.4C1566.6 101.4 1567.2 102.9 1568.4 102.3C1569.4 101.3 1569.1 101.6 1570.3 100.4ZM1559.3 427.8C1559.3 427.5 1559.3 427.5 1559 427.2C1557.2 426.9 1555.9 426.9 1556.6 429C1557.5 429.3 1556.9 430.5 1558.7 429.6C1559 429 1559.6 428.4 1559.3 427.8ZM1554.7 81.4C1554.7 81.1 1554.7 80.8 1554.4 80.8C1553.2 79 1553.5 78 1551.1 78.7L1550.8 79L1550.5 81.8C1551.4 82.4 1550.2 83.3 1552 83C1552.3 83 1552.6 85.8 1553.8 83.9C1554.4 82.9 1554.7 82.3 1554.7 81.4ZM1547.1 333.2C1547.1 332.9 1547.1 332.3 1546.2 332.3C1545.9 332.6 1544.1 331.4 1545 333.2C1545.3 333.5 1544.7 334.7 1545.6 334.7C1546.2 334.7 1546.8 335.3 1547.1 334.4C1546.8 334.1 1547.1 333.5 1547.1 333.2ZM1530.6 32.4C1530.6 31.8 1530.3 30.9 1528.8 29.9C1528.2 31.1 1524.8 30.5 1527 34.5C1528.2 34.8 1528.8 37.3 1530.4 35.1C1530.3 33.9 1530.6 33 1530.6 32.4ZM1528.8 467.6C1526 466.4 1524.5 463.9 1525.1 470.7C1528.8 470.7 1528.8 471.9 1528.8 467.6ZM1438.4 550.3C1438.4 549.7 1438.1 549.4 1437.5 548.5C1436 548.8 1433.8 548.5 1434.1 550.6C1434.1 551.5 1433.8 552.1 1435 552.7C1436.5 553 1437.1 553.3 1438.1 552.1C1438.4 551.2 1438.4 550.9 1438.4 550.3Z" fill="white"/>
<defs>
<radialGradient id="paint0_radial_52_1279" cx="0" cy="0" r="1" gradientUnits="userSpaceOnUse" gradientTransform="translate(900.35 382.318) rotate(90) scale(316.682 715.13)">
<stop stop-color="#D71919"/>
<stop offset="1" stop-color="#B30101"/>
</radialGradient>
</defs>
</svg>
