<svg width="736" height="280" viewBox="0 0 736 280" fill="none" xmlns="http://www.w3.org/2000/svg">
<path d="M362.486 275.226C307.555 275.226 263.025 271.116 263.025 266.045C263.025 260.975 307.555 256.864 362.486 256.864C417.416 256.864 461.946 260.975 461.946 266.045C461.946 271.116 417.416 275.226 362.486 275.226Z" fill="#EFEFEF"/>
<path d="M462.796 174.046C462.286 171.155 456.336 150.243 434.573 148.203L435.764 169.965C435.764 169.965 452.425 175.576 456.506 182.717L462.796 174.046Z" fill="#E91E29"/>
<path d="M459.906 177.956L456.336 182.716C452.255 175.576 435.594 169.965 435.594 169.965L435.084 160.784C444.605 164.355 454.636 170.985 459.906 177.956Z" fill="#E91E29"/>
<path d="M457.866 181.866C459.226 184.587 458.546 197.338 466.367 193.428C471.807 190.537 473.848 180.166 464.667 174.046L457.866 181.866Z" fill="#493027"/>
<path opacity="0.5" d="M461.606 177.276C464.497 182.546 466.537 188.157 465.177 193.768C458.546 195.978 459.226 184.417 457.866 181.866L461.606 177.276Z" fill="#493027"/>
<path d="M467.387 173.366C466.366 170.815 463.476 164.865 460.076 169.285C456.675 173.706 452.255 179.656 453.445 181.696C454.635 183.737 454.465 187.307 457.696 186.797C460.756 186.117 468.407 175.916 467.387 173.366Z" fill="white"/>
<path d="M463.307 181.696C461.266 184.247 459.056 186.287 457.526 186.627C454.296 187.307 454.466 183.567 453.276 181.526C452.425 180.166 454.296 176.936 456.506 173.706C459.056 176.256 461.436 178.806 463.307 181.696Z" fill="#EAF4F4"/>
<path d="M273.804 39.0588L204.97 63.474L226.413 121.031C227.108 122.884 229.149 123.856 230.985 123.191L291.794 101.336C294.326 100.426 295.598 97.622 294.648 95.0678L273.804 39.0588Z" fill="white"/>
<path d="M229.552 103.987L230.79 107.384L282.721 88.3407L281.484 84.9436L229.552 103.987Z" fill="#444242"/>
<path d="M255.628 11.6016L202.218 62.5798L208.446 69.1047L261.856 18.1265L255.628 11.6016Z" fill="white"/>
<path d="M273.804 39.0588L268.524 50.5402L259.997 53.5983L265.34 41.8337L265.265 41.7964L253.426 46.0495L247.88 57.9442L237.683 61.6109L243.207 49.7796L243.132 49.7422L230.916 54.1401L225.371 66.0348L216.718 69.1411L222.254 57.3247L222.179 57.2873L204.97 63.474L226.413 121.031C227.108 122.884 229.149 123.856 230.985 123.191L291.794 101.336C294.326 100.426 295.598 97.622 294.648 95.0678L273.804 39.0588ZM281.511 85.2696L284.747 93.9836L232.953 112.599L229.717 103.885L228.956 101.823L280.765 83.1964L281.511 85.2696Z" fill="#444242"/>
<path d="M229.552 103.987L230.79 107.384L282.721 88.3407L281.484 84.9436L229.552 103.987Z" fill="#444242"/>
<path d="M215.72 49.6173L228.494 50.0511L237.881 41.0847L225.106 40.6509L215.72 49.6173Z" fill="#444242"/>
<path d="M242.377 24.1684L233.127 33.007L245.916 33.4295L255.012 24.7554L242.377 24.1684Z" fill="#444242"/>
<path d="M221.67 56.5605L208.903 56.1272L202.233 62.4769L208.51 69.0993L221.67 56.5605Z" fill="#444242"/>
<path d="M249.088 17.7827L261.713 18.3298L261.864 18.1921L255.597 11.5898L249.088 17.7827Z" fill="#444242"/>
<path d="M253.504 126.951C254.014 129.841 260.645 150.583 282.407 151.943L280.707 130.351C280.707 130.351 263.875 125.08 259.625 118.11L253.504 126.951Z" fill="#E91E29"/>
<path d="M255.204 124.4L253.504 126.951C254.014 129.841 260.645 150.583 282.407 151.943L281.897 144.633C271.016 140.552 261.325 134.091 255.204 124.4Z" fill="#E91E29"/>
<path d="M258.265 119.13C256.734 116.409 257.075 103.658 249.424 107.909C243.983 110.969 242.283 121.34 251.804 127.291L258.265 119.13Z" fill="#493027"/>
<path opacity="0.5" d="M251.294 117.09C250.444 114.369 249.424 110.799 249.764 107.739C249.764 107.739 249.764 107.739 249.594 107.739C244.153 110.799 242.453 121.17 251.974 127.121L255.034 123.21C253.504 121.51 252.144 119.64 251.294 117.09Z" fill="#493027"/>
<path d="M249.084 127.801C250.104 130.351 253.164 136.301 256.565 131.711C259.965 127.12 264.045 121.17 262.855 119.13C261.665 117.089 261.665 113.519 258.435 114.199C255.205 114.879 247.894 125.25 249.084 127.801Z" fill="white"/>
<path d="M251.804 120.66C249.764 123.55 248.403 126.61 248.913 127.8C249.934 130.351 252.994 136.301 256.394 131.711C257.074 130.691 257.924 129.671 258.604 128.651C255.884 126.44 253.674 123.72 251.804 120.66Z" fill="#EAF4F4"/>
<path d="M301.11 211.79L330.013 207.539L411.111 211.79H426.923C426.923 214.68 430.493 242.393 426.923 258.884H413.662C413.151 253.614 406.861 241.883 400.74 237.802C371.667 242.903 357.216 243.923 326.782 238.142C321.172 242.903 315.051 253.614 314.541 258.884H301.28C297.539 242.393 301.11 214.68 301.11 211.79Z" fill="#493027"/>
<path opacity="0.3" d="M299.749 231.342C300.259 221.481 301.109 213.32 301.109 211.79L330.012 207.539L411.111 211.79H426.923C426.923 213.15 427.773 220.12 428.283 228.791C393.599 240.693 353.645 244.093 299.749 231.342Z" fill="#493027"/>
<path d="M413.491 258.885V266.875H443.584C437.634 262.455 426.753 258.885 426.753 258.885H413.491Z" fill="#231F20"/>
<path d="M314.371 258.885V266.875H284.278C290.229 262.455 301.11 258.885 301.11 258.885H314.371Z" fill="#231F20"/>
<path d="M438.144 176.766L455.485 201.248C455.485 201.248 440.354 239.502 362.996 237.802C362.316 237.802 360.785 229.641 360.785 229.641C360.785 229.641 358.915 237.632 358.065 237.632C284.617 234.572 262.345 201.248 262.345 201.248C262.345 201.248 285.467 163.504 289.038 157.894L438.144 176.766Z" fill="#E91E29"/>
<path d="M395.81 210.939C382.888 215.7 365.886 214.51 354.155 222.161C352.625 213.66 333.413 207.029 327.802 204.989C309.611 198.358 289.038 191.217 278.497 175.066C283.428 167.245 287.848 160.104 289.208 157.894L438.144 176.766L440.694 180.506C432.363 195.808 411.111 205.159 395.81 210.939Z" fill="#E91E29"/>
<path d="M442.749 43.0375C433.319 40.8895 427.416 31.5038 429.564 22.0741C431.712 12.6444 441.098 6.74139 450.528 8.88943C459.957 11.0375 465.86 20.4231 463.712 29.8529C461.564 39.2826 452.178 45.1856 442.749 43.0375Z" fill="white"/>
<path d="M460.926 15.9287C460.926 16.7788 461.096 17.4589 461.096 18.309C461.266 25.2797 457.696 30.8903 451.405 33.4406C445.624 35.8208 435.933 35.4808 430.153 31.5704C432.533 38.3711 438.994 43.3016 446.644 43.3016C456.335 43.4716 464.156 35.6508 464.156 25.9598C464.156 22.2194 462.966 18.819 460.926 15.9287Z" fill="#EAF4F4"/>
<path d="M302.129 61.3237C302.129 61.3237 331.202 -1.75298 435.933 25.9599C435.933 25.9599 441.714 25.9599 441.544 32.0806C441.374 37.8612 428.112 63.7039 432.193 80.5357L302.129 61.3237Z" fill="#EE1C25"/>
<path d="M373.706 20.0093C375.237 19.8393 376.597 19.4992 378.127 19.1592C374.727 19.3292 371.496 19.6692 368.436 20.1793C370.306 20.1793 372.346 20.3493 373.706 20.0093Z" fill="#EE1C25"/>
<path opacity="0.5" d="M385.268 62.854C385.948 58.0935 386.628 54.3531 388.838 50.2727C388.838 50.1027 388.838 50.1026 389.008 49.9326C390.539 47.2123 378.637 42.7919 376.597 41.6018C375.237 40.7517 375.577 39.0515 376.937 38.5414C378.977 37.8614 381.698 36.8413 383.228 35.4811C383.568 35.1411 383.398 33.9509 383.908 33.6109C384.588 33.1009 385.438 32.5908 386.288 32.2508C390.199 30.3806 395.129 29.5305 399.549 28.1703C399.72 27.4903 400.06 26.8102 400.74 26.6402C406.86 24.6 412.981 23.2398 419.102 22.2197C415.531 21.5396 412.131 21.0296 408.73 20.5195C403.12 20.6895 397.509 20.6895 391.899 20.8596C385.948 21.0296 380.507 22.3897 374.727 23.4098C371.837 23.7499 363.506 22.7298 362.146 25.11C361.806 25.7901 361.125 25.9601 360.445 25.9601C360.275 29.8705 354.835 29.8705 350.754 30.0405C350.924 30.3806 351.264 30.7206 351.434 31.2307C352.285 32.2508 351.944 33.7809 350.754 34.121C348.034 34.801 345.314 34.631 342.423 34.801C343.274 35.6511 344.294 36.3312 344.974 37.3513C345.824 38.3714 345.484 39.9016 344.294 40.2416C338.513 41.9418 332.392 42.6219 326.442 43.982C321.171 45.3421 316.071 47.2123 310.8 48.9125C304.509 56.0533 301.959 61.4939 301.959 61.4939L383.398 73.5651C384.078 69.8247 384.758 66.4244 385.268 62.854Z" fill="#E91E29"/>
<path d="M441.374 30.3804C440.014 31.0604 438.654 31.9105 437.293 32.7606C433.553 35.3109 430.323 38.2012 426.242 40.0714C421.652 41.9416 418.422 44.3218 414.171 45.1719C415.021 46.192 415.871 47.0421 416.891 48.0622C417.911 49.2524 416.891 51.6326 415.191 50.9525C398.699 44.1518 378.467 44.6619 360.955 44.6619C342.253 44.8319 323.211 47.2121 306.04 54.863C303.149 58.7734 301.959 61.4937 301.959 61.4937L432.193 80.5357C428.113 63.7039 441.374 37.8612 441.544 32.0806C441.544 31.4005 441.374 30.8904 441.374 30.3804Z" fill="#E91E29"/>
<path d="M295.669 81.2156C294.989 82.0657 276.797 128.311 360.445 128.311C444.094 128.311 427.093 81.2156 427.093 81.2156C417.912 64.3839 329.332 30.7203 295.669 81.2156Z" fill="#FFC8A8"/>
<path opacity="0.5" d="M422.842 88.0164C421.652 90.9067 418.082 99.4076 417.231 97.8774C411.281 87.3363 398.189 85.8061 387.648 88.0164C378.127 90.0566 369.966 84.956 360.445 84.786C353.645 84.616 347.354 86.3162 340.723 87.1663C335.283 87.8464 329.842 86.9963 324.232 87.5063C312.16 88.6964 303.149 97.5374 298.559 108.078C305.53 118.79 322.531 128.311 360.445 128.311C416.211 128.311 427.263 107.398 428.453 93.2869C426.752 91.5867 424.712 89.7165 422.842 88.0164Z" fill="#FFC8A8"/>
<path d="M299.239 80.5356C299.749 91.0768 292.948 121 355.175 117.94C417.401 114.709 424.202 103.998 423.012 81.5557C423.012 81.5557 470.277 125.76 443.074 169.795C415.871 213.83 359.595 205.159 355.345 216.38C352.115 202.949 309.61 201.418 287.168 171.835C268.126 146.673 272.036 94.8172 299.239 80.5356Z" fill="white"/>
<path d="M436.274 166.225C433.553 169.965 427.263 180.166 421.482 178.296C417.912 177.106 418.422 173.706 419.952 170.135C415.191 174.556 410.771 179.316 406.18 183.567C402.44 186.967 398.36 190.707 392.919 189.687C392.239 189.517 391.729 188.667 391.729 187.987C391.899 183.737 393.769 180.676 395.979 177.276C398.19 173.876 400.23 170.305 402.1 166.735C391.899 174.556 382.038 182.887 370.987 189.517C369.797 190.197 368.606 189.347 368.436 187.987C367.926 182.377 368.436 176.766 368.947 171.155C367.076 174.046 365.206 176.936 363.506 179.996C361.296 184.077 359.766 188.327 356.025 191.388C355.005 192.238 353.645 191.898 353.135 190.707C350.925 184.927 347.694 179.486 345.484 173.706C344.464 179.656 342.594 185.607 341.914 190.878C341.744 191.898 340.894 192.918 339.703 192.578C329.672 189.687 323.552 180.336 317.091 172.346C318.281 176.936 320.661 181.016 323.042 185.267C323.892 186.797 322.192 188.157 320.661 187.647C307.06 181.697 296.009 171.155 287.848 158.744C281.047 148.373 277.817 136.812 275.437 125.081C274.077 142.252 277.817 160.104 286.828 172.176C309.44 201.419 351.945 202.949 355.175 216.38C359.426 205.159 415.701 213.83 442.904 169.795C450.895 156.874 452.425 143.953 450.725 132.051C449.025 143.953 444.094 155.684 436.274 166.225Z" fill="#EFEFEF"/>
<path d="M373.366 94.9873C384.758 88.3566 399.719 83.5961 410.77 95.6674C420.121 105.868 430.152 116.92 437.633 102.128C437.633 102.128 446.644 122.87 421.822 134.261C402.78 142.932 376.937 141.232 366.566 118.62C355.174 93.7972 373.366 94.9873 373.366 94.9873Z" fill="white"/>
<path d="M437.804 102.298C435.933 116.92 427.942 128.311 404.48 128.311C403.29 128.311 406.52 124.06 407.03 122.7C407.71 121.17 408.22 119.64 408.56 118.28C403.8 121.34 398.529 123.72 392.749 123.89C390.879 124.06 394.279 120.15 395.299 119.81C385.438 120.49 375.577 116.24 368.436 109.269C366.226 107.059 364.356 104.678 362.996 102.298C362.316 105.868 362.996 110.969 366.566 118.62C377.107 141.232 402.78 142.932 421.822 134.261C445.794 123.21 438.314 103.658 437.804 102.298Z" fill="#EFEFEF"/>
<path d="M349.224 94.9873C337.833 88.3566 322.871 83.5961 311.82 95.6674C302.469 105.868 292.438 116.92 284.957 102.128C284.957 102.128 275.946 122.87 300.769 134.261C319.811 142.932 345.654 141.232 356.025 118.62C367.586 93.7972 349.224 94.9873 349.224 94.9873Z" fill="white"/>
<path d="M355.175 96.3474C348.034 108.929 334.432 119.47 320.491 116.41C321.511 117.26 327.802 125.08 325.762 124.74C321.001 124.06 313.69 119.64 309.27 118.11C310.8 119.81 314.2 131.541 312.67 131.541C294.988 130.861 285.127 117.6 284.617 103.658C283.087 108.759 280.367 124.57 300.939 134.091C319.981 142.762 345.824 141.062 356.195 118.45C362.995 103.998 359.255 98.3876 355.175 96.3474Z" fill="#EFEFEF"/>
<path d="M357.215 131.541C335.9 131.541 318.621 121.265 318.621 108.589C318.621 95.9124 335.9 85.6362 357.215 85.6362C378.53 85.6362 395.809 95.9124 395.809 108.589C395.809 121.265 378.53 131.541 357.215 131.541Z" fill="#FFB1A6"/>
<path opacity="0.08" d="M373.367 93.7971C373.367 97.3675 366.056 100.258 357.215 100.258C348.204 100.258 341.063 97.3675 341.063 93.7971C341.063 90.2267 348.374 87.3364 357.215 87.3364C366.226 87.3364 373.367 90.2267 373.367 93.7971Z" fill="#FF0000"/>
<path opacity="0.5" d="M427.092 81.2159C424.202 75.9453 413.151 68.8045 398.359 63.364C398.359 63.364 398.359 63.194 398.189 63.194C397.339 61.4938 395.129 61.1537 392.239 61.3238C360.956 51.2927 316.921 49.0825 295.499 81.3859C295.329 81.5559 294.649 83.2561 294.138 85.8063C301.449 79.5157 311.31 75.4352 319.981 72.2049C323.042 71.0148 326.102 70.3347 329.162 69.6546C334.943 72.0349 341.914 73.055 343.444 69.9947C343.784 69.3146 343.784 68.8046 343.784 68.2945C351.775 68.1245 359.765 68.6345 367.756 68.6345C370.477 68.6345 373.367 68.8045 376.087 68.9746C375.747 69.8247 376.087 70.5047 377.107 71.1848C379.487 72.5449 385.098 72.2049 390.029 70.8448C401.42 73.055 411.961 76.9654 421.312 83.4261C422.332 83.0861 423.692 83.7661 423.692 85.1263C425.222 86.3164 426.922 87.6765 428.453 89.0367C428.283 84.1062 427.092 81.2159 427.092 81.2159Z" fill="#FFC8A8"/>
<path opacity="0.08" d="M388.668 115.389C378.297 122.02 365.716 124.4 353.475 123.89C343.954 123.55 328.992 122.19 320.491 115.389C325.252 124.74 340.043 131.541 357.385 131.541C377.787 131.541 394.449 122.19 395.809 110.119C393.429 112.159 391.049 113.859 388.668 115.389Z" fill="#FF0000"/>
<path d="M294.139 68.2945C302.129 55.5432 311.99 43.4719 357.215 43.4719C407.37 43.4719 429.643 59.4536 434.573 76.6254C437.634 86.9965 422.842 89.5468 422.842 89.5468C422.842 89.5468 425.562 61.6638 345.824 66.5944C294.309 69.6547 299.409 89.5468 299.409 89.5468C299.409 89.5468 285.128 82.576 294.139 68.2945Z" fill="white"/>
<path d="M434.573 76.6255C434.063 74.9253 433.383 73.2251 432.533 71.525C432.703 74.2452 432.193 76.9655 430.663 79.0057C428.452 81.726 423.012 77.4756 420.802 75.9454C413.491 71.0149 406.18 67.2745 397.679 64.8943C379.827 59.9637 358.065 58.7736 339.703 61.4939C330.692 62.854 322.191 64.8943 313.69 68.1246C301.279 72.8851 298.729 81.386 294.818 80.8759C293.288 80.7059 292.098 79.6858 291.078 78.4957C291.928 85.8065 299.239 89.3768 299.239 89.3768C299.239 89.3768 294.138 69.4847 345.654 66.4244C425.392 61.6639 422.672 89.3768 422.672 89.3768C422.672 89.3768 437.633 86.9966 434.573 76.6255Z" fill="#E2E2E2"/>
<path d="M377.447 69.1444C382.208 72.0347 401.59 67.4442 398.53 61.3235C395.299 55.2029 370.987 65.404 377.447 69.1444Z" fill="white"/>
<path d="M397.85 60.6436C393.769 66.5942 382.208 68.2944 376.597 68.4644C376.767 68.8044 377.107 68.9744 377.447 69.3145C382.208 72.2048 401.59 67.6143 398.53 61.4936C398.19 60.9836 398.02 60.8136 397.85 60.6436Z" fill="#E2E2E2"/>
<path d="M322.701 60.3035C327.462 57.4132 346.844 62.0037 343.784 68.1244C340.553 74.415 316.241 64.0439 322.701 60.3035Z" fill="white"/>
<path d="M334.263 66.0841C330.182 64.724 325.932 63.0238 322.191 60.6436C317.941 64.724 340.723 74.075 343.784 68.1243C340.553 67.6143 337.323 67.1042 334.263 66.0841Z" fill="#E2E2E2"/>
<g opacity="0.5">
<path opacity="0.5" d="M344.124 85.1264C343.103 85.1264 342.423 84.4463 342.423 83.4262C342.423 81.896 341.743 80.5359 340.553 79.6858C339.363 78.8357 337.663 78.3257 335.793 78.3257C332.562 78.3257 329.162 79.8558 329.162 83.4262C329.162 84.4463 328.482 85.1264 327.462 85.1264C326.442 85.1264 325.762 84.4463 325.762 83.4262C325.762 77.8156 330.862 74.9253 335.793 74.9253C340.723 74.9253 345.824 77.8156 345.824 83.4262C345.824 84.2763 344.974 85.1264 344.124 85.1264Z" fill="#FFC8A8"/>
</g>
<g opacity="0.5">
<path opacity="0.5" d="M376.597 85.1264C377.617 85.1264 378.297 84.4463 378.297 83.4262C378.297 81.896 378.977 80.5359 380.167 79.6858C381.358 78.8357 383.058 78.3257 384.928 78.3257C388.158 78.3257 391.559 79.8558 391.559 83.4262C391.559 84.4463 392.239 85.1264 393.259 85.1264C394.279 85.1264 394.959 84.4463 394.959 83.4262C394.959 77.8156 389.858 74.9253 384.928 74.9253C379.997 74.9253 374.897 77.8156 374.897 83.4262C374.897 84.2763 375.747 85.1264 376.597 85.1264Z" fill="#FFC8A8"/>
</g>
<path d="M344.124 83.4262C343.103 83.4262 342.423 82.7461 342.423 81.726C342.423 80.1958 341.743 78.8357 340.553 77.9856C339.363 77.1355 337.663 76.6255 335.793 76.6255C332.562 76.6255 329.162 78.1556 329.162 81.726C329.162 82.7461 328.482 83.4262 327.462 83.4262C326.442 83.4262 325.762 82.7461 325.762 81.726C325.762 76.1154 330.862 73.2251 335.793 73.2251C340.723 73.2251 345.824 76.1154 345.824 81.726C345.824 82.5761 344.974 83.4262 344.124 83.4262Z" fill="#493027"/>
<path d="M376.597 83.4262C377.617 83.4262 378.297 82.7461 378.297 81.726C378.297 80.1958 378.977 78.8357 380.167 77.9856C381.358 77.1355 383.058 76.6255 384.928 76.6255C388.158 76.6255 391.559 78.1556 391.559 81.726C391.559 82.7461 392.239 83.4262 393.259 83.4262C394.279 83.4262 394.959 82.7461 394.959 81.726C394.959 76.1154 389.858 73.2251 384.928 73.2251C379.997 73.2251 374.897 76.1154 374.897 81.726C374.897 82.5761 375.747 83.4262 376.597 83.4262Z" fill="#493027"/>
<path d="M402.61 82.746C400.91 83.9361 399.379 85.6363 398.019 87.3365C397.679 87.6765 398.359 88.3566 398.699 88.0166C400.23 86.6564 401.93 85.2963 403.46 83.9361C404.14 83.2561 403.29 82.236 402.61 82.746ZM406.52 84.1061C405.16 85.1263 403.8 86.1464 402.78 87.5065C402.61 87.6765 402.1 87.5065 402.27 87.3365C403.12 85.6363 404.14 84.2762 405.84 83.4261C406.52 82.916 407.03 83.7661 406.52 84.1061ZM409.07 85.2963C408.05 85.9763 407.03 86.4864 406.35 87.5065C406.01 87.8465 405.33 87.5065 405.67 86.9965C406.35 85.9763 407.37 84.9562 408.56 84.4462C409.07 84.4462 409.581 84.9562 409.07 85.2963Z" fill="#F98271"/>
<path d="M318.621 83.7659C320.151 85.1261 321.851 86.4862 323.382 87.8464C323.722 88.1864 324.402 87.6763 324.062 87.1663C322.701 85.4661 321.341 83.7659 319.471 82.5758C318.791 82.2358 317.771 83.2559 318.621 83.7659ZM316.071 83.2559C317.771 84.106 318.791 85.6361 319.641 87.1663C319.811 87.5063 319.301 87.6763 319.131 87.3363C318.111 85.9762 316.751 84.9561 315.391 83.9359C315.051 83.7659 315.561 82.9158 316.071 83.2559ZM313.521 84.616C314.711 84.956 315.731 86.1462 316.411 87.1663C316.751 87.6763 316.071 88.0164 315.731 87.6763C314.881 86.6562 314.031 86.1462 313.01 85.4661C312.5 84.956 313.01 84.446 313.521 84.616Z" fill="#F98271"/>
<path d="M576.405 275C530.894 275 494 271.07 494 266.223C494 261.376 530.894 257.446 576.405 257.446C621.916 257.446 658.81 261.376 658.81 266.223C658.81 271.07 621.916 275 576.405 275Z" fill="#EFEFEF"/>
<path d="M651.728 214.789C650.485 219.36 648.737 223.763 646.552 227.964C645.544 229.914 644.469 231.796 643.292 233.644C630.252 254.146 606.893 268.666 582.055 270.144C550.126 272.027 518.197 252.197 506.669 223.36C502.938 214.05 501.425 204.034 501.93 194.086C502.165 189.683 502.77 185.246 503.745 180.911C506.4 169.248 511.811 158.157 519.608 148.914C521.591 146.561 523.709 144.343 525.994 142.226C548.983 121.152 585.752 116.716 613.615 130.53C614.926 131.168 616.203 131.874 617.446 132.58C618.085 132.949 618.757 133.353 619.396 133.722C619.665 133.891 619.9 134.025 620.169 134.193C620.27 134.26 620.404 134.327 620.505 134.428C638.99 146.393 650.989 166.761 653.577 188.137C654.652 197.043 654.081 206.084 651.728 214.789Z" fill="white"/>
<path d="M651.728 214.789C650.484 219.36 648.737 223.763 646.552 227.964C645.544 229.914 644.468 231.796 643.292 233.644C635.662 234.148 627.999 233.812 620.437 232.602C615.194 231.762 608.976 228.872 603.7 229.544C598.792 230.149 595.465 230.956 590.659 229.107C587.063 227.695 583.702 225.679 580.643 223.326C577.954 221.276 575.501 218.654 572.174 217.579C566.729 215.831 562.057 215.159 558.158 210.554C554.797 206.588 552.982 201.177 553.755 195.968C555.537 183.801 553.52 170.76 561.284 161.182C567.267 153.788 575.669 148.679 584.307 144.713C595.768 139.47 608.002 136.042 620.504 134.462C638.99 146.427 650.988 166.794 653.576 188.17C654.652 197.043 654.081 206.084 651.728 214.789Z" fill="#EFEFEF"/>
<path d="M620.135 134.26C614.791 140.007 608.473 144.847 601.583 148.578C588.878 155.367 574.191 157.921 559.806 157.115C557.823 165.181 557.655 173.617 558.528 181.852C559.402 190.119 561.049 198.018 563.267 206.017C558.73 206.622 554.159 207.227 549.622 206.924C545.051 206.622 540.446 205.345 536.85 202.488C536.413 202.152 535.976 201.782 535.707 201.312C535.439 200.875 535.338 200.37 535.203 199.866C531.405 184.742 529.254 169.819 528.549 154.258C525.356 152.947 522.331 151.132 519.608 148.948C521.591 146.595 523.709 144.343 525.994 142.259C548.983 121.186 585.786 116.749 613.615 130.563C614.926 131.202 616.203 131.907 617.446 132.647C618.085 133.017 618.757 133.42 619.396 133.79C619.631 133.924 619.9 134.092 620.135 134.26Z" fill="#EFEFEF"/>
<path d="M630.991 241.811C617.614 248.365 602.456 252.768 587.735 254.885C574.258 256.801 559.201 257.171 546.53 251.457C533.456 245.575 522.062 234.753 515.373 222.116C513.861 219.259 512.651 216.301 511.609 213.243C507.374 205.008 504.316 196.102 502.602 186.994C502.266 189.346 502.03 191.699 501.896 194.052C501.392 204 502.904 214.016 506.601 223.292C518.129 252.163 550.059 271.959 581.988 270.077C606.053 268.665 628.706 255.02 641.948 235.526C638.452 237.845 634.789 239.929 630.991 241.811Z" fill="#EFEFEF"/>
<path d="M617.144 94.5334C617.009 95.6762 616.808 96.8189 616.606 97.9616C615.463 103.709 613.279 109.255 610.018 114.195C598.759 131.303 575.501 139.94 555.167 134.596C534.8 129.286 518.902 110.364 517.592 89.9625C517.457 88.1476 517.457 86.3327 517.592 84.5513C518.297 73.0232 523.507 61.8647 531.674 53.4959C535.842 49.2275 540.782 45.6985 546.261 43.2113C546.731 42.9761 547.202 42.7744 547.706 42.5728C566.124 34.9769 589.18 39.8504 603.397 53.7984C604.439 54.8067 605.414 55.8822 606.355 56.9913C606.59 57.2602 606.792 57.5291 607.027 57.798C610.455 62.0664 613.043 66.8726 614.791 71.9477C617.278 79.1738 618.118 86.9712 617.144 94.5334Z" fill="white"/>
<path d="M517.86 92.7185C520.347 112.044 535.741 129.521 555.167 134.596C574.661 139.705 596.776 132.008 608.506 116.346C579.366 135.672 531.304 124.984 517.86 92.7185Z" fill="#EFEFEF"/>
<path d="M540.484 100.087C544.852 96.5149 545.497 90.0777 541.924 85.7096C538.352 81.3414 531.915 80.6964 527.546 84.2689C523.178 87.8415 522.533 94.2786 526.106 98.6468C529.678 103.015 536.116 103.66 540.484 100.087Z" fill="#FFC8A8"/>
<path d="M583.534 84.5849C583.265 87.3745 581.618 89.4919 579.87 89.3239C578.122 89.1558 576.946 86.7359 577.249 83.9463C577.517 81.1567 579.164 79.0393 580.912 79.2073C582.626 79.3754 583.836 81.7953 583.534 84.5849Z" fill="#EFEFEF"/>
<path d="M584.583 81.9445C584.862 79.1557 583.682 76.7538 581.945 76.5798C580.209 76.4059 578.575 78.5257 578.296 81.3146C578.017 84.1034 579.197 86.5053 580.934 86.6792C582.67 86.8532 584.304 84.7334 584.583 81.9445Z" fill="#282929"/>
<path d="M548.971 80.9414C549.548 78.1985 548.632 75.6835 546.925 75.3241C545.217 74.9647 543.365 76.8968 542.788 79.6397C542.21 82.3826 543.126 84.8976 544.834 85.257C546.541 85.6165 548.394 83.6843 548.971 80.9414Z" fill="#EFEFEF"/>
<path d="M550.294 78.4344C549.723 81.1904 547.874 83.1061 546.16 82.7364C544.446 82.3667 543.538 79.846 544.11 77.1236C544.681 74.3676 546.53 72.4518 548.244 72.8215C549.958 73.1912 550.865 75.712 550.294 78.4344Z" fill="#282929"/>
<path d="M598.602 102.823C600.331 97.4514 597.378 91.6954 592.007 89.9664C586.635 88.2374 580.879 91.1902 579.15 96.5617C577.421 101.933 580.374 107.689 585.745 109.418C591.117 111.147 596.873 108.194 598.602 102.823Z" fill="#FFC8A8"/>
<path d="M567.972 87.4418C566.359 87.0385 564.712 86.7024 563.099 86.3326C561.587 85.9965 560.074 85.6268 558.528 85.4924C555.907 85.2907 552.747 85.9293 551.672 88.6517C551.235 89.7272 551.168 90.9036 551.134 92.0463C550.966 98.4322 552.378 104.885 555.436 110.498C556.142 111.809 557.049 113.12 558.461 113.59C559.402 113.926 560.478 113.758 561.419 113.355C562.326 112.952 563.133 112.279 563.805 111.54C566.594 108.616 568.006 104.684 569.586 100.953C570.661 98.4322 571.838 95.9114 572.308 93.189C572.543 91.7774 572.543 90.1642 571.569 89.0886C570.897 88.3156 569.888 87.9795 568.914 87.7106C568.645 87.6098 568.309 87.5426 567.972 87.4418Z" fill="#EFEFEF"/>
<path d="M571.636 93.1555C571.535 93.4244 571.434 93.6596 571.333 93.9285C571.098 94.6007 570.796 95.2393 570.527 95.8443C570.09 96.7853 569.586 97.6928 569.082 98.5667C569.048 98.6339 569.014 98.7011 568.947 98.7347C568.645 99.2389 568.309 99.743 567.972 100.214C566.359 102.566 564.41 104.717 562.292 106.633C561.519 107.339 560.545 108.078 559.503 107.944C558.562 107.843 557.822 107.036 557.217 106.297C555.167 103.575 553.789 100.415 552.983 97.1214C552.814 96.4492 552.68 95.7771 552.579 95.0712C552.512 94.6343 552.445 94.1974 552.378 93.7605C552.277 92.9874 552.209 92.2144 552.176 91.4414C552.176 91.3742 552.176 91.307 552.176 91.2397C552.142 90.8028 552.142 90.3323 552.209 89.8953C552.243 89.5929 552.31 89.324 552.378 89.0551C552.747 87.946 553.52 87.341 554.529 87.0049C556.915 86.2319 560.578 87.2066 562.46 87.6099C564.88 88.114 567.3 88.6518 569.72 89.1895C570.359 89.324 571.098 89.492 571.535 89.9962C572.275 90.8364 572.039 92.1136 571.636 93.1555Z" fill="#F39323"/>
<path d="M568.981 98.7347C568.678 99.2388 568.342 99.743 568.006 100.214C566.393 102.566 564.444 104.717 562.326 106.633C561.553 107.339 560.578 108.078 559.537 107.944C558.595 107.843 557.856 107.036 557.251 106.297C555.201 103.574 553.823 100.415 553.016 97.1214C552.848 96.4492 552.714 95.777 552.613 95.0712C552.546 94.6343 552.478 94.1974 552.411 93.7604C552.31 92.9874 552.243 92.2144 552.21 91.4414C552.21 91.3741 552.21 91.3069 552.21 91.2397C552.176 90.8028 552.176 90.3322 552.243 89.8953C552.277 89.5928 552.344 89.324 552.411 89.0551C552.781 87.946 553.554 87.341 554.562 87.0049C554.495 87.9123 554.495 88.7862 554.529 89.6937C554.629 91.6094 554.999 93.4916 555.638 95.2729C555.974 96.2476 556.411 97.2222 557.083 98.0289C558.663 99.911 561.318 100.516 563.771 100.281C565.586 100.113 567.3 99.5413 568.981 98.7347Z" fill="#E97F14"/>
<path d="M589.752 103.44C589.718 103.675 589.483 103.81 589.248 103.776H589.214C588.979 103.743 588.844 103.474 588.878 103.272C589.08 102.365 589.281 101.323 589.08 100.415C588.979 99.9111 588.744 99.4406 588.441 99.0709C584.408 104.65 579.03 108.717 573.149 110.868C568.611 112.548 563.805 113.12 559.066 112.38C558.495 112.313 557.957 112.179 557.419 112.078C551.336 110.733 545.992 107.473 542.093 103.037C539.472 99.9783 537.522 96.3821 536.48 92.4498C536.178 92.685 535.909 92.9539 535.674 93.2564C535.17 93.8614 534.834 94.6344 534.464 95.3738C534.363 95.5419 534.195 95.6427 533.993 95.6091C533.96 95.6091 533.893 95.5755 533.859 95.5755C533.657 95.4746 533.556 95.2058 533.657 95.0041C534.027 94.2311 534.397 93.3908 534.968 92.7186C536.111 91.307 537.892 90.5004 539.741 90.6012C539.976 90.6012 540.178 90.8365 540.178 91.0718C540.178 91.307 539.942 91.5087 539.707 91.5087C538.833 91.4751 537.993 91.6431 537.253 92.0128C537.926 94.7016 538.968 97.0543 540.278 99.1717C544.58 106.129 551.773 109.994 557.587 111.271C563.604 112.582 569.889 111.708 575.535 108.986C580.207 106.7 584.475 103.171 587.769 98.5667C587.702 98.4995 587.634 98.4659 587.534 98.3987C586.828 98.029 585.92 97.9618 585.047 98.2306C584.811 98.2979 584.576 98.1634 584.509 97.9282C584.442 97.6929 584.576 97.4576 584.811 97.3904C585.92 97.0879 587.03 97.1551 587.937 97.6257C588.945 98.1298 589.718 99.1381 589.954 100.314C590.222 101.323 589.954 102.499 589.752 103.44Z" fill="#412413"/>
<path d="M614.154 131.202C613.448 133.353 611.364 135.134 609.683 136.478C607.936 137.856 606.054 139.134 604.171 140.276C603.634 140.612 603.096 140.915 602.525 141.217C601.449 141.822 600.374 142.394 599.264 142.898C598.693 143.167 598.122 143.436 597.55 143.671C591.097 146.528 584.106 148.275 577.082 148.948C576.511 149.015 575.906 149.048 575.334 149.082C575.166 149.082 574.998 149.116 574.797 149.116C573.116 149.216 571.402 149.284 569.721 149.284C569.15 149.284 568.545 149.284 567.974 149.25C557.319 149.048 546.598 146.763 536.784 142.73C536.213 142.495 535.641 142.259 535.103 142.024C534.566 141.789 534.062 141.553 533.557 141.318C532.482 140.848 531.406 140.31 530.432 139.671C529.86 139.302 529.289 138.932 528.785 138.461C528.718 138.428 528.684 138.394 528.65 138.327C526.768 136.68 526.835 135.336 526.97 132.949C527.037 131.941 527.071 130.933 527.138 129.891C527.306 127.471 527.575 125.017 528.281 122.732C529.02 120.278 530.532 119.64 532.751 120.715C532.986 120.85 533.255 120.951 533.49 121.052C534.028 121.32 534.566 121.556 535.103 121.757C536.481 122.362 537.859 122.866 539.305 123.303C539.876 123.471 540.414 123.639 540.985 123.774C541.456 123.908 541.96 124.009 542.43 124.144C548.783 125.555 555.303 126.429 561.857 126.698C563.638 126.765 565.453 126.799 567.234 126.799C568.31 126.799 569.385 126.765 570.461 126.698C571.066 126.664 571.671 126.631 572.276 126.597C573.284 126.53 574.292 126.463 575.301 126.362C575.906 126.295 576.477 126.261 577.048 126.16C582.829 125.522 588.543 124.345 594.055 122.53C594.626 122.362 595.164 122.161 595.735 121.993C596.408 121.757 597.046 121.522 597.718 121.287C598.256 121.085 598.828 120.85 599.365 120.648C600.172 120.312 600.979 119.976 601.785 119.64C604.003 118.665 606.154 117.59 608.205 116.245C609.28 115.54 610.658 114.834 611.364 116.447C612.507 119.136 613.347 122.228 613.885 125.219C614.12 126.53 614.322 127.841 614.422 129.118C614.456 129.924 614.355 130.563 614.154 131.202Z" fill="#E91E29"/>
<path opacity="0.12" d="M614.153 131.202C613.447 133.353 611.363 135.134 609.682 136.478C599.801 144.242 587.332 148.376 574.795 149.183C560.78 150.09 546.261 147.233 533.556 141.385C531.809 140.579 530.061 139.705 528.616 138.428C526.734 136.781 526.801 135.436 526.935 133.05C527.002 132.042 527.036 131.034 527.103 129.992C530.632 133.117 534.665 135.672 539.001 137.52C542.295 138.932 546.16 139.94 549.387 138.394C551.974 137.151 553.588 134.596 555.436 132.412C557.251 130.261 559.402 128.378 561.789 126.832C563.57 126.9 565.385 126.933 567.166 126.933C566.292 128.983 565.923 131.302 565.654 133.521C565.351 136.209 565.217 139.234 567.065 141.251C569.115 143.469 572.611 143.335 575.602 142.864C584.778 141.486 593.819 138.697 601.919 134.126C606.221 131.706 610.254 128.748 613.816 125.354C614.052 126.664 614.253 127.975 614.354 129.252C614.455 129.924 614.354 130.563 614.153 131.202Z" fill="#333333"/>
<path d="M535.338 191.229C535.338 190.086 533.59 190.052 533.59 191.195C533.59 194.623 533.892 198.051 534.464 201.412C534.632 202.521 536.346 202.118 536.178 200.975C535.64 197.749 535.371 194.489 535.338 191.229Z" fill="#A50E16"/>
<path d="M539.539 202.589C538.799 199.06 538.463 195.463 538.53 191.867C538.564 190.724 536.783 190.691 536.783 191.834C536.715 195.598 537.085 199.329 537.858 203.026C538.06 204.135 539.774 203.698 539.539 202.589Z" fill="#A50E16"/>
<path d="M543.034 203.093C542.597 199.362 542.16 195.631 541.757 191.901C541.69 191.43 541.118 191.161 540.681 191.262C540.177 191.396 539.976 191.867 540.043 192.338C540.48 196.068 540.917 199.799 541.32 203.53C541.387 204 541.959 204.269 542.395 204.168C542.9 204.034 543.068 203.597 543.034 203.093Z" fill="#A50E16"/>
<path d="M545.521 192.27C545.488 191.8 545.185 191.396 544.681 191.363C544.244 191.363 543.74 191.733 543.774 192.203C544.009 194.858 544.21 197.48 544.446 200.135C544.479 200.605 544.782 201.009 545.286 201.042C545.723 201.042 546.227 200.673 546.193 200.202C545.958 197.547 545.757 194.925 545.521 192.27Z" fill="#A50E16"/>
<path d="M549.185 192.943C549.151 192.472 548.849 192.069 548.345 192.035C547.908 192.035 547.404 192.405 547.437 192.875C547.672 195.06 547.874 197.245 548.109 199.429C548.143 199.9 548.445 200.303 548.95 200.337C549.387 200.337 549.891 199.967 549.857 199.497C549.622 197.346 549.387 195.127 549.185 192.943Z" fill="#A50E16"/>
<path d="M554.394 200.673C553.755 197.581 553.083 194.455 552.445 191.363C552.209 190.254 550.495 190.691 550.731 191.8C551.369 194.892 552.041 198.018 552.68 201.11C552.949 202.185 554.629 201.782 554.394 200.673Z" fill="#A50E16"/>
<path d="M565.889 126.832C565.183 127.908 564.679 129.051 564.208 130.261C564.107 130.529 564.007 130.765 563.906 131.034C563.805 131.336 563.671 131.639 563.57 131.975C563.2 133.017 562.83 134.058 562.494 135.1C562.293 135.672 562.124 136.243 561.956 136.848C560.108 142.831 558.763 148.948 557.621 155.132C557.52 155.703 557.419 156.275 557.318 156.846C557.117 157.955 556.915 159.03 556.713 160.14C556.713 160.173 556.713 160.173 556.713 160.207C556.612 160.745 556.512 161.316 556.411 161.854C555.403 167.735 554.495 173.684 554.159 179.633C554.125 180.205 554.092 180.81 554.092 181.415C554.025 183.095 554.025 184.776 554.058 186.422C554.092 186.994 554.092 187.599 554.125 188.17C554.226 190.153 554.428 192.136 554.73 194.119C547.437 194.59 540.144 194.354 532.918 193.581C532.615 191.699 532.38 189.783 532.178 187.868C532.111 187.263 532.044 186.624 532.01 186.019C531.943 185.381 531.909 184.776 531.876 184.137C531.741 182.356 531.64 180.574 531.607 178.793C531.573 178.154 531.573 177.516 531.573 176.877C531.506 170.088 532.077 163.299 533.186 156.577C533.287 155.972 533.388 155.401 533.489 154.796C533.758 153.283 534.06 151.771 534.396 150.258C534.531 149.653 534.665 149.048 534.8 148.443C535.573 145.15 536.447 141.856 537.489 138.629C538.631 135.033 539.942 131.437 542.127 128.378C542.631 127.673 543.169 127 543.774 126.395C544.21 125.925 544.681 125.522 545.152 125.118C546.294 124.211 547.605 123.471 549.05 123.102C549.084 123.102 549.151 123.068 549.185 123.068C550.159 122.833 551.134 122.732 552.109 122.766C552.915 122.766 553.756 122.833 554.562 122.934C557.486 123.337 560.31 124.144 562.998 125.32C563.939 125.757 564.948 126.261 565.889 126.832Z" fill="#E91E29"/>
<path opacity="0.12" d="M565.889 126.832C565.183 127.908 564.679 129.051 564.208 130.26C564.107 130.529 564.007 130.765 563.906 131.033C563.805 131.336 563.671 131.638 563.57 131.975C563.2 133.016 562.83 134.058 562.494 135.1C562.293 135.672 562.125 136.243 561.956 136.848C560.108 142.831 558.764 148.947 557.621 155.132C557.52 155.703 557.419 156.274 557.318 156.846C557.117 157.955 556.915 159.03 556.713 160.14C556.713 160.173 556.713 160.173 556.713 160.207C556.613 160.745 556.512 161.316 556.411 161.854C555.403 167.735 554.495 173.684 554.159 179.633C554.125 180.205 554.092 180.81 554.092 181.415C554.025 183.095 554.025 184.775 554.058 186.422C554.092 186.994 554.092 187.599 554.125 188.17C554.226 190.153 554.428 192.136 554.73 194.119C547.437 194.59 540.144 194.354 532.918 193.581C532.615 191.699 532.38 189.783 532.178 187.868C533.791 187.767 535.405 187.666 537.018 187.498C538.867 187.33 540.782 187.095 542.328 186.086C545.118 184.271 545.857 180.608 546.429 177.314C548.345 165.82 550.697 154.426 553.487 143.133C554.63 138.562 555.873 133.89 558.461 129.958C559.637 128.177 561.15 126.563 562.898 125.32C563.939 125.757 564.948 126.261 565.889 126.832Z" fill="#333333"/>
<path d="M704.428 111.809L703.756 114.061L701.269 122.295L700.698 124.211L699.857 127L699.521 128.143L699.421 128.445L697.202 135.84L697.001 136.478L695.589 141.15L692.732 150.628L691.321 155.3L690.615 157.686L690.312 158.661L688.464 164.744L687.052 169.416L684.397 178.188L684.162 178.894L682.884 183.196L682.75 183.599L682.078 185.784L680.028 192.573L679.893 193.077L679.692 193.783L678.482 197.782L676.095 205.714L676.062 205.849C676.062 205.882 676.028 205.916 676.028 205.95L675.961 206.319C675.894 206.622 675.826 206.924 675.726 207.227C675.692 207.294 675.658 207.395 675.625 207.462C675.221 208.571 674.65 209.613 673.944 210.588C673.507 211.193 673.003 211.73 672.465 212.235C671.558 213.108 670.583 213.781 669.575 214.218C667.122 215.293 664.399 215.596 661.744 215.932C660.4 216.1 659.055 216.301 657.711 216.537C657.509 216.57 657.274 216.604 657.072 216.637C656.971 216.637 656.904 216.671 656.803 216.671C655.728 216.839 654.686 217.007 653.644 217.175C651.594 217.511 649.812 217.847 648.166 218.116C647.393 218.251 646.653 218.385 645.914 218.52C644.301 218.788 642.788 219.024 641.208 219.259C638.822 219.595 636.301 219.864 633.142 220.133C633.075 220.133 633.008 220.167 632.907 220.167C632.672 220.2 632.47 220.2 632.235 220.234C632.1 220.267 631.966 220.267 631.831 220.267C631.361 220.301 630.89 220.335 630.386 220.368C630.084 220.402 629.747 220.402 629.445 220.402C629.21 220.435 628.974 220.435 628.739 220.435C628.403 220.469 628.067 220.469 627.697 220.469C627.462 220.469 627.227 220.503 626.958 220.503C626.252 220.536 625.546 220.536 624.84 220.536C624.572 220.536 624.303 220.536 624.034 220.536C623.664 220.536 623.294 220.503 622.958 220.503C622.656 220.503 622.32 220.469 622.017 220.469C621.782 220.435 621.513 220.435 621.278 220.435C620.908 220.402 620.538 220.368 620.169 220.335C618.455 220.2 616.774 219.931 615.094 219.595C613.749 219.326 612.438 218.957 611.161 218.52C611.06 218.486 610.993 218.452 610.892 218.419C610.758 218.385 610.59 218.318 610.455 218.284C610.22 218.217 610.019 218.116 609.783 218.015C609.682 217.982 609.615 217.948 609.514 217.915C609.279 217.814 609.077 217.747 608.842 217.646C608.607 217.545 608.405 217.444 608.17 217.343C607.263 216.94 606.389 216.469 605.548 215.965C604.238 215.192 602.961 214.352 601.683 213.445C601.683 213.445 601.65 213.445 601.65 213.411C601.515 213.31 601.381 213.209 601.246 213.108C601.179 213.075 601.112 213.008 601.045 212.974C600.978 212.94 600.944 212.907 600.91 212.873C600.843 212.84 600.809 212.806 600.742 212.739C600.373 212.47 600.003 212.201 599.6 211.898C598.726 211.26 597.885 210.621 597.045 209.949C596.608 209.613 596.171 209.277 595.734 208.907C595.297 208.571 594.861 208.201 594.424 207.865C593.785 207.361 593.214 206.891 592.676 206.42C592.441 206.252 592.239 206.05 592.037 205.882C591.937 205.782 591.802 205.681 591.701 205.58C591.634 205.513 591.533 205.445 591.466 205.378C591.399 205.311 591.332 205.244 591.231 205.177C590.424 204.471 589.718 203.799 589.012 203.16C588.811 202.958 588.609 202.757 588.407 202.589C588.105 202.286 587.803 202.017 587.5 201.715C587.399 201.614 587.298 201.513 587.198 201.412C586.492 200.706 585.719 199.967 584.811 199.093C584.677 198.959 584.542 198.858 584.408 198.723C584.307 198.623 584.24 198.555 584.105 198.455C583.937 198.287 583.736 198.118 583.568 197.917C583.433 197.782 583.265 197.648 583.131 197.48C582.996 197.345 582.828 197.177 582.66 197.043C581.551 196.001 580.476 194.959 579.4 193.917C579.165 193.716 578.963 193.48 578.728 193.245C578.257 192.775 577.82 192.338 577.35 191.867C576.846 191.363 576.342 190.825 575.837 190.287C575.669 190.119 575.501 189.918 575.3 189.75C573.283 187.599 570.594 185.28 569.855 182.322C569.788 181.986 569.72 181.683 569.687 181.314C569.586 180.541 569.62 179.734 569.72 178.927C569.754 178.692 569.788 178.457 569.821 178.255C569.855 178.087 569.889 177.885 569.922 177.684C569.956 177.583 569.956 177.482 569.989 177.381C569.989 177.348 570.023 177.314 570.023 177.28C570.057 177.146 570.057 177.045 570.09 176.911C570.124 176.675 570.191 176.474 570.225 176.272C570.258 176.138 570.292 176.003 570.325 175.902C570.393 175.566 570.46 175.23 570.561 174.928C570.594 174.76 570.628 174.592 570.662 174.424C570.762 173.953 570.863 173.483 570.964 173.012C570.998 172.844 571.031 172.71 571.065 172.575L571.535 170.189L573.014 162.526L573.418 160.442L574.359 155.669L574.426 155.367L576.274 145.923L577.215 141.15L579.098 131.403L579.232 130.63L580.207 125.589L582.593 113.422L582.862 112.078L584.778 102.331L585.517 97.4909L587.097 89.3909L588.71 81.0893L594.961 80.8541L604.271 80.4844L617.144 79.9802L617.682 79.9466L624.672 79.6777H624.773L625.513 79.6441L635.73 79.2408L636.94 79.2072L637.276 79.1736L638.822 79.1064L639.393 79.0727L644.939 78.8375L646.048 78.8039L646.821 78.7703L647.527 78.7367L649.409 78.6694L654.82 81.9296L656.366 82.8707L659.828 84.9545L661.038 85.6939L662.786 86.7358L663.122 86.9374L664.197 87.576L673.507 93.1888L674.112 93.5586L675.49 94.3988L681.775 98.1967L684.599 99.8772L685.842 100.617L703.218 111.103L704.428 111.809Z" fill="#29B7C0"/>
<path d="M647.594 78.7368L638.956 113.456C637.108 120.816 635.259 128.21 633.344 135.571C632.94 137.117 632.537 138.697 632.134 140.243C631.327 143.335 630.52 146.427 629.747 149.485C629.344 151.031 628.941 152.577 628.537 154.124C627.865 156.745 627.159 159.333 626.487 161.921C626.353 162.392 626.252 162.862 626.117 163.366C625.714 164.912 625.311 166.458 624.874 168.004C624.067 171.063 623.227 174.121 622.387 177.213C622.017 178.524 621.681 179.801 621.311 181.112C621.278 181.28 621.21 181.515 621.11 181.818C620.673 183.398 619.698 186.826 618.522 190.926C618.118 192.371 617.681 193.917 617.245 195.497C616.404 198.488 615.53 201.648 614.69 204.639C614.253 206.252 613.816 207.798 613.413 209.243C611.968 214.487 610.959 218.385 611.06 218.419C610.959 218.385 610.859 218.352 610.791 218.318C608.943 217.68 607.162 216.873 605.447 215.831C601.515 213.512 597.919 210.622 594.356 207.765C588.911 203.362 587.735 201.749 582.626 196.976C580.274 194.791 578.022 192.539 575.804 190.22C575.636 190.052 575.468 189.851 575.266 189.649C573.249 187.498 570.561 185.179 569.788 182.221C569.183 179.936 569.821 177.247 570.393 174.793C570.527 174.121 570.695 173.483 570.796 172.878C570.829 172.71 570.863 172.575 570.897 172.407L571.367 170.021L573.283 160.274L574.224 155.502L576.14 145.755L577.081 140.982L578.997 131.235L579.938 126.463L580.139 125.421L581.853 116.716L582.795 111.943L584.71 102.196L585.517 97.4911L588.71 81.0895L646.082 78.804L647.594 78.7368Z" fill="#00ABAB"/>
<path d="M702.748 123.471C700.126 124.614 697.202 124.917 694.379 125.32C691.489 125.69 688.598 126.16 685.741 126.631C680.733 127.471 675.692 128.412 670.684 129.185C666.348 129.891 662.013 130.462 657.677 130.798C657.442 130.832 657.207 130.832 656.938 130.865C647.325 131.571 637.343 131.269 628.84 126.227C624.639 123.74 620.807 120.682 617.009 117.623C611.195 112.918 605.414 108.179 599.936 103.07C597.247 100.549 594.625 97.9615 592.105 95.2728C589.953 92.9537 587.097 90.5002 586.256 87.3409C585.45 84.2152 586.761 80.4509 587.332 77.3924C587.534 76.3169 588.105 75.5102 588.844 74.9389C589.987 74.0986 591.533 73.7289 592.945 73.4936C596.272 72.9559 599.633 72.6534 602.96 72.2165C603.633 72.1156 604.305 71.9812 604.977 71.8804C611.665 70.7713 618.488 69.9646 625.277 69.1916C627.899 68.8891 630.487 68.6202 633.108 68.3177C641.04 67.4103 649.275 66.6373 656.837 69.2252C663.223 71.4098 668.567 75.7791 673.776 80.0812C676.734 82.5347 679.725 84.9882 682.683 87.4417C688.262 92.0798 693.875 96.6844 699.454 101.289C701.269 102.768 703.05 104.247 704.865 105.759C706.31 106.935 707.756 108.145 708.764 109.725C708.865 109.893 708.966 110.061 709.066 110.229C709.369 110.767 709.537 111.372 709.638 111.977C710.444 116.447 706.647 121.791 702.748 123.471Z" fill="#62C2CF"/>
<path d="M702.748 123.471C700.126 124.614 697.202 124.917 694.379 125.32C691.488 125.69 688.598 126.16 685.741 126.631C676.162 128.244 666.617 130.16 656.904 130.866C647.292 131.571 637.31 131.269 628.806 126.227C624.605 123.74 620.774 120.682 616.976 117.623C611.161 112.918 605.38 108.179 599.902 103.07C597.213 100.55 594.592 97.9616 592.071 95.2729C589.92 92.9538 587.063 90.5003 586.223 87.341C585.416 84.2153 586.727 80.451 587.298 77.3925C587.5 76.317 588.071 75.5103 588.811 74.939C590.256 76.3506 591.668 77.7622 593.146 79.1402C600.641 86.2991 608.472 93.0882 616.371 99.743C620.337 103.07 624.336 106.364 628.336 109.658C631.865 112.548 635.327 116.447 639.83 117.657C642.485 118.363 645.342 118.094 648.065 117.791C661.105 116.346 674.146 115.035 687.119 113.355C694.413 112.414 701.706 111.372 708.966 110.263C709.268 110.801 709.436 111.406 709.537 112.011C710.444 116.447 706.646 121.791 702.748 123.471Z" fill="#4ABBBE"/>
<path d="M629.68 91.0715C631.73 90.9035 633.781 90.9707 635.864 91.1723C639.696 91.5757 643.695 92.1134 647.325 93.4242C651.526 94.903 655.291 97.1885 658.685 99.9109C672.264 99.8773 685.876 100.684 699.42 101.322C693.808 96.718 688.228 92.0798 682.649 87.4753C680.263 87.3744 677.877 87.2736 675.457 87.2064C667.659 86.9375 659.761 86.467 651.963 86.9375C650.115 87.0384 648.3 87.24 646.451 87.5089C641.343 82.7363 636.167 78.0645 630.756 73.6281C628.941 72.1492 627.092 70.6704 625.244 69.2588C618.454 70.0318 611.665 70.8384 604.943 71.9476C614.623 76.821 622.588 83.6102 630.621 90.8363C630.319 90.9035 630.016 90.9707 629.68 91.0715Z" fill="#4ABBBE"/>
<path opacity="0.5" d="M645.544 219.965C642.889 220.503 640.771 220.872 640.771 220.872C640.973 219.999 641.007 219.763 641.141 219.226C638.755 219.562 636.234 219.831 633.075 220.099C633.007 220.099 632.907 220.099 632.839 220.133C632.638 220.167 632.402 220.167 632.167 220.2C632.47 218.688 632.772 217.175 633.075 215.663C633.68 212.604 634.318 209.512 634.957 206.454C635.293 204.908 635.595 203.362 635.931 201.782C636.57 198.69 637.242 195.631 637.914 192.539C638.251 190.993 638.587 189.414 638.923 187.868C639.024 187.364 639.124 186.893 639.225 186.389C639.797 183.801 640.368 181.213 640.939 178.625C641.275 177.079 641.612 175.499 641.981 173.953C642.653 170.861 643.359 167.769 644.065 164.711C644.199 164.072 644.368 163.4 644.502 162.761C644.704 161.854 644.905 160.946 645.107 160.039C645.746 156.98 646.35 153.922 646.955 150.83C647.258 149.284 647.56 147.738 647.863 146.192C648.266 144.074 648.737 141.957 649.207 139.839C649.409 138.865 649.644 137.924 649.846 136.949C650.182 135.403 650.484 133.857 650.753 132.311C651.426 128.513 651.896 124.681 651.93 120.85C651.963 118.262 651.795 115.64 651.123 113.153C649.779 108.414 646.048 104.852 642.082 102.129C641.78 101.928 639.427 102.969 638.99 103.104C637.982 103.44 636.94 103.776 635.931 104.146C633.814 104.885 631.764 105.658 629.68 106.532C625.748 108.145 621.95 110.095 619.799 113.926C618.555 116.144 618.186 118.833 617.715 121.32C617.211 123.976 616.774 126.664 616.27 129.353C614.825 137.05 612.842 144.646 611.363 152.342C609.918 159.804 608.674 167.265 607.296 174.726C605.179 186.288 603.061 197.85 601.347 209.479C601.347 209.512 601.347 209.512 601.347 209.546C601.179 210.621 601.011 211.731 600.877 212.806V212.84C600.809 212.806 600.776 212.772 600.708 212.705C600.339 212.436 599.935 212.134 599.566 211.865C598.725 211.226 597.852 210.588 597.011 209.916C596.574 209.58 596.138 209.243 595.701 208.874C595.264 208.504 594.827 208.168 594.39 207.832C593.751 207.328 593.18 206.857 592.642 206.387C592.44 206.219 592.205 206.017 592.004 205.849C591.903 205.748 591.768 205.647 591.667 205.546C591.499 205.412 591.365 205.277 591.197 205.143C588.676 202.925 587.13 201.312 584.408 198.69C587.399 188.506 590.39 178.356 593.415 168.206C596.306 158.459 599.23 148.746 602.221 139.033C604.574 131.336 606.422 123.505 608.708 115.808C610.489 109.792 612.909 103.642 616.976 98.8018C617.278 98.7346 617.581 98.6338 617.883 98.5665C622.824 97.2221 627.899 96.2138 632.974 95.6089C637.377 95.0711 641.78 94.735 646.182 94.4325C647.359 94.3653 648.535 94.2645 649.711 94.1973C649.745 94.2309 649.779 94.2645 649.846 94.2981C653.509 97.3566 656.938 100.751 660.332 104.079C661.038 104.784 661.744 105.457 662.45 106.162C664.231 110.397 664.937 114.968 665.071 119.774C665.172 123.001 664.903 126.227 664.466 129.42C664.264 130.966 663.996 132.479 663.727 134.025C663.559 135.033 663.357 136.041 663.155 137.05C662.954 138.159 662.718 139.234 662.517 140.343C662.315 141.318 662.113 142.293 661.912 143.268C661.609 144.814 661.273 146.36 660.971 147.906C660.668 149.418 660.366 150.931 660.063 152.443C660.265 153.418 660.299 154.426 660.03 155.367L659.626 157.014C659.223 158.56 658.853 160.14 658.484 161.686C657.711 164.778 656.971 167.903 656.232 170.996C655.862 172.542 655.492 174.121 655.123 175.667C654.417 178.759 653.677 181.852 653.005 184.944C652.669 186.49 652.299 188.036 651.963 189.582C651.291 192.674 650.619 195.766 649.947 198.858C649.611 200.404 649.308 201.95 648.972 203.496C648.333 206.588 647.695 209.647 647.056 212.739C646.754 214.285 646.451 215.831 646.115 217.377C646.048 217.747 645.981 218.116 645.88 218.486C645.746 218.99 645.645 219.461 645.544 219.965Z" fill="#0C9692"/>
<path d="M646.048 94.567C645.947 94.6007 645.846 94.6343 645.779 94.6343C643.258 95.3737 640.368 95.9787 637.444 96.5836C633.243 97.4575 628.907 98.2977 625.378 99.5413C622.488 100.55 620.101 101.995 618.589 104.717C617.48 106.7 616.875 108.952 616.303 111.17C615.194 115.439 614.119 119.674 613.043 123.942C611.228 130.966 609.413 137.991 607.531 144.982C605.985 150.763 604.439 156.577 602.893 162.392C601.414 167.937 599.936 173.516 598.457 179.062C597.213 183.767 595.936 188.473 594.692 193.212C593.819 196.472 592.945 199.732 592.071 203.026C591.735 204.236 591.432 205.479 591.096 206.689C591.096 206.689 578.997 195.564 579.198 194.69C579.501 193.413 579.803 192.136 580.072 190.859C580.845 187.532 581.585 184.171 582.358 180.843C583.467 176.037 584.542 171.231 585.651 166.458C586.29 163.736 586.895 161.047 587.534 158.325C592.071 139.402 595.936 120.279 600.07 101.255C600.473 99.306 600.91 97.3567 601.347 95.4073C602.12 91.8783 603.465 88.1812 607.599 88.0131C613.077 87.7779 618.522 87.5762 624 87.3409C627.563 87.2065 631.125 87.0385 634.722 86.904C636.637 86.8368 638.721 86.7696 640.402 87.7443C640.502 87.8115 640.57 87.8451 640.671 87.9123C641.78 88.6517 643.158 89.9625 644.267 91.3741C645.006 92.3152 645.611 93.2899 645.947 94.1973C645.981 94.2982 646.014 94.4326 646.048 94.5334C646.014 94.4998 646.014 94.5334 646.048 94.567Z" fill="white"/>
<path d="M612.976 123.942C611.161 130.966 609.346 137.991 607.464 144.982C605.918 150.763 604.372 156.577 602.826 162.392C601.347 167.937 599.868 173.516 598.389 179.062C597.146 183.767 595.869 188.473 594.625 193.212C593.751 196.472 592.877 199.732 592.003 203.026C591.667 204.236 591.365 205.479 591.029 206.689C591.029 206.689 578.929 195.564 579.131 194.69C579.433 193.413 579.736 192.136 580.005 190.859C580.778 187.532 581.517 184.171 582.29 180.843C583.399 176.037 584.475 171.231 585.584 166.458C586.223 163.736 586.828 161.047 587.466 158.325C592.003 139.402 595.869 120.278 600.003 101.255C600.809 102.936 601.683 104.65 602.557 106.364C604.809 110.7 607.229 114.935 609.817 119.069C610.859 120.682 611.9 122.329 612.976 123.942Z" fill="#EFEFEF"/>
<path d="M683.692 119.069C683.154 120.984 682.617 122.9 682.079 124.849C681.978 125.219 681.877 125.622 681.743 125.992C681.306 127.538 680.869 129.118 680.398 130.697C679.491 133.823 678.583 136.982 677.71 140.108C677.273 141.688 676.802 143.234 676.365 144.814C676.029 145.956 675.693 147.099 675.391 148.242C674.819 150.225 674.248 152.241 673.676 154.224C673.239 155.77 672.803 157.35 672.366 158.93C671.492 162.055 670.618 165.181 669.744 168.34C669.307 169.886 668.904 171.466 668.467 173.012C667.727 175.701 667.022 178.423 666.316 181.146C666.215 181.515 666.114 181.852 666.047 182.221C666.047 182.288 666.013 182.356 666.013 182.389C665.61 183.935 665.207 185.515 664.77 187.061C664.568 187.767 664.4 188.473 664.198 189.212C663.526 191.632 662.888 194.052 662.215 196.472C661.879 197.783 661.51 199.093 661.14 200.404C661.073 200.673 661.006 200.908 660.938 201.144C660.737 201.917 660.535 202.69 660.3 203.463C659.661 205.815 659.023 208.168 658.384 210.554C658.115 211.495 657.88 212.436 657.611 213.411C657.443 214.016 657.275 214.621 657.107 215.26C656.972 215.764 656.838 216.268 656.703 216.772C656.67 216.94 656.636 217.075 656.569 217.243C656.435 217.78 650.15 219.125 645.545 220.032C642.89 220.57 640.772 220.94 640.772 220.94C640.974 220.066 641.008 219.831 641.142 219.293C641.176 219.091 641.243 218.856 641.31 218.52L641.344 218.419C641.714 216.873 642.05 215.293 642.419 213.747C642.823 212.033 643.192 210.319 643.596 208.638C643.932 207.26 644.234 205.849 644.57 204.471C644.94 202.925 645.276 201.345 645.646 199.799C646.049 197.984 646.486 196.203 646.889 194.388C647.192 193.111 647.494 191.8 647.797 190.523C648.167 188.977 648.536 187.397 648.872 185.851C649.511 183.095 650.15 180.339 650.788 177.583C650.855 177.247 650.956 176.911 651.023 176.541C651.393 174.995 651.729 173.415 652.099 171.869C652.805 168.777 653.544 165.685 654.25 162.593C654.452 161.753 654.653 160.879 654.855 160.039C655.023 159.333 655.191 158.627 655.359 157.921C656.065 154.829 656.804 151.737 657.544 148.611C657.913 147.065 658.283 145.486 658.653 143.94C659.056 142.259 659.459 140.545 659.863 138.865C660.199 137.453 660.535 136.041 660.871 134.63C661.241 133.084 661.611 131.504 662.014 129.958C662.316 128.647 662.652 127.37 662.955 126.059C663.493 123.841 664.03 121.589 663.997 119.27C663.93 116.144 662.484 113.758 660.401 111.506C657.88 108.75 654.821 105.188 651.796 101.759C649.578 99.2724 647.394 96.8525 645.444 94.9031C645.511 94.8359 645.612 94.735 645.679 94.6678C645.747 94.6006 645.848 94.5334 645.915 94.4662L645.948 94.4325C645.982 94.4325 645.982 94.3989 646.016 94.3989C646.486 94.1301 647.024 93.962 647.595 93.8948C649.108 93.7267 650.889 94.0965 652.401 93.962C652.502 93.962 652.603 93.962 652.704 93.9284C654.62 93.8612 656.435 94.8695 658.115 95.8442C661.476 97.7935 664.837 99.7765 668.164 101.726C668.601 101.995 669.038 102.23 669.475 102.499L681.507 109.557C681.776 109.725 682.045 109.893 682.247 110.061C684.6 111.91 684.532 114.8 683.927 117.59C683.927 118.094 683.827 118.564 683.692 119.069Z" fill="white"/>
<path d="M682.044 124.816C681.943 125.185 681.843 125.589 681.708 125.958C681.271 127.504 680.834 129.084 680.364 130.664C679.456 133.789 678.549 136.949 677.675 140.075C677.238 141.654 676.767 143.2 676.331 144.78C675.994 145.923 675.658 147.065 675.356 148.208C674.784 150.191 674.213 152.208 673.642 154.191C673.205 155.737 672.768 157.316 672.331 158.896C671.457 162.022 670.583 165.147 669.709 168.307C669.272 169.853 668.869 171.432 668.432 172.978C667.693 175.667 666.987 178.39 666.281 181.112C666.18 181.482 666.08 181.818 666.012 182.188C666.012 182.255 665.979 182.322 665.979 182.356C665.575 183.902 665.172 185.481 664.735 187.027C664.534 187.733 664.365 188.439 664.164 189.178C663.492 191.598 662.853 194.018 662.181 196.438C661.845 197.749 661.475 199.06 661.105 200.37C661.038 200.639 660.971 200.875 660.904 201.11C660.702 201.883 660.5 202.656 660.265 203.429C659.626 205.782 658.988 208.134 658.349 210.521C658.08 211.462 657.845 212.403 657.576 213.377C657.408 213.982 657.24 214.587 657.072 215.226C656.938 215.73 656.803 216.234 656.669 216.738C656.635 216.906 656.602 217.041 656.534 217.209C656.4 217.747 650.115 219.091 645.51 219.999C642.855 220.536 640.738 220.906 640.738 220.906C640.939 220.032 640.973 219.797 641.108 219.259C641.141 219.057 641.208 218.822 641.276 218.486L641.309 218.385C641.679 216.839 642.015 215.26 642.385 213.713C642.788 211.999 643.158 210.285 643.561 208.605C643.897 207.227 644.2 205.815 644.536 204.437C644.905 202.891 645.241 201.311 645.611 199.765C646.015 197.95 646.451 196.169 646.855 194.354C647.157 193.077 647.46 191.766 647.762 190.489C648.132 188.943 648.502 187.363 648.838 185.817C649.476 183.061 650.115 180.305 650.754 177.549C650.821 177.213 650.922 176.877 650.989 176.507C651.358 174.961 651.695 173.382 652.064 171.836C652.77 168.744 653.51 165.652 654.215 162.559C654.417 161.719 654.619 160.845 654.82 160.005C654.988 159.299 655.156 158.593 655.324 157.888C656.03 154.796 656.77 151.703 657.509 148.578C657.879 147.032 658.248 145.452 658.618 143.906C659.022 142.226 659.425 140.511 659.828 138.831C660.87 138.26 661.946 137.688 662.987 137.083C663.626 136.714 664.298 136.344 664.937 135.974C665.878 135.436 666.785 134.899 667.693 134.327C668.6 133.789 669.508 133.218 670.415 132.647C672.734 131.202 675.053 129.689 677.305 128.143C678.179 127.538 679.053 126.933 679.927 126.328C680.7 125.824 681.372 125.32 682.044 124.816Z" fill="#EFEFEF"/>
<path d="M658.215 95.8778C656.534 94.9032 654.753 93.8949 652.804 93.9621C652.703 93.9621 652.602 93.9621 652.501 93.9957C650.989 94.1301 649.207 93.7604 647.695 93.9285C647.157 94.0965 646.586 94.2646 646.048 94.4662C646.014 94.3654 645.947 94.2646 645.88 94.1637C645.376 93.1891 644.838 92.248 644.2 91.3405C643.09 89.9289 641.712 88.6181 640.603 87.8787C640.502 87.8115 640.435 87.7779 640.334 87.7107C638.654 86.7696 636.604 86.8032 634.654 86.8704C631.092 87.0049 627.529 87.1729 623.933 87.3074C627.495 89.0887 630.924 91.1389 634.117 93.4916C635.327 94.399 636.503 95.4073 637.41 96.6173C640.334 96.0123 643.225 95.4073 645.746 94.6679C645.645 94.7351 645.578 94.8359 645.51 94.9032C647.46 96.8189 649.644 99.2388 651.863 101.76C657.139 100.449 662.685 100.852 668.264 101.793C664.903 99.7766 661.576 97.8272 658.215 95.8778Z" fill="#E2E2E2"/>
<path d="M646.821 86.8367C646.72 87.6433 646.518 88.7524 646.048 89.6935C645.846 90.0968 645.611 90.5002 645.342 90.8363C645.073 91.1724 644.737 91.4412 644.334 91.6429C644.233 91.6765 644.132 91.7437 643.998 91.7773C643.561 91.9118 643.09 91.9454 642.552 91.8445C641.511 91.6429 640.435 90.6682 639.494 90.2649C638.721 89.9288 637.948 89.5927 637.141 89.2902C636.436 88.9877 635.696 88.6852 634.99 88.3827C629.411 85.9964 623.899 83.4085 618.522 80.6525C618.051 80.4172 617.614 80.182 617.144 79.9467C615.732 79.2073 614.219 78.367 613.648 77.0226C613.178 75.9135 613.413 74.67 613.682 73.4936C616.034 63.1754 619.765 52.8908 626.991 44.6901C628.235 43.2785 629.646 41.9005 631.394 40.993C633.142 40.0855 635.326 39.7158 637.242 40.3544C638.956 40.9258 640.267 42.2365 641.074 43.7154C641.88 45.1942 642.284 46.8075 642.62 48.4207C644.334 56.3526 645.241 64.3854 646.182 72.3845C646.518 75.3758 646.888 78.367 646.955 81.3583C647.056 83.1732 647.023 84.9882 646.821 86.8367Z" fill="white"/>
<path d="M646.081 89.6935C645.88 90.0968 645.644 90.5001 645.376 90.8362C645.107 91.1723 644.771 91.4412 644.367 91.6428C643.561 90.2648 643.023 88.5507 642.586 87.5088C642.586 87.4752 642.552 87.4416 642.552 87.4416C641.275 84.5512 640.233 81.6271 639.326 78.6359C639.158 78.1317 639.023 77.6276 638.889 77.1234C637.948 73.8969 637.175 70.6031 636.402 67.343C635.326 62.6712 634.52 57.9659 634.99 53.1933C635.091 52.1514 635.864 47.8157 637.981 49.0929C638.687 49.4962 638.956 50.3364 639.158 51.0759C641.04 58.0331 642.687 65.2256 643.964 72.3508C644.401 74.838 644.804 77.3587 645.174 79.8794C645.342 81.0558 645.476 82.1985 645.644 83.3748C645.678 83.9126 645.846 87.0383 646.081 89.6935Z" fill="#E2E2E2"/>
<path d="M650.72 87.8451C650.316 88.5509 649.846 89.5591 649.644 90.6011C649.543 91.038 649.51 91.4749 649.543 91.9118C649.577 92.3488 649.678 92.7521 649.879 93.1218C649.947 93.2226 650.014 93.3234 650.081 93.3907C650.35 93.7268 650.72 94.0292 651.257 94.2309C652.232 94.6342 653.711 94.399 654.753 94.567C655.593 94.7014 656.433 94.8695 657.274 95.0039C658.047 95.1384 658.82 95.3064 659.593 95.4072C666.18 96.5164 672.768 97.4238 679.389 98.096C681.002 98.2641 682.75 98.3649 684.027 97.5583C685.102 96.8861 685.64 95.7433 686.111 94.6678C690.278 84.9546 693.303 74.502 692.194 63.8813C691.992 62.0328 691.656 60.1842 690.749 58.5037C689.841 56.8232 688.262 55.3444 686.279 54.8403C684.531 54.4033 682.649 54.773 681.103 55.5461C679.557 56.3191 678.28 57.4282 677.036 58.571C670.886 64.1502 665.34 70.2335 659.794 76.3169C656.501 79.9468 653.14 83.6438 650.72 87.8451Z" fill="white"/>
<path d="M649.644 90.601C649.543 91.0379 649.51 91.4748 649.543 91.9117C649.577 92.3487 649.678 92.752 649.879 93.1217C651.358 92.4495 652.837 91.3068 653.812 90.7018C653.845 90.6682 653.879 90.6682 653.879 90.6682C656.635 88.9877 659.257 87.1392 661.811 85.1898C664.97 82.7363 667.995 80.1147 670.953 77.4932C674.65 74.233 678.078 70.8048 680.532 66.6708C681.069 65.7633 683.019 61.7974 680.464 61.6966C679.624 61.663 678.918 62.2007 678.313 62.6713C672.633 67.3766 666.953 72.3845 661.676 77.5604C658.954 80.2155 656.299 82.9379 653.745 85.7275C653.408 86.0636 651.392 88.5508 649.644 90.601Z" fill="#E2E2E2"/>
<path d="M642.922 91.0716C642.62 91.2396 642.317 91.3741 642.149 91.6765C641.981 91.9454 641.948 92.2815 641.948 92.6176C641.914 93.4242 641.881 94.2309 641.847 95.0375C641.847 95.172 641.847 95.3064 641.914 95.4408C642.015 95.6089 642.183 95.6761 642.351 95.7097C644.099 96.3147 645.88 96.8188 647.695 97.1549C647.829 97.1885 647.964 97.1885 648.065 97.1885C648.233 97.1549 648.367 97.0541 648.502 96.9197C649.006 96.5163 649.476 96.113 649.98 95.7097C650.451 95.34 650.922 94.9031 651.022 94.3317C651.09 93.962 650.989 93.5587 650.922 93.189C650.417 90.9035 650.989 89.1894 651.56 86.904C651.863 85.6268 648.569 85.2571 648.266 85.2571C647.325 85.2571 647.124 85.3243 646.788 86.1645C646.015 88.0803 644.737 90.0633 642.922 91.0716Z" fill="#E2E2E2"/>
<path opacity="0.2" d="M699.387 128.412L697.168 135.806L696.967 136.445L695.555 141.116L692.698 150.594L691.287 155.266L690.581 157.652C689.27 157.216 687.993 156.678 686.749 156.106C684.666 155.132 682.649 154.023 680.8 152.813C679.49 151.972 678.246 151.065 677.07 150.191C676.902 150.057 676.767 149.956 676.599 149.821C676.398 149.653 676.196 149.485 675.994 149.284C675.759 149.048 675.49 148.813 675.288 148.578C675.255 148.544 675.255 148.544 675.221 148.511C674.347 147.57 673.574 146.528 672.969 145.452C672.801 145.15 672.633 144.814 672.465 144.477C671.995 143.469 671.625 142.394 671.39 141.318C670.718 138.327 671.02 135.134 672.432 132.244C672.633 131.807 672.869 131.37 673.137 130.966C673.305 130.664 673.541 130.361 673.742 130.059C674.079 129.588 674.448 129.185 674.818 128.782C674.919 128.681 674.986 128.58 675.087 128.513C675.087 128.479 675.087 128.513 675.087 128.513C675.288 128.311 675.49 128.11 675.692 127.941C676.061 127.605 676.465 127.269 676.902 126.967C678.011 126.16 679.254 125.488 680.532 125.017C681.069 124.816 681.607 124.648 682.145 124.513C682.75 124.379 683.355 124.244 683.96 124.177C684.968 124.043 685.976 124.009 686.951 124.076C687.354 124.11 687.724 124.144 688.127 124.211C688.665 124.278 689.203 124.412 689.741 124.547C689.774 124.547 689.774 124.547 689.774 124.547C690.715 124.816 691.656 125.219 692.631 125.656C694.009 126.295 695.387 127.034 696.765 127.639C697.639 127.908 698.513 128.21 699.387 128.412Z" fill="#020203"/>
<path d="M718.242 136.209C717.973 141.889 716.628 147.166 711.822 151.031C701.538 159.333 686.917 152.745 677.91 145.788C671.659 140.948 669.844 132.176 674.616 125.622C674.952 125.152 675.322 124.748 675.692 124.345C679.422 120.379 685.405 118.564 690.682 120.043C694.614 121.152 698.479 124.513 702.714 124.211C705.268 124.043 706.277 121.992 707.05 119.875C707.823 117.724 708.73 115.472 710.511 114.027C711.889 112.918 714.209 112.38 715.822 113.355C718.208 114.766 717.704 118.968 717.771 121.287C717.838 122.799 717.906 124.312 718.006 125.824C718.107 128.009 718.242 130.193 718.275 132.344C718.309 133.655 718.309 134.966 718.242 136.209Z" fill="#E91E29"/>
<path opacity="0.08" d="M718.242 136.209C717.973 141.89 716.628 147.166 711.822 151.031C701.538 159.333 686.917 152.745 677.91 145.788C671.659 140.948 669.844 132.176 674.616 125.622C674.952 125.152 675.322 124.749 675.692 124.345C675.658 124.715 675.658 125.051 675.658 125.421C675.692 128.446 676.666 131.538 678.616 133.857C680.061 135.571 681.977 136.814 683.926 137.89C690.951 141.688 699.286 143.335 707.05 141.486C711.083 140.512 714.847 138.629 718.242 136.209Z" fill="black"/>
<path d="M529.12 148.881C529.422 149.183 529.759 149.452 530.061 149.754C530.8 150.427 531.54 151.132 532.279 151.805C533.758 153.183 535.237 154.527 536.682 155.905C538.161 157.283 539.606 158.661 541.051 160.039C541.119 160.106 541.32 160.274 541.589 160.543C541.656 160.61 541.757 160.711 541.858 160.778C542.026 160.913 542.194 161.081 542.362 161.249C543.37 162.224 544.379 163.165 545.387 164.139C553.084 171.534 560.646 179.096 567.939 186.86C568.309 187.263 568.477 187.801 568.443 188.305C567.906 194.052 568.006 199.799 568.813 205.513C569.317 209.042 574.796 208.336 574.291 204.807C573.955 202.555 573.754 200.27 573.686 198.018C573.619 196.27 575.804 195.396 576.947 196.707L576.98 196.741C579.333 199.396 583.769 196.069 581.383 193.413C577.72 189.279 573.955 185.179 570.157 181.18C569.015 179.97 569.889 177.987 571.535 178.02C574.258 178.054 576.947 178.054 579.669 178.02C583.198 177.953 582.492 172.475 578.963 172.542C573.451 172.643 567.939 172.508 562.427 172.206C562.36 172.206 562.293 172.206 562.226 172.206C561.721 172.206 561.251 172.004 560.915 171.668C556.915 167.668 552.882 163.669 548.782 159.77C548.714 159.703 548.647 159.669 548.614 159.602C548.345 159.333 548.076 159.098 547.807 158.829C546.631 157.686 545.421 156.577 544.244 155.434C542.799 154.056 541.32 152.678 539.875 151.3C538.396 149.922 536.951 148.544 535.472 147.2C534.296 146.125 533.12 145.015 531.943 143.94C531.473 143.604 531.002 143.369 530.464 143.2C529.927 143.133 529.355 143.201 528.851 143.402C528.683 143.503 528.515 143.637 528.347 143.805C528.347 143.839 528.313 143.839 528.313 143.873C528.28 143.94 528.246 144.007 528.212 144.108C528.078 144.41 527.91 144.679 527.776 144.948C527.742 145.049 527.675 145.116 527.641 145.217C527.641 145.251 527.641 145.251 527.641 145.251C527.574 145.486 527.574 145.755 527.574 145.99C527.507 147.099 528.28 148.04 529.12 148.881Z" fill="#9C5216"/>
<path d="M529.12 148.88C529.422 149.183 529.758 149.452 530.061 149.754C530.8 150.426 531.54 151.132 532.279 151.804C533.758 153.182 535.237 154.527 536.682 155.905C538.161 157.283 539.606 158.661 541.051 160.039C541.118 160.106 541.32 160.274 541.589 160.543C541.656 160.61 541.757 160.711 541.858 160.778C542.026 160.913 542.194 161.081 542.362 161.249C543.639 162.425 545.353 164.038 545.387 164.139C546.53 162.694 547.672 161.249 548.781 159.77C548.714 159.703 548.647 159.669 548.613 159.602C548.345 159.333 548.076 159.098 547.807 158.829C546.63 157.686 545.421 156.577 544.244 155.434C542.799 154.056 541.32 152.678 539.875 151.3C538.396 149.922 536.951 148.544 535.472 147.2C534.363 146.158 533.254 144.814 531.943 143.94C531.472 143.604 531.002 143.368 530.464 143.2H530.431C529.859 143.032 529.288 143.133 528.851 143.402C528.683 143.503 528.515 143.637 528.347 143.805C527.977 144.175 527.708 144.679 527.607 145.183C527.607 145.217 527.607 145.217 527.607 145.217C527.54 145.452 527.54 145.721 527.54 145.956C527.507 147.099 528.28 148.04 529.12 148.88Z" fill="#884213"/>
<path d="M587.231 220.2C586.391 220.032 585.551 219.797 584.744 219.528C580.812 218.251 577.249 215.966 574.157 213.243C569.082 208.706 565.183 202.992 561.688 197.211C561.62 197.11 561.553 196.976 561.486 196.875C560.881 195.867 560.31 194.859 559.738 193.85C559.57 193.581 559.436 193.313 559.268 193.01C558.764 192.069 558.259 191.128 557.755 190.153C557.688 190.052 557.654 189.918 557.587 189.817C557.285 189.212 557.016 188.641 556.713 188.036C559.469 184.272 562.427 180.608 565.385 176.978C567.267 174.693 569.183 172.475 571.266 170.357C571.3 170.323 571.367 170.256 571.401 170.223C572.14 170.391 572.88 170.559 573.585 170.76C573.72 170.794 573.854 170.828 573.955 170.861C574.93 171.097 575.905 171.365 576.846 171.668C577.047 171.735 577.249 171.802 577.417 171.87C581.551 173.147 585.719 174.726 589.55 176.709C592.104 178.02 594.558 179.633 596.675 181.549C598.154 182.894 600.204 184.608 600.406 186.759C600.473 187.464 600.272 188.204 599.801 188.742C599.398 189.145 598.86 189.347 598.322 189.515C595.398 190.254 592.071 189.044 589.315 188.137C589.214 188.103 589.147 188.069 589.046 188.036C588.71 187.935 588.374 187.801 588.038 187.666C587.802 187.599 587.601 187.532 587.399 187.431C587.298 187.397 587.231 187.364 587.164 187.33C587.029 187.296 586.929 187.229 586.828 187.196C586.29 186.96 585.752 186.759 585.214 186.523C585.719 186.96 586.223 187.364 586.727 187.801L586.76 187.834C587.265 188.237 587.735 188.674 588.239 189.078C588.307 189.111 588.34 189.179 588.407 189.212C589.281 189.952 590.155 190.725 591.029 191.498C597.516 197.245 607.565 205.849 601.213 215.361C599.936 217.276 598.087 218.789 595.97 219.663C593.247 220.805 590.155 220.805 587.231 220.2Z" fill="#E91E29"/>
<path opacity="0.08" d="M584.744 219.528C580.812 218.251 577.249 215.966 574.157 213.243C569.082 208.706 565.183 202.992 561.688 197.211C561.62 197.11 561.553 196.976 561.486 196.875C560.881 195.867 560.31 194.859 559.738 193.85C559.57 193.581 559.436 193.313 559.268 193.01C558.764 192.069 558.259 191.128 557.755 190.153C557.688 190.052 557.654 189.918 557.587 189.817C557.285 189.212 557.016 188.641 556.713 188.036C559.469 184.272 562.427 180.608 565.385 176.978C567.267 174.693 569.183 172.475 571.266 170.357C571.3 170.323 571.367 170.256 571.401 170.223C572.14 170.391 572.88 170.559 573.585 170.76C573.72 170.794 573.854 170.828 573.955 170.861C574.93 171.097 575.905 171.365 576.846 171.668C577.047 171.735 577.249 171.802 577.417 171.87C569.418 180.675 570.056 195.968 574.93 206.32C577.417 211.495 580.778 215.831 584.744 219.528Z" fill="black"/>
<path d="M552.109 193.581C549.891 191.968 549.05 188.775 549.992 186.086C550.395 184.876 551.134 183.801 552.075 182.927C551.504 181.314 551.571 179.465 552.546 178.02C553.252 177.012 554.26 176.306 555.369 175.97C555.369 175.163 555.571 174.323 555.974 173.55C556.713 172.172 558.024 171.231 559.537 170.827C559.638 169.853 559.974 168.878 560.545 168.071C561.486 166.626 562.998 165.786 564.612 165.652C564.813 165.349 565.049 165.08 565.318 164.878C566.292 164.005 567.435 163.4 568.746 163.198C570.157 162.996 571.603 163.433 572.712 164.307C573.081 164.576 573.418 164.912 573.686 165.282C575.602 167.769 575.266 171.634 572.88 173.718C572.51 174.02 572.14 174.289 571.737 174.491C571.771 174.827 571.771 175.197 571.771 175.533C571.703 176.676 571.199 177.684 570.46 178.49C570.863 179.566 570.796 180.81 570.258 181.851C569.821 182.692 569.216 183.263 568.443 183.734C568.04 184.002 567.603 184.204 567.132 184.339C566.964 185.952 566.057 187.498 564.746 188.473C563.704 189.246 562.494 189.682 561.284 189.75C560.78 193.043 557.52 195.329 554.226 194.59C553.352 194.321 552.68 193.985 552.109 193.581Z" fill="#F2F2F2"/>
<path d="M552.109 193.581C552.075 193.178 552.109 192.741 552.142 192.338C552.411 189.951 553.554 187.531 555.436 186.086C555.234 185.212 555.134 184.305 555.134 183.465C555.167 180.373 557.083 177.785 559.704 176.978C559.839 173.315 562.729 170.323 566.393 170.357C566.426 169.617 566.527 168.912 566.729 168.206C567.435 165.551 570.056 163.837 572.678 164.307C573.048 164.576 573.384 164.912 573.652 165.282C575.568 167.769 575.232 171.634 572.846 173.718C572.476 174.02 572.106 174.289 571.703 174.491C571.737 174.827 571.737 175.197 571.737 175.533C571.67 176.676 571.165 177.684 570.426 178.49C570.829 179.566 570.762 180.81 570.224 181.851C569.787 182.692 569.182 183.263 568.409 183.734C568.006 184.002 567.569 184.204 567.099 184.339C566.931 185.952 566.023 187.498 564.712 188.473C563.67 189.246 562.46 189.682 561.251 189.75C560.746 193.043 557.486 195.329 554.192 194.59C553.352 194.321 552.68 193.985 552.109 193.581Z" fill="white"/>
<path d="M131 275C73.5624 275 27 270.971 27 266C27 261.029 73.5624 257 131 257C188.438 257 235 261.029 235 266C235 270.971 188.438 275 131 275Z" fill="#EFEFEF"/>
<path d="M135.438 143.858C135.438 143.858 168.677 145.432 164.432 197.069C162.378 222.083 155.909 242.101 155.909 242.101L124.348 241.724C115.858 230.774 112.914 216.916 112.914 216.916H107.951C105.897 227.25 102.508 242.101 102.508 242.101H70.947C53.1468 219.55 65.1619 170.001 65.1619 170.001L135.438 143.858Z" fill="#007C53"/>
<path d="M74.1996 99.5989L67.9353 97.5799C61.7053 95.561 55.0302 98.9829 53.0448 105.211L50.5802 112.807C48.5605 119.035 51.9836 125.708 58.2137 127.693L64.478 129.712C66.1211 130.259 67.9011 129.335 68.4488 127.693L76.2535 103.534C76.7669 101.892 75.8769 100.146 74.1996 99.5989Z" fill="#444242"/>
<path fill-rule="evenodd" clip-rule="evenodd" d="M59.4491 128.108C61.8317 124.6 64.426 118.212 64.426 111.5C64.426 106.268 64.426 101 59.4491 98.015C62.0157 96.877 64.9973 96.6447 67.8833 97.5799L74.1476 99.5989C75.8249 100.146 76.7149 101.892 76.2015 103.534L68.3968 127.693C67.8491 129.335 66.0691 130.259 64.426 129.712L58.1617 127.693C58.1077 127.675 59.5027 128.126 59.4491 128.108Z" fill="#312E2E"/>
<path d="M50.0317 142.626C50.0317 142.626 43.9727 165.792 47.567 187.145" stroke="#FF8200" stroke-width="1.572" stroke-miterlimit="10" stroke-linecap="round" stroke-linejoin="round"/>
<path d="M157.62 105.225H76.3896V130.102H157.62V105.225Z" fill="#F9C6A8"/>
<path d="M20.8328 141.839C17.3754 137.699 17.0331 132.258 20.0797 129.725C23.1263 127.193 28.4321 128.459 31.8894 132.634C35.3468 136.775 35.6891 142.215 32.6425 144.748C29.5617 147.28 24.2901 145.98 20.8328 141.839Z" fill="#F9C6A8"/>
<path d="M211.217 139.165C215.147 135.236 216.187 129.907 213.541 127.261C210.894 124.615 205.562 125.655 201.632 129.584C197.702 133.512 196.661 138.842 199.308 141.488C201.955 144.134 207.287 143.094 211.217 139.165Z" fill="#F9C6A8"/>
<path d="M88.2679 134.448L36.0997 134.345L30.8623 152.481L78.8543 182.697L88.2679 134.448Z" fill="#007C53"/>
<path d="M143.62 141.12L153.41 181.533L208.214 147.143L196.986 130.341L143.62 141.12Z" fill="#007C53"/>
<path d="M173.948 134.345C173.948 134.345 196.609 149.641 190.893 190.704" stroke="#FF8200" stroke-width="1.572" stroke-miterlimit="10" stroke-linecap="round" stroke-linejoin="round"/>
<path d="M74.781 104.335C72.556 109.023 70.5363 113.814 68.5852 118.673C66.3259 124.285 63.1424 130.033 57.6997 132.702C55.4747 133.797 52.4281 135.269 53.1127 137.664C53.3523 138.52 54.0712 139.136 54.8243 139.615C58.487 141.873 63.4163 141.428 67.079 139.136C70.7417 136.877 73.2064 133.079 74.7125 129.041C75.7395 126.235 76.3899 123.258 77.6564 120.555C81.0111 113.471 86.0088 115.285 92.3073 113.471C108.327 108.852 113.873 113.471 113.873 113.471C114.626 114.087 117.912 113.745 118.836 113.779C123.355 113.985 127.908 114.019 132.426 113.814C137.355 113.608 141.018 112.753 145.571 114.909C149.61 116.825 153.239 119.631 156.08 123.087C159.948 127.843 162.241 133.763 166.178 138.451C170.115 143.173 176.755 146.595 182.369 144.063C185.45 142.66 187.675 138.485 185.553 135.816C184.663 134.687 183.259 134.14 181.924 133.592C177.577 131.813 173.367 129.623 169.978 126.372C159.503 116.346 154.266 100.194 154.3 85.9592C154.3 81.1001 154.916 76.2752 155.293 71.4503C155.84 64.5381 155.874 57.5916 154.916 50.7136C153.923 43.596 151.185 37.9157 148.789 31.3114C146.735 25.5968 145.502 18.753 144.578 12.7305C144.236 10.5062 145.023 6.05774 142.216 5.16805C141.052 4.79164 139.786 5.09961 138.656 5.57868C132.426 8.04245 128.353 13.8939 123.184 18.1371C117.946 22.4144 111.922 25.7337 107.882 31.3798C101.002 40.9954 96.0385 51.9797 93.3 63.4773C91.6227 70.4922 90.7669 77.8493 87.4123 84.2483C84.4342 89.9629 79.6076 94.5482 76.6979 100.297C76.0818 101.632 75.4314 102.966 74.781 104.335Z" fill="#E91E29"/>
<path d="M107.63 122.914C112.752 120.806 115.195 114.946 113.086 109.826C110.977 104.705 105.115 102.263 99.9932 104.372C94.8711 106.48 92.4283 112.339 94.5371 117.46C96.6459 122.58 102.508 125.022 107.63 122.914Z" fill="#F9C6A8"/>
<path d="M91.3831 117.543C109.32 119.665 112.161 117.578 112.161 117.578C112.161 117.578 133.967 113.095 146.701 121.342C171.422 137.352 158.15 186.454 129.277 190.806C124.998 191.456 121.301 193.989 118.528 197.24C115.311 201.004 116.475 203.365 116.475 207.745C116.475 208.04 94.5001 202.5 80.0001 190.806C66.6123 180.01 60.5504 164.101 62.7659 149.88C64.9633 136.334 74.9912 115.644 91.3831 117.543Z" fill="white"/>
<path d="M155.909 240.629H124.348V265.096H155.909V240.629Z" fill="#493027"/>
<path d="M102.508 240.629H70.9473V265.096H102.508V240.629Z" fill="#493027"/>
<path d="M156.799 242.101H123.458C122.842 242.101 122.362 241.622 122.362 241.006C122.362 240.39 122.842 239.911 123.458 239.911H156.799C157.415 239.911 157.894 240.39 157.894 241.006C157.894 241.622 157.415 242.101 156.799 242.101Z" fill="#FFB100"/>
<path d="M102.508 242.101H69.1672C68.551 242.101 68.0718 241.622 68.0718 241.006C68.0718 240.39 68.551 239.911 69.1672 239.911H102.508C103.124 239.911 103.604 240.39 103.604 241.006C103.604 241.622 103.124 242.101 102.508 242.101Z" fill="#FFB100"/>
<path d="M101.31 267.868H64.2039C63.5535 267.868 63.04 267.354 63.04 266.704V264.925C63.04 259.142 67.7297 254.454 73.5148 254.454H102.474V266.704C102.474 267.354 101.961 267.868 101.31 267.868Z" fill="#231F20"/>
<path d="M158.681 267.868H121.609C120.959 267.868 120.445 267.354 120.445 266.704V264.925C120.445 259.142 125.135 254.454 130.92 254.454H149.405C155.19 254.454 159.88 259.142 159.88 264.925V266.704C159.88 267.354 159.332 267.868 158.681 267.868Z" fill="#231F20"/>
<path d="M29.1852 154.774C27.5421 154.124 26.7548 152.276 27.4052 150.633L34.6964 132.258C35.3468 130.615 37.1953 129.828 38.8383 130.478C40.4814 131.128 41.2688 132.976 40.6184 134.619L33.3271 152.994C32.6767 154.603 30.8283 155.424 29.1852 154.774Z" fill="#006843"/>
<path d="M209.035 149.402C207.529 150.325 205.578 149.846 204.654 148.375L194.282 131.573C193.358 130.068 193.837 128.117 195.309 127.193C196.815 126.269 198.766 126.749 199.69 128.22L210.062 145.021C210.987 146.527 210.507 148.478 209.035 149.402Z" fill="#006843"/>
<path d="M49.313 134.379C49.313 134.379 65.5728 196.11 166.212 192.107" stroke="#FF8200" stroke-width="1.572" stroke-miterlimit="10" stroke-linecap="round" stroke-linejoin="round"/>
<path d="M166.213 202.783C166.213 202.783 98.6403 222.972 59.8223 215.41" stroke="#FF8200" stroke-width="1.572" stroke-miterlimit="10" stroke-linecap="round" stroke-linejoin="round"/>
<path d="M60.6436 225.436L152.212 261.982C161.968 265.883 172.374 267.868 182.883 267.868H201.881" stroke="#FF8200" stroke-width="1.572" stroke-miterlimit="10" stroke-linecap="round" stroke-linejoin="round"/>
<path d="M192.091 187.111C192.091 188.959 190.619 190.43 188.771 190.43C186.922 190.43 185.45 188.959 185.45 187.111C185.45 185.263 186.922 183.792 188.771 183.792C190.619 183.792 192.091 185.263 192.091 187.111Z" fill="#FFB100"/>
<path opacity="0.42" d="M190.893 186.495C190.893 187.179 190.345 187.761 189.626 187.761C188.942 187.761 188.36 187.213 188.36 186.495C188.36 185.81 188.908 185.229 189.626 185.229C190.345 185.263 190.893 185.81 190.893 186.495Z" fill="white"/>
<path d="M197.842 170.343C197.842 172.191 196.37 173.663 194.522 173.663C192.673 173.663 191.201 172.191 191.201 170.343C191.201 168.496 192.673 167.024 194.522 167.024C196.336 167.024 197.842 168.496 197.842 170.343Z" fill="#FFB100"/>
<path opacity="0.42" d="M196.644 169.762C196.644 170.446 196.096 171.028 195.377 171.028C194.693 171.028 194.111 170.48 194.111 169.762C194.111 169.077 194.659 168.496 195.377 168.496C196.062 168.496 196.644 169.043 196.644 169.762Z" fill="white"/>
<path d="M146.94 188.788C146.94 190.635 145.468 192.107 143.62 192.107C141.771 192.107 140.299 190.635 140.299 188.788C140.299 186.94 141.771 185.468 143.62 185.468C145.434 185.468 146.94 186.94 146.94 188.788Z" fill="#FFB100"/>
<path opacity="0.42" d="M144.476 189.472C145.175 189.472 145.742 188.905 145.742 188.206C145.742 187.507 145.175 186.94 144.476 186.94C143.776 186.94 143.209 187.507 143.209 188.206C143.209 188.905 143.776 189.472 144.476 189.472Z" fill="white"/>
<path d="M168.129 195.802C168.129 197.65 166.657 199.122 164.809 199.122C162.96 199.122 161.488 197.65 161.488 195.802C161.488 193.955 162.96 192.483 164.809 192.483C166.657 192.483 168.129 193.989 168.129 195.802Z" fill="#FFB100"/>
<path opacity="0.42" d="M166.931 195.221C166.931 195.905 166.383 196.487 165.664 196.487C164.98 196.487 164.398 195.939 164.398 195.221C164.398 194.536 164.946 193.955 165.664 193.955C166.383 193.955 166.931 194.536 166.931 195.221Z" fill="white"/>
<path d="M85.2214 177.427C85.2214 179.275 83.7495 180.746 81.901 180.746C80.0525 180.746 78.5806 179.275 78.5806 177.427C78.5806 175.579 80.0525 174.107 81.901 174.107C83.7495 174.107 85.2214 175.613 85.2214 177.427Z" fill="#FFB100"/>
<path opacity="0.42" d="M84.0233 176.845C84.0233 177.529 83.4756 178.111 82.7568 178.111C82.0722 178.111 81.4902 177.564 81.4902 176.845C81.4902 176.161 82.0379 175.579 82.7568 175.579C83.4414 175.579 84.0233 176.161 84.0233 176.845Z" fill="white"/>
<path d="M112.196 181.601C112.196 183.449 110.724 184.921 108.875 184.921C107.027 184.921 105.555 183.449 105.555 181.601C105.555 179.754 107.027 178.282 108.875 178.282C110.724 178.282 112.196 179.788 112.196 181.601Z" fill="#FFB100"/>
<path opacity="0.42" d="M110.997 181.02C110.997 181.704 110.45 182.286 109.731 182.286C109.046 182.286 108.464 181.738 108.464 181.02C108.464 180.335 109.012 179.754 109.731 179.754C110.45 179.754 110.997 180.335 110.997 181.02Z" fill="white"/>
<path d="M128.798 192.723C128.798 194.57 127.326 196.042 125.477 196.042C123.629 196.042 122.157 194.57 122.157 192.723C122.157 190.875 123.629 189.403 125.477 189.403C127.291 189.403 128.798 190.875 128.798 192.723Z" fill="#FFB100"/>
<path opacity="0.42" d="M127.565 192.107C127.565 192.791 127.018 193.373 126.299 193.373C125.614 193.373 125.032 192.825 125.032 192.107C125.032 191.422 125.58 190.841 126.299 190.841C127.018 190.875 127.565 191.422 127.565 192.107Z" fill="white"/>
<path d="M72.385 158.675C72.385 160.523 70.913 161.994 69.0646 161.994C67.2161 161.994 65.7441 160.523 65.7441 158.675C65.7441 156.827 67.2161 155.355 69.0646 155.355C70.913 155.355 72.385 156.861 72.385 158.675Z" fill="#FFB100"/>
<path opacity="0.42" d="M71.1864 158.093C71.1864 158.777 70.6387 159.359 69.9199 159.359C69.2352 159.359 68.6533 158.812 68.6533 158.093C68.6533 157.409 69.201 156.827 69.9199 156.827C70.6387 156.827 71.1864 157.409 71.1864 158.093Z" fill="white"/>
<path d="M56.1936 151.283C56.1936 153.131 54.7216 154.603 52.8732 154.603C51.0247 154.603 49.5527 153.131 49.5527 151.283C49.5527 149.436 51.0247 147.964 52.8732 147.964C54.7216 147.964 56.1936 149.47 56.1936 151.283Z" fill="#FFB100"/>
<path opacity="0.42" d="M54.9955 150.702C54.9955 151.386 54.4478 151.968 53.729 151.968C53.0443 151.968 52.4624 151.42 52.4624 150.702C52.4624 150.017 53.0101 149.436 53.729 149.436C54.4136 149.436 54.9955 150.017 54.9955 150.702Z" fill="white"/>
<path d="M52.5647 178.624C52.5647 180.472 51.0927 181.944 49.2442 181.944C47.3958 181.944 45.9238 180.472 45.9238 178.624C45.9238 176.777 47.3958 175.305 49.2442 175.305C51.0927 175.305 52.5647 176.811 52.5647 178.624Z" fill="#FFB100"/>
<path opacity="0.42" d="M50.1005 179.309C50.8 179.309 51.3671 178.742 51.3671 178.043C51.3671 177.343 50.8 176.777 50.1005 176.777C49.401 176.777 48.834 177.343 48.834 178.043C48.834 178.742 49.401 179.309 50.1005 179.309Z" fill="white"/>
<path d="M69.3039 213.631C69.3039 215.478 67.832 216.95 65.9835 216.95C64.135 216.95 62.6631 215.478 62.6631 213.631C62.6631 211.783 64.135 210.311 65.9835 210.311C67.7977 210.311 69.3039 211.783 69.3039 213.631Z" fill="#FFB100"/>
<path opacity="0.42" d="M68.1059 213.049C68.1059 213.733 67.5582 214.315 66.8393 214.315C66.1547 214.315 65.5728 213.767 65.5728 213.049C65.5728 212.364 66.1205 211.783 66.8393 211.783C67.5239 211.783 68.1059 212.33 68.1059 213.049Z" fill="white"/>
<path d="M87.7204 219.756C87.7204 221.604 86.2485 223.075 84.4 223.075C82.5515 223.075 81.0796 221.604 81.0796 219.756C81.0796 217.908 82.5515 216.437 84.4 216.437C86.2142 216.437 87.7204 217.908 87.7204 219.756Z" fill="#FFB100"/>
<path opacity="0.42" d="M86.5224 219.174C86.5224 219.858 85.9747 220.44 85.2558 220.44C84.5712 220.44 83.9893 219.893 83.9893 219.174C83.9893 218.49 84.537 217.908 85.2558 217.908C85.9404 217.908 86.5224 218.455 86.5224 219.174Z" fill="white"/>
<path d="M77.2453 233.58C77.2453 235.428 75.7734 236.899 73.9249 236.899C72.0764 236.899 70.6045 235.428 70.6045 233.58C70.6045 231.732 72.0764 230.261 73.9249 230.261C75.7392 230.261 77.2453 231.767 77.2453 233.58Z" fill="#FFB100"/>
<path opacity="0.42" d="M76.0478 232.999C76.0478 233.683 75.5001 234.265 74.7812 234.265C74.0966 234.265 73.5146 233.717 73.5146 232.999C73.5146 232.314 74.0623 231.732 74.7812 231.732C75.4658 231.732 76.0478 232.314 76.0478 232.999Z" fill="white"/>
<path d="M110.244 240.561C110.244 242.409 108.772 243.88 106.924 243.88C105.075 243.88 103.604 242.409 103.604 240.561C103.604 238.713 105.075 237.242 106.924 237.242C108.738 237.242 110.244 238.713 110.244 240.561Z" fill="#FFB100"/>
<path opacity="0.42" d="M109.046 239.945C109.046 240.629 108.499 241.211 107.78 241.211C107.095 241.211 106.513 240.664 106.513 239.945C106.513 239.261 107.061 238.679 107.78 238.679C108.464 238.713 109.046 239.261 109.046 239.945Z" fill="white"/>
<path d="M175.01 263.693C175.01 265.541 173.538 267.012 171.689 267.012C169.841 267.012 168.369 265.541 168.369 263.693C168.369 261.845 169.841 260.374 171.689 260.374C173.538 260.374 175.01 261.879 175.01 263.693Z" fill="#FFB100"/>
<path opacity="0.42" d="M173.811 263.111C173.811 263.796 173.264 264.377 172.545 264.377C171.86 264.377 171.278 263.83 171.278 263.111C171.278 262.427 171.826 261.845 172.545 261.845C173.264 261.845 173.811 262.427 173.811 263.111Z" fill="white"/>
<path d="M132.289 256.849C132.289 258.697 130.817 260.169 128.969 260.169C127.12 260.169 125.648 258.697 125.648 256.849C125.648 255.001 127.12 253.53 128.969 253.53C130.817 253.53 132.289 255.036 132.289 256.849Z" fill="#FFB100"/>
<path opacity="0.42" d="M131.091 256.268C131.091 256.952 130.544 257.534 129.825 257.534C129.14 257.534 128.558 256.986 128.558 256.268C128.558 255.583 129.106 255.001 129.825 255.001C130.509 255.001 131.091 255.583 131.091 256.268Z" fill="white"/>
<path d="M201.162 263.488C201.162 265.336 199.69 266.807 197.842 266.807C195.993 266.807 194.521 265.336 194.521 263.488C194.521 261.64 195.993 260.168 197.842 260.168C199.69 260.168 201.162 261.674 201.162 263.488Z" fill="#FFB100"/>
<path opacity="0.42" d="M199.964 262.906C199.964 263.59 199.417 264.172 198.698 264.172C198.013 264.172 197.431 263.625 197.431 262.906C197.431 262.222 197.979 261.64 198.698 261.64C199.417 261.64 199.964 262.222 199.964 262.906Z" fill="white"/>
<path d="M124.348 218.866C126.182 218.866 127.668 217.38 127.668 215.547C127.668 213.714 126.182 212.228 124.348 212.228C122.514 212.228 121.027 213.714 121.027 215.547C121.027 217.38 122.514 218.866 124.348 218.866Z" fill="#FFB100"/>
<path opacity="0.42" d="M126.47 214.931C126.47 215.615 125.922 216.197 125.204 216.197C124.519 216.197 123.937 215.65 123.937 214.931C123.937 214.247 124.485 213.665 125.204 213.665C125.922 213.699 126.47 214.247 126.47 214.931Z" fill="white"/>
<path d="M139.854 206C139.854 207.848 138.382 209.319 136.534 209.319C134.685 209.319 133.213 207.848 133.213 206C133.213 204.152 134.685 202.681 136.534 202.681C138.348 202.646 139.854 204.152 139.854 206Z" fill="#FFB100"/>
<path opacity="0.42" d="M138.656 205.384C138.656 206.068 138.108 206.65 137.39 206.65C136.705 206.65 136.123 206.102 136.123 205.384C136.123 204.699 136.671 204.118 137.39 204.118C138.074 204.152 138.656 204.699 138.656 205.384Z" fill="white"/>
<path d="M158.237 211.441C158.237 213.288 156.765 214.76 154.916 214.76C153.068 214.76 151.596 213.288 151.596 211.441C151.596 209.593 153.068 208.121 154.916 208.121C156.765 208.121 158.237 209.627 158.237 211.441Z" fill="#FFB100"/>
<path opacity="0.42" d="M157.038 210.859C157.038 211.543 156.491 212.125 155.772 212.125C155.087 212.125 154.505 211.577 154.505 210.859C154.505 210.174 155.053 209.593 155.772 209.593C156.491 209.593 157.038 210.174 157.038 210.859Z" fill="white"/>
<path d="M187.367 153.2C187.367 155.047 185.895 156.519 184.046 156.519C182.198 156.519 180.726 155.047 180.726 153.2C180.726 151.352 182.198 149.88 184.046 149.88C185.895 149.88 187.367 151.352 187.367 153.2Z" fill="#FFB100"/>
<path opacity="0.42" d="M186.169 152.584C186.169 153.268 185.621 153.85 184.902 153.85C184.218 153.85 183.636 153.302 183.636 152.584C183.636 151.899 184.183 151.318 184.902 151.318C185.621 151.352 186.169 151.899 186.169 152.584Z" fill="white"/>
<path d="M74.2617 104L69 102.461C69.1032 102.126 71.5105 94.3623 78.251 86.7324C84.5101 79.6715 95.7902 71.3389 114.086 72.0416C133.929 72.8113 145.072 81.01 150.918 87.7698C157.315 95.1654 158.931 102.36 159 102.661L153.601 103.766C153.601 103.699 152.122 97.3741 146.551 91.0159C139.088 82.5159 128.083 77.9313 113.88 77.3959C100.949 76.8939 90.3565 81.2108 82.4123 90.2462C76.4627 97.006 74.2961 103.933 74.2617 104Z" fill="#312E2E"/>
<path d="M154.813 100.947L161.386 100.297C167.889 99.6811 173.675 104.438 174.325 110.939L175.112 118.912C175.728 125.414 170.97 131.197 164.466 131.847L157.894 132.497C156.148 132.668 154.642 131.402 154.471 129.657L152.006 104.403C151.801 102.658 153.067 101.118 154.813 100.947Z" fill="#444242"/>
</svg>
