<svg width="112" height="112" viewBox="0 0 112 112" fill="none" xmlns="http://www.w3.org/2000/svg">
<path d="M112 56C112 86.9279 86.9279 112 56 112C25.0721 112 0 86.9279 0 56C0 25.0721 25.0721 0 56 0C86.9279 0 112 25.0721 112 56Z" fill="#EFEFEF"/>
<path d="M80 84.3H32V55.3C32 53.6 33.3 52.3 35 52.3H77C78.7 52.3 80 53.6 80 55.3V84.3Z" fill="#C1141E"/>
<path d="M87.3395 63.1276C87.5648 62.4779 87.0823 61.8 86.3947 61.8H65.0452C64.8214 61.8 64.6041 61.8751 64.428 62.0133L58.4716 66.6868C58.2955 66.825 58.0781 66.9001 57.8543 66.9001H44.7474C44.3533 66.9001 43.996 67.1314 43.8349 67.491L36.9314 82.891C36.6348 83.5526 37.1189 84.3 37.8439 84.3H79.288C79.7141 84.3 80.0933 84.0301 80.2329 83.6276L87.3395 63.1276Z" fill="#E91E29"/>
<path d="M55.6 17L57.6 21.1L62.2 21.8L58.9 25L59.6 29.5L55.6 27.3L51.6 29.5L52.3 25L49 21.8L53.6 21.1L55.6 17Z" fill="white"/>
<path fill-rule="evenodd" clip-rule="evenodd" d="M55.6001 15C56.3647 15 57.0624 15.4359 57.3976 16.1232L58.9378 19.2805L62.5009 19.8228C63.2521 19.9371 63.8736 20.4671 64.105 21.1908C64.3365 21.9145 64.1378 22.7069 63.5924 23.2358L61.0354 25.7153L61.5763 29.1926C61.6935 29.946 61.3721 30.7005 60.7477 31.138C60.1232 31.5755 59.3043 31.6199 58.6362 31.2524L55.6001 29.5825L52.5639 31.2524C51.8958 31.6199 51.0769 31.5755 50.4525 31.138C49.828 30.7005 49.5066 29.946 49.6238 29.1926L50.1647 25.7153L47.6078 23.2358C47.0623 22.7069 46.8637 21.9145 47.0951 21.1908C47.3265 20.4671 47.948 19.9371 48.6992 19.8228L52.2623 19.2805L53.8025 16.1232C54.1377 15.4359 54.8354 15 55.6001 15ZM53.6001 21.1L49.0001 21.8L52.3001 25L51.6001 29.5L55.6001 27.3L59.6001 29.5L58.9001 25L62.2001 21.8L57.6001 21.1L55.6001 17L53.6001 21.1Z" fill="#E91E29"/>
<path d="M38.6 30L40.6 34.1L45.1 34.8L41.9 38L42.6 42.5L38.6 40.4L34.5 42.5L35.3 38L32 34.8L36.6 34.1L38.6 30Z" fill="white"/>
<path fill-rule="evenodd" clip-rule="evenodd" d="M38.6001 28C39.3647 28 40.0624 28.4359 40.3976 29.1232L41.9396 32.2843L45.4075 32.8238C46.1516 32.9395 46.7676 33.4634 47.0013 34.1793C47.235 34.8952 47.0468 35.6817 46.5143 36.2142L44.0324 38.6961L44.5763 42.1926C44.6924 42.9391 44.378 43.6873 43.7635 44.1268C43.149 44.5663 42.3393 44.622 41.6704 44.2708L38.5887 42.6529L35.4118 44.2801C34.7357 44.6264 33.9218 44.5598 33.311 44.1081C32.7002 43.6565 32.398 42.8978 32.5309 42.1499L33.1449 38.6961L30.6078 36.2358C30.0623 35.7069 29.8637 34.9145 30.0951 34.1908C30.3265 33.4671 30.948 32.9371 31.6992 32.8228L35.2623 32.2805L36.8025 29.1232C37.1377 28.4359 37.8354 28 38.6001 28ZM36.6001 34.1L32.0001 34.8L35.3001 38L34.5001 42.5L38.6001 40.4L42.6001 42.5L41.9001 38L45.1001 34.8L40.6001 34.1L38.6001 30L36.6001 34.1Z" fill="#E91E29"/>
<path d="M73.6 30L75.6 34.1L80.1 34.8L76.9 38L77.6 42.5L73.6 40.4L69.5 42.5L70.3 38L67 34.8L71.6 34.1L73.6 30Z" fill="white"/>
<path fill-rule="evenodd" clip-rule="evenodd" d="M73.6001 28C74.3647 28 75.0624 28.4359 75.3976 29.1232L76.9396 32.2843L80.4075 32.8238C81.1516 32.9395 81.7676 33.4634 82.0013 34.1793C82.235 34.8952 82.0468 35.6817 81.5143 36.2142L79.0324 38.6961L79.5763 42.1926C79.6924 42.9391 79.378 43.6873 78.7635 44.1268C78.149 44.5663 77.3393 44.622 76.6704 44.2708L73.5887 42.6529L70.4118 44.2801C69.7357 44.6264 68.9218 44.5598 68.311 44.1081C67.7002 43.6565 67.398 42.8978 67.5309 42.1499L68.1449 38.6961L65.6078 36.2358C65.0623 35.7069 64.8637 34.9145 65.0951 34.1908C65.3265 33.4671 65.948 32.9371 66.6992 32.8228L70.2623 32.2805L71.8025 29.1232C72.1377 28.4359 72.8354 28 73.6001 28ZM71.6001 34.1L67.0001 34.8L70.3001 38L69.5001 42.5L73.6001 40.4L77.6001 42.5L76.9001 38L80.1001 34.8L75.6001 34.1L73.6001 30L71.6001 34.1Z" fill="#E91E29"/>
<path d="M46.6 49L48.6 53.1L53.1 53.8L49.9 57L50.6 61.5L46.6 59.3L42.5 61.5L43.3 57L40 53.8L44.6 53.1L46.6 49Z" fill="white"/>
<path fill-rule="evenodd" clip-rule="evenodd" d="M46.6001 47C47.3647 47 48.0624 47.4359 48.3976 48.1232L49.9396 51.2843L53.4075 51.8238C54.1516 51.9395 54.7676 52.4634 55.0013 53.1793C55.235 53.8952 55.0468 54.6817 54.5143 55.2142L52.0324 57.6961L52.5763 61.1926C52.6935 61.946 52.3721 62.7005 51.7477 63.138C51.1232 63.5755 50.3043 63.6199 49.6362 63.2524L46.5883 61.5761L43.4457 63.2623C42.7703 63.6248 41.9471 63.5693 41.3264 63.1194C40.7057 62.6696 40.3968 61.9046 40.5309 61.1499L41.1449 57.6961L38.6078 55.2358C38.0623 54.7069 37.8637 53.9145 38.0951 53.1908C38.3265 52.4671 38.948 51.9371 39.6992 51.8228L43.2623 51.2805L44.8025 48.1232C45.1377 47.4359 45.8354 47 46.6001 47ZM44.6001 53.1L40.0001 53.8L43.3001 57L42.5001 61.5L46.6001 59.3L50.6001 61.5L49.9001 57L53.1001 53.8L48.6001 53.1L46.6001 49L44.6001 53.1Z" fill="#E91E29"/>
<path d="M66.5 49L68.5 53.1L73.1 53.8L69.8 57L70.6 61.5L66.5 59.3L62.5 61.5L63.2 57L60 53.8L64.5 53.1L66.5 49Z" fill="white"/>
<path fill-rule="evenodd" clip-rule="evenodd" d="M66.5001 47C67.2647 47 67.9624 47.4359 68.2976 48.1232L69.8378 51.2805L73.4009 51.8228C74.1521 51.9371 74.7736 52.4671 75.005 53.1908C75.2364 53.9145 75.0378 54.7069 74.4923 55.2358L71.9552 57.6961L72.5692 61.1499C72.7033 61.9046 72.3944 62.6696 71.7737 63.1194C71.153 63.5693 70.3299 63.6248 69.6544 63.2623L66.5118 61.5761L63.4639 63.2524C62.7958 63.6199 61.9769 63.5755 61.3525 63.138C60.728 62.7005 60.4066 61.946 60.5238 61.1926L61.0677 57.6961L58.5858 55.2142C58.0533 54.6817 57.8651 53.8952 58.0988 53.1793C58.3325 52.4634 58.9485 51.9395 59.6926 51.8238L63.1605 51.2843L64.7025 48.1232C65.0377 47.4359 65.7354 47 66.5001 47ZM64.5001 53.1L60.0001 53.8L63.2001 57L62.5001 61.5L66.5001 59.3L70.6001 61.5L69.8001 57L73.1001 53.8L68.5001 53.1L66.5001 49L64.5001 53.1Z" fill="#E91E29"/>
</svg>
