<svg width="112" height="112" viewBox="0 0 112 112" fill="none" xmlns="http://www.w3.org/2000/svg">
<path d="M112 56C112 86.9279 86.9279 112 56 112C25.0721 112 0 86.9279 0 56C0 25.0721 25.0721 0 56 0C86.9279 0 112 25.0721 112 56Z" fill="#EFEFEF"/>
<path d="M61.1252 67.8239H50.8748V76.7006H61.1252V67.8239Z" fill="#C1141E"/>
<path d="M37.8767 32C38.1937 52.2896 46.3307 68.5636 56.2642 68.5636C66.1976 68.5636 74.3346 52.2896 74.6517 32H37.8767Z" fill="white"/>
<path fill-rule="evenodd" clip-rule="evenodd" d="M37.1641 31.2984C37.3521 31.1075 37.6088 31 37.8767 31H74.6517C74.9196 31 75.1763 31.1075 75.3643 31.2984C75.5522 31.4894 75.6557 31.7477 75.6515 32.0156C75.4912 42.2763 73.3549 51.572 69.9578 58.3391C66.5925 65.0428 61.8176 69.5636 56.2642 69.5636C50.7108 69.5636 45.9359 65.0428 42.5706 58.3391C39.1735 51.572 37.0372 42.2763 36.8768 32.0156C36.8726 31.7477 36.9761 31.4894 37.1641 31.2984ZM38.8991 33C39.1763 42.6192 41.2335 51.2177 44.358 57.4418C47.6238 63.9474 51.8841 67.5636 56.2642 67.5636C60.6443 67.5636 64.9045 63.9474 68.1704 57.4418C71.2949 51.2177 73.3521 42.6192 73.6292 33H38.8991Z" fill="#C1141E"/>
<path fill-rule="evenodd" clip-rule="evenodd" d="M28.2854 36.7956C28.4735 36.6034 28.7311 36.4951 29 36.4951H38.1937C38.746 36.4951 39.1937 36.9428 39.1937 37.4951C39.1937 38.0474 38.746 38.4951 38.1937 38.4951H30.0342C30.3514 45.366 32.3719 51.4923 35.413 55.9389C38.6085 60.6112 42.8531 63.3366 47.3875 63.3366C47.9398 63.3366 48.3875 63.7843 48.3875 64.3366C48.3875 64.8889 47.9398 65.3366 47.3875 65.3366C41.9883 65.3366 37.1978 62.0914 33.7622 57.068C30.3221 52.038 28.1623 45.1325 28.0002 37.5164C27.9945 37.2475 28.0973 36.9877 28.2854 36.7956Z" fill="#C1141E"/>
<path fill-rule="evenodd" clip-rule="evenodd" d="M73.6517 37.4951C73.6517 36.9428 74.0995 36.4951 74.6517 36.4951H83.8455C84.1144 36.4951 84.372 36.6034 84.5601 36.7956C84.7482 36.9877 84.851 37.2475 84.8453 37.5164C84.6832 45.1325 82.5234 52.038 79.0833 57.068C75.6477 62.0914 70.8571 65.3366 65.458 65.3366C64.9057 65.3366 64.458 64.8889 64.458 64.3366C64.458 63.7843 64.9057 63.3366 65.458 63.3366C69.9923 63.3366 74.237 60.6112 77.4325 55.9389C80.4736 51.4923 82.494 45.366 82.8113 38.4951H74.6517C74.0995 38.4951 73.6517 38.0474 73.6517 37.4951Z" fill="#C1141E"/>
<path d="M63.9785 76.7007H48.2329C45.0626 76.7007 42.6321 79.2369 42.6321 82.3015V86.0001H69.5792V82.3015C69.5792 79.2369 67.043 76.7007 63.9785 76.7007Z" fill="#E91E29"/>
<path fill-rule="evenodd" clip-rule="evenodd" d="M41.6321 82.3015C41.6321 78.697 44.498 75.7007 48.2329 75.7007H63.9785C67.5953 75.7007 70.5792 78.6846 70.5792 82.3015V86.0001C70.5792 86.5524 70.1315 87.0001 69.5792 87.0001H42.6321C42.0798 87.0001 41.6321 86.5524 41.6321 86.0001V82.3015ZM48.2329 77.7007C45.6272 77.7007 43.6321 79.7768 43.6321 82.3015V85.0001H68.5792V82.3015C68.5792 79.7892 66.4908 77.7007 63.9785 77.7007H48.2329Z" fill="#C1141E"/>
</svg>
