<svg width="112" height="112" viewBox="0 0 112 112" fill="none" xmlns="http://www.w3.org/2000/svg">
<path d="M112 56C112 86.9279 86.9279 112 56 112C25.0721 112 0 86.9279 0 56C0 25.0721 25.0721 0 56 0C86.9279 0 112 25.0721 112 56Z" fill="#EFEFEF"/>
<path d="M77.2001 68.1H75.7001C70.1001 68.1 65.6001 72.6 65.6001 78.2V81.4H87.3001V78.2C87.3001 72.6 82.8001 68.1 77.2001 68.1Z" fill="#E91E29"/>
<path fill-rule="evenodd" clip-rule="evenodd" d="M64.6001 78.2C64.6001 72.0477 69.5478 67.1 75.7001 67.1H77.2001C83.3524 67.1 88.3001 72.0477 88.3001 78.2V81.4C88.3001 81.9523 87.8524 82.4 87.3001 82.4H65.6001C65.0478 82.4 64.6001 81.9523 64.6001 81.4V78.2ZM75.7001 69.1C70.6524 69.1 66.6001 73.1523 66.6001 78.2V80.4H86.3001V78.2C86.3001 73.1523 82.2478 69.1 77.2001 69.1H75.7001Z" fill="#C1141E"/>
<path d="M35.6 68.1H34.1C28.5 68.1 24 72.6 24 78.2V81.4H45.7V78.2C45.7 72.6 41.2 68.1 35.6 68.1Z" fill="#E91E29"/>
<path fill-rule="evenodd" clip-rule="evenodd" d="M23 78.2C23 72.0477 27.9477 67.1 34.1 67.1H35.6C41.7523 67.1 46.7 72.0477 46.7 78.2V81.4C46.7 81.9523 46.2523 82.4 45.7 82.4H24C23.4477 82.4 23 81.9523 23 81.4V78.2ZM34.1 69.1C29.0523 69.1 25 73.1523 25 78.2V80.4H44.7V78.2C44.7 73.1523 40.6477 69.1 35.6 69.1H34.1Z" fill="#C1141E"/>
<path d="M56.9001 61.2H54.7001C46.2001 61.2 39.3 68.0999 39.3 76.5999V81.5L56 92L72.3 81.5V76.5999C72.3 67.9999 65.4001 61.2 56.9001 61.2Z" fill="#E91E29"/>
<path fill-rule="evenodd" clip-rule="evenodd" d="M38.3 76.5999C38.3 67.5477 45.6478 60.2 54.7001 60.2H56.9001C65.9481 60.2 73.3 67.4434 73.3 76.5999V81.5C73.3 81.8399 73.1274 82.1565 72.8416 82.3406L56.5415 92.8407C56.2151 93.051 55.7964 93.0533 55.4677 92.8466L38.7678 82.3465C38.4767 82.1635 38.3 81.8438 38.3 81.5V76.5999ZM54.7001 62.2C46.7523 62.2 40.3 68.6522 40.3 76.5999V80.9475L55.9935 90.8147L71.3 80.9546V76.5999C71.3 68.5565 64.852 62.2 56.9001 62.2H54.7001Z" fill="#C1141E"/>
<path d="M51 62.2999L55.9 67.0999L60.6 62.2999V55.2H51V62.2999Z" fill="#EFEFEF"/>
<path fill-rule="evenodd" clip-rule="evenodd" d="M50 55.2C50 54.6477 50.4477 54.2 51 54.2H60.6C61.1523 54.2 61.6 54.6477 61.6 55.2V62.2999C61.6 62.5615 61.4975 62.8127 61.3145 62.9996L56.6145 67.7996C56.4289 67.9891 56.1757 68.0971 55.9104 68.0999C55.6452 68.1027 55.3897 67.9999 55.2002 67.8143L50.3002 63.0143C50.1082 62.8262 50 62.5687 50 62.2999V55.2ZM52 56.2V61.8797L55.8853 65.6857L59.6 61.8919V56.2H52Z" fill="#C1141E"/>
<path d="M55.8001 58.8C61.4334 58.8 66.0001 54.2333 66.0001 48.6C66.0001 42.9667 61.4334 38.4 55.8001 38.4C50.1668 38.4 45.6001 42.9667 45.6001 48.6C45.6001 54.2333 50.1668 58.8 55.8001 58.8Z" fill="white"/>
<path fill-rule="evenodd" clip-rule="evenodd" d="M55.8001 39.4C50.7191 39.4 46.6001 43.519 46.6001 48.6C46.6001 53.681 50.7191 57.8 55.8001 57.8C60.8811 57.8 65.0001 53.681 65.0001 48.6C65.0001 43.519 60.8811 39.4 55.8001 39.4ZM44.6001 48.6C44.6001 42.4144 49.6145 37.4 55.8001 37.4C61.9857 37.4 67.0001 42.4144 67.0001 48.6C67.0001 54.7856 61.9857 59.8 55.8001 59.8C49.6145 59.8 44.6001 54.7856 44.6001 48.6Z" fill="#C1141E"/>
<path d="M34.9 63.6C38.5451 63.6 41.5 60.6451 41.5 57C41.5 53.3549 38.5451 50.4 34.9 50.4C31.255 50.4 28.3 53.3549 28.3 57C28.3 60.6451 31.255 63.6 34.9 63.6Z" fill="white"/>
<path fill-rule="evenodd" clip-rule="evenodd" d="M34.9 51.4C31.8073 51.4 29.3 53.9072 29.3 57C29.3 60.0928 31.8073 62.6 34.9 62.6C37.9928 62.6 40.5 60.0928 40.5 57C40.5 53.9072 37.9928 51.4 34.9 51.4ZM27.3 57C27.3 52.8027 30.7027 49.4 34.9 49.4C39.0974 49.4 42.5 52.8027 42.5 57C42.5 61.1974 39.0974 64.6 34.9 64.6C30.7027 64.6 27.3 61.1974 27.3 57Z" fill="#C1141E"/>
<path d="M76.4001 63.6C80.0451 63.6 83 60.6451 83 57C83 53.3549 80.0451 50.4 76.4001 50.4C72.755 50.4 69.8 53.3549 69.8 57C69.8 60.6451 72.755 63.6 76.4001 63.6Z" fill="white"/>
<path fill-rule="evenodd" clip-rule="evenodd" d="M76.4001 51.4C73.3073 51.4 70.8 53.9072 70.8 57C70.8 60.0928 73.3073 62.6 76.4001 62.6C79.4928 62.6 82 60.0928 82 57C82 53.9072 79.4928 51.4 76.4001 51.4ZM68.8 57C68.8 52.8027 72.2027 49.4 76.4001 49.4C80.5974 49.4 84 52.8027 84 57C84 61.1974 80.5974 64.6 76.4001 64.6C72.2027 64.6 68.8 61.1974 68.8 57Z" fill="#C1141E"/>
<path d="M62.1 22.4C62.1 20.5 60.6 19 58.7 19C57.4 19 56.3 19.7 55.8 20.8C55.2 19.8 54.1 19 52.9 19C51 19 49.5 20.5 49.5 22.4C49.5 24.3 50.6 24.8 50.6 24.8L55.8 30.1L61 25C61.756 24.244 62.1 23.5077 62.1 22.4Z" fill="#E91E29"/>
<path fill-rule="evenodd" clip-rule="evenodd" d="M48.5 22.4C48.5 19.9477 50.4477 18 52.9 18C54.0028 18 54.9916 18.4835 55.743 19.1701C56.5063 18.4268 57.5559 18 58.7 18C61.1523 18 63.1 19.9477 63.1 22.4C63.1 23.0617 62.9963 23.6627 62.7512 24.2291C62.5073 24.7926 62.1469 25.2673 61.7071 25.7071L61.7002 25.714L61.7002 25.7139L56.5002 30.8139C56.106 31.2006 55.4729 31.1945 55.0862 30.8003L49.9822 25.5982C49.937 25.5697 49.8864 25.5355 49.832 25.4951C49.6626 25.3693 49.4548 25.1825 49.2533 24.9169C48.8403 24.3725 48.5 23.558 48.5 22.4ZM51.049 23.9065C51.1472 23.9558 51.2367 24.0211 51.3138 24.0997L55.8136 28.686L60.2962 24.2896C60.6104 23.9748 60.7991 23.7043 60.9158 23.4347C61.0316 23.1669 61.1 22.8459 61.1 22.4C61.1 21.0523 60.0477 20 58.7 20C57.7705 20 57.0393 20.4901 56.7104 21.2138C56.5566 21.5521 56.2279 21.7772 55.8569 21.7984C55.4858 21.8195 55.1337 21.6332 54.9425 21.3145C54.4724 20.531 53.6601 20 52.9 20C51.5523 20 50.5 21.0523 50.5 22.4C50.5 23.142 50.7097 23.5275 50.8467 23.7081C50.9202 23.805 50.9874 23.8619 51.0242 23.8893C51.0358 23.8979 51.0443 23.9035 51.049 23.9065Z" fill="#C1141E"/>
</svg>
