<svg width="112" height="112" viewBox="0 0 112 112" fill="none" xmlns="http://www.w3.org/2000/svg">
<path d="M112 56C112 86.9279 86.9279 112 56 112C25.0721 112 0 86.9279 0 56C0 25.0721 25.0721 0 56 0C86.9279 0 112 25.0721 112 56Z" fill="#EFEFEF"/>
<path d="M56 25L30 36.7196V52.8804C30 70.3981 40.0286 82.8579 56 91C71.9714 82.8579 82 70.5215 82 52.8804V36.7196L56 25Z" fill="#E91E29"/>
<path fill-rule="evenodd" clip-rule="evenodd" d="M55.5891 24.0883C55.8504 23.9706 56.1496 23.9706 56.4109 24.0883L82.4109 35.808C82.7695 35.9696 83 36.3263 83 36.7196V52.8804C83 71.0012 72.6569 83.6309 56.4542 91.8909C56.1689 92.0364 55.8311 92.0364 55.5458 91.8909C39.3413 83.63 29 70.8762 29 52.8804V36.7196C29 36.3263 29.2305 35.9696 29.5891 35.808L55.5891 24.0883ZM31 37.3658V52.8804C31 69.7556 40.5291 81.8505 56 89.8755C71.4726 81.8519 81 69.8761 81 52.8804V37.3658L56 26.0969L31 37.3658Z" fill="#C1141E"/>
<path d="M54.3962 68C53.6537 68 52.9112 67.7546 52.2924 67.2639L43.011 58.9213C41.7735 57.8171 41.6497 55.8541 42.7635 54.6273C43.8772 53.4004 45.8573 53.2777 47.0948 54.3819L54.025 60.6389L65.6577 48.0023C66.7715 46.7754 68.7515 46.6527 69.989 47.7569C71.2265 48.8611 71.3503 50.824 70.2365 52.0509L56.6238 67.0185C56.1287 67.6319 55.2625 68 54.52 68C54.52 68 54.52 68 54.3962 68Z" fill="white"/>
<path fill-rule="evenodd" clip-rule="evenodd" d="M69.3234 48.503C68.5034 47.7714 67.1502 47.8461 66.3982 48.6744L66.3936 48.6795L54.7608 61.3161C54.3893 61.7197 53.7621 61.7487 53.3549 61.3811L46.4272 55.1263C45.607 54.3965 44.2554 54.4718 43.504 55.2994C42.7722 56.1055 42.8445 57.4324 43.6769 58.1751L43.6796 58.1775L52.9361 66.4978C53.37 66.8339 53.8837 67 54.3963 67H54.5199C54.9894 67 55.5582 66.7468 55.8457 66.3905C55.858 66.3752 55.8708 66.3602 55.8841 66.3457L69.4963 51.3787C70.2281 50.5726 70.1558 49.2457 69.3234 48.503ZM64.92 47.3273C66.396 45.7045 69.0008 45.5349 70.6549 47.0107C72.2976 48.4764 72.4728 51.0754 70.9771 52.723L57.3817 67.6716C56.6772 68.5263 55.5258 69 54.5201 69H54.3971C53.4335 69 52.4702 68.6811 51.6712 68.0474C51.6551 68.0346 51.6393 68.0213 51.6241 68.0076L42.3454 59.6674C42.3449 59.667 42.3444 59.6666 42.3439 59.6662C40.7026 58.2003 40.5279 55.6022 42.0232 53.9551C43.4988 52.3297 46.1057 52.159 47.7607 53.6357L47.7651 53.6396L53.9601 59.2329L64.9174 47.3301C64.9183 47.3292 64.9191 47.3282 64.92 47.3273Z" fill="#C1141E"/>
</svg>
