<svg width="112" height="112" viewBox="0 0 112 112" fill="none" xmlns="http://www.w3.org/2000/svg">
<path d="M112 56C112 86.9279 86.9279 112 56 112C25.0721 112 0 86.9279 0 56C0 25.0721 25.0721 0 56 0C86.9279 0 112 25.0721 112 56Z" fill="#EFEFEF"/>
<path d="M88 56C88 73.6731 73.6731 88 56 88C38.3269 88 24 73.6731 24 56C24 38.3269 38.3269 24 56 24C73.6731 24 88 38.3269 88 56Z" fill="white"/>
<path d="M71 56C71 64.2843 64.2843 71 56 71C47.7157 71 41 64.2843 41 56C41 47.7157 47.7157 41 56 41C64.2843 41 71 47.7157 71 56Z" fill="#EFEFEF"/>
<path fill-rule="evenodd" clip-rule="evenodd" d="M56 25C38.8792 25 25 38.8792 25 56C25 73.1208 38.8792 87 56 87C73.1208 87 87 73.1208 87 56C87 38.8792 73.1208 25 56 25ZM23 56C23 37.7746 37.7746 23 56 23C74.2254 23 89 37.7746 89 56C89 74.2254 74.2254 89 56 89C37.7746 89 23 74.2254 23 56Z" fill="#C1141E"/>
<path fill-rule="evenodd" clip-rule="evenodd" d="M56 42C48.268 42 42 48.268 42 56C42 63.732 48.268 70 56 70C63.732 70 70 63.732 70 56C70 48.268 63.732 42 56 42ZM40 56C40 47.1634 47.1634 40 56 40C64.8366 40 72 47.1634 72 56C72 64.8366 64.8366 72 56 72C47.1634 72 40 64.8366 40 56Z" fill="#C1141E"/>
<path d="M40.0204 55.8793C40.0204 53.9483 40.3469 52.0172 41 50.3276L27.9388 42C26.0884 46.2241 25 50.931 25 56C25 61.069 26.0884 65.7759 27.9388 70L41 61.6724C40.3469 59.7414 40.0204 57.931 40.0204 55.8793Z" fill="#E91E29"/>
<path d="M71.9796 56.1207C71.9796 58.0517 71.6531 59.9828 71 61.6724L84.0612 70C85.9116 65.7759 87 61.069 87 56C87 50.931 85.9116 46.2241 84.0612 42L71 50.3276C71.6531 52.2586 71.9796 54.1897 71.9796 56.1207Z" fill="#E91E29"/>
<path d="M55.8783 87C60.9913 87 65.7391 85.9116 70 84.0612L61.6 71C59.8956 71.6531 57.9478 71.9796 56 71.9796C54.0522 71.9796 52.1043 71.6531 50.4 71L42 84.0612C46.1391 85.9116 50.887 87 55.8783 87Z" fill="#E91E29"/>
<path d="M56.1217 25C51.0087 25 46.2609 26.0884 42 27.9388L50.4 41C52.1043 40.3469 54.0522 40.0204 56 40.0204C57.9478 40.0204 59.8957 40.3469 61.6 41L70 27.9388C65.9826 26.0884 61.2348 25 56.1217 25Z" fill="#E91E29"/>
</svg>
