<svg width="112" height="112" viewBox="0 0 112 112" fill="none" xmlns="http://www.w3.org/2000/svg">
<path d="M112 56C112 86.9279 86.9279 112 56 112C25.0721 112 0 86.9279 0 56C0 25.0721 25.0721 0 56 0C86.9279 0 112 25.0721 112 56Z" fill="#EFEFEF"/>
<path d="M77.6978 39.875C76.4754 39.875 75.253 40 74.0306 40.375C71.0968 32.5 63.7623 27 54.9609 27C44.8149 27 36.5025 34.5 34.7912 44.25C33.9355 44.125 33.0798 44 32.2241 44C25.5008 44 20 49.625 20 56.5C20 63.375 25.5008 69 32.2241 69H77.6978C85.5212 69 92 62.5 92 54.375C92 46.25 85.6435 39.875 77.6978 39.875Z" fill="white"/>
<path fill-rule="evenodd" clip-rule="evenodd" d="M72.8146 42.84L72.1564 41.0732C69.4987 33.9393 62.8835 29 54.9609 29C45.8443 29 38.3148 35.7438 36.7611 44.5958L36.4251 46.5099L34.5021 46.229C33.6209 46.1003 32.9099 46 32.2241 46C26.6473 46 22 50.6873 22 56.5C22 62.3127 26.6473 67 32.2241 67H77.6978C84.3858 67 90 61.4265 90 54.375C90 47.3349 84.5193 41.875 77.6978 41.875C76.6115 41.875 75.5976 41.9863 74.6171 42.2871L72.8146 42.84ZM74.0306 40.375C75.253 40 76.4754 39.875 77.6978 39.875C85.6435 39.875 92 46.25 92 54.375C92 62.5 85.5212 69 77.6978 69H32.2241C25.5008 69 20 63.375 20 56.5C20 49.625 25.5008 44 32.2241 44C33.0798 44 33.9355 44.125 34.7912 44.25C36.5025 34.5 44.8149 27 54.9609 27C63.7623 27 71.0968 32.5 74.0306 40.375Z" fill="#C1141E"/>
<path d="M72 71C72 79.8366 64.8366 87 56 87C47.1634 87 40 79.8366 40 71C40 62.1634 47.1634 55 56 55C64.8366 55 72 62.1634 72 71Z" fill="#E91E29"/>
<path fill-rule="evenodd" clip-rule="evenodd" d="M56 56C47.7157 56 41 62.7157 41 71C41 79.2843 47.7157 86 56 86C64.2843 86 71 79.2843 71 71C71 62.7157 64.2843 56 56 56ZM39 71C39 61.6112 46.6112 54 56 54C65.3888 54 73 61.6112 73 71C73 80.3888 65.3888 88 56 88C46.6112 88 39 80.3888 39 71Z" fill="#EFEFEF"/>
<path fill-rule="evenodd" clip-rule="evenodd" d="M56 62C56.5523 62 57 62.4477 57 63L57 76C57 76.5523 56.5523 77 56 77C55.4477 77 55 76.5523 55 76L55 63C55 62.4477 55.4477 62 56 62Z" fill="white"/>
<path fill-rule="evenodd" clip-rule="evenodd" d="M48.2929 70.2929C48.6834 69.9024 49.3166 69.9024 49.7071 70.2929L56 76.5858L62.2929 70.2929C62.6834 69.9024 63.3166 69.9024 63.7071 70.2929C64.0976 70.6834 64.0976 71.3166 63.7071 71.7071L56 79.4142L48.2929 71.7071C47.9024 71.3166 47.9024 70.6834 48.2929 70.2929Z" fill="white"/>
</svg>
