<svg xmlns="http://www.w3.org/2000/svg" width="24" height="24" viewBox="0 0 24 24"><defs><style>.a{fill:none;}.b{fill:#fff;}</style></defs><g transform="translate(4 -12)"><rect class="a" width="24" height="24" transform="translate(-4 12)"/><path class="b" d="M49.717,2.459A9.308,9.308,0,0,0,43.233,0a10.23,10.23,0,0,0-7.517,2.878,8.473,8.473,0,0,0-2.534,5.894c0,2.672,1.126,4.722,3.01,5.485a1,1,0,0,0,.379.077.841.841,0,0,0,.822-.673c.064-.238.211-.824.275-1.079a1.007,1.007,0,0,0-.273-1.095A3.472,3.472,0,0,1,36.6,9.1,6.021,6.021,0,0,1,42.86,3.066c3.229,0,5.235,1.822,5.235,4.755a9.822,9.822,0,0,1-1.131,4.826A3.343,3.343,0,0,1,44.2,14.568a1.839,1.839,0,0,1-1.458-.662,1.656,1.656,0,0,1-.294-1.447c.144-.6.34-1.236.53-1.846a11.352,11.352,0,0,0,.674-3.006,2.189,2.189,0,0,0-2.212-2.4c-1.682,0-3,1.7-3,3.86a5.7,5.7,0,0,0,.413,2.161c-.212.891-1.471,6.189-1.71,7.188-.138.583-.97,5.189.407,5.557,1.547.413,2.93-4.073,3.07-4.58.114-.412.513-1.971.758-2.929a4.7,4.7,0,0,0,3.119,1.2,6.974,6.974,0,0,0,5.585-2.775,11.083,11.083,0,0,0,2.1-6.81A7.827,7.827,0,0,0,49.717,2.459Z" transform="translate(-34.182 12)"/></g></svg>