<svg xmlns="http://www.w3.org/2000/svg" width="24" height="24" viewBox="0 0 24 24"><defs><style>.a{fill:none;}.b{fill:#fff;}</style></defs><g transform="translate(-12 -13)"><rect class="a" width="24" height="24" transform="translate(12 13)"/><path class="b" d="M19.016,67.393H4.984A4.987,4.987,0,0,0,0,72.382V79.4a4.987,4.987,0,0,0,4.984,4.989H19.016A4.987,4.987,0,0,0,24,79.4V72.382A4.987,4.987,0,0,0,19.016,67.393Zm-3.371,8.842L9.082,79.368A.263.263,0,0,1,8.7,79.13V72.668a.263.263,0,0,1,.383-.235l6.563,3.329A.264.264,0,0,1,15.645,76.235Z" transform="translate(12 -51.393)"/></g></svg>