<svg width="75" height="80" viewBox="0 0 75 80" fill="none" xmlns="http://www.w3.org/2000/svg">
<path d="M37.3084 0.984497C57.7673 0.984497 74.2692 17.6712 74.2692 38.1696C74.2692 58.7526 57.6832 75.3546 37.3084 75.3546C16.9337 75.4393 0.347656 58.7526 0.347656 38.1696C0.347656 17.6712 16.9337 0.984497 37.3084 0.984497Z" fill="#DAEBFF"/>
<path d="M46.2329 50.8735L31.8359 65.3579V15.0437" stroke="#15113E" stroke-width="3" stroke-linecap="round" stroke-linejoin="round"/>
<path d="M17.1021 50.5347L31.8359 65.3579V15.0437" stroke="#15113E" stroke-width="3" stroke-linecap="round" stroke-linejoin="round"/>
<path d="M17.2705 30.0076H10.535C8.09343 30.0076 6.15698 32.464 6.15698 35.1746V73.376C6.15698 76.0865 8.09343 78.2888 10.535 78.2888H53.1368C55.5784 78.2888 57.5148 76.0865 57.5148 73.376V35.1746C57.5148 32.464 55.5784 30.0076 53.1368 30.0076H46.4013" stroke="#15113E" stroke-width="3" stroke-linecap="round" stroke-linejoin="round"/>
</svg>
