<svg width="75" height="79" viewBox="0 0 75 79" fill="none" xmlns="http://www.w3.org/2000/svg">
<path d="M37.5 0.984497C57.7905 0.984497 74.2082 17.5018 74.2082 37.9155C74.2082 58.3292 57.7905 74.8465 37.5 74.8465C17.2094 74.8465 0.791748 58.3292 0.791748 37.9155C0.791748 17.5018 17.2094 0.984497 37.5 0.984497Z" fill="#DAEBFF"/>
<path d="M49.8059 20.4554C50.9555 20.6024 51.9437 20.6922 52.6848 20.7465V20.7628V20.786V20.8093V20.8325V20.8557V20.8789V20.9021V20.9253V20.9484V20.9716V20.9947V21.0179V21.041V21.0641V21.0872V21.1103V21.1334V21.1565V21.1796V21.2026V21.2257V21.2487V21.2718V21.2948V21.3178V21.3408V21.3638V21.3868V21.4098V21.4328V21.4557V21.4787V21.5016V21.5246V21.5475V21.5704V21.5933V21.6162V21.6391V21.662V21.6848V21.7077V21.7305V21.7534V21.7762V21.799V21.8218V21.8447V21.8674V21.8902V21.913V21.9358V21.9585V21.9813V22.004V22.0267V22.0495V22.0722V22.0949V22.1176V22.1402V22.1629V22.1856V22.2082V22.2309V22.2535V22.2761V22.2988V22.3214V22.344V22.3666V22.3891V22.4117V22.4343V22.4568V22.4794V22.5019V22.5244V22.547V22.5695V22.592V22.6144V22.6369V22.6594V22.6819V22.7043V22.7268V22.7492V22.7716V22.794V22.8164V22.8388V22.8612V22.8836V22.906V22.9283V22.9507V22.973V22.9954V23.0177V23.04V23.0623V23.0846V23.1069V23.1292V23.1515V23.1737V23.196V23.2182V23.2404V23.2627V23.2849V23.3071V23.3293V23.3515V23.3737V23.3958V23.418V23.4401V23.4623V23.4844V23.5065V23.5287V23.5508V23.5729V23.595V23.617V23.6391V23.6612V23.6832V23.7053V23.7273V23.7493V23.7714V23.7934V23.8154V23.8374V23.8593V23.8813V23.9033V23.9252V23.9472V23.9691V23.991V24.013V24.0349V24.0568V24.0787V24.1006V24.1224V24.1443V24.1662V24.188V24.2098V24.2317V24.2535V24.2753V24.2971V24.3189V24.3407V24.3625V24.3842V24.406V24.4278V24.4495V24.4712V24.493V24.5147V24.5364V24.5581V24.5798V24.6014V24.6231V24.6448V24.6664V24.6881V24.7097V24.7313V24.753V24.7746V24.7962V24.8178V24.8394V24.8609V24.8825V24.904V24.9256V24.9471V24.9687V24.9902V25.0117V25.0332V25.0547V25.0762V25.0977V25.1191V25.1406V25.1621V25.1835V25.2049V25.2264V25.2478V25.2692V25.2906V25.312V25.3334V25.3547V25.3761V25.3975V25.4188V25.4401V25.4615V25.4828V25.5041V25.5254V25.5467V25.568V25.5893V25.6105V25.6318V25.6531V25.6743V25.6955V25.7168V25.738V25.7592V25.7804V25.8016V25.8228V25.844V25.8651V25.8863V25.9074V25.9286V25.9497V25.9708V25.9919V26.013V26.0341V26.0552V26.0763V26.0974V26.1185V26.1395V26.1606V26.1816V26.2026V26.2236V26.2447V26.2657V26.2867V26.3076V26.3286V26.3496V26.3706V26.3915V26.4124V26.4334V26.4543V26.4752V26.4961V26.517V26.5379V26.5588V26.5797V26.6006V26.6214V26.6423V26.6631V26.684V26.7048V26.7256V26.7464V26.7672V26.788V26.8088V26.8296V26.8503V26.8711V26.8918V26.9126V26.9333V26.954V26.9748V26.9955V27.0162V27.0369V27.0575V27.0782V27.0989V27.1195V27.1402V27.1608V27.1815V27.2021V27.2227V27.2433V27.2639V27.2845V27.3051V27.3257V27.3462V27.3668V27.3873V27.4079V27.4284V27.4489V27.4694V27.49V27.5105V27.5309V27.5514V27.5719V27.5924V27.6128V27.6333V27.6537V27.6742V27.6946V27.715V27.7354V27.7558V27.7762V27.7966V27.817V27.8373V27.8577V27.878V27.8984V27.9187V27.939V27.9594V27.9797V28V28.0203V28.0405V28.0608V28.0811V28.1014V28.1216V28.1419V28.1621V28.1823V28.2025V28.2227V28.243V28.2631V28.2833V28.3035V28.3237V28.3438V28.364V28.3841V28.4043V28.4244V28.4445V28.4647V28.4848V28.5049V28.5249V28.545V28.5651V28.5852V28.6052V28.6253V28.6453V28.6653V28.6854V28.7054V28.7254V28.7454V28.7654V28.7854V28.8054V28.8253V28.8453V28.8652V28.8852V28.9051V28.925V28.945V28.9649V28.9848V29.0047V29.0246V29.0444V29.0643V29.0842V29.104V29.1239V29.1437V29.1636V29.1834V29.2032V29.223V29.2428V29.2626V29.2824V29.3022V29.3219V29.3417V29.3614V29.3812V29.4009V29.4207V29.4404V29.4601V29.4798V29.4995V29.5192V29.5389V29.5585V29.5782V29.5979V29.6175V29.6371V29.6568V29.6764V29.696V29.7156V29.7352V29.7548V29.7744V29.794V29.8136V29.8331V29.8527V29.8722V29.8918V29.9113V29.9308V29.9503V29.9699V29.9894V30.0088V30.0283V30.0478V30.0673V30.0867V30.1062V30.1256V30.1451V30.1645V30.1839V30.2033V30.2227V30.2421V30.2615V30.2809V30.3003V30.3197V30.339C52.6848 48.9128 51.0784 54.7974 47.044 60.8462C43.7412 65.79 39.073 69.6845 35.0358 72.3992C33.0248 73.7514 31.1902 74.7977 29.7929 75.5237C29.0942 75.8867 28.5093 76.1673 28.0707 76.3646C27.9137 76.4353 27.7778 76.4942 27.664 76.5417C27.5502 76.4942 27.4143 76.4353 27.2573 76.3646C26.8187 76.1673 26.2338 75.8867 25.5351 75.5237C24.1378 74.7977 22.3031 73.7514 20.2922 72.3992C16.2553 69.6847 11.5874 65.7905 8.28458 60.8472C4.24979 54.798 2.64319 48.9137 2.64319 30.339V30.3197V30.3003V30.2809V30.2615V30.2421V30.2227V30.2033V30.1839V30.1645V30.1451V30.1256V30.1062V30.0867V30.0673V30.0478V30.0283V30.0088V29.9894V29.9699V29.9503V29.9308V29.9113V29.8918V29.8722V29.8527V29.8331V29.8136V29.794V29.7744V29.7548V29.7352V29.7156V29.696V29.6764V29.6568V29.6371V29.6175V29.5979V29.5782V29.5585V29.5389V29.5192V29.4995V29.4798V29.4601V29.4404V29.4207V29.4009V29.3812V29.3614V29.3417V29.3219V29.3022V29.2824V29.2626V29.2428V29.223V29.2032V29.1834V29.1636V29.1437V29.1239V29.104V29.0842V29.0643V29.0444V29.0246V29.0047V28.9848V28.9649V28.945V28.925V28.9051V28.8852V28.8652V28.8453V28.8253V28.8054V28.7854V28.7654V28.7454V28.7254V28.7054V28.6854V28.6653V28.6453V28.6253V28.6052V28.5852V28.5651V28.545V28.5249V28.5049V28.4848V28.4647V28.4445V28.4244V28.4043V28.3841V28.364V28.3438V28.3237V28.3035V28.2833V28.2631V28.243V28.2227V28.2025V28.1823V28.1621V28.1419V28.1216V28.1014V28.0811V28.0608V28.0405V28.0203V28V27.9797V27.9594V27.939V27.9187V27.8984V27.878V27.8577V27.8373V27.817V27.7966V27.7762V27.7558V27.7354V27.715V27.6946V27.6742V27.6537V27.6333V27.6128V27.5924V27.5719V27.5514V27.5309V27.5105V27.49V27.4694V27.4489V27.4284V27.4079V27.3873V27.3668V27.3462V27.3257V27.3051V27.2845V27.2639V27.2433V27.2227V27.2021V27.1815V27.1608V27.1402V27.1195V27.0989V27.0782V27.0575V27.0369V27.0162V26.9955V26.9748V26.954V26.9333V26.9126V26.8918V26.8711V26.8503V26.8296V26.8088V26.788V26.7672V26.7464V26.7256V26.7048V26.684V26.6631V26.6423V26.6214V26.6006V26.5797V26.5588V26.5379V26.517V26.4961V26.4752V26.4543V26.4334V26.4124V26.3915V26.3706V26.3496V26.3286V26.3076V26.2867V26.2657V26.2447V26.2236V26.2026V26.1816V26.1606V26.1395V26.1185V26.0974V26.0763V26.0552V26.0341V26.013V25.9919V25.9708V25.9497V25.9286V25.9074V25.8863V25.8651V25.844V25.8228V25.8016V25.7804V25.7592V25.738V25.7168V25.6955V25.6743V25.6531V25.6318V25.6105V25.5893V25.568V25.5467V25.5254V25.5041V25.4828V25.4615V25.4401V25.4188V25.3975V25.3761V25.3547V25.3334V25.312V25.2906V25.2692V25.2478V25.2264V25.2049V25.1835V25.1621V25.1406V25.1191V25.0977V25.0762V25.0547V25.0332V25.0117V24.9902V24.9687V24.9471V24.9256V24.904V24.8825V24.8609V24.8394V24.8178V24.7962V24.7746V24.753V24.7313V24.7097V24.6881V24.6664V24.6448V24.6231V24.6014V24.5798V24.5581V24.5364V24.5147V24.493V24.4712V24.4495V24.4278V24.406V24.3842V24.3625V24.3407V24.3189V24.2971V24.2753V24.2535V24.2317V24.2098V24.188V24.1662V24.1443V24.1224V24.1006V24.0787V24.0568V24.0349V24.013V23.991V23.9691V23.9472V23.9252V23.9033V23.8813V23.8593V23.8374V23.8154V23.7934V23.7714V23.7493V23.7273V23.7053V23.6832V23.6612V23.6391V23.617V23.595V23.5729V23.5508V23.5287V23.5065V23.4844V23.4623V23.4401V23.418V23.3958V23.3737V23.3515V23.3293V23.3071V23.2849V23.2627V23.2404V23.2182V23.196V23.1737V23.1515V23.1292V23.1069V23.0846V23.0623V23.04V23.0177V22.9954V22.973V22.9507V22.9283V22.906V22.8836V22.8612V22.8388V22.8164V22.794V22.7716V22.7492V22.7268V22.7043V22.6819V22.6594V22.6369V22.6144V22.592V22.5695V22.547V22.5244V22.5019V22.4794V22.4568V22.4343V22.4117V22.3891V22.3666V22.344V22.3214V22.2988V22.2761V22.2535V22.2309V22.2082V22.1856V22.1629V22.1402V22.1176V22.0949V22.0722V22.0495V22.0267V22.004V21.9813V21.9585V21.9358V21.913V21.8902V21.8674V21.8447V21.8218V21.799V21.7762V21.7534V21.7305V21.7077V21.6848V21.662V21.6391V21.6162V21.5933V21.5704V21.5475V21.5246V21.5016V21.4787V21.4557V21.4328V21.4098V21.3868V21.3638V21.3408V21.3178V21.2948V21.2718V21.2487V21.2257V21.2026V21.1796V21.1565V21.1334V21.1103V21.0872V21.0641V21.041V21.0179V20.9947V20.9716V20.9484V20.9253V20.9021V20.8789V20.8557V20.8325V20.8093V20.786V20.7628V20.7455C3.37679 20.691 4.35326 20.6015 5.4913 20.4553C8.0219 20.1303 11.3946 19.5201 14.6844 18.373C20.6226 16.3268 25.4767 13.6661 27.6744 12.3494C29.8165 13.5694 34.6826 16.3186 40.6407 18.3721C43.8916 19.5205 47.2663 20.1306 49.8059 20.4554Z" stroke="#130E3D" stroke-width="3" stroke-linejoin="round"/>
<path d="M17.4767 43.214L26.9063 56.5972L40.293 33.5577" stroke="#130E3D" stroke-width="3" stroke-linecap="round" stroke-linejoin="round"/>
</svg>
