<svg width="89" height="81" viewBox="0 0 89 81" fill="none" xmlns="http://www.w3.org/2000/svg">
<path d="M51.867 0.984558C72.1575 0.984558 88.5752 17.5018 88.5752 37.9155C88.5752 58.3292 72.1575 74.8465 51.867 74.8465C31.5764 74.8465 15.243 58.3292 15.243 37.9155C15.243 17.5018 31.6606 0.984558 51.867 0.984558Z" fill="#DAEBFF"/>
<path d="M38.2518 9.53961L50.2914 31.478L74.7074 36.2214L57.7004 54.4328L60.8155 79.2511L38.2518 68.5784L15.7722 79.1664L18.8874 54.3481L1.88037 36.1367L26.2964 31.478L38.2518 9.53961Z" stroke="#15103D" stroke-width="3" stroke-linecap="round" stroke-linejoin="round"/>
<path d="M36.9047 60.1927C34.4631 60.1927 32.6108 59.8538 31.2637 59.0915V57.5668C31.9373 57.9057 32.695 58.1598 33.4528 58.3292C34.6315 58.5833 35.726 58.7527 36.9047 58.7527C38.9253 58.7527 40.525 58.2445 41.6195 57.3127C42.7982 56.2963 43.3875 54.8563 43.3875 53.0775C43.3875 50.6211 42.293 47.6565 36.8205 47.6565C35.8102 47.6565 34.4631 47.8259 32.7792 48.08L31.7689 47.4024L32.6108 36.9838H43.4717V38.5084H34.1263L33.4528 46.7247L34.0421 46.64C35.2208 46.3859 36.4837 46.3012 37.6624 46.3012C40.0198 46.3012 41.8721 46.8941 43.2192 48.08C44.5662 49.2658 45.1556 50.7905 45.1556 52.8234C45.1556 55.1951 44.4821 56.9739 42.9666 58.2445C41.6195 59.5997 39.5147 60.1927 36.9047 60.1927Z" fill="#15123E" stroke="#15123E" stroke-width="2" stroke-linecap="round" stroke-linejoin="round"/>
</svg>
