<svg width="77" height="80" viewBox="0 0 77 80" fill="none" xmlns="http://www.w3.org/2000/svg">
<path d="M39.4194 0.984558C59.7099 0.984558 76.1276 17.5018 76.1276 37.9155C76.1276 58.3292 59.7099 74.8465 39.4194 74.8465C19.1289 74.8465 2.71121 58.3292 2.71121 37.9155C2.71121 17.5018 19.1289 0.984558 39.4194 0.984558Z" fill="#DAEBFF"/>
<path d="M64.7963 66.375V77.9235H54.1554" stroke="#130E3D" stroke-width="3" stroke-linecap="round" stroke-linejoin="round"/>
<path d="M52.2283 9.64398H63.2045V20.9396" stroke="#130E3D" stroke-width="3" stroke-linecap="round" stroke-linejoin="round"/>
<path d="M1.95612 21.2769V9.64398H12.6809" stroke="#130E3D" stroke-width="3" stroke-linecap="round" stroke-linejoin="round"/>
<path d="M12.8484 77.9235H1.87234V66.7964" stroke="#130E3D" stroke-width="3" stroke-linecap="round" stroke-linejoin="round"/>
<path d="M12.244 64.5361L27.1461 18.9655H39.27L54.1722 64.5361H42.7219L39.9435 55.2187H26.1358L23.3575 64.5361H12.244ZM37.5861 47.0024L33.0397 32.0099L28.4932 47.0024H37.5861Z" stroke="#130E3D" stroke-width="3" stroke-linecap="round" stroke-linejoin="round"/>
<path d="M3.65622 40.819H62.7598" stroke="#130E3D" stroke-width="3" stroke-linejoin="bevel"/>
</svg>
