<svg width="101" height="101" viewBox="0 0 101 101" fill="none" xmlns="http://www.w3.org/2000/svg">
<path d="M63.5424 4.98444C83.8329 4.98444 100.251 21.5017 100.251 41.9154C100.251 62.3291 83.8329 78.8463 63.5424 78.8463C43.2518 78.8463 26.8341 62.3291 26.8341 41.9154C26.8341 21.5017 43.336 4.98444 63.5424 4.98444Z" fill="#DAEBFF"/>
<path d="M55.0754 54.5312C56.6751 58.0041 60.127 60.4605 64.2524 60.4605C69.8092 60.4605 74.3556 55.8865 74.3556 50.2961C74.3556 44.7056 69.8092 40.1316 64.2524 40.1316C59.2009 40.1316 58.0222 41.4869 56.2541 42.588C52.297 45.1291 50.9499 50.889 45.8141 55.9712C40.7626 61.0534 35.9635 60.2911 35.9635 60.2911C30.4068 60.2911 25.8604 55.7171 25.8604 50.1267C25.8604 44.5362 30.4068 39.9622 35.9635 39.9622C40.0048 39.9622 43.5409 42.4186 45.1406 45.8915" stroke="#130E3D" stroke-width="3" stroke-linejoin="round"/>
<path d="M74.8847 75.1819C88.5625 61.4212 88.5625 39.1106 74.8847 25.3499C61.207 11.5891 39.0311 11.5891 25.3533 25.3499C11.6756 39.1106 11.6756 61.4211 25.3533 75.1819C39.0311 88.9426 61.207 88.9426 74.8847 75.1819Z" stroke="#130E3D" stroke-width="3" stroke-linejoin="round"/>
</svg>
