<svg width="62" height="72" viewBox="0 0 62 72" fill="none" xmlns="http://www.w3.org/2000/svg">
<path d="M30.797 2.10254V4.67187" stroke="#140F3D" stroke-width="3" stroke-linecap="round" stroke-linejoin="round"/>
<path d="M10.1671 10.6836L11.9464 12.4785" stroke="#140F3D" stroke-width="3" stroke-linecap="round" stroke-linejoin="round"/>
<path d="M1.60748 31.4832H4.15615" stroke="#140F3D" stroke-width="3" stroke-linecap="round" stroke-linejoin="round"/>
<path d="M10.1192 52.2817L11.8984 50.488" stroke="#140F3D" stroke-width="3" stroke-linecap="round" stroke-linejoin="round"/>
<path d="M51.3787 52.3306L49.5995 50.5369" stroke="#140F3D" stroke-width="3" stroke-linecap="round" stroke-linejoin="round"/>
<path d="M59.9384 31.531H57.3897" stroke="#140F3D" stroke-width="3" stroke-linecap="round" stroke-linejoin="round"/>
<path d="M51.4268 10.7319L49.6475 12.5256" stroke="#140F3D" stroke-width="3" stroke-linecap="round" stroke-linejoin="round"/>
<path d="M22.045 65.6143C36.7119 65.6143 39.5491 65.6143 39.5491 65.6143" stroke="#140F3D" stroke-width="3" stroke-linecap="round" stroke-linejoin="round"/>
<path d="M24.5456 70.4624C34.9807 70.4624 37.0004 70.4624 37.0004 70.4624" stroke="#140F3D" stroke-width="3" stroke-linecap="round" stroke-linejoin="round"/>
<path d="M50.1765 28.1855C49.9361 18.0043 41.3283 9.81079 30.797 9.81079C20.2657 9.81079 11.6579 18.0043 11.4175 28.1855C11.4175 28.1855 10.0229 35.1669 16.8033 47.045C18.9673 50.8266 21.0351 53.784 21.5641 58.9715C21.6122 59.3109 21.6122 60.4745 21.6602 60.7654H39.8856C39.9337 60.4745 39.9337 59.3109 39.9818 58.9715C40.5108 53.784 42.6267 50.8266 44.7425 47.045C51.5711 35.2154 50.1765 28.1855 50.1765 28.1855Z" fill="white" stroke="#140F3D" stroke-width="3" stroke-linejoin="round"/>
<path d="M27.1904 58.8745V35.3607C27.1904 35.3607 27.1904 27.1672 21.9969 27.1672C15.8416 27.1672 18.4383 36.6212 24.5936 36.6212C30.7489 36.6212 32.0473 36.6212 32.0473 36.6212" fill="white"/>
<path d="M27.1904 58.8745V35.3607C27.1904 35.3607 27.1904 27.1672 21.9969 27.1672C15.8416 27.1672 18.4383 36.6212 24.5936 36.6212C30.7489 36.6212 32.0473 36.6212 32.0473 36.6212" stroke="#140F3D" stroke-width="3" stroke-linecap="round" stroke-linejoin="round"/>
<path d="M33.5861 58.8745V35.3607C33.5861 35.3607 33.5861 27.1672 38.7796 27.1672C44.9349 27.1672 42.3381 36.6212 36.1829 36.6212C30.0276 36.6212 28.7292 36.6212 28.7292 36.6212" fill="white"/>
<path d="M33.5861 58.8745V35.3607C33.5861 35.3607 33.5861 27.1672 38.7796 27.1672C44.9349 27.1672 42.3381 36.6212 36.1829 36.6212C30.0276 36.6212 28.7292 36.6212 28.7292 36.6212" stroke="#140F3D" stroke-width="3" stroke-linecap="round" stroke-linejoin="round"/>
</svg>
