<svg width="72" height="66" viewBox="0 0 72 66" fill="none" xmlns="http://www.w3.org/2000/svg">
<path d="M13.3179 49.0544C13.1884 49.0544 13.1021 49.0544 13.0158 49.0109C12.6705 48.8804 12.4547 48.5758 12.4547 48.1841V40.7863H11.8935C5.16009 40.7863 2.13867 35.7383 2.13867 30.7774V10.9338C2.13867 5.97284 6.15285 1.92578 11.1166 1.92578H42.8846C47.8484 1.92578 51.8625 5.97284 51.8625 10.9338V30.7774C51.8625 35.7383 47.8915 40.7863 44.0069 40.7863H23.8065H21.5621L13.9222 48.7933C13.7495 48.9674 13.5337 49.0544 13.3179 49.0544Z" fill="white"/>
<path d="M13.3179 49.0544C13.1884 49.0544 13.1021 49.0544 13.0158 49.0109C12.6705 48.8804 12.4547 48.5758 12.4547 48.1841V40.7863H11.8935C5.16009 40.7863 2.13867 35.7383 2.13867 30.7774V10.9338C2.13867 5.97284 6.15285 1.92578 11.1166 1.92578H42.8846C47.8484 1.92578 51.8625 5.97284 51.8625 10.9338V30.7774C51.8625 35.7383 47.8915 40.7863 44.0069 40.7863H23.8065H21.5621L13.9222 48.7933C13.7495 48.9674 13.5337 49.0544 13.3179 49.0544Z" stroke="#140F3D" stroke-width="3" stroke-linejoin="round"/>
<path d="M39.4315 16.8086C39.4315 16.8086 34.9425 11.4127 29.8925 16.8086Z" fill="white"/>
<path d="M39.4315 16.8086C39.4315 16.8086 34.9425 11.4127 29.8925 16.8086" stroke="#140F3D" stroke-width="3" stroke-linejoin="round"/>
<path d="M23.677 16.8086C23.677 16.8086 19.188 11.4127 14.1379 16.8086Z" fill="white"/>
<path d="M23.677 16.8086C23.677 16.8086 19.188 11.4127 14.1379 16.8086" stroke="#140F3D" stroke-width="3" stroke-linejoin="round"/>
<path d="M12.7136 24.7725C12.7136 24.7725 25.9647 40.6554 40.856 24.7725Z" fill="white"/>
<path d="M12.7136 24.7725C12.7136 24.7725 25.9647 40.6554 40.856 24.7725" stroke="#140F3D" stroke-width="3" stroke-linejoin="round"/>
<path d="M60.2362 64.0247C60.0204 64.0247 59.7614 63.9376 59.6319 63.7636L53.1574 57.0185H51.3014H34.0793C30.7126 57.0185 27.3027 52.6668 27.3027 48.3586V31.4741C27.3027 27.1659 30.7989 23.6846 35.0721 23.6846H62.0922C66.3654 23.6846 69.8616 27.1659 69.8616 31.4741V48.3586C69.8616 52.6668 67.2718 57.0185 61.4448 57.0185H61.0995V63.1978C61.0995 63.546 60.8836 63.8506 60.5383 64.0247C60.452 64.0247 60.3225 64.0247 60.2362 64.0247Z" fill="white"/>
<path d="M60.2362 64.0247C60.0204 64.0247 59.7614 63.9376 59.6319 63.7636L53.1574 57.0185H51.3014H34.0793C30.7126 57.0185 27.3027 52.6668 27.3027 48.3586V31.4741C27.3027 27.1659 30.7989 23.6846 35.0721 23.6846H62.0922C66.3654 23.6846 69.8616 27.1659 69.8616 31.4741V48.3586C69.8616 52.6668 67.2718 57.0185 61.4448 57.0185H61.0995V63.1978C61.0995 63.546 60.8836 63.8506 60.5383 64.0247C60.452 64.0247 60.3225 64.0247 60.2362 64.0247Z" stroke="#140F3D" stroke-width="3" stroke-linejoin="round"/>
<path d="M46.8236 48.1313C46.4164 48.1313 46.0091 48.2853 45.7037 48.5932C45.3983 48.9011 45.2456 49.3116 45.2456 49.7222C45.2456 50.1327 45.3983 50.5432 45.7037 50.8511C46.0091 51.159 46.4164 51.313 46.8236 51.313C47.2308 51.313 47.638 51.159 47.9434 50.8511C48.2488 50.5432 48.4015 50.1327 48.4015 49.7222C48.4015 49.3116 48.2488 48.9011 47.9434 48.5932C47.6889 48.2853 47.2817 48.1313 46.8236 48.1313Z" fill="#150F3D"/>
<path d="M44.4873 31.4532C44.4873 31.4532 48.0497 29.9847 50.2901 31.2541C52.5306 32.5235 53.0654 35.0374 51.047 37.4268C48.4231 40.5729 46.758 39.6171 46.758 42.0066C46.758 44.396 46.758 42.0066 46.758 44.396" stroke="#140F3D" stroke-width="3" stroke-miterlimit="10" stroke-linecap="round" stroke-linejoin="round"/>
</svg>
