<svg width="125" height="124" viewBox="0 0 125 124" fill="none" xmlns="http://www.w3.org/2000/svg">
<path d="M62.0326 0.573242C28.1232 0.573242 0.605896 28.0842 0.605896 61.9858C0.605896 96.002 28.0086 123.398 62.0326 123.398C95.9707 123.398 123.459 95.8874 123.459 61.9858C123.488 27.9696 96.0853 0.573242 62.0326 0.573242ZM33.3974 33.5291C34.2 32.7267 35.5472 33.0706 35.8911 34.1596C35.8911 34.1596 35.8911 34.1596 35.8911 34.1882C36.9517 37.6271 39.2448 42.9001 44.175 48.3449C44.7196 48.9467 45.2929 49.4912 45.8662 50.0071C44.5476 50.0644 43.4011 50.093 42.3692 50.1503C37.869 50.351 36.3498 50.4369 33.0821 49.09C32.4801 48.8321 31.7635 48.4882 31.0183 48.1157C29.8717 47.5425 28.7252 46.9694 27.6359 46.6255H27.6073C26.2314 46.1956 25.5435 44.6482 26.2027 43.3586C28.0946 39.7191 30.531 36.4235 33.3974 33.5291ZM21.6739 63.304C21.6165 61.1261 21.7025 59.0055 21.9605 56.9135C22.1611 55.3946 24.053 54.8501 25.0275 55.9964C27.3206 58.7475 31.0756 61.7566 36.5504 64.2211C40.4487 65.9692 45.7515 66.9722 50.1658 66.2844C49.9938 66.9722 49.8791 67.66 49.8218 68.2618C49.6211 69.7806 49.3632 71.5 48.3599 73.4201C48.0733 73.9359 46.8694 74.595 45.9808 75.0535C44.175 76.0279 41.6812 77.3748 41.7099 80.1832C41.7099 81.7307 42.4838 83.1922 43.8597 84.2239C46.6401 86.3445 51.9429 86.889 56.7585 85.5708C60.1408 84.6251 62.5199 82.6477 63.9531 80.2978C64.2397 80.9569 64.6124 81.5874 65.0423 82.1605C65.9596 83.4215 66.8768 84.3958 67.6794 85.2842C69.1986 86.9177 70.2018 88.0066 70.5744 89.9267C70.7751 90.987 70.8611 92.1333 70.9757 93.2796C71.0904 94.7411 71.2051 96.1453 71.5777 97.3202C71.6637 97.6068 71.7783 97.8934 71.893 98.1226C72.5523 99.5555 71.7783 101.218 70.2305 101.533C67.5934 102.077 64.8703 102.364 62.0899 102.364C40.3627 102.393 22.3618 85.0263 21.6739 63.304ZM83.7312 96.0593C82.4126 96.8904 80.7501 95.6868 81.1228 94.1679C81.9827 90.8437 82.2406 86.6597 81.6674 83.0776C81.3521 81.1002 80.8934 79.2948 80.2915 77.6613C81.2374 78.2631 82.2693 78.8363 83.3585 79.4668C84.7344 80.2405 86.1389 81.0716 87.6581 82.0173C89.0627 82.877 90.2379 83.794 91.2124 84.6824C92.6743 86.0006 92.7603 88.2645 91.4131 89.6974C89.1486 92.1333 86.5402 94.2539 83.7312 96.0593ZM100.557 74.1652C100.041 75.77 97.8625 76.0279 97.0025 74.5664C96.0853 73.0475 95.1394 71.6433 94.2508 70.497C91.929 67.5167 88.9767 64.6509 85.967 62.8455C86.6262 62.6736 87.2855 62.4443 87.9734 62.1864C89.5499 61.6133 91.4418 61.8139 92.9896 61.9858C94.9101 62.1864 97.0885 62.4157 98.3784 60.5816C98.923 59.7792 99.1237 58.8048 98.923 57.8018C98.6937 56.7129 97.9485 54.9934 94.0215 52.4716C87.6295 48.4023 82.4986 46.3389 78.7437 46.3103C78.715 46.3103 78.715 46.3103 78.6863 46.3103C77.3391 46.3103 76.1066 46.5682 75.046 47.0267C74.9887 46.6542 74.9314 46.2816 74.874 45.9091C74.5301 43.9604 74.1574 41.7251 74.4441 39.0313C74.5301 38.2003 75.2467 37.2832 75.9919 36.3375C77.1958 34.79 78.887 32.6981 78.0271 29.9183C77.5971 28.5141 76.5079 27.4538 75.0174 26.9379C72.3229 26.0496 68.5106 27.0526 65.0423 29.5744C61.6027 32.0676 59.4529 35.9363 58.9656 39.9197C58.077 38.9167 57.0164 37.9137 55.7839 36.9107C53.8061 35.3059 51.5416 33.1279 49.3632 31.0073C48.3599 30.0329 47.3567 29.0586 46.4108 28.1702C45.2069 27.0526 45.5795 25.0466 47.1274 24.4448C51.7423 22.6107 56.7871 21.579 62.0899 21.579C84.2471 21.579 102.162 39.2319 102.477 61.384C102.477 65.8832 101.818 70.1531 100.557 74.1652Z" fill="url(#paint0_linear_17_217)"/>
<path d="M62.0326 124C45.4075 124 29.843 117.552 18.1482 105.889C6.48197 94.1964 0.0325928 78.6069 0.0325928 61.9857C0.0325928 45.4218 6.48197 29.8609 18.2055 18.14C29.929 6.41923 45.4649 0 62.0326 0C78.6576 0 94.2221 6.44788 105.917 18.1114C117.612 29.8036 124.033 45.3645 124.033 61.9857C124.033 78.5496 117.583 94.1105 105.86 105.831C94.1362 117.552 78.6003 124 62.0326 124ZM62.0326 1.14629C28.4958 1.14629 1.17915 28.4567 1.17915 61.9857C1.17915 95.5433 28.4958 122.825 62.0326 122.825C95.598 122.825 122.886 95.5147 122.886 61.9857C122.915 28.4567 95.598 1.14629 62.0326 1.14629ZM62.0326 102.937C51.3983 102.937 41.2799 98.8389 33.598 91.388C25.8874 83.9371 21.4445 73.9644 21.1006 63.3039C21.0432 61.1259 21.1292 58.948 21.4159 56.8274C21.5305 55.9103 22.1611 55.1652 23.0784 54.9073C23.9669 54.6494 24.9129 54.936 25.5148 55.6524C27.3493 57.8304 30.7889 61.0113 36.837 63.7051C40.936 65.5392 46.1528 66.3416 50.1371 65.7111L50.997 65.5678L50.7677 66.3989C50.5957 67.058 50.5097 67.7171 50.4237 68.3189C50.1944 69.8951 49.9651 71.6718 48.8759 73.6778C48.5319 74.3083 47.5287 74.8814 46.2675 75.5692C44.4903 76.5149 42.2832 77.7185 42.2832 80.183C42.2832 81.5586 42.9711 82.8482 44.2037 83.7652C46.8694 85.7712 51.9716 86.287 56.6151 85.0261C59.5962 84.2237 61.9753 82.4756 63.4944 79.9824L64.0677 79.0367L64.4977 80.0397C64.7843 80.6702 65.1283 81.272 65.5009 81.8165C66.3895 83.0488 67.3067 84.0231 68.1093 84.8828C69.6285 86.5449 70.7464 87.7199 71.1477 89.8119C71.377 90.9008 71.463 92.0758 71.549 93.2221C71.6637 94.6549 71.7783 96.0305 72.1223 97.1481C72.2083 97.406 72.2943 97.664 72.4089 97.8932C72.8102 98.7529 72.8102 99.6986 72.3803 100.53C71.979 101.332 71.2337 101.905 70.3451 102.106C67.6507 102.65 64.8703 102.937 62.0899 102.966C62.0899 102.937 62.0613 102.937 62.0326 102.937ZM23.7376 55.939C23.623 55.939 23.5083 55.9676 23.3937 55.9963C22.935 56.1396 22.6197 56.5121 22.5624 56.9706C22.3044 59.0626 22.1898 61.1833 22.2758 63.2752C22.9637 84.5103 40.7926 101.791 62.0613 101.791C62.0899 101.791 62.0899 101.791 62.1186 101.791C64.813 101.791 67.5074 101.504 70.1445 100.96C70.6891 100.845 71.1477 100.501 71.4057 100.014C71.6637 99.498 71.6637 98.8962 71.4057 98.3804C71.2624 98.0938 71.1477 97.8073 71.0617 97.492C70.6604 96.2598 70.5458 94.8269 70.4311 93.3367C70.3451 92.2191 70.2591 91.0728 70.0585 90.0698C69.7145 88.3217 68.7973 87.3473 67.3067 85.7139C66.4755 84.8255 65.5582 83.8225 64.6123 82.5329C64.3544 82.189 64.1251 81.8452 63.9244 81.444C62.2619 83.7365 59.8541 85.3413 56.9591 86.1437C51.9716 87.5193 46.4681 86.9175 43.5444 84.7109C42.0252 83.5646 41.1653 81.9598 41.1653 80.2117C41.1366 77.0307 43.917 75.5406 45.7515 74.5662C46.3821 74.2223 47.7006 73.5345 47.9013 73.162C48.8759 71.3279 49.1052 69.6658 49.3058 68.1756C49.3631 67.8031 49.4205 67.3732 49.5065 66.9434C45.4075 67.3732 40.4773 66.5708 36.3784 64.7368C30.1297 61.9284 26.5467 58.6328 24.6549 56.3688C24.3969 56.1109 24.0816 55.939 23.7376 55.939ZM82.7853 96.9189C82.298 96.9189 81.8393 96.7756 81.438 96.489C80.6641 95.9159 80.3202 94.9988 80.5495 94.0532C81.438 90.6429 81.6387 86.5736 81.0941 83.192C80.7788 81.272 80.3488 79.4953 79.7469 77.8904L79.1736 76.343L80.5781 77.2027C81.524 77.7758 82.5559 78.3776 83.6165 79.0081C84.9924 79.8105 86.3969 80.6129 87.9448 81.5586C89.2346 82.361 90.4098 83.2494 91.5851 84.281C92.4163 85.0261 92.8749 86.0291 92.9323 87.1467C92.9896 88.2644 92.5883 89.3247 91.8144 90.1271C89.4926 92.5916 86.8555 94.7696 84.0178 96.575L83.7025 96.0878L84.0178 96.575C83.6452 96.8042 83.2152 96.9189 82.7853 96.9189ZM81.3234 78.9508C81.696 80.2117 82.0113 81.5872 82.2406 82.9914C82.8139 86.5449 82.5846 90.7862 81.6674 94.3397C81.524 94.9129 81.8107 95.3427 82.0973 95.5433C82.4126 95.7726 82.8999 95.8872 83.3872 95.572C86.1676 93.7952 88.7187 91.7033 90.9831 89.296C91.5277 88.7229 91.8144 87.9492 91.7857 87.1467C91.757 86.3443 91.4131 85.6279 90.8111 85.0834C89.6932 84.0804 88.5754 83.2207 87.3428 82.4756C85.8236 81.5299 84.4191 80.7275 83.0719 79.9538C82.4699 79.6099 81.8967 79.2947 81.3234 78.9508ZM98.6937 76.085C97.8051 76.085 97.0025 75.6265 96.5153 74.8528C95.598 73.3339 94.6808 71.9584 93.7922 70.8408C91.2698 67.6311 88.3747 64.9374 85.6516 63.3326L84.5051 62.6448L85.795 62.2722C86.4256 62.1003 87.0848 61.871 87.7441 61.6418C89.4353 61.0113 91.4131 61.2406 93.0183 61.3839C94.8814 61.5845 96.8019 61.7851 97.8625 60.2376C98.3211 59.5498 98.4931 58.7474 98.3211 57.9163C98.1204 56.942 97.4325 55.3372 93.6489 52.9586C87.3715 48.9466 82.3266 46.9119 78.6863 46.9119H78.6576C77.3678 46.9119 76.2212 47.1412 75.218 47.5997L74.53 47.9149L74.4154 47.1699C74.3581 46.7973 74.3007 46.4248 74.2434 46.0522C73.8994 44.0462 73.5268 41.7823 73.7848 39.0025C73.8994 37.9995 74.6447 37.0252 75.4473 36.0222C76.6512 34.5033 78.1417 32.612 77.3964 30.1474C77.0238 28.9438 76.0492 27.9981 74.7594 27.5396C72.2369 26.7086 68.6253 27.6829 65.3003 30.0901C62.0613 32.44 59.9401 36.0795 59.4528 40.0342L59.3095 41.2951L58.4783 40.3494C57.5897 39.3464 56.5578 38.3721 55.3826 37.4264C53.3761 35.7929 51.1116 33.615 48.9332 31.4943C47.9586 30.5486 46.9554 29.5743 45.9808 28.6573C45.2642 27.9981 44.9489 27.0238 45.1209 26.0781C45.2929 25.1324 45.9521 24.33 46.8407 23.9861C51.6563 22.0661 56.7584 21.0917 62.0039 21.0917C72.8675 21.0917 83.1006 25.2757 90.8111 32.8412C98.4931 40.4354 102.821 50.5801 102.965 61.4698C103.022 65.8831 102.391 70.2103 101.073 74.3656C100.758 75.3113 99.9549 75.9991 98.9517 76.1137C98.8944 76.085 98.7797 76.085 98.6937 76.085ZM87.3141 63.0173C89.8366 64.7368 92.4163 67.2299 94.7094 70.1243C95.598 71.2706 96.5726 72.7035 97.5185 74.251C97.8051 74.7382 98.3211 74.9961 98.8657 74.9101C99.4103 74.8528 99.8689 74.4802 100.012 73.9644L100.557 74.1364L100.012 73.9644C101.302 69.9237 101.904 65.7111 101.847 61.4125C101.531 39.4037 84.0465 22.1521 62.0326 22.1521C56.9304 22.1521 51.9716 23.0978 47.2993 24.9605C46.7547 25.1611 46.3821 25.6483 46.2675 26.2214C46.1528 26.7945 46.3534 27.3677 46.7834 27.7689C47.758 28.6859 48.7612 29.6603 49.7358 30.606C51.9142 32.6979 54.15 34.8759 56.0992 36.4807C56.9877 37.1971 57.7903 37.9422 58.5356 38.6873C59.3095 34.8759 61.488 31.437 64.641 29.1158C68.2527 26.4793 72.2656 25.4477 75.132 26.3933C76.7945 26.9378 78.027 28.1701 78.5143 29.7462C79.4602 32.8126 77.5971 35.1338 76.3932 36.6813C75.6766 37.5697 75.0173 38.4007 74.96 39.0885C74.702 41.725 75.0747 43.9029 75.39 45.823C75.4186 45.9663 75.4473 46.1095 75.476 46.2528C76.4505 45.9089 77.5111 45.737 78.6576 45.737H78.715C82.5846 45.7657 87.8301 47.8576 94.3081 51.9843C98.4357 54.6207 99.2383 56.4835 99.4676 57.6871C99.6969 58.8334 99.4676 59.951 98.837 60.8967C97.3752 63.0173 94.9101 62.7594 92.9323 62.5302C91.4704 62.3869 89.6359 62.1863 88.1741 62.7021C87.8874 62.8167 87.6008 62.9314 87.3141 63.0173ZM38.9008 50.838C36.7224 50.838 35.2032 50.5801 32.8814 49.6344C32.2508 49.3765 31.5342 49.0326 30.7889 48.66C29.6711 48.1156 28.5245 47.5424 27.4926 47.2272H27.4639C26.6327 46.9693 25.9448 46.3675 25.6294 45.5651C25.3141 44.7913 25.3428 43.9029 25.7441 43.1578C27.6646 39.4897 30.101 36.1368 33.0247 33.2138C33.5407 32.6979 34.2573 32.4973 34.9739 32.6693C35.6905 32.8412 36.2638 33.3857 36.4644 34.0735C37.525 37.4837 39.7894 42.6707 44.6336 48.0296C45.1496 48.6027 45.6942 49.1472 46.2675 49.6344L47.3853 50.5801L45.9235 50.6374C44.6049 50.6947 43.4584 50.7234 42.4552 50.7807C41.022 50.7807 39.8754 50.838 38.9008 50.838ZM33.7987 33.9302C30.9609 36.7959 28.5818 40.0342 26.7187 43.6164C26.4894 44.0749 26.4607 44.5907 26.6613 45.0492C26.862 45.5364 27.2633 45.9089 27.7792 46.0809H27.8079C28.9258 46.4248 30.101 47.0266 31.2762 47.5997C32.0215 47.9723 32.7094 48.3161 33.3114 48.5454C36.4644 49.835 37.8116 49.7777 42.3692 49.5484C43.0284 49.5198 43.7164 49.4911 44.4903 49.4624C44.261 49.2332 44.003 48.9753 43.7737 48.7174C38.7862 43.1865 36.4357 37.8562 35.3752 34.3601C35.2605 34.0162 35.0312 33.7869 34.6872 33.7009C34.3433 33.615 34.028 33.7009 33.7987 33.9302Z" fill="#C8C8C8"/>
<path d="M46.2101 46.5107C37.8116 37.2544 36.751 27.511 38.0409 26.25C39.904 24.4446 47.9299 34.0735 54.0353 39.0599C60.1407 44.0176 60.714 48.3162 58.7935 49.9496C56.8731 51.5831 51.169 52.0129 46.2101 46.5107ZM55.3539 59.5498C55.9272 55.7957 53.2901 52.5001 46.6687 52.7007C38.7288 52.93 36.837 53.5891 32.0501 51.6117C29.4131 50.5228 25.8014 48.1156 24.9988 49.4338C24.2822 50.5514 27.1199 56.9993 37.6969 61.7564C44.5476 64.7941 54.5513 64.6222 55.3539 59.5498ZM70.9757 67.7171C73.0968 66.1697 72.6095 61.8711 69.8865 58.0883C67.1634 54.3055 63.2078 52.5001 61.0867 54.0476C58.9655 55.5951 59.4528 59.8937 62.1759 63.6765C64.9276 67.4306 68.8546 69.236 70.9757 67.7171ZM54.8666 64.8228C51.5416 65.4819 53.5767 69.4366 50.7677 74.7095C49.3631 77.3173 44.4043 77.9191 44.4329 80.1831C44.4616 83.1348 50.739 84.4243 56.0418 82.9628C61.3733 81.5013 63.4944 76.7155 63.0358 72.5889C62.6058 68.4622 58.1916 64.1636 54.8666 64.8228ZM71.377 51.4685C74.0427 49.8923 70.9757 45.6797 71.6923 38.7733C72.0363 35.3344 76.1925 33.4144 75.3899 30.7492C74.788 28.7432 70.7464 28.8005 66.6188 31.8096C62.4912 34.8186 60.4274 40.4641 62.1759 45.2498C63.9244 50.0642 68.7113 53.0446 71.377 51.4685ZM69.9438 71.242C65.4722 71.3566 64.6983 77.0881 67.2494 80.5556C69.8005 84.0231 72.4949 85.4273 73.2688 89.3821C74.0427 93.3368 73.3548 97.8933 75.7626 97.9219C77.9124 97.9506 80.0048 89.9552 79.0016 83.4787C77.9697 77.0021 74.7307 71.156 69.9438 71.242ZM92.101 72.159C88.2027 67.1727 81.4667 61.3552 77.3677 64.5362C73.8134 67.2873 76.6798 71.4426 78.2277 72.8468C80.6068 74.9961 84.4764 76.8302 89.0913 79.6959C95.684 83.7939 97.4038 88.6943 99.009 87.376C100.156 86.4017 96.0279 77.1454 92.101 72.159ZM74.3007 57.4005C74.9313 58.6614 77.9697 62.96 87.0275 59.6358C90.9544 58.1743 95.34 60.1803 96.1426 59.034C96.9452 57.8877 94.3368 55.9103 92.5596 54.7927C90.7824 53.6751 83.5878 49.0899 78.715 49.0612C73.8421 49.0326 72.2942 53.3312 74.3007 57.4005Z" fill="url(#paint1_linear_17_217)"/>
<path d="M75.7626 98.5235C73.5555 98.4949 73.3262 95.887 73.1255 93.1073C73.0395 91.9324 72.9249 90.7001 72.6956 89.5251C72.2083 87.0033 70.9184 85.6278 69.2846 83.851C68.482 82.9626 67.6221 82.0743 66.7908 80.928C65.1283 78.6641 64.7557 75.5118 65.8736 73.2478C66.6762 71.643 68.1093 70.726 69.9438 70.6973C70.0012 70.6973 70.0585 70.6973 70.0872 70.6973C75.5906 70.6973 78.629 77.5464 79.5462 83.4212C80.4348 89.038 79.059 95.6291 77.2531 97.7211C76.7945 98.2656 76.2786 98.5235 75.7626 98.5235ZM69.9438 71.815C68.1667 71.8436 67.3068 72.8753 66.8768 73.735C65.9596 75.5977 66.3035 78.3202 67.7081 80.2115C68.5106 81.3005 69.3419 82.1889 70.1158 83.0486C71.807 84.8827 73.2688 86.4588 73.8135 89.2672C74.0714 90.4995 74.1574 91.8177 74.2434 92.9927C74.4441 95.6864 74.6447 97.3486 75.7339 97.3486C75.9059 97.3486 76.1066 97.2053 76.3359 96.9474C77.9697 95.056 79.2023 88.8087 78.371 83.5644C77.4538 77.6897 74.5014 71.7863 70.0298 71.7863C70.0298 71.815 70.0012 71.815 69.9438 71.815ZM98.4644 88.1783C97.5758 88.1783 96.6586 87.2039 95.512 85.943C94.0502 84.3668 92.0437 82.1889 88.8047 80.1829C87.2568 79.2372 85.8523 78.4061 84.4478 77.6037C81.782 76.0562 79.4889 74.738 77.8551 73.2765C76.8518 72.3881 75.0173 70.0382 75.1033 67.6024C75.1607 66.2268 75.7913 65.0232 77.0238 64.0775C81.6674 60.4667 88.9767 67.2298 92.5597 71.815C94.3655 74.1362 96.4579 77.661 97.9771 81.0426C100.586 86.8027 99.6683 87.5478 99.3817 87.8057C99.0664 88.0636 98.7511 88.1783 98.4644 88.1783ZM80.0622 64.2208C79.2023 64.2208 78.4284 64.4501 77.7404 64.9946C76.7945 65.7396 76.3072 66.628 76.2499 67.6597C76.1926 69.5224 77.6258 71.5284 78.629 72.4454C80.1769 73.821 82.4126 75.1392 85.021 76.6294C86.3396 77.4031 87.8301 78.2628 89.4066 79.2085C92.7603 81.3005 94.9388 83.6218 96.3433 85.1692C97.6618 86.6021 98.2638 87.1752 98.6077 86.946C99.009 85.8284 95.6267 77.6037 91.6711 72.5314C88.2027 68.1182 83.5305 64.2208 80.0622 64.2208ZM51.4843 84.1376C48.9045 84.1376 46.5254 83.5644 45.1496 82.5328C44.2896 81.8737 43.8597 81.0713 43.831 80.1829C43.831 78.6354 45.3502 77.833 46.9841 76.9446C48.3026 76.2282 49.6498 75.5118 50.2517 74.4228C51.4556 72.1589 51.7423 70.1529 51.9429 68.548C52.2295 66.4847 52.4875 64.708 54.7233 64.2495C56.1565 63.9629 57.7903 64.4501 59.3955 65.625C61.6886 67.3158 63.3511 70.0096 63.6091 72.5314C64.0677 76.7154 61.9179 81.931 56.1852 83.5071C54.666 83.937 53.0321 84.1376 51.4843 84.1376ZM55.5832 65.3384C55.3826 65.3384 55.1819 65.3671 54.9813 65.3958C53.5767 65.6823 53.4048 66.5707 53.1181 68.72C52.8888 70.4394 52.5735 72.5601 51.2836 74.9673C50.5384 76.3715 48.9619 77.2312 47.5573 77.9763C46.2388 78.6927 45.0062 79.3518 45.0062 80.1829C45.0062 80.6987 45.2929 81.1859 45.8662 81.6157C47.7866 83.0773 52.2009 83.4212 55.8985 82.4182C61.0007 81.0139 62.8925 76.3715 62.4912 72.6747C62.2619 70.4967 60.7427 68.0322 58.7363 66.5707C57.647 65.7683 56.5578 65.3384 55.5832 65.3384ZM69.1699 68.8346C68.3673 68.8346 67.5074 68.634 66.5615 68.2042C64.813 67.4018 63.0932 65.9116 61.7173 63.9916C58.7649 59.8936 58.335 55.3371 60.7427 53.5603C63.1505 51.8122 67.3641 53.6463 70.3451 57.7443C73.3262 61.8423 73.7275 66.3988 71.3197 68.1755C70.7178 68.6054 69.9725 68.8346 69.1699 68.8346ZM62.8925 54.0761C62.3192 54.0761 61.832 54.2194 61.402 54.506C59.5675 55.8242 60.1408 59.8649 62.6345 63.3324C63.8958 65.0805 65.4723 66.4274 67.0488 67.1725C68.5106 67.8603 69.8005 67.8889 70.6318 67.2585C72.4663 65.9402 71.893 61.8996 69.3992 58.432C67.4787 55.7383 64.8417 54.0761 62.8925 54.0761ZM47.1847 64.3354C44.0603 64.3354 40.5347 63.619 37.4676 62.2435C28.7538 58.3461 25.2282 53.2451 24.4829 50.8665C24.2536 50.0928 24.2536 49.491 24.5116 49.0898C25.4001 47.6856 27.6646 48.8319 30.0724 50.0355C30.8176 50.408 31.5915 50.7806 32.2795 51.0671C35.9771 52.586 37.8976 52.5 42.4838 52.2707C43.6877 52.2134 45.0349 52.1561 46.6687 52.0988C51.1976 51.9555 53.4621 53.4457 54.58 54.6779C55.7265 55.9962 56.2138 57.7443 55.9272 59.607C55.6979 61.0399 54.8093 62.2435 53.3188 63.0459C51.7423 63.9342 49.5638 64.3354 47.1847 64.3354ZM25.8014 49.6056C25.6294 49.6056 25.5148 49.6343 25.4861 49.7202C25.1708 50.408 27.5213 56.5407 37.9549 61.2118C42.9998 63.4757 49.5065 63.8483 52.7742 62.0715C53.9494 61.4411 54.6373 60.5527 54.8093 59.4637C55.0386 57.9162 54.6946 56.5407 53.7487 55.4804C52.4015 53.9329 49.9651 53.1878 46.7261 53.2737C45.1209 53.3311 43.7737 53.3884 42.5698 53.4457C37.9263 53.6749 35.8051 53.7609 31.8782 52.1561C31.1616 51.8695 30.359 51.4683 29.6137 51.0958C28.4672 50.5227 26.5754 49.6056 25.8014 49.6056ZM80.9221 61.4697C75.9633 61.4697 74.1574 58.4607 73.7848 57.6583C72.6096 55.2511 72.5809 52.7293 73.6988 50.9239C74.6734 49.3477 76.4505 48.488 78.6577 48.488C78.6863 48.488 78.6863 48.488 78.715 48.488C81.0081 48.488 85.3363 49.5196 92.8463 54.3054C94.5088 55.3657 96.5439 56.8846 96.8019 58.2601C96.8879 58.6613 96.8019 59.0625 96.6013 59.3777C96.0566 60.1801 94.8528 60.0368 93.2189 59.8649C91.4704 59.6643 89.2633 59.4351 87.2282 60.2088C84.7057 61.0972 82.6133 61.4697 80.9221 61.4697ZM78.6577 49.6056C76.8232 49.6056 75.4473 50.2647 74.6447 51.497C73.7275 52.9585 73.7848 55.0791 74.788 57.1425C75.218 58.0308 77.8837 62.3867 86.7982 59.0912C89.0913 58.2314 91.5278 58.518 93.3049 58.69C94.1648 58.7759 95.4834 58.9192 95.6267 58.69C95.6554 58.6326 95.684 58.5753 95.6554 58.4607C95.512 57.7443 94.1648 56.512 92.2157 55.2511C84.9351 50.6086 80.8361 49.6343 78.6863 49.6056C78.6863 49.6056 78.6863 49.6056 78.6577 49.6056ZM69.7145 52.4427C69.1126 52.4427 68.482 52.3281 67.8514 52.0988C65.1856 51.1531 62.7492 48.5166 61.6026 45.4217C59.8255 40.5213 61.7746 34.5892 66.2462 31.3223C69.1126 29.2303 72.2656 28.3133 74.2721 28.9724C75.1033 29.259 75.6766 29.8035 75.9059 30.5486C76.4219 32.2393 75.304 33.6435 74.2434 34.9904C73.3262 36.1367 72.3803 37.3403 72.2369 38.8018C71.9216 41.8109 72.3516 44.2754 72.6956 46.2814C73.1255 48.8319 73.4695 50.8665 71.6637 51.9555C71.1191 52.2707 70.4598 52.4427 69.7145 52.4427ZM72.8389 29.9181C71.3484 29.9181 69.2272 30.5772 66.9341 32.2393C62.8639 35.2197 61.0867 40.5786 62.6919 45.0205C63.6951 47.7716 65.9309 50.1788 68.224 51.0098C68.9979 51.2964 70.1445 51.497 71.0904 50.9525C72.1796 50.2934 72.0363 49.0325 71.5777 46.482C71.2337 44.4187 70.7751 41.8682 71.1191 38.7159C71.291 36.9105 72.4089 35.5349 73.3835 34.3027C74.5014 32.8985 75.1607 31.9814 74.8454 30.8924C74.7307 30.5199 74.4154 30.2333 73.9568 30.09C73.6128 29.9754 73.2688 29.9181 72.8389 29.9181ZM55.0959 51.6116C52.4302 51.6116 48.9905 50.4367 45.7802 46.8832C37.4103 37.6269 35.9771 27.4822 37.6396 25.8488C39.1875 24.3299 42.3692 27.2816 47.844 32.5832C50.0511 34.7325 52.3442 36.9391 54.408 38.6012C59.5388 42.7565 60.3414 45.9948 60.3414 47.5423C60.3414 48.7172 59.9401 49.7202 59.1662 50.3794C58.335 51.0671 56.9018 51.6116 55.0959 51.6116ZM38.6429 26.6225C38.4995 26.6225 38.4422 26.6798 38.4422 26.6798C37.6396 27.4822 38.0409 36.6239 46.6114 46.1381C51.3983 51.4397 56.7298 50.9525 58.3923 49.5196C58.9082 49.0898 59.1662 48.402 59.1662 47.571C59.1662 46.482 58.5929 43.5303 53.6341 39.5183C51.5416 37.7988 49.2198 35.5922 47.0127 33.4143C44.8629 31.351 42.8564 29.3736 41.2226 28.084C39.6748 26.8231 38.9582 26.6225 38.6429 26.6225Z" fill="#50ADE6"/>
<path d="M13.3899 87.6913L12.8167 86.3158L16.715 83.3068L11.8708 84.0805L11.3261 82.7623L15.2244 79.8106L10.3229 80.4697L9.74963 79.1515L16.3997 78.521L16.9729 79.8392L13.1033 82.7909L17.9188 82.0458L18.4921 83.3927L13.3899 87.6913Z" fill="#555555"/>
<path d="M9.20499 77.2887L8.91835 75.8272L13.3612 73.6779L8.45973 73.4486L8.17309 72.0731L12.616 69.9811L7.68581 69.6085L7.39917 68.2043L14.0205 68.9208L14.3071 70.325L9.92158 72.4169L14.7944 72.6462L15.0811 74.1077L9.20499 77.2887Z" fill="#555555"/>
<path d="M7.16986 66.1985L7.19853 64.7083L11.9854 63.5333L7.22719 62.2724L7.25585 60.8682L12.0428 59.7792L7.28452 58.375L7.31318 56.9421L13.6479 59.0628L13.6193 60.4956L8.88971 61.6133L13.5906 62.8742L13.562 64.3644L7.16986 66.1985Z" fill="#555555"/>
<path d="M12.616 53.675L14.2495 53.933L13.9915 55.595L12.3581 55.3371L12.616 53.675Z" fill="#555555"/>
<path d="M11.5555 45.7944L11.2115 47.084C10.5522 46.998 10.0936 47.3419 9.86428 48.1442C9.77829 48.4881 9.74963 48.7747 9.83562 49.0039C9.92161 49.2332 10.0649 49.3765 10.2942 49.4338C10.3516 49.4624 10.4376 49.4624 10.4949 49.4624C10.5522 49.4624 10.6095 49.4624 10.6669 49.4338C10.7242 49.4051 10.7529 49.3765 10.8102 49.3765C10.8389 49.3478 10.8962 49.3192 10.9535 49.2618C11.0108 49.2045 11.0395 49.1472 11.0682 49.1186C11.0968 49.0899 11.1542 49.0039 11.2115 48.918C11.2688 48.832 11.2975 48.746 11.3548 48.6887C11.3835 48.6314 11.4408 48.5454 11.4981 48.4022C11.5555 48.2875 11.6128 48.1729 11.6414 48.1156C11.7848 47.829 11.8994 47.6284 11.9854 47.4851C12.0714 47.3419 12.1861 47.1699 12.358 46.9407C12.53 46.7114 12.702 46.5395 12.8453 46.4535C12.9887 46.3675 13.1893 46.2816 13.4186 46.2243C13.6479 46.1669 13.9059 46.1669 14.1639 46.2529C14.7945 46.4248 15.2244 46.7974 15.4538 47.3705C15.6831 47.9436 15.7117 48.6601 15.4824 49.4624C15.2531 50.3221 14.8805 50.9526 14.3932 51.3251C13.9059 51.6977 13.304 51.8123 12.5874 51.6403L12.9313 50.3508C13.7339 50.4941 14.2499 50.0929 14.4792 49.1759C14.5938 48.7747 14.5938 48.4308 14.4792 48.1442C14.3932 47.8577 14.1925 47.6857 13.9346 47.5998C13.7912 47.5711 13.6766 47.5711 13.5619 47.5998C13.4473 47.6284 13.3326 47.7144 13.2466 47.829C13.132 47.9436 13.046 48.0583 12.9887 48.1729C12.9313 48.2875 12.8453 48.4308 12.7307 48.6314C12.6734 48.7174 12.6447 48.7747 12.616 48.832C12.1574 49.6344 11.8421 50.1502 11.6701 50.3508C11.2402 50.838 10.7242 51.0099 10.0936 50.838C9.52031 50.6947 9.11902 50.3508 8.91837 49.8063C8.71772 49.2619 8.71772 48.6027 8.91837 47.829C9.11902 47.0839 9.43432 46.5108 9.89295 46.1096C10.3229 45.7084 10.8962 45.6225 11.5555 45.7944Z" fill="#555555"/>
<path d="M11.6701 39.9489C12.0714 39.0605 12.6447 38.4873 13.4473 38.2008C14.2212 37.9142 15.1098 37.9715 16.0271 38.4014C16.973 38.8026 17.6036 39.4044 17.9475 40.1781C18.2628 40.9519 18.2342 41.7829 17.8615 42.6713C17.4602 43.5884 16.8583 44.1902 16.0844 44.4767C15.2818 44.7633 14.4219 44.706 13.476 44.2761C12.5301 43.8749 11.8994 43.2731 11.5841 42.4994C11.2402 41.697 11.2688 40.8372 11.6701 39.9489ZM13.7339 39.433C13.2466 39.5763 12.874 39.8916 12.6734 40.4074C12.4441 40.9232 12.4441 41.4104 12.702 41.8689C12.96 42.3274 13.39 42.7 14.0206 42.9579C14.6798 43.2445 15.2531 43.3304 15.7404 43.1872C16.2277 43.0439 16.6003 42.7286 16.8296 42.2128C17.059 41.697 17.0303 41.2385 16.801 40.7799C16.543 40.3214 16.113 39.9489 15.4538 39.6623C14.7945 39.4044 14.2212 39.3184 13.7339 39.433Z" fill="#555555"/>
<path d="M13.8772 31.0361L14.7945 31.5806C14.6225 31.8099 14.5078 31.9818 14.4505 32.0965C14.3072 32.3544 14.2499 32.5263 14.2785 32.6696C14.3072 32.8129 14.4792 32.9562 14.7372 33.0995L15.2531 33.4147L15.8837 32.383L16.7723 32.8989L16.1704 33.9305L20.7566 36.653L20.04 37.8566L15.4538 35.1342L14.9091 36.0225L14.0206 35.5067L14.5652 34.6183L14.1352 34.3604C13.5619 34.0165 13.218 33.644 13.0746 33.2428C12.96 32.8416 13.046 32.3257 13.4186 31.7526C13.5619 31.4947 13.7052 31.2367 13.8772 31.0361Z" fill="#555555"/>
<path d="M18.8648 28.2274L19.6961 28.8292L18.9508 29.8609L21.6452 31.8382C21.8172 31.9528 21.9318 32.0388 21.9892 32.0674C22.0465 32.0961 22.1325 32.1248 22.2471 32.1534C22.3618 32.1821 22.4478 32.1534 22.5338 32.0961C22.6198 32.0388 22.7058 31.9242 22.8204 31.7809C22.9637 31.6089 23.0497 31.437 23.1357 31.3224L24.0243 31.9815C23.881 32.2394 23.709 32.4973 23.5083 32.7839C23.365 32.9845 23.2217 33.1564 23.0784 33.271C22.9351 33.3857 22.8204 33.5003 22.7058 33.5576C22.5911 33.6149 22.4764 33.6722 22.3331 33.6436C22.1898 33.6436 22.0752 33.6436 21.9892 33.6149C21.9032 33.6149 21.7598 33.5576 21.5879 33.443C21.4159 33.357 21.3012 33.271 21.2152 33.2137C21.1292 33.1564 20.9859 33.0418 20.7853 32.8985C20.6993 32.8412 20.642 32.7839 20.5846 32.7552L18.1482 30.9785L17.5176 31.8382L16.6863 31.2364L17.317 30.3767L15.7691 29.2591L16.6004 28.1128L18.1482 29.2304L18.8648 28.2274Z" fill="#555555"/>
<path d="M27.0913 24.9607C27.6073 25.5625 27.8366 26.2216 27.8079 26.9094C27.7793 27.5971 27.4926 28.2563 26.948 28.8294C26.2887 29.5172 25.5435 29.861 24.7409 29.861C23.9096 29.861 23.1357 29.5172 22.4191 28.8581C21.6452 28.1416 21.2439 27.3679 21.1866 26.5082C21.1292 25.6771 21.4159 24.9034 22.1038 24.187C22.6484 23.5852 23.2504 23.2699 23.9096 23.184C24.5402 23.098 25.1708 23.2699 25.7441 23.7284L24.7982 24.7314C24.4543 24.5022 24.1103 24.4162 23.795 24.4449C23.4797 24.4735 23.193 24.6455 22.9064 24.9034C22.5338 25.3046 22.3905 25.7631 22.4764 26.2503C22.5624 26.7374 22.8491 27.2533 23.365 27.7404C23.881 28.2276 24.3969 28.4855 24.8842 28.5428C25.3715 28.6001 25.8015 28.4282 26.1741 28.027C26.4607 27.7118 26.604 27.3965 26.604 27.024C26.604 26.6515 26.4607 26.2789 26.1741 25.9064L27.0913 24.9607Z" fill="#555555"/>
<path d="M25.6581 17.825L27.6932 20.4041C27.6359 19.5731 27.9512 18.8853 28.6391 18.3408C29.1838 17.911 29.7284 17.739 30.2443 17.7963C30.7889 17.8536 31.2762 18.1689 31.7062 18.742L34.3719 22.1236L33.2541 23.0119L30.8749 19.9743C30.5883 19.6017 30.273 19.3438 29.9864 19.2578C29.6997 19.1719 29.3557 19.2578 28.9831 19.5731C28.5531 19.917 28.3525 20.2895 28.3812 20.7194C28.4098 21.1492 28.6105 21.6077 28.9544 22.0662L31.0756 24.76L29.9864 25.6197L24.5688 18.6847L25.6581 17.825Z" fill="#555555"/>
<path d="M39.9614 16.564C40.1621 17.2518 40.1334 17.8823 39.8754 18.4554C39.6174 19.0572 39.1588 19.5158 38.5282 19.8883C37.6969 20.3468 36.8657 20.4615 36.0918 20.2035C35.2892 19.9456 34.6585 19.3725 34.1999 18.5414C33.7126 17.6817 33.5693 16.8219 33.7413 15.9622C33.9133 15.1025 34.4006 14.472 35.2032 14.0421C36.0058 13.5836 36.8084 13.4977 37.5823 13.7842C38.3562 14.0708 39.0441 14.7013 39.5601 15.647L39.6461 15.7616L35.5471 18.0542C35.8624 18.5987 36.2637 18.9713 36.6937 19.1146C37.1237 19.2578 37.5823 19.2005 38.0696 18.9426C38.4135 18.742 38.6429 18.5127 38.7575 18.2262C38.8722 17.9396 38.9008 17.5957 38.8148 17.1658L39.9614 16.564ZM37.9263 15.647C37.6396 15.1885 37.267 14.9305 36.8657 14.7872C36.4644 14.6726 36.0631 14.7013 35.6618 14.9305C35.2605 15.1598 35.0025 15.475 34.9165 15.8762C34.8019 16.2774 34.8592 16.736 35.0885 17.2518L37.9263 15.647Z" fill="#555555"/>
<path d="M46.9267 13.3543C47.0987 14.128 47.0413 14.8158 46.726 15.4176C46.4107 16.0481 45.8661 16.4779 45.1209 16.7645C44.2323 17.1084 43.401 17.0797 42.6558 16.7358C41.9105 16.3633 41.3659 15.7328 41.0219 14.8158C40.6493 13.8415 40.6206 12.9531 40.9359 12.1794C41.2512 11.4056 41.8532 10.8325 42.7704 10.4886C43.5444 10.202 44.2036 10.1734 44.8342 10.374C45.4362 10.5746 45.9235 11.0044 46.2674 11.6635L44.9776 12.1507C44.7482 11.8068 44.4903 11.5776 44.175 11.4629C43.8597 11.3483 43.5444 11.3483 43.1717 11.4916C42.6558 11.6922 42.3405 12.0361 42.1972 12.5232C42.0538 13.0104 42.1112 13.5836 42.3405 14.2427C42.5985 14.9018 42.9138 15.3603 43.3437 15.6182C43.7737 15.8761 44.2323 15.9048 44.7196 15.7328C45.1209 15.5895 45.3788 15.3316 45.5508 15.0164C45.7228 14.7012 45.7515 14.3 45.6368 13.8128L46.9267 13.3543Z" fill="#555555"/>
<path d="M53.4048 7.79492L51.513 10.5747L54.9813 13.9562L53.3188 14.3288L50.7677 11.7496L50.1085 12.6953L50.5957 14.9306L49.2485 15.2171L47.3854 6.64863L48.7326 6.36206L49.7645 11.2051L51.7136 8.19612L53.4048 7.79492Z" fill="#555555"/>
<path d="M61.6886 11.4919C61.5739 12.1796 61.2873 12.7528 60.7714 13.1827C60.2841 13.6125 59.6535 13.8418 58.9369 13.8704C57.991 13.9277 57.1884 13.6698 56.5864 13.0967C55.9845 12.5235 55.6405 11.7498 55.5832 10.7754C55.5259 9.77244 55.7552 8.94138 56.2998 8.2536C56.8444 7.56583 57.561 7.19328 58.4496 7.13597C59.3668 7.07865 60.1408 7.33657 60.714 7.93837C61.2873 8.54018 61.6313 9.39989 61.6886 10.4889V10.6322L57.0164 10.9474C57.0737 11.5778 57.2744 12.065 57.5897 12.4089C57.905 12.7241 58.3636 12.8961 58.8795 12.8388C59.2522 12.8101 59.5675 12.6955 59.7968 12.4949C60.0261 12.2943 60.1981 11.979 60.3127 11.5778L61.6886 11.4919ZM60.2554 9.8011C60.1694 9.28526 59.9974 8.8554 59.6821 8.56883C59.3668 8.28226 58.9942 8.13897 58.5356 8.16763C58.077 8.19629 57.7043 8.36823 57.4464 8.68346C57.1884 8.99869 57.0451 9.42855 57.0164 10.0017L60.2554 9.8011Z" fill="#555555"/>
<path d="M67.4491 7.30774L67.3631 8.65461C67.1052 8.62595 66.9619 8.59729 66.876 8.59729C65.6437 8.53998 64.9846 9.28506 64.8986 10.8612L64.7267 13.6409L63.3224 13.5549L63.695 7.19312L65.0132 7.27909L64.9273 8.53998C65.4431 7.62297 66.1595 7.19311 67.1339 7.25043L67.4491 7.30774Z" fill="#555555"/>
<path d="M70.3734 12.5807L70.1154 14.2141L68.4533 13.9562L68.7112 12.3228L70.3734 12.5807Z" fill="#555555"/>
<path d="M78.3997 13.7557C78.113 14.4721 77.6257 14.988 76.9951 15.3032C76.3645 15.6185 75.6766 15.6758 74.9027 15.4465C73.9854 15.1886 73.3262 14.7014 72.9535 13.985C72.5522 13.2398 72.4949 12.4088 72.7529 11.463C73.0395 10.46 73.5268 9.71489 74.2434 9.25636C74.96 8.79783 75.7913 8.71185 76.7085 8.96978C77.4824 9.17038 78.0844 9.54294 78.457 10.0874C78.8296 10.6033 78.9443 11.2338 78.8583 11.9789L77.5111 11.6063C77.5397 11.2051 77.4538 10.8612 77.2818 10.5746C77.1098 10.2881 76.8231 10.1161 76.4505 10.0301C75.9346 9.88684 75.4473 9.97281 75.046 10.2881C74.6447 10.6033 74.3294 11.0905 74.1574 11.7783C73.9854 12.4661 73.9854 13.0392 74.1574 13.4978C74.3294 13.9563 74.702 14.2429 75.218 14.3862C75.6193 14.5008 75.9919 14.4721 76.3072 14.3002C76.6225 14.1282 76.8805 13.813 77.0811 13.3831L78.3997 13.7557Z" fill="#555555"/>
<path d="M84.5624 11.8356C85.451 12.2368 86.0243 12.8386 86.3109 13.6123C86.5976 14.4147 86.5116 15.2744 86.0816 16.1915C85.6517 17.1372 85.0497 17.7676 84.3045 18.0829C83.5305 18.3981 82.6993 18.3694 81.8107 17.9682C80.8934 17.567 80.3202 16.9652 80.0335 16.1628C79.7469 15.3604 79.8329 14.5007 80.2342 13.555C80.6641 12.6093 81.2661 11.9788 82.04 11.6923C82.8139 11.4057 83.6452 11.4344 84.5624 11.8356ZM85.0497 13.8989C84.9351 13.4117 84.6198 13.0392 84.1038 12.8099C83.5879 12.5806 83.1006 12.5806 82.642 12.8099C82.1833 13.0392 81.8107 13.469 81.5241 14.1281C81.2374 14.7873 81.1514 15.3604 81.2661 15.8476C81.3807 16.3348 81.7247 16.7073 82.2406 16.9366C82.7566 17.1658 83.2152 17.1658 83.6738 16.9079C84.1325 16.6787 84.5051 16.2201 84.7917 15.561C85.0784 14.9592 85.1644 14.4147 85.0497 13.8989Z" fill="#555555"/>
<path d="M90.9544 15.3318L90.4385 16.0769C91.2697 15.7903 92.0437 15.8763 92.6743 16.3635C93.0183 16.5927 93.2476 16.8793 93.3909 17.2232C93.5342 17.5671 93.5629 17.911 93.4769 18.2835C94.3081 17.9969 95.0821 18.0829 95.77 18.5987C96.2573 18.9426 96.5726 19.3725 96.6872 19.8883C96.8019 20.4041 96.6872 20.92 96.3146 21.4358L93.7062 25.1326L92.5596 24.3302L94.8241 21.1492C95.0821 20.7767 95.2254 20.4328 95.254 20.1462C95.2827 19.8597 95.1107 19.5731 94.7381 19.3152C94.3655 19.0573 93.9928 18.9713 93.6489 19.0573C93.3049 19.1432 92.9609 19.4011 92.6743 19.831L90.5245 22.8687L89.3779 22.0663L91.671 18.828C91.929 18.4555 92.0723 18.1402 92.101 17.8823C92.1297 17.6244 91.9577 17.3665 91.6137 17.1086C91.2124 16.822 90.8398 16.7647 90.4672 16.8506C90.0945 16.9653 89.7506 17.2232 89.4639 17.6531L87.3428 20.6334L86.1962 19.831L89.8652 14.644L90.9544 15.3318Z" fill="#555555"/>
<path d="M65.157 108.984L65.1283 110.273L60.3987 110.187L60.3701 112.48L64.7557 112.537L64.727 113.769L60.3414 113.712L60.3128 116.263L65.0997 116.349L65.071 117.638L58.7649 117.523L58.9082 108.869L65.157 108.984Z" fill="#555555"/>
<path d="M67.1061 117.495L69.4279 112.566L65.9309 108.897L67.7081 108.611L70.1445 111.333L71.6924 107.98L73.3835 107.694L71.2337 112.279L74.9887 116.205L73.1542 116.492L70.4885 113.569L68.8546 117.179L67.1061 117.495Z" fill="#555555"/>
<path d="M83.3872 109.929C83.6738 110.961 83.5878 111.878 83.1865 112.709C82.7566 113.54 82.04 114.142 81.0368 114.486C79.8902 114.887 78.8296 114.83 77.8551 114.314C76.8805 113.769 76.1639 112.881 75.7053 111.591C75.4187 110.818 75.3327 110.044 75.39 109.299C75.4473 108.554 75.734 107.866 76.1639 107.264C76.6225 106.662 77.2531 106.204 78.0557 105.917C78.9156 105.602 79.7469 105.573 80.5781 105.831C81.3807 106.089 82.0113 106.634 82.4699 107.493L81.0368 108.009C80.7501 107.551 80.4062 107.264 79.9475 107.092C79.4889 106.949 79.0016 106.949 78.457 107.15C77.9124 107.35 77.5111 107.665 77.2531 108.095C76.9952 108.525 76.8518 109.012 76.8518 109.499C76.8518 110.015 76.9378 110.531 77.1385 111.047C77.2818 111.448 77.4538 111.792 77.6831 112.107C77.9124 112.423 78.1417 112.709 78.457 112.938C78.7437 113.168 79.0876 113.311 79.4603 113.368C79.8329 113.426 80.2342 113.397 80.6641 113.225C81.868 112.795 82.3266 111.849 82.0113 110.388L83.3872 109.929Z" fill="#555555"/>
<path d="M88.2887 101.045L88.9194 102.163L84.8204 104.513L85.967 106.519L89.7793 104.312L90.3812 105.373L86.5689 107.579L87.8588 109.786L92.015 107.379L92.6743 108.496L87.1995 111.649L82.8713 104.14L88.2887 101.045Z" fill="#555555"/>
<path d="M98.8657 102.02L99.697 103.052L95.0821 106.806L89.6072 100.072L90.8111 99.0972L95.4547 104.8L98.8657 102.02Z" fill="#555555"/>
<path d="M104.541 95.9446L105.516 96.833L101.531 101.246L95.0821 95.4288L96.114 94.2825L101.56 99.2115L104.541 95.9446Z" fill="#555555"/>
<path d="M103.223 84.7681L104.283 85.4559L101.703 89.4392L103.624 90.7002L106.032 87.0034L107.064 87.6625L104.656 91.3593L106.806 92.7635L109.443 88.7228L110.532 89.4392L107.092 94.7409L99.8116 90.0124L103.223 84.7681Z" fill="#555555"/>
<path d="M106.691 76.916L114.688 80.2689L114.086 81.7305L106.634 82.9914L112.51 85.4559L111.965 86.7742L103.968 83.4213L104.598 81.9597L112.051 80.7561L106.146 78.2629L106.691 76.916Z" fill="#555555"/>
<path d="M108.583 69.0066L109.873 69.2932L109.271 71.9869L116.437 73.6204L116.093 75.1105L108.927 73.4771L108.325 76.1708L107.035 75.8843L108.583 69.0066Z" fill="#555555"/>
<path d="M36.2638 109.07C37.736 109.07 38.9295 107.877 38.9295 106.405C38.9295 104.933 37.736 103.74 36.2638 103.74C34.7915 103.74 33.598 104.933 33.598 106.405C33.598 107.877 34.7915 109.07 36.2638 109.07Z" fill="url(#paint2_linear_17_217)"/>
<path d="M36.2637 109.499C34.5726 109.499 33.168 108.124 33.168 106.405C33.168 104.685 34.5439 103.31 36.2637 103.31C37.9836 103.31 39.3594 104.685 39.3594 106.405C39.3594 108.124 37.9549 109.499 36.2637 109.499ZM36.2637 104.198C35.0312 104.198 34.0279 105.201 34.0279 106.433C34.0279 107.665 35.0312 108.668 36.2637 108.668C37.4963 108.668 38.4995 107.665 38.4995 106.433C38.4995 105.201 37.4963 104.198 36.2637 104.198Z" fill="#50ADE6"/>
<path d="M111.363 49.6629C112.835 49.6629 114.029 48.4696 114.029 46.9977C114.029 45.5258 112.835 44.3325 111.363 44.3325C109.891 44.3325 108.697 45.5258 108.697 46.9977C108.697 48.4696 109.891 49.6629 111.363 49.6629Z" fill="url(#paint3_linear_17_217)"/>
<path d="M111.363 50.0927C109.672 50.0927 108.267 48.7172 108.267 46.9978C108.267 45.2784 109.643 43.9028 111.363 43.9028C113.083 43.9028 114.459 45.2784 114.459 46.9978C114.459 48.7172 113.054 50.0927 111.363 50.0927ZM111.363 44.7912C110.131 44.7912 109.127 45.7942 109.127 47.0264C109.127 48.2587 110.131 49.2617 111.363 49.2617C112.596 49.2617 113.599 48.2587 113.599 47.0264C113.599 45.7942 112.596 44.7912 111.363 44.7912Z" fill="#50ADE6"/>
<defs>
<linearGradient id="paint0_linear_17_217" x1="0.605953" y1="61.9954" x2="123.478" y2="61.9954" gradientUnits="userSpaceOnUse">
<stop stop-color="#FEFEFE"/>
<stop offset="1" stop-color="#F0F0F0"/>
</linearGradient>
<linearGradient id="paint1_linear_17_217" x1="24.8855" y1="61.9953" x2="99.1988" y2="61.9953" gradientUnits="userSpaceOnUse">
<stop stop-color="#B0F6FF"/>
<stop offset="1" stop-color="#8CDEFD"/>
</linearGradient>
<linearGradient id="paint2_linear_17_217" x1="33.6172" y1="106.414" x2="38.92" y2="106.414" gradientUnits="userSpaceOnUse">
<stop stop-color="#B0F6FF"/>
<stop offset="1" stop-color="#8CDEFD"/>
</linearGradient>
<linearGradient id="paint3_linear_17_217" x1="108.716" y1="46.9978" x2="114.019" y2="46.9978" gradientUnits="userSpaceOnUse">
<stop stop-color="#B0F6FF"/>
<stop offset="1" stop-color="#8CDEFD"/>
</linearGradient>
</defs>
</svg>
