<svg width="20" height="15" viewBox="0 0 20 15" fill="none" xmlns="http://www.w3.org/2000/svg">
<g clip-path="url(#clip0)">
<path fill-rule="evenodd" clip-rule="evenodd" d="M12.9804 8.85306C16.5955 6.54898 19.0311 3.38958 19.0702 1.08691C19.9882 3.44365 17.1373 7.44992 12.6735 10.0681C12.6949 10.0013 12.714 9.93315 12.7312 9.86356L12.9785 8.85259L12.9804 8.85306Z" fill="#32393E"/>
<path fill-rule="evenodd" clip-rule="evenodd" d="M3.34159 15.015H11.7982C12.6804 15.0133 13.526 14.6674 14.15 14.0531C14.774 13.4388 15.1256 12.6061 15.1278 11.7371V3.40998C15.1273 3.22406 15.1113 3.03849 15.0801 2.85512C16.6941 1.57283 18.1921 0.857629 19.2733 1.11531C14.4495 -0.852089 8.48477 9.57926 7.33908 11.6355L3.13155 5.46108L7.06125 7.73036C9.43044 4.73694 11.993 2.45496 14.2051 1.14728C13.8944 0.826524 13.521 0.571171 13.1073 0.396675C12.6936 0.222178 12.2482 0.132165 11.7982 0.13208H3.34159C2.45918 0.133446 1.61327 0.479144 0.989041 1.09349C0.364814 1.70784 0.0131319 2.54079 0.0109863 3.40998V11.7371C0.0132576 12.6063 0.36498 13.4391 0.98918 14.0534C1.61338 14.6678 2.45922 15.0135 3.34159 15.015Z" fill="#32393E"/>
</g>
<defs>
<clipPath id="clip0">
<rect width="19.2857" height="15" fill="white"/>
</clipPath>
</defs>
</svg>
