<svg xmlns="http://www.w3.org/2000/svg" xmlns:xlink="http://www.w3.org/1999/xlink" width="85" height="85" viewBox="0 0 85 85"><defs><style>.a{fill:none;}.b{clip-path:url(#a);}.c{fill:#ffb782;}.d{fill:#43575e;}.e{fill:#fb8a29;}.f{fill:#418ad1;}.g{fill:#fff;}</style><clipPath id="a"><rect class="a" width="70.552" height="76.572"/></clipPath></defs><g transform="translate(0 3)"><rect class="a" width="85" height="85" transform="translate(0 -3)"/><g transform="translate(6.991 2.313)"><g class="b"><path class="c" d="M107.224,194.569c-1.254-.139-3.484,1.115-3.484,1.115l-6.132,2.927c-1.076.625-2.125,1.223-2.2,1.246a4.821,4.821,0,0,0-2.118,1.416,5.23,5.23,0,0,1-1.719,4.352,7.289,7.289,0,0,1-2.688,1.407,23.671,23.671,0,0,1-8.645,1.064c-2.011-.041-3.909-.587-9.7-1.071-1.341-.112-2.19-.085-2.058-.332.377-.7,12.125.509,13.517.433,4.509-.246,8.052-1.418,8.967-2.524a3.044,3.044,0,0,0,.65-3.33c-.584-.971-1.96-1.479-6.3-1.671-2.178-.1-4.151-.3-6.1-.3a8.325,8.325,0,0,1-2.591-.526c-6.39-2.764-14.612-5.737-20.83-.951a12.6,12.6,0,0,0-1.356,1.235A11.978,11.978,0,0,0,53.27,200.5c-.507.53-1.146,1.147-1.93,1.873a24.366,24.366,0,0,1-2.038,1.62l9.246,13.213q.868-.661,1.757-1.3l1.417-1.01a7.228,7.228,0,0,1,4.192-1.34H76.7l2.634-.289A23.429,23.429,0,0,0,84.787,212l1.951-.709,5.519-1.985.06-.022a29.769,29.769,0,0,0,8.745-4.986l1.841-1.508c.65-.65,2.535-2.165,3.723-3.1a6.274,6.274,0,0,0,1.92-2.53,2.335,2.335,0,0,0,.21-.776,1.657,1.657,0,0,0-1.533-1.812" transform="translate(-38.205 -150.767)"/><path class="d" d="M0,238.122l12.774,18.787,7.935-6.774L8.52,232.717ZM14.537,248.81a1.759,1.759,0,1,1-1.759,1.759,1.759,1.759,0,0,1,1.759-1.759" transform="translate(0 -180.337)"/></g><g transform="translate(19.506 1.689)"><path class="e" d="M16.5,32A16.649,16.649,0,0,1,4.835,27.314a15.664,15.664,0,0,1,0-22.63A16.65,16.65,0,0,1,16.5,0,16.651,16.651,0,0,1,28.166,4.684a15.663,15.663,0,0,1,0,22.63A16.651,16.651,0,0,1,16.5,32ZM11.68,19.99h0L9.513,22.035a10.289,10.289,0,0,0,6.272,2.379v3.836h3.108V24.26c3.358-.556,5.362-2.467,5.362-5.114A4.333,4.333,0,0,0,22.7,15.611a11.005,11.005,0,0,0-4.216-1.887c-3.171-.87-3.9-1.343-3.9-2.531,0-1.152,1.064-1.841,2.845-1.841a6.662,6.662,0,0,1,4.279,1.456L23.7,8.789a9.159,9.159,0,0,0-4.807-2.047V2.959H15.785V6.718c-3.312.4-5.451,2.252-5.451,4.729A3.892,3.892,0,0,0,11.7,14.572a11.3,11.3,0,0,0,4.527,2.068c2.946.787,3.752,1.375,3.752,2.736a2,2,0,0,1-.938,1.729,4.432,4.432,0,0,1-2.432.6A7.629,7.629,0,0,1,11.68,19.99Z" transform="translate(-0.497 -0.002)"/></g><g transform="translate(42.595 20.772)"><circle class="f" cx="12" cy="12" r="12" transform="translate(0.414 -0.084)"/><ellipse class="g" cx="2.234" cy="2.234" rx="2.234" ry="2.234" transform="translate(13.902 14.895)"/><ellipse class="g" cx="2.234" cy="2.234" rx="2.234" ry="2.234" transform="translate(6.455 4.469)"/><rect class="g" width="2.979" height="16.851" transform="translate(17.317 4.905) rotate(45)"/></g></g></g></svg>