<svg xmlns="http://www.w3.org/2000/svg" xmlns:xlink="http://www.w3.org/1999/xlink" width="62.755" height="70" viewBox="0 0 62.755 70"><defs><style>.a{fill:none;}.b{fill:#fbc9a4;}.c{fill:#fb8a29;}.d{fill:#ffb782;}.e{fill:#418ad1;}.f{fill:#eee;}.g{fill:#464848;}.h{mix-blend-mode:multiply;isolation:isolate;}.i{clip-path:url(#a);}.j{fill:#f7cdb9;}.k{fill:#3c2417;}.l{fill:#fff;}.m{fill:#3c2415;}.n{clip-path:url(#c);}.o{fill:#f05d44;}</style><clipPath id="a"><rect class="a" width="3.882" height="3.882"/></clipPath><clipPath id="c"><rect class="a" width="8.176" height="3.634"/></clipPath></defs><g transform="translate(-26.495 -0.001)"><path class="b" d="M198.21,308.57v-8.42H176.558v8.42l10.826,9.623Z" transform="translate(-129.511 -259.066)"/><path class="c" d="M85.529,364.894l-14.934-3.5a2.4,2.4,0,0,1-.627-.252l-12.1,7.033L46.249,360.8a2.407,2.407,0,0,1-1.1.592l-14.934,3.5a4.815,4.815,0,0,0-3.722,4.684V379a2.41,2.41,0,0,0,2.414,2.406H86.836A2.41,2.41,0,0,0,89.25,379v-9.421A4.814,4.814,0,0,0,85.529,364.894Z" transform="translate(0 -311.404)"/><path class="d" d="M141.249,97.127l1.048,23.061a7.217,7.217,0,0,0,2.879,5.446l4.974,3.73a7.218,7.218,0,0,0,4.33,1.444h4.812a7.217,7.217,0,0,0,4.33-1.444l4.974-3.73a7.217,7.217,0,0,0,2.879-5.446l1.048-23.061Z" transform="translate(-99.014 -83.807)"/><path class="d" d="M153.278,101.938c4.812,0,12.029-1.2,13.741-4.812h-25.77l1.048,23.061a7.217,7.217,0,0,0,2.88,5.446l4.974,3.73a7.218,7.218,0,0,0,4.33,1.444h2.406c-2.406,0-7.217-4.812-7.217-10.826V105.546A3.841,3.841,0,0,1,153.278,101.938Z" transform="translate(-99.029 -83.806)"/><g transform="translate(26.495 55.192)"><path class="c" d="M35.329,410.334l-7.795-7a4.8,4.8,0,0,0-1.036,2.982v9.421a2.406,2.406,0,0,0,2.406,2.406h8.42v-3.332A6.015,6.015,0,0,0,35.329,410.334Z" transform="translate(-26.498 -403.332)"/><path class="c" d="M408.058,410.334l7.795-7a4.8,4.8,0,0,1,1.036,2.982v9.421a2.406,2.406,0,0,1-2.406,2.406h-8.42v-3.332A6.014,6.014,0,0,1,408.058,410.334Z" transform="translate(-354.134 -403.332)"/></g><path class="e" d="M239.948,443.382h-6.014l.752-10.826H239.2Z" transform="translate(-179.068 -373.381)"/><path class="e" d="M239.948,414.9h-6.014v2.264a1.345,1.345,0,0,0,1.345,1.345H238.6a1.345,1.345,0,0,0,1.345-1.345V414.9Z" transform="translate(-179.068 -358.133)"/><g transform="translate(43.438 46.565)"><path class="f" d="M153.518,340.329l10.995,9.9a41.491,41.491,0,0,0-6.879,4.687,1.543,1.543,0,0,1-2.39-.54l-5.166-11.364,1.634-2.451A1.2,1.2,0,0,1,153.518,340.329Z" transform="translate(-150.078 -340.021)"/><path class="f" d="M267,340.329,256,350.225a41.491,41.491,0,0,1,6.879,4.687,1.543,1.543,0,0,0,2.39-.54l5.166-11.364-1.634-2.451A1.2,1.2,0,0,0,267,340.329Z" transform="translate(-241.568 -340.021)"/></g><path class="g" d="M309.516,33.91l1.128,7.969c5.148,1.03,5.889,9.108,6,11.415a2.372,2.372,0,0,0,.38,1.175l1.964,3.047s-.672-5.037,2.406-8.42C321.39,49.1,322.447,29.1,309.516,33.91Z" transform="translate(-244.297 -28.643)"/><path class="d" d="M356.728,188.493l-1.358,5.432a1.446,1.446,0,0,1-1.4,1.1h0a1.446,1.446,0,0,1-1.435-1.267l-.695-5.556a2.491,2.491,0,0,1,2.472-2.8h0A2.492,2.492,0,0,1,356.728,188.493Z" transform="translate(-280.833 -160.036)"/><path class="g" d="M118.823,3.112,120.6,4.327c-8.044,5.939-6.541,16.126-6.541,16.126,2.406,2.406,2.406,8.42,2.406,8.42l2.406-2.406s-.928-6.95,3.609-9.623c4.21-2.481,7.894-1.2,11.653-1.2,10.074,0,12.893-3.8,12.4-8.42C146.286,4.83,142.629-.154,133.308,0,129.546.069,122.482,1.207,118.823,3.112Z" transform="translate(-75.456)"/><path class="g" d="M118.121,42.013A13.214,13.214,0,0,1,120.6,31.751c-8.044,5.939-6.541,16.126-6.541,16.126,2.406,2.406,2.406,8.42,2.406,8.42l2.406-2.406s-.928-6.95,3.609-9.623c4.21-2.481,7.894-1.2,11.653-1.2a29.554,29.554,0,0,0,4.338-.3C130.714,43.028,126.141,37.151,118.121,42.013Z" transform="translate(-75.473 -27.423)"/><path class="d" d="M123.674,188.493l1.358,5.432a1.446,1.446,0,0,0,1.4,1.1h0a1.446,1.446,0,0,0,1.435-1.267l.695-5.556a2.491,2.491,0,0,0-2.472-2.8h0A2.492,2.492,0,0,0,123.674,188.493Z" transform="translate(-83.824 -160.036)"/><g transform="translate(12.905 -9.419)"><g class="h" transform="translate(37.061 33.019)"><g class="i"><path class="j" d="M60.431,50.957a1.941,1.941,0,1,1-2.007-1.871,1.941,1.941,0,0,1,2.007,1.871" transform="translate(-56.55 -49.084)"/></g></g><path class="k" d="M60.431,49.857a1.941,1.941,0,1,1-2.007-1.872,1.941,1.941,0,0,1,2.007,1.872" transform="translate(-19.489 -15.456)"/><path class="l" d="M62.254,50.354a.485.485,0,1,1-.5-.468.485.485,0,0,1,.5.468" transform="translate(-22.04 -16.508)"/><g class="h" transform="translate(48.997 33.019)"><g class="i"><path class="j" d="M85.73,50.957a1.941,1.941,0,1,1-2.007-1.871,1.941,1.941,0,0,1,2.007,1.871" transform="translate(-81.85 -49.084)"/></g></g><path class="k" d="M85.73,49.857a1.941,1.941,0,1,1-2.007-1.872,1.941,1.941,0,0,1,2.007,1.872" transform="translate(-32.853 -15.456)"/><path class="l" d="M87.554,50.354a.485.485,0,1,1-.5-.468.485.485,0,0,1,.5.468" transform="translate(-35.473 -16.508)"/><path class="m" d="M71.557,42.092H68.75a8.577,8.577,0,0,0-3.84-.722c-2.864,0-4.809.523-5.811,1.543a3.947,3.947,0,0,0-3.928,0c-1-1.02-2.947-1.543-5.811-1.543a8.575,8.575,0,0,0-3.84.722H42.713v1.916l.922.309a4.247,4.247,0,0,0-.133,1.075c0,2.381.607,5.546,5.858,5.546,4.691,0,5.921-2.753,6.506-5.446a3.107,3.107,0,0,0,.039-1.163,3.021,3.021,0,0,1,2.46,0,3.116,3.116,0,0,0,.039,1.163c.585,2.693,1.815,5.446,6.506,5.446,5.251,0,5.859-3.165,5.859-5.546a4.247,4.247,0,0,0-.133-1.075l.921-.309Zm-16.7,3.2c-.608,2.8-1.775,4.663-5.5,4.663-4.243,0-4.829-2.193-4.829-4.563,0-.752,0-2.547,4.829-2.547,3.332,0,4.471.472,4.985,1.075.364.426.652.726.512,1.371M64.91,49.954c-3.722,0-4.889-1.864-5.5-4.663-.14-.645.148-.945.512-1.371.515-.6,1.653-1.075,4.985-1.075,4.829,0,4.829,1.795,4.829,2.547,0,2.37-.585,4.563-4.829,4.563" transform="translate(-12.18 -11.797)"/></g><g transform="translate(53.783 37.45)"><g class="n" transform="translate(0 0)"><path class="o" d="M8.176,0A3.881,3.881,0,0,1,4.088,3.634,3.881,3.881,0,0,1,0,0Z" transform="translate(0 0)"/><path class="l" d="M7.9,1.363H2A.454.454,0,0,1,1.542.908V0H8.355V.908a.454.454,0,0,1-.454.454" transform="translate(-0.905 0)"/></g></g></g></svg>