<svg xmlns="http://www.w3.org/2000/svg" width="73.724" height="73.291" viewBox="0 0 73.724 73.291"><defs><style>.a{fill:#fb8a29;}.b{fill:#fff;}.c{fill:#ffb69e;}.d{fill:#343e6b;}.e{fill:#414b82;}.f{fill:#252d5c;}.g{fill:#ff3c3c;}.h{fill:#80391b;}.i{fill:#55c7a6;}.j{fill:#418ad1;}.k{fill:#ba6746;}</style></defs><g transform="translate(0 -1.504)"><path class="a" d="M244.153,50.766V29.286a2.319,2.319,0,0,1,2.319-2.319h30.6a2.319,2.319,0,0,1,2.319,2.319v21.48a2.319,2.319,0,0,1-2.319,2.319h-30.6A2.319,2.319,0,0,1,244.153,50.766Z" transform="translate(-208.997 -21.797)"/><path class="b" d="M249.74,96.47a1.152,1.152,0,0,1-.714-2.056l9.44-7.444a1.152,1.152,0,0,1,1.426,1.809l-9.44,7.444A1.149,1.149,0,0,1,249.74,96.47Z" transform="translate(-212.793 -72.948)"/><circle class="c" cx="5.016" cy="5.016" r="5.016" transform="translate(13.456 1.504)"/><path class="d" d="M135.084,253.443a2.919,2.919,0,0,1-2.919-2.919V227.188a2.919,2.919,0,1,1,5.839,0v23.336A2.919,2.919,0,0,1,135.084,253.443Z" transform="translate(-113.134 -190.689)"/><path class="e" d="M86.14,253.443a2.919,2.919,0,0,1-2.919-2.919V227.188a2.919,2.919,0,1,1,5.839,0v23.336A2.919,2.919,0,0,1,86.14,253.443Z" transform="translate(-71.238 -190.689)"/><path class="f" d="M74.927,90.239a2.42,2.42,0,0,0-3.333-.78l-4.9,3.044V87.977a5.76,5.76,0,0,0-5.751-5.7H47.854a5.816,5.816,0,0,0-5.847,5.728v17.886a2.433,2.433,0,0,0,4.866,0V88.027a.979.979,0,0,1,.981-.883h.088v18.5H60.828V87.119h.113a.929.929,0,0,1,.932.883v8.852a2.422,2.422,0,0,0,3.7,2.044l8.578-5.326A2.421,2.421,0,0,0,74.927,90.239Z" transform="translate(-35.958 -69.143)"/><path class="f" d="M148.506,90.239a2.42,2.42,0,0,0-3.333-.78l-4.9,3.044V87.977a5.76,5.76,0,0,0-5.751-5.7h-6.558v23.365h6.444V87.119h.113a.929.929,0,0,1,.932.883v8.852a2.422,2.422,0,0,0,3.7,2.044l8.578-5.326A2.421,2.421,0,0,0,148.506,90.239Z" transform="translate(-109.537 -69.143)"/><path class="c" d="M250.819,130.765a2.42,2.42,0,0,0-3.333-.78l2.553,4.113A2.421,2.421,0,0,0,250.819,130.765Z" transform="translate(-211.85 -109.669)"/><g transform="translate(6.048 20.302)"><rect class="b" width="4.841" height="1.032" transform="translate(31.259 4.667) rotate(-121.506)"/><path class="b" d="M42,237.56v1.255a2.433,2.433,0,0,0,4.866,0V237.56Z" transform="translate(-42.001 -222.367)"/></g><path class="c" d="M42,245.84v.063a2.433,2.433,0,1,0,4.866,0v-.063Z" transform="translate(-35.953 -209.153)"/><path class="b" d="M102.183,82.278,105.9,92.02l3.713-9.742Z" transform="translate(-87.469 -69.143)"/><path class="g" d="M119.266,85.6l-.825-1.5.711-1.293a.354.354,0,0,0-.31-.524H116.46a.354.354,0,0,0-.31.524l.713,1.3-.822,1.5a1,1,0,0,0-.1.68l.507,2.575,1.208,3.171,1.209-3.171.51-2.574A1,1,0,0,0,119.266,85.6Z" transform="translate(-99.226 -69.145)"/><rect class="f" width="3.214" height="0.991" transform="translate(20.223 20.62)"/><g transform="translate(49.813 43.637)"><circle class="h" cx="4.895" cy="4.895" r="4.895" transform="translate(7.082)"/><path class="h" d="M364.237,372.929H351.558a5.625,5.625,0,0,0-5.616,5.561v5.477h4.723v-5.453a.891.891,0,0,1,.893-.861h.046v6.314h12.509v-6.314h.123a.892.892,0,0,1,.893.861v5.453h4.723V378.49A5.625,5.625,0,0,0,364.237,372.929Z" transform="translate(-345.942 -361.579)"/></g><path class="i" d="M364.238,372.929h-3.871a3.8,3.8,0,0,1-4.861,0h-3.946a5.625,5.625,0,0,0-5.616,5.561v3.437h4.723v-3.414a.891.891,0,0,1,.893-.861h.046v6.314h12.509v-6.314h.123a.891.891,0,0,1,.893.861v3.414h4.723V378.49A5.625,5.625,0,0,0,364.238,372.929Z" transform="translate(-296.13 -317.943)"/><g transform="translate(24.909 43.637)"><circle class="c" cx="4.895" cy="4.895" r="4.895" transform="translate(7.082)"/><path class="c" d="M191.28,372.929H178.6a5.625,5.625,0,0,0-5.616,5.561v5.477h4.723v-5.453a.891.891,0,0,1,.893-.861h.047v6.314h12.509v-6.314h.123a.891.891,0,0,1,.893.861v5.453H196.9V378.49A5.625,5.625,0,0,0,191.28,372.929Z" transform="translate(-172.985 -361.579)"/></g><path class="f" d="M191.281,372.929h-4.064a3.8,3.8,0,0,1-4.861,0H178.6a5.625,5.625,0,0,0-5.616,5.561v3.437h4.723v-3.414a.891.891,0,0,1,.893-.861h.047v6.314h12.509v-6.314h.123a.891.891,0,0,1,.893.861v3.414H196.9V378.49A5.625,5.625,0,0,0,191.281,372.929Z" transform="translate(-148.077 -317.943)"/><g transform="translate(0 43.559)"><circle class="c" cx="4.895" cy="4.895" r="4.895" transform="translate(7.08)"/><path class="c" d="M18.295,372.387H5.616A5.625,5.625,0,0,0,0,377.948v5.477H4.723v-5.453a.891.891,0,0,1,.893-.861h.047v6.314H18.172V377.11h.123a.891.891,0,0,1,.893.861v5.453h4.723v-5.477A5.625,5.625,0,0,0,18.295,372.387Z" transform="translate(0 -361.037)"/></g><path class="j" d="M18.295,372.387H14.23a3.8,3.8,0,0,1-4.861,0H5.616A5.625,5.625,0,0,0,0,377.948v3.438H4.723v-3.414a.891.891,0,0,1,.893-.861h.047v6.314H18.172V377.11h.123a.891.891,0,0,1,.893.861v3.414h4.723v-3.437A5.625,5.625,0,0,0,18.295,372.387Z" transform="translate(0 -317.479)"/><g transform="translate(38.748 52.408)"><circle class="c" cx="4.895" cy="4.895" r="4.895" transform="translate(7.081)"/><path class="c" d="M287.394,433.843H274.715A5.625,5.625,0,0,0,269.1,439.4v5.477h4.723v-5.453a.891.891,0,0,1,.893-.861h.047v6.314h12.509v-6.314h.123a.891.891,0,0,1,.893.861v5.453h4.723V439.4A5.625,5.625,0,0,0,287.394,433.843Z" transform="translate(-269.099 -422.494)"/></g><path class="j" d="M287.395,433.843h-3.871a3.8,3.8,0,0,1-4.861,0h-3.946A5.625,5.625,0,0,0,269.1,439.4v3.438h4.723v-3.414a.891.891,0,0,1,.893-.861h.047v6.314h12.509v-6.314h.123a.891.891,0,0,1,.893.861v3.414h4.723V439.4A5.625,5.625,0,0,0,287.395,433.843Z" transform="translate(-230.352 -370.085)"/><g transform="translate(13.844 52.408)"><circle class="k" cx="4.895" cy="4.895" r="4.895" transform="translate(7.081)"/><path class="k" d="M114.437,433.843H101.758a5.625,5.625,0,0,0-5.616,5.561v5.477h4.723v-5.453a.891.891,0,0,1,.893-.861h.047v6.314h12.509v-6.314h.123a.891.891,0,0,1,.893.861v5.453h4.723V439.4A5.625,5.625,0,0,0,114.437,433.843Z" transform="translate(-96.142 -422.494)"/></g><path class="i" d="M114.437,433.843h-4.064a3.8,3.8,0,0,1-4.861,0h-3.753a5.625,5.625,0,0,0-5.616,5.561v3.438h4.723v-3.414a.891.891,0,0,1,.893-.861h.047v6.314h12.509v-6.314h.123a.891.891,0,0,1,.893.861v3.414h4.723V439.4A5.625,5.625,0,0,0,114.437,433.843Z" transform="translate(-82.298 -370.085)"/></g></svg>