<svg xmlns="http://www.w3.org/2000/svg" width="77.464" height="78.79" viewBox="0 0 77.464 78.79"><defs><style>.a{fill:#418ad1;}.b{fill:#3086cd;}.c{fill:#e0e0de;}.d{fill:#fb8a29;}.e{fill:#fff;}.f{fill:#d6d6d4;}.g{fill:#ffb531;}.h{fill:#69a340;}.i{fill:#43575e;}</style></defs><path class="a" d="M77.455,69.342A5.342,5.342,0,0,0,72.113,64H5.342A5.342,5.342,0,0,0,0,69.342v37.392H77.464Zm0,0" transform="translate(0 -53.317)"/><path class="b" d="M0,304H77.455v2.671H0Zm0,0" transform="translate(0 -253.254)"/><path class="c" d="M156.91,389.354,152.057,376H138.7l-4.859,13.354h-5.828v2.671h34.721v-2.671Zm0,0" transform="translate(-106.646 -313.235)"/><path class="c" d="M0,320v4.006a5.342,5.342,0,0,0,5.342,5.342h66.78a5.342,5.342,0,0,0,5.342-5.342V320Zm0,0" transform="translate(0 -266.583)"/><path class="d" d="M114.8,0H69.4a5.342,5.342,0,0,0-5.342,5.342V53.417h56.088V5.342A5.342,5.342,0,0,0,114.8,0Zm0,0" transform="translate(-53.362)"/><path class="e" d="M104,144h42.734v10.683H104Zm0,0" transform="translate(-86.639 -119.962)"/><path class="f" d="M104,144h42.734v2.671H104Zm0,0" transform="translate(-86.639 -119.962)"/><g transform="translate(21.367 28.044)"><path class="g" d="M128,168h2.671v2.671H128Zm0,0" transform="translate(-128 -168)"/><path class="g" d="M160,168h2.671v2.671H160Zm0,0" transform="translate(-154.658 -168)"/><path class="g" d="M192,168h2.671v2.671H192Zm0,0" transform="translate(-181.317 -168)"/><path class="g" d="M224,168h2.671v2.671H224Zm0,0" transform="translate(-207.975 -168)"/></g><path class="e" d="M96,24h2.671v2.671H96Zm0,0" transform="translate(-79.975 -19.994)"/><path class="e" d="M128,24h2.671v2.671H128Zm0,0" transform="translate(-106.633 -19.994)"/><path class="e" d="M160,24h2.671v2.671H160Zm0,0" transform="translate(-133.291 -19.994)"/><path class="e" d="M96,56h45.4v2.671H96Zm0,0" transform="translate(-79.975 -46.652)"/><path class="h" d="M272.013,188.006l2.671-2.671L264,184l1.335,10.683,2.671-2.671,5.342,5.342,4.006-4.006Zm0,0" transform="translate(-219.931 -153.285)"/><path class="i" d="M201.511,378.671l-.97-2.671H187.187l-.972,2.671Zm0,0" transform="translate(-155.131 -313.235)"/><path class="b" d="M400,64h2.671v42.734H400Zm0,0" transform="translate(-333.229 -53.317)"/></svg>