<svg xmlns="http://www.w3.org/2000/svg" width="24" height="24.002" viewBox="0 0 24 24.002"><defs><style>.a{fill:none;}.b{fill:#fff;}</style></defs><g transform="translate(-1738 -612)"><rect class="a" width="24" height="24.002" transform="translate(1738 612)"/><path class="b" d="M36.512,0l-3.6,0C28.872,0,26.26,2.318,26.26,5.906V8.63H22.643a.532.532,0,0,0-.566.49v3.946a.532.532,0,0,0,.566.489H26.26v9.956a.532.532,0,0,0,.566.489h4.72a.532.532,0,0,0,.566-.489V13.554h4.23a.532.532,0,0,0,.566-.489l0-3.946a.459.459,0,0,0-.166-.346.613.613,0,0,0-.4-.144H32.111V6.321c0-1.11.306-1.673,1.977-1.673h2.424a.532.532,0,0,0,.565-.489V.494A.532.532,0,0,0,36.512,0Z" transform="translate(1720.923 612)"/></g></svg>