<svg xmlns="http://www.w3.org/2000/svg" width="24.001" height="24" viewBox="0 0 24.001 24"><defs><style>.a{fill:none;}.b{fill:#fff;}</style></defs><g transform="translate(4.001 -12)"><rect class="a" width="24" height="24" transform="translate(-4 12)"/><g transform="translate(-4.002 -43.441)"><g transform="translate(0.001 57.441)"><path class="b" d="M24,59.807a9.639,9.639,0,0,1-2.827.8,5.051,5.051,0,0,0,2.164-2.793,9.775,9.775,0,0,1-3.128,1.226,4.853,4.853,0,0,0-3.593-1.6,4.989,4.989,0,0,0-4.924,5.05,5.19,5.19,0,0,0,.127,1.151A13.864,13.864,0,0,1,1.673,58.364,5.144,5.144,0,0,0,3.2,65.106a4.83,4.83,0,0,1-2.23-.634v.063a5.025,5.025,0,0,0,3.949,4.953,4.869,4.869,0,0,1-1.3.177,4.61,4.61,0,0,1-.927-.094,4.944,4.944,0,0,0,4.6,3.508,9.721,9.721,0,0,1-6.114,2.159A10.2,10.2,0,0,1,0,75.169a13.663,13.663,0,0,0,7.547,2.272c9.057,0,14.007-7.7,14.007-14.37l-.017-.654A9.975,9.975,0,0,0,24,59.807Z" transform="translate(-0.001 -57.441)"/></g></g></g></svg>