<svg width="24" height="24" viewBox="0 0 24 24" fill="none" xmlns="http://www.w3.org/2000/svg">
<path d="M4.66667 1C2.64162 1 1 2.64162 1 4.66667V19.3333C1 21.3584 2.64162 23 4.66667 23H19.3333C21.3584 23 23 21.3584 23 19.3333V4.66667C23 2.64162 21.3584 1 19.3333 1H4.66667ZM5.7593 5.71429H9.91704L12.8696 9.90988L16.4524 5.71429H17.7619L13.4609 10.7498L18.7645 18.2857H14.6078L11.1815 13.418L7.02381 18.2857H5.71429L10.5902 12.578L5.7593 5.71429ZM7.76451 6.76191L15.1541 17.2381H16.7593L9.3697 6.76191H7.76451Z" fill="white"/>
</svg>
