<svg xmlns="http://www.w3.org/2000/svg" xmlns:xlink="http://www.w3.org/1999/xlink" width="64" height="64" viewBox="0 0 64 64"><defs><style>.a{fill:none;}.b{fill:#2474cd;}.c{fill:url(#a);}</style><linearGradient id="a" x1="0.35" y1="0.348" x2="1" y2="0.75" gradientUnits="objectBoundingBox"><stop offset="0" stop-color="#3984d1"/><stop offset="1" stop-color="#2476d2"/></linearGradient></defs><rect class="a" width="64" height="64"/><g transform="translate(2 5)"><g transform="translate(0 0.002)"><path class="b" d="M36.318,42.274,31.53,47.062V28.088a2.088,2.088,0,0,0-4.177,0V47.062l-4.788-4.788a2.088,2.088,0,0,0-2.953,2.953l8.352,8.352a2.041,2.041,0,0,0,.321.262c.049.033.1.055.155.085a1.911,1.911,0,0,0,.2.108,2.1,2.1,0,0,0,.209.065,1.792,1.792,0,0,0,.181.053,2.148,2.148,0,0,0,.408.041,2.086,2.086,0,0,0,.409-.042c.063-.013.12-.035.181-.053a2.1,2.1,0,0,0,.209-.065,1.91,1.91,0,0,0,.2-.108,1.7,1.7,0,0,0,.155-.085,2.142,2.142,0,0,0,.321-.262l8.352-8.352a2.088,2.088,0,1,0-2.954-2.952Z" transform="translate(2.489 0.806)"/><path class="b" d="M52.617,20.931a19.82,19.82,0,0,0-5.152,0,1.061,1.061,0,0,1-.167.013,1.106,1.106,0,0,1-1.086-.953,1.119,1.119,0,0,1,.922-1.278,20.608,20.608,0,0,1,4.491-.139C50.886,9.881,43.811,3,35.292,3A17.31,17.31,0,0,0,21.779,9.875a10.153,10.153,0,0,1,3.52,7.707,1.1,1.1,0,1,1-2.2,0,7.887,7.887,0,0,0-3.53-6.591,7.705,7.705,0,0,0-.772-.444c-.076-.038-.153-.077-.231-.113a7.4,7.4,0,0,0-.918-.36c-.038-.011-.078-.019-.117-.03a7.607,7.607,0,0,0-.868-.2c-.086-.015-.17-.028-.256-.04A7.707,7.707,0,0,0,15.4,9.73a7.787,7.787,0,0,0-7.7,7.852c0,.092.007.183.013.274l.013.236-.01.179c-.008.146-.016.291-.016.433v.707l-.624.3A13.36,13.36,0,0,0,0,31.214,12.062,12.062,0,0,0,11.929,43.38H27.5V31.042a4.4,4.4,0,1,1,8.8,0V43.38h2.588c.065,0,.128-.006.191-.01l.218-.012.3.012c.063,0,.125.01.19.01H50.567A11.154,11.154,0,0,0,61.6,32.132,11.445,11.445,0,0,0,52.617,20.931Z" transform="translate(0 -3)"/></g><path class="c" d="M22.337,44.66l1.5-1.47a2.121,2.121,0,0,1,2.953-.006,2.016,2.016,0,0,1,0,2.893L24.5,48.326Zm2.611-4.12c-.063,0-.126,0-.194-.006l-.3-.016-.226.016c-.063.006-.127.006-.19.006H21.4V28.158a4.479,4.479,0,0,0-8.951-.275L0,6.756H.118a7.809,7.809,0,0,1,1.026.076l.264.043a8.721,8.721,0,0,1,.884.2c.037.016.079.021.116.035a7.624,7.624,0,0,1,.937.357c.079.037.158.078.231.118a7.789,7.789,0,0,1,.79.444,7.9,7.9,0,0,1,3.6,6.617,1.118,1.118,0,1,0,2.236,0A10.121,10.121,0,0,0,6.614,6.906,17.717,17.717,0,0,1,20.374,0,16.945,16.945,0,0,1,37,15.642a21.171,21.171,0,0,0-4.574.138,1.127,1.127,0,0,0,.168,2.239c.058,0,.116-.006.174-.01A20.408,20.408,0,0,1,38.014,18a11.528,11.528,0,0,1,9.144,11.248A11.273,11.273,0,0,1,35.929,40.541ZM14.873,31.995v-2.7a2.087,2.087,0,0,1,4.174,0v9.785Z" transform="translate(14.841)"/></g></svg>