<svg xmlns="http://www.w3.org/2000/svg" xmlns:xlink="http://www.w3.org/1999/xlink" width="64" height="64" viewBox="0 0 64 64"><defs><style>.a{fill:none;}.b{fill:#2474cd;}.c{fill:url(#a);}</style><linearGradient id="a" x1="0.362" y1="0.5" x2="0.847" y2="0.661" gradientUnits="objectBoundingBox"><stop offset="0" stop-color="#4c93dc"/><stop offset="1" stop-color="#2372c9"/></linearGradient></defs><rect class="a" width="64" height="64"/><g transform="translate(9.382 4.002)"><path class="b" d="M64.645,300.4H52.906A17.535,17.535,0,0,0,35.4,317.906H82.2A17.645,17.645,0,0,0,64.645,300.4Z" transform="translate(-35.4 -262.07)"/><path class="b" d="M137.64,103.25a3.779,3.779,0,0,1,2.45.868h4.236a12.14,12.14,0,1,0-20.926-8.37,12.171,12.171,0,0,0,6.227,10.616,3.976,3.976,0,0,1,3.828-3.113Z" transform="translate(-112.172 -72.933)"/><path class="b" d="M75.357,23.835a5.7,5.7,0,0,0,1.633,3.317,6.159,6.159,0,0,0,2.5,1.48,2.289,2.289,0,0,1-.051-.561v-9.9a2.485,2.485,0,0,1,.051-.612,5.458,5.458,0,0,0-2.5,1.48l-.2.2v-.408a17.5,17.5,0,0,1,.255-2.858,12.214,12.214,0,0,1,.766-2.756,12.132,12.132,0,0,1,1.225-2.6,14.854,14.854,0,0,1,1.633-2.348.387.387,0,0,0,.1-.2,1.507,1.507,0,0,0,1.225-.408,15.9,15.9,0,0,1,22.457,0,1.45,1.45,0,0,0,1.225.408c.051.051.051.153.1.2a14.853,14.853,0,0,1,1.633,2.348,20.333,20.333,0,0,1,1.225,2.6,25.237,25.237,0,0,1,.766,2.807,17.5,17.5,0,0,1,.255,2.858v.408c-.051-.1-.153-.153-.2-.2a6.159,6.159,0,0,0-2.5-1.48,2.485,2.485,0,0,1,.051.612v9.85a1.914,1.914,0,0,1-.051.561,4.491,4.491,0,0,0,.766-.255v3.215a5.143,5.143,0,0,1-.1.97,1.435,1.435,0,0,1-.255.561,1.111,1.111,0,0,1-.408.255,2.586,2.586,0,0,1-.663.1H96.844a1.7,1.7,0,0,0-1.48-.868H91.179a1.645,1.645,0,0,0-1.633,1.633A1.689,1.689,0,0,0,91.23,35.88h4.185a1.76,1.76,0,0,0,1.48-.868h9.85a2.984,2.984,0,0,0,.97-.2,2.719,2.719,0,0,0,1.021-.664,3.369,3.369,0,0,0,.612-1.123,6.091,6.091,0,0,0,.2-1.48V27.306l.153-.153a5.7,5.7,0,0,0,1.633-3.317c.051-.051.1-.051.1-.1a.942.942,0,0,0,.255-.612V18.884a21.464,21.464,0,0,0-.255-3.164c-.306-1.072-.561-2.093-.919-3.113A15.179,15.179,0,0,0,109.145,9.7a15.037,15.037,0,0,0-1.837-2.6.51.51,0,0,0-.255-.2,1.554,1.554,0,0,0-.408-1.378A18.737,18.737,0,0,0,93.323,0,18.94,18.94,0,0,0,79.951,5.512a1.554,1.554,0,0,0-.408,1.378.9.9,0,0,0-.255.2A15.037,15.037,0,0,0,77.45,9.7a25.432,25.432,0,0,0-1.378,2.909,16.45,16.45,0,0,0-.817,3.113A16.221,16.221,0,0,0,75,18.884V23.12a.845.845,0,0,0,.255.612C75.306,23.784,75.357,23.784,75.357,23.835Z" transform="translate(-69.947 0)"/></g><path class="c" d="M24.153,55.84,14.046,38.334h9.52A17.643,17.643,0,0,1,41.123,55.84ZM15.6,35.883a1.689,1.689,0,0,1-1.681-1.635,1.645,1.645,0,0,1,1.63-1.635h4.187a1.7,1.7,0,0,1,1.481.867h9.439a2.627,2.627,0,0,0,.666-.1,1.059,1.059,0,0,0,.405-.256,1.444,1.444,0,0,0,.256-.564,5.055,5.055,0,0,0,.1-.969V28.381a3.994,3.994,0,0,1-.764.252,1.85,1.85,0,0,0,.052-.559v-9.85a2.473,2.473,0,0,0-.052-.615,6.16,6.16,0,0,1,2.5,1.48c.051.051.153.1.205.205v-.41a17.5,17.5,0,0,0-.256-2.859,26.4,26.4,0,0,0-.764-2.8,21,21,0,0,0-1.226-2.6A14.86,14.86,0,0,0,30.15,8.271c-.051-.051-.051-.152-.1-.205a1.441,1.441,0,0,1-1.225-.41,15.9,15.9,0,0,0-22.456,0,1.5,1.5,0,0,1-1.225.41.386.386,0,0,1-.1.205,14.545,14.545,0,0,0-1.635,2.348,12.013,12.013,0,0,0-1.225,2.6,12.313,12.313,0,0,0-.764,2.752c-.021.125-.041.252-.061.381L0,14c.131-.469.282-.934.443-1.4A25.368,25.368,0,0,1,1.826,9.7,14.765,14.765,0,0,1,3.661,7.094a1.006,1.006,0,0,1,.257-.2,1.558,1.558,0,0,1,.4-1.377A18.948,18.948,0,0,1,17.7,0,18.73,18.73,0,0,1,31.017,5.516a1.545,1.545,0,0,1,.41,1.377.537.537,0,0,1,.256.2A14.972,14.972,0,0,1,33.518,9.7,15.175,15.175,0,0,1,34.9,12.607c.358,1.02.614,2.045.917,3.115a21.276,21.276,0,0,1,.256,3.162v4.238a.917.917,0,0,1-.256.609c0,.057-.051.057-.1.1a5.762,5.762,0,0,1-1.635,3.32c-.051.047-.1.1-.153.148v4.238a6.06,6.06,0,0,1-.205,1.48,3.375,3.375,0,0,1-.615,1.123,2.681,2.681,0,0,1-1.02.666,3.065,3.065,0,0,1-.969.205H21.27a1.764,1.764,0,0,1-1.48.865Zm-4.7-2.988-5.329-9.23c-.02-.281-.029-.562-.029-.848a12.148,12.148,0,1,1,20.93,8.367H22.238a3.789,3.789,0,0,0-2.449-.865H15.6a3.972,3.972,0,0,0-3.823,3.115Q11.33,33.182,10.905,32.895ZM2.416,18.189a5.162,5.162,0,0,1,1.45-.631,2.512,2.512,0,0,0-.051.613v2.441Z" transform="translate(15.061 4)"/></svg>