<svg width="284" height="78" viewBox="0 0 284 78" fill="none" xmlns="http://www.w3.org/2000/svg">
<path d="M30.0039 44.5791H29.9062C25.5768 44.5791 22.4762 45.3034 20.6045 46.752C18.7327 48.1842 17.7969 50.3327 17.7969 53.1973C17.7969 56.0944 18.7246 58.2998 20.5801 59.8135C22.4355 61.3271 25.5768 62.084 30.0039 62.084H47.8018C52.5544 62.084 55.8096 61.3516 57.5674 59.8867C59.3252 58.4219 60.2041 56.1921 60.2041 53.1973C60.2041 50.3815 59.3089 48.2412 57.5186 46.7764C55.7282 45.3115 52.4893 44.5791 47.8018 44.5791H30.0039ZM29.9062 17.2842C26.5697 17.2842 24.1201 17.5365 22.5576 18.041C20.9951 18.5293 19.9941 19.2861 19.5547 20.3115C19.1152 21.3206 18.8955 22.8424 18.8955 24.877C18.8955 26.7975 19.1641 28.2786 19.7012 29.3203C20.2546 30.362 21.3206 31.1188 22.8994 31.5908C24.4945 32.0628 26.8626 32.2988 30.0039 32.2988H47.8018C51.0244 32.2988 53.4577 32.0628 55.1016 31.5908C56.7454 31.1188 57.8522 30.362 58.4219 29.3203C59.0078 28.2786 59.3008 26.7975 59.3008 24.877C59.3008 22.8424 58.9997 21.2962 58.3975 20.2383C57.7952 19.1641 56.6722 18.4072 55.0283 17.9678C53.3844 17.512 50.9756 17.2842 47.8018 17.2842H29.9062ZM51.708 4.97949C57.6325 4.97949 62.3363 5.54915 65.8193 6.68848C69.3187 7.81152 71.874 9.71582 73.4854 12.4014C75.0967 15.0869 75.9023 18.749 75.9023 23.3877C75.9023 27.1312 74.9827 30.1178 73.1436 32.3477C71.3206 34.5612 69.4001 36.1074 67.3818 36.9863C65.3636 37.849 64.0697 38.2803 63.5 38.2803C64.0534 38.3454 64.9648 38.5814 66.2344 38.9883C67.5039 39.3952 68.9688 40.1764 70.6289 41.332C72.2891 42.4714 73.7458 44.1722 74.999 46.4346C76.2686 48.6807 76.9033 51.529 76.9033 54.9795C76.9033 61.5713 74.7956 66.4541 70.5801 69.6279C66.3646 72.8018 60.0007 74.3887 51.4883 74.3887H26.1953C17.7155 74.3887 11.3923 72.8099 7.22559 69.6523C3.0752 66.4785 1 61.5876 1 54.9795C1 50.471 1.99284 46.9798 3.97852 44.5059C5.98047 42.0156 7.98242 40.3799 9.98438 39.5986C12.0026 38.8174 13.5081 38.3779 14.501 38.2803C13.9801 38.2803 12.7106 37.8327 10.6924 36.9375C8.67415 36.026 6.76986 34.4554 4.97949 32.2256C3.18913 29.9958 2.29395 27.0498 2.29395 23.3877C2.29395 18.6676 3.01009 14.9811 4.44238 12.3281C5.87467 9.67513 8.28353 7.78711 11.6689 6.66406C15.0706 5.54102 19.8477 4.97949 26 4.97949H51.708Z" fill="white"/>
<path d="M101.83 31.0781V48.998C101.83 52.1068 102.18 54.4749 102.88 56.1025C103.596 57.7301 104.874 58.8776 106.713 59.5449C108.568 60.2122 111.311 60.5622 114.94 60.5947H133.935C137.385 60.5622 139.989 60.2448 141.747 59.6426C143.521 59.0241 144.742 57.9092 145.409 56.2979C146.093 54.6702 146.435 52.237 146.435 48.998L146.532 31.0781C146.532 28.474 146.353 26.3988 145.995 24.8525C145.653 23.29 145.027 22.0775 144.115 21.2148C143.22 20.3359 141.983 19.7256 140.404 19.3838C138.842 19.0257 136.718 18.8304 134.032 18.7979H115.038C111.441 18.8304 108.699 19.2048 106.811 19.9209C104.939 20.637 103.637 21.8496 102.904 23.5586C102.188 25.2676 101.83 27.7741 101.83 31.0781ZM163.134 50.6826C163.134 55.6305 162.702 59.6344 161.84 62.6943C160.977 65.738 159.594 68.098 157.689 69.7744C155.785 71.4508 153.254 72.6309 150.097 73.3145C146.955 73.9818 142.935 74.3398 138.036 74.3887H110.937C105.81 74.3398 101.651 73.9574 98.4609 73.2412C95.2708 72.5251 92.6992 71.3044 90.7461 69.5791C88.793 67.8538 87.3851 65.4775 86.5225 62.4502C85.6598 59.4229 85.2285 55.5003 85.2285 50.6826V29.8818C85.2285 23.4528 85.9772 18.4886 87.4746 14.9893C88.9883 11.4899 91.5843 8.97526 95.2627 7.44531C98.9411 5.89909 104.166 5.07715 110.937 4.97949H138.036C144.384 5.07715 149.372 5.91536 153.002 7.49414C156.632 9.07292 159.228 11.6364 160.79 15.1846C162.353 18.7327 163.134 23.6318 163.134 29.8818V50.6826Z" fill="white"/>
<path d="M207.665 20.6777C207.665 17.6504 207.185 15.6729 206.225 14.7451C205.281 13.8174 203.262 13.3291 200.17 13.2803H188.769C186.636 13.3128 185.017 13.5407 183.91 13.9639C182.82 14.387 182.071 15.1195 181.664 16.1611C181.257 17.1865 181.054 18.6921 181.054 20.6777V29.5889C181.054 31.4606 181.257 32.8766 181.664 33.8369C182.071 34.7809 182.828 35.4564 183.935 35.8633C185.041 36.2702 186.653 36.4818 188.769 36.498H200.17C202.286 36.4655 203.856 36.2702 204.882 35.9121C205.924 35.554 206.648 34.903 207.055 33.959C207.462 32.9987 207.665 31.542 207.665 29.5889V20.6777ZM217.772 31.4932C217.772 35.3506 217.3 38.2966 216.356 40.3311C215.412 42.3493 213.874 43.7409 211.742 44.5059C209.61 45.2546 206.583 45.6452 202.66 45.6777H186.376C182.34 45.6452 179.231 45.2383 177.05 44.457C174.885 43.6758 173.331 42.276 172.387 40.2578C171.443 38.2233 170.971 35.3018 170.971 31.4932V18.7979C170.971 14.9567 171.418 11.9863 172.313 9.88672C173.209 7.77083 174.763 6.24902 176.977 5.32129C179.206 4.39355 182.34 3.91341 186.376 3.88086H202.66C206.469 3.91341 209.464 4.40169 211.645 5.3457C213.842 6.28971 215.412 7.8278 216.356 9.95996C217.3 12.0921 217.772 15.0381 217.772 18.7979V31.4932ZM242.772 1L222.265 77.0986H212.157L232.665 1H242.772ZM273.754 49.3887C273.754 46.3451 273.274 44.3675 272.313 43.4561C271.369 42.5283 269.351 42.04 266.259 41.9912H254.857C252.725 42.0238 251.106 42.2516 249.999 42.6748C248.909 43.098 248.16 43.8223 247.753 44.8477C247.362 45.873 247.167 47.3867 247.167 49.3887V58.2998C247.167 60.1716 247.362 61.5794 247.753 62.5234C248.16 63.4674 248.9 64.1429 249.975 64.5498C251.049 64.9404 252.676 65.152 254.857 65.1846H266.259C269.351 65.1357 271.369 64.6882 272.313 63.8418C273.274 62.9792 273.754 61.1318 273.754 58.2998V49.3887ZM283.861 60.1797C283.861 64.0697 283.381 67.0238 282.421 69.042C281.477 71.0602 279.939 72.4518 277.807 73.2168C275.674 73.9655 272.663 74.3561 268.773 74.3887H252.465C248.428 74.3561 245.32 73.9411 243.139 73.1436C240.958 72.346 239.395 70.9381 238.451 68.9199C237.523 66.9017 237.06 63.9883 237.06 60.1797V47.4844C237.06 43.6758 237.507 40.7135 238.402 38.5977C239.298 36.4655 240.844 34.9437 243.041 34.0322C245.238 33.1045 248.38 32.6243 252.465 32.5918H268.773C274.438 32.6406 278.368 33.7474 280.565 35.9121C282.763 38.0768 283.861 41.9342 283.861 47.4844V60.1797Z" fill="white"/>
</svg>
