<svg width="471" height="96" viewBox="0 0 471 96" fill="none" xmlns="http://www.w3.org/2000/svg">
<path d="M35.2051 44.1904H35.1074C30.778 44.1904 27.6774 44.9147 25.8057 46.3633C23.9339 47.7956 22.998 49.944 22.998 52.8086C22.998 55.7057 23.9258 57.9111 25.7812 59.4248C27.6367 60.9385 30.778 61.6953 35.2051 61.6953H53.0029C57.7555 61.6953 61.0107 60.9629 62.7686 59.498C64.5264 58.0332 65.4053 55.8034 65.4053 52.8086C65.4053 49.9928 64.5101 47.8525 62.7197 46.3877C60.9294 44.9229 57.6904 44.1904 53.0029 44.1904H35.2051ZM35.1074 16.8955C31.7708 16.8955 29.3213 17.1478 27.7588 17.6523C26.1963 18.1406 25.1953 18.8975 24.7559 19.9229C24.3164 20.932 24.0967 22.4538 24.0967 24.4883C24.0967 26.4089 24.3652 27.89 24.9023 28.9316C25.4557 29.9733 26.5218 30.7301 28.1006 31.2021C29.6956 31.6742 32.0638 31.9102 35.2051 31.9102H53.0029C56.2256 31.9102 58.6589 31.6742 60.3027 31.2021C61.9466 30.7301 63.0534 29.9733 63.623 28.9316C64.209 27.89 64.502 26.4089 64.502 24.4883C64.502 22.4538 64.2008 20.9076 63.5986 19.8496C62.9964 18.7754 61.8734 18.0186 60.2295 17.5791C58.5856 17.1234 56.1768 16.8955 53.0029 16.8955H35.1074ZM56.9092 4.59082C62.8337 4.59082 67.5374 5.16048 71.0205 6.2998C74.5199 7.42285 77.0752 9.32715 78.6865 12.0127C80.2979 14.6982 81.1035 18.3604 81.1035 22.999C81.1035 26.7425 80.1839 29.7292 78.3447 31.959C76.5218 34.1725 74.6012 35.7188 72.583 36.5977C70.5648 37.4603 69.2708 37.8916 68.7012 37.8916C69.2546 37.9567 70.166 38.1927 71.4355 38.5996C72.7051 39.0065 74.1699 39.7878 75.8301 40.9434C77.4902 42.0827 78.9469 43.7835 80.2002 46.0459C81.4697 48.292 82.1045 51.1403 82.1045 54.5908C82.1045 61.1826 79.9967 66.0654 75.7812 69.2393C71.5658 72.4131 65.2018 74 56.6895 74H31.3965C22.9167 74 16.5934 72.4212 12.4268 69.2637C8.27637 66.0898 6.20117 61.1989 6.20117 54.5908C6.20117 50.0824 7.19401 46.5911 9.17969 44.1172C11.1816 41.627 13.1836 39.9912 15.1855 39.21C17.2038 38.4287 18.7093 37.9893 19.7021 37.8916C19.1813 37.8916 17.9118 37.444 15.8936 36.5488C13.8753 35.6374 11.971 34.0667 10.1807 31.8369C8.3903 29.6071 7.49512 26.6611 7.49512 22.999C7.49512 18.279 8.21126 14.5924 9.64355 11.9395C11.0758 9.28646 13.4847 7.39844 16.8701 6.27539C20.2718 5.15234 25.0488 4.59082 31.2012 4.59082H56.9092ZM107.031 30.6895V48.6094C107.031 51.7181 107.381 54.0863 108.081 55.7139C108.797 57.3415 110.075 58.4889 111.914 59.1562C113.77 59.8236 116.512 60.1735 120.142 60.2061H139.136C142.586 60.1735 145.19 59.8561 146.948 59.2539C148.722 58.6354 149.943 57.5205 150.61 55.9092C151.294 54.2816 151.636 51.8483 151.636 48.6094L151.733 30.6895C151.733 28.0853 151.554 26.0101 151.196 24.4639C150.854 22.9014 150.228 21.6888 149.316 20.8262C148.421 19.9473 147.184 19.3369 145.605 18.9951C144.043 18.637 141.919 18.4417 139.233 18.4092H120.239C116.642 18.4417 113.9 18.8161 112.012 19.5322C110.14 20.2484 108.838 21.4609 108.105 23.1699C107.389 24.8789 107.031 27.3854 107.031 30.6895ZM168.335 50.2939C168.335 55.2419 167.904 59.2458 167.041 62.3057C166.178 65.3493 164.795 67.7093 162.891 69.3857C160.986 71.0622 158.455 72.2422 155.298 72.9258C152.157 73.5931 148.136 73.9512 143.237 74H116.138C111.011 73.9512 106.852 73.5687 103.662 72.8525C100.472 72.1364 97.9004 70.9157 95.9473 69.1904C93.9941 67.4652 92.5863 65.0889 91.7236 62.0615C90.861 59.0342 90.4297 55.1117 90.4297 50.2939V29.4932C90.4297 23.0641 91.1784 18.0999 92.6758 14.6006C94.1895 11.1012 96.7855 8.58659 100.464 7.05664C104.142 5.51042 109.367 4.68848 116.138 4.59082H143.237C149.585 4.68848 154.574 5.52669 158.203 7.10547C161.833 8.68424 164.429 11.2477 165.991 14.7959C167.554 18.3441 168.335 23.2432 168.335 29.4932V50.2939ZM212.866 20.2891C212.866 17.2617 212.386 15.2842 211.426 14.3564C210.482 13.4287 208.464 12.9404 205.371 12.8916H193.97C191.838 12.9242 190.218 13.152 189.111 13.5752C188.021 13.9984 187.272 14.7308 186.865 15.7725C186.458 16.7979 186.255 18.3034 186.255 20.2891V29.2002C186.255 31.0719 186.458 32.488 186.865 33.4482C187.272 34.3923 188.029 35.0677 189.136 35.4746C190.243 35.8815 191.854 36.0931 193.97 36.1094H205.371C207.487 36.0768 209.058 35.8815 210.083 35.5234C211.125 35.1654 211.849 34.5143 212.256 33.5703C212.663 32.61 212.866 31.1533 212.866 29.2002V20.2891ZM222.974 31.1045C222.974 34.9619 222.502 37.9079 221.558 39.9424C220.614 41.9606 219.076 43.3522 216.943 44.1172C214.811 44.8659 211.784 45.2565 207.861 45.2891H191.577C187.541 45.2565 184.432 44.8496 182.251 44.0684C180.086 43.2871 178.532 41.8874 177.588 39.8691C176.644 37.8346 176.172 34.9131 176.172 31.1045V18.4092C176.172 14.568 176.619 11.5977 177.515 9.49805C178.41 7.38216 179.964 5.86035 182.178 4.93262C184.408 4.00488 187.541 3.52474 191.577 3.49219H207.861C211.67 3.52474 214.665 4.01302 216.846 4.95703C219.043 5.90104 220.614 7.43913 221.558 9.57129C222.502 11.7035 222.974 14.6494 222.974 18.4092V31.1045ZM247.974 0.611328L227.466 76.71H217.358L237.866 0.611328H247.974ZM278.955 49C278.955 45.9564 278.475 43.9788 277.515 43.0674C276.571 42.1396 274.552 41.6514 271.46 41.6025H260.059C257.926 41.6351 256.307 41.863 255.2 42.2861C254.11 42.7093 253.361 43.4336 252.954 44.459C252.563 45.4844 252.368 46.998 252.368 49V57.9111C252.368 59.7829 252.563 61.1908 252.954 62.1348C253.361 63.0788 254.102 63.7542 255.176 64.1611C256.25 64.5518 257.878 64.7633 260.059 64.7959H271.46C274.552 64.7471 276.571 64.2995 277.515 63.4531C278.475 62.5905 278.955 60.7432 278.955 57.9111V49ZM289.062 59.791C289.062 63.681 288.582 66.6351 287.622 68.6533C286.678 70.6715 285.14 72.0632 283.008 72.8281C280.876 73.5768 277.865 73.9674 273.975 74H257.666C253.63 73.9674 250.521 73.5524 248.34 72.7549C246.159 71.9574 244.596 70.5495 243.652 68.5312C242.725 66.513 242.261 63.5996 242.261 59.791V47.0957C242.261 43.2871 242.708 40.3249 243.604 38.209C244.499 36.0768 246.045 34.555 248.242 33.6436C250.439 32.7158 253.581 32.2357 257.666 32.2031H273.975C279.639 32.252 283.569 33.3587 285.767 35.5234C287.964 37.6882 289.062 41.5456 289.062 47.0957V59.791Z" fill="white"/>
<path d="M331.315 58.7656C331.335 60.6016 331.574 62.0176 332.033 63.0137C332.492 64.0098 333.269 64.7129 334.362 65.123C335.466 65.5234 337.053 65.7236 339.123 65.7236H352.321C354.499 65.7236 356.13 65.5283 357.214 65.1377C358.308 64.7471 359.064 64.0635 359.484 63.0869C359.904 62.1006 360.114 60.6406 360.114 58.707V48.0869C360.114 46.0459 359.86 44.498 359.353 43.4434C358.854 42.3887 358.044 41.6611 356.921 41.2607C355.808 40.8506 354.216 40.6455 352.146 40.6455H339.299C337.189 40.6455 335.573 40.8604 334.45 41.29C333.337 41.71 332.546 42.4473 332.077 43.502C331.618 44.5566 331.364 46.1045 331.315 48.1455V58.7656ZM370.075 59.7764C370.075 62.4717 369.831 64.7031 369.343 66.4707C368.854 68.2383 368.044 69.6787 366.911 70.792C365.778 71.8955 364.24 72.7061 362.297 73.2236C360.354 73.7412 357.927 74 355.017 74H336.721C333.928 74 331.56 73.7314 329.616 73.1943C327.673 72.6572 326.091 71.8174 324.87 70.6748C323.649 69.5225 322.756 68.0576 322.189 66.2803C321.633 64.5029 321.354 62.335 321.354 59.7764V47.1201C321.354 44.2295 321.628 41.8467 322.175 39.9717C322.722 38.0869 323.591 36.5879 324.782 35.4746C325.974 34.3516 327.526 33.5508 329.44 33.0723C331.354 32.5938 333.781 32.3545 336.721 32.3545H355.017C358.61 32.3545 361.491 32.7842 363.659 33.6436C365.827 34.4932 367.438 35.9922 368.493 38.1406C369.548 40.2891 370.075 43.2822 370.075 47.1201V59.7764ZM376.564 74V32.3545H419.104V40.6455H386.525V48.3213H418.137V56.5977H386.525V74H376.564ZM425.373 74V32.3545H467.912V40.6455H435.334V48.3213H466.945V56.5977H435.334V74H425.373Z" fill="white"/>
</svg>
