<svg width="386" height="78" viewBox="0 0 386 78" fill="none" xmlns="http://www.w3.org/2000/svg">
<path d="M29.0039 45.1904H28.9062C24.5768 45.1904 21.4762 45.9147 19.6045 47.3633C17.7327 48.7956 16.7969 50.944 16.7969 53.8086C16.7969 56.7057 17.7246 58.9111 19.5801 60.4248C21.4355 61.9385 24.5768 62.6953 29.0039 62.6953H46.8018C51.5544 62.6953 54.8096 61.9629 56.5674 60.498C58.3252 59.0332 59.2041 56.8034 59.2041 53.8086C59.2041 50.9928 58.3089 48.8525 56.5186 47.3877C54.7282 45.9229 51.4893 45.1904 46.8018 45.1904H29.0039ZM28.9062 17.8955C25.5697 17.8955 23.1201 18.1478 21.5576 18.6523C19.9951 19.1406 18.9941 19.8975 18.5547 20.9229C18.1152 21.932 17.8955 23.4538 17.8955 25.4883C17.8955 27.4089 18.1641 28.89 18.7012 29.9316C19.2546 30.9733 20.3206 31.7301 21.8994 32.2021C23.4945 32.6742 25.8626 32.9102 29.0039 32.9102H46.8018C50.0244 32.9102 52.4577 32.6742 54.1016 32.2021C55.7454 31.7301 56.8522 30.9733 57.4219 29.9316C58.0078 28.89 58.3008 27.4089 58.3008 25.4883C58.3008 23.4538 57.9997 21.9076 57.3975 20.8496C56.7952 19.7754 55.6722 19.0186 54.0283 18.5791C52.3844 18.1234 49.9756 17.8955 46.8018 17.8955H28.9062ZM50.708 5.59082C56.6325 5.59082 61.3363 6.16048 64.8193 7.2998C68.3187 8.42285 70.874 10.3271 72.4854 13.0127C74.0967 15.6982 74.9023 19.3604 74.9023 23.999C74.9023 27.7425 73.9827 30.7292 72.1436 32.959C70.3206 35.1725 68.4001 36.7188 66.3818 37.5977C64.3636 38.4603 63.0697 38.8916 62.5 38.8916C63.0534 38.9567 63.9648 39.1927 65.2344 39.5996C66.5039 40.0065 67.9688 40.7878 69.6289 41.9434C71.2891 43.0827 72.7458 44.7835 73.999 47.0459C75.2686 49.292 75.9033 52.1403 75.9033 55.5908C75.9033 62.1826 73.7956 67.0654 69.5801 70.2393C65.3646 73.4131 59.0007 75 50.4883 75H25.1953C16.7155 75 10.3923 73.4212 6.22559 70.2637C2.0752 67.0898 0 62.1989 0 55.5908C0 51.0824 0.992839 47.5911 2.97852 45.1172C4.98047 42.627 6.98242 40.9912 8.98438 40.21C11.0026 39.4287 12.5081 38.9893 13.501 38.8916C12.9801 38.8916 11.7106 38.444 9.69238 37.5488C7.67415 36.6374 5.76986 35.0667 3.97949 32.8369C2.18913 30.6071 1.29395 27.6611 1.29395 23.999C1.29395 19.279 2.01009 15.5924 3.44238 12.9395C4.87467 10.2865 7.28353 8.39844 10.6689 7.27539C14.0706 6.15234 18.8477 5.59082 25 5.59082H50.708Z" fill="white"/>
<path d="M100.83 31.6895V49.6094C100.83 52.7181 101.18 55.0863 101.88 56.7139C102.596 58.3415 103.874 59.4889 105.713 60.1562C107.568 60.8236 110.311 61.1735 113.94 61.2061H132.935C136.385 61.1735 138.989 60.8561 140.747 60.2539C142.521 59.6354 143.742 58.5205 144.409 56.9092C145.093 55.2816 145.435 52.8483 145.435 49.6094L145.532 31.6895C145.532 29.0853 145.353 27.0101 144.995 25.4639C144.653 23.9014 144.027 22.6888 143.115 21.8262C142.22 20.9473 140.983 20.3369 139.404 19.9951C137.842 19.637 135.718 19.4417 133.032 19.4092H114.038C110.441 19.4417 107.699 19.8161 105.811 20.5322C103.939 21.2484 102.637 22.4609 101.904 24.1699C101.188 25.8789 100.83 28.3854 100.83 31.6895ZM162.134 51.2939C162.134 56.2419 161.702 60.2458 160.84 63.3057C159.977 66.3493 158.594 68.7093 156.689 70.3857C154.785 72.0622 152.254 73.2422 149.097 73.9258C145.955 74.5931 141.935 74.9512 137.036 75H109.937C104.81 74.9512 100.651 74.5687 97.4609 73.8525C94.2708 73.1364 91.6992 71.9157 89.7461 70.1904C87.793 68.4652 86.3851 66.0889 85.5225 63.0615C84.6598 60.0342 84.2285 56.1117 84.2285 51.2939V30.4932C84.2285 24.0641 84.9772 19.0999 86.4746 15.6006C87.9883 12.1012 90.5843 9.58659 94.2627 8.05664C97.9411 6.51042 103.166 5.68848 109.937 5.59082H137.036C143.384 5.68848 148.372 6.52669 152.002 8.10547C155.632 9.68424 158.228 12.2477 159.79 15.7959C161.353 19.3441 162.134 24.2432 162.134 30.4932V51.2939Z" fill="white"/>
<path d="M206.665 21.2891C206.665 18.2617 206.185 16.2842 205.225 15.3564C204.281 14.4287 202.262 13.9404 199.17 13.8916H187.769C185.636 13.9242 184.017 14.152 182.91 14.5752C181.82 14.9984 181.071 15.7308 180.664 16.7725C180.257 17.7979 180.054 19.3034 180.054 21.2891V30.2002C180.054 32.0719 180.257 33.488 180.664 34.4482C181.071 35.3923 181.828 36.0677 182.935 36.4746C184.041 36.8815 185.653 37.0931 187.769 37.1094H199.17C201.286 37.0768 202.856 36.8815 203.882 36.5234C204.924 36.1654 205.648 35.5143 206.055 34.5703C206.462 33.61 206.665 32.1533 206.665 30.2002V21.2891ZM216.772 32.1045C216.772 35.9619 216.3 38.9079 215.356 40.9424C214.412 42.9606 212.874 44.3522 210.742 45.1172C208.61 45.8659 205.583 46.2565 201.66 46.2891H185.376C181.34 46.2565 178.231 45.8496 176.05 45.0684C173.885 44.2871 172.331 42.8874 171.387 40.8691C170.443 38.8346 169.971 35.9131 169.971 32.1045V19.4092C169.971 15.568 170.418 12.5977 171.313 10.498C172.209 8.38216 173.763 6.86035 175.977 5.93262C178.206 5.00488 181.34 4.52474 185.376 4.49219H201.66C205.469 4.52474 208.464 5.01302 210.645 5.95703C212.842 6.90104 214.412 8.43913 215.356 10.5713C216.3 12.7035 216.772 15.6494 216.772 19.4092V32.1045ZM241.772 1.61133L221.265 77.71H211.157L231.665 1.61133H241.772ZM272.754 50C272.754 46.9564 272.274 44.9788 271.313 44.0674C270.369 43.1396 268.351 42.6514 265.259 42.6025H253.857C251.725 42.6351 250.106 42.863 248.999 43.2861C247.909 43.7093 247.16 44.4336 246.753 45.459C246.362 46.4844 246.167 47.998 246.167 50V58.9111C246.167 60.7829 246.362 62.1908 246.753 63.1348C247.16 64.0788 247.9 64.7542 248.975 65.1611C250.049 65.5518 251.676 65.7633 253.857 65.7959H265.259C268.351 65.7471 270.369 65.2995 271.313 64.4531C272.274 63.5905 272.754 61.7432 272.754 58.9111V50ZM282.861 60.791C282.861 64.681 282.381 67.6351 281.421 69.6533C280.477 71.6715 278.939 73.0632 276.807 73.8281C274.674 74.5768 271.663 74.9674 267.773 75H251.465C247.428 74.9674 244.32 74.5524 242.139 73.7549C239.958 72.9574 238.395 71.5495 237.451 69.5312C236.523 67.513 236.06 64.5996 236.06 60.791V48.0957C236.06 44.2871 236.507 41.3249 237.402 39.209C238.298 37.0768 239.844 35.555 242.041 34.6436C244.238 33.7158 247.38 33.2357 251.465 33.2031H267.773C273.438 33.252 277.368 34.3587 279.565 36.5234C281.763 38.6882 282.861 42.5456 282.861 48.0957V60.791Z" fill="white"/>
<path d="M294.402 75V33.3545H336.941V41.6455H304.363V49.3213H335.975V57.5977H304.363V75H294.402Z" fill="white"/>
<path d="M343.211 75V33.3545H385.75V41.6455H353.172V49.3213H384.783V57.5977H353.172V75H343.211Z" fill="white"/>
</svg>
