<svg width="484" height="64" viewBox="0 0 484 64" fill="none" xmlns="http://www.w3.org/2000/svg">
<rect width="4" height="4" transform="matrix(0.707099 0.707114 -0.707099 0.707114 134.836 13)" fill="white"/>
<rect width="2.70722" height="2.70722" transform="matrix(0.707099 0.707114 -0.707099 0.707114 166.829 30)" fill="white"/>
<rect y="0.707114" width="3" height="3" transform="matrix(0.707099 0.707114 -0.707099 0.707114 3.32886 31.2071)" stroke="white"/>
<rect y="0.707114" width="3" height="3" transform="matrix(0.707099 0.707114 -0.707099 0.707114 107.336 50.2071)" stroke="white"/>
<rect width="4" height="4" transform="matrix(0.707099 0.707114 -0.707099 0.707114 48.8356 32)" fill="#FE9235"/>
<rect y="0.707114" width="3" height="3" transform="matrix(0.7071 0.707114 -0.7071 0.707114 294.336 46.2071)" stroke="white"/>
<rect width="4" height="4" transform="matrix(0.707099 0.707114 -0.707099 0.707114 394.836 23)" fill="white"/>
<rect y="0.707114" width="5.34008" height="5.34008" transform="matrix(0.707099 0.707114 -0.707099 0.707114 428.508 37.725)" stroke="white"/>
<rect width="4" height="4" transform="matrix(0.7071 0.707114 -0.7071 0.707114 243.836 34)" fill="white"/>
<rect width="2.94959" height="2.94959" transform="matrix(0.7071 0.707114 -0.7071 0.707114 290.836 9)" fill="white"/>
<path d="M87.2969 45.2241C82.0491 53.6373 72.661 57.8993 63.4305 57.0046C59.6492 56.6538 55.8897 55.4382 52.4566 53.2968C40.6104 45.9075 36.9946 30.3028 44.3839 18.4565C51.7731 6.61026 67.3779 2.99453 79.2242 10.3838C91.0704 17.773 94.6862 33.3778 87.2969 45.2241Z" fill="white"/>
<path d="M73.6193 48.6053C76.5596 48.6053 78.9432 46.2217 78.9432 43.2814C78.9432 40.3411 76.5596 37.9575 73.6193 37.9575C70.679 37.9575 68.2954 40.3411 68.2954 43.2814C68.2954 46.2217 70.679 48.6053 73.6193 48.6053Z" fill="#FE9235"/>
<path d="M57.6477 49.9362C60.588 49.9362 62.9716 47.5526 62.9716 44.6123C62.9716 41.672 60.588 39.2885 57.6477 39.2885C54.7074 39.2885 52.3238 41.672 52.3238 44.6123C52.3238 47.5526 54.7074 49.9362 57.6477 49.9362Z" fill="#FE9235"/>
<path d="M52.324 33.9644C55.2643 33.9644 57.6479 31.5808 57.6479 28.6405C57.6479 25.7002 55.2643 23.3167 52.324 23.3167C49.3837 23.3167 47.0001 25.7002 47.0001 28.6405C47.0001 31.5808 49.3837 33.9644 52.324 33.9644Z" fill="#FE9235"/>
<path d="M65.6336 24.6477C68.5739 24.6477 70.9575 22.2641 70.9575 19.3238C70.9575 16.3835 68.5739 13.9999 65.6336 13.9999C62.6933 13.9999 60.3098 16.3835 60.3098 19.3238C60.3098 22.2641 62.6933 24.6477 65.6336 24.6477Z" fill="#FE9235"/>
<path d="M78.9436 33.9643C81.8839 33.9643 84.2675 31.5807 84.2675 28.6404C84.2675 25.7001 81.8839 23.3165 78.9436 23.3165C76.0033 23.3165 73.6197 25.7001 73.6197 28.6404C73.6197 31.5807 76.0033 33.9643 78.9436 33.9643Z" fill="#FE9235"/>
<path d="M65.6337 36.6263C67.839 36.6263 69.6266 34.8386 69.6266 32.6334C69.6266 30.4282 67.839 28.6405 65.6337 28.6405C63.4285 28.6405 61.6408 30.4282 61.6408 32.6334C61.6408 34.8386 63.4285 36.6263 65.6337 36.6263Z" fill="#FE9235"/>
<path d="M357.111 -18V7.45455" stroke="white" stroke-width="0.7"/>
<path d="M356.087 8.52634C356.087 8.02202 356.496 7.61318 357 7.61318C357.504 7.61318 357.913 8.02202 357.913 8.52634V10.45H356.087V8.52634Z" fill="#FE9235" stroke="white" stroke-width="0.7"/>
<path d="M348.521 18.3745C350.281 17.0516 352.049 16.018 353.52 15.2595C352.69 15.9321 351.769 16.763 350.839 17.7614C347.797 21.0275 344.656 26.0914 344.272 33.2655C343.886 40.4637 347.103 45.7944 350.397 49.3129C352.044 51.072 353.715 52.3825 354.973 53.2536C354.983 53.2607 354.994 53.2677 355.004 53.2747C354.903 53.2408 354.799 53.2052 354.693 53.168C353.107 52.6108 350.991 51.6839 348.866 50.2061C344.625 47.2572 340.341 42.1117 340.171 33.2775C340.041 26.4943 344.231 21.5984 348.521 18.3745ZM354.461 53.8284C355.218 54.0943 355.858 54.2785 356.327 54.3997C343.534 54.0887 333.35 44.939 333.35 33.7895C333.35 22.6185 343.573 13.455 356.401 13.1775C356.317 13.2104 356.223 13.2477 356.12 13.2896C355.637 13.4849 354.95 13.779 354.126 14.1754C352.481 14.9678 350.287 16.1712 348.1 17.8149C343.734 21.0964 339.335 26.1794 339.471 33.2909C339.646 42.3902 344.077 47.7289 348.466 50.7808C350.656 52.3035 352.833 53.2562 354.461 53.8284ZM358.679 54.3568C359.061 54.2734 359.509 54.1637 360.009 54.0207C361.636 53.5561 363.816 52.7387 366.03 51.3267C370.472 48.4944 375.027 43.2814 375.539 33.8084C375.935 26.4763 371.27 21.2617 366.589 17.9079C364.243 16.2271 361.875 14.9998 360.095 14.1928C359.205 13.7891 358.46 13.49 357.938 13.2915C357.826 13.2492 357.725 13.2115 357.634 13.1783C370.446 13.4717 380.65 22.6287 380.65 33.7895C380.65 44.6451 370.996 53.6049 358.679 54.3568ZM359.817 53.3477C359.462 53.449 359.135 53.533 358.841 53.6023C359.002 53.4847 359.174 53.3563 359.355 53.2171C360.506 52.3352 362.047 51.0188 363.606 49.2787C366.723 45.8 369.931 40.6105 370.234 33.805C370.493 27.9825 367.197 22.7786 363.893 19.0622C362.236 17.1981 360.564 15.6936 359.307 14.6551C359.266 14.6214 359.226 14.5881 359.186 14.5554C359.383 14.6408 359.59 14.7324 359.806 14.8304C361.558 15.6246 363.883 16.8303 366.181 18.4769C370.788 21.7776 375.217 26.7946 374.84 33.7706C374.342 42.9922 369.928 48.0108 365.654 50.7365C363.51 52.1034 361.396 52.8965 359.817 53.3477ZM355.372 14.7426C355.59 14.5911 355.793 14.4556 355.978 14.336C355.856 14.5431 355.722 14.7744 355.578 15.0279C354.903 16.2143 354 17.8886 353.092 19.8412C351.279 23.7357 349.422 28.7796 349.324 33.2766C349.196 39.1653 351.115 44.4661 353.056 48.2849C354.028 50.1961 355.007 51.7412 355.745 52.8094C355.799 52.8875 355.852 52.9632 355.903 53.0362C355.736 52.9268 355.559 52.8074 355.372 52.678C354.143 51.828 352.514 50.549 350.908 48.8345C347.697 45.4056 344.598 40.2521 344.971 33.3029C345.344 26.3296 348.393 21.4146 351.351 18.2385C352.831 16.6497 354.287 15.4972 355.372 14.7426ZM357.337 52.1209C357.308 52.2664 357.28 52.4054 357.253 52.5374C357.225 52.3977 357.196 52.2503 357.165 52.0955C356.907 50.7938 356.562 48.9732 356.217 46.8982C355.526 42.7429 354.835 37.5872 354.824 33.5358C354.813 29.5879 355.44 24.5579 356.074 20.5028C356.391 18.4779 356.708 16.7008 356.946 15.4301C356.975 15.274 357.003 15.1255 357.03 14.9851C357.065 15.1366 357.101 15.2976 357.139 15.4677C357.426 16.754 357.809 18.5528 358.19 20.6024C358.953 24.7079 359.705 29.7965 359.682 33.7874C359.658 37.7902 358.967 42.883 358.279 46.9874C357.935 49.037 357.593 50.8352 357.337 52.1209ZM358.93 52.6615C358.725 52.8181 358.534 52.9607 358.357 53.089C358.473 52.8875 358.6 52.6658 358.736 52.4257C359.447 51.1673 360.395 49.4001 361.344 47.3647C363.237 43.3078 365.161 38.133 365.182 33.7911C365.202 29.4611 363.212 24.283 361.246 20.2224C360.259 18.1845 359.272 16.414 358.531 15.1528C358.442 15.0007 358.356 14.856 358.274 14.7191C358.457 14.8644 358.653 15.0231 358.861 15.1948C360.099 16.217 361.743 17.6967 363.37 19.5273C366.635 23.2003 369.781 28.2281 369.535 33.7739C369.242 40.3661 366.134 45.4081 363.084 48.8116C361.56 50.5126 360.054 51.8 358.93 52.6615ZM358.126 52.0815C358.091 52.1445 358.056 52.2062 358.022 52.2665C358.022 52.2636 358.023 52.2607 358.023 52.2577C358.281 50.9667 358.624 49.1613 358.969 47.1031C359.659 42.9921 360.357 37.8533 360.382 33.7916C360.406 29.7306 359.643 24.5875 358.878 20.4745C358.497 18.426 358.115 16.6273 357.827 15.3363C357.86 15.3922 357.893 15.4492 357.928 15.5073C358.661 16.7567 359.639 18.5104 360.616 20.5274C362.576 24.5764 364.501 29.6298 364.482 33.7878C364.462 37.9676 362.597 43.0245 360.71 47.0687C359.77 49.0839 358.831 50.8346 358.126 52.0815ZM356.478 52.2317C356.518 52.4333 356.556 52.6224 356.592 52.7983C356.506 52.6777 356.416 52.5487 356.321 52.4117C355.598 51.3641 354.635 49.846 353.68 47.9677C351.769 44.2075 349.899 39.0241 350.024 33.2918C350.118 28.9452 351.924 24.0102 353.726 20.1366C354.625 18.2052 355.518 16.5482 356.186 15.3742C356.216 15.323 356.244 15.2726 356.273 15.2232C356.268 15.249 356.263 15.275 356.258 15.3012C356.019 16.5771 355.7 18.3613 355.383 20.3947C354.748 24.4564 354.112 29.5317 354.124 33.5378C354.135 37.6489 354.834 42.8511 355.527 47.0131C355.873 49.0967 356.219 50.9246 356.478 52.2317Z" fill="white" stroke="#FE9235" stroke-width="0.7"/>
<path d="M352.55 12.8C352.55 11.8888 353.289 11.15 354.2 11.15H359.8C360.711 11.15 361.45 11.8888 361.45 12.8V12.9764H352.55V12.8Z" fill="white" stroke="#FE9235" stroke-width="0.7"/>
<path d="M352.55 54.7789C352.55 55.6902 353.289 56.4289 354.2 56.4289H359.8C360.711 56.4289 361.45 55.6902 361.45 54.7789V54.6026H352.55V54.7789Z" fill="white" stroke="#FE9235" stroke-width="0.7"/>
<g clip-path="url(#clip0_703_249)">
<path d="M215.042 57.8395C214.208 59.9049 211.849 60.8935 209.762 60.0514L188.137 51.3225C186.036 50.4747 185.016 48.1053 185.855 46.0259L199.82 11.4272C200.203 10.4785 200.999 9.75692 201.98 9.4681L218.313 4.13236C219.172 3.85005 220.114 4.23023 220.536 5.02958L228.299 19.5731C228.991 20.8688 229.078 22.4032 228.537 23.7688L215.042 57.8395Z" fill="white"/>
<path d="M214.246 17.8012C216.038 18.5247 218.078 17.6582 218.801 15.8657C219.525 14.0732 218.658 12.0336 216.866 11.31C215.073 10.5865 213.034 11.4531 212.31 13.2456C211.587 15.0381 212.453 17.0777 214.246 17.8012Z" fill="#FE9235"/>
<path d="M204.478 26.265C205.797 26.7972 206.611 27.6571 206.926 28.8419C207.242 30.0267 207.064 31.4457 206.4 33.0915C205.735 34.7373 204.896 35.8949 203.876 36.5623C202.856 37.2297 201.653 37.2806 200.259 36.718C198.964 36.1952 198.166 35.3364 197.867 34.1367C197.568 32.9371 197.746 31.5181 198.412 29.8676C199.079 28.2171 199.908 27.0717 200.908 26.4126C201.906 25.7581 203.098 25.708 204.478 26.265ZM203.542 28.6523C203.165 28.5002 202.798 28.6231 202.429 29.0217C202.06 29.4204 201.687 30.0995 201.301 31.0553C200.915 32.0111 200.715 32.7652 200.697 33.3111C200.678 33.8617 200.86 34.2116 201.236 34.3637C201.613 34.5157 201.987 34.3901 202.358 33.9868C202.729 33.5835 203.108 32.9016 203.498 31.9365C203.887 30.9714 204.082 30.2312 204.093 29.6881C204.104 29.145 203.92 28.7997 203.544 28.6476L203.542 28.6523ZM216.316 31.3196L200.274 44.1958L197.515 43.0819L213.556 30.2057L216.316 31.3196ZM213.568 37.6657C214.886 38.198 215.7 39.0579 216.016 40.2427C216.332 41.4275 216.154 42.8465 215.489 44.4923C214.825 46.1381 213.989 47.2863 212.971 47.9491C211.952 48.6164 210.748 48.6674 209.354 48.1047C208.059 47.582 207.261 46.7231 206.962 45.5235C206.663 44.3239 206.842 42.9049 207.502 41.2684C208.163 39.6319 208.998 38.4724 209.998 37.8133C210.996 37.1589 212.188 37.1088 213.568 37.6657ZM212.632 40.0531C212.255 39.901 211.888 40.0238 211.519 40.4225C211.15 40.8212 210.777 41.5003 210.391 42.4561C210.005 43.4119 209.805 44.166 209.787 44.7119C209.768 45.2624 209.95 45.6124 210.326 45.7644C210.703 45.9165 211.077 45.7909 211.448 45.3875C211.819 44.9842 212.198 44.3023 212.588 43.3372C212.977 42.3721 213.172 41.632 213.183 41.0889C213.194 40.5457 213.01 40.2005 212.634 40.0484L212.632 40.0531Z" fill="#FE9235"/>
</g>
<defs>
<clipPath id="clip0_703_249">
<rect width="32" height="56" fill="white" transform="translate(204.961 -2) rotate(21.981)"/>
</clipPath>
</defs>
</svg>
