<svg width="448" height="64" viewBox="0 0 448 64" fill="none" xmlns="http://www.w3.org/2000/svg">
<rect y="0.707106" width="3" height="3" transform="matrix(0.707107 0.707106 -0.707107 0.707106 300.328 11.2071)" stroke="white"/>
<rect width="4" height="4" transform="matrix(0.707107 0.707106 -0.707107 0.707106 97.8284 39)" fill="white"/>
<rect width="4" height="4" transform="matrix(0.707107 0.707106 -0.707107 0.707106 318.828 30)" fill="white"/>
<rect width="4" height="4" transform="matrix(0.707107 0.707106 -0.707107 0.707106 444.829 16)" fill="white"/>
<rect width="4" height="4" transform="matrix(0.707107 0.707106 -0.707107 0.707106 197.828 40)" fill="white"/>
<rect y="0.707106" width="3.53577" height="3.53577" transform="matrix(0.707107 0.707106 -0.707107 0.707106 83.0854 16.2071)" stroke="white"/>
<rect width="2.94979" height="2.94979" transform="matrix(0.707107 0.707106 -0.707107 0.707106 422.829 47)" fill="white"/>
<path d="M363.974 22.5943L357 28.283L382.915 60.0542L389.889 54.3656L363.974 22.5943Z" fill="white" stroke="#F59541" stroke-miterlimit="10"/>
<path d="M364.005 25.7957L360.13 28.9561L362.658 32.0557L366.533 28.8953L364.005 25.7957Z" fill="#F59541" stroke="#F59541" stroke-miterlimit="10"/>
<path d="M369.061 31.995L365.187 35.1554L367.715 38.255L371.589 35.0947L369.061 31.995Z" fill="#F59541" stroke="#F59541" stroke-miterlimit="10"/>
<path d="M374.118 38.1942L370.243 41.3546L372.771 44.4542L376.646 41.2939L374.118 38.1942Z" fill="#F59541" stroke="#F59541" stroke-miterlimit="10"/>
<path d="M379.174 44.3936L375.3 47.554L377.828 50.6536L381.703 47.4932L379.174 44.3936Z" fill="#F59541" stroke="#F59541" stroke-miterlimit="10"/>
<path d="M384.231 50.5928L380.356 53.7532L382.885 56.8528L386.759 53.6924L384.231 50.5928Z" fill="#F59541" stroke="#F59541" stroke-miterlimit="10"/>
<path d="M387.996 3.00006L381.022 8.68872L406.937 40.46L413.911 34.7713L387.996 3.00006Z" fill="white" stroke="#F59541" stroke-miterlimit="10"/>
<path d="M388.027 6.20145L384.152 9.36182L386.68 12.4615L390.555 9.30109L388.027 6.20145Z" fill="#F59541" stroke="#F59541" stroke-miterlimit="10"/>
<path d="M393.083 12.4007L389.209 15.561L391.737 18.6607L395.612 15.5003L393.083 12.4007Z" fill="#F59541" stroke="#F59541" stroke-miterlimit="10"/>
<path d="M398.14 18.6L394.265 21.7604L396.794 24.86L400.668 21.6996L398.14 18.6Z" fill="#F59541" stroke="#F59541" stroke-miterlimit="10"/>
<path d="M403.196 24.7992L399.322 27.9596L401.85 31.0592L405.725 27.8989L403.196 24.7992Z" fill="#F59541" stroke="#F59541" stroke-miterlimit="10"/>
<path d="M408.253 30.9986L404.379 34.1589L406.907 37.2586L410.781 34.0982L408.253 30.9986Z" fill="#F59541" stroke="#F59541" stroke-miterlimit="10"/>
<path d="M385.701 14.5512L368.653 28.4568L385.087 48.6044L402.135 34.6988L385.701 14.5512Z" fill="white" stroke="#F59541" stroke-miterlimit="10"/>
<path d="M385.04 38.0735L378.953 30.6111C378.662 30.2547 378.873 29.7217 379.328 29.6471L388.837 28.1106C389.293 28.036 389.653 28.4777 389.488 28.9088L386.066 37.9076C385.901 38.3387 385.338 38.4236 385.054 38.0749L385.04 38.0735Z" fill="#F59541" stroke="#F59541" stroke-miterlimit="10"/>
<g clip-path="url(#clip0_703_280)">
<path d="M140.269 11.0089C140.269 13.4544 138.667 15.5419 136.397 16.3793C136.192 16.4278 136 16.4885 135.808 16.5613C135.519 16.6402 135.218 16.7009 134.91 16.7312C134.705 16.7555 134.494 16.7677 134.282 16.7737C134.423 16.2943 134.5 15.7846 134.5 15.2567C134.5 12.0708 131.776 9.49181 128.41 9.49181H128.308C129.006 7.04023 131.372 5.24402 134.179 5.24402C136.769 5.24402 138.981 6.77322 139.859 8.92746C140.122 9.57676 140.269 10.2746 140.269 11.0089Z" fill="white" stroke="#FE9235" stroke-width="0.5" stroke-miterlimit="10"/>
<path d="M135.808 16.5613C135.526 16.6644 135.256 16.7858 134.994 16.9314C134.962 16.8647 134.936 16.7979 134.91 16.7312C135.218 16.7008 135.519 16.6402 135.808 16.5613Z" stroke="#FE9235" stroke-width="0.5" stroke-miterlimit="10"/>
<path d="M144.115 21.9318C144.115 25.1176 141.391 27.6966 138.026 27.6966C136.712 27.6966 135.494 27.3022 134.5 26.6347C132.949 25.5909 131.936 23.8736 131.936 21.9318C131.936 21.0822 132.128 20.2751 132.474 19.5469C133.096 19.0251 133.603 18.3758 133.962 17.6415C134.135 17.4898 134.314 17.3563 134.5 17.2289C134.66 17.1196 134.827 17.0225 134.994 16.9315C135.93 18.9826 138.083 20.4147 140.59 20.4147C141.692 20.4147 142.731 20.1356 143.622 19.6501C143.942 20.354 144.115 21.1247 144.115 21.9318Z" fill="white" stroke="#FE9235" stroke-width="0.5" stroke-miterlimit="10"/>
<path d="M134.5 17.2288C134.314 17.3562 134.135 17.4897 133.962 17.6414C134.051 17.4472 134.135 17.247 134.199 17.0406C134.301 17.1013 134.404 17.162 134.5 17.2288Z" stroke="#FE9235" stroke-width="0.5" stroke-miterlimit="10"/>
<path d="M134.5 15.2567C134.5 15.7846 134.423 16.2943 134.282 16.7737H134.179C134 16.7737 133.827 16.7677 133.654 16.7495C132.994 16.4461 132.269 16.2519 131.5 16.1912H131.494C131.32 16.173 131.147 16.1669 130.974 16.1669C128.269 16.1669 125.974 17.8357 125.186 20.1477C123.462 19.1282 122.32 17.3199 122.32 15.2567C122.32 12.1012 124.987 9.54644 128.308 9.49182H128.41C131.776 9.49182 134.5 12.0708 134.5 15.2567Z" fill="white" stroke="#FE9235" stroke-width="0.5" stroke-miterlimit="10"/>
<path d="M134.5 26.6346C133.506 27.3021 132.288 27.6966 130.974 27.6966C127.609 27.6966 124.885 25.1176 124.885 21.9317C124.885 21.3067 124.987 20.7059 125.186 20.1477C125.974 17.8356 128.269 16.1669 130.974 16.1669C131.147 16.1669 131.321 16.1729 131.494 16.1911H131.5C132.16 16.4946 132.885 16.6887 133.654 16.7494C133.84 16.8404 134.026 16.9375 134.199 17.0407C134.135 17.247 134.051 17.4473 133.962 17.6415C133.34 18.1633 132.833 18.8126 132.474 19.5469C132.128 20.2751 131.936 21.0822 131.936 21.9317C131.936 23.8736 132.949 25.5909 134.5 26.6346Z" fill="white" stroke="#FE9235" stroke-width="0.5" stroke-miterlimit="10"/>
<path d="M134.994 16.4702C134.994 16.4702 137.295 15.8634 137.019 11.0088" stroke="#FE9235" stroke-width="0.5" stroke-miterlimit="10"/>
<path d="M133.923 16.2457C133.923 16.2457 133.583 14.0066 128.462 13.6425" stroke="#FE9235" stroke-width="0.5" stroke-miterlimit="10"/>
<path d="M133.647 17.4412C133.647 17.4412 131.378 16.7373 128.763 20.9244" stroke="#FE9235" stroke-width="0.5" stroke-miterlimit="10"/>
<path d="M135.365 17.5079C135.365 17.5079 133.564 18.9947 136.013 23.2667" stroke="#FE9235" stroke-width="0.5" stroke-miterlimit="10"/>
<path d="M142.564 7.53172C142.199 8.06573 141.603 8.4723 141.109 8.74537H141.103C141.006 8.80605 140.91 8.84853 140.827 8.89101C140.75 8.88494 140.667 8.88494 140.59 8.88494C140.41 8.88494 140.237 8.89101 140.064 8.90921C136.942 5.38962 141.615 4.33374 141.615 4.33374C143.173 5.65662 143.122 6.73071 142.564 7.53172Z" fill="white" stroke="#FE9235" stroke-width="0.5" stroke-miterlimit="10"/>
<path d="M140.064 8.9092C139.994 8.9092 139.929 8.92133 139.859 8.9274C140.122 9.57671 140.269 10.2746 140.269 11.0088C140.269 13.4543 138.667 15.5418 136.397 16.3792C136.205 16.4521 136.013 16.5127 135.808 16.5613C135.526 16.6644 135.256 16.7858 134.994 16.9314C135.929 18.9825 138.083 20.4146 140.59 20.4146C141.692 20.4146 142.731 20.1355 143.622 19.65C145.449 18.6548 146.679 16.7919 146.679 14.6498C146.679 13.0781 146.019 11.6521 144.936 10.6144C143.923 9.63132 142.532 8.98808 140.981 8.89706C140.929 8.89099 140.878 8.89099 140.827 8.89099" fill="white"/>
<path d="M140.064 8.9092C139.994 8.9092 139.929 8.92133 139.859 8.9274C140.122 9.57671 140.269 10.2746 140.269 11.0088C140.269 13.4543 138.667 15.5418 136.397 16.3792C136.205 16.4521 136.013 16.5127 135.808 16.5613C135.526 16.6644 135.256 16.7858 134.994 16.9314C135.929 18.9825 138.083 20.4146 140.59 20.4146C141.692 20.4146 142.731 20.1355 143.622 19.65C145.449 18.6548 146.679 16.7919 146.679 14.6498C146.679 13.0781 146.019 11.6521 144.936 10.6144C143.923 9.63132 142.532 8.98808 140.981 8.89706C140.929 8.89099 140.878 8.89099 140.827 8.89099" stroke="#FE9235" stroke-width="0.5" stroke-miterlimit="10"/>
<path d="M146.135 9.29151C145.744 9.92868 145.34 10.3535 144.936 10.6144C143.923 9.63134 142.532 8.9881 140.981 8.89707C141.019 8.84853 141.064 8.79998 141.103 8.75144H141.109C141.603 8.4723 142.199 8.06572 142.564 7.53171C144.75 6.47584 146.135 9.29151 146.135 9.29151Z" fill="white" stroke="#FE9235" stroke-width="0.5" stroke-miterlimit="10" stroke-linejoin="round"/>
<path d="M135.827 17.3744C135.827 17.3744 137.212 19.2192 141.942 17.3198" stroke="#FE9235" stroke-width="0.5" stroke-miterlimit="10"/>
<path d="M136.744 17.0771C136.744 17.3623 136.673 17.6354 136.545 17.872C136.237 18.4788 135.583 18.8976 134.821 18.8976C134.795 18.8976 134.776 18.8976 134.75 18.8915C133.846 18.8672 133.103 18.2422 132.936 17.429C132.91 17.3137 132.897 17.1984 132.897 17.0771C132.897 16.4885 133.186 15.9726 133.641 15.645C133.968 15.4022 134.378 15.2566 134.821 15.2566C135.263 15.2566 135.699 15.4083 136.032 15.6632C136.468 15.9969 136.744 16.5067 136.744 17.0771Z" fill="#FE9235" stroke="#FE9235" stroke-width="0.5" stroke-miterlimit="10"/>
</g>
<g clip-path="url(#clip1_703_280)">
<path d="M162.115 36.6371C162.115 39.9997 160 42.87 157.005 44.0214C156.734 44.0882 156.48 44.1716 156.226 44.2718C155.845 44.3802 155.448 44.4637 155.042 44.5054C154.771 44.5388 154.492 44.5555 154.212 44.5638C154.398 43.9046 154.5 43.2037 154.5 42.4778C154.5 38.0973 150.904 34.5512 146.462 34.5512H146.326C147.248 31.1802 150.371 28.7104 154.077 28.7104C157.495 28.7104 160.415 30.8131 161.574 33.7752C161.921 34.668 162.115 35.6275 162.115 36.6371Z" fill="white" stroke="#FE9235" stroke-width="0.5" stroke-miterlimit="10"/>
<path d="M156.226 44.2719C155.854 44.4137 155.498 44.5806 155.152 44.7808C155.109 44.689 155.075 44.5973 155.042 44.5055C155.448 44.4638 155.845 44.3803 156.226 44.2719Z" stroke="#FE9235" stroke-width="0.5" stroke-miterlimit="10"/>
<path d="M167.192 51.6561C167.192 56.0366 163.596 59.5828 159.154 59.5828C157.419 59.5828 155.812 59.0404 154.5 58.1226C152.452 56.6875 151.115 54.3261 151.115 51.6561C151.115 50.488 151.369 49.3782 151.826 48.377C152.647 47.6594 153.315 46.7666 153.789 45.757C154.018 45.5484 154.255 45.3648 154.5 45.1896C154.712 45.0394 154.932 44.9059 155.152 44.7808C156.387 47.601 159.23 49.5701 162.538 49.5701C163.994 49.5701 165.365 49.1863 166.541 48.5188C166.964 49.4867 167.192 50.5464 167.192 51.6561Z" fill="white" stroke="#FE9235" stroke-width="0.5" stroke-miterlimit="10"/>
<path d="M154.5 45.1897C154.255 45.3649 154.018 45.5485 153.789 45.7571C153.908 45.4901 154.018 45.2147 154.102 44.931C154.238 45.0145 154.373 45.0979 154.5 45.1897Z" stroke="#FE9235" stroke-width="0.5" stroke-miterlimit="10"/>
<path d="M154.5 42.4778C154.5 43.2037 154.398 43.9046 154.212 44.5638H154.077C153.84 44.5638 153.612 44.5554 153.383 44.5304C152.512 44.1132 151.555 43.8462 150.54 43.7628H150.532C150.303 43.7377 150.075 43.7294 149.846 43.7294C146.275 43.7294 143.246 46.024 142.205 49.203C139.929 47.8012 138.423 45.3147 138.423 42.4778C138.423 38.139 141.943 34.6262 146.326 34.5511H146.462C150.904 34.5511 154.5 38.0973 154.5 42.4778Z" fill="white" stroke="#FE9235" stroke-width="0.5" stroke-miterlimit="10"/>
<path d="M154.5 58.1227C153.188 59.0405 151.581 59.5828 149.846 59.5828C145.404 59.5828 141.808 56.0367 141.808 51.6562C141.808 50.7967 141.943 49.9707 142.205 49.2031C143.246 46.0241 146.275 43.7295 149.846 43.7295C150.075 43.7295 150.303 43.7378 150.532 43.7629H150.54C151.412 44.1801 152.368 44.4471 153.383 44.5305C153.628 44.6557 153.874 44.7892 154.102 44.931C154.018 45.2147 153.908 45.49 153.789 45.7571C152.968 46.4746 152.3 47.3674 151.826 48.377C151.369 49.3783 151.115 50.488 151.115 51.6562C151.115 54.3262 152.452 56.6875 154.5 58.1227Z" fill="white" stroke="#FE9235" stroke-width="0.5" stroke-miterlimit="10"/>
<path d="M155.152 44.1467C155.152 44.1467 158.189 43.3123 157.825 36.6372" stroke="#FE9235" stroke-width="0.5" stroke-miterlimit="10"/>
<path d="M153.738 43.8379C153.738 43.8379 153.29 40.7591 146.529 40.2584" stroke="#FE9235" stroke-width="0.5" stroke-miterlimit="10"/>
<path d="M153.375 45.4817C153.375 45.4817 150.379 44.5138 146.927 50.2711" stroke="#FE9235" stroke-width="0.5" stroke-miterlimit="10"/>
<path d="M155.642 45.5735C155.642 45.5735 153.265 47.6177 156.497 53.4918" stroke="#FE9235" stroke-width="0.5" stroke-miterlimit="10"/>
<path d="M165.145 31.8561C164.662 32.5903 163.875 33.1494 163.224 33.5249H163.215C163.088 33.6083 162.962 33.6667 162.852 33.7251C162.75 33.7168 162.64 33.7168 162.538 33.7168C162.302 33.7168 162.073 33.7251 161.845 33.7501C157.724 28.9107 163.892 27.4589 163.892 27.4589C165.948 29.2778 165.881 30.7547 165.145 31.8561Z" fill="white" stroke="#FE9235" stroke-width="0.5" stroke-miterlimit="10"/>
<path d="M161.845 33.7501C161.752 33.7501 161.667 33.7668 161.574 33.7752C161.921 34.668 162.115 35.6275 162.115 36.6371C162.115 39.9997 160 42.87 157.005 44.0214C156.751 44.1216 156.497 44.205 156.226 44.2717C155.854 44.4136 155.498 44.5805 155.152 44.7807C156.387 47.601 159.23 49.5701 162.538 49.5701C163.994 49.5701 165.365 49.1863 166.541 48.5188C168.952 47.1504 170.577 44.5888 170.577 41.6434C170.577 39.4824 169.705 37.5216 168.275 36.0948C166.938 34.743 165.102 33.8586 163.055 33.7334C162.987 33.7251 162.919 33.7251 162.852 33.7251" fill="white"/>
<path d="M161.845 33.7501C161.752 33.7501 161.667 33.7668 161.574 33.7752C161.921 34.668 162.115 35.6275 162.115 36.6371C162.115 39.9997 160 42.87 157.005 44.0214C156.751 44.1216 156.497 44.205 156.226 44.2717C155.854 44.4136 155.498 44.5805 155.152 44.7807C156.387 47.601 159.23 49.5701 162.538 49.5701C163.994 49.5701 165.365 49.1863 166.541 48.5188C168.952 47.1504 170.577 44.5888 170.577 41.6434C170.577 39.4824 169.705 37.5216 168.275 36.0948C166.938 34.743 165.102 33.8586 163.055 33.7334C162.987 33.7251 162.919 33.7251 162.852 33.7251" stroke="#FE9235" stroke-width="0.5" stroke-miterlimit="10"/>
<path d="M169.858 34.2759C169.342 35.152 168.808 35.7361 168.275 36.0948C166.938 34.7431 165.102 33.8587 163.055 33.7335C163.105 33.6668 163.165 33.6 163.215 33.5333H163.224C163.875 33.1495 164.662 32.5904 165.145 31.8562C168.03 30.4043 169.858 34.2759 169.858 34.2759Z" fill="white" stroke="#FE9235" stroke-width="0.5" stroke-miterlimit="10" stroke-linejoin="round"/>
<path d="M156.252 45.3899C156.252 45.3899 158.079 47.9265 164.324 45.3148" stroke="#FE9235" stroke-width="0.5" stroke-miterlimit="10"/>
<path d="M157.462 44.9811C157.462 45.3732 157.368 45.7487 157.199 46.0741C156.793 46.9085 155.93 47.4842 154.923 47.4842C154.889 47.4842 154.864 47.4842 154.83 47.4759C153.637 47.4425 152.655 46.5831 152.435 45.465C152.402 45.3065 152.385 45.1479 152.385 44.9811C152.385 44.1717 152.765 43.4625 153.366 43.0119C153.798 42.6782 154.339 42.4779 154.923 42.4779C155.507 42.4779 156.082 42.6865 156.522 43.0369C157.098 43.4959 157.462 44.1967 157.462 44.9811Z" fill="#FE9235" stroke="#FE9235" stroke-width="0.5" stroke-miterlimit="10"/>
</g>
<g clip-path="url(#clip2_703_280)">
<path d="M122.786 35.8655C124.523 36.4533 125.636 38.0481 125.707 39.797C125.695 39.9486 125.693 40.0943 125.701 40.243C125.69 40.4587 125.664 40.6788 125.614 40.8959C125.584 41.0417 125.544 41.1888 125.499 41.3346C125.191 41.1232 124.847 40.9482 124.472 40.8213C122.209 40.0554 119.748 41.2936 118.971 43.5888L118.947 43.6588C117.367 42.5929 116.637 40.5479 117.285 38.633C117.882 36.8668 119.479 35.7261 121.212 35.6449C121.734 35.6218 122.264 35.689 122.786 35.8655Z" fill="white" stroke="#FE9235" stroke-width="0.5" stroke-miterlimit="10"/>
<path d="M125.701 40.243C125.709 40.4602 125.733 40.673 125.776 40.8872C125.721 40.8931 125.668 40.8945 125.614 40.8959C125.664 40.6788 125.69 40.4587 125.701 40.243Z" stroke="#FE9235" stroke-width="0.5" stroke-miterlimit="10"/>
<path d="M131.433 35.868C133.696 36.6338 134.9 39.1118 134.123 41.407C133.82 42.3033 133.259 43.0391 132.555 43.5563C131.456 44.3634 130.002 44.6414 128.622 44.1746C128.019 43.9704 127.49 43.6452 127.052 43.2341C126.825 42.6846 126.481 42.1831 126.042 41.7618C125.974 41.6073 125.921 41.4528 125.873 41.2954C125.832 41.1598 125.802 41.0228 125.776 40.8873C127.449 40.742 128.963 39.6173 129.542 37.9079C129.796 37.1559 129.837 36.3805 129.698 35.6562C130.272 35.6068 130.86 35.674 131.433 35.868Z" fill="white" stroke="#FE9235" stroke-width="0.5" stroke-miterlimit="10"/>
<path d="M125.873 41.2953C125.921 41.4527 125.974 41.6072 126.042 41.7617C125.925 41.6538 125.802 41.5489 125.67 41.4555C125.737 41.4002 125.803 41.3448 125.873 41.2953Z" stroke="#FE9235" stroke-width="0.5" stroke-miterlimit="10"/>
<path d="M124.472 40.8213C124.847 40.9482 125.191 41.1232 125.499 41.3346L125.476 41.4046C125.434 41.527 125.39 41.6436 125.337 41.7572C124.969 42.1346 124.664 42.582 124.444 43.092L124.442 43.0964C124.389 43.21 124.345 43.3266 124.305 43.4447C123.681 45.2896 124.337 47.2559 125.797 48.3494C124.675 49.2804 123.127 49.6239 121.661 49.1279C119.42 48.3694 118.22 45.9366 118.947 43.6588L118.971 43.5889C119.748 41.2936 122.209 40.0555 124.472 40.8213Z" fill="white" stroke="#FE9235" stroke-width="0.5" stroke-miterlimit="10"/>
<path d="M132.555 43.5563C132.8 44.3944 132.799 45.3198 132.496 46.2161C131.72 48.5113 129.259 49.7495 126.995 48.9836C126.551 48.8334 126.148 48.619 125.797 48.3493C124.337 47.2558 123.681 45.2895 124.305 43.4446C124.345 43.3265 124.389 43.21 124.442 43.0963L124.444 43.0919C124.812 42.7146 125.117 42.2672 125.337 41.7572C125.445 41.6523 125.557 41.5488 125.67 41.4556C125.802 41.5489 125.925 41.6539 126.042 41.7617C126.269 42.3113 126.614 42.8127 127.053 43.234C127.49 43.6452 128.019 43.9703 128.623 44.1745C130.002 44.6413 131.456 44.3634 132.555 43.5563Z" fill="white" stroke="#FE9235" stroke-width="0.5" stroke-miterlimit="10"/>
<path d="M125.448 40.7763C125.448 40.7763 125.548 39.0609 122.036 38.082" stroke="#FE9235" stroke-width="0.5" stroke-miterlimit="10"/>
<path d="M125.042 41.4525C125.042 41.4525 123.372 41.146 121.932 44.5516" stroke="#FE9235" stroke-width="0.5" stroke-miterlimit="10"/>
<path d="M125.827 41.9279C125.827 41.9279 124.804 43.3063 127.175 46.0965" stroke="#FE9235" stroke-width="0.5" stroke-miterlimit="10"/>
<path d="M126.271 40.7722C126.271 40.7722 126.912 42.3581 130.512 41.715" stroke="#FE9235" stroke-width="0.5" stroke-miterlimit="10"/>
<path d="M120.845 33.4644C121.14 33.842 121.291 34.3463 121.371 34.7486L121.37 34.753C121.391 34.8331 121.399 34.9089 121.41 34.976C121.388 35.027 121.368 35.0838 121.351 35.1363C121.309 35.2587 121.274 35.3782 121.247 35.5006C118.026 36.7837 118.354 33.3428 118.354 33.3428C119.653 32.5984 120.404 32.8915 120.845 33.4644Z" fill="white" stroke="#FE9235" stroke-width="0.5" stroke-miterlimit="10"/>
<path d="M121.247 35.5007C121.23 35.5488 121.224 35.5954 121.212 35.6449C121.734 35.6218 122.264 35.689 122.786 35.8655C124.523 36.4533 125.636 38.0481 125.707 39.797C125.715 39.9457 125.713 40.0914 125.701 40.243C125.709 40.4602 125.733 40.673 125.776 40.8872C127.449 40.742 128.963 39.6172 129.542 37.9078C129.796 37.1559 129.837 36.3805 129.698 35.6561C129.413 34.1709 128.373 32.8837 126.851 32.3688C125.735 31.991 124.569 32.0985 123.582 32.5879C122.65 33.0424 121.872 33.8364 121.449 34.8726C121.433 34.9061 121.421 34.9411 121.41 34.976" fill="white"/>
<path d="M121.247 35.5007C121.23 35.5488 121.224 35.5954 121.212 35.6449C121.734 35.6218 122.264 35.689 122.786 35.8655C124.523 36.4533 125.636 38.0481 125.707 39.797C125.715 39.9457 125.713 40.0914 125.701 40.243C125.709 40.4602 125.733 40.673 125.776 40.8872C127.449 40.742 128.963 39.6172 129.542 37.9078C129.796 37.1559 129.837 36.3805 129.698 35.6561C129.413 34.1709 128.373 32.8837 126.851 32.3688C125.735 31.991 124.569 32.0985 123.582 32.5879C122.65 33.0424 121.872 33.8364 121.449 34.8726C121.433 34.9061 121.421 34.9411 121.41 34.976" stroke="#FE9235" stroke-width="0.5" stroke-miterlimit="10"/>
<path d="M122.919 31.4524C123.281 31.8722 123.49 32.2498 123.582 32.5879C122.65 33.0424 121.872 33.8365 121.449 34.8726C121.424 34.8347 121.4 34.7924 121.374 34.7545L121.376 34.7501C121.291 34.3464 121.14 33.8421 120.845 33.4645C120.599 31.7199 122.919 31.4524 122.919 31.4524Z" fill="white" stroke="#FE9235" stroke-width="0.5" stroke-miterlimit="10" stroke-linejoin="round"/>
<path d="M126.283 40.4254C126.283 40.4254 127.913 39.9245 127.655 36.2414" stroke="#FE9235" stroke-width="0.5" stroke-miterlimit="10"/>
<path d="M126.283 39.7286C126.486 39.7972 126.663 39.9109 126.802 40.0553C127.162 40.411 127.309 40.9576 127.133 41.4778C127.127 41.4953 127.122 41.5084 127.112 41.5245C126.886 42.1351 126.271 42.492 125.654 42.4102C125.567 42.3999 125.482 42.381 125.396 42.3518C124.977 42.2103 124.677 41.8896 124.55 41.5004C124.453 41.2191 124.444 40.9043 124.546 40.6026C124.648 40.301 124.856 40.0401 125.114 39.8741C125.452 39.657 125.878 39.5915 126.283 39.7286Z" fill="#FE9235" stroke="#FE9235" stroke-width="0.5" stroke-miterlimit="10"/>
</g>
<g clip-path="url(#clip3_703_280)">
<path d="M281.5 25C281.5 33.56 274.56 40.5 266 40.5C265.11 40.5 264.24 40.43 263.4 40.28C256.63 39.14 251.35 33.61 250.6 26.72C250.53 26.16 250.5 25.58 250.5 25C250.5 16.44 257.44 9.5 266 9.5C274.56 9.5 281.5 16.44 281.5 25Z" fill="white" stroke="#FE9235" stroke-miterlimit="10"/>
<path d="M263.5 42C263.5 50.56 256.56 57.5 248 57.5C239.44 57.5 232.5 50.56 232.5 42C232.5 33.44 239.44 26.5 248 26.5C248.89 26.5 249.76 26.57 250.6 26.72C251.35 33.61 256.63 39.14 263.4 40.28C263.47 40.84 263.5 41.42 263.5 42Z" fill="white" stroke="#FE9235" stroke-miterlimit="10"/>
<path d="M271.5 20.5H261.5V30.5H271.5V20.5Z" fill="#FE9235"/>
<path d="M253.5 37.5H243.5V47.5H253.5V37.5Z" fill="#FE9235"/>
<path d="M267.5 13.5H265.5V17.5H267.5V13.5Z" fill="#FE9235" stroke="white" stroke-miterlimit="10"/>
<path d="M267.5 33.5H265.5V37.5H267.5V33.5Z" fill="#FE9235" stroke="white" stroke-miterlimit="10"/>
<path d="M278.5 26.5V24.5H274.5V26.5H278.5Z" fill="#FE9235" stroke="white" stroke-miterlimit="10"/>
<path d="M258.5 26.5V24.5H254.5V26.5H258.5Z" fill="#FE9235" stroke="white" stroke-miterlimit="10"/>
<path d="M249.5 30.5H247.5V34.5H249.5V30.5Z" fill="#FE9235" stroke="white" stroke-miterlimit="10"/>
<path d="M249.5 50.5H247.5V54.5H249.5V50.5Z" fill="#FE9235" stroke="white" stroke-miterlimit="10"/>
<path d="M260.5 43.5V41.5H256.5V43.5H260.5Z" fill="#FE9235" stroke="white" stroke-miterlimit="10"/>
<path d="M240.5 43.5V41.5H236.5V43.5H240.5Z" fill="#FE9235" stroke="white" stroke-miterlimit="10"/>
<rect width="1.53558" height="1.53558" transform="matrix(0.707107 0.707106 -0.707107 0.707106 234.086 18)" fill="white"/>
</g>
<defs>
<clipPath id="clip0_703_280">
<rect width="25" height="24" fill="white" transform="translate(122 4)"/>
</clipPath>
<clipPath id="clip1_703_280">
<rect width="33" height="33" fill="white" transform="translate(138 27)"/>
</clipPath>
<clipPath id="clip2_703_280">
<rect width="18" height="18" fill="white" transform="translate(113.59 46.6406) rotate(-71.3065)"/>
</clipPath>
<clipPath id="clip3_703_280">
<rect width="50" height="49" fill="white" transform="translate(232 9)"/>
</clipPath>
</defs>
</svg>
