<svg width="445" height="98" viewBox="0 0 445 98" fill="none" xmlns="http://www.w3.org/2000/svg">
<path d="M242.828 33L245.657 35.8284L242.828 38.6568L240 35.8284L242.828 33Z" fill="white"/>
<path d="M42.8284 47L45.6569 49.8284L42.8284 52.6569L40 49.8284L42.8284 47Z" fill="white"/>
<path d="M261.828 52L264.657 54.8284L261.828 57.6569L259 54.8284L261.828 52Z" fill="#FE9235"/>
<path d="M428.828 47L431.657 49.8284L428.828 52.6568L426 49.8284L428.828 47Z" fill="#FE9235"/>
<path d="M121.828 49L124.657 51.8284L121.828 54.6568L119 51.8284L121.828 49Z" fill="#FE9235"/>
<path d="M29.8284 33L32.6569 35.8284L29.8284 38.6568L27 35.8284L29.8284 33Z" fill="#FE9235"/>
<path fill-rule="evenodd" clip-rule="evenodd" d="M57.3639 76.4892L74.3345 93.4598L97.669 70.1252L80.6985 53.1547L57.3639 76.4892ZM55.2426 75.7821C54.8521 76.1726 54.8521 76.8058 55.2426 77.1963L73.6274 95.5811C74.0179 95.9716 74.6511 95.9716 75.0416 95.5811L99.7903 70.8324C100.181 70.4418 100.181 69.8087 99.7903 69.4181L81.4056 51.0334C81.015 50.6428 80.3819 50.6428 79.9913 51.0334L74.3345 56.6902L71.5061 53.8618C71.1155 53.4712 70.4824 53.4712 70.0918 53.8618L64.435 59.5186C64.0445 59.9091 64.0445 60.5423 64.435 60.9328L67.2634 63.7613L55.2426 75.7821ZM85.6482 75.075C88.3819 72.3413 88.3819 67.9092 85.6482 65.1755C82.9145 62.4418 78.4824 62.4418 75.7487 65.1755C73.0151 67.9092 73.0151 72.3413 75.7487 75.075C78.4824 77.8087 82.9145 77.8087 85.6482 75.075ZM87.0624 76.4892C90.5771 72.9745 90.5771 67.276 87.0624 63.7613C83.5477 60.2466 77.8492 60.2466 74.3345 63.7613C70.8198 67.276 70.8198 72.9745 74.3345 76.4892C77.8492 80.0039 83.5477 80.0039 87.0624 76.4892ZM82.8198 68.0039C83.9914 69.1755 83.9914 71.075 82.8198 72.2466C81.6482 73.4182 79.7487 73.4182 78.5772 72.2466C77.4056 71.075 77.4056 69.1755 78.5772 68.0039C79.7487 66.8324 81.6482 66.8324 82.8198 68.0039ZM84.234 66.5897C86.1866 68.5423 86.1866 71.7082 84.234 73.6608C82.2814 75.6134 79.1156 75.6134 77.1629 73.6608C75.2103 71.7082 75.2103 68.5423 77.1629 66.5897C79.1156 64.6371 82.2814 64.6371 84.234 66.5897ZM66.5563 60.2257L68.6776 62.347L72.9203 58.1044L70.7989 55.9831L66.5563 60.2257ZM61.6066 75.0749C61.216 75.4655 61.216 76.0986 61.6066 76.4892L63.0208 77.9034C63.4113 78.2939 64.0445 78.2939 64.435 77.9034L67.2634 75.0749C67.6539 74.6844 67.6539 74.0513 67.2634 73.6607L65.8492 72.2465C65.4587 71.856 64.8255 71.856 64.435 72.2465L61.6066 75.0749Z" fill="white"/>
<path fill-rule="evenodd" clip-rule="evenodd" d="M306 66C313.732 66 320 59.732 320 52C320 44.268 313.732 38 306 38C298.268 38 292 44.268 292 52C292 59.732 298.268 66 306 66ZM306 68C314.837 68 322 60.8366 322 52C322 43.1634 314.837 36 306 36C297.163 36 290 43.1634 290 52C290 60.8366 297.163 68 306 68ZM301.58 45.3244C302.096 45.1403 302.653 45.111 303.185 45.2401C303.674 45.3554 304.108 45.638 304.413 46.0397C304.718 46.4413 304.874 46.9369 304.856 47.4417C304.856 49.9443 300.599 52.9722 300.419 53.0994C300.381 53.1281 300.334 53.1434 300.286 53.1429C300.238 53.1434 300.191 53.1281 300.153 53.0994C299.973 52.9722 295.716 49.9443 295.716 47.4417C295.696 46.9388 295.848 46.4442 296.147 46.0409C296.447 45.6375 296.875 45.3501 297.36 45.2268C297.896 45.0921 298.46 45.1201 298.98 45.307C299.5 45.494 299.953 45.8316 300.283 46.2774C300.614 45.8398 301.065 45.5086 301.58 45.3244ZM313.009 45.3244C313.524 45.1403 314.082 45.111 314.613 45.2401C315.103 45.3554 315.537 45.638 315.842 46.0397C316.146 46.4413 316.303 46.9369 316.284 47.4417C316.284 49.9443 312.027 52.9722 311.848 53.0994C311.809 53.1281 311.762 53.1434 311.714 53.1429C311.667 53.1434 311.62 53.1281 311.581 53.0994C311.402 52.9722 307.145 49.9443 307.145 47.4417C307.124 46.9388 307.276 46.4442 307.576 46.0409C307.875 45.6375 308.303 45.3501 308.789 45.2268C309.325 45.0921 309.888 45.1201 310.408 45.307C310.928 45.494 311.382 45.8316 311.711 46.2774C312.042 45.8398 312.493 45.5086 313.009 45.3244ZM306 60.1429C303.429 60.1429 301.137 58.9525 299.643 57.0889L298.082 58.3398C299.939 60.6566 302.796 62.1429 306 62.1429C309.204 62.1429 312.061 60.6566 313.918 58.3398L312.357 57.0889C310.863 58.9525 308.571 60.1429 306 60.1429Z" fill="white"/>
<path fill-rule="evenodd" clip-rule="evenodd" d="M384.97 40.3097L383.381 38.1593C382.462 36.9166 381.199 35.9767 379.753 35.4566C378.307 34.9368 376.741 34.8589 375.251 35.2327C374.001 35.5508 372.895 36.2922 372.121 37.335C371.346 38.3787 370.951 39.6601 371.005 40.9639L371.006 41.0048V41.0458C371.006 42.6958 371.722 44.6203 373.036 46.7063C374.334 48.766 376.105 50.8078 377.948 52.6497C380.797 55.4961 383.7 57.7466 385.001 58.7131C386.301 57.7466 389.204 55.4961 392.053 52.6497C393.897 50.8078 395.667 48.766 396.965 46.7063C398.279 44.6203 398.995 42.6958 398.995 41.0458V41.0088L398.996 40.9719C399.044 39.6658 398.639 38.3847 397.853 37.3478C397.066 36.3111 395.947 35.5836 394.688 35.2871L395.147 33.3404C396.859 33.7439 398.379 34.7331 399.446 36.1387C400.512 37.5443 401.06 39.279 400.995 41.0458C400.995 49.805 386.096 60.4027 385.467 60.8477C385.332 60.9482 385.168 61.0017 385.001 61C384.833 61.0017 384.669 60.9482 384.535 60.8477C383.906 60.4027 369.006 49.805 369.006 41.0458C368.934 39.2858 369.467 37.5546 370.515 36.1429C371.563 34.7312 373.062 33.7251 374.761 33.2936C376.637 32.8223 378.609 32.9201 380.429 33.5745C381.61 33.999 382.692 34.6453 383.622 35.4727C384.125 35.921 384.584 36.4225 384.989 36.9706C385.4 36.4272 385.864 35.9307 386.373 35.4875C387.297 34.6814 388.366 34.0514 389.53 33.6355C391.334 32.9908 393.286 32.8883 395.147 33.3404L394.675 35.2839C393.193 34.9239 391.64 35.0055 390.203 35.5188C388.767 36.0322 387.509 36.9556 386.584 38.1778L384.97 40.3097Z" fill="white"/>
<path d="M12.4393 50.1459C11.6251 49.9521 10.7713 49.9961 9.98204 50.2723C9.19282 50.5486 8.50241 51.0453 7.99517 51.7017C7.4908 51.0331 6.79664 50.5267 6.00026 50.2462C5.20389 49.9658 4.34101 49.9239 3.52048 50.1258C2.77724 50.3108 2.12127 50.7419 1.6628 51.347C1.20432 51.952 0.971282 52.6939 1.00283 53.4482C1.00283 57.2022 7.5212 61.744 7.79641 61.9347C7.85532 61.9778 7.9269 62.0007 8.00026 62C8.07362 62.0007 8.14522 61.9778 8.20413 61.9347C8.47933 61.744 14.9977 57.2022 14.9977 53.4482C15.0263 52.691 14.7867 51.9476 14.32 51.3452C13.8533 50.7427 13.1884 50.3188 12.4393 50.1459Z" fill="white"/>
<path d="M219.439 65.1459C218.625 64.9521 217.771 64.9961 216.982 65.2723C216.193 65.5486 215.502 66.0453 214.995 66.7017C214.491 66.0331 213.797 65.5267 213 65.2462C212.204 64.9658 211.341 64.9239 210.52 65.1258C209.777 65.3108 209.121 65.7419 208.663 66.347C208.204 66.952 207.971 67.6939 208.003 68.4482C208.003 72.2022 214.521 76.744 214.796 76.9347C214.855 76.9778 214.927 77.0007 215 77C215.074 77.0007 215.145 76.9778 215.204 76.9347C215.479 76.744 221.998 72.2022 221.998 68.4482C222.026 67.691 221.787 66.9476 221.32 66.3452C220.853 65.7427 220.188 65.3188 219.439 65.1459Z" fill="white"/>
<path fill-rule="evenodd" clip-rule="evenodd" d="M135.828 33.1127L168.355 65.6396L196.64 37.3553L164.113 4.8284L135.828 33.1127ZM133.707 32.4056C133.317 32.7961 133.317 33.4293 133.707 33.8198L167.648 67.7609C168.039 68.1514 168.672 68.1514 169.062 67.7609L198.761 38.0624C199.151 37.6719 199.151 37.0387 198.761 36.6482L164.82 2.70708C164.429 2.31655 163.796 2.31655 163.406 2.70708L133.707 32.4056ZM142.899 33.1127L164.113 54.3259L185.326 33.1127L164.113 11.8995L142.899 33.1127ZM140.778 32.4056C140.388 32.7961 140.388 33.4293 140.778 33.8198L163.406 56.4472C163.796 56.8377 164.429 56.8377 164.82 56.4472L187.447 33.8198C187.838 33.4293 187.838 32.7961 187.447 32.4056L164.82 9.77817C164.429 9.38764 163.796 9.38764 163.406 9.77817L140.778 32.4056ZM160.192 30.7862L162.891 31.2207L162.487 28.5164C162.374 27.7534 162.485 26.9896 162.798 26.316C163.111 25.6429 163.614 25.0829 164.247 24.7018L163.216 22.9883L164.259 24.6944C164.745 24.3976 165.333 24.2751 165.929 24.3633C166.526 24.4517 167.089 24.7463 167.514 25.2034L167.539 25.2298L167.565 25.2554C168.131 25.8222 168.612 26.7921 168.939 28.1726C169.26 29.5246 169.391 31.0808 169.407 32.6124C169.428 34.5465 169.266 36.3308 169.137 37.4293C168.038 37.5588 166.254 37.7206 164.32 37.6999C162.788 37.6835 161.232 37.5528 159.88 37.2318C158.5 36.904 157.53 36.4239 156.963 35.8571L156.935 35.8287L156.905 35.8016C156.446 35.378 156.147 34.8169 156.052 34.2194C155.958 33.6241 156.072 33.0337 156.36 32.5426C156.738 31.9037 157.3 31.3963 157.976 31.0833C158.655 30.7697 159.425 30.6627 160.192 30.7862ZM166.222 22.3849C165.17 22.2293 164.108 22.4426 163.216 22.9883C162.24 23.5755 161.465 24.4389 160.984 25.4731C160.787 25.8968 160.643 26.3416 160.554 26.7979C160.425 27.4552 160.409 28.1362 160.509 28.8116C159.835 28.7031 159.154 28.7122 158.495 28.8351C158.028 28.9224 157.571 29.0672 157.137 29.268C156.092 29.7513 155.222 30.5374 154.637 31.5271C154.109 32.4256 153.911 33.487 154.077 34.5331C154.243 35.5791 154.763 36.546 155.549 37.2713C159.309 41.0317 170.114 39.3262 170.569 39.2531C170.669 39.2397 170.761 39.194 170.83 39.1229C170.902 39.0532 170.947 38.9615 170.961 38.8619C171.034 38.4067 172.739 27.6016 168.979 23.8412C168.248 23.0553 167.273 22.5404 166.222 22.3849Z" fill="white"/>
<path d="M441.828 61L444.657 63.8284L441.828 66.6569L439 63.8284L441.828 61Z" fill="white"/>
</svg>
