<svg width="456" height="98" viewBox="0 0 456 98" fill="none" xmlns="http://www.w3.org/2000/svg">
<path d="M300.439 35.1459C299.625 34.9521 298.771 34.9961 297.982 35.2723C297.193 35.5486 296.502 36.0453 295.995 36.7017C295.491 36.0331 294.797 35.5267 294 35.2462C293.204 34.9658 292.341 34.9239 291.52 35.1258C290.777 35.3108 290.121 35.7419 289.663 36.347C289.204 36.952 288.971 37.6939 289.003 38.4482C289.003 42.2022 295.521 46.744 295.796 46.9347C295.855 46.9778 295.927 47.0007 296 47C296.074 47.0007 296.145 46.9778 296.204 46.9347C296.479 46.744 302.998 42.2022 302.998 38.4482C303.026 37.691 302.787 36.9476 302.32 36.3452C301.853 35.7427 301.188 35.3188 300.439 35.1459Z" fill="white"/>
<path d="M159.439 63.1459C158.625 62.9521 157.771 62.9961 156.982 63.2723C156.193 63.5486 155.502 64.0453 154.995 64.7017C154.491 64.0331 153.797 63.5267 153 63.2462C152.204 62.9658 151.341 62.9239 150.52 63.1258C149.777 63.3108 149.121 63.7419 148.663 64.347C148.204 64.952 147.971 65.6939 148.003 66.4482C148.003 70.2022 154.521 74.744 154.796 74.9347C154.855 74.9778 154.927 75.0007 155 75C155.074 75.0007 155.145 74.9778 155.204 74.9347C155.479 74.744 161.998 70.2022 161.998 66.4482C162.026 65.691 161.787 64.9476 161.32 64.3452C160.853 63.7427 160.188 63.3188 159.439 63.1459Z" fill="white"/>
<path d="M453.439 54.1459C452.625 53.9521 451.771 53.9961 450.982 54.2723C450.193 54.5486 449.502 55.0453 448.995 55.7017C448.491 55.0331 447.797 54.5267 447 54.2462C446.204 53.9658 445.341 53.9239 444.52 54.1258C443.777 54.3108 443.121 54.7419 442.663 55.347C442.204 55.952 441.971 56.6939 442.003 57.4482C442.003 61.2022 448.521 65.744 448.796 65.9347C448.855 65.9778 448.927 66.0007 449 66C449.074 66.0007 449.145 65.9778 449.204 65.9347C449.479 65.744 455.998 61.2022 455.998 57.4482C456.026 56.691 455.787 55.9476 455.32 55.3452C454.853 54.7427 454.188 54.3188 453.439 54.1459Z" fill="white"/>
<path fill-rule="evenodd" clip-rule="evenodd" d="M24.0416 95.0833L2.82846 73.8701L4.94977 71.7488L7.07107 73.8701L9.1924 71.7488L7.07107 69.6275L26.8701 49.8285L48.0833 71.0417L45.9619 73.163L43.8406 71.0416L41.7193 73.163L43.8406 75.2843L24.0416 95.0833ZM0.707139 74.5772C0.316615 74.1867 0.316614 73.5535 0.707138 73.163L26.163 47.7071C26.5535 47.3166 27.1867 47.3166 27.5772 47.7071L50.2046 70.3346C50.5951 70.7251 50.5951 71.3583 50.2046 71.7488L24.7488 97.2046C24.3582 97.5952 23.7251 97.5952 23.3345 97.2046L0.707139 74.5772ZM9.19242 75.9914L11.3137 73.8701L13.4351 75.9914L11.3137 78.1127L9.19242 75.9914ZM26.8701 54.0711L24.7488 56.1924L26.8701 58.3138L28.9914 56.1924L26.8701 54.0711ZM13.4351 80.2341L15.5564 78.1128L17.6777 80.2341L15.5564 82.3554L13.4351 80.2341ZM31.1127 58.3137L28.9914 60.435L31.1127 62.5564L33.234 60.435L31.1127 58.3137ZM17.6778 84.4767L19.7991 82.3553L21.9204 84.4767L19.7991 86.598L17.6778 84.4767ZM35.3553 62.5564L33.234 64.6777L35.3553 66.799L37.4766 64.6777L35.3553 62.5564ZM21.9203 88.7194L24.0416 86.598L26.163 88.7194L24.0416 90.8407L21.9203 88.7194ZM39.598 66.799L37.4767 68.9203L39.598 71.0417L41.7193 68.9203L39.598 66.799ZM25.4559 78.1128L27.9307 69.2739L19.0919 71.7488L25.4559 78.1128Z" fill="white"/>
<path fill-rule="evenodd" clip-rule="evenodd" d="M105.968 40.0027L104.383 37.8741C103.25 36.3527 101.69 35.1995 99.9 34.5608C98.1106 33.9223 96.1716 33.8267 94.3277 34.286C92.7557 34.6828 91.3693 35.6069 90.4006 36.902C89.4315 38.1977 88.9393 39.786 89.006 41.4L89.0077 41.4413V41.4825C89.0077 43.5195 89.8945 45.8535 91.4723 48.3385C93.033 50.7968 95.1556 53.2244 97.3556 55.4059C100.934 58.9544 104.582 61.7198 106.001 62.7556C107.419 61.7198 111.067 58.9544 114.646 55.4059C116.846 53.2244 118.968 50.7968 120.529 48.3385C122.107 45.8535 122.994 43.5195 122.994 41.4825V41.4453L122.995 41.4081C123.055 39.7906 122.55 38.2019 121.566 36.914C120.581 35.6261 119.177 34.7188 117.594 34.3487L118.049 32.4012C120.083 32.8767 121.887 34.0425 123.154 35.6992C124.421 37.3558 125.071 39.4003 124.994 41.4825C124.994 51.8059 107.301 64.2961 106.554 64.8205C106.394 64.9389 106.2 65.002 106.001 65C105.802 65.002 105.607 64.9389 105.447 64.8205C104.7 64.2961 87.0077 51.8059 87.0077 41.4825C86.9221 39.4083 87.5546 37.3679 88.799 35.7041C90.0434 34.0404 91.8239 32.8546 93.8413 32.346C96.0684 31.7906 98.4106 31.9058 100.572 32.6771C102.091 33.2191 103.473 34.0679 104.635 35.1627C105.127 35.6259 105.58 36.1331 105.987 36.6797C106.4 36.1379 106.858 35.6356 107.355 35.1774C108.513 34.1092 109.881 33.2807 111.38 32.749C113.522 31.9892 115.84 31.8683 118.049 32.4012L117.581 34.3455C115.748 33.9034 113.825 34.0037 112.048 34.6339C110.272 35.2641 108.718 36.3967 107.577 37.8926L105.968 40.0027Z" fill="white"/>
<path fill-rule="evenodd" clip-rule="evenodd" d="M335.828 31.1127L368.355 63.6396L396.64 35.3553L364.113 2.8284L335.828 31.1127ZM333.707 30.4056C333.317 30.7961 333.317 31.4293 333.707 31.8198L367.648 65.7609C368.039 66.1514 368.672 66.1514 369.062 65.7609L398.761 36.0624C399.151 35.6719 399.151 35.0387 398.761 34.6482L364.82 0.707077C364.429 0.316553 363.796 0.316553 363.406 0.707077L333.707 30.4056ZM342.899 31.1127L364.113 52.3259L385.326 31.1127L364.113 9.89946L342.899 31.1127ZM340.778 30.4056C340.388 30.7961 340.388 31.4293 340.778 31.8198L363.406 54.4472C363.796 54.8377 364.429 54.8377 364.82 54.4472L387.447 31.8198C387.838 31.4293 387.838 30.7961 387.447 30.4056L364.82 7.77814C364.429 7.38762 363.796 7.38762 363.406 7.77814L340.778 30.4056ZM360.192 28.7861L362.891 29.2206L362.487 26.5164C362.374 25.7534 362.485 24.9895 362.798 24.3159C363.111 23.6428 363.614 23.0829 364.247 22.7018L363.216 20.9883L364.259 22.6944C364.745 22.3975 365.333 22.2751 365.929 22.3633C366.526 22.4517 367.089 22.7462 367.514 23.2033L367.539 23.2298L367.565 23.2553C368.131 23.8221 368.612 24.792 368.939 26.1726C369.26 27.5246 369.391 29.0808 369.407 30.6123C369.428 32.5465 369.266 34.3307 369.137 35.4292C368.038 35.5587 366.254 35.7205 364.32 35.6998C362.788 35.6834 361.232 35.5527 359.88 35.2317C358.5 34.9039 357.53 34.4238 356.963 33.857L356.935 33.8287L356.905 33.8015C356.446 33.3779 356.147 32.8168 356.052 32.2194C355.958 31.6241 356.072 31.0337 356.36 30.5425C356.738 29.9036 357.3 29.3962 357.976 29.0833C358.655 28.7697 359.425 28.6627 360.192 28.7861ZM366.222 20.3848C365.17 20.2292 364.108 20.4426 363.216 20.9883C362.24 21.5755 361.465 22.4389 360.984 23.473C360.787 23.8967 360.643 24.3416 360.554 24.7978C360.425 25.4551 360.409 26.1361 360.509 26.8115C359.835 26.703 359.154 26.7122 358.495 26.835C358.028 26.9224 357.571 27.0671 357.137 27.2679C356.092 27.7512 355.222 28.5373 354.637 29.5271C354.109 30.4255 353.911 31.487 354.077 32.533C354.243 33.579 354.763 34.5459 355.549 35.2712C359.309 39.0317 370.114 37.3261 370.569 37.2531C370.669 37.2397 370.761 37.1939 370.83 37.1228C370.902 37.0531 370.947 36.9615 370.961 36.8618C371.034 36.4067 372.739 25.6016 368.979 21.8411C368.248 21.0552 367.273 20.5404 366.222 20.3848Z" fill="white"/>
<path d="M154.828 33L157.657 35.8285L154.828 38.6569L152 35.8285L154.828 33Z" fill="white"/>
<path d="M68.8284 52L71.6568 54.8285L68.8284 57.6569L66 54.8285L68.8284 52Z" fill="#FE9235"/>
<path d="M313.828 66L316.657 68.8285L313.828 71.6569L311 68.8285L313.828 66Z" fill="white"/>
<path d="M410.828 46L413.657 48.8285L410.828 51.6569L408 48.8285L410.828 46Z" fill="white"/>
<path d="M263.828 54L266.657 56.8285L263.828 59.6569L261 56.8285L263.828 54Z" fill="#FE9235"/>
<path fill-rule="evenodd" clip-rule="evenodd" d="M208.238 90.0553V90.2143H239.357V90.0746L241.473 90.1973C241.667 90.2086 241.862 90.2143 242.06 90.2143C247.55 90.2143 252 85.7638 252 80.2738C252 75.2048 248.204 71.0194 243.301 70.4099L241.957 70.2428L241.613 68.9326C239.704 61.6533 233.077 56.2857 225.202 56.2857C216.462 56.2857 209.263 62.8971 208.339 71.3904L208.129 73.3158L206.198 73.1681C205.98 73.1514 205.759 73.1429 205.536 73.1429C200.822 73.1429 197 76.9644 197 81.6786C197 86.3927 200.822 90.2143 205.536 90.2143C205.728 90.2143 205.918 90.208 206.107 90.1956L208.238 90.0553ZM206.238 92.2143V92.1913C206.014 92.206 205.788 92.2138 205.56 92.2143C205.552 92.2143 205.544 92.2143 205.536 92.2143C205.528 92.2143 205.52 92.2143 205.512 92.2143C205.284 92.2138 205.058 92.206 204.833 92.1913C199.342 91.8298 195 87.2613 195 81.6786C195 75.8599 199.717 71.1429 205.536 71.1429C205.81 71.1429 206.082 71.1533 206.35 71.1739C207.384 61.6769 215.43 54.2857 225.202 54.2857C234.009 54.2857 241.413 60.2883 243.547 68.4251C249.44 69.1576 254 74.1831 254 80.2738C254 86.6326 249.03 91.8304 242.762 92.194C242.537 92.2071 242.31 92.2139 242.081 92.2143C242.074 92.2143 242.067 92.2143 242.06 92.2143C242.052 92.2143 242.045 92.2143 242.038 92.2143C241.809 92.2139 241.582 92.2071 241.357 92.194V92.2143H206.238Z" fill="white"/>
</svg>
