<svg width="792" height="48" viewBox="0 0 792 48" fill="none" xmlns="http://www.w3.org/2000/svg">
<rect width="4" height="4" rx="1" fill="#292929"/>
<rect x="8" width="4" height="4" rx="1" fill="#292929"/>
<rect x="16" width="4" height="4" rx="1" fill="#292929"/>
<rect x="24" width="4" height="4" rx="1" fill="#292929"/>
<rect x="32" width="4" height="4" rx="1" fill="#292929"/>
<rect x="40" width="4" height="4" rx="1" fill="#292929"/>
<rect x="48" width="4" height="4" rx="1" fill="#292929"/>
<rect x="56" width="4" height="4" rx="1" fill="#292929"/>
<rect x="64" width="4" height="4" rx="1" fill="#292929"/>
<rect x="72" width="4" height="4" rx="1" fill="#292929"/>
<rect x="80" width="4" height="4" rx="1" fill="#292929"/>
<rect x="88" width="4" height="4" rx="1" fill="#292929"/>
<rect x="96" width="4" height="4" rx="1" fill="#292929"/>
<rect x="104" width="4" height="4" rx="1" fill="#292929"/>
<rect x="112" width="4" height="4" rx="1" fill="#292929"/>
<rect x="120" width="4" height="4" rx="1" fill="#292929"/>
<rect x="128" width="4" height="4" rx="1" fill="#292929"/>
<rect x="136" width="4" height="4" rx="1" fill="#292929"/>
<rect x="144" width="4" height="4" rx="1" fill="#292929"/>
<rect x="152" width="4" height="4" rx="1" fill="#292929"/>
<rect x="160" width="4" height="4" rx="1" fill="#292929"/>
<rect x="168" width="4" height="4" rx="1" fill="#292929"/>
<rect x="176" width="4" height="4" rx="1" fill="#292929"/>
<rect x="184" width="4" height="4" rx="1" fill="#292929"/>
<rect x="192" width="4" height="4" rx="1" fill="#292929"/>
<rect x="200" width="4" height="4" rx="1" fill="#292929"/>
<rect x="208" width="4" height="4" rx="1" fill="#292929"/>
<rect x="216" width="4" height="4" rx="1" fill="#292929"/>
<rect x="224" width="4" height="4" rx="1" fill="#292929"/>
<rect x="232" width="4" height="4" rx="1" fill="#292929"/>
<rect x="240" width="4" height="4" rx="1" fill="#292929"/>
<rect x="248" width="4" height="4" rx="1" fill="#292929"/>
<rect x="256" width="4" height="4" rx="1" fill="#292929"/>
<rect x="264" width="4" height="4" rx="1" fill="#292929"/>
<rect x="272" width="4" height="4" rx="1" fill="#292929"/>
<rect x="280" width="4" height="4" rx="1" fill="#292929"/>
<rect x="288" width="4" height="4" rx="1" fill="#292929"/>
<rect x="296" width="4" height="4" rx="1" fill="#292929"/>
<rect x="304" width="4" height="4" rx="1" fill="#292929"/>
<rect x="312" width="4" height="4" rx="1" fill="#292929"/>
<rect x="320" width="4" height="4" rx="1" fill="#292929"/>
<rect x="328" width="4" height="4" rx="1" fill="#292929"/>
<rect x="336" width="4" height="4" rx="1" fill="#292929"/>
<rect x="344" width="4" height="4" rx="1" fill="#292929"/>
<rect x="352" width="4" height="4" rx="1" fill="#292929"/>
<rect x="360" width="4" height="4" rx="1" fill="#292929"/>
<rect x="368" width="4" height="4" rx="1" fill="#292929"/>
<rect x="376" width="4" height="4" rx="1" fill="#292929"/>
<rect x="384" width="4" height="4" rx="1" fill="#292929"/>
<rect x="392" width="4" height="4" rx="1" fill="#292929"/>
<rect x="400" width="4" height="4" rx="1" fill="#292929"/>
<rect x="408" width="4" height="4" rx="1" fill="#292929"/>
<rect x="416" width="4" height="4" rx="1" fill="#292929"/>
<rect x="424" width="4" height="4" rx="1" fill="#292929"/>
<rect x="432" width="4" height="4" rx="1" fill="#292929"/>
<rect x="440" width="4" height="4" rx="1" fill="#292929"/>
<rect x="448" width="4" height="4" rx="1" fill="#292929"/>
<rect x="456" width="4" height="4" rx="1" fill="#292929"/>
<rect x="464" width="4" height="4" rx="1" fill="#292929"/>
<rect x="472" width="4" height="4" rx="1" fill="#292929"/>
<rect x="480" width="4" height="4" rx="1" fill="#292929"/>
<rect x="488" width="4" height="4" rx="1" fill="#292929"/>
<rect x="496" width="4" height="4" rx="1" fill="#292929"/>
<rect x="504" width="4" height="4" rx="1" fill="#292929"/>
<rect x="512" width="4" height="4" rx="1" fill="#292929"/>
<rect x="520" width="4" height="4" rx="1" fill="#292929"/>
<rect x="528" width="4" height="4" rx="1" fill="#292929"/>
<rect x="536" width="4" height="4" rx="1" fill="#292929"/>
<rect x="544" width="4" height="4" rx="1" fill="#292929"/>
<rect x="552" width="4" height="4" rx="1" fill="#292929"/>
<rect x="560" width="4" height="4" rx="1" fill="#292929"/>
<rect x="568" width="4" height="4" rx="1" fill="#292929"/>
<rect x="576" width="4" height="4" rx="1" fill="#292929"/>
<rect x="584" width="4" height="4" rx="1" fill="#292929"/>
<rect x="592" width="4" height="4" rx="1" fill="#292929"/>
<rect x="600" width="4" height="4" rx="1" fill="#292929"/>
<rect x="608" width="4" height="4" rx="1" fill="#292929"/>
<rect x="616" width="4" height="4" rx="1" fill="#292929"/>
<rect x="624" width="4" height="4" rx="1" fill="#292929"/>
<rect x="632" width="4" height="4" rx="1" fill="#292929"/>
<rect x="640" width="4" height="4" rx="1" fill="#292929"/>
<rect x="648" width="4" height="4" rx="1" fill="#292929"/>
<rect x="656" width="4" height="4" rx="1" fill="#292929"/>
<rect x="664" width="4" height="4" rx="1" fill="#292929"/>
<rect x="672" width="4" height="4" rx="1" fill="#292929"/>
<rect x="680" width="4" height="4" rx="1" fill="#292929"/>
<rect x="688" width="4" height="4" rx="1" fill="#292929"/>
<rect x="696" width="4" height="4" rx="1" fill="#292929"/>
<rect x="704" width="4" height="4" rx="1" fill="#292929"/>
<rect x="712" width="4" height="4" rx="1" fill="#292929"/>
<rect x="720" width="4" height="4" rx="1" fill="#292929"/>
<rect x="728" width="4" height="4" rx="1" fill="#292929"/>
<rect x="736" width="4" height="4" rx="1" fill="#292929"/>
<rect x="744" width="4" height="4" rx="1" fill="#292929"/>
<rect x="752" width="4" height="4" rx="1" fill="#292929"/>
<rect x="760" width="4" height="4" rx="1" fill="#292929"/>
<rect x="768" width="4" height="4" rx="1" fill="#292929"/>
<rect x="776" width="4" height="4" rx="1" fill="#292929"/>
<rect x="784" width="4" height="4" rx="1" fill="#292929"/>
<rect x="472" y="44" width="4" height="4" rx="1" fill="#292929"/>
<rect x="480" y="44" width="4" height="4" rx="1" fill="#292929"/>
<rect x="488" y="44" width="4" height="4" rx="1" fill="#292929"/>
<rect x="496" y="44" width="4" height="4" rx="1" fill="#292929"/>
<rect x="504" y="44" width="4" height="4" rx="1" fill="#292929"/>
<rect x="512" y="44" width="4" height="4" rx="1" fill="#292929"/>
<rect x="520" y="44" width="4" height="4" rx="1" fill="#292929"/>
<rect x="528" y="44" width="4" height="4" rx="1" fill="#292929"/>
<rect x="536" y="44" width="4" height="4" rx="1" fill="#292929"/>
<rect x="544" y="44" width="4" height="4" rx="1" fill="#292929"/>
<rect x="552" y="44" width="4" height="4" rx="1" fill="#292929"/>
<rect x="560" y="44" width="4" height="4" rx="1" fill="#292929"/>
<rect x="568" y="44" width="4" height="4" rx="1" fill="#292929"/>
<rect x="576" y="44" width="4" height="4" rx="1" fill="#292929"/>
<rect x="584" y="44" width="4" height="4" rx="1" fill="#292929"/>
<rect x="592" y="44" width="4" height="4" rx="1" fill="#292929"/>
<rect x="600" y="44" width="4" height="4" rx="1" fill="#292929"/>
<rect x="608" y="44" width="4" height="4" rx="1" fill="#292929"/>
<rect x="616" y="44" width="4" height="4" rx="1" fill="#292929"/>
<rect x="624" y="44" width="4" height="4" rx="1" fill="#292929"/>
<rect x="632" y="44" width="4" height="4" rx="1" fill="#292929"/>
<rect x="640" y="44" width="4" height="4" rx="1" fill="#292929"/>
<rect x="648" y="44" width="4" height="4" rx="1" fill="#292929"/>
<rect x="656" y="44" width="4" height="4" rx="1" fill="#292929"/>
<rect x="664" y="44" width="4" height="4" rx="1" fill="#292929"/>
<rect x="672" y="44" width="4" height="4" rx="1" fill="#292929"/>
<rect x="680" y="44" width="4" height="4" rx="1" fill="#292929"/>
<rect x="688" y="44" width="4" height="4" rx="1" fill="#292929"/>
<rect x="696" y="44" width="4" height="4" rx="1" fill="#292929"/>
<rect x="704" y="44" width="4" height="4" rx="1" fill="#292929"/>
<rect x="712" y="44" width="4" height="4" rx="1" fill="#292929"/>
<rect x="720" y="44" width="4" height="4" rx="1" fill="#292929"/>
<rect x="728" y="44" width="4" height="4" rx="1" fill="#292929"/>
<rect x="736" y="44" width="4" height="4" rx="1" fill="#292929"/>
<rect x="744" y="44" width="4" height="4" rx="1" fill="#292929"/>
<rect x="752" y="44" width="4" height="4" rx="1" fill="#292929"/>
<rect x="760" y="44" width="4" height="4" rx="1" fill="#292929"/>
<rect x="768" y="44" width="4" height="4" rx="1" fill="#292929"/>
<rect x="776" y="44" width="4" height="4" rx="1" fill="#292929"/>
<rect x="784" y="44" width="4" height="4" rx="1" fill="#292929"/>
<rect y="44" width="4" height="4" rx="1" fill="#292929"/>
<rect x="8" y="44" width="4" height="4" rx="1" fill="#292929"/>
<rect x="16" y="44" width="4" height="4" rx="1" fill="#292929"/>
<rect x="24" y="44" width="4" height="4" rx="1" fill="#292929"/>
<rect x="32" y="44" width="4" height="4" rx="1" fill="#292929"/>
<rect x="40" y="44" width="4" height="4" rx="1" fill="#292929"/>
<rect x="48" y="44" width="4" height="4" rx="1" fill="#292929"/>
<rect x="56" y="44" width="4" height="4" rx="1" fill="#292929"/>
<rect x="64" y="44" width="4" height="4" rx="1" fill="#292929"/>
<rect x="72" y="44" width="4" height="4" rx="1" fill="#292929"/>
<rect x="80" y="44" width="4" height="4" rx="1" fill="#292929"/>
<rect x="88" y="44" width="4" height="4" rx="1" fill="#292929"/>
<rect x="96" y="44" width="4" height="4" rx="1" fill="#292929"/>
<rect x="104" y="44" width="4" height="4" rx="1" fill="#292929"/>
<rect x="112" y="44" width="4" height="4" rx="1" fill="#292929"/>
<rect x="120" y="44" width="4" height="4" rx="1" fill="#292929"/>
<rect x="128" y="44" width="4" height="4" rx="1" fill="#292929"/>
<rect x="136" y="44" width="4" height="4" rx="1" fill="#292929"/>
<rect x="144" y="44" width="4" height="4" rx="1" fill="#292929"/>
<rect x="152" y="44" width="4" height="4" rx="1" fill="#292929"/>
<rect x="160" y="44" width="4" height="4" rx="1" fill="#292929"/>
<rect x="168" y="44" width="4" height="4" rx="1" fill="#292929"/>
<rect x="176" y="44" width="4" height="4" rx="1" fill="#292929"/>
<rect x="184" y="44" width="4" height="4" rx="1" fill="#292929"/>
<rect x="192" y="44" width="4" height="4" rx="1" fill="#292929"/>
<rect x="200" y="44" width="4" height="4" rx="1" fill="#292929"/>
<rect x="208" y="44" width="4" height="4" rx="1" fill="#292929"/>
<rect x="216" y="44" width="4" height="4" rx="1" fill="#292929"/>
<rect x="224" y="44" width="4" height="4" rx="1" fill="#292929"/>
<rect x="232" y="44" width="4" height="4" rx="1" fill="#292929"/>
<rect x="240" y="44" width="4" height="4" rx="1" fill="#292929"/>
<rect x="248" y="44" width="4" height="4" rx="1" fill="#292929"/>
<rect x="256" y="44" width="4" height="4" rx="1" fill="#292929"/>
<rect x="264" y="44" width="4" height="4" rx="1" fill="#292929"/>
<rect x="272" y="44" width="4" height="4" rx="1" fill="#292929"/>
<rect x="280" y="44" width="4" height="4" rx="1" fill="#292929"/>
<rect x="288" y="44" width="4" height="4" rx="1" fill="#292929"/>
<rect x="296" y="44" width="4" height="4" rx="1" fill="#292929"/>
<rect x="304" y="44" width="4" height="4" rx="1" fill="#292929"/>
<rect x="312" y="44" width="4" height="4" rx="1" fill="#292929"/>
<rect x="320" y="44" width="4" height="4" rx="1" fill="#292929"/>
<rect x="328" y="44" width="4" height="4" rx="1" fill="#292929"/>
<rect x="336" y="44" width="4" height="4" rx="1" fill="#292929"/>
<rect x="344" y="44" width="4" height="4" rx="1" fill="#292929"/>
<rect x="352" y="44" width="4" height="4" rx="1" fill="#292929"/>
<rect x="360" y="44" width="4" height="4" rx="1" fill="#292929"/>
<rect x="368" y="44" width="4" height="4" rx="1" fill="#292929"/>
<rect x="376" y="44" width="4" height="4" rx="1" fill="#292929"/>
<rect x="384" y="44" width="4" height="4" rx="1" fill="#292929"/>
<rect x="392" y="44" width="4" height="4" rx="1" fill="#292929"/>
<rect x="400" y="44" width="4" height="4" rx="1" fill="#292929"/>
<rect x="408" y="44" width="4" height="4" rx="1" fill="#292929"/>
<rect x="416" y="44" width="4" height="4" rx="1" fill="#292929"/>
<rect x="424" y="44" width="4" height="4" rx="1" fill="#292929"/>
<rect x="432" y="44" width="4" height="4" rx="1" fill="#292929"/>
<rect x="440" y="44" width="4" height="4" rx="1" fill="#292929"/>
<rect x="448" y="44" width="4" height="4" rx="1" fill="#292929"/>
<rect x="456" y="44" width="4" height="4" rx="1" fill="#292929"/>
<rect x="464" y="44" width="4" height="4" rx="1" fill="#292929"/>
<rect y="8" width="32" height="32" rx="2" fill="#292929"/>
<rect x="36" y="8" width="32" height="32" rx="2" fill="#292929"/>
<rect x="72" y="8" width="32" height="32" rx="2" fill="#292929"/>
<rect x="108" y="8" width="32" height="32" rx="2" fill="#292929"/>
<rect x="144" y="8" width="32" height="32" rx="2" fill="#292929"/>
<rect x="180" y="8" width="32" height="32" rx="2" fill="#292929"/>
<rect x="216" y="8" width="32" height="32" rx="2" fill="#292929"/>
<rect x="252" y="8" width="32" height="32" rx="2" fill="#292929"/>
<rect x="288" y="8" width="32" height="32" rx="2" fill="#292929"/>
<rect x="324" y="8" width="32" height="32" rx="2" fill="#292929"/>
<rect x="360" y="8" width="32" height="32" rx="2" fill="#292929"/>
<rect x="396" y="8" width="32" height="32" rx="2" fill="#292929"/>
<rect x="432" y="8" width="32" height="32" rx="2" fill="#292929"/>
<rect x="468" y="8" width="32" height="32" rx="2" fill="#292929"/>
<rect x="504" y="8" width="32" height="32" rx="2" fill="#292929"/>
<rect x="540" y="8" width="32" height="32" rx="2" fill="#292929"/>
<rect x="576" y="8" width="32" height="32" rx="2" fill="#292929"/>
<rect x="612" y="8" width="32" height="32" rx="2" fill="#292929"/>
<rect x="648" y="8" width="32" height="32" rx="2" fill="#292929"/>
<rect x="684" y="8" width="32" height="32" rx="2" fill="#292929"/>
<rect x="720" y="8" width="32" height="32" rx="2" fill="#292929"/>
<rect x="756" y="8" width="32" height="32" rx="2" fill="#292929"/>
</svg>
