<svg width="62" height="57" viewBox="0 0 62 57" fill="none" xmlns="http://www.w3.org/2000/svg">
<g clip-path="url(#clip0_29_687)">
<path d="M53.1131 3.54683L3.90875 8.71842C2.28962 8.88859 1.09828 10.18 1.24783 11.6028L5.67137 53.69C5.82092 55.1129 7.25472 56.1284 8.87385 55.9582L58.0782 50.7866C59.6974 50.6164 60.8887 49.325 60.7391 47.9022L56.3156 5.81499C56.166 4.39214 54.7323 3.37665 53.1131 3.54683Z" fill="white" stroke="white" stroke-miterlimit="10"/>
<path d="M56.2138 4.84678L56.9594 11.9408L1.89167 17.7286L1.14607 10.6346C1.05279 9.74717 2.29081 8.88847 3.90875 8.71842L53.1131 3.54683C54.7311 3.37678 56.1206 3.95931 56.2138 4.84678Z" fill="#FF4738" stroke="white" stroke-miterlimit="10"/>
<path d="M47.404 1.45239C47.3497 0.935445 46.8968 0.559346 46.3925 0.612347C45.8883 0.665347 45.5235 1.12738 45.5779 1.64432L46.1681 7.26035C46.2225 7.7773 46.6753 8.15339 47.1796 8.10039C47.6838 8.04739 48.0486 7.58536 47.9943 7.06842L47.404 1.45239Z" fill="#007E3A" stroke="white" stroke-miterlimit="10"/>
<path d="M10.9074 5.80865C10.8531 5.29171 10.4002 4.91561 9.89597 4.96861C9.3917 5.02161 9.02696 5.48364 9.08129 6.00058L9.67156 11.6166C9.72589 12.1336 10.1787 12.5097 10.683 12.4567C11.1873 12.4037 11.552 11.9416 11.4977 11.4247L10.9074 5.80865Z" fill="#007E3A" stroke="white" stroke-miterlimit="10"/>
<path d="M47.2632 8.90271C48.0557 8.81942 48.6351 8.15324 48.5575 7.41475C48.4799 6.67627 47.7746 6.14512 46.9822 6.22841C46.1897 6.31169 45.6103 6.97787 45.6879 7.71636C45.7655 8.45485 46.4708 8.986 47.2632 8.90271Z" stroke="white" stroke-miterlimit="10"/>
<path d="M10.7676 13.259C11.5601 13.1757 12.1395 12.5095 12.0619 11.771C11.9843 11.0325 11.279 10.5014 10.4866 10.5847C9.69414 10.668 9.11468 11.3341 9.1923 12.0726C9.26992 12.8111 9.97522 13.3423 10.7676 13.259Z" stroke="white" stroke-miterlimit="10"/>
<path fill-rule="evenodd" clip-rule="evenodd" d="M60.2488 38.7698L50.2848 41.5192C49.5063 41.734 48.8177 42.1974 48.3214 42.8404L40.3741 53.1378C43.5879 52.3233 51.6065 49.6899 54.3918 47.4901C57.1772 45.2904 59.4981 40.5968 60.2488 38.7698Z" fill="#DADADA"/>
<path d="M54.3918 47.4901C51.6065 49.6899 43.5879 52.3233 40.3741 53.1378L58.7282 51.2088C60.273 51.0464 61.3921 49.6481 61.2279 48.0855L60.2488 38.7698C59.4981 40.5968 57.1772 45.2904 54.3918 47.4901Z" fill="#9C9C9C"/>
<path d="M25.3697 28.5607C25.319 28.078 25.0691 27.7077 24.6199 27.4499C24.1884 27.1698 23.6546 27.0632 23.0183 27.1299C22.3621 27.1988 21.784 27.3408 21.2839 27.5559C20.8037 27.769 20.355 28.0906 19.9378 28.5207C19.7004 28.7489 19.5425 28.9688 19.4642 29.1804C19.3859 29.3919 19.3228 29.6527 19.2749 29.9628C19.2093 30.295 19.1043 30.5398 18.96 30.6973C18.8356 30.8527 18.5547 30.9534 18.1173 30.9993C17.4412 31.0702 16.8786 30.9767 16.4294 30.7189C16 30.4589 15.7569 30.0574 15.6999 29.5144C15.6303 28.8507 15.9164 28.1293 16.5583 27.3503C17.2003 26.5712 18.0935 25.8878 19.238 25.3001C20.3824 24.7123 21.6307 24.3475 22.9828 24.2056C24.1361 24.0846 25.1801 24.1682 26.115 24.4565C27.0676 24.7225 27.8262 25.1512 28.3909 25.7427C28.9754 26.332 29.3098 27.0289 29.3943 27.8334C29.4913 28.7586 29.2358 29.7715 28.6276 30.8724C28.0372 31.951 27.2846 33.0162 26.3697 34.0678C25.4747 35.1174 24.3282 36.3561 22.9301 37.7838C22.6949 38.0322 22.2876 38.4612 21.7083 39.071C21.129 39.6808 20.6428 40.2199 20.2497 40.6881C19.8544 41.1363 19.5356 41.5459 19.2931 41.917C20.1845 41.5998 21.4683 41.1906 23.1446 40.6894C24.8208 40.1881 26.1706 39.833 27.194 39.6239C27.3311 39.5892 27.5189 39.5593 27.7575 39.5343C28.1353 39.4946 28.464 39.5618 28.7436 39.7358C29.0211 39.8897 29.1693 40.0572 29.1883 40.2382C29.2453 40.7812 29.1165 41.3742 28.8021 42.0172C28.4855 42.6401 27.873 43.0297 26.9647 43.186C25.6608 43.4042 23.9709 43.7747 21.8949 44.2975C20.8977 44.5648 20.0941 44.761 19.484 44.886C18.8761 45.0311 18.244 45.1381 17.5879 45.207C16.7925 45.2904 16.1603 45.2043 15.6912 44.9485C15.2221 44.6927 14.9559 44.2631 14.8926 43.6598C14.8229 42.9961 14.9564 42.3517 15.2928 41.7268C15.6272 41.0817 16.1253 40.3686 16.7871 39.5874C17.8086 38.4026 19.2871 36.7834 21.2226 34.73C22.8339 33.0358 23.9475 31.7702 24.5632 30.9329C25.1789 30.0956 25.4477 29.3049 25.3697 28.5607Z" fill="#FF4738"/>
<path d="M38.2136 40.5721C39.2476 40.4636 40.1589 40.1443 40.9476 39.6142C41.7363 39.0841 42.3259 38.3818 42.7166 37.5071C43.1251 36.6102 43.2712 35.6087 43.1552 34.5025C42.9779 32.8131 41.8652 32.0758 39.8172 32.2908C38.8628 32.3909 38.1074 32.6633 37.551 33.1081C36.9925 33.5327 36.4466 34.078 35.9134 34.7439C35.5977 35.1837 35.3604 35.412 35.2013 35.4287C34.6247 35.4892 34.1029 35.4016 33.6359 35.1659C33.1888 34.9282 32.9357 34.5277 32.8766 33.9646C32.8597 33.8037 32.8773 33.5883 32.9294 33.3185C33.8395 29.1563 34.2608 26.7534 34.1932 26.1098C34.1257 25.4662 34.1237 24.9683 34.1872 24.6159C34.2487 24.2435 34.419 23.9511 34.6983 23.7388C34.9775 23.5265 35.4254 23.388 36.0418 23.3233C36.2008 23.3066 36.351 23.301 36.4923 23.3065C36.6535 23.3099 36.8136 23.3033 36.9727 23.2866L43.978 21.9415L45.3373 21.6769C45.7946 21.6289 46.1861 21.72 46.5118 21.9501C46.8574 22.1782 47.0523 22.5034 47.0966 22.9258C47.1473 23.4085 47.0702 23.8232 46.8654 24.1701C46.6605 24.5169 46.1061 24.7886 45.202 24.9851L37.6192 26.5738C37.6327 26.5114 37.5442 27.0087 37.3536 28.0657C37.066 29.5396 36.8951 30.4014 36.8409 30.651C38.051 29.7311 39.4116 29.1918 40.9228 29.0332C41.8772 28.9331 42.7831 29.0413 43.6405 29.358C44.498 29.6747 45.2175 30.2092 45.799 30.9616C46.3805 31.7139 46.7314 32.6632 46.8517 33.8096C47.0458 35.6599 46.805 37.2916 46.129 38.7045C45.473 40.1154 44.4661 41.2479 43.1083 42.102C41.7485 42.9361 40.144 43.4501 38.2948 43.6441C37.4398 43.7339 36.548 43.6648 35.6195 43.4369C34.7108 43.2069 33.9387 42.8406 33.3029 42.3379C32.6672 41.8353 32.3145 41.2521 32.2449 40.5884C32.2048 40.2063 32.3113 39.88 32.5643 39.6094C32.8372 39.3368 33.2024 39.1764 33.6597 39.1285C33.8386 39.1097 34.0647 39.1571 34.338 39.2708C34.629 39.3622 35.0279 39.5237 35.5347 39.7552C36.1273 40.0387 36.633 40.2601 37.0518 40.4195C37.4883 40.5567 37.8756 40.6076 38.2136 40.5721Z" fill="#FF4738"/>
</g>
<defs>
<clipPath id="clip0_29_687">
<rect width="62" height="57" fill="white"/>
</clipPath>
</defs>
</svg>
