<svg width="62" height="57" viewBox="0 0 62 57" fill="none" xmlns="http://www.w3.org/2000/svg">
<g clip-path="url(#clip0_29_673)">
<path d="M53.1414 3.54536L3.93707 8.71695C2.31794 8.88713 1.1266 10.1785 1.27615 11.6014L5.69969 53.6886C5.84924 55.1114 7.28304 56.1269 8.90218 55.9567L58.1065 50.7852C59.7257 50.615 60.917 49.3236 60.7675 47.9007L56.3439 5.81353C56.1944 4.39068 54.7606 3.37519 53.1414 3.54536Z" fill="white" stroke="white" stroke-miterlimit="10"/>
<path d="M56.2422 4.84531L56.9878 11.9393L1.92 17.7272L1.17439 10.6332C1.08111 9.7457 2.31913 8.887 3.93707 8.71695L53.1414 3.54536C54.7594 3.37531 56.1489 3.95785 56.2422 4.84531Z" fill="#FF4738" stroke="white" stroke-miterlimit="10"/>
<path d="M47.4323 1.45092C47.378 0.93398 46.9251 0.557881 46.4209 0.610882C45.9166 0.663883 45.5519 1.12591 45.6062 1.64285L46.1965 7.25889C46.2508 7.77583 46.7036 8.15193 47.2079 8.09893C47.7122 8.04593 48.0769 7.5839 48.0226 7.06696L47.4323 1.45092Z" fill="#007E3A" stroke="white" stroke-miterlimit="10"/>
<path d="M10.9357 5.80712C10.8814 5.29018 10.4286 4.91408 9.92429 4.96708C9.42002 5.02008 9.05528 5.48211 9.10961 5.99906L9.69988 11.6151C9.75421 12.132 10.207 12.5081 10.7113 12.4551C11.2156 12.4021 11.5803 11.9401 11.526 11.4232L10.9357 5.80712Z" fill="#007E3A" stroke="white" stroke-miterlimit="10"/>
<path d="M47.2921 8.90125C48.0845 8.81796 48.6639 8.15178 48.5863 7.41329C48.5087 6.6748 47.8034 6.14366 47.011 6.22694C46.2186 6.31023 45.6391 6.97641 45.7167 7.7149C45.7943 8.45339 46.4996 8.98453 47.2921 8.90125Z" stroke="white" stroke-miterlimit="10"/>
<path d="M10.796 13.2575C11.5884 13.1742 12.1678 12.508 12.0902 11.7696C12.0126 11.0311 11.3073 10.4999 10.5149 10.5832C9.72246 10.6665 9.143 11.3327 9.22062 12.0712C9.29824 12.8096 10.0035 13.3408 10.796 13.2575Z" stroke="white" stroke-miterlimit="10"/>
<path fill-rule="evenodd" clip-rule="evenodd" d="M60.2771 38.7683L50.3131 41.5177C49.5346 41.7326 48.846 42.1959 48.3497 42.8389L40.4025 53.1364C43.6162 52.3219 51.6348 49.6884 54.4202 47.4887C57.2055 45.2889 59.5265 40.5953 60.2771 38.7683Z" fill="#DADADA"/>
<path d="M54.4202 47.4887C51.6348 49.6884 43.6162 52.3219 40.4025 53.1364L58.7565 51.2073C60.3013 51.0449 61.4205 49.6466 61.2562 48.0841L60.2771 38.7683C59.5265 40.5953 57.2055 45.2889 54.4202 47.4887Z" fill="#9C9C9C"/>
<path d="M28.3407 44.5298C28.2845 44.2361 28.2705 43.9481 28.2986 43.6659L29.4267 25.0932C28.7738 25.8284 28.0127 26.5707 27.1435 27.32C26.2955 28.0375 25.7264 28.4243 25.4362 28.4804C25.0667 28.5518 24.6215 28.5132 24.1006 28.3647C23.606 28.2111 23.1566 28.0072 22.7523 27.7531C22.3743 27.4939 22.1649 27.2576 22.1241 27.044C22.1088 26.9639 22.1118 26.9079 22.1331 26.8761C22.3306 26.4781 22.907 25.7715 23.8622 24.7564C24.8387 23.7095 26.1093 22.412 27.674 20.8639C29.1911 19.3527 30.085 18.4463 30.3557 18.1449C30.5626 17.9388 30.8112 17.8077 31.1015 17.7516C31.7084 17.6343 32.3243 17.7784 32.9491 18.1836C33.6002 18.5838 33.9896 19.1177 34.1172 19.7851C34.1223 19.8118 34.1508 19.8894 34.2028 20.0177C34.276 20.1143 34.3304 20.2561 34.3662 20.443C34.3764 20.4964 34.3857 20.6883 34.3942 21.0189C34.422 23.3113 34.3144 26.6127 34.0714 30.9231C33.8496 35.2016 33.7289 37.6473 33.7093 38.2602C33.5575 40.615 33.4803 42.0003 33.4777 42.416C33.4453 43.3913 33.2533 44.1758 32.9016 44.7698C32.5764 45.3586 31.9256 45.7474 30.9492 45.936C30.1575 46.089 29.5514 46.0677 29.1309 45.8721C28.7368 45.6714 28.4734 45.2239 28.3407 44.5298Z" fill="#FF4738"/>
</g>
<defs>
<clipPath id="clip0_29_673">
<rect width="62" height="57" fill="white"/>
</clipPath>
</defs>
</svg>
