<svg width="55" height="55" viewBox="0 0 55 55" fill="none" xmlns="http://www.w3.org/2000/svg">
<g clip-path="url(#clip0_29_696)">
<path d="M25.6828 28.7018H3.61426V54.737H25.6828V28.7018Z" fill="white"/>
<path d="M51.3857 28.7018H29.8364V54.737H51.3857V28.7018Z" fill="white"/>
<path d="M25.6825 19.7604H0.23877V28.7018H25.6825V19.7604Z" fill="#FF4738"/>
<path d="M54.7609 19.7604H29.8364V28.7018H54.7609V19.7604Z" fill="#FF4738"/>
<path d="M25.6828 39.2211H3.61426V43.4288H25.6828V39.2211Z" fill="#FF4738"/>
<path d="M51.3857 39.2211H29.8364V43.4288H51.3857V39.2211Z" fill="#FF4738"/>
<path d="M29.8367 19.7604H25.6826V54.737H29.8367V19.7604Z" fill="#FF4738"/>
<path d="M27.7594 19.7605C27.7594 19.7605 38.1498 27.124 38.4094 31.8576L39.1831 28.1759L43.3372 28.7018C43.3372 28.7018 36.0676 21.3384 30.875 19.2345C30.875 19.2345 49.0491 17.1517 43.3372 11.6186C43.3372 11.6186 41.7794 8.18927 38.1446 10.8191L32.4327 13.9749C32.4327 13.9749 35.029 -0.75211 28.7979 0.299817C22.5668 1.35174 23.0861 3.4556 23.0861 3.4556C23.0861 3.4556 22.0476 13.9749 26.2016 17.6566C26.2016 17.6566 14.2587 2.40367 11.1431 9.2412C8.02754 16.0787 20.4898 18.7085 20.4898 18.7085L23.6053 19.7605C23.6053 19.7605 14.2587 25.5461 13.7394 28.1759H17.3742L18.4127 32.9095C18.4127 32.9095 19.4513 24.4941 22.5668 23.4422L27.7594 19.7605Z" fill="#FBFF3A"/>
<path d="M28.798 17.1306C28.798 17.1306 30.875 13.9748 32.4328 13.9748C32.4328 13.9748 33.4713 3.45557 29.8365 3.45557C26.2017 3.45557 26.2017 8.18924 26.2017 8.18924C26.2017 8.18924 26.2017 15.0268 27.2402 15.5527L28.798 17.1306Z" fill="#D5B92A"/>
<path d="M29 3.5C29 3.5 27.5543 6.50689 27.5001 8.8393C27.437 11.5507 28.4823 16.6965 28.4823 16.6965C25.3261 15.1183 23.7635 3.5 29 3.5Z" fill="#007E3A"/>
</g>
<defs>
<clipPath id="clip0_29_696">
<rect width="55" height="55" fill="white"/>
</clipPath>
</defs>
</svg>
