<svg width="122" height="52" viewBox="0 0 122 52" fill="none" xmlns="http://www.w3.org/2000/svg">
<g filter="url(#filter0_d_728_273)">
<g style="mix-blend-mode:hard-light" filter="url(#filter1_f_728_273)">
<ellipse cx="61" cy="22" rx="49.6406" ry="12" fill="#FF0000" fill-opacity="0.2"/>
</g>
<g style="mix-blend-mode:hard-light" filter="url(#filter2_f_728_273)">
<mask id="path-3-outside-1_728_273" maskUnits="userSpaceOnUse" x="17.6328" y="10" width="87" height="24" fill="black">
<rect fill="white" x="17.6328" y="10" width="87" height="24"/>
<path d="M22.6113 27.1953H19.6328V12.918H27.8164V15.3984H22.6113V19.0801H27.4551V21.5508H22.6113V27.1953Z"/>
<path d="M36.4688 16.0723C36.6185 16.0723 36.791 16.082 36.9863 16.1016C37.1882 16.1146 37.3509 16.1341 37.4746 16.1602L37.25 18.9531C37.1523 18.9206 37.0124 18.8978 36.8301 18.8848C36.6543 18.8652 36.5013 18.8555 36.3711 18.8555C35.987 18.8555 35.6126 18.9043 35.248 19.002C34.89 19.0996 34.5677 19.2591 34.2812 19.4805C33.9948 19.6953 33.7669 19.9818 33.5977 20.3398C33.4349 20.6914 33.3535 21.1243 33.3535 21.6387V27.1953H30.375V16.2773H32.6309L33.0703 18.1133H33.2168C33.4316 17.7422 33.6986 17.4036 34.0176 17.0977C34.3431 16.7852 34.7109 16.5378 35.1211 16.3555C35.5378 16.1667 35.987 16.0723 36.4688 16.0723Z"/>
<path d="M42.4355 16.2773V27.1953H39.457V16.2773H42.4355ZM40.9512 12C41.3939 12 41.7747 12.1042 42.0938 12.3125C42.4128 12.5143 42.5723 12.8952 42.5723 13.4551C42.5723 14.0085 42.4128 14.3926 42.0938 14.6074C41.7747 14.8158 41.3939 14.9199 40.9512 14.9199C40.502 14.9199 40.1178 14.8158 39.7988 14.6074C39.4863 14.3926 39.3301 14.0085 39.3301 13.4551C39.3301 12.8952 39.4863 12.5143 39.7988 12.3125C40.1178 12.1042 40.502 12 40.9512 12Z"/>
<path d="M49.0273 27.3906C47.8099 27.3906 46.8171 26.9154 46.0488 25.9648C45.2871 25.0078 44.9062 23.6048 44.9062 21.7559C44.9062 19.8874 45.2936 18.4746 46.0684 17.5176C46.8431 16.554 47.8555 16.0723 49.1055 16.0723C49.6263 16.0723 50.0853 16.1439 50.4824 16.2871C50.8796 16.4303 51.2214 16.6224 51.5078 16.8633C51.8008 17.1042 52.0482 17.3743 52.25 17.6738H52.3477C52.3086 17.4655 52.2598 17.1595 52.2012 16.7559C52.1491 16.3457 52.123 15.9258 52.123 15.4961V12H55.1113V27.1953H52.8262L52.25 25.7793H52.123C51.9342 26.0788 51.6966 26.3522 51.4102 26.5996C51.1302 26.8405 50.7949 27.0326 50.4043 27.1758C50.0137 27.319 49.5547 27.3906 49.0273 27.3906ZM50.0723 25.0176C50.8861 25.0176 51.459 24.7767 51.791 24.2949C52.1296 23.8066 52.3086 23.0742 52.3281 22.0977V21.7754C52.3281 20.7142 52.1654 19.9036 51.8398 19.3438C51.5143 18.7773 50.9089 18.4941 50.0234 18.4941C49.3659 18.4941 48.8516 18.7773 48.4805 19.3438C48.1094 19.9102 47.9238 20.7272 47.9238 21.7949C47.9238 22.8626 48.1094 23.6667 48.4805 24.207C48.8581 24.7474 49.3887 25.0176 50.0723 25.0176Z"/>
<path d="M62.6992 16.0527C64.1641 16.0527 65.2871 16.3717 66.0684 17.0098C66.8496 17.6478 67.2402 18.6178 67.2402 19.9199V27.1953H65.1602L64.584 25.7109H64.5059C64.1934 26.1016 63.8743 26.4206 63.5488 26.668C63.2233 26.9154 62.849 27.0977 62.4258 27.2148C62.0026 27.332 61.4883 27.3906 60.8828 27.3906C60.2383 27.3906 59.6589 27.2669 59.1445 27.0195C58.6367 26.7721 58.2363 26.3945 57.9434 25.8867C57.6504 25.3724 57.5039 24.7214 57.5039 23.9336C57.5039 22.7747 57.9108 21.9219 58.7246 21.375C59.5384 20.8216 60.7591 20.5156 62.3867 20.457L64.2812 20.3984V19.9199C64.2812 19.347 64.1315 18.9271 63.832 18.6602C63.5326 18.3932 63.1159 18.2598 62.582 18.2598C62.0547 18.2598 61.5371 18.3346 61.0293 18.4844C60.5215 18.6341 60.0137 18.8229 59.5059 19.0508L58.5195 17.0391C59.099 16.7331 59.7467 16.4922 60.4629 16.3164C61.1855 16.1406 61.931 16.0527 62.6992 16.0527ZM64.2812 22.1367L63.1289 22.1758C62.1654 22.2018 61.4948 22.3743 61.1172 22.6934C60.7461 23.0124 60.5605 23.4323 60.5605 23.9531C60.5605 24.4089 60.694 24.7344 60.9609 24.9297C61.2279 25.1185 61.5762 25.2129 62.0059 25.2129C62.6439 25.2129 63.181 25.0241 63.6172 24.6465C64.0599 24.2689 64.2812 23.7318 64.2812 23.0352V22.1367Z"/>
<path d="M68.7539 16.2773H72.0156L74.0762 22.4199C74.1413 22.6152 74.1966 22.8138 74.2422 23.0156C74.2878 23.2174 74.3268 23.4258 74.3594 23.6406C74.3919 23.8555 74.418 24.0801 74.4375 24.3145H74.4961C74.5352 23.9629 74.5872 23.6341 74.6523 23.3281C74.724 23.0221 74.8118 22.7194 74.916 22.4199L76.9375 16.2773H80.1309L75.5117 28.5918C75.2318 29.347 74.8672 29.9753 74.418 30.4766C73.9688 30.9844 73.4512 31.3652 72.8652 31.6191C72.2858 31.873 71.6478 32 70.9512 32C70.6126 32 70.3197 31.9805 70.0723 31.9414C69.8249 31.9089 69.6133 31.873 69.4375 31.834V29.4707C69.5742 29.5033 69.7467 29.5326 69.9551 29.5586C70.1634 29.5846 70.3815 29.5977 70.6094 29.5977C71.026 29.5977 71.3841 29.5098 71.6836 29.334C71.9831 29.1582 72.2337 28.9206 72.4355 28.6211C72.6374 28.3281 72.7969 28.0059 72.9141 27.6543L73.0898 27.1172L68.7539 16.2773Z"/>
<path d="M90.9219 27.1953H80.9414V25.0957L84.5254 21.4727C85.248 20.7305 85.8275 20.112 86.2637 19.6172C86.7064 19.1159 87.0254 18.6602 87.2207 18.25C87.4225 17.8398 87.5234 17.4004 87.5234 16.9316C87.5234 16.3652 87.3639 15.9421 87.0449 15.6621C86.7324 15.3757 86.3125 15.2324 85.7852 15.2324C85.2318 15.2324 84.6947 15.3594 84.1738 15.6133C83.653 15.8672 83.1094 16.2285 82.543 16.6973L80.9023 14.7539C81.3125 14.4023 81.7454 14.0703 82.2012 13.7578C82.6634 13.4453 83.1973 13.1947 83.8027 13.0059C84.4147 12.8105 85.1471 12.7129 86 12.7129C86.9375 12.7129 87.7415 12.8822 88.4121 13.2207C89.0892 13.5592 89.61 14.0215 89.9746 14.6074C90.3392 15.1868 90.5215 15.8444 90.5215 16.5801C90.5215 17.3678 90.3652 18.0872 90.0527 18.7383C89.7402 19.3893 89.2845 20.0339 88.6855 20.6719C88.0931 21.3099 87.377 22.0163 86.5371 22.791L84.7012 24.5195V24.6562H90.9219V27.1953Z"/>
<path d="M102.367 27.1953H92.3867V25.0957L95.9707 21.4727C96.6934 20.7305 97.2728 20.112 97.709 19.6172C98.1517 19.1159 98.4707 18.6602 98.666 18.25C98.8678 17.8398 98.9688 17.4004 98.9688 16.9316C98.9688 16.3652 98.8092 15.9421 98.4902 15.6621C98.1777 15.3757 97.7578 15.2324 97.2305 15.2324C96.6771 15.2324 96.14 15.3594 95.6191 15.6133C95.0983 15.8672 94.5547 16.2285 93.9883 16.6973L92.3477 14.7539C92.7578 14.4023 93.1908 14.0703 93.6465 13.7578C94.1087 13.4453 94.6426 13.1947 95.248 13.0059C95.86 12.8105 96.5924 12.7129 97.4453 12.7129C98.3828 12.7129 99.1869 12.8822 99.8574 13.2207C100.535 13.5592 101.055 14.0215 101.42 14.6074C101.785 15.1868 101.967 15.8444 101.967 16.5801C101.967 17.3678 101.811 18.0872 101.498 18.7383C101.186 19.3893 100.73 20.0339 100.131 20.6719C99.5384 21.3099 98.8223 22.0163 97.9824 22.791L96.1465 24.5195V24.6562H102.367V27.1953Z"/>
</mask>
<path d="M22.6113 27.1953H19.6328V12.918H27.8164V15.3984H22.6113V19.0801H27.4551V21.5508H22.6113V27.1953Z" stroke="#FF5C00" stroke-width="2.78239" stroke-linecap="round" mask="url(#path-3-outside-1_728_273)"/>
<path d="M36.4688 16.0723C36.6185 16.0723 36.791 16.082 36.9863 16.1016C37.1882 16.1146 37.3509 16.1341 37.4746 16.1602L37.25 18.9531C37.1523 18.9206 37.0124 18.8978 36.8301 18.8848C36.6543 18.8652 36.5013 18.8555 36.3711 18.8555C35.987 18.8555 35.6126 18.9043 35.248 19.002C34.89 19.0996 34.5677 19.2591 34.2812 19.4805C33.9948 19.6953 33.7669 19.9818 33.5977 20.3398C33.4349 20.6914 33.3535 21.1243 33.3535 21.6387V27.1953H30.375V16.2773H32.6309L33.0703 18.1133H33.2168C33.4316 17.7422 33.6986 17.4036 34.0176 17.0977C34.3431 16.7852 34.7109 16.5378 35.1211 16.3555C35.5378 16.1667 35.987 16.0723 36.4688 16.0723Z" stroke="#FF5C00" stroke-width="2.78239" stroke-linecap="round" mask="url(#path-3-outside-1_728_273)"/>
<path d="M42.4355 16.2773V27.1953H39.457V16.2773H42.4355ZM40.9512 12C41.3939 12 41.7747 12.1042 42.0938 12.3125C42.4128 12.5143 42.5723 12.8952 42.5723 13.4551C42.5723 14.0085 42.4128 14.3926 42.0938 14.6074C41.7747 14.8158 41.3939 14.9199 40.9512 14.9199C40.502 14.9199 40.1178 14.8158 39.7988 14.6074C39.4863 14.3926 39.3301 14.0085 39.3301 13.4551C39.3301 12.8952 39.4863 12.5143 39.7988 12.3125C40.1178 12.1042 40.502 12 40.9512 12Z" stroke="#FF5C00" stroke-width="2.78239" stroke-linecap="round" mask="url(#path-3-outside-1_728_273)"/>
<path d="M49.0273 27.3906C47.8099 27.3906 46.8171 26.9154 46.0488 25.9648C45.2871 25.0078 44.9062 23.6048 44.9062 21.7559C44.9062 19.8874 45.2936 18.4746 46.0684 17.5176C46.8431 16.554 47.8555 16.0723 49.1055 16.0723C49.6263 16.0723 50.0853 16.1439 50.4824 16.2871C50.8796 16.4303 51.2214 16.6224 51.5078 16.8633C51.8008 17.1042 52.0482 17.3743 52.25 17.6738H52.3477C52.3086 17.4655 52.2598 17.1595 52.2012 16.7559C52.1491 16.3457 52.123 15.9258 52.123 15.4961V12H55.1113V27.1953H52.8262L52.25 25.7793H52.123C51.9342 26.0788 51.6966 26.3522 51.4102 26.5996C51.1302 26.8405 50.7949 27.0326 50.4043 27.1758C50.0137 27.319 49.5547 27.3906 49.0273 27.3906ZM50.0723 25.0176C50.8861 25.0176 51.459 24.7767 51.791 24.2949C52.1296 23.8066 52.3086 23.0742 52.3281 22.0977V21.7754C52.3281 20.7142 52.1654 19.9036 51.8398 19.3438C51.5143 18.7773 50.9089 18.4941 50.0234 18.4941C49.3659 18.4941 48.8516 18.7773 48.4805 19.3438C48.1094 19.9102 47.9238 20.7272 47.9238 21.7949C47.9238 22.8626 48.1094 23.6667 48.4805 24.207C48.8581 24.7474 49.3887 25.0176 50.0723 25.0176Z" stroke="#FF5C00" stroke-width="2.78239" stroke-linecap="round" mask="url(#path-3-outside-1_728_273)"/>
<path d="M62.6992 16.0527C64.1641 16.0527 65.2871 16.3717 66.0684 17.0098C66.8496 17.6478 67.2402 18.6178 67.2402 19.9199V27.1953H65.1602L64.584 25.7109H64.5059C64.1934 26.1016 63.8743 26.4206 63.5488 26.668C63.2233 26.9154 62.849 27.0977 62.4258 27.2148C62.0026 27.332 61.4883 27.3906 60.8828 27.3906C60.2383 27.3906 59.6589 27.2669 59.1445 27.0195C58.6367 26.7721 58.2363 26.3945 57.9434 25.8867C57.6504 25.3724 57.5039 24.7214 57.5039 23.9336C57.5039 22.7747 57.9108 21.9219 58.7246 21.375C59.5384 20.8216 60.7591 20.5156 62.3867 20.457L64.2812 20.3984V19.9199C64.2812 19.347 64.1315 18.9271 63.832 18.6602C63.5326 18.3932 63.1159 18.2598 62.582 18.2598C62.0547 18.2598 61.5371 18.3346 61.0293 18.4844C60.5215 18.6341 60.0137 18.8229 59.5059 19.0508L58.5195 17.0391C59.099 16.7331 59.7467 16.4922 60.4629 16.3164C61.1855 16.1406 61.931 16.0527 62.6992 16.0527ZM64.2812 22.1367L63.1289 22.1758C62.1654 22.2018 61.4948 22.3743 61.1172 22.6934C60.7461 23.0124 60.5605 23.4323 60.5605 23.9531C60.5605 24.4089 60.694 24.7344 60.9609 24.9297C61.2279 25.1185 61.5762 25.2129 62.0059 25.2129C62.6439 25.2129 63.181 25.0241 63.6172 24.6465C64.0599 24.2689 64.2812 23.7318 64.2812 23.0352V22.1367Z" stroke="#FF5C00" stroke-width="2.78239" stroke-linecap="round" mask="url(#path-3-outside-1_728_273)"/>
<path d="M68.7539 16.2773H72.0156L74.0762 22.4199C74.1413 22.6152 74.1966 22.8138 74.2422 23.0156C74.2878 23.2174 74.3268 23.4258 74.3594 23.6406C74.3919 23.8555 74.418 24.0801 74.4375 24.3145H74.4961C74.5352 23.9629 74.5872 23.6341 74.6523 23.3281C74.724 23.0221 74.8118 22.7194 74.916 22.4199L76.9375 16.2773H80.1309L75.5117 28.5918C75.2318 29.347 74.8672 29.9753 74.418 30.4766C73.9688 30.9844 73.4512 31.3652 72.8652 31.6191C72.2858 31.873 71.6478 32 70.9512 32C70.6126 32 70.3197 31.9805 70.0723 31.9414C69.8249 31.9089 69.6133 31.873 69.4375 31.834V29.4707C69.5742 29.5033 69.7467 29.5326 69.9551 29.5586C70.1634 29.5846 70.3815 29.5977 70.6094 29.5977C71.026 29.5977 71.3841 29.5098 71.6836 29.334C71.9831 29.1582 72.2337 28.9206 72.4355 28.6211C72.6374 28.3281 72.7969 28.0059 72.9141 27.6543L73.0898 27.1172L68.7539 16.2773Z" stroke="#FF5C00" stroke-width="2.78239" stroke-linecap="round" mask="url(#path-3-outside-1_728_273)"/>
<path d="M90.9219 27.1953H80.9414V25.0957L84.5254 21.4727C85.248 20.7305 85.8275 20.112 86.2637 19.6172C86.7064 19.1159 87.0254 18.6602 87.2207 18.25C87.4225 17.8398 87.5234 17.4004 87.5234 16.9316C87.5234 16.3652 87.3639 15.9421 87.0449 15.6621C86.7324 15.3757 86.3125 15.2324 85.7852 15.2324C85.2318 15.2324 84.6947 15.3594 84.1738 15.6133C83.653 15.8672 83.1094 16.2285 82.543 16.6973L80.9023 14.7539C81.3125 14.4023 81.7454 14.0703 82.2012 13.7578C82.6634 13.4453 83.1973 13.1947 83.8027 13.0059C84.4147 12.8105 85.1471 12.7129 86 12.7129C86.9375 12.7129 87.7415 12.8822 88.4121 13.2207C89.0892 13.5592 89.61 14.0215 89.9746 14.6074C90.3392 15.1868 90.5215 15.8444 90.5215 16.5801C90.5215 17.3678 90.3652 18.0872 90.0527 18.7383C89.7402 19.3893 89.2845 20.0339 88.6855 20.6719C88.0931 21.3099 87.377 22.0163 86.5371 22.791L84.7012 24.5195V24.6562H90.9219V27.1953Z" stroke="#FF5C00" stroke-width="2.78239" stroke-linecap="round" mask="url(#path-3-outside-1_728_273)"/>
<path d="M102.367 27.1953H92.3867V25.0957L95.9707 21.4727C96.6934 20.7305 97.2728 20.112 97.709 19.6172C98.1517 19.1159 98.4707 18.6602 98.666 18.25C98.8678 17.8398 98.9688 17.4004 98.9688 16.9316C98.9688 16.3652 98.8092 15.9421 98.4902 15.6621C98.1777 15.3757 97.7578 15.2324 97.2305 15.2324C96.6771 15.2324 96.14 15.3594 95.6191 15.6133C95.0983 15.8672 94.5547 16.2285 93.9883 16.6973L92.3477 14.7539C92.7578 14.4023 93.1908 14.0703 93.6465 13.7578C94.1087 13.4453 94.6426 13.1947 95.248 13.0059C95.86 12.8105 96.5924 12.7129 97.4453 12.7129C98.3828 12.7129 99.1869 12.8822 99.8574 13.2207C100.535 13.5592 101.055 14.0215 101.42 14.6074C101.785 15.1868 101.967 15.8444 101.967 16.5801C101.967 17.3678 101.811 18.0872 101.498 18.7383C101.186 19.3893 100.73 20.0339 100.131 20.6719C99.5384 21.3099 98.8223 22.0163 97.9824 22.791L96.1465 24.5195V24.6562H102.367V27.1953Z" stroke="#FF5C00" stroke-width="2.78239" stroke-linecap="round" mask="url(#path-3-outside-1_728_273)"/>
</g>
<g style="mix-blend-mode:hard-light" filter="url(#filter3_f_728_273)">
<mask id="path-4-outside-2_728_273" maskUnits="userSpaceOnUse" x="17.6328" y="10" width="87" height="24" fill="black">
<rect fill="white" x="17.6328" y="10" width="87" height="24"/>
<path d="M22.6113 27.1953H19.6328V12.918H27.8164V15.3984H22.6113V19.0801H27.4551V21.5508H22.6113V27.1953Z"/>
<path d="M36.4688 16.0723C36.6185 16.0723 36.791 16.082 36.9863 16.1016C37.1882 16.1146 37.3509 16.1341 37.4746 16.1602L37.25 18.9531C37.1523 18.9206 37.0124 18.8978 36.8301 18.8848C36.6543 18.8652 36.5013 18.8555 36.3711 18.8555C35.987 18.8555 35.6126 18.9043 35.248 19.002C34.89 19.0996 34.5677 19.2591 34.2812 19.4805C33.9948 19.6953 33.7669 19.9818 33.5977 20.3398C33.4349 20.6914 33.3535 21.1243 33.3535 21.6387V27.1953H30.375V16.2773H32.6309L33.0703 18.1133H33.2168C33.4316 17.7422 33.6986 17.4036 34.0176 17.0977C34.3431 16.7852 34.7109 16.5378 35.1211 16.3555C35.5378 16.1667 35.987 16.0723 36.4688 16.0723Z"/>
<path d="M42.4355 16.2773V27.1953H39.457V16.2773H42.4355ZM40.9512 12C41.3939 12 41.7747 12.1042 42.0938 12.3125C42.4128 12.5143 42.5723 12.8952 42.5723 13.4551C42.5723 14.0085 42.4128 14.3926 42.0938 14.6074C41.7747 14.8158 41.3939 14.9199 40.9512 14.9199C40.502 14.9199 40.1178 14.8158 39.7988 14.6074C39.4863 14.3926 39.3301 14.0085 39.3301 13.4551C39.3301 12.8952 39.4863 12.5143 39.7988 12.3125C40.1178 12.1042 40.502 12 40.9512 12Z"/>
<path d="M49.0273 27.3906C47.8099 27.3906 46.8171 26.9154 46.0488 25.9648C45.2871 25.0078 44.9062 23.6048 44.9062 21.7559C44.9062 19.8874 45.2936 18.4746 46.0684 17.5176C46.8431 16.554 47.8555 16.0723 49.1055 16.0723C49.6263 16.0723 50.0853 16.1439 50.4824 16.2871C50.8796 16.4303 51.2214 16.6224 51.5078 16.8633C51.8008 17.1042 52.0482 17.3743 52.25 17.6738H52.3477C52.3086 17.4655 52.2598 17.1595 52.2012 16.7559C52.1491 16.3457 52.123 15.9258 52.123 15.4961V12H55.1113V27.1953H52.8262L52.25 25.7793H52.123C51.9342 26.0788 51.6966 26.3522 51.4102 26.5996C51.1302 26.8405 50.7949 27.0326 50.4043 27.1758C50.0137 27.319 49.5547 27.3906 49.0273 27.3906ZM50.0723 25.0176C50.8861 25.0176 51.459 24.7767 51.791 24.2949C52.1296 23.8066 52.3086 23.0742 52.3281 22.0977V21.7754C52.3281 20.7142 52.1654 19.9036 51.8398 19.3438C51.5143 18.7773 50.9089 18.4941 50.0234 18.4941C49.3659 18.4941 48.8516 18.7773 48.4805 19.3438C48.1094 19.9102 47.9238 20.7272 47.9238 21.7949C47.9238 22.8626 48.1094 23.6667 48.4805 24.207C48.8581 24.7474 49.3887 25.0176 50.0723 25.0176Z"/>
<path d="M62.6992 16.0527C64.1641 16.0527 65.2871 16.3717 66.0684 17.0098C66.8496 17.6478 67.2402 18.6178 67.2402 19.9199V27.1953H65.1602L64.584 25.7109H64.5059C64.1934 26.1016 63.8743 26.4206 63.5488 26.668C63.2233 26.9154 62.849 27.0977 62.4258 27.2148C62.0026 27.332 61.4883 27.3906 60.8828 27.3906C60.2383 27.3906 59.6589 27.2669 59.1445 27.0195C58.6367 26.7721 58.2363 26.3945 57.9434 25.8867C57.6504 25.3724 57.5039 24.7214 57.5039 23.9336C57.5039 22.7747 57.9108 21.9219 58.7246 21.375C59.5384 20.8216 60.7591 20.5156 62.3867 20.457L64.2812 20.3984V19.9199C64.2812 19.347 64.1315 18.9271 63.832 18.6602C63.5326 18.3932 63.1159 18.2598 62.582 18.2598C62.0547 18.2598 61.5371 18.3346 61.0293 18.4844C60.5215 18.6341 60.0137 18.8229 59.5059 19.0508L58.5195 17.0391C59.099 16.7331 59.7467 16.4922 60.4629 16.3164C61.1855 16.1406 61.931 16.0527 62.6992 16.0527ZM64.2812 22.1367L63.1289 22.1758C62.1654 22.2018 61.4948 22.3743 61.1172 22.6934C60.7461 23.0124 60.5605 23.4323 60.5605 23.9531C60.5605 24.4089 60.694 24.7344 60.9609 24.9297C61.2279 25.1185 61.5762 25.2129 62.0059 25.2129C62.6439 25.2129 63.181 25.0241 63.6172 24.6465C64.0599 24.2689 64.2812 23.7318 64.2812 23.0352V22.1367Z"/>
<path d="M68.7539 16.2773H72.0156L74.0762 22.4199C74.1413 22.6152 74.1966 22.8138 74.2422 23.0156C74.2878 23.2174 74.3268 23.4258 74.3594 23.6406C74.3919 23.8555 74.418 24.0801 74.4375 24.3145H74.4961C74.5352 23.9629 74.5872 23.6341 74.6523 23.3281C74.724 23.0221 74.8118 22.7194 74.916 22.4199L76.9375 16.2773H80.1309L75.5117 28.5918C75.2318 29.347 74.8672 29.9753 74.418 30.4766C73.9688 30.9844 73.4512 31.3652 72.8652 31.6191C72.2858 31.873 71.6478 32 70.9512 32C70.6126 32 70.3197 31.9805 70.0723 31.9414C69.8249 31.9089 69.6133 31.873 69.4375 31.834V29.4707C69.5742 29.5033 69.7467 29.5326 69.9551 29.5586C70.1634 29.5846 70.3815 29.5977 70.6094 29.5977C71.026 29.5977 71.3841 29.5098 71.6836 29.334C71.9831 29.1582 72.2337 28.9206 72.4355 28.6211C72.6374 28.3281 72.7969 28.0059 72.9141 27.6543L73.0898 27.1172L68.7539 16.2773Z"/>
<path d="M90.9219 27.1953H80.9414V25.0957L84.5254 21.4727C85.248 20.7305 85.8275 20.112 86.2637 19.6172C86.7064 19.1159 87.0254 18.6602 87.2207 18.25C87.4225 17.8398 87.5234 17.4004 87.5234 16.9316C87.5234 16.3652 87.3639 15.9421 87.0449 15.6621C86.7324 15.3757 86.3125 15.2324 85.7852 15.2324C85.2318 15.2324 84.6947 15.3594 84.1738 15.6133C83.653 15.8672 83.1094 16.2285 82.543 16.6973L80.9023 14.7539C81.3125 14.4023 81.7454 14.0703 82.2012 13.7578C82.6634 13.4453 83.1973 13.1947 83.8027 13.0059C84.4147 12.8105 85.1471 12.7129 86 12.7129C86.9375 12.7129 87.7415 12.8822 88.4121 13.2207C89.0892 13.5592 89.61 14.0215 89.9746 14.6074C90.3392 15.1868 90.5215 15.8444 90.5215 16.5801C90.5215 17.3678 90.3652 18.0872 90.0527 18.7383C89.7402 19.3893 89.2845 20.0339 88.6855 20.6719C88.0931 21.3099 87.377 22.0163 86.5371 22.791L84.7012 24.5195V24.6562H90.9219V27.1953Z"/>
<path d="M102.367 27.1953H92.3867V25.0957L95.9707 21.4727C96.6934 20.7305 97.2728 20.112 97.709 19.6172C98.1517 19.1159 98.4707 18.6602 98.666 18.25C98.8678 17.8398 98.9688 17.4004 98.9688 16.9316C98.9688 16.3652 98.8092 15.9421 98.4902 15.6621C98.1777 15.3757 97.7578 15.2324 97.2305 15.2324C96.6771 15.2324 96.14 15.3594 95.6191 15.6133C95.0983 15.8672 94.5547 16.2285 93.9883 16.6973L92.3477 14.7539C92.7578 14.4023 93.1908 14.0703 93.6465 13.7578C94.1087 13.4453 94.6426 13.1947 95.248 13.0059C95.86 12.8105 96.5924 12.7129 97.4453 12.7129C98.3828 12.7129 99.1869 12.8822 99.8574 13.2207C100.535 13.5592 101.055 14.0215 101.42 14.6074C101.785 15.1868 101.967 15.8444 101.967 16.5801C101.967 17.3678 101.811 18.0872 101.498 18.7383C101.186 19.3893 100.73 20.0339 100.131 20.6719C99.5384 21.3099 98.8223 22.0163 97.9824 22.791L96.1465 24.5195V24.6562H102.367V27.1953Z"/>
</mask>
<path d="M22.6113 27.1953H19.6328V12.918H27.8164V15.3984H22.6113V19.0801H27.4551V21.5508H22.6113V27.1953Z" stroke="#FF0000" stroke-width="3.63851" stroke-linecap="round" mask="url(#path-4-outside-2_728_273)"/>
<path d="M36.4688 16.0723C36.6185 16.0723 36.791 16.082 36.9863 16.1016C37.1882 16.1146 37.3509 16.1341 37.4746 16.1602L37.25 18.9531C37.1523 18.9206 37.0124 18.8978 36.8301 18.8848C36.6543 18.8652 36.5013 18.8555 36.3711 18.8555C35.987 18.8555 35.6126 18.9043 35.248 19.002C34.89 19.0996 34.5677 19.2591 34.2812 19.4805C33.9948 19.6953 33.7669 19.9818 33.5977 20.3398C33.4349 20.6914 33.3535 21.1243 33.3535 21.6387V27.1953H30.375V16.2773H32.6309L33.0703 18.1133H33.2168C33.4316 17.7422 33.6986 17.4036 34.0176 17.0977C34.3431 16.7852 34.7109 16.5378 35.1211 16.3555C35.5378 16.1667 35.987 16.0723 36.4688 16.0723Z" stroke="#FF0000" stroke-width="3.63851" stroke-linecap="round" mask="url(#path-4-outside-2_728_273)"/>
<path d="M42.4355 16.2773V27.1953H39.457V16.2773H42.4355ZM40.9512 12C41.3939 12 41.7747 12.1042 42.0938 12.3125C42.4128 12.5143 42.5723 12.8952 42.5723 13.4551C42.5723 14.0085 42.4128 14.3926 42.0938 14.6074C41.7747 14.8158 41.3939 14.9199 40.9512 14.9199C40.502 14.9199 40.1178 14.8158 39.7988 14.6074C39.4863 14.3926 39.3301 14.0085 39.3301 13.4551C39.3301 12.8952 39.4863 12.5143 39.7988 12.3125C40.1178 12.1042 40.502 12 40.9512 12Z" stroke="#FF0000" stroke-width="3.63851" stroke-linecap="round" mask="url(#path-4-outside-2_728_273)"/>
<path d="M49.0273 27.3906C47.8099 27.3906 46.8171 26.9154 46.0488 25.9648C45.2871 25.0078 44.9062 23.6048 44.9062 21.7559C44.9062 19.8874 45.2936 18.4746 46.0684 17.5176C46.8431 16.554 47.8555 16.0723 49.1055 16.0723C49.6263 16.0723 50.0853 16.1439 50.4824 16.2871C50.8796 16.4303 51.2214 16.6224 51.5078 16.8633C51.8008 17.1042 52.0482 17.3743 52.25 17.6738H52.3477C52.3086 17.4655 52.2598 17.1595 52.2012 16.7559C52.1491 16.3457 52.123 15.9258 52.123 15.4961V12H55.1113V27.1953H52.8262L52.25 25.7793H52.123C51.9342 26.0788 51.6966 26.3522 51.4102 26.5996C51.1302 26.8405 50.7949 27.0326 50.4043 27.1758C50.0137 27.319 49.5547 27.3906 49.0273 27.3906ZM50.0723 25.0176C50.8861 25.0176 51.459 24.7767 51.791 24.2949C52.1296 23.8066 52.3086 23.0742 52.3281 22.0977V21.7754C52.3281 20.7142 52.1654 19.9036 51.8398 19.3438C51.5143 18.7773 50.9089 18.4941 50.0234 18.4941C49.3659 18.4941 48.8516 18.7773 48.4805 19.3438C48.1094 19.9102 47.9238 20.7272 47.9238 21.7949C47.9238 22.8626 48.1094 23.6667 48.4805 24.207C48.8581 24.7474 49.3887 25.0176 50.0723 25.0176Z" stroke="#FF0000" stroke-width="3.63851" stroke-linecap="round" mask="url(#path-4-outside-2_728_273)"/>
<path d="M62.6992 16.0527C64.1641 16.0527 65.2871 16.3717 66.0684 17.0098C66.8496 17.6478 67.2402 18.6178 67.2402 19.9199V27.1953H65.1602L64.584 25.7109H64.5059C64.1934 26.1016 63.8743 26.4206 63.5488 26.668C63.2233 26.9154 62.849 27.0977 62.4258 27.2148C62.0026 27.332 61.4883 27.3906 60.8828 27.3906C60.2383 27.3906 59.6589 27.2669 59.1445 27.0195C58.6367 26.7721 58.2363 26.3945 57.9434 25.8867C57.6504 25.3724 57.5039 24.7214 57.5039 23.9336C57.5039 22.7747 57.9108 21.9219 58.7246 21.375C59.5384 20.8216 60.7591 20.5156 62.3867 20.457L64.2812 20.3984V19.9199C64.2812 19.347 64.1315 18.9271 63.832 18.6602C63.5326 18.3932 63.1159 18.2598 62.582 18.2598C62.0547 18.2598 61.5371 18.3346 61.0293 18.4844C60.5215 18.6341 60.0137 18.8229 59.5059 19.0508L58.5195 17.0391C59.099 16.7331 59.7467 16.4922 60.4629 16.3164C61.1855 16.1406 61.931 16.0527 62.6992 16.0527ZM64.2812 22.1367L63.1289 22.1758C62.1654 22.2018 61.4948 22.3743 61.1172 22.6934C60.7461 23.0124 60.5605 23.4323 60.5605 23.9531C60.5605 24.4089 60.694 24.7344 60.9609 24.9297C61.2279 25.1185 61.5762 25.2129 62.0059 25.2129C62.6439 25.2129 63.181 25.0241 63.6172 24.6465C64.0599 24.2689 64.2812 23.7318 64.2812 23.0352V22.1367Z" stroke="#FF0000" stroke-width="3.63851" stroke-linecap="round" mask="url(#path-4-outside-2_728_273)"/>
<path d="M68.7539 16.2773H72.0156L74.0762 22.4199C74.1413 22.6152 74.1966 22.8138 74.2422 23.0156C74.2878 23.2174 74.3268 23.4258 74.3594 23.6406C74.3919 23.8555 74.418 24.0801 74.4375 24.3145H74.4961C74.5352 23.9629 74.5872 23.6341 74.6523 23.3281C74.724 23.0221 74.8118 22.7194 74.916 22.4199L76.9375 16.2773H80.1309L75.5117 28.5918C75.2318 29.347 74.8672 29.9753 74.418 30.4766C73.9688 30.9844 73.4512 31.3652 72.8652 31.6191C72.2858 31.873 71.6478 32 70.9512 32C70.6126 32 70.3197 31.9805 70.0723 31.9414C69.8249 31.9089 69.6133 31.873 69.4375 31.834V29.4707C69.5742 29.5033 69.7467 29.5326 69.9551 29.5586C70.1634 29.5846 70.3815 29.5977 70.6094 29.5977C71.026 29.5977 71.3841 29.5098 71.6836 29.334C71.9831 29.1582 72.2337 28.9206 72.4355 28.6211C72.6374 28.3281 72.7969 28.0059 72.9141 27.6543L73.0898 27.1172L68.7539 16.2773Z" stroke="#FF0000" stroke-width="3.63851" stroke-linecap="round" mask="url(#path-4-outside-2_728_273)"/>
<path d="M90.9219 27.1953H80.9414V25.0957L84.5254 21.4727C85.248 20.7305 85.8275 20.112 86.2637 19.6172C86.7064 19.1159 87.0254 18.6602 87.2207 18.25C87.4225 17.8398 87.5234 17.4004 87.5234 16.9316C87.5234 16.3652 87.3639 15.9421 87.0449 15.6621C86.7324 15.3757 86.3125 15.2324 85.7852 15.2324C85.2318 15.2324 84.6947 15.3594 84.1738 15.6133C83.653 15.8672 83.1094 16.2285 82.543 16.6973L80.9023 14.7539C81.3125 14.4023 81.7454 14.0703 82.2012 13.7578C82.6634 13.4453 83.1973 13.1947 83.8027 13.0059C84.4147 12.8105 85.1471 12.7129 86 12.7129C86.9375 12.7129 87.7415 12.8822 88.4121 13.2207C89.0892 13.5592 89.61 14.0215 89.9746 14.6074C90.3392 15.1868 90.5215 15.8444 90.5215 16.5801C90.5215 17.3678 90.3652 18.0872 90.0527 18.7383C89.7402 19.3893 89.2845 20.0339 88.6855 20.6719C88.0931 21.3099 87.377 22.0163 86.5371 22.791L84.7012 24.5195V24.6562H90.9219V27.1953Z" stroke="#FF0000" stroke-width="3.63851" stroke-linecap="round" mask="url(#path-4-outside-2_728_273)"/>
<path d="M102.367 27.1953H92.3867V25.0957L95.9707 21.4727C96.6934 20.7305 97.2728 20.112 97.709 19.6172C98.1517 19.1159 98.4707 18.6602 98.666 18.25C98.8678 17.8398 98.9688 17.4004 98.9688 16.9316C98.9688 16.3652 98.8092 15.9421 98.4902 15.6621C98.1777 15.3757 97.7578 15.2324 97.2305 15.2324C96.6771 15.2324 96.14 15.3594 95.6191 15.6133C95.0983 15.8672 94.5547 16.2285 93.9883 16.6973L92.3477 14.7539C92.7578 14.4023 93.1908 14.0703 93.6465 13.7578C94.1087 13.4453 94.6426 13.1947 95.248 13.0059C95.86 12.8105 96.5924 12.7129 97.4453 12.7129C98.3828 12.7129 99.1869 12.8822 99.8574 13.2207C100.535 13.5592 101.055 14.0215 101.42 14.6074C101.785 15.1868 101.967 15.8444 101.967 16.5801C101.967 17.3678 101.811 18.0872 101.498 18.7383C101.186 19.3893 100.73 20.0339 100.131 20.6719C99.5384 21.3099 98.8223 22.0163 97.9824 22.791L96.1465 24.5195V24.6562H102.367V27.1953Z" stroke="#FF0000" stroke-width="3.63851" stroke-linecap="round" mask="url(#path-4-outside-2_728_273)"/>
</g>
<g style="mix-blend-mode:hard-light" filter="url(#filter4_ddi_728_273)">
<mask id="path-5-outside-3_728_273" maskUnits="userSpaceOnUse" x="17.6328" y="10" width="87" height="24" fill="black">
<rect fill="white" x="17.6328" y="10" width="87" height="24"/>
<path d="M22.6113 27.1953H19.6328V12.918H27.8164V15.3984H22.6113V19.0801H27.4551V21.5508H22.6113V27.1953Z"/>
<path d="M36.4688 16.0723C36.6185 16.0723 36.791 16.082 36.9863 16.1016C37.1882 16.1146 37.3509 16.1341 37.4746 16.1602L37.25 18.9531C37.1523 18.9206 37.0124 18.8978 36.8301 18.8848C36.6543 18.8652 36.5013 18.8555 36.3711 18.8555C35.987 18.8555 35.6126 18.9043 35.248 19.002C34.89 19.0996 34.5677 19.2591 34.2812 19.4805C33.9948 19.6953 33.7669 19.9818 33.5977 20.3398C33.4349 20.6914 33.3535 21.1243 33.3535 21.6387V27.1953H30.375V16.2773H32.6309L33.0703 18.1133H33.2168C33.4316 17.7422 33.6986 17.4036 34.0176 17.0977C34.3431 16.7852 34.7109 16.5378 35.1211 16.3555C35.5378 16.1667 35.987 16.0723 36.4688 16.0723Z"/>
<path d="M42.4355 16.2773V27.1953H39.457V16.2773H42.4355ZM40.9512 12C41.3939 12 41.7747 12.1042 42.0938 12.3125C42.4128 12.5143 42.5723 12.8952 42.5723 13.4551C42.5723 14.0085 42.4128 14.3926 42.0938 14.6074C41.7747 14.8158 41.3939 14.9199 40.9512 14.9199C40.502 14.9199 40.1178 14.8158 39.7988 14.6074C39.4863 14.3926 39.3301 14.0085 39.3301 13.4551C39.3301 12.8952 39.4863 12.5143 39.7988 12.3125C40.1178 12.1042 40.502 12 40.9512 12Z"/>
<path d="M49.0273 27.3906C47.8099 27.3906 46.8171 26.9154 46.0488 25.9648C45.2871 25.0078 44.9062 23.6048 44.9062 21.7559C44.9062 19.8874 45.2936 18.4746 46.0684 17.5176C46.8431 16.554 47.8555 16.0723 49.1055 16.0723C49.6263 16.0723 50.0853 16.1439 50.4824 16.2871C50.8796 16.4303 51.2214 16.6224 51.5078 16.8633C51.8008 17.1042 52.0482 17.3743 52.25 17.6738H52.3477C52.3086 17.4655 52.2598 17.1595 52.2012 16.7559C52.1491 16.3457 52.123 15.9258 52.123 15.4961V12H55.1113V27.1953H52.8262L52.25 25.7793H52.123C51.9342 26.0788 51.6966 26.3522 51.4102 26.5996C51.1302 26.8405 50.7949 27.0326 50.4043 27.1758C50.0137 27.319 49.5547 27.3906 49.0273 27.3906ZM50.0723 25.0176C50.8861 25.0176 51.459 24.7767 51.791 24.2949C52.1296 23.8066 52.3086 23.0742 52.3281 22.0977V21.7754C52.3281 20.7142 52.1654 19.9036 51.8398 19.3438C51.5143 18.7773 50.9089 18.4941 50.0234 18.4941C49.3659 18.4941 48.8516 18.7773 48.4805 19.3438C48.1094 19.9102 47.9238 20.7272 47.9238 21.7949C47.9238 22.8626 48.1094 23.6667 48.4805 24.207C48.8581 24.7474 49.3887 25.0176 50.0723 25.0176Z"/>
<path d="M62.6992 16.0527C64.1641 16.0527 65.2871 16.3717 66.0684 17.0098C66.8496 17.6478 67.2402 18.6178 67.2402 19.9199V27.1953H65.1602L64.584 25.7109H64.5059C64.1934 26.1016 63.8743 26.4206 63.5488 26.668C63.2233 26.9154 62.849 27.0977 62.4258 27.2148C62.0026 27.332 61.4883 27.3906 60.8828 27.3906C60.2383 27.3906 59.6589 27.2669 59.1445 27.0195C58.6367 26.7721 58.2363 26.3945 57.9434 25.8867C57.6504 25.3724 57.5039 24.7214 57.5039 23.9336C57.5039 22.7747 57.9108 21.9219 58.7246 21.375C59.5384 20.8216 60.7591 20.5156 62.3867 20.457L64.2812 20.3984V19.9199C64.2812 19.347 64.1315 18.9271 63.832 18.6602C63.5326 18.3932 63.1159 18.2598 62.582 18.2598C62.0547 18.2598 61.5371 18.3346 61.0293 18.4844C60.5215 18.6341 60.0137 18.8229 59.5059 19.0508L58.5195 17.0391C59.099 16.7331 59.7467 16.4922 60.4629 16.3164C61.1855 16.1406 61.931 16.0527 62.6992 16.0527ZM64.2812 22.1367L63.1289 22.1758C62.1654 22.2018 61.4948 22.3743 61.1172 22.6934C60.7461 23.0124 60.5605 23.4323 60.5605 23.9531C60.5605 24.4089 60.694 24.7344 60.9609 24.9297C61.2279 25.1185 61.5762 25.2129 62.0059 25.2129C62.6439 25.2129 63.181 25.0241 63.6172 24.6465C64.0599 24.2689 64.2812 23.7318 64.2812 23.0352V22.1367Z"/>
<path d="M68.7539 16.2773H72.0156L74.0762 22.4199C74.1413 22.6152 74.1966 22.8138 74.2422 23.0156C74.2878 23.2174 74.3268 23.4258 74.3594 23.6406C74.3919 23.8555 74.418 24.0801 74.4375 24.3145H74.4961C74.5352 23.9629 74.5872 23.6341 74.6523 23.3281C74.724 23.0221 74.8118 22.7194 74.916 22.4199L76.9375 16.2773H80.1309L75.5117 28.5918C75.2318 29.347 74.8672 29.9753 74.418 30.4766C73.9688 30.9844 73.4512 31.3652 72.8652 31.6191C72.2858 31.873 71.6478 32 70.9512 32C70.6126 32 70.3197 31.9805 70.0723 31.9414C69.8249 31.9089 69.6133 31.873 69.4375 31.834V29.4707C69.5742 29.5033 69.7467 29.5326 69.9551 29.5586C70.1634 29.5846 70.3815 29.5977 70.6094 29.5977C71.026 29.5977 71.3841 29.5098 71.6836 29.334C71.9831 29.1582 72.2337 28.9206 72.4355 28.6211C72.6374 28.3281 72.7969 28.0059 72.9141 27.6543L73.0898 27.1172L68.7539 16.2773Z"/>
<path d="M90.9219 27.1953H80.9414V25.0957L84.5254 21.4727C85.248 20.7305 85.8275 20.112 86.2637 19.6172C86.7064 19.1159 87.0254 18.6602 87.2207 18.25C87.4225 17.8398 87.5234 17.4004 87.5234 16.9316C87.5234 16.3652 87.3639 15.9421 87.0449 15.6621C86.7324 15.3757 86.3125 15.2324 85.7852 15.2324C85.2318 15.2324 84.6947 15.3594 84.1738 15.6133C83.653 15.8672 83.1094 16.2285 82.543 16.6973L80.9023 14.7539C81.3125 14.4023 81.7454 14.0703 82.2012 13.7578C82.6634 13.4453 83.1973 13.1947 83.8027 13.0059C84.4147 12.8105 85.1471 12.7129 86 12.7129C86.9375 12.7129 87.7415 12.8822 88.4121 13.2207C89.0892 13.5592 89.61 14.0215 89.9746 14.6074C90.3392 15.1868 90.5215 15.8444 90.5215 16.5801C90.5215 17.3678 90.3652 18.0872 90.0527 18.7383C89.7402 19.3893 89.2845 20.0339 88.6855 20.6719C88.0931 21.3099 87.377 22.0163 86.5371 22.791L84.7012 24.5195V24.6562H90.9219V27.1953Z"/>
<path d="M102.367 27.1953H92.3867V25.0957L95.9707 21.4727C96.6934 20.7305 97.2728 20.112 97.709 19.6172C98.1517 19.1159 98.4707 18.6602 98.666 18.25C98.8678 17.8398 98.9688 17.4004 98.9688 16.9316C98.9688 16.3652 98.8092 15.9421 98.4902 15.6621C98.1777 15.3757 97.7578 15.2324 97.2305 15.2324C96.6771 15.2324 96.14 15.3594 95.6191 15.6133C95.0983 15.8672 94.5547 16.2285 93.9883 16.6973L92.3477 14.7539C92.7578 14.4023 93.1908 14.0703 93.6465 13.7578C94.1087 13.4453 94.6426 13.1947 95.248 13.0059C95.86 12.8105 96.5924 12.7129 97.4453 12.7129C98.3828 12.7129 99.1869 12.8822 99.8574 13.2207C100.535 13.5592 101.055 14.0215 101.42 14.6074C101.785 15.1868 101.967 15.8444 101.967 16.5801C101.967 17.3678 101.811 18.0872 101.498 18.7383C101.186 19.3893 100.73 20.0339 100.131 20.6719C99.5384 21.3099 98.8223 22.0163 97.9824 22.791L96.1465 24.5195V24.6562H102.367V27.1953Z"/>
</mask>
<path d="M22.6113 27.1953H19.6328V12.918H27.8164V15.3984H22.6113V19.0801H27.4551V21.5508H22.6113V27.1953Z" stroke="#FF0000" stroke-opacity="0.2" stroke-width="2.78239" stroke-linecap="round" mask="url(#path-5-outside-3_728_273)"/>
<path d="M36.4688 16.0723C36.6185 16.0723 36.791 16.082 36.9863 16.1016C37.1882 16.1146 37.3509 16.1341 37.4746 16.1602L37.25 18.9531C37.1523 18.9206 37.0124 18.8978 36.8301 18.8848C36.6543 18.8652 36.5013 18.8555 36.3711 18.8555C35.987 18.8555 35.6126 18.9043 35.248 19.002C34.89 19.0996 34.5677 19.2591 34.2812 19.4805C33.9948 19.6953 33.7669 19.9818 33.5977 20.3398C33.4349 20.6914 33.3535 21.1243 33.3535 21.6387V27.1953H30.375V16.2773H32.6309L33.0703 18.1133H33.2168C33.4316 17.7422 33.6986 17.4036 34.0176 17.0977C34.3431 16.7852 34.7109 16.5378 35.1211 16.3555C35.5378 16.1667 35.987 16.0723 36.4688 16.0723Z" stroke="#FF0000" stroke-opacity="0.2" stroke-width="2.78239" stroke-linecap="round" mask="url(#path-5-outside-3_728_273)"/>
<path d="M42.4355 16.2773V27.1953H39.457V16.2773H42.4355ZM40.9512 12C41.3939 12 41.7747 12.1042 42.0938 12.3125C42.4128 12.5143 42.5723 12.8952 42.5723 13.4551C42.5723 14.0085 42.4128 14.3926 42.0938 14.6074C41.7747 14.8158 41.3939 14.9199 40.9512 14.9199C40.502 14.9199 40.1178 14.8158 39.7988 14.6074C39.4863 14.3926 39.3301 14.0085 39.3301 13.4551C39.3301 12.8952 39.4863 12.5143 39.7988 12.3125C40.1178 12.1042 40.502 12 40.9512 12Z" stroke="#FF0000" stroke-opacity="0.2" stroke-width="2.78239" stroke-linecap="round" mask="url(#path-5-outside-3_728_273)"/>
<path d="M49.0273 27.3906C47.8099 27.3906 46.8171 26.9154 46.0488 25.9648C45.2871 25.0078 44.9062 23.6048 44.9062 21.7559C44.9062 19.8874 45.2936 18.4746 46.0684 17.5176C46.8431 16.554 47.8555 16.0723 49.1055 16.0723C49.6263 16.0723 50.0853 16.1439 50.4824 16.2871C50.8796 16.4303 51.2214 16.6224 51.5078 16.8633C51.8008 17.1042 52.0482 17.3743 52.25 17.6738H52.3477C52.3086 17.4655 52.2598 17.1595 52.2012 16.7559C52.1491 16.3457 52.123 15.9258 52.123 15.4961V12H55.1113V27.1953H52.8262L52.25 25.7793H52.123C51.9342 26.0788 51.6966 26.3522 51.4102 26.5996C51.1302 26.8405 50.7949 27.0326 50.4043 27.1758C50.0137 27.319 49.5547 27.3906 49.0273 27.3906ZM50.0723 25.0176C50.8861 25.0176 51.459 24.7767 51.791 24.2949C52.1296 23.8066 52.3086 23.0742 52.3281 22.0977V21.7754C52.3281 20.7142 52.1654 19.9036 51.8398 19.3438C51.5143 18.7773 50.9089 18.4941 50.0234 18.4941C49.3659 18.4941 48.8516 18.7773 48.4805 19.3438C48.1094 19.9102 47.9238 20.7272 47.9238 21.7949C47.9238 22.8626 48.1094 23.6667 48.4805 24.207C48.8581 24.7474 49.3887 25.0176 50.0723 25.0176Z" stroke="#FF0000" stroke-opacity="0.2" stroke-width="2.78239" stroke-linecap="round" mask="url(#path-5-outside-3_728_273)"/>
<path d="M62.6992 16.0527C64.1641 16.0527 65.2871 16.3717 66.0684 17.0098C66.8496 17.6478 67.2402 18.6178 67.2402 19.9199V27.1953H65.1602L64.584 25.7109H64.5059C64.1934 26.1016 63.8743 26.4206 63.5488 26.668C63.2233 26.9154 62.849 27.0977 62.4258 27.2148C62.0026 27.332 61.4883 27.3906 60.8828 27.3906C60.2383 27.3906 59.6589 27.2669 59.1445 27.0195C58.6367 26.7721 58.2363 26.3945 57.9434 25.8867C57.6504 25.3724 57.5039 24.7214 57.5039 23.9336C57.5039 22.7747 57.9108 21.9219 58.7246 21.375C59.5384 20.8216 60.7591 20.5156 62.3867 20.457L64.2812 20.3984V19.9199C64.2812 19.347 64.1315 18.9271 63.832 18.6602C63.5326 18.3932 63.1159 18.2598 62.582 18.2598C62.0547 18.2598 61.5371 18.3346 61.0293 18.4844C60.5215 18.6341 60.0137 18.8229 59.5059 19.0508L58.5195 17.0391C59.099 16.7331 59.7467 16.4922 60.4629 16.3164C61.1855 16.1406 61.931 16.0527 62.6992 16.0527ZM64.2812 22.1367L63.1289 22.1758C62.1654 22.2018 61.4948 22.3743 61.1172 22.6934C60.7461 23.0124 60.5605 23.4323 60.5605 23.9531C60.5605 24.4089 60.694 24.7344 60.9609 24.9297C61.2279 25.1185 61.5762 25.2129 62.0059 25.2129C62.6439 25.2129 63.181 25.0241 63.6172 24.6465C64.0599 24.2689 64.2812 23.7318 64.2812 23.0352V22.1367Z" stroke="#FF0000" stroke-opacity="0.2" stroke-width="2.78239" stroke-linecap="round" mask="url(#path-5-outside-3_728_273)"/>
<path d="M68.7539 16.2773H72.0156L74.0762 22.4199C74.1413 22.6152 74.1966 22.8138 74.2422 23.0156C74.2878 23.2174 74.3268 23.4258 74.3594 23.6406C74.3919 23.8555 74.418 24.0801 74.4375 24.3145H74.4961C74.5352 23.9629 74.5872 23.6341 74.6523 23.3281C74.724 23.0221 74.8118 22.7194 74.916 22.4199L76.9375 16.2773H80.1309L75.5117 28.5918C75.2318 29.347 74.8672 29.9753 74.418 30.4766C73.9688 30.9844 73.4512 31.3652 72.8652 31.6191C72.2858 31.873 71.6478 32 70.9512 32C70.6126 32 70.3197 31.9805 70.0723 31.9414C69.8249 31.9089 69.6133 31.873 69.4375 31.834V29.4707C69.5742 29.5033 69.7467 29.5326 69.9551 29.5586C70.1634 29.5846 70.3815 29.5977 70.6094 29.5977C71.026 29.5977 71.3841 29.5098 71.6836 29.334C71.9831 29.1582 72.2337 28.9206 72.4355 28.6211C72.6374 28.3281 72.7969 28.0059 72.9141 27.6543L73.0898 27.1172L68.7539 16.2773Z" stroke="#FF0000" stroke-opacity="0.2" stroke-width="2.78239" stroke-linecap="round" mask="url(#path-5-outside-3_728_273)"/>
<path d="M90.9219 27.1953H80.9414V25.0957L84.5254 21.4727C85.248 20.7305 85.8275 20.112 86.2637 19.6172C86.7064 19.1159 87.0254 18.6602 87.2207 18.25C87.4225 17.8398 87.5234 17.4004 87.5234 16.9316C87.5234 16.3652 87.3639 15.9421 87.0449 15.6621C86.7324 15.3757 86.3125 15.2324 85.7852 15.2324C85.2318 15.2324 84.6947 15.3594 84.1738 15.6133C83.653 15.8672 83.1094 16.2285 82.543 16.6973L80.9023 14.7539C81.3125 14.4023 81.7454 14.0703 82.2012 13.7578C82.6634 13.4453 83.1973 13.1947 83.8027 13.0059C84.4147 12.8105 85.1471 12.7129 86 12.7129C86.9375 12.7129 87.7415 12.8822 88.4121 13.2207C89.0892 13.5592 89.61 14.0215 89.9746 14.6074C90.3392 15.1868 90.5215 15.8444 90.5215 16.5801C90.5215 17.3678 90.3652 18.0872 90.0527 18.7383C89.7402 19.3893 89.2845 20.0339 88.6855 20.6719C88.0931 21.3099 87.377 22.0163 86.5371 22.791L84.7012 24.5195V24.6562H90.9219V27.1953Z" stroke="#FF0000" stroke-opacity="0.2" stroke-width="2.78239" stroke-linecap="round" mask="url(#path-5-outside-3_728_273)"/>
<path d="M102.367 27.1953H92.3867V25.0957L95.9707 21.4727C96.6934 20.7305 97.2728 20.112 97.709 19.6172C98.1517 19.1159 98.4707 18.6602 98.666 18.25C98.8678 17.8398 98.9688 17.4004 98.9688 16.9316C98.9688 16.3652 98.8092 15.9421 98.4902 15.6621C98.1777 15.3757 97.7578 15.2324 97.2305 15.2324C96.6771 15.2324 96.14 15.3594 95.6191 15.6133C95.0983 15.8672 94.5547 16.2285 93.9883 16.6973L92.3477 14.7539C92.7578 14.4023 93.1908 14.0703 93.6465 13.7578C94.1087 13.4453 94.6426 13.1947 95.248 13.0059C95.86 12.8105 96.5924 12.7129 97.4453 12.7129C98.3828 12.7129 99.1869 12.8822 99.8574 13.2207C100.535 13.5592 101.055 14.0215 101.42 14.6074C101.785 15.1868 101.967 15.8444 101.967 16.5801C101.967 17.3678 101.811 18.0872 101.498 18.7383C101.186 19.3893 100.73 20.0339 100.131 20.6719C99.5384 21.3099 98.8223 22.0163 97.9824 22.791L96.1465 24.5195V24.6562H102.367V27.1953Z" stroke="#FF0000" stroke-opacity="0.2" stroke-width="2.78239" stroke-linecap="round" mask="url(#path-5-outside-3_728_273)"/>
</g>
<g filter="url(#filter5_f_728_273)">
<mask id="path-6-outside-4_728_273" maskUnits="userSpaceOnUse" x="18.6328" y="11" width="85" height="22" fill="black">
<rect fill="white" x="18.6328" y="11" width="85" height="22"/>
<path d="M22.6113 27.1953H19.6328V12.918H27.8164V15.3984H22.6113V19.0801H27.4551V21.5508H22.6113V27.1953Z"/>
<path d="M36.4688 16.0723C36.6185 16.0723 36.791 16.082 36.9863 16.1016C37.1882 16.1146 37.3509 16.1341 37.4746 16.1602L37.25 18.9531C37.1523 18.9206 37.0124 18.8978 36.8301 18.8848C36.6543 18.8652 36.5013 18.8555 36.3711 18.8555C35.987 18.8555 35.6126 18.9043 35.248 19.002C34.89 19.0996 34.5677 19.2591 34.2812 19.4805C33.9948 19.6953 33.7669 19.9818 33.5977 20.3398C33.4349 20.6914 33.3535 21.1243 33.3535 21.6387V27.1953H30.375V16.2773H32.6309L33.0703 18.1133H33.2168C33.4316 17.7422 33.6986 17.4036 34.0176 17.0977C34.3431 16.7852 34.7109 16.5378 35.1211 16.3555C35.5378 16.1667 35.987 16.0723 36.4688 16.0723Z"/>
<path d="M42.4355 16.2773V27.1953H39.457V16.2773H42.4355ZM40.9512 12C41.3939 12 41.7747 12.1042 42.0938 12.3125C42.4128 12.5143 42.5723 12.8952 42.5723 13.4551C42.5723 14.0085 42.4128 14.3926 42.0938 14.6074C41.7747 14.8158 41.3939 14.9199 40.9512 14.9199C40.502 14.9199 40.1178 14.8158 39.7988 14.6074C39.4863 14.3926 39.3301 14.0085 39.3301 13.4551C39.3301 12.8952 39.4863 12.5143 39.7988 12.3125C40.1178 12.1042 40.502 12 40.9512 12Z"/>
<path d="M49.0273 27.3906C47.8099 27.3906 46.8171 26.9154 46.0488 25.9648C45.2871 25.0078 44.9062 23.6048 44.9062 21.7559C44.9062 19.8874 45.2936 18.4746 46.0684 17.5176C46.8431 16.554 47.8555 16.0723 49.1055 16.0723C49.6263 16.0723 50.0853 16.1439 50.4824 16.2871C50.8796 16.4303 51.2214 16.6224 51.5078 16.8633C51.8008 17.1042 52.0482 17.3743 52.25 17.6738H52.3477C52.3086 17.4655 52.2598 17.1595 52.2012 16.7559C52.1491 16.3457 52.123 15.9258 52.123 15.4961V12H55.1113V27.1953H52.8262L52.25 25.7793H52.123C51.9342 26.0788 51.6966 26.3522 51.4102 26.5996C51.1302 26.8405 50.7949 27.0326 50.4043 27.1758C50.0137 27.319 49.5547 27.3906 49.0273 27.3906ZM50.0723 25.0176C50.8861 25.0176 51.459 24.7767 51.791 24.2949C52.1296 23.8066 52.3086 23.0742 52.3281 22.0977V21.7754C52.3281 20.7142 52.1654 19.9036 51.8398 19.3438C51.5143 18.7773 50.9089 18.4941 50.0234 18.4941C49.3659 18.4941 48.8516 18.7773 48.4805 19.3438C48.1094 19.9102 47.9238 20.7272 47.9238 21.7949C47.9238 22.8626 48.1094 23.6667 48.4805 24.207C48.8581 24.7474 49.3887 25.0176 50.0723 25.0176Z"/>
<path d="M62.6992 16.0527C64.1641 16.0527 65.2871 16.3717 66.0684 17.0098C66.8496 17.6478 67.2402 18.6178 67.2402 19.9199V27.1953H65.1602L64.584 25.7109H64.5059C64.1934 26.1016 63.8743 26.4206 63.5488 26.668C63.2233 26.9154 62.849 27.0977 62.4258 27.2148C62.0026 27.332 61.4883 27.3906 60.8828 27.3906C60.2383 27.3906 59.6589 27.2669 59.1445 27.0195C58.6367 26.7721 58.2363 26.3945 57.9434 25.8867C57.6504 25.3724 57.5039 24.7214 57.5039 23.9336C57.5039 22.7747 57.9108 21.9219 58.7246 21.375C59.5384 20.8216 60.7591 20.5156 62.3867 20.457L64.2812 20.3984V19.9199C64.2812 19.347 64.1315 18.9271 63.832 18.6602C63.5326 18.3932 63.1159 18.2598 62.582 18.2598C62.0547 18.2598 61.5371 18.3346 61.0293 18.4844C60.5215 18.6341 60.0137 18.8229 59.5059 19.0508L58.5195 17.0391C59.099 16.7331 59.7467 16.4922 60.4629 16.3164C61.1855 16.1406 61.931 16.0527 62.6992 16.0527ZM64.2812 22.1367L63.1289 22.1758C62.1654 22.2018 61.4948 22.3743 61.1172 22.6934C60.7461 23.0124 60.5605 23.4323 60.5605 23.9531C60.5605 24.4089 60.694 24.7344 60.9609 24.9297C61.2279 25.1185 61.5762 25.2129 62.0059 25.2129C62.6439 25.2129 63.181 25.0241 63.6172 24.6465C64.0599 24.2689 64.2812 23.7318 64.2812 23.0352V22.1367Z"/>
<path d="M68.7539 16.2773H72.0156L74.0762 22.4199C74.1413 22.6152 74.1966 22.8138 74.2422 23.0156C74.2878 23.2174 74.3268 23.4258 74.3594 23.6406C74.3919 23.8555 74.418 24.0801 74.4375 24.3145H74.4961C74.5352 23.9629 74.5872 23.6341 74.6523 23.3281C74.724 23.0221 74.8118 22.7194 74.916 22.4199L76.9375 16.2773H80.1309L75.5117 28.5918C75.2318 29.347 74.8672 29.9753 74.418 30.4766C73.9688 30.9844 73.4512 31.3652 72.8652 31.6191C72.2858 31.873 71.6478 32 70.9512 32C70.6126 32 70.3197 31.9805 70.0723 31.9414C69.8249 31.9089 69.6133 31.873 69.4375 31.834V29.4707C69.5742 29.5033 69.7467 29.5326 69.9551 29.5586C70.1634 29.5846 70.3815 29.5977 70.6094 29.5977C71.026 29.5977 71.3841 29.5098 71.6836 29.334C71.9831 29.1582 72.2337 28.9206 72.4355 28.6211C72.6374 28.3281 72.7969 28.0059 72.9141 27.6543L73.0898 27.1172L68.7539 16.2773Z"/>
<path d="M90.9219 27.1953H80.9414V25.0957L84.5254 21.4727C85.248 20.7305 85.8275 20.112 86.2637 19.6172C86.7064 19.1159 87.0254 18.6602 87.2207 18.25C87.4225 17.8398 87.5234 17.4004 87.5234 16.9316C87.5234 16.3652 87.3639 15.9421 87.0449 15.6621C86.7324 15.3757 86.3125 15.2324 85.7852 15.2324C85.2318 15.2324 84.6947 15.3594 84.1738 15.6133C83.653 15.8672 83.1094 16.2285 82.543 16.6973L80.9023 14.7539C81.3125 14.4023 81.7454 14.0703 82.2012 13.7578C82.6634 13.4453 83.1973 13.1947 83.8027 13.0059C84.4147 12.8105 85.1471 12.7129 86 12.7129C86.9375 12.7129 87.7415 12.8822 88.4121 13.2207C89.0892 13.5592 89.61 14.0215 89.9746 14.6074C90.3392 15.1868 90.5215 15.8444 90.5215 16.5801C90.5215 17.3678 90.3652 18.0872 90.0527 18.7383C89.7402 19.3893 89.2845 20.0339 88.6855 20.6719C88.0931 21.3099 87.377 22.0163 86.5371 22.791L84.7012 24.5195V24.6562H90.9219V27.1953Z"/>
<path d="M102.367 27.1953H92.3867V25.0957L95.9707 21.4727C96.6934 20.7305 97.2728 20.112 97.709 19.6172C98.1517 19.1159 98.4707 18.6602 98.666 18.25C98.8678 17.8398 98.9688 17.4004 98.9688 16.9316C98.9688 16.3652 98.8092 15.9421 98.4902 15.6621C98.1777 15.3757 97.7578 15.2324 97.2305 15.2324C96.6771 15.2324 96.14 15.3594 95.6191 15.6133C95.0983 15.8672 94.5547 16.2285 93.9883 16.6973L92.3477 14.7539C92.7578 14.4023 93.1908 14.0703 93.6465 13.7578C94.1087 13.4453 94.6426 13.1947 95.248 13.0059C95.86 12.8105 96.5924 12.7129 97.4453 12.7129C98.3828 12.7129 99.1869 12.8822 99.8574 13.2207C100.535 13.5592 101.055 14.0215 101.42 14.6074C101.785 15.1868 101.967 15.8444 101.967 16.5801C101.967 17.3678 101.811 18.0872 101.498 18.7383C101.186 19.3893 100.73 20.0339 100.131 20.6719C99.5384 21.3099 98.8223 22.0163 97.9824 22.791L96.1465 24.5195V24.6562H102.367V27.1953Z"/>
</mask>
<path d="M22.6113 27.1953H19.6328V12.918H27.8164V15.3984H22.6113V19.0801H27.4551V21.5508H22.6113V27.1953Z" stroke="#FF9983" stroke-width="1.71224" stroke-linecap="round" mask="url(#path-6-outside-4_728_273)"/>
<path d="M36.4688 16.0723C36.6185 16.0723 36.791 16.082 36.9863 16.1016C37.1882 16.1146 37.3509 16.1341 37.4746 16.1602L37.25 18.9531C37.1523 18.9206 37.0124 18.8978 36.8301 18.8848C36.6543 18.8652 36.5013 18.8555 36.3711 18.8555C35.987 18.8555 35.6126 18.9043 35.248 19.002C34.89 19.0996 34.5677 19.2591 34.2812 19.4805C33.9948 19.6953 33.7669 19.9818 33.5977 20.3398C33.4349 20.6914 33.3535 21.1243 33.3535 21.6387V27.1953H30.375V16.2773H32.6309L33.0703 18.1133H33.2168C33.4316 17.7422 33.6986 17.4036 34.0176 17.0977C34.3431 16.7852 34.7109 16.5378 35.1211 16.3555C35.5378 16.1667 35.987 16.0723 36.4688 16.0723Z" stroke="#FF9983" stroke-width="1.71224" stroke-linecap="round" mask="url(#path-6-outside-4_728_273)"/>
<path d="M42.4355 16.2773V27.1953H39.457V16.2773H42.4355ZM40.9512 12C41.3939 12 41.7747 12.1042 42.0938 12.3125C42.4128 12.5143 42.5723 12.8952 42.5723 13.4551C42.5723 14.0085 42.4128 14.3926 42.0938 14.6074C41.7747 14.8158 41.3939 14.9199 40.9512 14.9199C40.502 14.9199 40.1178 14.8158 39.7988 14.6074C39.4863 14.3926 39.3301 14.0085 39.3301 13.4551C39.3301 12.8952 39.4863 12.5143 39.7988 12.3125C40.1178 12.1042 40.502 12 40.9512 12Z" stroke="#FF9983" stroke-width="1.71224" stroke-linecap="round" mask="url(#path-6-outside-4_728_273)"/>
<path d="M49.0273 27.3906C47.8099 27.3906 46.8171 26.9154 46.0488 25.9648C45.2871 25.0078 44.9062 23.6048 44.9062 21.7559C44.9062 19.8874 45.2936 18.4746 46.0684 17.5176C46.8431 16.554 47.8555 16.0723 49.1055 16.0723C49.6263 16.0723 50.0853 16.1439 50.4824 16.2871C50.8796 16.4303 51.2214 16.6224 51.5078 16.8633C51.8008 17.1042 52.0482 17.3743 52.25 17.6738H52.3477C52.3086 17.4655 52.2598 17.1595 52.2012 16.7559C52.1491 16.3457 52.123 15.9258 52.123 15.4961V12H55.1113V27.1953H52.8262L52.25 25.7793H52.123C51.9342 26.0788 51.6966 26.3522 51.4102 26.5996C51.1302 26.8405 50.7949 27.0326 50.4043 27.1758C50.0137 27.319 49.5547 27.3906 49.0273 27.3906ZM50.0723 25.0176C50.8861 25.0176 51.459 24.7767 51.791 24.2949C52.1296 23.8066 52.3086 23.0742 52.3281 22.0977V21.7754C52.3281 20.7142 52.1654 19.9036 51.8398 19.3438C51.5143 18.7773 50.9089 18.4941 50.0234 18.4941C49.3659 18.4941 48.8516 18.7773 48.4805 19.3438C48.1094 19.9102 47.9238 20.7272 47.9238 21.7949C47.9238 22.8626 48.1094 23.6667 48.4805 24.207C48.8581 24.7474 49.3887 25.0176 50.0723 25.0176Z" stroke="#FF9983" stroke-width="1.71224" stroke-linecap="round" mask="url(#path-6-outside-4_728_273)"/>
<path d="M62.6992 16.0527C64.1641 16.0527 65.2871 16.3717 66.0684 17.0098C66.8496 17.6478 67.2402 18.6178 67.2402 19.9199V27.1953H65.1602L64.584 25.7109H64.5059C64.1934 26.1016 63.8743 26.4206 63.5488 26.668C63.2233 26.9154 62.849 27.0977 62.4258 27.2148C62.0026 27.332 61.4883 27.3906 60.8828 27.3906C60.2383 27.3906 59.6589 27.2669 59.1445 27.0195C58.6367 26.7721 58.2363 26.3945 57.9434 25.8867C57.6504 25.3724 57.5039 24.7214 57.5039 23.9336C57.5039 22.7747 57.9108 21.9219 58.7246 21.375C59.5384 20.8216 60.7591 20.5156 62.3867 20.457L64.2812 20.3984V19.9199C64.2812 19.347 64.1315 18.9271 63.832 18.6602C63.5326 18.3932 63.1159 18.2598 62.582 18.2598C62.0547 18.2598 61.5371 18.3346 61.0293 18.4844C60.5215 18.6341 60.0137 18.8229 59.5059 19.0508L58.5195 17.0391C59.099 16.7331 59.7467 16.4922 60.4629 16.3164C61.1855 16.1406 61.931 16.0527 62.6992 16.0527ZM64.2812 22.1367L63.1289 22.1758C62.1654 22.2018 61.4948 22.3743 61.1172 22.6934C60.7461 23.0124 60.5605 23.4323 60.5605 23.9531C60.5605 24.4089 60.694 24.7344 60.9609 24.9297C61.2279 25.1185 61.5762 25.2129 62.0059 25.2129C62.6439 25.2129 63.181 25.0241 63.6172 24.6465C64.0599 24.2689 64.2812 23.7318 64.2812 23.0352V22.1367Z" stroke="#FF9983" stroke-width="1.71224" stroke-linecap="round" mask="url(#path-6-outside-4_728_273)"/>
<path d="M68.7539 16.2773H72.0156L74.0762 22.4199C74.1413 22.6152 74.1966 22.8138 74.2422 23.0156C74.2878 23.2174 74.3268 23.4258 74.3594 23.6406C74.3919 23.8555 74.418 24.0801 74.4375 24.3145H74.4961C74.5352 23.9629 74.5872 23.6341 74.6523 23.3281C74.724 23.0221 74.8118 22.7194 74.916 22.4199L76.9375 16.2773H80.1309L75.5117 28.5918C75.2318 29.347 74.8672 29.9753 74.418 30.4766C73.9688 30.9844 73.4512 31.3652 72.8652 31.6191C72.2858 31.873 71.6478 32 70.9512 32C70.6126 32 70.3197 31.9805 70.0723 31.9414C69.8249 31.9089 69.6133 31.873 69.4375 31.834V29.4707C69.5742 29.5033 69.7467 29.5326 69.9551 29.5586C70.1634 29.5846 70.3815 29.5977 70.6094 29.5977C71.026 29.5977 71.3841 29.5098 71.6836 29.334C71.9831 29.1582 72.2337 28.9206 72.4355 28.6211C72.6374 28.3281 72.7969 28.0059 72.9141 27.6543L73.0898 27.1172L68.7539 16.2773Z" stroke="#FF9983" stroke-width="1.71224" stroke-linecap="round" mask="url(#path-6-outside-4_728_273)"/>
<path d="M90.9219 27.1953H80.9414V25.0957L84.5254 21.4727C85.248 20.7305 85.8275 20.112 86.2637 19.6172C86.7064 19.1159 87.0254 18.6602 87.2207 18.25C87.4225 17.8398 87.5234 17.4004 87.5234 16.9316C87.5234 16.3652 87.3639 15.9421 87.0449 15.6621C86.7324 15.3757 86.3125 15.2324 85.7852 15.2324C85.2318 15.2324 84.6947 15.3594 84.1738 15.6133C83.653 15.8672 83.1094 16.2285 82.543 16.6973L80.9023 14.7539C81.3125 14.4023 81.7454 14.0703 82.2012 13.7578C82.6634 13.4453 83.1973 13.1947 83.8027 13.0059C84.4147 12.8105 85.1471 12.7129 86 12.7129C86.9375 12.7129 87.7415 12.8822 88.4121 13.2207C89.0892 13.5592 89.61 14.0215 89.9746 14.6074C90.3392 15.1868 90.5215 15.8444 90.5215 16.5801C90.5215 17.3678 90.3652 18.0872 90.0527 18.7383C89.7402 19.3893 89.2845 20.0339 88.6855 20.6719C88.0931 21.3099 87.377 22.0163 86.5371 22.791L84.7012 24.5195V24.6562H90.9219V27.1953Z" stroke="#FF9983" stroke-width="1.71224" stroke-linecap="round" mask="url(#path-6-outside-4_728_273)"/>
<path d="M102.367 27.1953H92.3867V25.0957L95.9707 21.4727C96.6934 20.7305 97.2728 20.112 97.709 19.6172C98.1517 19.1159 98.4707 18.6602 98.666 18.25C98.8678 17.8398 98.9688 17.4004 98.9688 16.9316C98.9688 16.3652 98.8092 15.9421 98.4902 15.6621C98.1777 15.3757 97.7578 15.2324 97.2305 15.2324C96.6771 15.2324 96.14 15.3594 95.6191 15.6133C95.0983 15.8672 94.5547 16.2285 93.9883 16.6973L92.3477 14.7539C92.7578 14.4023 93.1908 14.0703 93.6465 13.7578C94.1087 13.4453 94.6426 13.1947 95.248 13.0059C95.86 12.8105 96.5924 12.7129 97.4453 12.7129C98.3828 12.7129 99.1869 12.8822 99.8574 13.2207C100.535 13.5592 101.055 14.0215 101.42 14.6074C101.785 15.1868 101.967 15.8444 101.967 16.5801C101.967 17.3678 101.811 18.0872 101.498 18.7383C101.186 19.3893 100.73 20.0339 100.131 20.6719C99.5384 21.3099 98.8223 22.0163 97.9824 22.791L96.1465 24.5195V24.6562H102.367V27.1953Z" stroke="#FF9983" stroke-width="1.71224" stroke-linecap="round" mask="url(#path-6-outside-4_728_273)"/>
</g>
<g filter="url(#filter6_f_728_273)">
<mask id="path-7-outside-5_728_273" maskUnits="userSpaceOnUse" x="18.6328" y="11" width="85" height="22" fill="black">
<rect fill="white" x="18.6328" y="11" width="85" height="22"/>
<path d="M22.6113 27.1953H19.6328V12.918H27.8164V15.3984H22.6113V19.0801H27.4551V21.5508H22.6113V27.1953Z"/>
<path d="M36.4688 16.0723C36.6185 16.0723 36.791 16.082 36.9863 16.1016C37.1882 16.1146 37.3509 16.1341 37.4746 16.1602L37.25 18.9531C37.1523 18.9206 37.0124 18.8978 36.8301 18.8848C36.6543 18.8652 36.5013 18.8555 36.3711 18.8555C35.987 18.8555 35.6126 18.9043 35.248 19.002C34.89 19.0996 34.5677 19.2591 34.2812 19.4805C33.9948 19.6953 33.7669 19.9818 33.5977 20.3398C33.4349 20.6914 33.3535 21.1243 33.3535 21.6387V27.1953H30.375V16.2773H32.6309L33.0703 18.1133H33.2168C33.4316 17.7422 33.6986 17.4036 34.0176 17.0977C34.3431 16.7852 34.7109 16.5378 35.1211 16.3555C35.5378 16.1667 35.987 16.0723 36.4688 16.0723Z"/>
<path d="M42.4355 16.2773V27.1953H39.457V16.2773H42.4355ZM40.9512 12C41.3939 12 41.7747 12.1042 42.0938 12.3125C42.4128 12.5143 42.5723 12.8952 42.5723 13.4551C42.5723 14.0085 42.4128 14.3926 42.0938 14.6074C41.7747 14.8158 41.3939 14.9199 40.9512 14.9199C40.502 14.9199 40.1178 14.8158 39.7988 14.6074C39.4863 14.3926 39.3301 14.0085 39.3301 13.4551C39.3301 12.8952 39.4863 12.5143 39.7988 12.3125C40.1178 12.1042 40.502 12 40.9512 12Z"/>
<path d="M49.0273 27.3906C47.8099 27.3906 46.8171 26.9154 46.0488 25.9648C45.2871 25.0078 44.9062 23.6048 44.9062 21.7559C44.9062 19.8874 45.2936 18.4746 46.0684 17.5176C46.8431 16.554 47.8555 16.0723 49.1055 16.0723C49.6263 16.0723 50.0853 16.1439 50.4824 16.2871C50.8796 16.4303 51.2214 16.6224 51.5078 16.8633C51.8008 17.1042 52.0482 17.3743 52.25 17.6738H52.3477C52.3086 17.4655 52.2598 17.1595 52.2012 16.7559C52.1491 16.3457 52.123 15.9258 52.123 15.4961V12H55.1113V27.1953H52.8262L52.25 25.7793H52.123C51.9342 26.0788 51.6966 26.3522 51.4102 26.5996C51.1302 26.8405 50.7949 27.0326 50.4043 27.1758C50.0137 27.319 49.5547 27.3906 49.0273 27.3906ZM50.0723 25.0176C50.8861 25.0176 51.459 24.7767 51.791 24.2949C52.1296 23.8066 52.3086 23.0742 52.3281 22.0977V21.7754C52.3281 20.7142 52.1654 19.9036 51.8398 19.3438C51.5143 18.7773 50.9089 18.4941 50.0234 18.4941C49.3659 18.4941 48.8516 18.7773 48.4805 19.3438C48.1094 19.9102 47.9238 20.7272 47.9238 21.7949C47.9238 22.8626 48.1094 23.6667 48.4805 24.207C48.8581 24.7474 49.3887 25.0176 50.0723 25.0176Z"/>
<path d="M62.6992 16.0527C64.1641 16.0527 65.2871 16.3717 66.0684 17.0098C66.8496 17.6478 67.2402 18.6178 67.2402 19.9199V27.1953H65.1602L64.584 25.7109H64.5059C64.1934 26.1016 63.8743 26.4206 63.5488 26.668C63.2233 26.9154 62.849 27.0977 62.4258 27.2148C62.0026 27.332 61.4883 27.3906 60.8828 27.3906C60.2383 27.3906 59.6589 27.2669 59.1445 27.0195C58.6367 26.7721 58.2363 26.3945 57.9434 25.8867C57.6504 25.3724 57.5039 24.7214 57.5039 23.9336C57.5039 22.7747 57.9108 21.9219 58.7246 21.375C59.5384 20.8216 60.7591 20.5156 62.3867 20.457L64.2812 20.3984V19.9199C64.2812 19.347 64.1315 18.9271 63.832 18.6602C63.5326 18.3932 63.1159 18.2598 62.582 18.2598C62.0547 18.2598 61.5371 18.3346 61.0293 18.4844C60.5215 18.6341 60.0137 18.8229 59.5059 19.0508L58.5195 17.0391C59.099 16.7331 59.7467 16.4922 60.4629 16.3164C61.1855 16.1406 61.931 16.0527 62.6992 16.0527ZM64.2812 22.1367L63.1289 22.1758C62.1654 22.2018 61.4948 22.3743 61.1172 22.6934C60.7461 23.0124 60.5605 23.4323 60.5605 23.9531C60.5605 24.4089 60.694 24.7344 60.9609 24.9297C61.2279 25.1185 61.5762 25.2129 62.0059 25.2129C62.6439 25.2129 63.181 25.0241 63.6172 24.6465C64.0599 24.2689 64.2812 23.7318 64.2812 23.0352V22.1367Z"/>
<path d="M68.7539 16.2773H72.0156L74.0762 22.4199C74.1413 22.6152 74.1966 22.8138 74.2422 23.0156C74.2878 23.2174 74.3268 23.4258 74.3594 23.6406C74.3919 23.8555 74.418 24.0801 74.4375 24.3145H74.4961C74.5352 23.9629 74.5872 23.6341 74.6523 23.3281C74.724 23.0221 74.8118 22.7194 74.916 22.4199L76.9375 16.2773H80.1309L75.5117 28.5918C75.2318 29.347 74.8672 29.9753 74.418 30.4766C73.9688 30.9844 73.4512 31.3652 72.8652 31.6191C72.2858 31.873 71.6478 32 70.9512 32C70.6126 32 70.3197 31.9805 70.0723 31.9414C69.8249 31.9089 69.6133 31.873 69.4375 31.834V29.4707C69.5742 29.5033 69.7467 29.5326 69.9551 29.5586C70.1634 29.5846 70.3815 29.5977 70.6094 29.5977C71.026 29.5977 71.3841 29.5098 71.6836 29.334C71.9831 29.1582 72.2337 28.9206 72.4355 28.6211C72.6374 28.3281 72.7969 28.0059 72.9141 27.6543L73.0898 27.1172L68.7539 16.2773Z"/>
<path d="M90.9219 27.1953H80.9414V25.0957L84.5254 21.4727C85.248 20.7305 85.8275 20.112 86.2637 19.6172C86.7064 19.1159 87.0254 18.6602 87.2207 18.25C87.4225 17.8398 87.5234 17.4004 87.5234 16.9316C87.5234 16.3652 87.3639 15.9421 87.0449 15.6621C86.7324 15.3757 86.3125 15.2324 85.7852 15.2324C85.2318 15.2324 84.6947 15.3594 84.1738 15.6133C83.653 15.8672 83.1094 16.2285 82.543 16.6973L80.9023 14.7539C81.3125 14.4023 81.7454 14.0703 82.2012 13.7578C82.6634 13.4453 83.1973 13.1947 83.8027 13.0059C84.4147 12.8105 85.1471 12.7129 86 12.7129C86.9375 12.7129 87.7415 12.8822 88.4121 13.2207C89.0892 13.5592 89.61 14.0215 89.9746 14.6074C90.3392 15.1868 90.5215 15.8444 90.5215 16.5801C90.5215 17.3678 90.3652 18.0872 90.0527 18.7383C89.7402 19.3893 89.2845 20.0339 88.6855 20.6719C88.0931 21.3099 87.377 22.0163 86.5371 22.791L84.7012 24.5195V24.6562H90.9219V27.1953Z"/>
<path d="M102.367 27.1953H92.3867V25.0957L95.9707 21.4727C96.6934 20.7305 97.2728 20.112 97.709 19.6172C98.1517 19.1159 98.4707 18.6602 98.666 18.25C98.8678 17.8398 98.9688 17.4004 98.9688 16.9316C98.9688 16.3652 98.8092 15.9421 98.4902 15.6621C98.1777 15.3757 97.7578 15.2324 97.2305 15.2324C96.6771 15.2324 96.14 15.3594 95.6191 15.6133C95.0983 15.8672 94.5547 16.2285 93.9883 16.6973L92.3477 14.7539C92.7578 14.4023 93.1908 14.0703 93.6465 13.7578C94.1087 13.4453 94.6426 13.1947 95.248 13.0059C95.86 12.8105 96.5924 12.7129 97.4453 12.7129C98.3828 12.7129 99.1869 12.8822 99.8574 13.2207C100.535 13.5592 101.055 14.0215 101.42 14.6074C101.785 15.1868 101.967 15.8444 101.967 16.5801C101.967 17.3678 101.811 18.0872 101.498 18.7383C101.186 19.3893 100.73 20.0339 100.131 20.6719C99.5384 21.3099 98.8223 22.0163 97.9824 22.791L96.1465 24.5195V24.6562H102.367V27.1953Z"/>
</mask>
<path d="M22.6113 27.1953H19.6328V12.918H27.8164V15.3984H22.6113V19.0801H27.4551V21.5508H22.6113V27.1953Z" stroke="white" stroke-width="0.85612" stroke-linecap="round" mask="url(#path-7-outside-5_728_273)"/>
<path d="M36.4688 16.0723C36.6185 16.0723 36.791 16.082 36.9863 16.1016C37.1882 16.1146 37.3509 16.1341 37.4746 16.1602L37.25 18.9531C37.1523 18.9206 37.0124 18.8978 36.8301 18.8848C36.6543 18.8652 36.5013 18.8555 36.3711 18.8555C35.987 18.8555 35.6126 18.9043 35.248 19.002C34.89 19.0996 34.5677 19.2591 34.2812 19.4805C33.9948 19.6953 33.7669 19.9818 33.5977 20.3398C33.4349 20.6914 33.3535 21.1243 33.3535 21.6387V27.1953H30.375V16.2773H32.6309L33.0703 18.1133H33.2168C33.4316 17.7422 33.6986 17.4036 34.0176 17.0977C34.3431 16.7852 34.7109 16.5378 35.1211 16.3555C35.5378 16.1667 35.987 16.0723 36.4688 16.0723Z" stroke="white" stroke-width="0.85612" stroke-linecap="round" mask="url(#path-7-outside-5_728_273)"/>
<path d="M42.4355 16.2773V27.1953H39.457V16.2773H42.4355ZM40.9512 12C41.3939 12 41.7747 12.1042 42.0938 12.3125C42.4128 12.5143 42.5723 12.8952 42.5723 13.4551C42.5723 14.0085 42.4128 14.3926 42.0938 14.6074C41.7747 14.8158 41.3939 14.9199 40.9512 14.9199C40.502 14.9199 40.1178 14.8158 39.7988 14.6074C39.4863 14.3926 39.3301 14.0085 39.3301 13.4551C39.3301 12.8952 39.4863 12.5143 39.7988 12.3125C40.1178 12.1042 40.502 12 40.9512 12Z" stroke="white" stroke-width="0.85612" stroke-linecap="round" mask="url(#path-7-outside-5_728_273)"/>
<path d="M49.0273 27.3906C47.8099 27.3906 46.8171 26.9154 46.0488 25.9648C45.2871 25.0078 44.9062 23.6048 44.9062 21.7559C44.9062 19.8874 45.2936 18.4746 46.0684 17.5176C46.8431 16.554 47.8555 16.0723 49.1055 16.0723C49.6263 16.0723 50.0853 16.1439 50.4824 16.2871C50.8796 16.4303 51.2214 16.6224 51.5078 16.8633C51.8008 17.1042 52.0482 17.3743 52.25 17.6738H52.3477C52.3086 17.4655 52.2598 17.1595 52.2012 16.7559C52.1491 16.3457 52.123 15.9258 52.123 15.4961V12H55.1113V27.1953H52.8262L52.25 25.7793H52.123C51.9342 26.0788 51.6966 26.3522 51.4102 26.5996C51.1302 26.8405 50.7949 27.0326 50.4043 27.1758C50.0137 27.319 49.5547 27.3906 49.0273 27.3906ZM50.0723 25.0176C50.8861 25.0176 51.459 24.7767 51.791 24.2949C52.1296 23.8066 52.3086 23.0742 52.3281 22.0977V21.7754C52.3281 20.7142 52.1654 19.9036 51.8398 19.3438C51.5143 18.7773 50.9089 18.4941 50.0234 18.4941C49.3659 18.4941 48.8516 18.7773 48.4805 19.3438C48.1094 19.9102 47.9238 20.7272 47.9238 21.7949C47.9238 22.8626 48.1094 23.6667 48.4805 24.207C48.8581 24.7474 49.3887 25.0176 50.0723 25.0176Z" stroke="white" stroke-width="0.85612" stroke-linecap="round" mask="url(#path-7-outside-5_728_273)"/>
<path d="M62.6992 16.0527C64.1641 16.0527 65.2871 16.3717 66.0684 17.0098C66.8496 17.6478 67.2402 18.6178 67.2402 19.9199V27.1953H65.1602L64.584 25.7109H64.5059C64.1934 26.1016 63.8743 26.4206 63.5488 26.668C63.2233 26.9154 62.849 27.0977 62.4258 27.2148C62.0026 27.332 61.4883 27.3906 60.8828 27.3906C60.2383 27.3906 59.6589 27.2669 59.1445 27.0195C58.6367 26.7721 58.2363 26.3945 57.9434 25.8867C57.6504 25.3724 57.5039 24.7214 57.5039 23.9336C57.5039 22.7747 57.9108 21.9219 58.7246 21.375C59.5384 20.8216 60.7591 20.5156 62.3867 20.457L64.2812 20.3984V19.9199C64.2812 19.347 64.1315 18.9271 63.832 18.6602C63.5326 18.3932 63.1159 18.2598 62.582 18.2598C62.0547 18.2598 61.5371 18.3346 61.0293 18.4844C60.5215 18.6341 60.0137 18.8229 59.5059 19.0508L58.5195 17.0391C59.099 16.7331 59.7467 16.4922 60.4629 16.3164C61.1855 16.1406 61.931 16.0527 62.6992 16.0527ZM64.2812 22.1367L63.1289 22.1758C62.1654 22.2018 61.4948 22.3743 61.1172 22.6934C60.7461 23.0124 60.5605 23.4323 60.5605 23.9531C60.5605 24.4089 60.694 24.7344 60.9609 24.9297C61.2279 25.1185 61.5762 25.2129 62.0059 25.2129C62.6439 25.2129 63.181 25.0241 63.6172 24.6465C64.0599 24.2689 64.2812 23.7318 64.2812 23.0352V22.1367Z" stroke="white" stroke-width="0.85612" stroke-linecap="round" mask="url(#path-7-outside-5_728_273)"/>
<path d="M68.7539 16.2773H72.0156L74.0762 22.4199C74.1413 22.6152 74.1966 22.8138 74.2422 23.0156C74.2878 23.2174 74.3268 23.4258 74.3594 23.6406C74.3919 23.8555 74.418 24.0801 74.4375 24.3145H74.4961C74.5352 23.9629 74.5872 23.6341 74.6523 23.3281C74.724 23.0221 74.8118 22.7194 74.916 22.4199L76.9375 16.2773H80.1309L75.5117 28.5918C75.2318 29.347 74.8672 29.9753 74.418 30.4766C73.9688 30.9844 73.4512 31.3652 72.8652 31.6191C72.2858 31.873 71.6478 32 70.9512 32C70.6126 32 70.3197 31.9805 70.0723 31.9414C69.8249 31.9089 69.6133 31.873 69.4375 31.834V29.4707C69.5742 29.5033 69.7467 29.5326 69.9551 29.5586C70.1634 29.5846 70.3815 29.5977 70.6094 29.5977C71.026 29.5977 71.3841 29.5098 71.6836 29.334C71.9831 29.1582 72.2337 28.9206 72.4355 28.6211C72.6374 28.3281 72.7969 28.0059 72.9141 27.6543L73.0898 27.1172L68.7539 16.2773Z" stroke="white" stroke-width="0.85612" stroke-linecap="round" mask="url(#path-7-outside-5_728_273)"/>
<path d="M90.9219 27.1953H80.9414V25.0957L84.5254 21.4727C85.248 20.7305 85.8275 20.112 86.2637 19.6172C86.7064 19.1159 87.0254 18.6602 87.2207 18.25C87.4225 17.8398 87.5234 17.4004 87.5234 16.9316C87.5234 16.3652 87.3639 15.9421 87.0449 15.6621C86.7324 15.3757 86.3125 15.2324 85.7852 15.2324C85.2318 15.2324 84.6947 15.3594 84.1738 15.6133C83.653 15.8672 83.1094 16.2285 82.543 16.6973L80.9023 14.7539C81.3125 14.4023 81.7454 14.0703 82.2012 13.7578C82.6634 13.4453 83.1973 13.1947 83.8027 13.0059C84.4147 12.8105 85.1471 12.7129 86 12.7129C86.9375 12.7129 87.7415 12.8822 88.4121 13.2207C89.0892 13.5592 89.61 14.0215 89.9746 14.6074C90.3392 15.1868 90.5215 15.8444 90.5215 16.5801C90.5215 17.3678 90.3652 18.0872 90.0527 18.7383C89.7402 19.3893 89.2845 20.0339 88.6855 20.6719C88.0931 21.3099 87.377 22.0163 86.5371 22.791L84.7012 24.5195V24.6562H90.9219V27.1953Z" stroke="white" stroke-width="0.85612" stroke-linecap="round" mask="url(#path-7-outside-5_728_273)"/>
<path d="M102.367 27.1953H92.3867V25.0957L95.9707 21.4727C96.6934 20.7305 97.2728 20.112 97.709 19.6172C98.1517 19.1159 98.4707 18.6602 98.666 18.25C98.8678 17.8398 98.9688 17.4004 98.9688 16.9316C98.9688 16.3652 98.8092 15.9421 98.4902 15.6621C98.1777 15.3757 97.7578 15.2324 97.2305 15.2324C96.6771 15.2324 96.14 15.3594 95.6191 15.6133C95.0983 15.8672 94.5547 16.2285 93.9883 16.6973L92.3477 14.7539C92.7578 14.4023 93.1908 14.0703 93.6465 13.7578C94.1087 13.4453 94.6426 13.1947 95.248 13.0059C95.86 12.8105 96.5924 12.7129 97.4453 12.7129C98.3828 12.7129 99.1869 12.8822 99.8574 13.2207C100.535 13.5592 101.055 14.0215 101.42 14.6074C101.785 15.1868 101.967 15.8444 101.967 16.5801C101.967 17.3678 101.811 18.0872 101.498 18.7383C101.186 19.3893 100.73 20.0339 100.131 20.6719C99.5384 21.3099 98.8223 22.0163 97.9824 22.791L96.1465 24.5195V24.6562H102.367V27.1953Z" stroke="white" stroke-width="0.85612" stroke-linecap="round" mask="url(#path-7-outside-5_728_273)"/>
</g>
<rect x="5" y="1" width="112" height="42" rx="2" stroke="#EE0000" stroke-linecap="round" stroke-linejoin="round" stroke-dasharray="4 4" shape-rendering="crispEdges"/>
</g>
<defs>
<filter id="filter0_d_728_273" x="0.5" y="0.5" width="121" height="51" filterUnits="userSpaceOnUse" color-interpolation-filters="sRGB">
<feFlood flood-opacity="0" result="BackgroundImageFix"/>
<feColorMatrix in="SourceAlpha" type="matrix" values="0 0 0 0 0 0 0 0 0 0 0 0 0 0 0 0 0 0 127 0" result="hardAlpha"/>
<feOffset dy="4"/>
<feGaussianBlur stdDeviation="2"/>
<feComposite in2="hardAlpha" operator="out"/>
<feColorMatrix type="matrix" values="0 0 0 0 0 0 0 0 0 0 0 0 0 0 0 0 0 0 0.25 0"/>
<feBlend mode="normal" in2="BackgroundImageFix" result="effect1_dropShadow_728_273"/>
<feBlend mode="normal" in="SourceGraphic" in2="effect1_dropShadow_728_273" result="shape"/>
</filter>
<filter id="filter1_f_728_273" x="4.93848" y="3.5791" width="112.123" height="36.8418" filterUnits="userSpaceOnUse" color-interpolation-filters="sRGB">
<feFlood flood-opacity="0" result="BackgroundImageFix"/>
<feBlend mode="normal" in="SourceGraphic" in2="BackgroundImageFix" result="shape"/>
<feGaussianBlur stdDeviation="3.21045" result="effect1_foregroundBlur_728_273"/>
</filter>
<filter id="filter2_f_728_273" x="11.8207" y="4.18799" width="98.3586" height="35.624" filterUnits="userSpaceOnUse" color-interpolation-filters="sRGB">
<feFlood flood-opacity="0" result="BackgroundImageFix"/>
<feBlend mode="normal" in="SourceGraphic" in2="BackgroundImageFix" result="shape"/>
<feGaussianBlur stdDeviation="3.21045" result="effect1_foregroundBlur_728_273"/>
</filter>
<filter id="filter3_f_728_273" x="15.6733" y="8.04036" width="90.6535" height="27.9193" filterUnits="userSpaceOnUse" color-interpolation-filters="sRGB">
<feFlood flood-opacity="0" result="BackgroundImageFix"/>
<feBlend mode="normal" in="SourceGraphic" in2="BackgroundImageFix" result="shape"/>
<feGaussianBlur stdDeviation="1.07015" result="effect1_foregroundBlur_728_273"/>
</filter>
<filter id="filter4_ddi_728_273" x="15.4592" y="9.9668" width="91.0815" height="28.347" filterUnits="userSpaceOnUse" color-interpolation-filters="sRGB">
<feFlood flood-opacity="0" result="BackgroundImageFix"/>
<feColorMatrix in="SourceAlpha" type="matrix" values="0 0 0 0 0 0 0 0 0 0 0 0 0 0 0 0 0 0 127 0" result="hardAlpha"/>
<feOffset dy="1.39119"/>
<feGaussianBlur stdDeviation="0.535075"/>
<feColorMatrix type="matrix" values="0 0 0 0 0.15 0 0 0 0 0 0 0 0 0 0 0 0 0 0.7 0"/>
<feBlend mode="multiply" in2="BackgroundImageFix" result="effect1_dropShadow_728_273"/>
<feColorMatrix in="SourceAlpha" type="matrix" values="0 0 0 0 0 0 0 0 0 0 0 0 0 0 0 0 0 0 127 0" result="hardAlpha"/>
<feOffset dy="2.1403"/>
<feGaussianBlur stdDeviation="1.39119"/>
<feColorMatrix type="matrix" values="0 0 0 0 0.8 0 0 0 0 0.19 0 0 0 0 0.19 0 0 0 1 0"/>
<feBlend mode="color-dodge" in2="effect1_dropShadow_728_273" result="effect2_dropShadow_728_273"/>
<feBlend mode="normal" in="SourceGraphic" in2="effect2_dropShadow_728_273" result="shape"/>
<feColorMatrix in="SourceAlpha" type="matrix" values="0 0 0 0 0 0 0 0 0 0 0 0 0 0 0 0 0 0 127 0" result="hardAlpha"/>
<feOffset dx="-0.139119" dy="0.278239"/>
<feGaussianBlur stdDeviation="0.0695597"/>
<feComposite in2="hardAlpha" operator="arithmetic" k2="-1" k3="1"/>
<feColorMatrix type="matrix" values="0 0 0 0 1 0 0 0 0 1 0 0 0 0 1 0 0 0 0.5 0"/>
<feBlend mode="normal" in2="shape" result="effect3_innerShadow_728_273"/>
</filter>
<filter id="filter5_f_728_273" x="18.5627" y="10.9298" width="84.8747" height="22.1405" filterUnits="userSpaceOnUse" color-interpolation-filters="sRGB">
<feFlood flood-opacity="0" result="BackgroundImageFix"/>
<feBlend mode="normal" in="SourceGraphic" in2="BackgroundImageFix" result="shape"/>
<feGaussianBlur stdDeviation="0.107015" result="effect1_foregroundBlur_728_273"/>
</filter>
<filter id="filter6_f_728_273" x="19.0621" y="11.4293" width="83.8759" height="21.1413" filterUnits="userSpaceOnUse" color-interpolation-filters="sRGB">
<feFlood flood-opacity="0" result="BackgroundImageFix"/>
<feBlend mode="normal" in="SourceGraphic" in2="BackgroundImageFix" result="shape"/>
<feGaussianBlur stdDeviation="0.0713433" result="effect1_foregroundBlur_728_273"/>
</filter>
</defs>
</svg>
