<svg width="520" height="64" viewBox="0 0 520 64" fill="none" xmlns="http://www.w3.org/2000/svg">
<path fill-rule="evenodd" clip-rule="evenodd" d="M35.2432 38.8344C36.3242 41.5405 37.7285 44.0532 40.0175 45.9763C40.0175 45.9763 40.0175 45.9763 40.0175 45.9763C40.1138 46.2639 40.1087 46.5659 40.1037 46.8667C40.0968 47.279 40.0899 47.6891 40.3443 48.0561C40.3487 48.0572 40.3531 48.0583 40.3575 48.0593C40.2997 48.5205 40.3793 48.9676 40.4589 49.4147C40.5392 49.8656 40.6196 50.3165 40.5589 50.782L40.5593 50.7845L40.5588 50.782C39.2248 48.3869 37.3411 46.5406 35.0075 45.1431C33.0202 43.9575 30.8828 43.1212 28.6276 42.555L28.5853 42.5443C28.182 42.4423 27.8622 42.3613 27.975 43.0654C28.0772 43.7029 28.2616 44.311 28.4607 44.9104C30.4457 51.0275 34.5158 54.6589 41.0328 55.3086C41.5673 55.3679 41.8286 55.471 41.8927 56.0115C41.994 56.791 42.2724 57.5314 42.5479 58.2639L42.6244 58.4676C42.8567 59.0865 43.0822 59.7074 43.3076 60.3281L43.3076 60.3282C44.0915 62.4866 44.8747 64.6428 45.9378 66.7037C47.4064 69.5571 48.9719 72.3724 50.6403 75.1262C51.1798 76.0108 51.7943 76.8456 52.4088 77.6803C53.0187 78.5089 53.6286 79.3375 54.1652 80.2149C54.0399 80.2384 53.9738 80.1608 53.9048 80.0797C53.8857 80.0573 53.8664 80.0346 53.8456 80.0138C52.5899 78.6497 51.0636 77.6672 49.3195 77.0545C45.5407 75.7437 41.7514 76.016 37.9614 76.9874C37.8263 77.0284 37.6852 77.0928 37.6967 77.3455C37.9803 77.3239 38.1357 77.5112 38.2918 77.6993C38.3459 77.7645 38.4001 77.8299 38.4598 77.8866C40.6488 80.0094 43.0789 81.7683 46.0034 82.7522C48.9278 83.7361 51.8415 83.7684 54.7358 82.6346C55.2206 82.4441 55.6526 82.2654 55.0981 81.6393C54.8293 81.3357 54.6134 80.9794 54.3983 80.6245L54.3982 80.6244C54.3175 80.4913 54.237 80.3584 54.1538 80.2285C54.1538 80.2285 54.1637 80.231 54.1722 80.2263L54.1772 80.2345L54.1723 80.2263L54.1747 80.2247C54.6505 80.6038 55.01 81.0759 55.3715 81.5507C55.5846 81.8306 55.7984 82.1114 56.0372 82.3746C56.312 82.6734 56.5801 82.9778 56.8479 83.2818C57.5837 84.117 58.3175 84.9499 59.1824 85.6614C58.3672 84.4329 57.499 83.216 56.575 82.0726C56.1936 81.6022 56.1822 81.3496 56.6408 80.9154C58.2343 79.4426 59.5461 77.6992 60.4558 75.7176C62.3075 71.675 62.2177 67.6569 60.248 63.6663C59.9491 63.0668 59.6672 62.9961 59.2026 63.4538C58.9445 63.7114 58.6725 63.9458 58.4013 64.1795C57.9898 64.5341 57.5802 64.8871 57.2239 65.3169C55.1271 67.8495 54.0549 70.7269 54.1367 74.0312C54.1648 75.212 54.3369 76.3664 54.6148 77.4975C54.8463 78.4777 55.2035 79.4301 55.558 80.3753C55.6019 80.4925 55.6458 80.6095 55.6894 80.7265C48.9226 71.7233 43.3549 62.1222 41.0315 50.9382C41.0229 50.9373 41.0142 50.937 41.0054 50.9372C41.0143 50.937 41.023 50.9372 41.0316 50.9381C40.9738 49.9747 40.7868 49.0288 40.5616 48.0857C40.5569 48.0845 40.5523 48.0834 40.5477 48.0824C40.5649 47.8039 40.5408 47.5222 40.5167 47.2403C40.4711 46.7062 40.4253 46.171 40.6599 45.6534C40.6652 45.6496 40.6705 45.6458 40.6758 45.6422C40.7405 45.4836 40.8075 45.3288 40.8745 45.1739C40.9415 45.019 41.0085 44.8642 41.0733 44.7056C43.9737 37.68 41.5332 31.7357 36.1329 27.7828C35.6046 27.4005 35.2963 27.2856 35.0605 28.1254C34.0346 31.7136 33.8223 35.2937 35.2432 38.8344ZM46.3835 68.6048C46.7426 69.3412 46.9251 69.7155 46.8134 69.9491C46.6978 70.1905 46.2677 70.2815 45.3928 70.4665L45.3927 70.4665L45.3922 70.4666C45.1603 70.5157 44.8971 70.5713 44.6002 70.6381C42.6436 71.0709 40.6788 70.8898 38.7849 70.3269C37.4489 69.929 36.3042 69.1172 35.1948 68.2644C33.0231 66.5704 31.8448 64.2019 30.7106 61.807C30.5201 61.422 30.6112 61.3076 31.0254 61.2992C35.6045 61.3126 39.9949 61.9778 43.6956 64.9921C44.6699 65.7861 45.3885 66.7531 46.0072 67.8199C46.1469 68.1197 46.2735 68.3793 46.3835 68.6048ZM55.126 57.7105C55.2485 55.6811 55.0832 53.7042 54.4509 51.6476C52.1875 53.3019 50.1092 54.9652 48.6969 57.3076C46.3901 61.1236 46.2098 65.0239 48.2029 69.0204C48.6924 70.0048 48.7159 70.0107 49.451 69.2712C49.6364 69.0863 49.8264 68.9038 50.0168 68.7211L50.0169 68.721L50.0171 68.7209L50.0172 68.7207L50.0173 68.7207C50.6482 68.1151 51.2825 67.5063 51.7593 66.7917C53.5949 64.0561 54.9286 61.0821 55.126 57.7105ZM49.961 47.6487C50.6892 45.097 50.824 42.5213 50.3481 39.7922C47.0858 41.7451 44.4721 44.148 43.0557 47.6506C42.0544 50.1462 41.8814 52.7248 42.472 55.3453C42.4787 55.3758 42.4848 55.4089 42.4912 55.443L42.4912 55.443C42.5396 55.7042 42.5995 56.0275 43.0414 55.7629C43.3315 55.5892 43.6306 55.4275 43.9291 55.2661C44.6434 54.88 45.354 54.4958 45.9305 53.9536C47.8033 52.2138 49.2447 50.1533 49.961 47.6487Z" fill="#3D5B09"/>
<path fill-rule="evenodd" clip-rule="evenodd" d="M204.531 25.3245C206.481 23.1589 208.114 20.7888 208.828 17.8856C208.828 17.8856 208.828 17.8856 208.828 17.8856C209.043 17.6721 209.317 17.5432 209.589 17.4148C209.962 17.2388 210.333 17.0637 210.549 16.6734C210.548 16.6689 210.547 16.6645 210.546 16.6601C210.986 16.5081 211.352 16.2392 211.717 15.9702C212.086 15.6989 212.455 15.4276 212.9 15.2763L212.902 15.2749L212.9 15.2764C211.341 17.5314 210.517 20.0372 210.295 22.7481C210.109 25.0547 210.303 27.3417 210.792 29.6149L210.801 29.6576C210.888 30.0644 210.957 30.3871 211.538 29.9748C212.065 29.6015 212.529 29.1673 212.979 28.7238C217.589 24.24 219.048 18.9841 216.751 12.8509C216.568 12.3452 216.545 12.0652 217.002 11.7689C217.656 11.3336 218.197 10.7566 218.733 10.1858L218.882 10.0271C219.334 9.54533 219.792 9.06867 220.249 8.59214L220.249 8.59209C221.839 6.9351 223.427 5.27974 224.806 3.41533C226.717 0.837023 228.55 -1.81144 230.283 -4.52498C230.838 -5.39987 231.316 -6.31997 231.793 -7.24006C232.267 -8.15335 232.741 -9.06664 233.291 -9.93573C233.367 -9.83366 233.327 -9.74011 233.284 -9.64235C233.273 -9.61536 233.261 -9.58805 233.251 -9.56015C232.583 -7.83093 232.376 -6.02755 232.597 -4.19229C233.091 -0.22321 235.01 3.0557 237.556 6.02635C237.652 6.12948 237.772 6.22752 237.994 6.10559C237.849 5.86074 237.949 5.63861 238.048 5.41543C238.083 5.33803 238.118 5.26052 238.142 5.18189C239.079 2.28021 239.583 -0.67702 239.173 -3.73521C238.764 -6.79341 237.505 -9.42144 235.209 -11.5168C234.824 -11.8676 234.473 -12.1761 234.156 -11.402C234.003 -11.0267 233.778 -10.6756 233.555 -10.3258L233.555 -10.3257C233.471 -10.1945 233.388 -10.0635 233.308 -9.93149C233.308 -9.93149 233.306 -9.94145 233.298 -9.94706L233.303 -9.95515L233.298 -9.94712L233.295 -9.94855C233.425 -10.5429 233.69 -11.0741 233.956 -11.6081C234.113 -11.923 234.27 -12.2389 234.401 -12.5693C234.547 -12.9479 234.702 -13.3229 234.856 -13.6975C235.28 -14.7267 235.703 -15.753 235.959 -16.8433C235.218 -15.5691 234.51 -14.2526 233.892 -12.9184C233.639 -12.3684 233.417 -12.2465 232.825 -12.4661C230.8 -13.2447 228.656 -13.6511 226.476 -13.5914C222.032 -13.4662 218.467 -11.61 215.757 -8.07971C215.352 -7.54661 215.413 -7.26245 216.029 -7.04798C216.374 -6.93025 216.704 -6.78982 217.034 -6.64982C217.534 -6.43739 218.031 -6.22595 218.574 -6.09627C221.773 -5.33441 224.828 -5.64411 227.756 -7.1776C228.803 -7.72462 229.762 -8.38915 230.654 -9.13821C231.431 -9.77909 232.128 -10.5204 232.819 -11.256C232.905 -11.3472 232.99 -11.4383 233.076 -11.5291C227.99 -1.4804 221.837 7.75694 212.831 14.7833C212.834 14.7914 212.838 14.7994 212.842 14.8072C212.838 14.7993 212.834 14.7913 212.831 14.7833C211.992 15.2608 211.226 15.8466 210.48 16.4653C210.481 16.47 210.482 16.4747 210.483 16.4793C210.226 16.5869 209.984 16.733 209.741 16.8792C209.282 17.1561 208.823 17.4337 208.254 17.4519C208.249 17.4489 208.243 17.4458 208.237 17.4427C208.067 17.4547 207.898 17.463 207.73 17.4713C207.561 17.4797 207.392 17.488 207.222 17.5C199.637 18.0027 195.384 22.8187 194.224 29.4099C194.114 30.0528 194.148 30.3801 195.005 30.2206C198.677 29.5553 201.983 28.1636 204.531 25.3245ZM226.314 2.17544C226.816 1.52792 227.071 1.19875 227.33 1.19578C227.598 1.19271 227.87 1.53839 228.422 2.24152L228.422 2.24157L228.422 2.24193C228.569 2.42832 228.735 2.63983 228.926 2.87661C230.179 4.44061 230.885 6.2832 231.217 8.2309C231.45 9.6052 231.228 10.9908 230.953 12.3628C230.393 15.0596 228.789 17.1632 227.142 19.239C226.881 19.58 226.738 19.5488 226.547 19.181C224.536 15.0673 223.192 10.8348 224.261 6.1831C224.543 4.9582 225.093 3.88625 225.776 2.85987C225.984 2.60201 226.161 2.37379 226.314 2.17544ZM212.678 -0.853034C210.803 -0.0661656 209.103 0.955732 207.538 2.43174C210.022 3.73112 212.432 4.86053 215.158 5.09235C219.6 5.47541 223.179 3.91362 225.883 0.359631C226.55 -0.514481 226.545 -0.538161 225.557 -0.87082C225.309 -0.955359 225.061 -1.04526 224.813 -1.13531L224.813 -1.13536L224.813 -1.13541L224.813 -1.13548L224.812 -1.13551C223.99 -1.43393 223.164 -1.73392 222.312 -1.8458C219.047 -2.28368 215.79 -2.16588 212.678 -0.853034ZM205.934 8.22653C203.324 8.70089 200.953 9.71812 198.715 11.351C201.909 13.4146 205.219 14.6974 208.987 14.4203C211.669 14.2157 214.058 13.2314 216.148 11.5436C216.172 11.5241 216.199 11.504 216.227 11.4832L216.227 11.4832C216.44 11.3244 216.704 11.1278 216.271 10.8483C215.987 10.6648 215.71 10.4679 215.433 10.2715C214.771 9.80137 214.112 9.33362 213.371 9.05608C210.983 8.14488 208.498 7.76235 205.934 8.22653Z" fill="#3D5B09"/>
<path fill-rule="evenodd" clip-rule="evenodd" d="M15.8102 15.6561C17.7601 13.4905 19.3936 11.1204 20.1073 8.21718C20.1073 8.21717 20.1073 8.21716 20.1073 8.21716C20.3226 8.0037 20.5958 7.87477 20.8679 7.74637C21.2408 7.57037 21.6117 7.39535 21.8286 7.00498C21.8276 7.0005 21.8266 6.99609 21.8256 6.99173C22.2649 6.83974 22.6307 6.57076 22.9966 6.30178C23.3656 6.03048 23.7347 5.75917 24.179 5.60793L24.1811 5.60646L24.1791 5.60799C22.62 7.86299 21.7961 10.3688 21.5737 13.0797C21.3883 15.3863 21.5826 17.6733 22.0712 19.9465L22.0803 19.9892C22.167 20.3961 22.2357 20.7187 22.8175 20.3064C23.3442 19.9331 23.8082 19.4989 24.2579 19.0554C28.8682 14.5716 30.3273 9.31573 28.0303 3.18247C27.8473 2.67678 27.8243 2.39683 28.2808 2.10053C28.9353 1.66516 29.4765 1.08822 30.0118 0.517396L30.1608 0.358748C30.6134 -0.123062 31.0707 -0.599727 31.5279 -1.07626L31.528 -1.07631C33.1178 -2.73329 34.706 -4.38866 36.085 -6.25307C37.9957 -8.83137 39.8295 -11.4798 41.5625 -14.1934C42.1176 -15.0683 42.595 -15.9884 43.0723 -16.9085C43.546 -17.8217 44.0198 -18.735 44.5697 -19.6041C44.6462 -19.5021 44.6058 -19.4085 44.5635 -19.3108C44.5519 -19.2838 44.5401 -19.2564 44.5306 -19.2285C43.8618 -17.4993 43.6549 -15.696 43.876 -13.8607C44.3699 -9.89161 46.2887 -6.6127 48.8348 -3.64204C48.9313 -3.53891 49.0515 -3.44088 49.273 -3.56281C49.1284 -3.80765 49.2277 -4.02979 49.3275 -4.25297C49.3621 -4.33036 49.3967 -4.40788 49.4213 -4.48651C50.3583 -7.38818 50.8622 -10.3454 50.4525 -13.4036C50.0429 -16.4618 48.7843 -19.0898 46.4882 -21.1852C46.1032 -21.536 45.7519 -21.8445 45.4353 -21.0704C45.2817 -20.6951 45.0575 -20.344 44.8342 -19.9942L44.8342 -19.9941C44.7504 -19.8629 44.6667 -19.7319 44.587 -19.5999C44.587 -19.5999 44.5848 -19.6098 44.5769 -19.6155L44.582 -19.6235L44.5768 -19.6155L44.5744 -19.6169C44.7041 -20.2113 44.9688 -20.7425 45.235 -21.2765C45.3919 -21.5914 45.5493 -21.9073 45.6799 -22.2377C45.8266 -22.6163 45.9811 -22.9913 46.1355 -23.3659C46.5596 -24.3951 46.9825 -25.4214 47.2386 -26.5117C46.4967 -25.2375 45.7888 -23.921 45.1713 -22.5868C44.9179 -22.0368 44.6964 -21.9149 44.1042 -22.1345C42.0788 -22.9131 39.9352 -23.3195 37.7556 -23.2598C33.3109 -23.1345 29.746 -21.2784 27.0366 -17.7481C26.6309 -17.215 26.692 -16.9308 27.3079 -16.7164C27.6531 -16.5986 27.9836 -16.4582 28.313 -16.3182C28.813 -16.1058 29.3106 -15.8943 29.8536 -15.7647C33.0522 -15.0028 36.1071 -15.3125 39.0352 -16.846C40.082 -17.393 41.0415 -18.0575 41.9334 -18.8066C42.7104 -19.4475 43.4069 -20.1888 44.0982 -20.9244C44.1839 -21.0156 44.2695 -21.1067 44.3552 -21.1975C39.2689 -11.1488 33.1164 -1.91146 24.1103 5.11494C24.1133 5.12302 24.1169 5.13096 24.121 5.13881C24.1168 5.13092 24.1132 5.12295 24.1102 5.11487C23.2715 5.59242 22.5055 6.17817 21.7591 6.79691C21.7601 6.80163 21.7612 6.80629 21.7622 6.8109C21.5048 6.91851 21.2628 7.06456 21.0205 7.2108C20.5616 7.48774 20.1017 7.76532 19.5337 7.78354C19.5279 7.78053 19.5223 7.77745 19.5166 7.77431C19.3458 7.78626 19.1772 7.79461 19.0087 7.80295C18.8402 7.8113 18.6717 7.81965 18.5008 7.83159C10.9166 8.33428 6.66269 13.1503 5.50306 19.7415C5.39352 20.3844 5.42672 20.7117 6.28428 20.5522C9.95642 19.8869 13.2618 18.4953 15.8102 15.6561ZM37.5935 -7.49295C38.0953 -8.14048 38.3505 -8.46965 38.6094 -8.47262C38.877 -8.47569 39.1487 -8.13 39.7013 -7.42688L39.7013 -7.42683L39.7016 -7.42647C39.8481 -7.24007 40.0143 -7.02857 40.2055 -6.79179C41.4583 -5.22778 42.164 -3.38519 42.496 -1.43749C42.7295 -0.063192 42.5071 1.32239 42.2322 2.69445C41.6723 5.39122 40.0683 7.49485 38.4211 9.5706C38.16 9.91161 38.017 9.8804 37.8265 9.51259C35.815 5.39892 34.4716 1.16644 35.5403 -3.48529C35.822 -4.71019 36.372 -5.78215 37.0556 -6.80852C37.2628 -7.06639 37.4397 -7.29461 37.5935 -7.49295ZM23.9573 -10.5214C22.0826 -9.73456 20.3823 -8.71266 18.8167 -7.23665C21.3009 -5.93728 23.7114 -4.80787 26.4368 -4.57604C30.8793 -4.19299 34.4578 -5.75477 37.1622 -9.30876C37.829 -10.1829 37.8239 -10.2066 36.8358 -10.5392C36.5879 -10.6238 36.3402 -10.7137 36.0922 -10.8037L36.0921 -10.8038L36.0919 -10.8038L36.0917 -10.8039L36.0916 -10.8039C35.2696 -11.1023 34.4431 -11.4023 33.5914 -11.5142C30.3262 -11.9521 27.069 -11.8343 23.9573 -10.5214ZM17.2135 -1.44186C14.6027 -0.967501 12.2325 0.049727 9.99465 1.68262C13.1881 3.74618 16.4987 5.029 20.2666 4.75187C22.9478 4.54728 25.3374 3.56303 27.4272 1.87524C27.4517 1.85569 27.4786 1.83559 27.5064 1.81484L27.5064 1.81482C27.7193 1.656 27.9828 1.45943 27.5503 1.17991C27.2662 0.996357 26.989 0.799506 26.7123 0.603062C26.0503 0.132975 25.3916 -0.334771 24.6505 -0.612311C22.2621 -1.52352 19.7769 -1.90604 17.2135 -1.44186Z" fill="#3D5B09"/>
<path fill-rule="evenodd" clip-rule="evenodd" d="M331.741 16.4837C329.789 15.2354 328.092 13.7208 327.146 11.4844C327.146 11.4844 327.146 11.4844 327.146 11.4843C326.933 11.3682 326.679 11.3404 326.426 11.3127C326.078 11.2747 325.733 11.237 325.499 10.9721C325.5 10.968 325.5 10.964 325.501 10.96C325.098 10.962 324.746 10.8436 324.395 10.7251C324.041 10.6057 323.687 10.4862 323.279 10.4903L323.278 10.4898L323.279 10.4904C324.898 11.9299 325.897 13.7986 326.39 16.0184C326.806 17.9083 326.886 19.894 326.706 21.9554L326.702 21.9941C326.671 22.3628 326.646 22.6551 326.089 22.4798C325.585 22.321 325.129 22.0924 324.685 21.8517C320.139 19.4365 318.279 15.4373 319.626 9.58586C319.732 9.1053 319.722 8.86244 319.288 8.74783C318.664 8.57459 318.125 8.2484 317.592 7.92567L317.443 7.83605C316.992 7.56382 316.538 7.29736 316.084 7.03098C314.504 6.10475 312.926 5.17942 311.508 4.01586C309.545 2.40788 307.642 0.717941 305.821 -1.05668C305.236 -1.62992 304.716 -2.26433 304.195 -2.89874C303.678 -3.52846 303.162 -4.15818 302.583 -4.72808C302.527 -4.61935 302.572 -4.55243 302.62 -4.48251C302.633 -4.46321 302.647 -4.44368 302.658 -4.42297C303.436 -3.16307 303.816 -1.70387 303.823 -0.091013C303.824 3.40174 302.496 6.73455 300.583 9.99326C300.509 10.1088 300.414 10.227 300.206 10.1898C300.306 9.94057 300.195 9.78268 300.082 9.62406C300.044 9.56905 300.005 9.51396 299.974 9.45494C298.832 7.28594 298.065 4.94183 298.089 2.24204C298.114 -0.457739 298.933 -3.04626 300.722 -5.49295C301.022 -5.90274 301.297 -6.26686 301.661 -5.70798C301.837 -5.43704 302.073 -5.20736 302.307 -4.97858C302.395 -4.89276 302.483 -4.80706 302.568 -4.71935C302.568 -4.71935 302.569 -4.7284 302.575 -4.7355L302.57 -4.7408L302.575 -4.73556L302.577 -4.73749C302.398 -5.20019 302.107 -5.56963 301.814 -5.94109C301.642 -6.1601 301.469 -6.37982 301.318 -6.61977C301.147 -6.8955 300.97 -7.16587 300.793 -7.43596L300.793 -7.43605C300.307 -8.17818 299.823 -8.91824 299.478 -9.76168C300.27 -8.90702 301.037 -8.0067 301.726 -7.06464C302.01 -6.67603 302.218 -6.63884 302.714 -6.99935C304.41 -8.25566 306.251 -9.23314 308.174 -9.82835C312.096 -11.039 315.435 -10.5298 318.205 -8.3557C318.62 -8.02636 318.597 -7.76868 318.079 -7.40546C317.789 -7.20398 317.513 -6.98771 317.239 -6.77209C316.823 -6.44493 316.408 -6.11928 315.945 -5.84912C313.216 -4.25951 310.495 -3.6159 307.752 -4.04167C306.772 -4.19287 305.855 -4.46897 304.988 -4.83641C304.235 -5.14664 303.541 -5.56534 302.852 -5.98086L302.852 -5.98088C302.767 -6.03238 302.682 -6.08382 302.597 -6.13501C308.172 0.831037 314.595 6.79726 323.286 10.0543C323.285 10.0569 323.284 10.0596 323.284 10.0622C323.283 10.0645 323.282 10.0668 323.282 10.069C323.283 10.064 323.285 10.0591 323.286 10.0542C324.076 10.2084 324.813 10.4755 325.538 10.7761C325.537 10.7804 325.537 10.7846 325.537 10.7888C325.775 10.8033 326.004 10.8548 326.233 10.9063C326.667 11.0039 327.101 11.1017 327.603 10.9489C327.608 10.9446 327.612 10.9404 327.617 10.9361C327.769 10.8955 327.918 10.8527 328.067 10.8098C328.216 10.7669 328.365 10.724 328.517 10.6835C335.241 8.86127 339.51 11.662 341.253 16.8758C341.42 17.3854 341.426 17.6712 340.655 17.7907C337.353 18.3173 334.293 18.1229 331.741 16.4837ZM310.046 3.41725C309.566 3.0449 309.307 2.84412 309.088 2.88139C308.833 2.92501 308.633 3.29473 308.2 4.09717C308.091 4.29783 307.968 4.52554 307.826 4.78198C306.896 6.47167 306.477 8.23423 306.399 9.97472C306.344 11.2026 306.692 12.3049 307.084 13.3804C307.872 15.4883 309.513 16.7869 311.19 18.0492C311.457 18.2594 311.579 18.1907 311.706 17.8242C313.024 13.7601 313.741 9.79373 312.291 6.18819C311.909 5.23887 311.308 4.49793 310.594 3.83502C310.383 3.67898 310.203 3.53895 310.046 3.41725ZM321.705 -3.1746C323.44 -3.06636 325.047 -2.70832 326.586 -1.92748C324.544 -0.0962372 322.548 1.56988 320.177 2.57248C316.312 4.21111 312.994 3.95411 310.226 1.75853C309.544 1.21901 309.546 1.19754 310.378 0.624421C310.587 0.479718 310.795 0.33055 311.003 0.181137L311.003 0.181006L311.003 0.180861L311.003 0.180813C311.694 -0.314222 312.387 -0.811884 313.124 -1.15845C315.948 -2.49463 318.825 -3.35994 321.705 -3.1746ZM328.632 2.48349C330.979 2.11025 333.175 2.26597 335.322 2.97997C332.74 5.66558 329.97 7.7276 326.626 8.60985C324.246 9.23138 322.036 9.10923 320.013 8.30511C319.99 8.29585 319.964 8.28689 319.937 8.27763L319.937 8.27762C319.733 8.20676 319.479 8.11906 319.829 7.75528C320.059 7.5164 320.281 7.26833 320.503 7.02077C321.033 6.42836 321.561 5.8389 322.182 5.38542C324.183 3.90984 326.326 2.85128 328.632 2.48349Z" fill="#3D5B09"/>
<path fill-rule="evenodd" clip-rule="evenodd" d="M429.553 10.0864C430.401 7.92974 431.559 5.97272 433.57 4.61244C433.57 4.61244 433.57 4.61244 433.57 4.61244C433.643 4.38121 433.621 4.12624 433.6 3.87233C433.57 3.52427 433.54 3.17817 433.755 2.89785C433.759 2.89742 433.763 2.89703 433.767 2.89668C433.687 2.50166 433.736 2.13415 433.784 1.76665C433.833 1.39597 433.881 1.0253 433.799 0.62639L433.799 0.624839L433.799 0.62636C432.699 2.49236 431.058 3.8339 428.976 4.74637C427.202 5.5197 425.269 5.98177 423.211 6.203L423.173 6.2072C422.805 6.24744 422.513 6.27935 422.578 5.69916C422.636 5.17386 422.772 4.68256 422.923 4.20032C424.414 -0.726599 427.979 -3.32373 433.98 -3.13229C434.472 -3.12163 434.709 -3.17881 434.737 -3.62676C434.787 -4.27182 435.003 -4.86381 435.216 -5.44953L435.276 -5.61246C435.456 -6.10737 435.629 -6.60476 435.803 -7.10201C436.406 -8.83099 437.009 -10.5583 437.877 -12.1735C439.076 -14.4102 440.366 -16.6039 441.755 -18.7341C442.205 -19.4179 442.727 -20.0513 443.249 -20.6848C443.767 -21.3135 444.285 -21.9422 444.732 -22.6203C444.615 -22.6543 444.558 -22.5965 444.498 -22.536C444.482 -22.5193 444.465 -22.5024 444.447 -22.4872C443.361 -21.4807 442.003 -20.8261 440.422 -20.5078C436.995 -19.8322 433.469 -20.491 429.902 -21.7387C429.774 -21.7885 429.64 -21.8588 429.636 -22.0702C429.9 -22.02 430.033 -22.1601 430.167 -22.3008C430.214 -22.3496 430.26 -22.3985 430.312 -22.4396C432.22 -23.9793 434.372 -25.1852 437.025 -25.6824C439.679 -26.1796 442.377 -25.8765 445.123 -24.5936C445.583 -24.3782 445.994 -24.1787 445.515 -23.7142C445.284 -23.489 445.104 -23.2134 444.925 -22.9389C444.858 -22.8359 444.79 -22.733 444.721 -22.6331C444.721 -22.6331 444.73 -22.634 444.738 -22.6291L444.742 -22.6354L444.738 -22.6291L444.74 -22.6275C445.16 -22.8928 445.466 -23.2497 445.774 -23.6086C445.955 -23.8202 446.138 -24.0325 446.344 -24.227C446.581 -24.4476 446.812 -24.6735 447.043 -24.8992L447.043 -24.8992C447.678 -25.5193 448.31 -26.1376 449.071 -26.6388C448.386 -25.6965 447.65 -24.7701 446.859 -23.9117C446.533 -23.5589 446.536 -23.3474 446.986 -22.9297C448.546 -21.5086 449.861 -19.8917 450.816 -18.1196C452.762 -14.505 452.907 -11.131 451.309 -7.99335C451.066 -7.52235 450.809 -7.4947 450.353 -7.93286C450.099 -8.17908 449.834 -8.40733 449.569 -8.63489C449.168 -8.98017 448.768 -9.32386 448.413 -9.72627C446.327 -12.097 445.17 -14.6418 445.057 -17.4155C445.016 -18.4068 445.11 -19.3596 445.303 -20.2807C445.462 -21.08 445.739 -21.8417 446.013 -22.5976L446.013 -22.5976C446.047 -22.6913 446.082 -22.7849 446.115 -22.8784C440.357 -16.0628 435.745 -8.60756 434.228 0.548426C434.225 0.548351 434.222 0.548214 434.22 0.54802C434.217 0.547857 434.215 0.547651 434.212 0.547408C434.218 0.54796 434.223 0.548313 434.228 0.548452C434.229 1.35332 434.11 2.12882 433.955 2.89755C433.95 2.89801 433.946 2.89842 433.942 2.89878C433.974 3.13531 433.967 3.36978 433.961 3.60453C433.949 4.04912 433.937 4.49473 434.184 4.95727C434.189 4.96106 434.194 4.9648 434.199 4.9685C434.268 5.10937 434.339 5.24739 434.41 5.38541C434.481 5.52343 434.552 5.66146 434.621 5.80233C437.708 12.0482 435.785 16.778 431.006 19.4951C430.538 19.7572 430.259 19.819 429.992 19.085C428.838 15.9467 428.438 12.9074 429.553 10.0864ZM438.182 -13.7241C438.455 -14.2672 438.602 -14.56 438.523 -14.767C438.431 -15.0093 438.029 -15.1339 437.158 -15.4044C436.94 -15.472 436.693 -15.5487 436.414 -15.6387C434.577 -16.225 432.766 -16.2951 431.044 -16.0357C429.828 -15.8521 428.814 -15.2981 427.834 -14.7055C425.918 -13.525 424.961 -11.6638 424.047 -9.77531C423.892 -9.47268 423.983 -9.36596 424.367 -9.31194C428.609 -8.80419 432.639 -8.86683 435.897 -10.986C436.755 -11.5443 437.365 -12.2773 437.878 -13.1057C437.99 -13.3424 438.093 -13.5466 438.182 -13.7241ZM446.902 -3.55782C447.131 -1.8347 447.09 -0.188497 446.621 1.47196C444.43 -0.177849 442.41 -1.81427 440.968 -3.94717C438.614 -7.4225 438.225 -10.7279 439.844 -13.8679C440.242 -14.6415 440.263 -14.6438 440.986 -13.9377C441.169 -13.7609 441.355 -13.5856 441.542 -13.4101L441.542 -13.41L441.542 -13.4098L441.542 -13.4098C442.162 -12.8282 442.784 -12.2436 443.266 -11.5877C445.123 -9.07572 446.527 -6.41983 446.902 -3.55782ZM442.689 4.33103C443.508 6.5626 443.78 8.74722 443.494 10.9917C440.36 8.97723 437.802 6.65721 436.29 3.54672C435.221 1.33143 434.914 -0.859957 435.312 -3.00006C435.316 -3.02501 435.32 -3.05214 435.324 -3.08015L435.324 -3.0802C435.354 -3.29468 435.391 -3.56014 435.816 -3.28726C436.094 -3.10807 436.381 -2.93798 436.666 -2.76824C437.35 -2.36206 438.031 -1.9579 438.596 -1.43595C440.43 0.241656 441.882 2.14037 442.689 4.33103Z" fill="#3D5B09"/>
<path d="M103.297 42.7531C103.326 44.603 102.102 45.9975 101.589 47.6482C101.248 48.7012 100.622 49.6688 100.508 51.0634C101.988 49.6119 103.326 48.2743 104.635 46.9936C105.033 46.5952 104.806 46.2821 104.578 45.8837C103.724 44.2615 104.094 42.8385 105.603 41.6147C106.513 40.8748 107.965 40.9602 109.16 41.814C110.327 42.6393 110.811 44.3184 110.27 45.5991C109.729 46.9367 108.221 47.7336 106.627 47.392C105.745 47.1928 105.289 47.449 104.749 48.1605C103.269 50.0957 101.959 52.2302 99.6257 53.3401C99.1418 53.5678 99.0849 54.2224 98.9426 54.7062C97.8611 58.3206 96.808 61.9634 95.755 65.5778C95.7265 65.6916 95.8119 65.8055 95.8688 66.1185C97.5765 64.0979 99.1988 62.2196 100.821 60.3412C101.163 59.9143 100.992 59.459 100.878 58.9752C100.48 57.1253 101.561 55.4746 103.411 55.0477C104.976 54.7062 106.741 56.0154 107.111 57.8083C107.424 59.2598 106.143 61.0527 104.578 61.3942C103.781 61.5935 103.069 61.3658 102.415 60.9389C101.732 60.4835 101.333 60.7112 100.935 61.3658C99.3411 63.9556 97.6334 66.4316 95.385 68.5092C94.645 69.1922 94.5881 70.3021 94.3888 71.2697C93.7342 74.4572 92.9373 77.6163 92.4819 81.1453C93.905 79.4946 94.4457 77.5878 95.8119 76.2502C95.8688 76.3071 95.9257 76.3356 95.9542 76.3925C95.5842 77.9009 94.6165 79.0962 93.9619 80.4338C93.0512 82.3121 92.0266 84.1051 91.6281 86.2111C91.2296 88.2033 90.8881 90.1954 90.4897 92.2161C90.4897 90.9923 90.4612 89.7686 90.4897 88.5733C90.5181 87.1503 90.262 85.7842 89.8066 84.4181C89.2943 82.8813 89.8066 81.2591 89.6927 79.6369C89.4935 76.9902 89.6074 74.3434 89.6358 71.6682C89.6358 70.8998 89.4935 70.5014 88.6112 70.3306C86.9605 69.9891 86.1351 68.7653 86.192 67.0292C86.2205 65.6916 87.1882 64.4679 88.4974 64.1548C89.9774 63.7848 91.4573 64.5533 92.2258 66.0616C92.8519 67.2854 92.5389 68.7938 91.2581 69.7045C90.3473 70.359 90.3474 70.9851 90.4612 71.9812C90.7743 74.7134 90.945 77.4455 91.2296 80.1776C91.7989 77.1894 92.3112 74.1726 93.0796 71.2413C93.6204 69.1353 94.1896 67.0293 94.7588 64.9517C94.8727 64.4963 95.1004 64.0979 94.8442 63.5856C93.3927 60.7966 93.8481 57.8652 94.3034 54.9624C94.5596 53.2832 95.015 51.6326 95.385 49.9819C95.4988 49.4981 95.6127 49.2135 94.9296 48.9573C92.9373 48.2174 92.1404 45.9122 93.0796 44.0338C93.905 42.4116 97.0073 42.2978 98.288 43.8631C99.6826 45.5422 99.2841 47.8759 97.2634 48.7297C96.2673 49.1566 96.0111 49.7258 95.8688 50.6934C95.4419 53.7955 95.1857 56.8976 95.1573 59.9997C95.1573 60.6827 95.2996 61.3942 95.4419 62.4472C96.4665 59.4874 97.4057 56.8692 98.288 54.2509C99.2272 51.4049 100.536 48.7297 101.646 45.9691C101.846 45.4852 102.045 45.0015 101.988 44.4607C101.419 40.1633 103.126 36.3781 104.663 32.5645C105.062 31.5685 105.119 30.857 104.436 29.9747C103.297 28.5802 103.439 26.9295 104.635 25.7342C105.688 24.7097 107.709 24.5958 108.819 25.535C110.099 26.6165 110.469 28.5233 109.53 29.8609C109.075 30.5155 109.189 30.6293 109.872 30.8854C111.892 31.7392 112.746 33.5322 112.063 35.1544C111.323 36.8904 109.587 37.5166 107.509 36.7766C107.168 36.6628 106.826 36.5489 106.513 36.4351C106.656 35.9797 106.513 35.6667 106.086 35.4675C106.058 35.2113 106.001 34.9836 105.973 34.7275C105.83 33.5037 106.172 32.4223 106.997 31.4831C106.2 30.9424 105.659 30.9993 105.432 31.9669C105.204 32.8776 104.863 33.7599 104.863 34.699C104.834 34.8698 104.834 35.0121 104.806 35.1829C104.72 35.2967 104.663 35.439 104.578 35.5528C104.293 36.7766 103.781 37.9719 103.753 39.2526C103.496 40.4763 102.557 41.5294 103.297 42.7531Z" fill="#5F861B"/>
<path d="M321.086 51.235C320.683 53.0408 319.169 54.1127 318.287 55.599C317.71 56.5438 316.876 57.3394 316.441 58.6692C318.218 57.6016 319.83 56.6116 321.401 55.6703C321.881 55.3754 321.732 55.018 321.604 54.5776C321.15 52.8013 321.841 51.5033 323.592 50.6637C324.65 50.1557 326.042 50.5762 327.006 51.6845C327.949 52.7584 328.03 54.5041 327.206 55.624C326.369 56.7992 324.717 57.2236 323.246 56.5209C322.434 56.1221 321.932 56.2654 321.24 56.8317C319.351 58.3699 317.582 60.1415 315.054 60.6785C314.53 60.7875 314.323 61.4109 314.072 61.8484C312.18 65.1124 310.309 68.4106 308.444 71.6812C308.39 71.7853 308.447 71.9159 308.429 72.2336C310.56 70.6653 312.574 69.2155 314.589 67.7657C315.02 67.4299 314.96 66.9473 314.962 66.4503C315.004 64.5585 316.44 63.2044 318.338 63.2193C319.94 63.251 321.352 64.9345 321.295 66.7643C321.262 68.2488 319.6 69.6949 317.998 69.6632C317.177 69.6717 316.538 69.2849 316 68.7175C315.442 68.1158 315.001 68.2447 314.461 68.7887C312.309 70.9371 310.073 72.9483 307.403 74.4463C306.525 74.9386 306.211 76.0048 305.792 76.8997C304.415 79.8477 302.905 82.7349 301.642 86.0614C303.41 84.7867 304.379 83.0579 306.019 82.0745C306.061 82.1431 306.11 82.184 306.124 82.2459C305.414 83.627 304.195 84.5646 303.247 85.7134C301.925 87.3286 300.511 88.8342 299.634 90.7899C298.783 92.6349 297.988 94.4931 297.131 96.3658C297.415 95.1756 297.672 93.9787 297.978 92.8228C298.336 91.4454 298.405 90.0572 298.279 88.6227C298.138 87.0089 299.014 85.5502 299.28 83.946C299.701 81.3254 300.427 78.7776 301.077 76.1823C301.256 75.4349 301.21 75.0144 300.391 74.6432C298.865 73.9273 298.347 72.5452 298.806 70.8699C299.145 69.5756 300.37 68.6103 301.716 68.6101C303.242 68.5943 304.503 69.6857 304.899 71.3314C305.224 72.6672 304.569 74.0614 303.111 74.6495C302.073 75.0744 301.928 75.6834 301.807 76.6786C301.476 79.4087 301.007 82.1057 300.649 84.8292C301.897 82.0551 303.097 79.2401 304.526 76.5676C305.541 74.645 306.584 72.729 307.621 70.8407C307.838 70.4243 308.152 70.0897 308.022 69.5319C307.258 66.4818 308.382 63.7366 309.5 61.0191C310.14 59.4455 310.966 57.946 311.71 56.4265C311.933 55.9824 312.11 55.7321 311.505 55.3242C309.739 54.1414 309.5 51.714 310.85 50.1055C312.03 48.7196 315.074 49.33 315.956 51.1501C316.922 53.1074 315.992 55.2846 313.828 55.6452C312.76 55.8289 312.378 56.323 312.015 57.231C310.879 60.1489 309.908 63.1065 309.16 66.117C309.001 66.7813 308.974 67.5064 308.868 68.5636C310.552 65.9231 312.074 63.5948 313.541 61.2534C315.116 58.7037 317.011 56.4061 318.733 53.9791C319.039 53.5549 319.345 53.1306 319.415 52.5915C319.861 48.2795 322.401 44.995 324.783 41.6431C325.402 40.7669 325.623 40.0882 325.163 39.0713C324.38 37.4503 324.902 35.878 326.343 34.9933C327.605 34.2416 329.597 34.6006 330.458 35.7721C331.453 37.1216 331.369 39.0622 330.145 40.1448C329.55 40.6756 329.634 40.8128 330.239 41.2207C332.006 42.5208 332.419 44.4632 331.378 45.8821C330.255 47.3986 328.421 47.604 326.572 46.4014C326.266 46.2113 325.96 46.0211 325.682 45.8376C325.927 45.4278 325.861 45.0903 325.492 44.7973C325.524 44.5416 325.521 44.3069 325.553 44.0511C325.699 42.8278 326.283 41.8554 327.304 41.1338C326.655 40.4226 326.116 40.3523 325.669 41.2405C325.236 42.0733 324.699 42.852 324.48 43.7654C324.413 43.9249 324.38 44.0633 324.313 44.2228C324.203 44.3136 324.115 44.4388 324.005 44.5297C323.444 45.6538 322.668 46.6972 322.342 47.9362C321.809 49.0669 320.65 49.8728 321.086 51.235Z" fill="#5F861B"/>
<path d="M169.538 58.8119C168.174 58.8119 167.075 57.8444 167.031 56.6349C166.987 55.3155 168.086 54.172 169.406 54.194C171.121 54.216 171.979 54.9857 172.001 56.5689C172.001 57.9983 171.121 58.8119 169.538 58.8119Z" fill="#5F861B"/>
<path d="M236.271 42.4578C234.908 42.4578 233.808 41.4903 233.764 40.2808C233.72 38.9615 234.82 37.818 236.139 37.84C237.854 37.862 238.712 38.6316 238.734 40.2149C238.734 41.6442 237.854 42.4578 236.271 42.4578Z" fill="#FFBD59"/>
<path d="M186.373 3.69192C185.009 3.69192 183.91 2.72436 183.866 1.51491C183.822 0.195521 184.921 -0.947947 186.241 -0.925958C187.956 -0.903968 188.814 -0.134324 188.836 1.44895C188.836 2.87829 187.956 3.69192 186.373 3.69192Z" fill="#FFBD59"/>
<path d="M339.226 65.6612C337.862 65.6612 336.763 64.6937 336.719 63.4842C336.675 62.1648 337.774 61.0214 339.094 61.0433C340.809 61.0653 341.667 61.835 341.689 63.4182C341.689 64.8476 340.809 65.6612 339.226 65.6612Z" fill="#FFBD59"/>
<path d="M12.672 54.3696C11.3086 54.3696 10.209 53.402 10.1651 52.1926C10.1211 50.8732 11.2206 49.7297 12.5401 49.7517C14.2554 49.7737 15.113 50.5433 15.135 52.1266C15.135 53.556 14.2554 54.3696 12.672 54.3696Z" fill="#FFBD59"/>
<path d="M511.202 27.7047C509.839 27.7047 508.739 26.7372 508.695 25.5277C508.651 24.2083 509.751 23.0649 511.07 23.0869C512.786 23.1088 513.643 23.8785 513.665 25.4618C513.665 26.8911 512.786 27.7047 511.202 27.7047Z" fill="#5F861B"/>
<path d="M95.4406 6.85751C94.0771 6.85751 92.9776 5.88995 92.9336 4.6805C92.8896 3.36111 93.9891 2.21764 95.3086 2.23963C97.0239 2.26162 97.8815 3.03126 97.9035 4.61454C97.9035 6.04388 97.0239 6.85751 95.4406 6.85751Z" fill="#5F861B"/>
<path d="M393.665 78.405C392.687 77.1518 392.137 75.6755 391.571 74.2163C389.511 68.8603 389.442 63.3326 390.094 57.7019C390.438 54.6118 391.279 51.6763 392.086 48.7065C392.446 47.3675 393.133 46.1314 393.494 44.7753C393.528 44.6723 393.717 44.6208 393.906 44.5693C392.532 48.552 391.399 52.5862 390.798 56.7748C391.159 56.6203 391.142 56.2255 391.279 55.9337C393.202 51.8136 396.549 49.4103 400.721 47.9683C402.18 47.4705 403.691 47.1615 405.202 46.9211C406.266 46.7494 406.318 46.8525 406.146 47.8996C405.734 50.5776 404.927 53.1183 403.537 55.453C401.648 58.646 398.884 60.706 395.331 61.7189C393.94 62.1137 392.532 62.2854 391.09 62.2511C390.747 62.2511 390.369 62.1824 390.403 62.7317C390.541 66.9548 391.159 71.0919 392.584 75.0746C392.961 76.139 393.408 77.2033 393.803 78.2677C393.785 78.302 393.734 78.3535 393.665 78.405Z" fill="#3D5B09"/>
<path d="M375.193 57.3413C375.193 54.6461 375.279 55.0925 377.356 55.6761C384.601 57.719 388.687 62.663 390.163 69.9074C390.3 70.6284 390.077 70.9202 389.322 70.7829C388.378 70.6112 387.416 70.4739 386.438 70.5426C386.026 70.5769 385.562 70.4224 385.167 70.1477C384.206 69.4611 382.97 69.3409 381.991 68.7572C377.716 66.1994 375.159 62.5257 375.193 57.3413Z" fill="#3D5B09"/>
<path d="M395.828 40.226C395.846 40.1745 395.863 40.123 395.863 40.0715C395.88 40.0887 395.914 40.1059 395.931 40.123C395.897 40.1402 395.863 40.1745 395.828 40.226Z" fill="#87C6B4"/>
<path d="M258.731 23.6873C259.483 22.0496 260.532 20.6148 261.675 19.2599C262.004 18.8575 262.142 18.4772 262.105 17.9712C261.86 14.0415 263.877 11.3077 267.696 10.3176C270.451 9.60487 273.234 9.70325 276.033 10.005C276.494 10.0481 276.637 10.2876 276.509 10.7139C275.378 14.713 272.943 17.4764 268.876 18.6629C266.906 19.2391 264.901 19.1979 262.891 19.0284C262.566 18.9973 262.356 19.0678 262.153 19.2956C260.919 20.6991 259.754 22.1437 258.731 23.6873Z" fill="#3D5B09"/>
<path d="M142.964 43.9762C142.294 45.6486 141.315 47.1328 140.239 48.5418C139.93 48.9597 139.811 49.3463 139.873 49.8499C140.309 53.763 138.428 56.5918 134.661 57.7668C131.944 58.613 129.16 58.6503 126.349 58.4853C125.888 58.4647 125.733 58.2324 125.84 57.8004C126.774 53.7509 129.072 50.8722 133.076 49.489C135.016 48.8174 137.021 48.7609 139.037 48.8323C139.362 48.8475 139.569 48.7669 139.761 48.5294C140.924 47.0675 142.018 45.5678 142.964 43.9762Z" fill="#3D5B09"/>
<path d="M442.184 67.8655C442.977 65.8744 444.117 64.101 445.369 62.4149C445.728 61.915 445.87 61.4553 445.808 60.8602C445.377 56.235 447.57 52.8547 451.887 51.4006C455 50.3534 458.177 50.2626 461.381 50.4109C461.907 50.4275 462.08 50.6999 461.95 51.2131C460.817 56.0227 458.147 59.4691 453.556 61.1737C451.332 62.0012 449.044 62.1017 446.746 62.0509C446.374 62.0383 446.137 62.1373 445.914 62.4216C444.562 64.1718 443.29 65.9654 442.184 67.8655Z" fill="#3D5B09"/>
<path d="M497.857 -8.05532C498.188 -5.93797 498.109 -3.83094 497.891 -1.74255C497.836 -1.12936 497.948 -0.661425 498.304 -0.180618C501.03 3.58045 500.864 7.60622 497.889 11.0559C495.742 13.5424 493.054 15.2378 490.221 16.7415C489.76 16.9952 489.473 16.8486 489.322 16.3411C487.85 11.6242 488.392 7.29899 491.476 3.49442C492.969 1.64969 494.887 0.398312 496.891 -0.728321C497.217 -0.906501 497.371 -1.11252 497.418 -1.47067C497.69 -3.66518 497.872 -5.85692 497.857 -8.05532Z" fill="#3D5B09"/>
<path d="M204.686 53.5209C204.686 53.235 204.664 53.1691 204.686 53.1031C205.39 51.6738 204.4 51.2999 203.345 50.7942C201.937 50.1345 201.608 48.925 202.223 47.3858C202.663 46.3083 203.675 45.8905 205.06 46.1983C205.192 46.2203 205.346 46.2643 205.478 46.3083C206.402 46.7701 206.643 46.2423 206.797 45.4507C207.127 43.7135 208.095 42.8999 209.612 43.0098C211.042 43.1198 212.097 44.3512 212.097 46.0664C212.097 46.814 212.273 47.0999 213.043 46.7701C213.373 46.6381 213.747 46.5722 214.098 46.5282C215.616 46.3523 216.825 47.0779 217.067 48.4633C217.331 49.8926 217.045 50.8822 215.44 51.4979C214.538 51.8497 214.274 52.1136 214.692 53.1031C215.088 54.0267 215.198 55.1262 214.208 55.8298C212.845 56.7754 211.635 56.7314 210.558 55.6539C209.964 55.0602 209.612 54.8403 208.953 55.588C208.337 56.2916 207.567 56.6435 206.512 56.2037C205.17 55.6759 204.488 54.8183 204.686 53.5209Z" fill="#5F861B"/>
<path d="M291.369 30.9601C291.122 30.8403 291.058 30.8288 291.009 30.785C290.03 29.6692 289.355 30.2395 288.542 30.803C287.471 31.5604 286.312 31.296 285.207 30.1988C284.437 29.4243 284.439 28.5062 285.2 27.6175C285.266 27.5298 285.359 27.4351 285.444 27.3566C286.171 26.8716 285.804 26.4728 285.177 26.0281C283.8 25.0579 283.446 24.0063 284.083 22.9377C284.689 21.9338 286.126 21.6744 287.602 22.393C288.246 22.7062 288.555 22.6968 288.546 21.9932C288.55 21.6956 288.627 21.3934 288.715 21.1165C289.106 19.9282 290.163 19.3438 291.442 19.7465C292.767 20.1515 293.516 20.7761 293.472 22.2133C293.453 23.023 293.586 23.3274 294.587 23.4351C295.523 23.5313 296.509 23.9112 296.761 24.9329C297.087 26.3306 296.617 27.2006 295.304 27.5407C294.581 27.7281 294.266 27.8944 294.673 28.6923C295.059 29.4394 295.086 30.1522 294.33 30.7433C293.396 31.5076 292.414 31.649 291.369 30.9601Z" fill="#FFBD59"/>
<path d="M152.074 42.1449C151.828 42.0251 151.764 42.0136 151.715 41.9698C150.736 40.8541 150.06 41.4244 149.248 41.9878C148.177 42.7453 147.018 42.4808 145.913 41.3836C145.143 40.6091 145.145 39.691 145.905 38.8023C145.971 38.7146 146.064 38.6199 146.149 38.5414C146.877 38.0565 146.509 37.6576 145.883 37.2129C144.506 36.2427 144.151 35.1911 144.789 34.1226C145.394 33.1186 146.832 32.8592 148.308 33.5778C148.952 33.8911 149.261 33.8816 149.252 33.178C149.256 32.8805 149.333 32.5782 149.421 32.3013C149.812 31.113 150.869 30.5286 152.148 30.9313C153.473 31.3363 154.222 31.9609 154.178 33.3981C154.159 34.2078 154.291 34.5122 155.293 34.6199C156.229 34.7161 157.215 35.096 157.466 36.1177C157.793 37.5154 157.322 38.3855 156.01 38.7255C155.286 38.9129 154.971 39.0793 155.379 39.8771C155.764 40.6242 155.792 41.337 155.036 41.9282C154.102 42.6924 153.12 42.8338 152.074 42.1449Z" fill="#FFBD59"/>
<path d="M483.168 48.1449C482.922 48.0251 482.858 48.0136 482.809 47.9698C481.83 46.8541 481.154 47.4244 480.342 47.9878C479.271 48.7453 478.112 48.4808 477.007 47.3836C476.237 46.6091 476.239 45.691 476.999 44.8023C477.065 44.7146 477.158 44.6199 477.243 44.5414C477.971 44.0565 477.603 43.6576 476.977 43.2129C475.6 42.2427 475.245 41.1911 475.883 40.1226C476.488 39.1186 477.926 38.8592 479.402 39.5778C480.045 39.8911 480.354 39.8816 480.346 39.178C480.35 38.8805 480.427 38.5782 480.515 38.3013C480.906 37.113 481.963 36.5286 483.242 36.9313C484.567 37.3363 485.316 37.9609 485.272 39.3981C485.253 40.2078 485.385 40.5122 486.386 40.6199C487.323 40.7161 488.309 41.096 488.56 42.1177C488.887 43.5154 488.416 44.3855 487.104 44.7255C486.38 44.9129 486.065 45.0793 486.473 45.8771C486.858 46.6242 486.886 47.337 486.13 47.9282C485.196 48.6924 484.214 48.8338 483.168 48.1449Z" fill="#FFBD59"/>
<path d="M144.237 10.779C144.483 10.6057 144.527 10.5485 144.596 10.5258C146.213 10.2108 145.987 9.20871 145.838 8.07494C145.627 6.57213 146.484 5.58052 148.147 5.13C149.316 4.82153 150.234 5.36102 150.736 6.63332C150.79 6.75005 150.837 6.89734 150.872 7.0274C150.986 8.03111 151.573 7.90077 152.339 7.54155C154.014 6.74703 155.248 7.01211 155.992 8.26785C156.688 9.45466 156.213 11.0283 154.739 12.068C154.097 12.5212 153.949 12.8323 154.657 13.2356C154.953 13.4141 155.217 13.6671 155.449 13.9161C156.439 14.9986 156.484 16.3863 155.427 17.4156C154.345 18.4888 153.337 18.8646 151.92 17.9798C151.119 17.4865 150.747 17.4396 150.127 18.3669C149.553 19.2369 148.669 19.9896 147.517 19.6406C145.951 19.1453 145.32 18.1708 145.65 16.6733C145.832 15.8481 145.826 15.439 144.819 15.3752C143.874 15.3192 143.146 14.9293 142.941 13.8356C142.653 12.4644 143.013 11.4103 144.237 10.779Z" fill="#5F861B"/>
<path d="M457.607 31.4344C457.309 31.2842 457.23 31.2691 457.171 31.2148C455.993 29.8347 455.157 30.5223 454.155 31.1994C452.833 32.1099 451.42 31.7688 450.088 30.4095C449.16 29.4501 449.177 28.3268 450.122 27.2509C450.204 27.1446 450.319 27.0302 450.424 26.9355C451.322 26.3531 450.879 25.8596 450.121 25.3059C448.453 24.0979 448.038 22.8058 448.834 21.508C449.592 20.2888 451.353 19.9932 453.146 20.8949C453.927 21.2879 454.305 21.281 454.306 20.42C454.317 20.056 454.416 19.6873 454.528 19.3499C455.026 17.9018 456.328 17.2028 457.884 17.715C459.497 18.2306 460.403 19.0062 460.325 20.7641C460.287 21.7545 460.445 22.129 461.667 22.2759C462.81 22.4078 464.008 22.8876 464.299 24.1416C464.675 25.8567 464.085 26.9141 462.475 27.3103C461.588 27.5286 461.2 27.7274 461.685 28.7098C462.144 29.6298 462.165 30.5024 461.231 31.2142C460.077 32.1351 458.874 32.2933 457.607 31.4344Z" fill="#5F861B"/>
<path fill-rule="evenodd" clip-rule="evenodd" d="M67.7427 31.6251C68.1589 30.9871 68.4224 30.3213 68.3115 29.6555V29.6554C68.3115 29.4751 68.3115 29.4058 68.2976 29.3087C68.367 27.8245 67.6179 26.7565 66.3695 26.1462C65.1072 25.522 63.6507 25.411 62.43 26.7704C62.0693 27.1865 61.7503 27.6442 61.4451 28.1019C61.2509 28.3932 61.0567 28.5458 60.807 28.2129C60.5524 27.8735 60.1924 27.6801 59.8385 27.49C59.7297 27.4315 59.6214 27.3733 59.517 27.3113C57.7553 26.2849 55.8965 26.5623 54.4678 28.0049C54.4339 28.0387 54.399 28.0714 54.3642 28.104C54.1847 28.2722 54.0078 28.438 53.9961 28.74C53.9953 28.7708 53.9945 28.8015 53.9937 28.8323C53.9523 30.3699 53.9105 31.9262 55.1752 33.1093C55.3694 33.2896 55.3694 33.4145 55.1336 33.5948C54.5953 33.9842 54.2178 34.5153 53.8449 35.04C53.7661 35.1509 53.6876 35.2614 53.6077 35.3702C52.3454 37.1041 52.7338 39.2125 54.5787 40.2528C55.3833 40.7105 56.3265 40.5857 57.1866 40.2528C57.8684 39.9911 58.2083 39.8559 58.3811 39.9711C58.5563 40.088 58.5597 40.4625 58.5737 41.2237V41.3624C58.5598 41.8063 58.754 42.1392 59.1286 42.4027C60.1689 43.1656 61.3203 43.0408 62.4855 42.8743C63.2206 42.7772 63.7616 42.3611 64.1362 41.7508C64.5246 41.1266 64.58 40.4192 64.5523 39.684C64.5246 39.2124 64.6078 39.0183 65.1904 39.2957C65.9256 39.6563 66.744 39.7534 67.5763 39.3789C68.5057 38.9628 69.1021 38.2137 69.5738 37.3815C69.7818 37.0209 69.9344 36.5631 69.976 36.0915C70.1286 34.538 69.2409 33.5809 68.0479 32.8874C67.3821 32.499 67.4098 32.1522 67.7427 31.6251ZM59.1563 33.9836C59.1428 35.2896 60.1512 36.4457 61.3036 36.4523C61.3138 36.4523 61.324 36.4523 61.3341 36.4522C61.8855 36.447 62.3764 36.2994 62.7769 36.0438C63.4443 35.6178 63.8605 34.8917 63.8865 34.0248C63.9142 32.7764 62.86 31.5697 61.3896 31.5974C60.2024 31.6232 59.2914 32.4772 59.1701 33.7017C59.161 33.7935 59.1563 33.8874 59.1563 33.9832C59.1563 33.9833 59.1563 33.9834 59.1563 33.9836Z" fill="#FFBD59"/>
<path fill-rule="evenodd" clip-rule="evenodd" d="M401.919 32.6184C402.186 31.7842 402.272 30.9689 401.938 30.2747L401.938 30.2746C401.881 30.077 401.859 30.0009 401.813 29.899C401.423 28.2491 400.244 27.3202 398.647 27.0546C397.03 26.7783 395.357 27.1276 394.412 29.0128C394.137 29.5857 393.923 30.1908 393.724 30.7914C393.597 31.1736 393.427 31.4037 393.041 31.1194C392.647 30.8295 392.181 30.7338 391.724 30.6398C391.583 30.6109 391.443 30.5821 391.305 30.5479C389 29.992 386.997 30.8972 385.844 32.941C385.817 32.989 385.788 33.0362 385.759 33.0832C385.61 33.3256 385.463 33.5647 385.545 33.8996C385.554 33.9336 385.563 33.9676 385.571 34.0016C386.01 35.7009 386.453 37.421 388.249 38.3094C388.524 38.4443 388.563 38.5812 388.355 38.8552C387.872 39.4562 387.615 40.1607 387.361 40.8566C387.307 41.0036 387.253 41.1502 387.198 41.2953C386.324 43.6047 387.426 45.791 389.829 46.3352C390.878 46.577 391.9 46.1351 392.763 45.492C393.452 44.9812 393.791 44.723 394.022 44.7984C394.253 44.8738 394.375 45.2833 394.629 46.1081L394.673 46.2602C394.797 46.7514 395.121 47.0536 395.625 47.2215C397.036 47.7217 398.292 47.2125 399.55 46.6532C400.346 46.3091 400.824 45.6778 401.053 44.8875C401.293 44.0775 401.132 43.2839 400.869 42.4867C400.69 41.9786 400.722 41.7387 401.465 41.8546C402.406 42.0123 403.357 41.8541 404.175 41.1744C405.089 40.4176 405.524 39.4034 405.793 38.3383C405.913 37.8756 405.94 37.3243 405.839 36.7938C405.521 35.041 404.22 34.2785 402.66 33.9038C401.788 33.6932 401.71 33.304 401.919 32.6184ZM393.124 36.0358C392.86 36.6028 392.801 37.2789 393.003 37.9803C393.399 39.4171 394.898 40.3589 396.196 39.9934C396.208 39.9902 396.219 39.9869 396.231 39.9835C396.334 39.9528 396.434 39.9183 396.53 39.8803C397.981 39.3098 398.703 37.935 398.337 36.4965C397.975 35.1187 396.408 34.1363 394.763 34.6422C394.001 34.8788 393.427 35.3855 393.124 36.0358Z" fill="#FFBD59"/>
<path fill-rule="evenodd" clip-rule="evenodd" d="M275.585 45.9393C274.151 48.1635 272.413 50.0943 269.855 51.1648C269.855 51.1648 269.855 51.1648 269.855 51.1648C269.721 51.4073 269.688 51.6978 269.655 51.987C269.61 52.3835 269.566 52.7777 269.262 53.0433C269.258 53.0428 269.253 53.0424 269.248 53.0419C269.249 53.5022 269.112 53.9028 268.975 54.3035C268.837 54.7076 268.699 55.1117 268.702 55.577L268.701 55.579L268.702 55.577C270.353 53.735 272.492 52.6019 275.03 52.0488C277.19 51.5821 279.459 51.4996 281.812 51.7149L281.857 51.7189C282.278 51.7566 282.611 51.7865 282.409 52.4217C282.225 52.9968 281.962 53.5163 281.685 54.0224C278.906 59.2039 274.33 61.3099 267.653 59.745C267.104 59.6223 266.827 59.6332 266.694 60.1284C266.493 60.8395 266.118 61.4539 265.747 62.0617C265.713 62.1181 265.678 62.1744 265.644 62.2308C265.331 62.7444 265.025 63.2623 264.719 63.78L264.719 63.7801C263.654 65.5804 262.59 67.3788 261.254 68.9922C259.409 71.2272 257.47 73.3932 255.435 75.4659C254.778 76.1305 254.051 76.7224 253.324 77.3142C252.602 77.9017 251.881 78.4891 251.227 79.1478C251.351 79.2123 251.428 79.1603 251.508 79.106C251.53 79.0909 251.552 79.0758 251.576 79.0628C253.019 78.1801 254.687 77.7529 256.529 77.7522C260.518 77.7668 264.319 79.2982 268.033 81.498C268.164 81.5825 268.299 81.6915 268.255 81.9291C267.971 81.8134 267.79 81.9403 267.609 82.0677C267.546 82.1119 267.483 82.1562 267.415 82.1904C264.933 83.4854 262.252 84.3515 259.168 84.311C256.085 84.2706 253.132 83.3241 250.345 81.2694C249.879 80.9248 249.464 80.609 250.104 80.1965C250.414 79.9965 250.678 79.7283 250.94 79.4612C251.038 79.361 251.137 79.2609 251.237 79.1647C251.237 79.1647 251.227 79.1637 251.219 79.1564L251.213 79.1625L251.219 79.1563L251.217 79.1541C250.687 79.3568 250.264 79.6875 249.838 80.02C249.588 80.2161 249.336 80.4128 249.061 80.5843C248.745 80.7778 248.436 80.9788 248.126 81.1795L248.126 81.1796C247.277 81.7312 246.429 82.2812 245.464 82.6712C246.444 81.7703 247.476 80.8983 248.555 80.1152C249 79.7936 249.043 79.5559 248.634 78.987C247.206 77.0446 246.098 74.9381 245.427 72.7387C244.062 68.2533 244.658 64.4425 247.154 61.2886C247.532 60.8158 247.826 60.8427 248.239 61.4361C248.468 61.7689 248.713 62.0842 248.958 62.3986L248.958 62.3986L248.958 62.3987L248.958 62.3987L248.958 62.3988L248.959 62.3988L248.959 62.3988C249.33 62.8757 249.7 63.3504 250.007 63.8808C251.81 67.0051 252.533 70.1152 252.035 73.2464C251.857 74.3656 251.538 75.4115 251.114 76.3994C250.757 77.2587 250.275 78.0493 249.798 78.834L249.798 78.834L249.797 78.8345C249.738 78.9316 249.679 79.0286 249.62 79.1256C257.602 72.7892 264.445 65.4791 268.204 55.5677L268.204 55.5677C268.384 54.6661 268.692 53.8246 269.038 52.9987C269.043 52.9991 269.048 52.9996 269.053 53.0001C269.071 52.7281 269.13 52.467 269.19 52.2055C269.304 51.7104 269.417 51.2141 269.245 50.6405C269.24 50.6352 269.235 50.6298 269.231 50.6246C269.185 50.4513 269.137 50.2808 269.088 50.1102C269.04 49.9397 268.992 49.7693 268.946 49.596C266.895 41.9072 270.113 37.0437 276.076 35.0766C276.659 34.8883 276.985 34.882 277.118 35.7638C277.705 39.5379 277.469 43.0313 275.585 45.9393ZM260.564 70.66C260.137 71.2068 259.906 71.5016 259.948 71.7511C259.996 72.0431 260.418 72.273 261.332 72.7719L261.332 72.7719C261.561 72.8967 261.821 73.0383 262.113 73.2018C264.039 74.2718 266.05 74.7577 268.037 74.855C269.44 74.9228 270.7 74.5308 271.93 74.0877C274.341 73.1969 275.832 71.3281 277.281 69.4193C277.523 69.1152 277.445 68.9752 277.027 68.8282C272.391 67.305 267.864 66.4682 263.739 68.1082C262.653 68.5403 261.804 69.2237 261.044 70.0359C260.865 70.2757 260.704 70.4813 260.564 70.66ZM253.087 57.3136C253.219 55.3325 253.635 53.4983 254.534 51.7445C256.616 54.085 258.51 56.3721 259.645 59.085C261.499 63.5064 261.19 67.2952 258.67 70.4469C258.051 71.2237 258.027 71.2215 257.376 70.2681C257.211 70.0289 257.042 69.7905 256.872 69.5518L256.872 69.5518C256.31 68.7613 255.744 67.9666 255.352 67.1236C253.838 63.8929 252.863 60.6027 253.087 57.3136ZM259.581 49.4279C259.165 46.7446 259.353 44.2372 260.178 41.7881C263.234 44.7492 265.576 47.9228 266.569 51.7461C267.268 54.4675 267.119 56.9904 266.192 59.2973C266.181 59.3242 266.17 59.3537 266.16 59.3842L266.16 59.3843C266.078 59.6177 265.977 59.9066 265.563 59.5055C265.291 59.2421 265.009 58.9873 264.727 58.7329L264.727 58.7329L264.727 58.7328L264.727 58.7328C264.053 58.1241 263.382 57.5184 262.866 56.8068C261.19 54.5155 259.991 52.0624 259.581 49.4279Z" fill="#3D5B09"/>
<path d="M504.319 60.8664C505.268 62.3708 504.902 64.1626 505.282 65.789C505.512 66.8343 505.452 67.9598 506.05 69.1654C506.609 67.1915 507.102 65.3863 507.599 63.6428C507.746 63.1051 507.392 62.9682 506.995 62.7612C505.443 61.8798 505.053 60.5156 505.751 58.7137C506.172 57.6249 507.475 56.9283 508.94 56.9981C510.365 57.0597 511.625 58.1833 511.795 59.5208C511.994 60.9051 511.082 62.3564 509.528 62.9177C508.662 63.2201 508.395 63.6711 508.281 64.5411C507.963 66.9124 507.893 69.3571 506.421 71.5014C506.115 71.944 506.393 72.5117 506.511 72.9843C507.378 76.5243 508.284 80.0725 509.176 83.5975C509.208 83.706 509.339 83.7544 509.545 83.9815C510.018 81.4198 510.488 79.0201 510.958 76.6204C511.041 76.0894 510.665 75.8056 510.324 75.4683C509.054 74.1594 509.168 72.2323 510.561 70.9045C511.75 69.7972 513.936 69.9404 515.153 71.2176C516.15 72.2444 515.934 74.3936 514.746 75.5009C514.153 76.0855 513.422 76.2743 512.64 76.2695C511.819 76.2562 511.587 76.6537 511.568 77.4018C511.479 80.3709 511.233 83.3066 510.319 86.2006C510.018 87.1525 510.523 88.0942 510.834 88.9942C511.858 91.958 512.745 94.9737 514.113 98.1128C514.524 96.0053 514.04 94.1535 514.558 92.3333C514.636 92.3499 514.7 92.3432 514.753 92.375C515.185 93.8093 514.942 95.3022 515.043 96.7467C515.19 98.7705 515.197 100.784 515.903 102.725C516.553 104.571 517.252 106.388 517.915 108.258C517.304 107.253 516.668 106.263 516.095 105.266C515.409 104.082 514.504 103.096 513.426 102.214C512.213 101.222 511.847 99.6194 510.938 98.3471C509.442 96.2784 508.218 94.0444 506.906 91.832C506.522 91.2009 506.2 90.9488 505.348 91.2746C503.745 91.866 502.416 91.2968 501.598 89.8409C500.955 88.7272 501.183 87.2109 502.164 86.2622C503.264 85.1766 504.933 85.026 506.353 85.859C507.509 86.5334 507.991 87.9377 507.334 89.3622C506.87 90.3809 507.183 90.8952 507.779 91.6532C509.416 93.7319 510.93 95.8858 512.542 97.9795C511.543 95.2244 510.481 92.476 509.683 89.6624C509.1 87.6469 508.542 85.6165 507.998 83.6094C507.869 83.1753 507.868 82.7277 507.39 82.4423C504.736 80.9182 503.666 78.27 502.611 75.6451C501.994 74.1307 501.565 72.5343 501.061 70.9831C500.918 70.5256 500.875 70.2317 500.154 70.3821C498.055 70.8267 496.211 69.3542 496.088 67.3153C495.994 65.547 498.63 63.8148 500.524 64.424C502.574 65.0665 503.394 67.1937 502.067 68.9624C501.415 69.8392 501.477 70.442 501.837 71.3119C503.016 74.0854 504.344 76.7686 505.87 79.3316C506.211 79.8926 506.69 80.4018 507.34 81.1915C506.75 78.2193 506.257 75.5726 505.715 72.956C505.108 70.1224 504.908 67.2335 504.493 64.3798C504.424 63.8772 504.355 63.3746 504.035 62.9605C501.394 59.7315 500.985 55.7205 500.414 51.7764C500.262 50.7477 499.956 50.1333 498.922 49.7695C497.237 49.2254 496.535 47.7944 496.976 46.1813C497.378 44.7835 499.076 43.6226 500.509 43.8077C502.161 44.0195 503.435 45.3902 503.288 46.985C503.22 47.7631 503.376 47.7965 504.097 47.6461C506.278 47.28 507.915 48.3016 508.133 49.9948C508.358 51.8116 507.163 53.2429 504.989 53.7326C504.636 53.8195 504.283 53.9064 503.954 53.9783C503.85 53.5291 503.57 53.3471 503.1 53.409C502.947 53.2137 502.784 53.0567 502.631 52.8614C501.896 51.9314 501.652 50.8627 501.9 49.6554C500.937 49.6322 500.496 49.9645 500.782 50.8796C501.04 51.7479 501.184 52.6529 501.653 53.4243C501.714 53.5796 501.785 53.6965 501.846 53.8518C501.828 53.9904 501.85 54.1373 501.833 54.2759C502.197 55.4314 502.35 56.6838 502.965 57.7507C503.354 58.8911 503.065 60.2521 504.319 60.8664Z" fill="#5F861B"/>
</svg>
