<svg width="520" height="64" viewBox="0 0 520 64" fill="none" xmlns="http://www.w3.org/2000/svg">
<path fill-rule="evenodd" clip-rule="evenodd" d="M484.757 38.8344C483.676 41.5405 482.272 44.0532 479.983 45.9763C479.983 45.9763 479.983 45.9763 479.983 45.9763C479.886 46.2639 479.891 46.5659 479.896 46.8667C479.903 47.279 479.91 47.6891 479.656 48.0561C479.651 48.0572 479.647 48.0583 479.643 48.0593C479.7 48.5205 479.621 48.9676 479.541 49.4147C479.461 49.8656 479.38 50.3165 479.441 50.782L479.441 50.7845L479.441 50.782C480.775 48.3869 482.659 46.5406 484.993 45.1431C486.98 43.9575 489.117 43.1212 491.372 42.555L491.415 42.5443C491.818 42.4423 492.138 42.3613 492.025 43.0654C491.923 43.7029 491.738 44.311 491.539 44.9104C489.554 51.0275 485.484 54.6589 478.967 55.3086C478.433 55.3679 478.171 55.471 478.107 56.0115C478.006 56.791 477.728 57.5314 477.452 58.2639L477.376 58.4676C477.143 59.0865 476.918 59.7074 476.692 60.3281L476.692 60.3282C475.909 62.4866 475.125 64.6428 474.062 66.7037C472.594 69.5571 471.028 72.3724 469.36 75.1262C468.82 76.0108 468.206 76.8456 467.591 77.6803C466.981 78.5089 466.371 79.3375 465.835 80.2149C465.96 80.2384 466.026 80.1608 466.095 80.0797C466.114 80.0573 466.134 80.0346 466.154 80.0138C467.41 78.6497 468.936 77.6672 470.68 77.0545C474.459 75.7437 478.249 76.016 482.039 76.9874C482.174 77.0284 482.315 77.0928 482.303 77.3455C482.02 77.3239 481.864 77.5112 481.708 77.6993C481.654 77.7645 481.6 77.8299 481.54 77.8866C479.351 80.0094 476.921 81.7683 473.997 82.7522C471.072 83.7361 468.159 83.7684 465.264 82.6346C464.779 82.4441 464.347 82.2654 464.902 81.6393C465.171 81.3357 465.387 80.9794 465.602 80.6245L465.602 80.6244C465.682 80.4913 465.763 80.3584 465.846 80.2285C465.846 80.2285 465.836 80.231 465.828 80.2263L465.823 80.2345L465.828 80.2263L465.825 80.2247C465.35 80.6038 464.99 81.0759 464.629 81.5507C464.415 81.8306 464.202 82.1114 463.963 82.3746C463.688 82.6734 463.42 82.9778 463.152 83.2818C462.416 84.117 461.683 84.9499 460.818 85.6614C461.633 84.4329 462.501 83.216 463.425 82.0726C463.806 81.6022 463.818 81.3496 463.359 80.9154C461.766 79.4426 460.454 77.6992 459.544 75.7176C457.693 71.675 457.782 67.6569 459.752 63.6663C460.051 63.0668 460.333 62.9961 460.797 63.4538C461.056 63.7114 461.328 63.9458 461.599 64.1795C462.01 64.5341 462.42 64.8871 462.776 65.3169C464.873 67.8495 465.945 70.7269 465.863 74.0312C465.835 75.212 465.663 76.3664 465.385 77.4975C465.154 78.4777 464.797 79.4301 464.442 80.3753C464.398 80.4925 464.354 80.6095 464.311 80.7265C471.077 71.7233 476.645 62.1222 478.969 50.9382C478.977 50.9373 478.986 50.937 478.995 50.9372C478.986 50.937 478.977 50.9372 478.968 50.9381C479.026 49.9747 479.213 49.0288 479.438 48.0857C479.443 48.0845 479.448 48.0834 479.452 48.0824C479.435 47.8039 479.459 47.5222 479.483 47.2403C479.529 46.7062 479.575 46.171 479.34 45.6534C479.335 45.6496 479.33 45.6458 479.324 45.6422C479.259 45.4836 479.193 45.3288 479.126 45.1739C479.059 45.019 478.992 44.8642 478.927 44.7056C476.026 37.68 478.467 31.7357 483.867 27.7828C484.395 27.4005 484.704 27.2856 484.94 28.1254C485.965 31.7136 486.178 35.2937 484.757 38.8344ZM473.617 68.6048C473.257 69.3412 473.075 69.7155 473.187 69.9491C473.302 70.1905 473.732 70.2815 474.607 70.4665L474.607 70.4665L474.608 70.4666C474.84 70.5157 475.103 70.5713 475.4 70.6381C477.356 71.0709 479.321 70.8898 481.215 70.3269C482.551 69.929 483.696 69.1172 484.805 68.2644C486.977 66.5704 488.155 64.2019 489.289 61.807C489.48 61.422 489.389 61.3076 488.975 61.2992C484.396 61.3126 480.005 61.9778 476.304 64.9921C475.33 65.7861 474.612 66.7531 473.993 67.8199C473.853 68.1197 473.727 68.3793 473.617 68.6048ZM464.874 57.7105C464.752 55.6811 464.917 53.7042 465.549 51.6476C467.813 53.3019 469.891 54.9652 471.303 57.3076C473.61 61.1236 473.79 65.0239 471.797 69.0204C471.308 70.0048 471.284 70.0107 470.549 69.2712C470.364 69.0863 470.174 68.9038 469.983 68.7211L469.983 68.721L469.983 68.7209L469.983 68.7207L469.983 68.7207C469.352 68.1151 468.717 67.5063 468.241 66.7917C466.405 64.0561 465.071 61.0821 464.874 57.7105ZM470.039 47.6487C469.311 45.097 469.176 42.5213 469.652 39.7922C472.914 41.7451 475.528 44.148 476.944 47.6506C477.946 50.1462 478.119 52.7248 477.528 55.3453C477.521 55.3758 477.515 55.4089 477.509 55.443L477.509 55.443C477.46 55.7042 477.401 56.0275 476.959 55.7629C476.668 55.5892 476.369 55.4275 476.071 55.2661C475.357 54.88 474.646 54.4958 474.07 53.9536C472.197 52.2138 470.755 50.1533 470.039 47.6487Z" fill="#3D5B09"/>
<path fill-rule="evenodd" clip-rule="evenodd" d="M315.469 25.3245C313.519 23.1589 311.886 20.7888 311.172 17.8856C311.172 17.8856 311.172 17.8856 311.172 17.8856C310.957 17.6721 310.683 17.5432 310.411 17.4148C310.038 17.2388 309.667 17.0637 309.451 16.6734C309.452 16.6689 309.453 16.6645 309.454 16.6601C309.014 16.5081 308.648 16.2392 308.283 15.9702C307.914 15.6989 307.544 15.4276 307.1 15.2763L307.098 15.2749L307.1 15.2764C308.659 17.5314 309.483 20.0372 309.705 22.7481C309.891 25.0547 309.697 27.3417 309.208 29.6149L309.199 29.6576C309.112 30.0644 309.043 30.3871 308.462 29.9748C307.935 29.6015 307.471 29.1673 307.021 28.7238C302.411 24.24 300.952 18.9841 303.249 12.8509C303.432 12.3452 303.455 12.0652 302.998 11.7689C302.344 11.3336 301.803 10.7566 301.267 10.1858L301.118 10.0271C300.666 9.54533 300.208 9.06867 299.751 8.59214L299.751 8.59209C298.161 6.9351 296.573 5.27974 295.194 3.41533C293.283 0.837023 291.45 -1.81144 289.717 -4.52498C289.161 -5.39987 288.684 -6.31997 288.207 -7.24006C287.733 -8.15335 287.259 -9.06664 286.709 -9.93573C286.633 -9.83366 286.673 -9.74011 286.716 -9.64235C286.727 -9.61536 286.739 -9.58805 286.749 -9.56015C287.417 -7.83093 287.624 -6.02755 287.403 -4.19229C286.909 -0.22321 284.99 3.0557 282.444 6.02635C282.348 6.12948 282.228 6.22752 282.006 6.10559C282.151 5.86074 282.051 5.63861 281.952 5.41543C281.917 5.33803 281.882 5.26052 281.858 5.18189C280.921 2.28021 280.417 -0.67702 280.827 -3.73521C281.236 -6.79341 282.495 -9.42144 284.791 -11.5168C285.176 -11.8676 285.527 -12.1761 285.844 -11.402C285.997 -11.0267 286.222 -10.6756 286.445 -10.3258L286.445 -10.3257C286.529 -10.1945 286.612 -10.0635 286.692 -9.93149C286.692 -9.93149 286.694 -9.94145 286.702 -9.94706L286.697 -9.95515L286.702 -9.94712L286.705 -9.94855C286.575 -10.5429 286.31 -11.0741 286.044 -11.6081C285.887 -11.923 285.73 -12.2389 285.599 -12.5693C285.453 -12.9479 285.298 -13.3229 285.144 -13.6975C284.72 -14.7267 284.297 -15.753 284.041 -16.8433C284.782 -15.5691 285.49 -14.2526 286.108 -12.9184C286.361 -12.3684 286.583 -12.2465 287.175 -12.4661C289.2 -13.2447 291.344 -13.6511 293.524 -13.5914C297.968 -13.4662 301.533 -11.61 304.243 -8.07971C304.648 -7.54661 304.587 -7.26245 303.971 -7.04798C303.626 -6.93025 303.296 -6.78982 302.966 -6.64982C302.466 -6.43739 301.969 -6.22595 301.426 -6.09627C298.227 -5.33441 295.172 -5.64411 292.244 -7.1776C291.197 -7.72462 290.238 -8.38915 289.346 -9.13821C288.569 -9.77909 287.872 -10.5204 287.181 -11.256C287.095 -11.3472 287.01 -11.4383 286.924 -11.5291C292.01 -1.4804 298.163 7.75694 307.169 14.7833C307.166 14.7914 307.162 14.7994 307.158 14.8072C307.162 14.7993 307.166 14.7913 307.169 14.7833C308.008 15.2608 308.774 15.8466 309.52 16.4653C309.519 16.47 309.518 16.4747 309.517 16.4793C309.774 16.5869 310.016 16.733 310.259 16.8792C310.718 17.1561 311.177 17.4337 311.745 17.4519C311.751 17.4489 311.757 17.4458 311.763 17.4427C311.933 17.4547 312.102 17.463 312.27 17.4713C312.439 17.4797 312.607 17.488 312.778 17.5C320.363 18.0027 324.616 22.8187 325.776 29.4099C325.886 30.0528 325.852 30.3801 324.995 30.2206C321.323 29.5553 318.017 28.1636 315.469 25.3245ZM293.686 2.17544C293.184 1.52792 292.929 1.19875 292.67 1.19578C292.402 1.19271 292.13 1.53839 291.578 2.24152L291.578 2.24157L291.578 2.24193C291.431 2.42832 291.265 2.63983 291.074 2.87661C289.821 4.44061 289.115 6.2832 288.783 8.2309C288.55 9.6052 288.772 10.9908 289.047 12.3628C289.607 15.0596 291.211 17.1632 292.858 19.239C293.119 19.58 293.262 19.5488 293.453 19.181C295.464 15.0673 296.808 10.8348 295.739 6.1831C295.457 4.9582 294.907 3.88625 294.224 2.85987C294.016 2.60201 293.839 2.37379 293.686 2.17544ZM307.322 -0.853034C309.197 -0.0661656 310.897 0.955732 312.462 2.43174C309.978 3.73112 307.568 4.86053 304.842 5.09235C300.4 5.47541 296.821 3.91362 294.117 0.359631C293.45 -0.514481 293.455 -0.538161 294.443 -0.87082C294.691 -0.955359 294.939 -1.04526 295.187 -1.13531L295.187 -1.13536L295.187 -1.13541L295.187 -1.13548L295.188 -1.13551C296.01 -1.43393 296.836 -1.73392 297.688 -1.8458C300.953 -2.28368 304.21 -2.16588 307.322 -0.853034ZM314.066 8.22653C316.676 8.70089 319.047 9.71812 321.284 11.351C318.091 13.4146 314.78 14.6974 311.013 14.4203C308.331 14.2157 305.942 13.2314 303.852 11.5436C303.827 11.5241 303.801 11.504 303.773 11.4832L303.773 11.4832C303.56 11.3244 303.296 11.1278 303.729 10.8483C304.013 10.6648 304.29 10.4679 304.567 10.2715C305.229 9.80137 305.888 9.33362 306.629 9.05608C309.017 8.14488 311.502 7.76235 314.066 8.22653Z" fill="#3D5B09"/>
<path fill-rule="evenodd" clip-rule="evenodd" d="M504.19 15.6561C502.24 13.4905 500.606 11.1204 499.893 8.21718C499.893 8.21717 499.893 8.21716 499.893 8.21716C499.677 8.0037 499.404 7.87477 499.132 7.74637C498.759 7.57037 498.388 7.39535 498.171 7.00498C498.172 7.0005 498.173 6.99609 498.174 6.99173C497.735 6.83974 497.369 6.57076 497.003 6.30178C496.634 6.03048 496.265 5.75917 495.821 5.60793L495.819 5.60646L495.821 5.60799C497.38 7.86299 498.204 10.3688 498.426 13.0797C498.612 15.3863 498.417 17.6733 497.929 19.9465L497.92 19.9892C497.833 20.3961 497.764 20.7187 497.183 20.3064C496.656 19.9331 496.192 19.4989 495.742 19.0554C491.132 14.5716 489.673 9.31573 491.97 3.18247C492.153 2.67678 492.176 2.39683 491.719 2.10053C491.065 1.66516 490.524 1.08822 489.988 0.517396L489.839 0.358748C489.387 -0.123062 488.929 -0.599727 488.472 -1.07626L488.472 -1.07631C486.882 -2.73329 485.294 -4.38866 483.915 -6.25307C482.004 -8.83137 480.171 -11.4798 478.438 -14.1934C477.882 -15.0683 477.405 -15.9884 476.928 -16.9085C476.454 -17.8217 475.98 -18.735 475.43 -19.6041C475.354 -19.5021 475.394 -19.4085 475.436 -19.3108C475.448 -19.2838 475.46 -19.2564 475.469 -19.2285C476.138 -17.4993 476.345 -15.696 476.124 -13.8607C475.63 -9.89161 473.711 -6.6127 471.165 -3.64204C471.069 -3.53891 470.949 -3.44088 470.727 -3.56281C470.872 -3.80765 470.772 -4.02979 470.673 -4.25297C470.638 -4.33036 470.603 -4.40788 470.579 -4.48651C469.642 -7.38818 469.138 -10.3454 469.547 -13.4036C469.957 -16.4618 471.216 -19.0898 473.512 -21.1852C473.897 -21.536 474.248 -21.8445 474.565 -21.0704C474.718 -20.6951 474.943 -20.344 475.166 -19.9942L475.166 -19.9941C475.25 -19.8629 475.333 -19.7319 475.413 -19.5999C475.413 -19.5999 475.415 -19.6098 475.423 -19.6155L475.418 -19.6235L475.423 -19.6155L475.426 -19.6169C475.296 -20.2113 475.031 -20.7425 474.765 -21.2765C474.608 -21.5914 474.451 -21.9073 474.32 -22.2377C474.173 -22.6163 474.019 -22.9913 473.865 -23.3659C473.44 -24.3951 473.018 -25.4214 472.761 -26.5117C473.503 -25.2375 474.211 -23.921 474.829 -22.5868C475.082 -22.0368 475.304 -21.9149 475.896 -22.1345C477.921 -22.9131 480.065 -23.3195 482.244 -23.2598C486.689 -23.1345 490.254 -21.2784 492.963 -17.7481C493.369 -17.215 493.308 -16.9308 492.692 -16.7164C492.347 -16.5986 492.016 -16.4582 491.687 -16.3182C491.187 -16.1058 490.689 -15.8943 490.146 -15.7647C486.948 -15.0028 483.893 -15.3125 480.965 -16.846C479.918 -17.393 478.958 -18.0575 478.067 -18.8066C477.29 -19.4475 476.593 -20.1888 475.902 -20.9244C475.816 -21.0156 475.731 -21.1067 475.645 -21.1975C480.731 -11.1488 486.884 -1.91146 495.89 5.11494C495.887 5.12302 495.883 5.13096 495.879 5.13881C495.883 5.13092 495.887 5.12295 495.89 5.11487C496.729 5.59242 497.494 6.17817 498.241 6.79691C498.24 6.80163 498.239 6.80629 498.238 6.8109C498.495 6.91851 498.737 7.06456 498.98 7.2108C499.438 7.48774 499.898 7.76532 500.466 7.78354C500.472 7.78053 500.478 7.77745 500.483 7.77431C500.654 7.78626 500.823 7.79461 500.991 7.80295C501.16 7.8113 501.328 7.81965 501.499 7.83159C509.083 8.33428 513.337 13.1503 514.497 19.7415C514.607 20.3844 514.573 20.7117 513.716 20.5522C510.044 19.8869 506.738 18.4953 504.19 15.6561ZM482.407 -7.49295C481.905 -8.14048 481.65 -8.46965 481.391 -8.47262C481.123 -8.47569 480.851 -8.13 480.299 -7.42688L480.299 -7.42683L480.298 -7.42647C480.152 -7.24007 479.986 -7.02857 479.795 -6.79179C478.542 -5.22778 477.836 -3.38519 477.504 -1.43749C477.271 -0.063192 477.493 1.32239 477.768 2.69445C478.328 5.39122 479.932 7.49485 481.579 9.5706C481.84 9.91161 481.983 9.8804 482.174 9.51259C484.185 5.39892 485.528 1.16644 484.46 -3.48529C484.178 -4.71019 483.628 -5.78215 482.944 -6.80852C482.737 -7.06639 482.56 -7.29461 482.407 -7.49295ZM496.043 -10.5214C497.917 -9.73456 499.618 -8.71266 501.183 -7.23665C498.699 -5.93728 496.289 -4.80787 493.563 -4.57604C489.121 -4.19299 485.542 -5.75477 482.838 -9.30876C482.171 -10.1829 482.176 -10.2066 483.164 -10.5392C483.412 -10.6238 483.66 -10.7137 483.908 -10.8037L483.908 -10.8038L483.908 -10.8038L483.908 -10.8039L483.908 -10.8039C484.73 -11.1023 485.557 -11.4023 486.409 -11.5142C489.674 -11.9521 492.931 -11.8343 496.043 -10.5214ZM502.787 -1.44186C505.397 -0.967501 507.768 0.049727 510.005 1.68262C506.812 3.74618 503.501 5.029 499.733 4.75187C497.052 4.54728 494.663 3.56303 492.573 1.87524C492.548 1.85569 492.521 1.83559 492.494 1.81484L492.494 1.81482C492.281 1.656 492.017 1.45943 492.45 1.17991C492.734 0.996357 493.011 0.799506 493.288 0.603062C493.95 0.132975 494.608 -0.334771 495.35 -0.612311C497.738 -1.52352 500.223 -1.90604 502.787 -1.44186Z" fill="#3D5B09"/>
<path fill-rule="evenodd" clip-rule="evenodd" d="M188.259 16.4837C190.211 15.2354 191.908 13.7208 192.854 11.4844C192.854 11.4844 192.854 11.4844 192.854 11.4843C193.067 11.3682 193.321 11.3404 193.574 11.3127C193.922 11.2747 194.267 11.237 194.501 10.9721C194.5 10.968 194.5 10.964 194.499 10.96C194.902 10.962 195.254 10.8436 195.605 10.7251C195.959 10.6057 196.313 10.4862 196.721 10.4903L196.722 10.4898L196.721 10.4904C195.102 11.9299 194.103 13.7986 193.61 16.0184C193.194 17.9083 193.114 19.894 193.294 21.9554L193.298 21.9941C193.329 22.3628 193.354 22.6551 193.911 22.4798C194.415 22.321 194.871 22.0924 195.315 21.8517C199.861 19.4365 201.721 15.4373 200.374 9.58586C200.268 9.1053 200.278 8.86244 200.712 8.74783C201.336 8.57459 201.875 8.2484 202.408 7.92567L202.557 7.83605C203.008 7.56382 203.462 7.29736 203.916 7.03098C205.496 6.10475 207.074 5.17942 208.492 4.01586C210.455 2.40788 212.358 0.717941 214.179 -1.05668C214.764 -1.62992 215.284 -2.26433 215.805 -2.89874C216.322 -3.52846 216.838 -4.15818 217.417 -4.72808C217.473 -4.61935 217.428 -4.55243 217.38 -4.48251C217.367 -4.46321 217.353 -4.44368 217.342 -4.42297C216.564 -3.16307 216.184 -1.70387 216.177 -0.091013C216.176 3.40174 217.504 6.73455 219.417 9.99326C219.491 10.1088 219.586 10.227 219.794 10.1898C219.694 9.94057 219.805 9.78268 219.918 9.62406C219.956 9.56905 219.995 9.51396 220.026 9.45494C221.168 7.28594 221.935 4.94183 221.911 2.24204C221.886 -0.457739 221.067 -3.04626 219.278 -5.49295C218.978 -5.90274 218.703 -6.26686 218.339 -5.70798C218.163 -5.43704 217.927 -5.20736 217.693 -4.97858C217.605 -4.89276 217.517 -4.80706 217.432 -4.71935C217.432 -4.71935 217.431 -4.7284 217.425 -4.7355L217.43 -4.7408L217.425 -4.73556L217.423 -4.73749C217.602 -5.20019 217.893 -5.56963 218.186 -5.94109C218.358 -6.1601 218.531 -6.37982 218.682 -6.61977C218.853 -6.8955 219.03 -7.16587 219.207 -7.43596L219.207 -7.43605C219.693 -8.17818 220.177 -8.91824 220.522 -9.76168C219.73 -8.90702 218.963 -8.0067 218.274 -7.06464C217.99 -6.67603 217.782 -6.63884 217.286 -6.99935C215.59 -8.25566 213.749 -9.23314 211.826 -9.82835C207.904 -11.039 204.565 -10.5298 201.795 -8.3557C201.38 -8.02636 201.403 -7.76868 201.921 -7.40546C202.211 -7.20398 202.487 -6.98771 202.761 -6.77209C203.177 -6.44493 203.592 -6.11928 204.055 -5.84912C206.784 -4.25951 209.505 -3.6159 212.248 -4.04167C213.228 -4.19287 214.145 -4.46897 215.012 -4.83641C215.765 -5.14664 216.459 -5.56534 217.148 -5.98086L217.148 -5.98088C217.233 -6.03238 217.318 -6.08382 217.403 -6.13501C211.828 0.831037 205.405 6.79726 196.714 10.0543C196.715 10.0569 196.716 10.0596 196.716 10.0622C196.717 10.0645 196.718 10.0668 196.718 10.069C196.717 10.064 196.715 10.0591 196.714 10.0542C195.924 10.2084 195.187 10.4755 194.462 10.7761C194.463 10.7804 194.463 10.7846 194.463 10.7888C194.225 10.8033 193.996 10.8548 193.767 10.9063C193.333 11.0039 192.899 11.1017 192.397 10.9489C192.392 10.9446 192.388 10.9404 192.383 10.9361C192.231 10.8955 192.082 10.8527 191.933 10.8098C191.784 10.7669 191.635 10.724 191.483 10.6835C184.759 8.86127 180.49 11.662 178.747 16.8758C178.58 17.3854 178.574 17.6712 179.345 17.7907C182.647 18.3173 185.707 18.1229 188.259 16.4837ZM209.954 3.41725C210.434 3.0449 210.693 2.84412 210.912 2.88139C211.167 2.92501 211.367 3.29473 211.8 4.09717C211.909 4.29783 212.032 4.52554 212.174 4.78198C213.104 6.47167 213.523 8.23423 213.601 9.97472C213.656 11.2026 213.308 12.3049 212.916 13.3804C212.128 15.4883 210.487 16.7869 208.81 18.0492C208.543 18.2594 208.421 18.1907 208.294 17.8242C206.976 13.7601 206.259 9.79373 207.709 6.18819C208.091 5.23887 208.692 4.49793 209.406 3.83502C209.617 3.67898 209.797 3.53895 209.954 3.41725ZM198.295 -3.1746C196.56 -3.06636 194.953 -2.70832 193.414 -1.92748C195.456 -0.0962372 197.452 1.56988 199.823 2.57248C203.688 4.21111 207.006 3.95411 209.774 1.75853C210.456 1.21901 210.454 1.19754 209.622 0.624421C209.413 0.479718 209.205 0.33055 208.997 0.181137L208.997 0.181006L208.997 0.180861L208.997 0.180813C208.306 -0.314222 207.613 -0.811884 206.876 -1.15845C204.052 -2.49463 201.175 -3.35994 198.295 -3.1746ZM191.368 2.48349C189.021 2.11025 186.825 2.26597 184.678 2.97997C187.26 5.66558 190.03 7.7276 193.374 8.60985C195.754 9.23138 197.964 9.10923 199.987 8.30511C200.01 8.29585 200.036 8.28689 200.063 8.27763L200.063 8.27762C200.267 8.20676 200.521 8.11906 200.171 7.75528C199.941 7.5164 199.719 7.26833 199.497 7.02077C198.967 6.42836 198.439 5.8389 197.818 5.38542C195.817 3.90984 193.674 2.85128 191.368 2.48349Z" fill="#3D5B09"/>
<path fill-rule="evenodd" clip-rule="evenodd" d="M90.4472 10.0864C89.5995 7.92974 88.4412 5.97272 86.4297 4.61244C86.4297 4.61244 86.4296 4.61244 86.4296 4.61244C86.3567 4.38121 86.3786 4.12624 86.4004 3.87233C86.4302 3.52427 86.4599 3.17817 86.2451 2.89785C86.2411 2.89742 86.2371 2.89703 86.2331 2.89668C86.3128 2.50166 86.2645 2.13415 86.2161 1.76665C86.1674 1.39597 86.1186 1.0253 86.2013 0.62639L86.2011 0.624839L86.2014 0.62636C87.3012 2.49236 88.9416 3.8339 91.0244 4.74637C92.7982 5.5197 94.7312 5.98177 96.7885 6.203L96.8271 6.2072C97.195 6.24744 97.4867 6.27935 97.4222 5.69916C97.3638 5.17386 97.2275 4.68256 97.0771 4.20032C95.5857 -0.726599 92.021 -3.32373 86.0196 -3.13229C85.5277 -3.12163 85.2914 -3.17881 85.2628 -3.62676C85.2133 -4.27182 84.9974 -4.86381 84.7838 -5.44953L84.7245 -5.61246C84.5445 -6.10737 84.3708 -6.60476 84.1973 -7.10201C83.5937 -8.83099 82.9907 -10.5583 82.1228 -12.1735C80.9243 -14.4102 79.6339 -16.6039 78.2446 -18.7341C77.795 -19.4179 77.2731 -20.0513 76.7512 -20.6848C76.2332 -21.3135 75.7152 -21.9422 75.2679 -22.6203C75.3854 -22.6543 75.4422 -22.5965 75.5015 -22.536C75.5179 -22.5193 75.5345 -22.5024 75.5526 -22.4872C76.6385 -21.4807 77.9969 -20.8261 79.578 -20.5078C83.0048 -19.8322 86.5313 -20.491 90.0983 -21.7387C90.2258 -21.7885 90.3602 -21.8588 90.3639 -22.0702C90.0999 -22.02 89.9666 -22.1601 89.8326 -22.3008C89.7862 -22.3496 89.7397 -22.3985 89.6876 -22.4396C87.7801 -23.9793 85.6284 -25.1852 82.9747 -25.6824C80.321 -26.1796 77.6231 -25.8765 74.8768 -24.5936C74.4168 -24.3782 74.0064 -24.1787 74.4845 -23.7142C74.7163 -23.489 74.8962 -23.2134 75.0753 -22.9389C75.1425 -22.8359 75.2096 -22.733 75.2793 -22.6331C75.2793 -22.6331 75.2702 -22.634 75.262 -22.6291L75.2579 -22.6354L75.262 -22.6291L75.2597 -22.6275C74.8404 -22.8928 74.5341 -23.2497 74.2262 -23.6086C74.0446 -23.8202 73.8625 -24.0325 73.6562 -24.227C73.4186 -24.4476 73.1875 -24.6735 72.9567 -24.8992L72.9566 -24.8992C72.3223 -25.5193 71.6898 -26.1376 70.9288 -26.6388C71.6144 -25.6965 72.3496 -24.7701 73.1407 -23.9117C73.4673 -23.5589 73.4636 -23.3474 73.0139 -22.9297C71.4537 -21.5086 70.1391 -19.8917 69.1835 -18.1196C67.2379 -14.505 67.0926 -11.131 68.6907 -7.99335C68.9336 -7.52235 69.1908 -7.4947 69.6472 -7.93286C69.9011 -8.17908 70.1664 -8.40733 70.431 -8.63489C70.8324 -8.98017 71.232 -9.32386 71.5866 -9.72627C73.6735 -12.097 74.8305 -14.6418 74.9427 -17.4155C74.9837 -18.4068 74.8899 -19.3596 74.6968 -20.2807C74.538 -21.08 74.2612 -21.8417 73.9866 -22.5976L73.9865 -22.5976C73.9525 -22.6913 73.9185 -22.7849 73.8847 -22.8784C79.6426 -16.0628 84.2555 -8.60756 85.7723 0.548426C85.775 0.548351 85.7777 0.548214 85.7805 0.54802C85.7828 0.547857 85.7852 0.547651 85.7875 0.547408C85.7823 0.54796 85.7772 0.548313 85.7722 0.548452C85.7709 1.35332 85.8904 2.12882 86.0454 2.89755C86.0497 2.89801 86.0539 2.89842 86.0581 2.89878C86.0263 3.13531 86.0326 3.36978 86.0389 3.60453C86.0509 4.04912 86.0628 4.49473 85.816 4.95727C85.8109 4.96106 85.8058 4.9648 85.8007 4.9685C85.7317 5.10937 85.6608 5.24739 85.5899 5.38541C85.5191 5.52343 85.4482 5.66146 85.3791 5.80233C82.2921 12.0482 84.2154 16.778 88.9944 19.4951C89.4621 19.7572 89.7412 19.819 90.0075 19.085C91.1621 15.9467 91.5624 12.9074 90.4472 10.0864ZM81.818 -13.7241C81.5454 -14.2672 81.3984 -14.56 81.4772 -14.767C81.5693 -15.0093 81.9707 -15.1339 82.8418 -15.4044C83.0596 -15.472 83.3068 -15.5487 83.5859 -15.6387C85.4234 -16.225 87.2337 -16.2951 88.9565 -16.0357C90.1718 -15.8521 91.1862 -15.2981 92.1656 -14.7055C94.0816 -13.525 95.0387 -11.6638 95.9534 -9.77531C96.108 -9.47268 96.017 -9.36596 95.6328 -9.31194C91.3907 -8.80419 87.3605 -8.86683 84.103 -10.986C83.2454 -11.5443 82.6346 -12.2773 82.122 -13.1057C82.0096 -13.3424 81.9071 -13.5466 81.818 -13.7241ZM73.0979 -3.55782C72.869 -1.8347 72.9097 -0.188497 73.3786 1.47196C75.5699 -0.177849 77.5902 -1.81427 79.032 -3.94717C81.3863 -7.4225 81.7752 -10.7279 80.1557 -13.8679C79.7582 -14.6415 79.7367 -14.6438 79.0136 -13.9377C78.8313 -13.7609 78.6448 -13.5856 78.4579 -13.4101L78.4578 -13.41L78.4576 -13.4098L78.4575 -13.4098C77.8385 -12.8282 77.2162 -12.2436 76.7338 -11.5877C74.8774 -9.07572 73.4725 -6.41983 73.0979 -3.55782ZM77.3114 4.33103C76.4916 6.5626 76.2202 8.74722 76.5059 10.9917C79.6398 8.97723 82.1982 6.65721 83.7098 3.54672C84.7794 1.33143 85.0864 -0.859957 84.6882 -3.00006C84.6837 -3.02501 84.6799 -3.05214 84.676 -3.08015L84.676 -3.0802C84.646 -3.29468 84.6089 -3.56014 84.1844 -3.28726C83.9056 -3.10807 83.6193 -2.93798 83.3336 -2.76824C82.6498 -2.36206 81.9694 -1.9579 81.4045 -1.43595C79.5703 0.241656 78.1176 2.14037 77.3114 4.33103Z" fill="#3D5B09"/>
<path d="M416.703 42.7531C416.674 44.603 417.898 45.9975 418.411 47.6482C418.752 48.7012 419.378 49.6688 419.492 51.0634C418.012 49.6119 416.674 48.2743 415.365 46.9936C414.967 46.5952 415.194 46.2821 415.422 45.8837C416.276 44.2615 415.906 42.8385 414.397 41.6147C413.487 40.8748 412.035 40.9602 410.84 41.814C409.673 42.6393 409.189 44.3184 409.73 45.5991C410.271 46.9367 411.779 47.7336 413.373 47.392C414.255 47.1928 414.711 47.449 415.251 48.1605C416.731 50.0957 418.041 52.2302 420.374 53.3401C420.858 53.5678 420.915 54.2224 421.057 54.7062C422.139 58.3206 423.192 61.9634 424.245 65.5778C424.273 65.6916 424.188 65.8055 424.131 66.1185C422.424 64.0979 420.801 62.2196 419.179 60.3412C418.837 59.9143 419.008 59.459 419.122 58.9752C419.52 57.1253 418.439 55.4746 416.589 55.0477C415.024 54.7062 413.259 56.0154 412.889 57.8083C412.576 59.2598 413.857 61.0527 415.422 61.3942C416.219 61.5935 416.931 61.3658 417.585 60.9389C418.268 60.4835 418.667 60.7112 419.065 61.3658C420.659 63.9556 422.367 66.4316 424.615 68.5092C425.355 69.1922 425.412 70.3021 425.611 71.2697C426.266 74.4572 427.063 77.6163 427.518 81.1453C426.095 79.4946 425.554 77.5878 424.188 76.2502C424.131 76.3071 424.074 76.3356 424.046 76.3925C424.416 77.9009 425.383 79.0962 426.038 80.4338C426.949 82.3121 427.973 84.1051 428.372 86.2111C428.77 88.2033 429.112 90.1954 429.51 92.2161C429.51 90.9923 429.539 89.7686 429.51 88.5733C429.482 87.1503 429.738 85.7842 430.193 84.4181C430.706 82.8813 430.193 81.2591 430.307 79.6369C430.506 76.9902 430.393 74.3434 430.364 71.6682C430.364 70.8998 430.506 70.5014 431.389 70.3306C433.04 69.9891 433.865 68.7653 433.808 67.0292C433.78 65.6916 432.812 64.4679 431.503 64.1548C430.023 63.7848 428.543 64.5533 427.774 66.0616C427.148 67.2854 427.461 68.7938 428.742 69.7045C429.653 70.359 429.653 70.9851 429.539 71.9812C429.226 74.7134 429.055 77.4455 428.77 80.1776C428.201 77.1894 427.689 74.1726 426.92 71.2413C426.38 69.1353 425.81 67.0293 425.241 64.9517C425.127 64.4963 424.9 64.0979 425.156 63.5856C426.607 60.7966 426.152 57.8652 425.697 54.9624C425.44 53.2832 424.985 51.6326 424.615 49.9819C424.501 49.4981 424.387 49.2135 425.07 48.9573C427.063 48.2174 427.86 45.9122 426.92 44.0338C426.095 42.4116 422.993 42.2978 421.712 43.8631C420.317 45.5422 420.716 47.8759 422.737 48.7297C423.733 49.1566 423.989 49.7258 424.131 50.6934C424.558 53.7955 424.814 56.8976 424.843 59.9997C424.843 60.6827 424.7 61.3942 424.558 62.4472C423.534 59.4874 422.594 56.8692 421.712 54.2509C420.773 51.4049 419.464 48.7297 418.354 45.9691C418.154 45.4852 417.955 45.0015 418.012 44.4607C418.581 40.1633 416.874 36.3781 415.337 32.5645C414.938 31.5685 414.881 30.857 415.564 29.9747C416.703 28.5802 416.561 26.9295 415.365 25.7342C414.312 24.7097 412.291 24.5958 411.181 25.535C409.901 26.6165 409.531 28.5233 410.47 29.8609C410.925 30.5155 410.811 30.6293 410.128 30.8854C408.108 31.7392 407.254 33.5322 407.937 35.1544C408.677 36.8904 410.413 37.5166 412.491 36.7766C412.832 36.6628 413.174 36.5489 413.487 36.4351C413.344 35.9797 413.487 35.6667 413.914 35.4675C413.942 35.2113 413.999 34.9836 414.027 34.7275C414.17 33.5037 413.828 32.4223 413.003 31.4831C413.8 30.9424 414.341 30.9993 414.568 31.9669C414.796 32.8776 415.137 33.7599 415.137 34.699C415.166 34.8698 415.166 35.0121 415.194 35.1829C415.28 35.2967 415.337 35.439 415.422 35.5528C415.707 36.7766 416.219 37.9719 416.247 39.2526C416.504 40.4763 417.443 41.5294 416.703 42.7531Z" fill="#5F861B"/>
<path d="M198.914 51.235C199.317 53.0408 200.831 54.1127 201.713 55.599C202.29 56.5438 203.124 57.3394 203.559 58.6692C201.782 57.6016 200.17 56.6116 198.599 55.6703C198.119 55.3754 198.268 55.018 198.396 54.5776C198.85 52.8013 198.159 51.5033 196.408 50.6637C195.35 50.1557 193.958 50.5762 192.994 51.6845C192.051 52.7584 191.97 54.5041 192.794 55.624C193.631 56.7992 195.283 57.2236 196.754 56.5209C197.566 56.1221 198.068 56.2654 198.76 56.8317C200.649 58.3699 202.418 60.1415 204.946 60.6785C205.47 60.7875 205.677 61.4109 205.928 61.8484C207.82 65.1124 209.691 68.4106 211.556 71.6812C211.61 71.7853 211.553 71.9159 211.571 72.2336C209.44 70.6653 207.426 69.2155 205.411 67.7657C204.98 67.4299 205.04 66.9473 205.038 66.4503C204.996 64.5585 203.56 63.2044 201.662 63.2193C200.06 63.251 198.648 64.9345 198.705 66.7643C198.738 68.2488 200.4 69.6949 202.002 69.6632C202.823 69.6717 203.462 69.2849 204 68.7175C204.558 68.1158 204.999 68.2447 205.539 68.7887C207.691 70.9371 209.927 72.9483 212.597 74.4463C213.475 74.9386 213.789 76.0048 214.208 76.8997C215.585 79.8477 217.095 82.7349 218.358 86.0614C216.59 84.7867 215.621 83.0579 213.981 82.0745C213.939 82.1431 213.89 82.184 213.876 82.2459C214.586 83.627 215.805 84.5646 216.753 85.7134C218.075 87.3286 219.489 88.8342 220.366 90.7899C221.217 92.6349 222.012 94.4931 222.869 96.3658C222.585 95.1756 222.328 93.9787 222.022 92.8228C221.664 91.4454 221.595 90.0572 221.721 88.6227C221.862 87.0089 220.986 85.5502 220.72 83.946C220.299 81.3254 219.573 78.7776 218.923 76.1823C218.744 75.4349 218.79 75.0144 219.609 74.6432C221.135 73.9273 221.653 72.5452 221.194 70.8699C220.855 69.5756 219.63 68.6103 218.284 68.6101C216.758 68.5943 215.497 69.6857 215.101 71.3314C214.776 72.6672 215.431 74.0614 216.889 74.6495C217.927 75.0744 218.072 75.6834 218.193 76.6786C218.524 79.4087 218.993 82.1057 219.351 84.8292C218.103 82.0551 216.903 79.2401 215.474 76.5676C214.459 74.645 213.416 72.729 212.379 70.8407C212.162 70.4243 211.848 70.0897 211.978 69.5319C212.742 66.4818 211.618 63.7366 210.5 61.0191C209.86 59.4455 209.034 57.946 208.29 56.4265C208.067 55.9824 207.89 55.7321 208.495 55.3242C210.261 54.1414 210.5 51.714 209.15 50.1055C207.97 48.7196 204.926 49.33 204.044 51.1501C203.078 53.1074 204.008 55.2846 206.172 55.6452C207.24 55.8289 207.622 56.323 207.985 57.231C209.121 60.1489 210.092 63.1065 210.84 66.117C210.999 66.7813 211.026 67.5064 211.132 68.5636C209.448 65.9231 207.926 63.5948 206.459 61.2534C204.884 58.7037 202.989 56.4061 201.267 53.9791C200.961 53.5549 200.655 53.1306 200.585 52.5915C200.139 48.2795 197.599 44.995 195.217 41.6431C194.598 40.7669 194.377 40.0882 194.837 39.0713C195.62 37.4503 195.098 35.878 193.657 34.9933C192.395 34.2416 190.403 34.6006 189.542 35.7721C188.547 37.1216 188.631 39.0622 189.855 40.1448C190.45 40.6756 190.366 40.8128 189.761 41.2207C187.994 42.5208 187.581 44.4632 188.622 45.8821C189.745 47.3986 191.579 47.604 193.428 46.4014C193.734 46.2113 194.04 46.0211 194.318 45.8376C194.073 45.4278 194.139 45.0903 194.508 44.7973C194.476 44.5416 194.479 44.3069 194.447 44.0511C194.301 42.8278 193.717 41.8554 192.696 41.1338C193.345 40.4226 193.884 40.3523 194.331 41.2405C194.764 42.0733 195.301 42.852 195.52 43.7654C195.587 43.9249 195.62 44.0633 195.687 44.2228C195.797 44.3136 195.885 44.4388 195.995 44.5297C196.556 45.6538 197.332 46.6972 197.658 47.9362C198.191 49.0669 199.35 49.8728 198.914 51.235Z" fill="#5F861B"/>
<path d="M350.462 58.8119C351.826 58.8119 352.925 57.8444 352.969 56.6349C353.013 55.3155 351.914 54.172 350.594 54.194C348.879 54.216 348.021 54.9857 347.999 56.5689C347.999 57.9983 348.879 58.8119 350.462 58.8119Z" fill="#5F861B"/>
<path d="M283.729 42.4578C285.092 42.4578 286.192 41.4903 286.236 40.2808C286.28 38.9615 285.18 37.818 283.861 37.84C282.146 37.862 281.288 38.6316 281.266 40.2149C281.266 41.6442 282.146 42.4578 283.729 42.4578Z" fill="#FFBD59"/>
<path d="M333.627 3.69192C334.991 3.69192 336.09 2.72436 336.134 1.51491C336.178 0.195521 335.079 -0.947947 333.759 -0.925958C332.044 -0.903968 331.186 -0.134324 331.164 1.44895C331.164 2.87829 332.044 3.69192 333.627 3.69192Z" fill="#FFBD59"/>
<path d="M180.774 65.6612C182.138 65.6612 183.237 64.6937 183.281 63.4842C183.325 62.1648 182.226 61.0214 180.906 61.0433C179.191 61.0653 178.333 61.835 178.311 63.4182C178.311 64.8476 179.191 65.6612 180.774 65.6612Z" fill="#FFBD59"/>
<path d="M507.328 54.3696C508.691 54.3696 509.791 53.402 509.835 52.1926C509.879 50.8732 508.779 49.7297 507.46 49.7517C505.745 49.7737 504.887 50.5433 504.865 52.1266C504.865 53.556 505.745 54.3696 507.328 54.3696Z" fill="#FFBD59"/>
<path d="M8.79766 27.7047C10.1611 27.7047 11.2607 26.7372 11.3046 25.5277C11.3486 24.2083 10.2491 23.0649 8.92961 23.0869C7.21432 23.1088 6.35668 23.8785 6.33469 25.4618C6.33469 26.8911 7.21431 27.7047 8.79766 27.7047Z" fill="#5F861B"/>
<path d="M424.559 6.85751C425.923 6.85751 427.022 5.88995 427.066 4.6805C427.11 3.36111 426.011 2.21764 424.691 2.23963C422.976 2.26162 422.118 3.03126 422.096 4.61454C422.096 6.04388 422.976 6.85751 424.559 6.85751Z" fill="#5F861B"/>
<path d="M126.335 78.405C127.313 77.1518 127.863 75.6755 128.429 74.2163C130.489 68.8603 130.558 63.3326 129.906 57.7019C129.562 54.6118 128.721 51.6763 127.914 48.7065C127.554 47.3675 126.867 46.1314 126.506 44.7753C126.472 44.6723 126.283 44.6208 126.094 44.5693C127.468 48.552 128.601 52.5862 129.202 56.7748C128.841 56.6203 128.858 56.2255 128.721 55.9337C126.798 51.8136 123.451 49.4103 119.279 47.9683C117.82 47.4705 116.309 47.1615 114.798 46.9211C113.734 46.7494 113.682 46.8525 113.854 47.8996C114.266 50.5776 115.073 53.1183 116.463 55.453C118.352 58.646 121.116 60.706 124.67 61.7189C126.06 62.1137 127.468 62.2854 128.91 62.2511C129.253 62.2511 129.631 62.1824 129.597 62.7317C129.459 66.9548 128.841 71.0919 127.416 75.0746C127.039 76.139 126.592 77.2033 126.197 78.2677C126.215 78.302 126.266 78.3535 126.335 78.405Z" fill="#3D5B09"/>
<path d="M144.807 57.3413C144.807 54.6461 144.721 55.0925 142.644 55.6761C135.399 57.719 131.313 62.663 129.837 69.9074C129.7 70.6284 129.923 70.9202 130.678 70.7829C131.622 70.6112 132.584 70.4739 133.562 70.5426C133.974 70.5769 134.438 70.4224 134.833 70.1477C135.794 69.4611 137.03 69.3409 138.009 68.7572C142.284 66.1994 144.841 62.5257 144.807 57.3413Z" fill="#3D5B09"/>
<path d="M124.172 40.226C124.154 40.1745 124.137 40.123 124.137 40.0715C124.12 40.0887 124.086 40.1059 124.069 40.123C124.103 40.1402 124.137 40.1745 124.172 40.226Z" fill="#87C6B4"/>
<path d="M261.268 23.6873C260.517 22.0496 259.468 20.6148 258.325 19.2599C257.996 18.8575 257.858 18.4772 257.895 17.9712C258.14 14.0415 256.123 11.3077 252.303 10.3176C249.549 9.60487 246.766 9.70325 243.967 10.005C243.506 10.0481 243.363 10.2876 243.491 10.7139C244.622 14.713 247.057 17.4764 251.124 18.6629C253.094 19.2391 255.099 19.1979 257.109 19.0284C257.434 18.9973 257.644 19.0678 257.847 19.2956C259.081 20.6991 260.246 22.1437 261.268 23.6873Z" fill="#3D5B09"/>
<path d="M377.036 43.9762C377.706 45.6486 378.684 47.1328 379.761 48.5418C380.07 48.9597 380.189 49.3463 380.127 49.8499C379.691 53.763 381.572 56.5918 385.339 57.7668C388.056 58.613 390.84 58.6503 393.651 58.4853C394.112 58.4647 394.267 58.2324 394.16 57.8004C393.226 53.7509 390.928 50.8722 386.924 49.489C384.984 48.8174 382.979 48.7609 380.963 48.8323C380.638 48.8475 380.431 48.7669 380.239 48.5294C379.076 47.0675 377.982 45.5678 377.036 43.9762Z" fill="#3D5B09"/>
<path d="M77.8161 67.8655C77.0233 65.8744 75.8827 64.101 74.6312 62.4149C74.2719 61.915 74.1299 61.4553 74.1917 60.8602C74.6232 56.235 72.4305 52.8547 68.1133 51.4006C64.9998 50.3534 61.8233 50.2626 58.6192 50.4109C58.0929 50.4275 57.9203 50.6999 58.0495 51.2131C59.1835 56.0227 61.8527 59.4691 66.4436 61.1737C68.668 62.0012 70.9559 62.1017 73.2545 62.0509C73.6257 62.0383 73.8631 62.1373 74.0859 62.4216C75.4375 64.1718 76.7103 65.9654 77.8161 67.8655Z" fill="#3D5B09"/>
<path d="M22.1434 -8.05532C21.812 -5.93797 21.8907 -3.83094 22.1094 -1.74255C22.1641 -1.12936 22.0523 -0.661425 21.6961 -0.180618C18.9698 3.58045 19.1359 7.60622 22.1113 11.0559C24.2579 13.5424 26.9456 15.2378 29.7788 16.7415C30.2402 16.9952 30.5274 16.8486 30.6776 16.3411C32.1504 11.6242 31.6078 7.29899 28.5243 3.49442C27.0312 1.64969 25.1132 0.398312 23.109 -0.728321C22.7831 -0.906501 22.6291 -1.11252 22.5822 -1.47067C22.3099 -3.66518 22.1277 -5.85692 22.1434 -8.05532Z" fill="#3D5B09"/>
<path d="M315.314 53.5209C315.314 53.235 315.336 53.1691 315.314 53.1031C314.61 51.6738 315.6 51.2999 316.655 50.7942C318.063 50.1345 318.392 48.925 317.777 47.3858C317.337 46.3083 316.325 45.8905 314.94 46.1983C314.808 46.2203 314.654 46.2643 314.522 46.3083C313.598 46.7701 313.357 46.2423 313.203 45.4507C312.873 43.7135 311.905 42.8999 310.388 43.0098C308.958 43.1198 307.903 44.3512 307.903 46.0664C307.903 46.814 307.727 47.0999 306.957 46.7701C306.627 46.6381 306.253 46.5722 305.902 46.5282C304.384 46.3523 303.175 47.0779 302.933 48.4633C302.669 49.8926 302.955 50.8822 304.56 51.4979C305.462 51.8497 305.726 52.1136 305.308 53.1031C304.912 54.0267 304.802 55.1262 305.792 55.8298C307.155 56.7754 308.365 56.7314 309.442 55.6539C310.036 55.0602 310.388 54.8403 311.047 55.588C311.663 56.2916 312.433 56.6435 313.488 56.2037C314.83 55.6759 315.512 54.8183 315.314 53.5209Z" fill="#5F861B"/>
<path d="M228.631 30.9601C228.878 30.8403 228.942 30.8288 228.991 30.785C229.97 29.6692 230.645 30.2395 231.458 30.803C232.529 31.5604 233.688 31.296 234.793 30.1988C235.563 29.4243 235.561 28.5062 234.8 27.6175C234.734 27.5298 234.641 27.4351 234.556 27.3566C233.829 26.8716 234.196 26.4728 234.823 26.0281C236.2 25.0579 236.554 24.0063 235.917 22.9377C235.311 21.9338 233.874 21.6744 232.398 22.393C231.754 22.7062 231.445 22.6968 231.454 21.9932C231.45 21.6956 231.373 21.3934 231.285 21.1165C230.894 19.9282 229.837 19.3438 228.558 19.7465C227.233 20.1515 226.484 20.7761 226.528 22.2133C226.547 23.023 226.414 23.3274 225.413 23.4351C224.477 23.5313 223.491 23.9112 223.239 24.9329C222.913 26.3306 223.383 27.2006 224.696 27.5407C225.419 27.7281 225.734 27.8944 225.327 28.6923C224.941 29.4394 224.914 30.1522 225.67 30.7433C226.604 31.5076 227.586 31.649 228.631 30.9601Z" fill="#FFBD59"/>
<path d="M367.926 42.1449C368.172 42.0251 368.236 42.0136 368.285 41.9698C369.264 40.8541 369.94 41.4244 370.752 41.9878C371.823 42.7453 372.982 42.4808 374.087 41.3836C374.857 40.6091 374.855 39.691 374.095 38.8023C374.029 38.7146 373.936 38.6199 373.851 38.5414C373.123 38.0565 373.491 37.6576 374.117 37.2129C375.494 36.2427 375.849 35.1911 375.211 34.1226C374.606 33.1186 373.168 32.8592 371.692 33.5778C371.048 33.8911 370.739 33.8816 370.748 33.178C370.744 32.8805 370.667 32.5782 370.579 32.3013C370.188 31.113 369.131 30.5286 367.852 30.9313C366.527 31.3363 365.778 31.9609 365.822 33.3981C365.841 34.2078 365.709 34.5122 364.707 34.6199C363.771 34.7161 362.785 35.096 362.534 36.1177C362.207 37.5154 362.678 38.3855 363.99 38.7255C364.714 38.9129 365.029 39.0793 364.621 39.8771C364.236 40.6242 364.208 41.337 364.964 41.9282C365.898 42.6924 366.88 42.8338 367.926 42.1449Z" fill="#FFBD59"/>
<path d="M36.8318 48.1449C37.0778 48.0251 37.1425 48.0136 37.1914 47.9698C38.17 46.8541 38.8456 47.4244 39.6584 47.9878C40.7294 48.7453 41.8884 48.4808 42.9931 47.3836C43.7632 46.6091 43.7611 45.691 43.0007 44.8023C42.9346 44.7146 42.8417 44.6199 42.7567 44.5414C42.029 44.0565 42.3967 43.6576 43.0231 43.2129C44.4003 42.2427 44.7546 41.1911 44.1174 40.1226C43.5117 39.1186 42.0744 38.8592 40.5981 39.5778C39.9546 39.8911 39.6456 39.8816 39.6543 39.178C39.6499 38.8805 39.573 38.5782 39.485 38.3013C39.0939 37.113 38.0368 36.5286 36.7579 36.9313C35.4333 37.3363 34.6838 37.9609 34.7279 39.3981C34.7475 40.2078 34.6147 40.5122 33.6136 40.6199C32.6771 40.7161 31.6915 41.096 31.4397 42.1177C31.1133 43.5154 31.5837 44.3855 32.8964 44.7255C33.6197 44.9129 33.9348 45.0793 33.5272 45.8771C33.1417 46.6242 33.1141 47.337 33.8701 47.9282C34.804 48.6924 35.7859 48.8338 36.8318 48.1449Z" fill="#FFBD59"/>
<path d="M375.763 10.779C375.517 10.6057 375.473 10.5485 375.404 10.5258C373.787 10.2108 374.013 9.20871 374.162 8.07494C374.373 6.57213 373.516 5.58052 371.853 5.13C370.684 4.82153 369.766 5.36102 369.264 6.63332C369.21 6.75005 369.163 6.89734 369.128 7.0274C369.014 8.03111 368.427 7.90077 367.661 7.54155C365.986 6.74703 364.752 7.01211 364.008 8.26785C363.312 9.45466 363.787 11.0283 365.261 12.068C365.903 12.5212 366.051 12.8323 365.343 13.2356C365.047 13.4141 364.783 13.6671 364.551 13.9161C363.561 14.9986 363.516 16.3863 364.573 17.4156C365.655 18.4888 366.663 18.8646 368.08 17.9798C368.881 17.4865 369.253 17.4396 369.873 18.3669C370.447 19.2369 371.331 19.9896 372.483 19.6406C374.049 19.1453 374.68 18.1708 374.35 16.6733C374.168 15.8481 374.174 15.439 375.181 15.3752C376.126 15.3192 376.854 14.9293 377.059 13.8356C377.347 12.4644 376.987 11.4103 375.763 10.779Z" fill="#5F861B"/>
<path d="M62.3927 31.4344C62.6915 31.2842 62.7703 31.2691 62.8294 31.2148C64.0071 29.8347 64.8425 30.5223 65.8454 31.1994C67.1674 32.1099 68.5797 31.7688 69.9119 30.4095C70.8405 29.4501 70.8226 28.3268 69.8783 27.2509C69.796 27.1446 69.6809 27.0302 69.5756 26.9355C68.678 26.3531 69.1209 25.8596 69.8791 25.3059C71.5466 24.0979 71.9622 22.8058 71.1655 21.508C70.4083 20.2888 68.6469 19.9932 66.8542 20.8949C66.0727 21.2879 65.6949 21.281 65.6938 20.42C65.6835 20.056 65.5844 19.6873 65.4723 19.3499C64.9744 17.9018 63.6724 17.2028 62.1158 17.715C60.5033 18.2306 59.5974 19.0062 59.6752 20.7641C59.7126 21.7545 59.5554 22.129 58.3334 22.2759C57.1902 22.4078 55.9916 22.8876 55.7008 24.1416C55.3251 25.8567 55.9145 26.9141 57.5249 27.3103C58.4123 27.5286 58.8002 27.7274 58.3152 28.7098C57.8564 29.6298 57.8345 30.5024 58.7685 31.2142C59.9229 32.1351 61.1256 32.2933 62.3927 31.4344Z" fill="#5F861B"/>
<path fill-rule="evenodd" clip-rule="evenodd" d="M452.257 31.6251C451.841 30.9871 451.578 30.3213 451.689 29.6555V29.6554C451.689 29.4751 451.689 29.4058 451.702 29.3087C451.633 27.8245 452.382 26.7565 453.631 26.1462C454.893 25.522 456.349 25.411 457.57 26.7704C457.931 27.1865 458.25 27.6442 458.555 28.1019C458.749 28.3932 458.943 28.5458 459.193 28.2129C459.448 27.8735 459.808 27.6801 460.161 27.49C460.27 27.4315 460.379 27.3733 460.483 27.3113C462.245 26.2849 464.103 26.5623 465.532 28.0049C465.566 28.0387 465.601 28.0714 465.636 28.104C465.815 28.2722 465.992 28.438 466.004 28.74C466.005 28.7708 466.005 28.8015 466.006 28.8323C466.048 30.3699 466.089 31.9262 464.825 33.1093C464.631 33.2896 464.631 33.4145 464.866 33.5948C465.405 33.9842 465.782 34.5153 466.155 35.04C466.234 35.1509 466.312 35.2614 466.392 35.3702C467.655 37.1041 467.266 39.2125 465.421 40.2528C464.617 40.7105 463.673 40.5857 462.813 40.2528C462.132 39.9911 461.792 39.8559 461.619 39.9711C461.444 40.088 461.44 40.4625 461.426 41.2237V41.3624C461.44 41.8063 461.246 42.1392 460.871 42.4027C459.831 43.1656 458.68 43.0408 457.515 42.8743C456.779 42.7772 456.238 42.3611 455.864 41.7508C455.475 41.1266 455.42 40.4192 455.448 39.684C455.475 39.2124 455.392 39.0183 454.81 39.2957C454.074 39.6563 453.256 39.7534 452.424 39.3789C451.494 38.9628 450.898 38.2137 450.426 37.3815C450.218 37.0209 450.066 36.5631 450.024 36.0915C449.871 34.538 450.759 33.5809 451.952 32.8874C452.618 32.499 452.59 32.1522 452.257 31.6251ZM460.844 33.9836C460.857 35.2896 459.849 36.4457 458.696 36.4523C458.686 36.4523 458.676 36.4523 458.666 36.4522C458.114 36.447 457.624 36.2994 457.223 36.0438C456.556 35.6178 456.14 34.8917 456.113 34.0248C456.086 32.7764 457.14 31.5697 458.61 31.5974C459.798 31.6232 460.709 32.4772 460.83 33.7017C460.839 33.7935 460.844 33.8874 460.844 33.9832C460.844 33.9833 460.844 33.9834 460.844 33.9836Z" fill="#FFBD59"/>
<path fill-rule="evenodd" clip-rule="evenodd" d="M118.081 32.6184C117.814 31.7842 117.728 30.9689 118.062 30.2747L118.062 30.2746C118.119 30.077 118.141 30.0009 118.187 29.899C118.577 28.2491 119.756 27.3202 121.353 27.0546C122.97 26.7783 124.643 27.1276 125.588 29.0128C125.863 29.5857 126.077 30.1908 126.276 30.7914C126.403 31.1736 126.573 31.4037 126.959 31.1194C127.353 30.8295 127.819 30.7338 128.276 30.6398C128.417 30.6109 128.557 30.5821 128.695 30.5479C131 29.992 133.003 30.8972 134.156 32.941C134.183 32.989 134.212 33.0362 134.241 33.0832C134.39 33.3256 134.537 33.5647 134.455 33.8996C134.446 33.9336 134.437 33.9676 134.429 34.0016C133.99 35.7009 133.547 37.421 131.751 38.3094C131.476 38.4443 131.437 38.5812 131.645 38.8552C132.128 39.4562 132.385 40.1607 132.639 40.8566C132.693 41.0036 132.747 41.1502 132.802 41.2953C133.676 43.6047 132.574 45.791 130.171 46.3352C129.122 46.577 128.1 46.1351 127.237 45.492C126.548 44.9812 126.209 44.723 125.978 44.7984C125.747 44.8738 125.625 45.2833 125.371 46.1081L125.327 46.2602C125.203 46.7514 124.879 47.0536 124.375 47.2215C122.964 47.7217 121.708 47.2125 120.45 46.6532C119.654 46.3091 119.176 45.6778 118.947 44.8875C118.707 44.0775 118.868 43.2839 119.131 42.4867C119.31 41.9786 119.278 41.7387 118.535 41.8546C117.594 42.0123 116.643 41.8541 115.825 41.1744C114.911 40.4176 114.476 39.4034 114.207 38.3383C114.087 37.8756 114.06 37.3243 114.161 36.7938C114.479 35.041 115.78 34.2785 117.34 33.9038C118.212 33.6932 118.29 33.304 118.081 32.6184ZM126.876 36.0358C127.14 36.6028 127.199 37.2789 126.997 37.9803C126.601 39.4171 125.102 40.3589 123.804 39.9934C123.792 39.9902 123.781 39.9869 123.769 39.9835C123.666 39.9528 123.566 39.9183 123.47 39.8803C122.019 39.3098 121.297 37.935 121.663 36.4965C122.025 35.1187 123.592 34.1363 125.237 34.6422C125.999 34.8788 126.573 35.3855 126.876 36.0358Z" fill="#FFBD59"/>
<path fill-rule="evenodd" clip-rule="evenodd" d="M244.415 45.9393C245.849 48.1635 247.587 50.0943 250.145 51.1648C250.145 51.1648 250.145 51.1648 250.145 51.1648C250.279 51.4073 250.312 51.6978 250.345 51.987C250.39 52.3835 250.434 52.7777 250.738 53.0433C250.742 53.0428 250.747 53.0424 250.752 53.0419C250.751 53.5022 250.888 53.9028 251.025 54.3035C251.163 54.7076 251.301 55.1117 251.298 55.577L251.299 55.579L251.298 55.577C249.646 53.735 247.508 52.6019 244.97 52.0488C242.81 51.5821 240.541 51.4996 238.188 51.7149L238.143 51.7189C237.722 51.7566 237.389 51.7865 237.591 52.4217C237.775 52.9968 238.038 53.5163 238.315 54.0224C241.094 59.2039 245.67 61.3099 252.347 59.745C252.896 59.6223 253.173 59.6332 253.306 60.1284C253.507 60.8395 253.882 61.4539 254.253 62.0617C254.287 62.1181 254.322 62.1744 254.356 62.2308C254.669 62.7444 254.975 63.2623 255.281 63.78L255.281 63.7801C256.346 65.5804 257.41 67.3788 258.746 68.9922C260.591 71.2272 262.53 73.3932 264.565 75.4659C265.222 76.1305 265.949 76.7224 266.676 77.3142C267.398 77.9017 268.119 78.4891 268.773 79.1478C268.649 79.2123 268.572 79.1603 268.492 79.106C268.47 79.0909 268.448 79.0758 268.424 79.0628C266.981 78.1801 265.313 77.7529 263.471 77.7522C259.481 77.7668 255.681 79.2982 251.967 81.498C251.836 81.5825 251.701 81.6915 251.745 81.9291C252.029 81.8134 252.21 81.9403 252.391 82.0677C252.454 82.1119 252.517 82.1562 252.585 82.1904C255.067 83.4854 257.748 84.3515 260.832 84.311C263.915 84.2706 266.868 83.3241 269.655 81.2694C270.121 80.9248 270.536 80.609 269.896 80.1965C269.586 79.9965 269.322 79.7283 269.06 79.4612C268.962 79.361 268.863 79.2609 268.763 79.1647C268.763 79.1647 268.773 79.1637 268.781 79.1564L268.787 79.1625L268.781 79.1563L268.783 79.1541C269.313 79.3568 269.736 79.6875 270.162 80.02C270.412 80.2161 270.664 80.4128 270.939 80.5843C271.255 80.7778 271.564 80.9788 271.873 81.1795L271.874 81.1796C272.723 81.7312 273.571 82.2812 274.536 82.6712C273.556 81.7703 272.524 80.8983 271.445 80.1152C271 79.7936 270.957 79.5559 271.366 78.987C272.794 77.0446 273.902 74.9381 274.573 72.7387C275.938 68.2533 275.342 64.4425 272.846 61.2886C272.468 60.8158 272.174 60.8427 271.761 61.4361C271.532 61.7689 271.287 62.0842 271.042 62.3986L271.042 62.3986L271.042 62.3987L271.041 62.3987L271.041 62.3988L271.041 62.3988L271.041 62.3988C270.67 62.8757 270.3 63.3504 269.993 63.8808C268.19 67.0051 267.467 70.1152 267.965 73.2464C268.143 74.3656 268.462 75.4115 268.886 76.3994C269.243 77.2587 269.725 78.0493 270.202 78.834L270.202 78.834L270.203 78.8345C270.262 78.9316 270.321 79.0286 270.379 79.1256C262.398 72.7892 255.555 65.4791 251.796 55.5677L251.796 55.5677C251.616 54.6661 251.308 53.8246 250.961 52.9987C250.957 52.9991 250.952 52.9996 250.947 53.0001C250.929 52.7281 250.87 52.467 250.81 52.2055C250.696 51.7104 250.583 51.2141 250.755 50.6405C250.76 50.6352 250.765 50.6298 250.769 50.6246C250.815 50.4513 250.863 50.2808 250.912 50.1102C250.96 49.9397 251.008 49.7693 251.054 49.596C253.105 41.9072 249.887 37.0437 243.924 35.0766C243.341 34.8883 243.015 34.882 242.882 35.7638C242.295 39.5379 242.531 43.0313 244.415 45.9393ZM259.436 70.66C259.863 71.2068 260.094 71.5016 260.052 71.7511C260.004 72.0431 259.582 72.273 258.668 72.7719L258.668 72.7719C258.439 72.8967 258.179 73.0383 257.887 73.2018C255.961 74.2718 253.95 74.7577 251.963 74.855C250.56 74.9228 249.3 74.5308 248.07 74.0877C245.658 73.1969 244.168 71.3281 242.719 69.4193C242.477 69.1152 242.555 68.9752 242.973 68.8282C247.609 67.305 252.136 66.4682 256.261 68.1082C257.347 68.5403 258.196 69.2237 258.956 70.0359C259.135 70.2757 259.296 70.4813 259.436 70.66ZM266.913 57.3136C266.781 55.3325 266.365 53.4983 265.466 51.7445C263.384 54.085 261.49 56.3721 260.355 59.085C258.501 63.5064 258.809 67.2952 261.33 70.4469C261.949 71.2237 261.973 71.2215 262.624 70.2681C262.789 70.0289 262.958 69.7905 263.128 69.5518L263.128 69.5518C263.69 68.7613 264.256 67.9666 264.648 67.1236C266.162 63.8929 267.137 60.6027 266.913 57.3136ZM260.419 49.4279C260.835 46.7446 260.647 44.2372 259.822 41.7881C256.766 44.7492 254.423 47.9228 253.431 51.7461C252.732 54.4675 252.881 56.9904 253.808 59.2973C253.819 59.3242 253.829 59.3537 253.84 59.3842L253.84 59.3843C253.922 59.6177 254.023 59.9066 254.437 59.5055C254.709 59.2421 254.991 58.9873 255.273 58.7329L255.273 58.7329L255.273 58.7328L255.273 58.7328C255.947 58.1241 256.618 57.5184 257.134 56.8068C258.81 54.5155 260.009 52.0624 260.419 49.4279Z" fill="#3D5B09"/>
<path d="M15.6813 60.8664C14.7322 62.3708 15.0979 64.1626 14.7179 65.789C14.4882 66.8343 14.5483 67.9598 13.9503 69.1654C13.3906 67.1915 12.8976 65.3863 12.4009 63.6428C12.254 63.1051 12.6082 62.9682 13.0049 62.7612C14.5569 61.8798 14.9467 60.5156 14.2486 58.7137C13.8276 57.6249 12.5247 56.9283 11.0602 56.9981C9.63463 57.0597 8.37549 58.1833 8.20503 59.5208C8.00614 60.9051 8.91762 62.3564 10.4721 62.9177C11.3377 63.2201 11.605 63.6711 11.719 64.5411C12.0369 66.9124 12.107 69.3571 13.5787 71.5014C13.885 71.944 13.6073 72.5117 13.4891 72.9843C12.622 76.5243 11.716 80.0725 10.8242 83.5975C10.792 83.706 10.661 83.7544 10.4551 83.9815C9.98219 81.4198 9.5123 79.0201 9.04239 76.6204C8.95918 76.0894 9.33497 75.8056 9.67557 75.4683C10.9459 74.1594 10.8317 72.2323 9.43886 70.9045C8.25043 69.7972 6.06419 69.9404 4.84701 71.2176C3.84992 72.2444 4.06596 74.3936 5.25439 75.5009C5.84674 76.0855 6.57827 76.2743 7.35994 76.2695C8.18053 76.2562 8.41271 76.6537 8.43157 77.4018C8.52124 80.3709 8.76663 83.3066 9.68063 86.2006C9.98179 87.1525 9.47659 88.0942 9.16605 88.9942C8.14162 91.958 7.25495 94.9737 5.88689 98.1128C5.47619 96.0053 5.95952 94.1535 5.4418 92.3333C5.36394 92.3499 5.3003 92.3432 5.24715 92.375C4.81466 93.8093 5.05752 95.3022 4.95747 96.7467C4.80961 98.7705 4.80326 100.784 4.09684 102.725C3.4473 104.571 2.74835 106.388 2.0846 108.258C2.69611 107.253 3.33232 106.263 3.9049 105.266C4.59125 104.082 5.49626 103.096 6.57425 102.214C7.78699 101.222 8.15281 99.6194 9.06226 98.3471C10.5578 96.2784 11.7815 94.0444 13.0936 91.832C13.4776 91.2009 13.8002 90.9488 14.6516 91.2746C16.2555 91.866 17.5836 91.2968 18.4017 89.8409C19.0454 88.7272 18.8167 87.2109 17.8364 86.2622C16.7364 85.1766 15.0674 85.026 13.6465 85.859C12.4914 86.5334 12.0095 87.9377 12.6664 89.3622C13.13 90.3809 12.8172 90.8952 12.2206 91.6532C10.5835 93.7319 9.07003 95.8858 7.45768 97.9795C8.4567 95.2244 9.51936 92.476 10.317 89.6624C10.8998 87.6469 11.458 85.6165 12.0019 83.6094C12.1306 83.1753 12.132 82.7277 12.6104 82.4423C15.2643 80.9182 16.3337 78.27 17.3889 75.6451C18.0056 74.1307 18.435 72.5343 18.9386 70.9831C19.0815 70.5256 19.1249 70.2317 19.846 70.3821C21.9455 70.8267 23.7893 69.3542 23.9124 67.3153C24.0064 65.547 21.3698 63.8148 19.4757 64.424C17.4258 65.0665 16.6056 67.1937 17.9335 68.9624C18.585 69.8392 18.523 70.442 18.163 71.3119C16.9836 74.0854 15.6559 76.7686 14.1305 79.3316C13.7891 79.8926 13.3101 80.4018 12.6603 81.1915C13.2497 78.2193 13.7426 75.5726 14.285 72.956C14.8916 70.1224 15.0918 67.2335 15.5075 64.3798C15.5763 63.8772 15.6451 63.3746 15.9647 62.9605C18.6063 59.7315 19.0151 55.7205 19.5863 51.7764C19.7381 50.7477 20.0442 50.1333 21.0782 49.7695C22.7634 49.2254 23.4647 47.7944 23.0242 46.1813C22.6218 44.7835 20.9242 43.6226 19.4912 43.8077C17.8388 44.0195 16.5648 45.3902 16.7118 46.985C16.7801 47.7631 16.6244 47.7965 15.9034 47.6461C13.7223 47.28 12.085 48.3016 11.8675 49.9948C11.6424 51.8116 12.8369 53.2429 15.0105 53.7326C15.364 53.8195 15.7174 53.9064 16.0461 53.9783C16.1501 53.5291 16.43 53.3471 16.9002 53.409C17.0529 53.2137 17.2162 53.0567 17.3689 52.8614C18.1039 51.9314 18.3478 50.8627 18.1005 49.6554C19.0626 49.6322 19.5036 49.9645 19.2178 50.8796C18.9604 51.7479 18.8161 52.6529 18.3468 53.4243C18.2862 53.5796 18.2151 53.6965 18.1544 53.8518C18.1717 53.9904 18.15 54.1373 18.1673 54.2759C17.8028 55.4314 17.6504 56.6838 17.0351 57.7507C16.646 58.8911 16.9352 60.2521 15.6813 60.8664Z" fill="#5F861B"/>
</svg>
