<svg width="611" height="474" viewBox="0 0 611 474" fill="none" xmlns="http://www.w3.org/2000/svg">
<path d="M490 250.354H497.062V257.569H490V250.354Z" fill="white"/>
<path d="M497.062 228.708H504.277V235.923H497.062V228.708Z" fill="white"/>
<path d="M497.062 243.139H504.277V250.354H497.062V243.139Z" fill="white"/>
<path d="M504.277 207.215H511.492V214.431H504.277V207.215Z" fill="white"/>
<path d="M504.277 221.493H511.492V228.708H504.277V221.493Z" fill="white"/>
<path d="M504.277 235.923H511.492V243.139H504.277V235.923Z" fill="white"/>
<path d="M504.277 250.354H511.492V257.569H504.277V250.354Z" fill="white"/>
<path d="M504.277 264.785H511.492V272H504.277V264.785Z" fill="white"/>
<path d="M511.493 200H518.708V207.215H511.493V200Z" fill="white"/>
<path d="M511.493 207.215H518.708V214.431H511.493V207.215Z" fill="white"/>
<path d="M511.493 214.431H518.708V221.493H511.493V214.431Z" fill="white"/>
<path d="M511.493 221.493H518.708V228.708H511.493V221.493Z" fill="white"/>
<path d="M511.493 228.708H518.708V235.923H511.493V228.708Z" fill="white"/>
<path d="M511.493 235.923H518.708V243.139H511.493V235.923Z" fill="white"/>
<path d="M511.493 243.139H518.708V250.354H511.493V243.139Z" fill="white"/>
<path d="M511.493 250.354H518.708V257.569H511.493V250.354Z" fill="white"/>
<path d="M511.493 257.569H518.708V264.785H511.493V257.569Z" fill="white"/>
<path d="M511.493 264.785H518.708V272H511.493V264.785Z" fill="white"/>
<path d="M518.708 207.215H525.923V214.431H518.708V207.215Z" fill="white"/>
<path d="M518.708 221.493H525.923V228.708H518.708V221.493Z" fill="white"/>
<path d="M518.708 235.923H525.923V243.139H518.708V235.923Z" fill="white"/>
<path d="M518.708 250.354H525.923V257.569H518.708V250.354Z" fill="white"/>
<path d="M518.708 264.785H525.923V272H518.708V264.785Z" fill="white"/>
<path d="M525.923 228.708H533.139V235.923H525.923V228.708Z" fill="white"/>
<path d="M525.923 243.139H533.139V250.354H525.923V243.139Z" fill="white"/>
<path d="M533.139 250.354H540.354V257.569H533.139V250.354Z" fill="white"/>
<path d="M47 25.6H54.6V33.2H47V25.6Z" fill="white"/>
<path d="M54.6001 18H62.2001V25.6H54.6001V18Z" fill="white"/>
<path d="M54.6001 33.2H62.2001V40.8H54.6001V33.2Z" fill="white"/>
<path d="M62.2 25.6H69.8V33.2H62.2V25.6Z" fill="white"/>
<path d="M62.2 40.7999H69.8V48.3999H62.2V40.7999Z" fill="white"/>
<path d="M69.8 33.2H77.2384V40.8H69.8V33.2Z" fill="white"/>
<path d="M69.8 48.3999H77.2384V55.9999H69.8V48.3999Z" fill="white"/>
<path d="M77.2383 25.6H84.8383V33.2H77.2383V25.6Z" fill="white"/>
<path d="M77.2383 40.7999H84.8383V48.3999H77.2383V40.7999Z" fill="white"/>
<path d="M84.8384 18H92.4384V25.6H84.8384V18Z" fill="white"/>
<path d="M84.8384 33.2H92.4384V40.8H84.8384V33.2Z" fill="white"/>
<path d="M92.4385 25.6H100.038V33.2H92.4385V25.6Z" fill="white"/>
<path d="M287 448.388H295.223V456.612H287V448.388Z" fill="white"/>
<path d="M295.223 423.894H303.446V431.942H295.223V423.894Z" fill="#E91E29"/>
<path d="M303.447 423.894H311.67V431.942H303.447V423.894Z" fill="#E91E29"/>
<path d="M303.447 431.942H311.67V440.165H303.447V431.942Z" fill="#E91E29"/>
<path d="M303.447 464.835H311.67V473.058H303.447V464.835Z" fill="#E91E29"/>
<path d="M311.67 423.894H319.893V431.942H311.67V423.894Z" fill="#E91E29"/>
<path d="M311.67 431.942H319.893V440.165H311.67V431.942Z" fill="#E91E29"/>
<path d="M311.67 440.165H319.893V448.388H311.67V440.165Z" fill="#E91E29"/>
<path d="M311.67 456.612H319.893V464.835H311.67V456.612Z" fill="#E91E29"/>
<path d="M311.67 464.835H319.893V473.058H311.67V464.835Z" fill="#E91E29"/>
<path d="M319.893 399.223H328.117V407.447H319.893V399.223Z" fill="#E91E29"/>
<path d="M319.893 407.447H328.117V415.67H319.893V407.447Z" fill="#E91E29"/>
<path d="M319.893 415.67H328.117V423.894H319.893V415.67Z" fill="#E91E29"/>
<path d="M319.893 431.942H328.117V440.165H319.893V431.942Z" fill="#E91E29"/>
<path d="M319.893 440.165H328.117V448.388H319.893V440.165Z" fill="#E91E29"/>
<path d="M319.893 456.612H328.117V464.835H319.893V456.612Z" fill="#E91E29"/>
<path d="M319.893 464.835H328.117V473.058H319.893V464.835Z" fill="#E91E29"/>
<path d="M328.117 407.447H336.34V415.67H328.117V407.447Z" fill="#E91E29"/>
<path d="M328.117 415.67H336.34V423.894H328.117V415.67Z" fill="#E91E29"/>
<path d="M328.117 423.894H336.34V431.942H328.117V423.894Z" fill="#E91E29"/>
<path d="M328.117 440.165H336.34V448.388H328.117V440.165Z" fill="#E91E29"/>
<path d="M328.117 456.612H336.34V464.835H328.117V456.612Z" fill="#E91E29"/>
<path d="M336.34 415.67H344.563V423.894H336.34V415.67Z" fill="#E91E29"/>
<path d="M336.34 423.894H344.563V431.942H336.34V423.894Z" fill="#E91E29"/>
<path d="M336.34 431.942H344.563V440.165H336.34V431.942Z" fill="#E91E29"/>
<path d="M336.34 464.835H344.563V473.058H336.34V464.835Z" fill="#E91E29"/>
<path d="M344.563 391H352.612V399.223H344.563V391Z" fill="white"/>
<path d="M344.563 448.388H352.612V456.612H344.563V448.388Z" fill="white"/>
<path d="M352.612 415.67H360.835V423.894H352.612V415.67Z" fill="#E91E29"/>
<path d="M352.612 423.894H360.835V431.942H352.612V423.894Z" fill="#E91E29"/>
<path d="M352.612 431.942H360.835V440.165H352.612V431.942Z" fill="#E91E29"/>
<path d="M352.612 464.835H360.835V473.058H352.612V464.835Z" fill="#E91E29"/>
<path d="M360.835 407.447H369.058V415.67H360.835V407.447Z" fill="#E91E29"/>
<path d="M360.835 415.67H369.058V423.894H360.835V415.67Z" fill="#E91E29"/>
<path d="M360.835 423.894H369.058V431.942H360.835V423.894Z" fill="#E91E29"/>
<path d="M360.835 440.165H369.058V448.388H360.835V440.165Z" fill="#E91E29"/>
<path d="M360.835 456.612H369.058V464.835H360.835V456.612Z" fill="#E91E29"/>
<path d="M369.058 399.223H377.282V407.447H369.058V399.223Z" fill="#E91E29"/>
<path d="M369.058 407.447H377.282V415.67H369.058V407.447Z" fill="#E91E29"/>
<path d="M369.058 415.67H377.282V423.894H369.058V415.67Z" fill="#E91E29"/>
<path d="M369.058 431.942H377.282V440.165H369.058V431.942Z" fill="#E91E29"/>
<path d="M369.058 440.165H377.282V448.388H369.058V440.165Z" fill="#E91E29"/>
<path d="M369.058 456.612H377.282V464.835H369.058V456.612Z" fill="#E91E29"/>
<path d="M369.058 464.835H377.282V473.058H369.058V464.835Z" fill="#E91E29"/>
<path d="M377.282 423.894H385.505V431.942H377.282V423.894Z" fill="#E91E29"/>
<path d="M377.282 431.942H385.505V440.165H377.282V431.942Z" fill="#E91E29"/>
<path d="M377.282 440.165H385.505V448.388H377.282V440.165Z" fill="#E91E29"/>
<path d="M377.282 456.612H385.505V464.835H377.282V456.612Z" fill="#E91E29"/>
<path d="M377.282 464.835H385.505V473.058H377.282V464.835Z" fill="#E91E29"/>
<path d="M385.505 423.894H393.728V431.942H385.505V423.894Z" fill="#E91E29"/>
<path d="M385.505 431.942H393.728V440.165H385.505V431.942Z" fill="#E91E29"/>
<path d="M385.505 464.835H393.728V473.058H385.505V464.835Z" fill="#E91E29"/>
<path d="M393.728 423.894H401.952V431.942H393.728V423.894Z" fill="#E91E29"/>
<path d="M401.952 448.388H410.175V456.612H401.952V448.388Z" fill="white"/>
<rect x="43" y="156" width="7" height="7" fill="white"/>
<rect x="604" width="7" height="7" fill="white"/>
<rect x="502" y="374" width="7" height="7" fill="white"/>
<rect y="180" width="7" height="7" fill="white"/>
<rect x="417" y="313" width="7" height="7" fill="white"/>
</svg>
