<svg width="611" height="738" viewBox="0 0 611 738" fill="none" xmlns="http://www.w3.org/2000/svg">
<path d="M490 514.354H497.062V521.569H490V514.354Z" fill="white"/>
<path d="M497.062 492.708H504.277V499.923H497.062V492.708Z" fill="white"/>
<path d="M497.062 507.139H504.277V514.354H497.062V507.139Z" fill="white"/>
<path d="M504.277 471.215H511.492V478.431H504.277V471.215Z" fill="white"/>
<path d="M504.277 485.493H511.492V492.708H504.277V485.493Z" fill="white"/>
<path d="M504.277 499.923H511.492V507.139H504.277V499.923Z" fill="white"/>
<path d="M504.277 514.354H511.492V521.569H504.277V514.354Z" fill="white"/>
<path d="M504.277 528.785H511.492V536H504.277V528.785Z" fill="white"/>
<path d="M511.493 464H518.708V471.215H511.493V464Z" fill="white"/>
<path d="M511.493 471.215H518.708V478.431H511.493V471.215Z" fill="white"/>
<path d="M511.493 478.431H518.708V485.493H511.493V478.431Z" fill="white"/>
<path d="M511.493 485.493H518.708V492.708H511.493V485.493Z" fill="white"/>
<path d="M511.493 492.708H518.708V499.923H511.493V492.708Z" fill="white"/>
<path d="M511.493 499.923H518.708V507.139H511.493V499.923Z" fill="white"/>
<path d="M511.493 507.139H518.708V514.354H511.493V507.139Z" fill="white"/>
<path d="M511.493 514.354H518.708V521.569H511.493V514.354Z" fill="white"/>
<path d="M511.493 521.569H518.708V528.785H511.493V521.569Z" fill="white"/>
<path d="M511.493 528.785H518.708V536H511.493V528.785Z" fill="white"/>
<path d="M518.708 471.215H525.923V478.431H518.708V471.215Z" fill="white"/>
<path d="M518.708 485.493H525.923V492.708H518.708V485.493Z" fill="white"/>
<path d="M518.708 499.923H525.923V507.139H518.708V499.923Z" fill="white"/>
<path d="M518.708 514.354H525.923V521.569H518.708V514.354Z" fill="white"/>
<path d="M518.708 528.785H525.923V536H518.708V528.785Z" fill="white"/>
<path d="M525.923 492.708H533.139V499.923H525.923V492.708Z" fill="white"/>
<path d="M525.923 507.139H533.139V514.354H525.923V507.139Z" fill="white"/>
<path d="M533.139 514.354H540.354V521.569H533.139V514.354Z" fill="white"/>
<path d="M47 289.6H54.6V297.2H47V289.6Z" fill="white"/>
<path d="M54.5999 282H62.1999V289.6H54.5999V282Z" fill="white"/>
<path d="M54.5999 297.2H62.1999V304.8H54.5999V297.2Z" fill="white"/>
<path d="M62.2 289.6H69.8V297.2H62.2V289.6Z" fill="white"/>
<path d="M62.2 304.8H69.8V312.4H62.2V304.8Z" fill="white"/>
<path d="M69.8 297.2H77.2384V304.8H69.8V297.2Z" fill="white"/>
<path d="M69.8 312.4H77.2384V320H69.8V312.4Z" fill="white"/>
<path d="M77.2383 289.6H84.8383V297.2H77.2383V289.6Z" fill="white"/>
<path d="M77.2383 304.8H84.8383V312.4H77.2383V304.8Z" fill="white"/>
<path d="M84.8384 282H92.4384V289.6H84.8384V282Z" fill="white"/>
<path d="M84.8384 297.2H92.4384V304.8H84.8384V297.2Z" fill="white"/>
<path d="M92.4382 289.6H100.038V297.2H92.4382V289.6Z" fill="white"/>
<path d="M283 120.475H290.881V128.357H283V120.475Z" fill="#E91E29"/>
<path d="M290.881 112.594H298.762V120.475H290.881V112.594Z" fill="#E91E29"/>
<path d="M290.881 128.357H298.762V136.238H290.881V128.357Z" fill="#E91E29"/>
<path d="M298.762 104.881H306.643V112.595H298.762V104.881Z" fill="#E91E29"/>
<path d="M298.762 136.238H306.643V144.119H298.762V136.238Z" fill="#E91E29"/>
<path d="M306.643 97H314.524V104.881H306.643V97Z" fill="#E91E29"/>
<path d="M306.643 120.475H314.524V128.357H306.643V120.475Z" fill="#E91E29"/>
<path d="M306.643 144.119H314.524V152H306.643V144.119Z" fill="#E91E29"/>
<path d="M314.524 104.881H322.238V112.595H314.524V104.881Z" fill="#E91E29"/>
<path d="M314.524 136.238H322.238V144.119H314.524V136.238Z" fill="#E91E29"/>
<path d="M322.238 112.594H330.119V120.475H322.238V112.594Z" fill="#E91E29"/>
<path d="M322.238 128.357H330.119V136.238H322.238V128.357Z" fill="#E91E29"/>
<path d="M330.119 120.475H338V128.357H330.119V120.475Z" fill="#E91E29"/>
<path d="M287 712.388H295.223V720.612H287V712.388Z" fill="white"/>
<path d="M295.223 687.894H303.446V695.942H295.223V687.894Z" fill="#E91E29"/>
<path d="M303.447 687.894H311.67V695.942H303.447V687.894Z" fill="#E91E29"/>
<path d="M303.447 695.942H311.67V704.165H303.447V695.942Z" fill="#E91E29"/>
<path d="M303.447 728.835H311.67V737.058H303.447V728.835Z" fill="#E91E29"/>
<path d="M311.67 687.894H319.893V695.942H311.67V687.894Z" fill="#E91E29"/>
<path d="M311.67 695.942H319.893V704.165H311.67V695.942Z" fill="#E91E29"/>
<path d="M311.67 704.165H319.893V712.388H311.67V704.165Z" fill="#E91E29"/>
<path d="M311.67 720.612H319.893V728.835H311.67V720.612Z" fill="#E91E29"/>
<path d="M311.67 728.835H319.893V737.058H311.67V728.835Z" fill="#E91E29"/>
<path d="M319.893 663.223H328.117V671.447H319.893V663.223Z" fill="#E91E29"/>
<path d="M319.893 671.447H328.117V679.67H319.893V671.447Z" fill="#E91E29"/>
<path d="M319.893 679.67H328.117V687.894H319.893V679.67Z" fill="#E91E29"/>
<path d="M319.893 695.942H328.117V704.165H319.893V695.942Z" fill="#E91E29"/>
<path d="M319.893 704.165H328.117V712.388H319.893V704.165Z" fill="#E91E29"/>
<path d="M319.893 720.612H328.117V728.835H319.893V720.612Z" fill="#E91E29"/>
<path d="M319.893 728.835H328.117V737.058H319.893V728.835Z" fill="#E91E29"/>
<path d="M328.117 671.447H336.34V679.67H328.117V671.447Z" fill="#E91E29"/>
<path d="M328.117 679.67H336.34V687.894H328.117V679.67Z" fill="#E91E29"/>
<path d="M328.117 687.894H336.34V695.942H328.117V687.894Z" fill="#E91E29"/>
<path d="M328.117 704.165H336.34V712.388H328.117V704.165Z" fill="#E91E29"/>
<path d="M328.117 720.612H336.34V728.835H328.117V720.612Z" fill="#E91E29"/>
<path d="M336.34 679.67H344.563V687.894H336.34V679.67Z" fill="#E91E29"/>
<path d="M336.34 687.894H344.563V695.942H336.34V687.894Z" fill="#E91E29"/>
<path d="M336.34 695.942H344.563V704.165H336.34V695.942Z" fill="#E91E29"/>
<path d="M336.34 728.835H344.563V737.058H336.34V728.835Z" fill="#E91E29"/>
<path d="M344.563 655H352.612V663.223H344.563V655Z" fill="white"/>
<path d="M344.563 712.388H352.612V720.612H344.563V712.388Z" fill="white"/>
<path d="M352.612 679.67H360.835V687.894H352.612V679.67Z" fill="#E91E29"/>
<path d="M352.612 687.894H360.835V695.942H352.612V687.894Z" fill="#E91E29"/>
<path d="M352.612 695.942H360.835V704.165H352.612V695.942Z" fill="#E91E29"/>
<path d="M352.612 728.835H360.835V737.058H352.612V728.835Z" fill="#E91E29"/>
<path d="M360.835 671.447H369.058V679.67H360.835V671.447Z" fill="#E91E29"/>
<path d="M360.835 679.67H369.058V687.894H360.835V679.67Z" fill="#E91E29"/>
<path d="M360.835 687.894H369.058V695.942H360.835V687.894Z" fill="#E91E29"/>
<path d="M360.835 704.165H369.058V712.388H360.835V704.165Z" fill="#E91E29"/>
<path d="M360.835 720.612H369.058V728.835H360.835V720.612Z" fill="#E91E29"/>
<path d="M369.058 663.223H377.282V671.447H369.058V663.223Z" fill="#E91E29"/>
<path d="M369.058 671.447H377.282V679.67H369.058V671.447Z" fill="#E91E29"/>
<path d="M369.058 679.67H377.282V687.894H369.058V679.67Z" fill="#E91E29"/>
<path d="M369.058 695.942H377.282V704.165H369.058V695.942Z" fill="#E91E29"/>
<path d="M369.058 704.165H377.282V712.388H369.058V704.165Z" fill="#E91E29"/>
<path d="M369.058 720.612H377.282V728.835H369.058V720.612Z" fill="#E91E29"/>
<path d="M369.058 728.835H377.282V737.058H369.058V728.835Z" fill="#E91E29"/>
<path d="M377.282 687.894H385.505V695.942H377.282V687.894Z" fill="#E91E29"/>
<path d="M377.282 695.942H385.505V704.165H377.282V695.942Z" fill="#E91E29"/>
<path d="M377.282 704.165H385.505V712.388H377.282V704.165Z" fill="#E91E29"/>
<path d="M377.282 720.612H385.505V728.835H377.282V720.612Z" fill="#E91E29"/>
<path d="M377.282 728.835H385.505V737.058H377.282V728.835Z" fill="#E91E29"/>
<path d="M385.505 687.894H393.728V695.942H385.505V687.894Z" fill="#E91E29"/>
<path d="M385.505 695.942H393.728V704.165H385.505V695.942Z" fill="#E91E29"/>
<path d="M385.505 728.835H393.728V737.058H385.505V728.835Z" fill="#E91E29"/>
<path d="M393.728 687.894H401.952V695.942H393.728V687.894Z" fill="#E91E29"/>
<path d="M401.952 712.388H410.175V720.612H401.952V712.388Z" fill="white"/>
<rect x="342" width="7" height="7" fill="white"/>
<rect x="43" y="420" width="7" height="7" fill="white"/>
<rect x="604" y="264" width="7" height="7" fill="white"/>
<rect x="502" y="638" width="7" height="7" fill="white"/>
<rect y="444" width="7" height="7" fill="white"/>
<rect x="417" y="577" width="7" height="7" fill="white"/>
</svg>
