<svg width="496" height="62" viewBox="0 0 496 62" fill="none" xmlns="http://www.w3.org/2000/svg">
<path opacity="0.99" d="M54.7614 33.7628C55.9138 36.3511 53.9376 41.6169 50.7742 43.0254C47.6107 44.4338 45.5601 45.3284 44.4077 42.7402C43.2554 40.1519 44.1331 36.623 47.2966 35.2146C50.46 33.8061 53.6091 31.1745 54.7614 33.7628Z" fill="white"/>
<path d="M439.048 48.7279C438.557 50.8589 434.892 53.1872 432.287 52.5858C429.683 51.9845 428.003 51.5834 428.495 49.4524C428.987 47.3215 431.167 45.5537 433.772 46.155C436.377 46.7563 439.54 46.5969 439.048 48.7279Z" fill="white"/>
<path d="M0.401117 12.1934C0.990035 10.8706 3.66568 9.82049 5.28235 10.5403C6.89902 11.2601 7.93999 11.7329 7.35108 13.0557C6.76216 14.3784 5.12181 15.2518 3.50514 14.532C1.88847 13.8122 -0.1878 13.5161 0.401117 12.1934Z" fill="white"/>
<path opacity="0.99" d="M485.289 28.3692C483.512 27.8932 481.663 24.7452 482.245 22.574C482.827 20.4028 483.213 19.0029 484.99 19.4789C486.766 19.9548 488.188 21.8392 487.606 24.0104C487.024 26.1816 487.065 28.8452 485.289 28.3692Z" fill="white"/>
</svg>
