<svg width="562" height="65" viewBox="0 0 562 65" fill="none" xmlns="http://www.w3.org/2000/svg">
<g clip-path="url(#clip0_80_23311)">
<path d="M147.569 51.6481C149.273 45.1814 156.922 47.481 157.483 47.8616C157.605 47.1949 162.125 48.8061 162.125 48.8061C162.125 48.8061 163.266 61.6567 164.464 64.5147C156.086 60.4033 146.352 56.2617 147.569 51.6481Z" fill="#FF9EA4"/>
<path d="M147.569 51.6481C149.273 45.1814 156.922 47.481 157.483 47.8616C157.605 47.1949 162.125 48.8061 162.125 48.8061C162.125 48.8061 163.266 61.6567 164.464 64.5147C156.086 60.4033 146.352 56.2617 147.569 51.6481Z" fill="#FF9EA4"/>
<path d="M167.13 43.4484C161.324 40.1301 157.601 47.1966 157.479 47.8633C157.347 47.5491 160.148 54.2315 160.148 54.2315C160.148 54.2315 163.261 61.6584 164.459 64.5164C167.402 55.6599 171.272 45.8158 167.13 43.4484Z" fill="#FFD0D3"/>
<path d="M167.13 43.4484C161.324 40.1301 157.601 47.1966 157.479 47.8633C157.347 47.5491 160.148 54.2315 160.148 54.2315C160.148 54.2315 163.261 61.6584 164.459 64.5164C167.402 55.6599 171.272 45.8158 167.13 43.4484Z" fill="#FFD0D3"/>
<path d="M190.596 2.59588C195.274 -0.14828 198.358 5.54715 198.463 6.08664C198.914 5.77283 200.592 9.28355 200.592 9.28355C200.592 9.28355 193.901 17.3256 192.956 19.6541C190.489 12.5 187.259 4.55371 190.596 2.59588Z" fill="#FFECEC"/>
<path d="M190.596 2.59588C195.274 -0.14828 198.358 5.54715 198.463 6.08664C198.914 5.77283 200.592 9.28355 200.592 9.28355C200.592 9.28355 193.901 17.3256 192.956 19.6541C190.489 12.5 187.259 4.55371 190.596 2.59588Z" fill="#FFECEC"/>
<path d="M206.533 9.06413C205.092 3.8364 198.911 5.77154 198.459 6.08535C198.563 5.82936 196.354 11.2736 196.354 11.2736C196.354 11.2736 193.898 17.3243 192.953 19.6528C199.708 16.2418 207.562 12.7939 206.533 9.06413Z" fill="#FFD2D2"/>
<path d="M206.533 9.06413C205.092 3.8364 198.911 5.77154 198.459 6.08535C198.563 5.82936 196.354 11.2736 196.354 11.2736C196.354 11.2736 193.898 17.3243 192.953 19.6528C199.708 16.2418 207.562 12.7939 206.533 9.06413Z" fill="#FFD2D2"/>
<path d="M104.06 32.2917C106.667 27.5366 112.236 30.8433 112.603 31.2526C112.829 30.7518 116.07 32.9044 116.07 32.9044C116.07 32.9044 114.453 43.2401 114.836 45.7236C109.048 40.8484 102.199 35.6842 104.06 32.2917Z" fill="#FFECEC"/>
<path d="M104.06 32.2917C106.667 27.5366 112.236 30.8433 112.603 31.2526C112.829 30.7518 116.07 32.9044 116.07 32.9044C116.07 32.9044 114.453 43.2401 114.836 45.7236C109.048 40.8484 102.199 35.6842 104.06 32.2917Z" fill="#FFECEC"/>
<path d="M121.058 29.668C117.138 25.9203 112.825 30.7523 112.599 31.2532C112.557 30.9801 113.453 36.7869 113.453 36.7869C113.453 36.7869 114.449 43.2406 114.833 45.7241C118.881 39.3306 123.854 32.3418 121.058 29.668Z" fill="#FFD2D2"/>
<path d="M121.058 29.668C117.138 25.9203 112.825 30.7523 112.599 31.2532C112.557 30.9801 113.453 36.7869 113.453 36.7869C113.453 36.7869 114.449 43.2406 114.833 45.7241C118.881 39.3306 123.854 32.3418 121.058 29.668Z" fill="#FFD2D2"/>
<path fill-rule="evenodd" clip-rule="evenodd" d="M52.5879 5.85387C52.763 4.81244 54.6635 -0.69064 59.5434 0.933088C62.8554 2.03517 61.9523 9.0161 61.0635 15.8866C60.9672 16.6313 60.871 17.3747 60.7804 18.1092L60.312 17.4171C60.451 17.6971 60.5816 17.9308 60.701 18.1074C59.9855 17.9184 59.2596 17.7312 58.5325 17.5437C51.8241 15.8141 45.0079 14.0567 45.2164 10.5723C45.5403 5.15908 51.9885 5.76739 52.495 5.98058C52.4942 5.92904 52.5272 5.88727 52.5879 5.85387Z" fill="#FF868D"/>
<path fill-rule="evenodd" clip-rule="evenodd" d="M297.737 52.1951C298.157 51.4815 301.092 47.983 304.211 50.5399C306.328 52.2753 303.71 57.1355 301.134 61.9189C300.855 62.4374 300.576 62.955 300.304 63.4676L300.155 62.8299C300.178 63.0737 300.208 63.2814 300.246 63.444C299.775 63.1052 299.296 62.7647 298.816 62.4237L298.816 62.4236L298.816 62.4235C294.387 59.2767 289.887 56.0793 291.016 53.5855C292.77 49.7112 297.323 51.9638 297.634 52.2619C297.648 52.2239 297.684 52.2026 297.737 52.1951Z" fill="#FF868D"/>
<path d="M42.2883 51.6286C44.7003 47.1596 49.9359 50.2217 50.2819 50.6027C50.4907 50.1323 53.5395 52.128 53.5395 52.128C53.5395 52.128 52.0887 61.8167 52.463 64.14C47.0127 59.6105 40.5674 54.817 42.2883 51.6286Z" fill="#FFECEC"/>
<path d="M42.2883 51.6286C44.7003 47.1596 49.9359 50.2217 50.2819 50.6027C50.4907 50.1323 53.5395 52.128 53.5395 52.128C53.5395 52.128 52.0887 61.8167 52.463 64.14C47.0127 59.6105 40.5674 54.817 42.2883 51.6286Z" fill="#FFECEC"/>
<path d="M58.1899 49.0665C54.4963 45.5813 50.4875 50.1328 50.2787 50.6032C50.2375 50.3478 51.1127 55.7799 51.1127 55.7799C51.1127 55.7799 52.0855 61.8173 52.4598 64.1406C56.2117 58.1284 60.8252 51.5531 58.1899 49.0665Z" fill="#FFD2D2"/>
<path d="M58.1899 49.0665C54.4963 45.5813 50.4875 50.1328 50.2787 50.6032C50.2375 50.3478 51.1127 55.7799 51.1127 55.7799C51.1127 55.7799 52.0855 61.8173 52.4598 64.1406C56.2117 58.1284 60.8252 51.5531 58.1899 49.0665Z" fill="#FFD2D2"/>
<path d="M458.547 54.5684C461.053 52.2421 463.727 55.3291 463.865 55.647C464.1 55.3924 465.611 57.3256 465.611 57.3256C465.611 57.3256 462.586 63.1879 462.321 64.7502C459.828 60.6811 456.758 56.228 458.547 54.5684Z" fill="#FFECEC"/>
<path d="M458.547 54.5684C461.053 52.2421 463.727 55.3291 463.865 55.647C464.1 55.3924 465.611 57.3256 465.611 57.3256C465.611 57.3256 462.586 63.1879 462.321 64.7502C459.828 60.6811 456.758 56.228 458.547 54.5684Z" fill="#FFECEC"/>
<path d="M469.239 56.3819C467.64 53.3593 464.098 55.3921 463.863 55.6467C463.892 55.475 463.272 59.1278 463.272 59.1278C463.272 59.1278 462.584 63.1876 462.319 64.7498C466.014 61.7302 470.38 58.5383 469.239 56.3819Z" fill="#FFD2D2"/>
<path d="M469.239 56.3819C467.64 53.3593 464.098 55.3921 463.863 55.6467C463.892 55.475 463.272 59.1278 463.272 59.1278C463.272 59.1278 462.584 63.1876 462.319 64.7498C466.014 61.7302 470.38 58.5383 469.239 56.3819Z" fill="#FFD2D2"/>
<path d="M1.57711 26.2362C4.81191 24.3384 6.94474 28.2773 7.01726 28.6504C7.3293 28.4333 8.48986 30.8613 8.48986 30.8613C8.48986 30.8613 3.86259 36.4231 3.20902 38.0334C1.50264 33.0857 -0.730767 27.5902 1.57711 26.2362Z" fill="#FFECEC"/>
<path d="M1.57711 26.2362C4.81191 24.3384 6.94474 28.2773 7.01726 28.6504C7.3293 28.4333 8.48986 30.8613 8.48986 30.8613C8.48986 30.8613 3.86259 36.4231 3.20902 38.0334C1.50264 33.0857 -0.730767 27.5902 1.57711 26.2362Z" fill="#FFECEC"/>
<path d="M12.599 30.7095C11.6019 27.0941 7.32721 28.4324 7.01517 28.6495C7.08703 28.4724 5.55887 32.2376 5.55887 32.2376C5.55887 32.2376 3.8605 36.4222 3.20693 38.0325C7.87882 35.6735 13.3105 33.289 12.599 30.7095Z" fill="#FFD2D2"/>
<path d="M12.599 30.7095C11.6019 27.0941 7.32721 28.4324 7.01517 28.6495C7.08703 28.4724 5.55887 32.2376 5.55887 32.2376C5.55887 32.2376 3.8605 36.4222 3.20693 38.0325C7.87882 35.6735 13.3105 33.289 12.599 30.7095Z" fill="#FFD2D2"/>
<path d="M296.208 5.6959C297.853 2.3256 301.808 4.42741 302.075 4.69813C302.215 4.34474 304.525 5.72557 304.525 5.72557C304.525 5.72557 303.746 12.9185 304.092 14.6216C299.934 11.4435 295.034 8.10044 296.208 5.6959Z" fill="#FFECEC"/>
<path d="M296.208 5.6959C297.853 2.3256 301.808 4.42741 302.075 4.69813C302.215 4.34474 304.525 5.72557 304.525 5.72557C304.525 5.72557 303.746 12.9185 304.092 14.6216C299.934 11.4435 295.034 8.10044 296.208 5.6959Z" fill="#FFECEC"/>
<path d="M307.864 3.32633C305.034 0.865842 302.213 4.34517 302.073 4.69856C302.035 4.51132 302.844 8.49333 302.844 8.49333C302.844 8.49333 303.744 12.919 304.09 14.622C306.677 10.0727 309.884 5.08177 307.864 3.32633Z" fill="#FFD2D2"/>
<path d="M307.864 3.32633C305.034 0.865842 302.213 4.34517 302.073 4.69856C302.035 4.51132 302.844 8.49333 302.844 8.49333C302.844 8.49333 303.744 12.919 304.09 14.622C306.677 10.0727 309.884 5.08177 307.864 3.32633Z" fill="#FFD2D2"/>
<path d="M552.34 5.3013C555.167 4.14777 556.428 7.56989 556.444 7.87899C556.72 7.74035 557.373 9.83187 557.373 9.83187C557.373 9.83187 552.998 13.7763 552.284 14.9981C551.484 10.8126 550.323 6.12429 552.34 5.3013Z" fill="#FFECEC"/>
<path d="M552.34 5.3013C555.167 4.14777 556.428 7.56989 556.444 7.87899C556.72 7.74035 557.373 9.83187 557.373 9.83187C557.373 9.83187 552.998 13.7763 552.284 14.9981C551.484 10.8126 550.323 6.12429 552.34 5.3013Z" fill="#FFECEC"/>
<path d="M560.702 10.187C560.319 7.15754 556.719 7.73934 556.442 7.87798C556.52 7.74366 554.851 10.6003 554.851 10.6003C554.851 10.6003 552.996 13.7753 552.283 14.9971C556.322 13.6389 560.976 12.3484 560.702 10.187Z" fill="#FFD2D2"/>
<path d="M560.702 10.187C560.319 7.15754 556.719 7.73934 556.442 7.87798C556.52 7.74366 554.851 10.6003 554.851 10.6003C554.851 10.6003 552.996 13.7753 552.283 14.9971C556.322 13.6389 560.976 12.3484 560.702 10.187Z" fill="#FFD2D2"/>
</g>
<defs>
<clipPath id="clip0_80_23311">
<rect width="562" height="65" fill="white"/>
</clipPath>
</defs>
</svg>
