<svg width="561" height="63" viewBox="0 0 561 63" fill="none" xmlns="http://www.w3.org/2000/svg">
<g clip-path="url(#clip0_80_23311)">
<path d="M147.215 49.2898C148.919 42.8231 156.568 45.1226 157.129 45.5033C157.251 44.8366 161.771 46.4478 161.771 46.4478C161.771 46.4478 162.912 59.2984 164.11 62.1563C155.732 58.045 145.998 53.9034 147.215 49.2898Z" fill="#FF9EA4"/>
<path d="M147.215 49.2898C148.919 42.8231 156.568 45.1226 157.129 45.5033C157.251 44.8366 161.771 46.4478 161.771 46.4478C161.771 46.4478 162.912 59.2984 164.11 62.1563C155.732 58.045 145.998 53.9034 147.215 49.2898Z" fill="#FF9EA4"/>
<path d="M166.776 41.0901C160.97 37.7718 157.247 44.8383 157.125 45.505C156.993 45.1908 159.794 51.8732 159.794 51.8732C159.794 51.8732 162.908 59.3001 164.106 62.1581C167.048 53.3016 170.919 43.4575 166.776 41.0901Z" fill="#FFD0D3"/>
<path d="M166.776 41.0901C160.97 37.7718 157.247 44.8383 157.125 45.505C156.993 45.1908 159.794 51.8732 159.794 51.8732C159.794 51.8732 162.908 59.3001 164.106 62.1581C167.048 53.3016 170.919 43.4575 166.776 41.0901Z" fill="#FFD0D3"/>
<path d="M185.331 8.40998C190.008 5.66582 193.092 11.3612 193.197 11.9007C193.648 11.5869 195.327 15.0976 195.327 15.0976C195.327 15.0976 188.636 23.1397 187.691 25.4682C185.223 18.3141 181.994 10.3678 185.331 8.40998Z" fill="#FFECEC"/>
<path d="M185.331 8.40998C190.008 5.66582 193.092 11.3612 193.197 11.9007C193.648 11.5869 195.327 15.0976 195.327 15.0976C195.327 15.0976 188.636 23.1397 187.691 25.4682C185.223 18.3141 181.994 10.3678 185.331 8.40998Z" fill="#FFECEC"/>
<path d="M201.268 14.8782C199.826 9.6505 193.645 11.5856 193.194 11.8994C193.298 11.6435 191.088 17.0877 191.088 17.0877C191.088 17.0877 188.633 23.1384 187.688 25.4669C194.443 22.0559 202.297 18.608 201.268 14.8782Z" fill="#FFD2D2"/>
<path d="M201.268 14.8782C199.826 9.6505 193.645 11.5856 193.194 11.8994C193.298 11.6435 191.088 17.0877 191.088 17.0877C191.088 17.0877 188.633 23.1384 187.688 25.4669C194.443 22.0559 202.297 18.608 201.268 14.8782Z" fill="#FFD2D2"/>
<path d="M103.706 29.9334C106.313 25.1783 111.882 28.485 112.249 28.8943C112.475 28.3935 115.716 30.5461 115.716 30.5461C115.716 30.5461 114.099 40.8818 114.482 43.3653C108.694 38.4901 101.846 33.3259 103.706 29.9334Z" fill="#FFECEC"/>
<path d="M103.706 29.9334C106.313 25.1783 111.882 28.485 112.249 28.8943C112.475 28.3935 115.716 30.5461 115.716 30.5461C115.716 30.5461 114.099 40.8818 114.482 43.3653C108.694 38.4901 101.846 33.3259 103.706 29.9334Z" fill="#FFECEC"/>
<path d="M120.704 27.3097C116.784 23.562 112.471 28.394 112.245 28.8949C112.203 28.6218 113.099 34.4286 113.099 34.4286C113.099 34.4286 114.095 40.8823 114.479 43.3658C118.528 36.9723 123.5 29.9835 120.704 27.3097Z" fill="#FFD2D2"/>
<path d="M120.704 27.3097C116.784 23.562 112.471 28.394 112.245 28.8949C112.203 28.6218 113.099 34.4286 113.099 34.4286C113.099 34.4286 114.095 40.8823 114.479 43.3658C118.528 36.9723 123.5 29.9835 120.704 27.3097Z" fill="#FFD2D2"/>
<path fill-rule="evenodd" clip-rule="evenodd" d="M52.234 3.49557C52.4091 2.45414 54.3097 -3.04894 59.1895 -1.42522C62.5016 -0.323135 61.5985 6.65779 60.7096 13.5283C60.6133 14.273 60.5171 15.0164 60.4265 15.7509L59.9581 15.0588C60.0971 15.3388 60.2277 15.5725 60.3472 15.7491C59.6316 15.5601 58.9058 15.3729 58.1786 15.1854C51.4702 13.4558 44.654 11.6984 44.8625 8.21402C45.1865 2.80078 51.6346 3.40909 52.1412 3.62227C52.1403 3.57074 52.1733 3.52896 52.234 3.49557Z" fill="#FF868D"/>
<path fill-rule="evenodd" clip-rule="evenodd" d="M297.384 49.8368C297.804 49.1232 300.738 45.6247 303.857 48.1816C305.974 49.917 303.357 54.7773 300.78 59.5606C300.501 60.0791 300.222 60.5967 299.95 61.1093L299.801 60.4716C299.824 60.7154 299.854 60.9231 299.892 61.0857C299.421 60.7469 298.942 60.4065 298.462 60.0655L298.462 60.0653L298.462 60.0652C294.033 56.9184 289.533 53.721 290.662 51.2272C292.416 47.3529 296.969 49.6055 297.28 49.9036C297.294 49.8656 297.33 49.8443 297.384 49.8368Z" fill="#FF868D"/>
<path d="M41.9344 49.2703C44.3465 44.8013 49.582 47.8634 49.928 48.2444C50.1368 47.774 53.1856 49.7697 53.1856 49.7697C53.1856 49.7697 51.7348 59.4584 52.1091 61.7817C46.6588 57.2522 40.2136 52.4587 41.9344 49.2703Z" fill="#FFECEC"/>
<path d="M41.9344 49.2703C44.3465 44.8013 49.582 47.8634 49.928 48.2444C50.1368 47.774 53.1856 49.7697 53.1856 49.7697C53.1856 49.7697 51.7348 59.4584 52.1091 61.7817C46.6588 57.2522 40.2136 52.4587 41.9344 49.2703Z" fill="#FFECEC"/>
<path d="M57.8361 46.7082C54.1424 43.223 50.1336 47.7745 49.9248 48.2449C49.8837 47.9895 50.7589 53.4216 50.7589 53.4216C50.7589 53.4216 51.7316 59.459 52.1059 61.7822C55.8578 55.7701 60.4713 49.1948 57.8361 46.7082Z" fill="#FFD2D2"/>
<path d="M57.8361 46.7082C54.1424 43.223 50.1336 47.7745 49.9248 48.2449C49.8837 47.9895 50.7589 53.4216 50.7589 53.4216C50.7589 53.4216 51.7316 59.459 52.1059 61.7822C55.8578 55.7701 60.4713 49.1948 57.8361 46.7082Z" fill="#FFD2D2"/>
<path d="M458.193 52.2101C460.699 49.8838 463.373 52.9708 463.511 53.2887C463.746 53.0341 465.257 54.9673 465.257 54.9673C465.257 54.9673 462.232 60.8296 461.967 62.3919C459.474 58.3228 456.405 53.8697 458.193 52.2101Z" fill="#FFECEC"/>
<path d="M458.193 52.2101C460.699 49.8838 463.373 52.9708 463.511 53.2887C463.746 53.0341 465.257 54.9673 465.257 54.9673C465.257 54.9673 462.232 60.8296 461.967 62.3919C459.474 58.3228 456.405 53.8697 458.193 52.2101Z" fill="#FFECEC"/>
<path d="M468.886 54.0236C467.286 51.001 463.744 53.0338 463.509 53.2884C463.538 53.1167 462.919 56.7695 462.919 56.7695C462.919 56.7695 462.23 60.8293 461.965 62.3915C465.66 59.3719 470.027 56.18 468.886 54.0236Z" fill="#FFD2D2"/>
<path d="M468.886 54.0236C467.286 51.001 463.744 53.0338 463.509 53.2884C463.538 53.1167 462.919 56.7695 462.919 56.7695C462.919 56.7695 462.23 60.8293 461.965 62.3915C465.66 59.3719 470.027 56.18 468.886 54.0236Z" fill="#FFD2D2"/>
<path d="M1.22323 23.8779C4.45802 21.9801 6.59086 25.9189 6.66338 26.2921C6.97541 26.075 8.13598 28.503 8.13598 28.503C8.13598 28.503 3.50871 34.0648 2.85514 35.6751C1.14876 30.7274 -1.08465 25.2319 1.22323 23.8779Z" fill="#FFECEC"/>
<path d="M1.22323 23.8779C4.45802 21.9801 6.59086 25.9189 6.66338 26.2921C6.97541 26.075 8.13598 28.503 8.13598 28.503C8.13598 28.503 3.50871 34.0648 2.85514 35.6751C1.14876 30.7274 -1.08465 25.2319 1.22323 23.8779Z" fill="#FFECEC"/>
<path d="M12.2451 28.3512C11.248 24.7358 6.97332 26.0741 6.66129 26.2912C6.73315 26.1141 5.20499 29.8793 5.20499 29.8793C5.20499 29.8793 3.50662 34.0639 2.85305 35.6742C7.52494 33.3152 12.9566 30.9307 12.2451 28.3512Z" fill="#FFD2D2"/>
<path d="M12.2451 28.3512C11.248 24.7358 6.97332 26.0741 6.66129 26.2912C6.73315 26.1141 5.20499 29.8793 5.20499 29.8793C5.20499 29.8793 3.50662 34.0639 2.85305 35.6742C7.52494 33.3152 12.9566 30.9307 12.2451 28.3512Z" fill="#FFD2D2"/>
<path d="M295.854 3.33759C297.499 -0.0327048 301.455 2.0691 301.721 2.33983C301.861 1.98643 304.171 3.36726 304.171 3.36726C304.171 3.36726 303.392 10.5602 303.739 12.2633C299.58 9.08517 294.68 5.74214 295.854 3.33759Z" fill="#FFECEC"/>
<path d="M295.854 3.33759C297.499 -0.0327048 301.455 2.0691 301.721 2.33983C301.861 1.98643 304.171 3.36726 304.171 3.36726C304.171 3.36726 303.392 10.5602 303.739 12.2633C299.58 9.08517 294.68 5.74214 295.854 3.33759Z" fill="#FFECEC"/>
<path d="M307.51 0.968024C304.68 -1.49246 301.859 1.98686 301.719 2.34026C301.681 2.15302 302.49 6.13503 302.49 6.13503C302.49 6.13503 303.39 10.5607 303.736 12.2637C306.324 7.71437 309.53 2.72346 307.51 0.968024Z" fill="#FFD2D2"/>
<path d="M307.51 0.968024C304.68 -1.49246 301.859 1.98686 301.719 2.34026C301.681 2.15302 302.49 6.13503 302.49 6.13503C302.49 6.13503 303.39 10.5607 303.736 12.2637C306.324 7.71437 309.53 2.72346 307.51 0.968024Z" fill="#FFD2D2"/>
<path d="M551.986 2.94299C554.814 1.78946 556.075 5.21158 556.09 5.52068C556.366 5.38204 557.02 7.47356 557.02 7.47356C557.02 7.47356 552.644 11.418 551.93 12.6398C551.13 8.45426 549.969 3.76598 551.986 2.94299Z" fill="#FFECEC"/>
<path d="M551.986 2.94299C554.814 1.78946 556.075 5.21158 556.09 5.52068C556.366 5.38204 557.02 7.47356 557.02 7.47356C557.02 7.47356 552.644 11.418 551.93 12.6398C551.13 8.45426 549.969 3.76598 551.986 2.94299Z" fill="#FFECEC"/>
<path d="M560.349 7.82871C559.965 4.79922 556.365 5.38103 556.088 5.51966C556.167 5.38534 554.498 8.24203 554.498 8.24203C554.498 8.24203 552.643 11.417 551.929 12.6388C555.968 11.2806 560.622 9.9901 560.349 7.82871Z" fill="#FFD2D2"/>
<path d="M560.349 7.82871C559.965 4.79922 556.365 5.38103 556.088 5.51966C556.167 5.38534 554.498 8.24203 554.498 8.24203C554.498 8.24203 552.643 11.417 551.929 12.6388C555.968 11.2806 560.622 9.9901 560.349 7.82871Z" fill="#FFD2D2"/>
<path d="M223.073 30.6189L223.073 30.6189L223.079 30.6267C223.596 31.2622 223.714 32.0695 223.466 33.0908C223.214 34.1327 222.603 35.2812 221.831 36.3998C220.771 37.9342 219.497 39.2877 218.722 40.0596C217.953 39.2882 216.688 37.9352 215.634 36.4016C214.865 35.2828 214.255 34.1329 213.999 33.0887C213.749 32.0646 213.862 31.2561 214.365 30.6227C215.052 29.7784 215.585 29.4614 215.935 29.3562C216.253 29.2606 216.509 29.3119 216.751 29.4434C217.336 29.76 217.742 30.4892 217.828 30.6598L218.721 32.4202L219.613 30.6598C219.692 30.5024 220.113 29.765 220.709 29.4451C220.958 29.311 221.216 29.2612 221.53 29.3558C221.874 29.4599 222.4 29.7744 223.073 30.6189Z" stroke="white" stroke-width="2"/>
</g>
<defs>
<clipPath id="clip0_80_23311">
<rect width="561" height="63" fill="white"/>
</clipPath>
</defs>
</svg>
