<svg width="314" height="76" viewBox="0 0 314 76" fill="none" xmlns="http://www.w3.org/2000/svg">
<g clip-path="url(#clip0_29_780)">
<path d="M2.06092 2.55526C2.16804 2.98488 1.72098 3.74169 1.19589 3.87261C0.670797 4.00353 0.330924 4.08556 0.223807 3.65594C0.11669 3.22632 0.347545 2.70703 0.872638 2.57611C1.39773 2.44519 1.9538 2.12563 2.06092 2.55526Z" fill="white"/>
<path d="M297.007 6.19143C297.018 5.5621 297.911 4.68738 298.68 4.70081C299.449 4.71423 299.946 4.72664 299.935 5.35597C299.924 5.98531 299.416 6.61343 298.647 6.6C297.878 6.58657 296.997 6.82077 297.007 6.19143Z" fill="white"/>
<path d="M185.323 5.56652C184.759 5.99081 183.372 5.80642 182.853 5.11823C182.335 4.43005 182.003 3.98293 182.566 3.55863C183.129 3.13434 184.034 3.14962 184.553 3.83781C185.071 4.52599 185.886 5.14222 185.323 5.56652Z" fill="white"/>
<path d="M104.916 0.702706C105.716 0.411624 107.252 1.11415 107.608 2.09162C107.964 3.06908 108.189 3.7023 107.389 3.99338C106.589 4.28446 105.55 3.9475 105.195 2.97003C104.839 1.99257 104.116 0.993789 104.916 0.702706Z" fill="white"/>
<path d="M241.989 2.09733C242.133 1.28167 243.472 0.328532 244.469 0.504315C245.466 0.680097 246.109 0.798493 245.966 1.61415C245.822 2.4298 245.032 3.14155 244.035 2.96577C243.038 2.78998 241.845 2.91298 241.989 2.09733Z" fill="white"/>
<path d="M281.098 74.6413C281.242 73.8256 282.582 72.8725 283.579 73.0483C284.576 73.224 285.219 73.3424 285.075 74.1581C284.931 74.9737 284.142 75.6855 283.145 75.5097C282.148 75.3339 280.954 75.4569 281.098 74.6413Z" fill="white"/>
<path d="M311.585 49.9042C312.572 50.0079 313.824 51.5303 313.697 52.737C313.57 53.9438 313.482 54.7228 312.495 54.619C311.508 54.5153 310.591 53.6306 310.717 52.4239C310.844 51.2171 310.597 49.8004 311.585 49.9042Z" fill="white"/>
</g>
<defs>
<clipPath id="clip0_29_780">
<rect width="314" height="76" fill="white"/>
</clipPath>
</defs>
</svg>
