<svg width="575" height="59" viewBox="0 0 575 59" fill="none" xmlns="http://www.w3.org/2000/svg">
<path d="M36.1063 133.089L60.7565 30.4556" stroke="#F96B8A" stroke-width="3" stroke-miterlimit="10"/>
<path d="M27.9661 131.127L52.6163 28.4935" stroke="#F96B8A" stroke-width="3" stroke-miterlimit="10"/>
<path d="M19.826 129.165L44.4732 26.5283" stroke="#F96B8A" stroke-width="3" stroke-miterlimit="10"/>
<path d="M11.6857 127.203L36.3329 24.5662" stroke="#F96B8A" stroke-width="3" stroke-miterlimit="10"/>
<path d="M3.54553 125.24L28.1928 22.6039" stroke="#F96B8A" stroke-width="3" stroke-miterlimit="10"/>
<path d="M-4.59467 123.275L20.0526 20.6418" stroke="#F96B8A" stroke-width="3" stroke-miterlimit="10"/>
<path d="M-12.738 121.313L11.9122 18.6796" stroke="#F96B8A" stroke-width="3" stroke-miterlimit="10"/>
<path d="M-20.8782 119.351L3.77202 16.7173" stroke="#F96B8A" stroke-width="3" stroke-miterlimit="10"/>
<path d="M293.318 26.6928L366.786 106.1" stroke="#3349B5" stroke-width="3" stroke-miterlimit="10"/>
<path d="M298.74 21.3967L372.211 100.807" stroke="#3349B5" stroke-width="3" stroke-miterlimit="10"/>
<path d="M304.165 16.1035L377.632 95.5108" stroke="#3349B5" stroke-width="3" stroke-miterlimit="10"/>
<path d="M309.589 10.8102L383.057 90.2174" stroke="#3349B5" stroke-width="3" stroke-miterlimit="10"/>
<path d="M315.014 5.51404L388.482 84.9213" stroke="#3349B5" stroke-width="3" stroke-miterlimit="10"/>
<path d="M320.436 0.220825L393.904 79.6281" stroke="#3349B5" stroke-width="3" stroke-miterlimit="10"/>
<path d="M325.861 -5.07532L399.329 74.3348" stroke="#3349B5" stroke-width="3" stroke-miterlimit="10"/>
<path d="M331.286 -10.3687L404.754 69.0386" stroke="#3349B5" stroke-width="3" stroke-miterlimit="10"/>
<path d="M336.711 -15.6617L410.178 63.7455" stroke="#3349B5" stroke-width="3" stroke-miterlimit="10"/>
<path d="M342.133 -20.9581L415.6 58.4521" stroke="#3349B5" stroke-width="3" stroke-miterlimit="10"/>
<path d="M347.557 -26.2512L421.025 53.156" stroke="#3349B5" stroke-width="3" stroke-miterlimit="10"/>
<path d="M352.982 -31.5445L426.45 47.8628" stroke="#3349B5" stroke-width="3" stroke-miterlimit="10"/>
<path d="M358.404 -36.8406L431.875 42.5696" stroke="#3349B5" stroke-width="3" stroke-miterlimit="10"/>
<path d="M363.829 -42.1339L437.297 37.2734" stroke="#3349B5" stroke-width="3" stroke-miterlimit="10"/>
<path d="M369.254 -47.4271L442.722 31.9802" stroke="#3349B5" stroke-width="3" stroke-miterlimit="10"/>
<path d="M374.679 -52.7233L448.146 26.684" stroke="#3349B5" stroke-width="3" stroke-miterlimit="10"/>
<path d="M380.1 -58.0164L453.568 21.3908" stroke="#3349B5" stroke-width="3" stroke-miterlimit="10"/>
<path d="M385.525 -63.3126L458.993 16.0976" stroke="#3349B5" stroke-width="3" stroke-miterlimit="10"/>
<path d="M66.3156 -33.6505L127.449 107.437L166.231 82.5832L101.172 -44.4778L66.3156 -33.6505Z" fill="white"/>
<path d="M71.1173 116.731L192.243 55.9877" stroke="#F96B8A" stroke-width="3" stroke-miterlimit="10"/>
<path d="M67.6091 108.955L188.738 48.2122" stroke="#F96B8A" stroke-width="3" stroke-miterlimit="10"/>
<path d="M64.1037 101.177L185.229 40.4341" stroke="#F96B8A" stroke-width="3" stroke-miterlimit="10"/>
<path d="M60.5956 93.3987L181.724 32.6558" stroke="#F96B8A" stroke-width="3" stroke-miterlimit="10"/>
<path d="M57.0902 85.6203L178.216 24.8774" stroke="#F96B8A" stroke-width="3" stroke-miterlimit="10"/>
<path d="M53.5818 77.845L174.708 17.1021" stroke="#F96B8A" stroke-width="3" stroke-miterlimit="10"/>
<path d="M50.0737 70.0669L171.202 9.32397" stroke="#F96B8A" stroke-width="3" stroke-miterlimit="10"/>
<path d="M46.5684 62.2884L167.694 1.54553" stroke="#F96B8A" stroke-width="3" stroke-miterlimit="10"/>
<path d="M43.0602 54.5102L164.189 -6.23267" stroke="#F96B8A" stroke-width="3" stroke-miterlimit="10"/>
<path d="M39.5549 46.7348L160.681 -14.0081" stroke="#F96B8A" stroke-width="3" stroke-miterlimit="10"/>
<path d="M36.0466 38.9565L157.175 -21.7864" stroke="#F96B8A" stroke-width="3" stroke-miterlimit="10"/>
<path d="M32.5414 31.1783L153.667 -29.5646" stroke="#F96B8A" stroke-width="3" stroke-miterlimit="10"/>
<path d="M29.0331 23.403L150.162 -37.3428" stroke="#F96B8A" stroke-width="3" stroke-miterlimit="10"/>
<path d="M25.5279 15.6246L146.654 -45.1183" stroke="#F96B8A" stroke-width="3" stroke-miterlimit="10"/>
<path d="M22.0196 7.84635L143.148 -52.8965" stroke="#F96B8A" stroke-width="3" stroke-miterlimit="10"/>
<path d="M18.5113 0.0680849L139.64 -60.6748" stroke="#F96B8A" stroke-width="3" stroke-miterlimit="10"/>
<path d="M15.1374 16.9906L15.6322 18.1127L74.6973 152.288L87.541 100.742L28.9439 -33.4479L-75.0132 31.9831L-84.9448 83.1413L15.1374 16.9906Z" fill="white"/>
<path d="M-69.0012 29.0192L29.5996 -33.9091L86.8822 99.1677" stroke="#3349B5" stroke-width="3" stroke-miterlimit="10"/>
<path d="M-71.7078 39.3473L26.896 -23.5811L84.1787 109.496" stroke="#3349B5" stroke-width="3" stroke-miterlimit="10"/>
<path d="M-74.411 49.6752L24.1898 -13.2532L81.4754 119.824" stroke="#3349B5" stroke-width="3" stroke-miterlimit="10"/>
<path d="M-77.1146 60.0032L21.4862 -2.92511L78.7688 130.152" stroke="#3349B5" stroke-width="3" stroke-miterlimit="10"/>
<path d="M-79.821 70.331L18.7827 7.40271L76.0654 140.48" stroke="#3349B5" stroke-width="3" stroke-miterlimit="10"/>
<path d="M-82.5245 80.659L16.0763 17.7307L73.3589 150.808" stroke="#3349B5" stroke-width="3" stroke-miterlimit="10"/>
<path d="M180.055 -32.7635C175.256 -81.3308 179.113 -32.1437 178.669 -32.5021L54.8758 -47.433L93.0463 -6.71152L173.256 69.5468L283.422 2.1448L235.803 -59.4734L180.052 -32.7606L180.055 -32.7635Z" fill="white"/>
<path d="M280.438 2.39447L174.604 69.6408L75.2665 -23.3667" stroke="#3349B5" stroke-width="3" stroke-miterlimit="10"/>
<path d="M281.792 -7.24908L176.067 60.0237L76.6138 -32.9926" stroke="#3349B5" stroke-width="3" stroke-miterlimit="10"/>
<path d="M283.145 -16.8926L177.531 50.4067L77.9641 -42.6185" stroke="#3349B5" stroke-width="3" stroke-miterlimit="10"/>
<path d="M284.501 -26.539L178.997 40.7896L79.3113 -52.2444" stroke="#3349B5" stroke-width="3" stroke-miterlimit="10"/>
<path d="M285.854 -36.1826L180.461 31.1695L80.6617 -61.8704" stroke="#3349B5" stroke-width="3" stroke-miterlimit="10"/>
<path d="M287.208 -45.8262L181.924 21.5523L82.0089 -71.4963" stroke="#3349B5" stroke-width="3" stroke-miterlimit="10"/>
<path d="M288.564 -55.4727L183.388 11.9352L83.3561 -81.1223" stroke="#3349B5" stroke-width="3" stroke-miterlimit="10"/>
<path d="M289.917 -65.1162L184.854 2.3181L84.7062 -90.7482" stroke="#3349B5" stroke-width="3" stroke-miterlimit="10"/>
<path d="M198.068 -82.4206L280.14 11.6033L177.03 77.1224L267.556 94.1506L376.112 26.5929L266.149 -90.6571L198.068 -82.4206Z" fill="white"/>
<path d="M277.479 89.4096L376.068 26.4607L276.257 -79.4656" stroke="#F96B8A" stroke-width="3" stroke-miterlimit="10"/>
<path d="M265.481 87.5503L364.07 24.6014L264.256 -81.3249" stroke="#F96B8A" stroke-width="3" stroke-miterlimit="10"/>
<path d="M253.484 85.6908L352.073 22.742L252.259 -83.1843" stroke="#F96B8A" stroke-width="3" stroke-miterlimit="10"/>
<path d="M241.487 83.8315L340.076 20.8826L240.262 -85.0436" stroke="#F96B8A" stroke-width="3" stroke-miterlimit="10"/>
<path d="M229.487 81.9721L328.079 19.0232L228.265 -86.9031" stroke="#F96B8A" stroke-width="3" stroke-miterlimit="10"/>
<path d="M217.49 80.1128L316.078 17.1639L216.267 -88.7624" stroke="#F96B8A" stroke-width="3" stroke-miterlimit="10"/>
<path d="M205.492 78.2533L304.081 15.3044L204.267 -90.6219" stroke="#F96B8A" stroke-width="3" stroke-miterlimit="10"/>
<path d="M193.495 76.3939L292.084 13.445L192.27 -92.4813" stroke="#F96B8A" stroke-width="3" stroke-miterlimit="10"/>
<path d="M181.498 74.5346L280.087 11.5857L180.273 -94.3406" stroke="#F96B8A" stroke-width="3" stroke-miterlimit="10"/>
<path d="M439.985 -76.0052L392.139 101.641L521.203 129.253L574.855 -68.7293L439.985 -76.0052Z" fill="white"/>
<path d="M428.876 -29.6792L398.345 73.483" stroke="#F96B8A" stroke-width="3" stroke-miterlimit="10"/>
<path d="M437.616 -29.0417L407.082 74.1204" stroke="#F96B8A" stroke-width="3" stroke-miterlimit="10"/>
<path d="M446.352 -28.4044L415.818 74.7578" stroke="#F96B8A" stroke-width="3" stroke-miterlimit="10"/>
<path d="M455.088 -27.7669L424.557 75.3953" stroke="#F96B8A" stroke-width="3" stroke-miterlimit="10"/>
<path d="M463.825 -27.1295L433.294 76.0327" stroke="#F96B8A" stroke-width="3" stroke-miterlimit="10"/>
<path d="M472.561 -26.4921L442.03 76.67" stroke="#F96B8A" stroke-width="3" stroke-miterlimit="10"/>
<path d="M481.297 -25.8547L450.766 77.3075" stroke="#F96B8A" stroke-width="3" stroke-miterlimit="10"/>
<path d="M490.034 -25.2173L459.503 77.9449" stroke="#F96B8A" stroke-width="3" stroke-miterlimit="10"/>
<path d="M498.773 -24.5798L468.239 78.5823" stroke="#F96B8A" stroke-width="3" stroke-miterlimit="10"/>
<path d="M507.509 -23.9424L476.978 79.2168" stroke="#F96B8A" stroke-width="3" stroke-miterlimit="10"/>
<path d="M516.246 -23.3049L485.715 79.8543" stroke="#F96B8A" stroke-width="3" stroke-miterlimit="10"/>
<path d="M524.982 -22.6675L494.451 80.4917" stroke="#F96B8A" stroke-width="3" stroke-miterlimit="10"/>
<path d="M533.719 -22.03L503.188 81.1292" stroke="#F96B8A" stroke-width="3" stroke-miterlimit="10"/>
<path d="M542.455 -21.3958L511.924 81.7664" stroke="#F96B8A" stroke-width="3" stroke-miterlimit="10"/>
<path d="M551.194 -20.7582L520.66 82.404" stroke="#F96B8A" stroke-width="3" stroke-miterlimit="10"/>
<path d="M559.931 -20.1208L529.397 83.0414" stroke="#F96B8A" stroke-width="3" stroke-miterlimit="10"/>
</svg>
