<svg width="1336" height="60" viewBox="0 0 1336 60" fill="none" xmlns="http://www.w3.org/2000/svg">
<g clip-path="url(#clip0_301_182)">
<path d="M387.318 8.09826C380.3 12.2112 366.792 1.82592 362.769 -5.29835C358.746 -12.4226 361.169 -21.566 368.193 -25.7435C375.211 -29.8564 384.195 -27.4208 388.281 -20.2908C392.368 -13.1608 394.406 3.92653 387.318 8.09826Z" fill="#F4D272"/>
<path d="M924.715 -2L918 0.269196L920.25 7.04172L926.964 4.77252L924.715 -2Z" fill="#167BBF"/>
<path d="M534.053 3.90942L527.338 6.17789L529.587 12.9504L536.302 10.6819L534.053 3.90942Z" fill="#167BBF"/>
<path d="M315.605 54.3237L309.365 51L306 57.2939L310.067 59.4861H312.941L315.605 54.3237Z" fill="#167BBF"/>
<path d="M606.796 -5.78205L603.787 0.684082L610.198 3.71893L613.207 -2.7472L606.796 -5.78205Z" fill="#BAE0E7"/>
<path d="M748.008 -4L745 2.46609L751.411 5.50023L754.419 -0.965861L748.008 -4Z" fill="#BAE0E7"/>
<path d="M694 59.7281H701.853L703.045 57.0409L696.594 54L694 59.7281Z" fill="#74BF94"/>
<path d="M832.193 -3.99997L826 -0.535156L829.435 5.71096L835.628 2.24614L832.193 -3.99997Z" fill="#FDD455"/>
<path d="M1330.09 1.97098L1325.03 -2.99994L1320 2.05063L1325.06 7.02155L1330.09 1.97098Z" fill="#FDD455"/>
<path d="M1208.19 2.99999L1202 6.46481L1205.44 12.7109L1211.63 9.24611L1208.19 2.99999Z" fill="#F7C5D5"/>
<path d="M429.149 55.83L422.138 57.3151L422.98 61.4168H430.271L429.149 55.83Z" fill="#FDD455"/>
<path d="M1059.18 9L1055 14.7668L1060.72 18.9809L1064.9 13.2141L1059.18 9Z" fill="#79C8D2"/>
<path d="M1108.99 -2.97296L1105.98 3.49313L1112.39 6.52727L1115.4 0.0611777L1108.99 -2.97296Z" fill="#E75D11"/>
<path d="M99.6425 -2.99999L94 1.31622L98.2793 7.00737L103.922 2.69116L99.6425 -2.99999Z" fill="#F8C9D8"/>
<path d="M876.68 56.2543L871.001 60.5681L871.562 61.4167H880.536L876.68 56.2543Z" fill="#D75C44"/>
<path d="M1280 8.2177L1280.26 15.348L1287.35 15.1304L1287.09 8.00006L1280 8.2177Z" fill="#167BBF"/>
<path d="M199.064 -1.33603L192 -0.845734L192.486 6.27963L199.551 5.78933L199.064 -1.33603Z" fill="#167BBF"/>
<path d="M262.376 47.5274L262.517 54.6413L269.626 54.5608L269.484 47.4469L262.376 47.5274Z" fill="#BAE0E7"/>
<path d="M1033 60.7092L1039.77 62.9789L1042.04 56.2698L1035.27 54L1033 60.7092Z" fill="#F7C5D5"/>
<path d="M10.0128 -2.00001L4 1.77338L7.74111 7.83807L13.7539 4.06469L10.0128 -2.00001Z" fill="#FDD455"/>
<path d="M486.502 61.4168H493.724L494.495 57.1737L487.484 55.9008L486.502 61.4168Z" fill="#D75C44"/>
<path d="M23.6256 42.2733L17.3331 39.0001L14 45.3046L20.2925 48.5779L23.6256 42.2733Z" fill="#74BF94"/>
<path d="M287.06 3.99999L280 4.5484L280.544 11.6695L287.604 11.1211L287.06 3.99999Z" fill="#D75C44"/>
<path d="M220.969 61.864L225.826 56.7102L220.634 51.8056L215.778 56.9594L220.969 61.864Z" fill="#D75C44"/>
<path d="M681.801 2.80272L676.777 7.79263L681.803 12.8668L686.827 7.87686L681.801 2.80272Z" fill="#D75C44"/>
<path d="M471.06 -1.00001L464 -0.451599L464.544 6.66947L471.604 6.12107L471.06 -1.00001Z" fill="#7BC6B7"/>
<path d="M1294.28 42L1294 49.1368L1301.08 49.4149L1301.35 42.2781L1294.28 42Z" fill="#74BF94"/>
<path d="M100.143 47.1245L94.1222 50.9151L97.8579 56.9629L103.879 53.1723L100.143 47.1245Z" fill="#74BF94"/>
<path d="M1242.72 58.1441L1237.12 53.7313L1232.7 59.2771L1238.31 63.6899L1242.72 58.1441Z" fill="#E94A42"/>
<path d="M1182.86 56.0762L1182.06 49L1175 49.7401L1175.8 56.8163L1182.86 56.0762Z" fill="#79C8D2"/>
<path d="M971.015 49.0946C977.72 53.4096 974.854 69.6988 970.528 76.387C966.202 83.0753 957.334 85.017 950.63 80.702C943.925 76.387 941.978 67.5413 946.304 60.853C950.63 54.1648 964.364 44.7796 971.015 49.0946Z" fill="#F4D272"/>
<path d="M1006.51 8.1594C999.466 11.8914 986.668 1.41434 982.956 -5.63295C979.244 -12.6802 981.894 -21.3625 988.94 -25.0945C995.986 -28.8265 1004.65 -26.1909 1008.36 -19.1436C1012.08 -12.0963 1013.53 4.47454 1006.51 8.1594Z" fill="#F4D272"/>
<path d="M1117.89 49.4928C1122.9 44.984 1135.54 50.9382 1140.04 55.9507C1144.53 60.9631 1144.14 68.6249 1139.14 73.1336C1134.13 77.6423 1126.48 77.2651 1121.99 72.2526C1117.5 67.2402 1112.9 53.9574 1117.89 49.4928Z" fill="#F4D272"/>
<path d="M350.096 49.3673C357.843 46.8862 368.757 59.9707 371.127 67.8016C373.498 75.6325 369.137 84.0262 361.37 86.5689C353.623 89.05 345.388 84.7112 342.957 76.8609C340.526 69.0105 342.269 51.8906 350.096 49.3673Z" fill="#F4D272"/>
<path d="M192.072 47.9081C198.654 52.6871 194.559 69.2264 189.647 75.7694C184.735 82.3124 175.387 83.7608 168.743 79.0024C162.161 74.2233 160.788 65.0168 165.68 58.4134C170.572 51.81 185.407 43.0892 192.072 47.9081Z" fill="#F4D272"/>
</g>
<defs>
<clipPath id="clip0_301_182">
<rect width="1336" height="60" fill="white"/>
</clipPath>
</defs>
</svg>
