<svg width="73" height="34" viewBox="0 0 73 34" fill="none" xmlns="http://www.w3.org/2000/svg">
<path d="M11.4411 21.8822C17.2076 21.8822 21.8822 17.2076 21.8822 11.4411C21.8822 5.67465 17.2076 1 11.4411 1C5.67465 1 1 5.67465 1 11.4411C1 17.2076 5.67465 21.8822 11.4411 21.8822Z" stroke="#0078D0" stroke-width="2"/>
<path d="M36.2454 21.8822C42.0119 21.8822 46.6866 17.2076 46.6866 11.4411C46.6866 5.67465 42.0119 1 36.2454 1C30.479 1 25.8043 5.67465 25.8043 11.4411C25.8043 17.2076 30.479 21.8822 36.2454 21.8822Z" stroke="black" stroke-width="2"/>
<path d="M61.0497 21.8822C66.8162 21.8822 71.4908 17.2076 71.4908 11.4411C71.4908 5.67465 66.8162 1 61.0497 1C55.2832 1 50.6086 5.67465 50.6086 11.4411C50.6086 17.2076 55.2832 21.8822 61.0497 21.8822Z" stroke="#F0282D" stroke-width="2"/>
<path d="M23.8433 32.4823C29.6098 32.4823 34.2844 27.8077 34.2844 22.0412C34.2844 16.2747 29.6098 11.6001 23.8433 11.6001C18.0768 11.6001 13.4022 16.2747 13.4022 22.0412C13.4022 27.8077 18.0768 32.4823 23.8433 32.4823Z" stroke="#FFB114" stroke-width="2"/>
<path d="M48.6476 32.4823C54.4141 32.4823 59.0887 27.8077 59.0887 22.0412C59.0887 16.2747 54.4141 11.6001 48.6476 11.6001C42.8811 11.6001 38.2065 16.2747 38.2065 22.0412C38.2065 27.8077 42.8811 32.4823 48.6476 32.4823Z" stroke="#00A651" stroke-width="2"/>
<path d="M19.794 5.17645C21.1495 6.98377 21.8822 9.18198 21.8822 11.4411C21.8822 13.7003 21.1495 15.8985 19.794 17.7058" stroke="#0078D0" stroke-width="2"/>
<path d="M44.5983 5.17645C45.9538 6.98377 46.6866 9.18198 46.6866 11.4411C46.6866 13.7003 45.9538 15.8985 44.5983 17.7058M36.2454 21.8823C33.9863 21.8823 31.7881 21.1495 29.9808 19.794" stroke="black" stroke-width="2"/>
<path d="M61.0497 21.8822C58.7906 21.8822 56.5924 21.1495 54.785 19.794" stroke="#F0282D" stroke-width="2"/>
</svg>
