<svg width="276" height="78" viewBox="0 0 276 78" fill="none" xmlns="http://www.w3.org/2000/svg">
<rect x="96" y="37" width="5" height="5" fill="white"/>
<rect y="35" width="5" height="5" fill="white"/>
<rect x="271" y="43" width="5" height="5" fill="white"/>
<rect x="71" y="51" width="5" height="5" fill="#E91E29"/>
<rect x="253" y="31" width="5" height="5" fill="#E91E29"/>
<path d="M178 61.4648H182.959V66.9766H178V61.4648Z" fill="white"/>
<path d="M182.959 44.9297H188.025V50.4414H182.959V44.9297Z" fill="white"/>
<path d="M182.959 55.9531H188.025V61.4649H182.959V55.9531Z" fill="white"/>
<path d="M188.026 28.5117H193.092V34.0234H188.026V28.5117Z" fill="white"/>
<path d="M188.026 39.418H193.092V44.9297H188.026V39.418Z" fill="white"/>
<path d="M188.026 50.4412H193.092V55.9529H188.026V50.4412Z" fill="white"/>
<path d="M188.026 61.4648H193.092V66.9766H188.026V61.4648Z" fill="white"/>
<path d="M188.026 72.4883H193.092V78H188.026V72.4883Z" fill="white"/>
<path d="M193.091 23H198.157V28.5117H193.091V23Z" fill="white"/>
<path d="M193.091 28.5117H198.157V34.0234H193.091V28.5117Z" fill="white"/>
<path d="M193.091 34.0232H198.157V39.4177H193.091V34.0232Z" fill="white"/>
<path d="M193.091 39.418H198.157V44.9297H193.091V39.418Z" fill="white"/>
<path d="M193.091 44.9297H198.157V50.4414H193.091V44.9297Z" fill="white"/>
<path d="M193.091 50.4412H198.157V55.9529H193.091V50.4412Z" fill="white"/>
<path d="M193.091 55.9531H198.157V61.4649H193.091V55.9531Z" fill="white"/>
<path d="M193.091 61.4648H198.157V66.9766H193.091V61.4648Z" fill="white"/>
<path d="M193.091 66.9766H198.157V72.4883H193.091V66.9766Z" fill="white"/>
<path d="M193.091 72.4883H198.157V78H193.091V72.4883Z" fill="white"/>
<path d="M198.158 28.5117H203.224V34.0234H198.158V28.5117Z" fill="white"/>
<path d="M198.158 39.418H203.224V44.9297H198.158V39.418Z" fill="white"/>
<path d="M198.158 50.4412H203.224V55.9529H198.158V50.4412Z" fill="white"/>
<path d="M198.158 61.4648H203.224V66.9766H198.158V61.4648Z" fill="white"/>
<path d="M198.158 72.4883H203.224V78H198.158V72.4883Z" fill="white"/>
<path d="M203.224 44.9297H208.29V50.4414H203.224V44.9297Z" fill="white"/>
<path d="M203.224 55.9531H208.29V61.4649H203.224V55.9531Z" fill="white"/>
<path d="M208.291 61.4648H213.357V66.9766H208.291V61.4648Z" fill="white"/>
</svg>
