<svg width="329" height="86" viewBox="0 0 329 86" fill="none" xmlns="http://www.w3.org/2000/svg">
<path d="M0 16.1584H5.30183V21.5831H0V16.1584Z" fill="#E91E29"/>
<path d="M5.3017 10.7339H10.6035V16.1585H5.3017V10.7339Z" fill="#E91E29"/>
<path d="M5.3017 21.5833H10.6035V27.0079H5.3017V21.5833Z" fill="#E91E29"/>
<path d="M10.6033 5.4248H15.9052V10.734H10.6033V5.4248Z" fill="#E91E29"/>
<path d="M10.6033 27.0078H15.9052V32.4325H10.6033V27.0078Z" fill="#E91E29"/>
<path d="M15.9056 0H21.2075V5.42465H15.9056V0Z" fill="#E91E29"/>
<path d="M15.9056 16.1584H21.2075V21.5831H15.9056V16.1584Z" fill="#E91E29"/>
<path d="M15.9056 32.4324H21.2075V37.857H15.9056V32.4324Z" fill="#E91E29"/>
<path d="M21.2073 5.4248H26.3963V10.734H21.2073V5.4248Z" fill="#E91E29"/>
<path d="M21.2073 27.0078H26.3963V32.4325H21.2073V27.0078Z" fill="#E91E29"/>
<path d="M26.3967 10.7339H31.6985V16.1585H26.3967V10.7339Z" fill="#E91E29"/>
<path d="M26.3967 21.5833H31.6985V27.0079H26.3967V21.5833Z" fill="#E91E29"/>
<path d="M31.6983 16.1584H37.0001V21.5831H31.6983V16.1584Z" fill="#E91E29"/>
<rect x="175" y="28" width="5" height="5" fill="white"/>
<rect x="303" y="50" width="5" height="5" fill="white"/>
<rect x="324" y="35" width="5" height="5" fill="white"/>
<rect x="264" y="35" width="5" height="5" fill="white"/>
<rect x="199" y="47" width="5" height="5" fill="#E91E29"/>
<path d="M76 44.2976H81.164V49.5953H76V44.2976Z" fill="white"/>
<path d="M81.1641 39H86.3281V44.2977H81.1641V39Z" fill="white"/>
<path d="M81.1641 49.5952H86.3281V54.8929H81.1641V49.5952Z" fill="white"/>
<path d="M86.3282 44.2976H91.4923V49.5953H86.3282V44.2976Z" fill="white"/>
<path d="M86.3282 54.8933H91.4923V60.191H86.3282V54.8933Z" fill="white"/>
<path d="M91.4924 49.5952H96.5466V54.8929H91.4924V49.5952Z" fill="white"/>
<path d="M91.4924 60.1907H96.5466V65.4884H91.4924V60.1907Z" fill="white"/>
<path d="M96.5466 44.2976H101.711V49.5953H96.5466V44.2976Z" fill="white"/>
<path d="M96.5466 54.8933H101.711V60.191H96.5466V54.8933Z" fill="white"/>
<path d="M101.71 39H106.874V44.2977H101.71V39Z" fill="white"/>
<path d="M101.71 49.5952H106.874V54.8929H101.71V49.5952Z" fill="white"/>
<path d="M106.874 44.2976H112.038V49.5953H106.874V44.2976Z" fill="white"/>
</svg>
