<svg width="898" height="56" viewBox="0 0 898 56" fill="none" xmlns="http://www.w3.org/2000/svg">
<path fill-rule="evenodd" clip-rule="evenodd" d="M823.218 34.8617C823.218 34.6767 823.341 34.5534 823.526 34.5225C823.711 34.5225 823.835 34.6458 823.865 34.8308C823.865 35.0158 823.742 35.1391 823.557 35.17C823.372 35.17 823.218 35.0158 823.218 34.8617Z" fill="#99DAFF"/>
<path fill-rule="evenodd" clip-rule="evenodd" d="M633.28 20.1556C633.28 19.9089 633.465 19.7239 633.681 19.6931C633.928 19.6931 634.113 19.8781 634.144 20.0939C634.144 20.3406 633.959 20.5255 633.743 20.5564C633.496 20.5564 633.28 20.3714 633.28 20.1556Z" fill="white"/>
<path fill-rule="evenodd" clip-rule="evenodd" d="M769.805 49.4443C769.774 48.7044 770.36 48.0569 771.1 48.0261C771.84 47.9953 772.488 48.5502 772.518 49.321C772.549 50.0609 771.963 50.7083 771.223 50.7392C770.483 50.77 769.866 50.215 769.805 49.4443Z" fill="#99DAFF"/>
<path fill-rule="evenodd" clip-rule="evenodd" d="M621.839 7.36107C621.808 6.55947 622.425 5.91201 623.196 5.85035C623.998 5.81952 624.645 6.43614 624.707 7.20691C624.738 8.00852 624.121 8.65597 623.35 8.71763C622.548 8.74846 621.901 8.13184 621.839 7.36107Z" fill="#99DAFF"/>
<path fill-rule="evenodd" clip-rule="evenodd" d="M266.173 16.456C266.142 15.6236 266.789 14.9145 267.622 14.8837C268.455 14.8529 269.164 15.5003 269.195 16.3327C269.226 17.1651 268.578 17.8742 267.745 17.905C266.944 17.9359 266.234 17.3193 266.173 16.456Z" fill="#99DAFF"/>
<path fill-rule="evenodd" clip-rule="evenodd" d="M188.242 40.226C188.242 40.0102 188.397 39.8253 188.612 39.7944C188.828 39.7944 189.013 39.9486 189.044 40.1644C189.044 40.3802 188.89 40.5652 188.674 40.596C188.427 40.596 188.242 40.4419 188.242 40.226Z" fill="#99DAFF"/>
<path fill-rule="evenodd" clip-rule="evenodd" d="M341.142 22.7145C341.142 22.4987 341.297 22.3137 341.512 22.3137C341.728 22.3137 341.913 22.4679 341.913 22.6837C341.913 22.8995 341.759 23.0845 341.543 23.0845C341.327 23.0845 341.142 22.9303 341.142 22.7145Z" fill="#99DAFF"/>
<path fill-rule="evenodd" clip-rule="evenodd" d="M521.951 52.7123C521.92 51.9108 522.537 51.2325 523.339 51.1708C524.141 51.14 524.819 51.7566 524.881 52.5582C524.912 53.3598 524.295 54.0381 523.493 54.0997C522.661 54.1614 521.982 53.5448 521.951 52.7123Z" fill="white"/>
<path fill-rule="evenodd" clip-rule="evenodd" d="M391.502 15.6544C391.502 15.4386 391.657 15.2536 391.872 15.2536C392.088 15.2536 392.273 15.4078 392.273 15.6236C392.273 15.8394 392.119 16.0244 391.903 16.0244C391.687 16.0552 391.502 15.8702 391.502 15.6544Z" fill="#99DAFF"/>
<path fill-rule="evenodd" clip-rule="evenodd" d="M661.683 44.3881C661.683 44.1106 661.868 43.8948 662.146 43.864C662.423 43.864 662.639 44.049 662.639 44.3265C662.639 44.604 662.454 44.8198 662.176 44.8506C661.93 44.8814 661.683 44.6656 661.683 44.3881Z" fill="#99DAFF"/>
<path fill-rule="evenodd" clip-rule="evenodd" d="M632.509 10.5982C632.478 10.2282 632.787 9.88909 633.157 9.88909C633.527 9.85826 633.866 10.1665 633.866 10.5365C633.897 10.9065 633.589 11.2456 633.219 11.2456C632.848 11.2764 632.54 10.9681 632.509 10.5982Z" fill="#99DAFF"/>
<path fill-rule="evenodd" clip-rule="evenodd" d="M604.631 7.5769C604.6 6.89863 605.124 6.34368 605.772 6.31285C606.45 6.28202 607.005 6.80614 607.036 7.45357C607.067 8.13184 606.543 8.68679 605.895 8.71762C605.247 8.77928 604.662 8.25516 604.631 7.5769Z" fill="white"/>
<path fill-rule="evenodd" clip-rule="evenodd" d="M247.978 35.0774C247.947 34.2758 248.564 33.6284 249.335 33.5667C250.136 33.5359 250.784 34.1525 250.846 34.9233C250.877 35.7248 250.26 36.3723 249.489 36.4339C248.687 36.4647 248.039 35.8482 247.978 35.0774Z" fill="white"/>
<path fill-rule="evenodd" clip-rule="evenodd" d="M628.253 32.4569C628.253 32.2719 628.408 32.0869 628.593 32.0869C628.778 32.0869 628.963 32.2411 628.963 32.426C628.963 32.611 628.809 32.796 628.624 32.796C628.438 32.8268 628.284 32.6727 628.253 32.4569Z" fill="white"/>
<path fill-rule="evenodd" clip-rule="evenodd" d="M426.104 6.62113C426.042 5.38793 426.998 4.33971 428.232 4.30888C429.465 4.24722 430.483 5.20296 430.544 6.43616C430.606 7.66936 429.65 8.71758 428.417 8.74841C427.214 8.77924 426.165 7.8235 426.104 6.62113Z" fill="#99DAFF"/>
<path fill-rule="evenodd" clip-rule="evenodd" d="M395.326 27.4007C395.326 27.2157 395.45 27.0616 395.635 27.0616C395.82 27.0616 395.974 27.1849 395.974 27.3699C395.974 27.5548 395.851 27.709 395.666 27.709C395.481 27.7398 395.326 27.5857 395.326 27.4007Z" fill="white"/>
<path fill-rule="evenodd" clip-rule="evenodd" d="M154.906 15.2536C154.875 14.637 155.337 14.1129 155.954 14.0821C156.571 14.0512 157.095 14.5137 157.126 15.1303C157.157 15.7469 156.694 16.271 156.077 16.3018C155.43 16.3326 154.936 15.8702 154.906 15.2536Z" fill="#99DAFF"/>
<path fill-rule="evenodd" clip-rule="evenodd" d="M145.13 41.336C145.13 41.151 145.253 40.9968 145.469 40.966C145.654 40.966 145.808 41.0893 145.839 41.3051C145.839 41.4901 145.685 41.6443 145.5 41.6751C145.284 41.6751 145.13 41.5209 145.13 41.336Z" fill="white"/>
<path fill-rule="evenodd" clip-rule="evenodd" d="M419.844 36.3415C419.813 35.4166 420.491 34.6458 421.416 34.615C422.342 34.5842 423.112 35.2932 423.143 36.1873C423.174 37.1122 422.465 37.883 421.571 37.9138C420.645 37.9447 419.874 37.2664 419.844 36.3415Z" fill="#99DAFF"/>
<path fill-rule="evenodd" clip-rule="evenodd" d="M424.469 11.0915C424.469 10.8757 424.623 10.7216 424.808 10.7216C425.024 10.7216 425.178 10.8757 425.178 11.0607C425.178 11.2765 425.024 11.4307 424.839 11.4307C424.654 11.4307 424.469 11.2765 424.469 11.0915Z" fill="#99DAFF"/>
<path fill-rule="evenodd" clip-rule="evenodd" d="M432.087 45.0356C432.056 44.234 432.672 43.5558 433.474 43.5249C434.276 43.4941 434.955 44.1107 434.985 44.9123C435.016 45.7139 434.399 46.3921 433.598 46.4538C432.827 46.4538 432.148 45.8372 432.087 45.0356Z" fill="#99DAFF"/>
<path fill-rule="evenodd" clip-rule="evenodd" d="M521.89 34.5842C521.859 34.2142 522.137 33.9367 522.507 33.9059C522.877 33.8751 523.154 34.1525 523.185 34.5225C523.216 34.8616 522.938 35.1699 522.568 35.2007C522.198 35.2007 521.921 34.9233 521.89 34.5842Z" fill="#99DAFF"/>
<path fill-rule="evenodd" clip-rule="evenodd" d="M479.64 2.33572C479.609 1.96576 479.887 1.65747 480.257 1.65747C480.627 1.62664 480.936 1.93493 480.936 2.27405C480.966 2.64401 480.689 2.95231 480.319 2.95231C479.949 2.95231 479.671 2.67484 479.64 2.33572Z" fill="white"/>
<path fill-rule="evenodd" clip-rule="evenodd" d="M288.593 23.8244C288.593 23.5161 288.808 23.2386 289.148 23.2386C289.456 23.2386 289.734 23.4545 289.734 23.7936C289.734 24.1019 289.487 24.3794 289.178 24.3794C288.87 24.3794 288.623 24.1327 288.593 23.8244Z" fill="#99DAFF"/>
<path fill-rule="evenodd" clip-rule="evenodd" d="M646.294 26.9691C646.263 26.075 646.942 25.3351 647.836 25.3043C648.731 25.2734 649.471 25.9517 649.502 26.8458C649.532 27.7399 648.854 28.4798 647.96 28.5106C647.096 28.5415 646.356 27.8632 646.294 26.9691Z" fill="#99DAFF"/>
<path fill-rule="evenodd" clip-rule="evenodd" d="M384.594 42.0759C384.564 41.4901 385.026 40.9968 385.581 40.9968C386.167 40.966 386.661 41.4284 386.661 41.9834C386.691 42.5692 386.229 43.0316 385.674 43.0625C385.088 43.0933 384.594 42.6308 384.594 42.0759Z" fill="#99DAFF"/>
<path fill-rule="evenodd" clip-rule="evenodd" d="M607.437 16.2402C607.406 15.3153 608.115 14.5137 609.041 14.452C609.966 14.4212 610.768 15.1303 610.799 16.0552C610.829 16.9801 610.12 17.7817 609.195 17.8125C608.27 17.905 607.468 17.1651 607.437 16.2402Z" fill="#99DAFF"/>
<path fill-rule="evenodd" clip-rule="evenodd" d="M129.062 20.2173C129.032 19.4465 129.618 18.7991 130.389 18.7683C131.16 18.7374 131.807 19.3232 131.838 20.094C131.869 20.8647 131.283 21.5122 130.512 21.543C129.741 21.5738 129.093 20.9881 129.062 20.2173Z" fill="#99DAFF"/>
<path fill-rule="evenodd" clip-rule="evenodd" d="M484.852 10.0125C484.852 9.82748 485.006 9.64252 485.191 9.64252C485.376 9.64252 485.561 9.79666 485.561 9.98164C485.561 10.1666 485.407 10.3516 485.222 10.3516C485.037 10.3516 484.852 10.1974 484.852 10.0125Z" fill="#99DAFF"/>
<path fill-rule="evenodd" clip-rule="evenodd" d="M539.19 39.0546C539.19 38.7771 539.375 38.5613 539.653 38.5613C539.93 38.5613 540.146 38.7463 540.177 39.0237C540.177 39.3012 539.992 39.517 539.715 39.517C539.406 39.517 539.19 39.332 539.19 39.0546Z" fill="#99DAFF"/>
<path fill-rule="evenodd" clip-rule="evenodd" d="M423.205 47.3787C423.174 46.4538 423.883 45.6522 424.839 45.5905C425.795 45.5597 426.566 46.2688 426.628 47.2245C426.659 48.1802 425.95 48.951 424.993 49.0126C424.068 49.0434 423.267 48.3035 423.205 47.3787Z" fill="#99DAFF"/>
<path fill-rule="evenodd" clip-rule="evenodd" d="M447.66 0.82501C447.629 0.331727 448.03 -0.0998877 448.524 -0.130718C449.017 -0.161548 449.449 0.23924 449.48 0.732523C449.51 1.22581 449.11 1.65742 448.616 1.68825C448.092 1.71908 447.66 1.31829 447.66 0.82501Z" fill="#99DAFF"/>
<path fill-rule="evenodd" clip-rule="evenodd" d="M359.707 8.71757C359.677 8.07014 360.17 7.54602 360.818 7.51519C361.465 7.48436 361.989 7.97764 362.02 8.62507C362.051 9.2725 361.558 9.79662 360.941 9.82745C360.263 9.82745 359.738 9.33418 359.707 8.71757Z" fill="#99DAFF"/>
<path fill-rule="evenodd" clip-rule="evenodd" d="M443.312 57.491C443.25 56.5044 444.021 55.6412 445.039 55.6104C446.026 55.5487 446.889 56.3194 446.92 57.3368C446.951 58.3234 446.18 59.1866 445.193 59.2174C444.206 59.2791 443.343 58.5084 443.312 57.491Z" fill="white"/>
<path fill-rule="evenodd" clip-rule="evenodd" d="M644.413 5.2337C644.382 4.6171 644.876 4.09299 645.493 4.06216C646.109 4.03133 646.633 4.52461 646.664 5.14121C646.695 5.75781 646.202 6.28192 645.585 6.31275C644.968 6.31275 644.444 5.8503 644.413 5.2337Z" fill="#99DAFF"/>
<path fill-rule="evenodd" clip-rule="evenodd" d="M459.903 -0.531463C459.872 -1.4872 460.613 -2.28879 461.569 -2.35045C462.525 -2.38128 463.326 -1.64135 463.388 -0.685614C463.419 0.270122 462.679 1.07169 461.723 1.13335C460.767 1.16419 459.934 0.424272 459.903 -0.531463Z" fill="white"/>
<path fill-rule="evenodd" clip-rule="evenodd" d="M512.576 16.7951C512.576 16.5176 512.761 16.271 513.039 16.271C513.317 16.271 513.563 16.456 513.563 16.7334C513.563 17.0109 513.347 17.2575 513.101 17.2575C512.823 17.2884 512.576 17.0726 512.576 16.7951Z" fill="#99DAFF"/>
<path fill-rule="evenodd" clip-rule="evenodd" d="M468.322 43.4324C468.261 42.3226 469.124 41.3976 470.204 41.3668C471.314 41.3052 472.239 42.1684 472.27 43.2475C472.331 44.3574 471.468 45.2822 470.389 45.3131C469.309 45.3747 468.384 44.5423 468.322 43.4324Z" fill="#99DAFF"/>
<path fill-rule="evenodd" clip-rule="evenodd" d="M595.595 18.8916C595.564 18.275 596.058 17.7508 596.675 17.72C597.291 17.6892 597.816 18.1824 597.846 18.799C597.877 19.4156 597.384 19.9398 596.767 19.9706C596.15 19.9706 595.626 19.5082 595.595 18.8916Z" fill="#99DAFF"/>
<path fill-rule="evenodd" clip-rule="evenodd" d="M362.791 23.1153C362.761 22.7762 363.038 22.4679 363.377 22.4679C363.717 22.437 364.025 22.7145 364.025 23.0536C364.056 23.3928 363.778 23.7011 363.439 23.7011C363.1 23.7319 362.822 23.4544 362.791 23.1153Z" fill="white"/>
<path fill-rule="evenodd" clip-rule="evenodd" d="M754.724 40.4419C754.724 40.1644 754.909 39.9486 755.187 39.9486C755.464 39.9486 755.68 40.1336 755.68 40.4111C755.68 40.6885 755.495 40.9043 755.218 40.9043C754.971 40.9043 754.755 40.6885 754.724 40.4419Z" fill="#99DAFF"/>
<path fill-rule="evenodd" clip-rule="evenodd" d="M267.9 22.437C267.9 22.2521 268.023 22.1287 268.208 22.0979C268.393 22.0979 268.516 22.2212 268.547 22.4062C268.547 22.5912 268.424 22.7145 268.239 22.7453C268.054 22.7453 267.9 22.5912 267.9 22.437Z" fill="white"/>
<path fill-rule="evenodd" clip-rule="evenodd" d="M321.097 2.52072C321.066 1.81162 321.621 1.19502 322.33 1.16419C323.04 1.13336 323.657 1.68831 323.687 2.39741C323.718 3.10651 323.163 3.7231 322.454 3.75393C321.714 3.78476 321.128 3.22982 321.097 2.52072Z" fill="#99DAFF"/>
<path fill-rule="evenodd" clip-rule="evenodd" d="M351.381 12.7255C351.35 12.2939 351.689 11.9239 352.152 11.8931C352.584 11.8623 352.954 12.2014 352.984 12.6638C353.015 13.0955 352.676 13.4654 352.213 13.4962C351.782 13.4962 351.381 13.1571 351.381 12.7255Z" fill="#99DAFF"/>
<path fill-rule="evenodd" clip-rule="evenodd" d="M583.814 32.611C583.814 32.3336 584 32.1177 584.277 32.1177C584.555 32.1177 584.771 32.3027 584.771 32.5802C584.771 32.8577 584.586 33.0735 584.308 33.0735C584.061 33.0735 583.845 32.8885 583.814 32.611Z" fill="#99DAFF"/>
<path fill-rule="evenodd" clip-rule="evenodd" d="M490.095 22.252C490.095 22.067 490.218 21.9129 490.403 21.9129C490.588 21.9129 490.742 22.0362 490.742 22.2212C490.742 22.4062 490.619 22.5603 490.434 22.5603C490.249 22.5603 490.095 22.437 490.095 22.252Z" fill="white"/>
<path fill-rule="evenodd" clip-rule="evenodd" d="M472.054 10.6907C472.023 10.3516 472.301 10.0433 472.64 10.0433C472.979 10.0124 473.287 10.2899 473.287 10.629C473.318 10.9682 473.041 11.2765 472.701 11.2765C472.362 11.3073 472.054 11.0298 472.054 10.6907Z" fill="#99DAFF"/>
<path fill-rule="evenodd" clip-rule="evenodd" d="M383.793 52.959C383.762 52.0957 384.44 51.3558 385.304 51.2941C386.167 51.2633 386.907 51.9415 386.969 52.8048C387 53.6681 386.321 54.408 385.458 54.4696C384.563 54.5005 383.823 53.8222 383.793 52.959Z" fill="#99DAFF"/>
<path fill-rule="evenodd" clip-rule="evenodd" d="M667.542 54.5621C667.512 53.6064 668.252 52.7739 669.208 52.7123C670.164 52.6814 670.996 53.4214 671.058 54.3771C671.089 55.3329 670.349 56.1653 669.393 56.227C668.406 56.2886 667.573 55.5487 667.542 54.5621Z" fill="#99DAFF"/>
<path fill-rule="evenodd" clip-rule="evenodd" d="M235.364 42.3842C235.303 41.151 236.259 40.1336 237.492 40.0719C238.726 40.0103 239.744 40.966 239.805 42.1992C239.867 43.4324 238.911 44.4498 237.677 44.5115C236.475 44.5423 235.426 43.6174 235.364 42.3842Z" fill="white"/>
<path fill-rule="evenodd" clip-rule="evenodd" d="M739.921 34.0909C739.86 32.9193 740.785 31.9019 741.957 31.8403C743.129 31.7786 744.146 32.7035 744.208 33.875C744.27 35.0466 743.345 36.064 742.173 36.1256C741.001 36.1873 739.983 35.2624 739.921 34.0909Z" fill="#99DAFF"/>
<path fill-rule="evenodd" clip-rule="evenodd" d="M54.9256 48.7352C54.8947 47.872 55.5732 47.1012 56.4367 47.0704C57.3002 47.0395 58.0711 47.7178 58.102 48.5811C58.1328 49.4443 57.4544 50.2151 56.5909 50.2459C55.6965 50.3076 54.9564 49.6293 54.9256 48.7352Z" fill="#99DAFF"/>
<path fill-rule="evenodd" clip-rule="evenodd" d="M468.847 18.4291C468.847 18.1516 469.032 17.9358 469.309 17.905C469.587 17.905 469.803 18.09 469.834 18.3674C469.834 18.6449 469.618 18.8607 469.371 18.8916C469.093 18.9224 468.878 18.7066 468.847 18.4291Z" fill="#99DAFF"/>
<path fill-rule="evenodd" clip-rule="evenodd" d="M290.35 37.0505C290.35 36.7731 290.566 36.5264 290.844 36.5264C291.121 36.5264 291.368 36.7423 291.368 37.0197C291.368 37.2972 291.152 37.5438 290.875 37.5438C290.597 37.5438 290.35 37.328 290.35 37.0505Z" fill="#99DAFF"/>
<path fill-rule="evenodd" clip-rule="evenodd" d="M703.963 36.9581C703.963 36.7114 704.148 36.4956 704.395 36.4956C704.642 36.4956 704.858 36.6806 704.858 36.9272C704.858 37.1739 704.673 37.3897 704.426 37.3897C704.179 37.3897 703.963 37.2047 703.963 36.9581Z" fill="#99DAFF"/>
<path fill-rule="evenodd" clip-rule="evenodd" d="M377.625 46.9163C377.594 46.2996 378.087 45.7447 378.704 45.7138C379.321 45.683 379.876 46.1763 379.907 46.7929C379.938 47.4096 379.444 47.9645 378.828 47.9954C378.211 48.057 377.656 47.5637 377.625 46.9163Z" fill="#99DAFF"/>
<path fill-rule="evenodd" clip-rule="evenodd" d="M343.856 13.0955C343.856 12.818 344.041 12.6022 344.319 12.6022C344.596 12.6022 344.812 12.7872 344.812 13.0646C344.812 13.3421 344.627 13.5579 344.35 13.5579C344.103 13.5887 343.856 13.3729 343.856 13.0955Z" fill="#99DAFF"/>
<path fill-rule="evenodd" clip-rule="evenodd" d="M267.468 55.9186C267.468 55.7028 267.622 55.5179 267.838 55.5179C268.054 55.5179 268.239 55.672 268.239 55.8878C268.239 56.1036 268.085 56.2886 267.869 56.2886C267.684 56.3194 267.468 56.1344 267.468 55.9186Z" fill="#99DAFF"/>
<path fill-rule="evenodd" clip-rule="evenodd" d="M608.856 29.0347C608.794 27.894 609.688 26.9074 610.86 26.8458C612.001 26.7841 612.988 27.6782 613.05 28.8497C613.112 29.9904 612.217 30.977 611.045 31.0387C609.873 31.1003 608.917 30.2062 608.856 29.0347Z" fill="#99DAFF"/>
<path fill-rule="evenodd" clip-rule="evenodd" d="M636.827 38.0988C636.796 37.6363 637.166 37.2356 637.628 37.2356C638.091 37.2047 638.492 37.5747 638.492 38.0371C638.523 38.4996 638.153 38.9004 637.69 38.9004C637.227 38.9312 636.827 38.5613 636.827 38.0988Z" fill="#99DAFF"/>
<path fill-rule="evenodd" clip-rule="evenodd" d="M409.821 48.3345C409.79 47.5637 410.376 46.9163 411.147 46.8854C411.918 46.8546 412.565 47.4404 412.596 48.2111C412.627 48.9819 412.041 49.6294 411.27 49.6602C410.499 49.7218 409.852 49.1361 409.821 48.3345Z" fill="#99DAFF"/>
<path fill-rule="evenodd" clip-rule="evenodd" d="M592.696 10.0741C592.696 9.85831 592.85 9.67335 593.097 9.64252C593.313 9.64252 593.498 9.79666 593.529 10.0433C593.529 10.2591 593.375 10.4441 593.128 10.4749C592.881 10.4441 592.696 10.2899 592.696 10.0741Z" fill="#99DAFF"/>
<path fill-rule="evenodd" clip-rule="evenodd" d="M371.827 23.3311C371.796 22.5603 372.382 21.9129 373.153 21.8821C373.924 21.8513 374.572 22.437 374.603 23.2078C374.633 23.9785 374.048 24.6259 373.277 24.6568C372.536 24.6876 371.889 24.1018 371.827 23.3311Z" fill="#99DAFF"/>
<path fill-rule="evenodd" clip-rule="evenodd" d="M365.844 45.0047C365.814 44.234 366.43 43.5557 367.201 43.5249C367.972 43.4941 368.651 44.0799 368.682 44.8814C368.712 45.6522 368.126 46.3305 367.325 46.3613C366.554 46.3921 365.875 45.8063 365.844 45.0047Z" fill="white"/>
<path fill-rule="evenodd" clip-rule="evenodd" d="M196.662 47.6253C196.6 46.6079 197.402 45.7139 198.45 45.683C199.468 45.6214 200.362 46.423 200.393 47.4712C200.455 48.4886 199.653 49.3827 198.604 49.4135C197.587 49.4443 196.723 48.6736 196.662 47.6253Z" fill="#99DAFF"/>
<path fill-rule="evenodd" clip-rule="evenodd" d="M394.34 51.6949C394.34 51.4791 394.494 51.2633 394.741 51.2633C394.956 51.2633 395.172 51.4174 395.172 51.6641C395.172 51.8799 395.018 52.0957 394.771 52.0957C394.555 52.0957 394.37 51.9416 394.34 51.6949Z" fill="white"/>
<path fill-rule="evenodd" clip-rule="evenodd" d="M441.554 36.8964C441.523 35.9099 442.263 35.0774 443.25 35.0466C444.237 35.0158 445.07 35.7557 445.101 36.7423C445.131 37.7289 444.391 38.5613 443.404 38.5921C442.448 38.6538 441.616 37.883 441.554 36.8964Z" fill="#99DAFF"/>
<path fill-rule="evenodd" clip-rule="evenodd" d="M437.576 9.61162C437.545 8.90251 438.069 8.31673 438.779 8.2859C439.488 8.25507 440.074 8.7792 440.105 9.48831C440.136 10.1974 439.611 10.7832 438.902 10.814C438.224 10.8449 437.638 10.3207 437.576 9.61162Z" fill="white"/>
<path fill-rule="evenodd" clip-rule="evenodd" d="M102.818 11.1223C102.757 9.98162 103.651 9.02588 104.761 8.96422C105.902 8.90256 106.858 9.79664 106.92 10.9065C106.982 12.0472 106.087 13.003 104.977 13.0646C103.836 13.1263 102.88 12.2631 102.818 11.1223Z" fill="white"/>
<path fill-rule="evenodd" clip-rule="evenodd" d="M504.959 35.2316C504.959 34.985 505.144 34.7692 505.391 34.7692C505.637 34.7692 505.853 34.9541 505.853 35.2008C505.853 35.4474 505.668 35.6632 505.452 35.6632C505.175 35.6632 504.959 35.4783 504.959 35.2316Z" fill="#99DAFF"/>
<path fill-rule="evenodd" clip-rule="evenodd" d="M354.496 37.9138C354.465 37.0505 355.143 36.3106 356.007 36.249C356.87 36.2181 357.61 36.8964 357.672 37.7596C357.703 38.6229 357.024 39.3628 356.161 39.3936C355.267 39.4553 354.526 38.777 354.496 37.9138Z" fill="#99DAFF"/>
<path fill-rule="evenodd" clip-rule="evenodd" d="M457.59 8.00845C457.559 7.08355 458.269 6.31281 459.194 6.25115C460.119 6.22032 460.89 6.9294 460.952 7.8543C460.983 8.7792 460.273 9.54995 459.348 9.61161C458.392 9.64244 457.621 8.90252 457.59 8.00845Z" fill="#99DAFF"/>
<path fill-rule="evenodd" clip-rule="evenodd" d="M325.075 16.1785C325.044 15.6236 325.476 15.1611 326.031 15.1303C326.586 15.0994 327.049 15.5311 327.08 16.086C327.111 16.641 326.679 17.1034 326.124 17.1343C325.6 17.1651 325.106 16.7335 325.075 16.1785Z" fill="#99DAFF"/>
<path fill-rule="evenodd" clip-rule="evenodd" d="M254.701 25.9825C254.701 25.7975 254.824 25.6434 255.009 25.6434C255.194 25.6434 255.348 25.7667 255.348 25.9517C255.348 26.1366 255.225 26.2908 255.04 26.2908C254.886 26.3216 254.732 26.1675 254.701 25.9825Z" fill="#99DAFF"/>
<path fill-rule="evenodd" clip-rule="evenodd" d="M494.412 28.1098C494.412 27.9248 494.535 27.8015 494.72 27.7707C494.906 27.7707 495.029 27.894 495.06 28.079C495.06 28.264 494.936 28.3873 494.751 28.4181C494.566 28.4181 494.443 28.2948 494.412 28.1098Z" fill="#99DAFF"/>
<path fill-rule="evenodd" clip-rule="evenodd" d="M584.524 40.1028C584.524 39.887 584.678 39.7328 584.863 39.702C585.079 39.702 585.233 39.8561 585.264 40.0411C585.264 40.2569 585.11 40.4111 584.925 40.4419C584.709 40.4727 584.524 40.3186 584.524 40.1028Z" fill="#99DAFF"/>
<path fill-rule="evenodd" clip-rule="evenodd" d="M553.716 2.45905C553.716 2.27408 553.839 2.11993 554.024 2.11993C554.209 2.11993 554.332 2.24325 554.363 2.42823C554.363 2.61321 554.24 2.73652 554.055 2.76735C553.87 2.76735 553.716 2.64403 553.716 2.45905Z" fill="white"/>
<path fill-rule="evenodd" clip-rule="evenodd" d="M531.296 33.6284C531.265 33.0735 531.697 32.5802 532.252 32.5802C532.807 32.5493 533.3 32.981 533.3 33.5359C533.331 34.0909 532.899 34.5842 532.344 34.5842C531.789 34.6458 531.327 34.2142 531.296 33.6284Z" fill="white"/>
<path fill-rule="evenodd" clip-rule="evenodd" d="M528.674 52.774C528.674 52.4965 528.89 52.2807 529.137 52.2498C529.414 52.2498 529.63 52.4348 529.661 52.7123C529.661 52.9898 529.445 53.2056 529.199 53.2365C528.921 53.2673 528.674 53.0515 528.674 52.774Z" fill="#99DAFF"/>
<path fill-rule="evenodd" clip-rule="evenodd" d="M280.883 53.7297C280.852 52.7431 281.592 51.9107 282.579 51.8799C283.566 51.8182 284.398 52.589 284.429 53.5755C284.46 54.5621 283.72 55.3945 282.733 55.4253C281.777 55.4562 280.944 54.7163 280.883 53.7297Z" fill="white"/>
<path fill-rule="evenodd" clip-rule="evenodd" d="M369.514 0.516762C369.514 0.331777 369.638 0.17762 369.853 0.14679C370.038 0.14679 370.193 0.270124 370.223 0.485938C370.223 0.670923 370.1 0.82508 369.884 0.85591C369.699 0.85591 369.514 0.701746 369.514 0.516762Z" fill="#99DAFF"/>
<path fill-rule="evenodd" clip-rule="evenodd" d="M298.985 31.1003C298.955 30.5146 299.386 30.0521 299.972 30.0213C300.558 29.9905 301.021 30.4529 301.052 31.0079C301.082 31.5936 300.651 32.0561 300.065 32.0869C299.51 32.1177 299.016 31.6553 298.985 31.1003Z" fill="#99DAFF"/>
<path fill-rule="evenodd" clip-rule="evenodd" d="M652.185 41.3976C652.154 41.0277 652.431 40.7502 652.801 40.7194C653.171 40.6886 653.449 40.966 653.48 41.336C653.511 41.7059 653.233 41.9834 652.863 42.0142C652.493 42.0142 652.216 41.7368 652.185 41.3976Z" fill="#99DAFF"/>
<path fill-rule="evenodd" clip-rule="evenodd" d="M346.138 44.9739C346.138 44.7889 346.262 44.6348 346.477 44.6039C346.662 44.6039 346.817 44.7273 346.847 44.9431C346.847 45.1281 346.724 45.2822 346.508 45.313C346.292 45.313 346.138 45.1589 346.138 44.9739Z" fill="#99DAFF"/>
<path fill-rule="evenodd" clip-rule="evenodd" d="M452.656 34.9233C452.625 34.2759 453.119 33.7209 453.797 33.6901C454.445 33.6592 455 34.1834 455.031 34.8308C455.062 35.4782 454.568 36.0332 453.89 36.064C453.242 36.0948 452.687 35.5707 452.656 34.9233Z" fill="white"/>
<path fill-rule="evenodd" clip-rule="evenodd" d="M511.682 32.9193C511.651 32.241 512.175 31.6861 512.823 31.6553C513.501 31.6244 514.057 32.1485 514.087 32.796C514.118 33.4742 513.594 34.0292 512.946 34.06C512.299 34.0908 511.713 33.5976 511.682 32.9193Z" fill="#99DAFF"/>
<path fill-rule="evenodd" clip-rule="evenodd" d="M861.952 2.48991C861.952 2.21243 862.137 1.99662 862.414 1.96579C862.692 1.96579 862.908 2.15077 862.938 2.42824C862.938 2.70571 862.753 2.92153 862.476 2.95236C862.198 2.98319 861.952 2.76738 861.952 2.48991Z" fill="white"/>
<path fill-rule="evenodd" clip-rule="evenodd" d="M420.09 15.0994C420.059 14.7603 420.337 14.5137 420.645 14.4828C420.954 14.452 421.231 14.7295 421.262 15.0378C421.262 15.3461 421.015 15.6236 420.707 15.6544C420.368 15.6544 420.121 15.4077 420.09 15.0994Z" fill="#99DAFF"/>
<path fill-rule="evenodd" clip-rule="evenodd" d="M405.072 39.3012C405.072 39.0545 405.257 38.8387 405.503 38.8387C405.75 38.8387 405.966 39.0237 405.966 39.2704C405.966 39.517 405.781 39.7328 405.534 39.7328C405.318 39.7328 405.102 39.5478 405.072 39.3012Z" fill="#99DAFF"/>
<path fill-rule="evenodd" clip-rule="evenodd" d="M484.359 43.7099C484.359 43.4633 484.544 43.2474 484.79 43.2166C485.037 43.2166 485.253 43.4016 485.284 43.6482C485.284 43.8949 485.099 44.1107 484.852 44.1415C484.575 44.1723 484.359 43.9565 484.359 43.7099Z" fill="white"/>
<path fill-rule="evenodd" clip-rule="evenodd" d="M411.856 6.52868C411.825 6.03539 412.195 5.63461 412.689 5.63461C413.182 5.60378 413.583 5.97373 413.583 6.46702C413.614 6.96031 413.244 7.36111 412.75 7.39194C412.288 7.36111 411.887 6.99114 411.856 6.52868Z" fill="#99DAFF"/>
<path fill-rule="evenodd" clip-rule="evenodd" d="M583.814 46.3305C583.784 45.4364 584.462 44.6964 585.356 44.6348C586.251 44.6039 586.991 45.2822 587.053 46.1763C587.083 47.0704 586.405 47.8104 585.511 47.872C584.585 47.9029 583.845 47.2246 583.814 46.3305Z" fill="white"/>
<path fill-rule="evenodd" clip-rule="evenodd" d="M397.269 44.8506C397.238 43.9565 397.917 43.1858 398.842 43.1241C399.736 43.0933 400.507 43.7716 400.569 44.6965C400.6 45.5905 399.921 46.3613 398.996 46.4229C398.071 46.4538 397.3 45.7447 397.269 44.8506Z" fill="#99DAFF"/>
<path fill-rule="evenodd" clip-rule="evenodd" d="M427.522 27.4315C427.492 26.4758 428.201 25.6742 429.157 25.6434C430.113 25.6125 430.915 26.3216 430.946 27.2774C430.976 28.2331 430.267 29.0347 429.311 29.0656C428.386 29.0964 427.584 28.3873 427.522 27.4315Z" fill="white"/>
<path fill-rule="evenodd" clip-rule="evenodd" d="M495.337 16.1168C495.307 15.5311 495.769 15.0069 496.355 15.0069C496.941 14.9761 497.465 15.4386 497.465 16.0243C497.496 16.6101 497.034 17.1342 496.448 17.1342C495.862 17.1651 495.368 16.7026 495.337 16.1168Z" fill="#99DAFF"/>
<path fill-rule="evenodd" clip-rule="evenodd" d="M278.323 41.6443C278.323 41.4285 278.477 41.2743 278.662 41.2743C278.878 41.2743 279.032 41.4284 279.032 41.6134C279.032 41.8293 278.878 41.9834 278.693 41.9834C278.508 42.0142 278.354 41.8601 278.323 41.6443Z" fill="#99DAFF"/>
<path fill-rule="evenodd" clip-rule="evenodd" d="M466.935 56.2887C466.904 55.8571 467.243 55.4871 467.675 55.4871C468.106 55.4563 468.446 55.7954 468.477 56.227C468.507 56.6587 468.168 57.0286 467.736 57.0286C467.305 57.0286 466.935 56.6895 466.935 56.2887Z" fill="#99DAFF"/>
<path fill-rule="evenodd" clip-rule="evenodd" d="M309.81 41.3668C309.81 41.1818 309.933 41.0277 310.118 41.0277C310.303 41.0277 310.457 41.151 310.457 41.336C310.457 41.521 310.334 41.6751 310.149 41.6751C309.964 41.7059 309.81 41.5518 309.81 41.3668Z" fill="#99DAFF"/>
<path fill-rule="evenodd" clip-rule="evenodd" d="M353.478 51.9724C353.447 51.14 354.095 50.4308 354.897 50.4C355.729 50.3692 356.439 50.9858 356.469 51.8183C356.5 52.6507 355.883 53.3598 355.051 53.3906C354.218 53.4523 353.509 52.8049 353.478 51.9724Z" fill="white"/>
<path fill-rule="evenodd" clip-rule="evenodd" d="M685.213 35.7557C685.151 34.6458 686.015 33.7209 687.094 33.6901C688.204 33.6284 689.129 34.4916 689.16 35.5707C689.222 36.6806 688.359 37.6055 687.279 37.6363C686.169 37.698 685.244 36.8656 685.213 35.7557Z" fill="white"/>
<path fill-rule="evenodd" clip-rule="evenodd" d="M488.584 48.3037C488.553 47.5021 489.17 46.793 490.002 46.7622C490.804 46.7313 491.513 47.3479 491.544 48.1803C491.575 48.9819 490.958 49.691 490.126 49.7218C489.324 49.7527 488.614 49.1361 488.584 48.3037Z" fill="#99DAFF"/>
<path fill-rule="evenodd" clip-rule="evenodd" d="M620.112 20.2481C620.112 19.9398 620.328 19.6931 620.605 19.6931C620.914 19.6931 621.161 19.9089 621.161 20.1864C621.161 20.4947 620.945 20.7413 620.667 20.7413C620.39 20.7722 620.143 20.5564 620.112 20.2481Z" fill="#99DAFF"/>
<path fill-rule="evenodd" clip-rule="evenodd" d="M338.058 53.8839C338.058 53.6989 338.182 53.5447 338.398 53.5139C338.583 53.5139 338.737 53.668 338.768 53.853C338.768 54.038 338.613 54.1922 338.428 54.223C338.213 54.223 338.058 54.0689 338.058 53.8839Z" fill="white"/>
<path fill-rule="evenodd" clip-rule="evenodd" d="M564.664 1.31837C564.664 1.0409 564.849 0.825073 565.126 0.825073C565.404 0.825073 565.62 1.01005 565.62 1.28753C565.62 1.565 565.435 1.78082 565.157 1.78082C564.879 1.78082 564.664 1.56501 564.664 1.31837Z" fill="#99DAFF"/>
<path fill-rule="evenodd" clip-rule="evenodd" d="M323.934 30.2371C323.934 29.9596 324.15 29.713 324.428 29.713C324.705 29.713 324.952 29.9288 324.952 30.2062C324.952 30.4837 324.736 30.7304 324.458 30.7304C324.212 30.7304 323.965 30.5146 323.934 30.2371Z" fill="#99DAFF"/>
<path fill-rule="evenodd" clip-rule="evenodd" d="M452.687 25.9208C452.656 25.1193 453.273 24.441 454.075 24.4102C454.877 24.3793 455.555 24.9959 455.586 25.7975C455.617 26.5991 455 27.2774 454.198 27.3082C453.396 27.339 452.718 26.7224 452.687 25.9208Z" fill="#99DAFF"/>
<path fill-rule="evenodd" clip-rule="evenodd" d="M427.461 20.803C427.461 20.4947 427.707 20.2172 428.016 20.1864C428.324 20.1864 428.602 20.4331 428.633 20.7414C428.633 21.0497 428.417 21.3271 428.077 21.358C427.738 21.358 427.492 21.1113 427.461 20.803Z" fill="#99DAFF"/>
<path fill-rule="evenodd" clip-rule="evenodd" d="M33.6157 27.0616C33.6157 26.8458 33.7699 26.6299 34.0166 26.6299C34.2633 26.6299 34.4484 26.7841 34.4484 27.0307C34.4484 27.2774 34.2942 27.4623 34.0475 27.4623C33.8008 27.4932 33.6157 27.3082 33.6157 27.0616Z" fill="white"/>
<path fill-rule="evenodd" clip-rule="evenodd" d="M383.916 -1.02474C383.885 -1.94965 384.594 -2.7204 385.489 -2.75123C386.414 -2.78206 387.185 -2.07297 387.216 -1.17889C387.247 -0.253982 386.537 0.516788 385.643 0.547618C384.749 0.578448 383.978 -0.0998299 383.916 -1.02474Z" fill="white"/>
<path fill-rule="evenodd" clip-rule="evenodd" d="M531.696 26.1983C531.666 25.8283 531.974 25.4892 532.344 25.4584C532.714 25.4275 533.053 25.7358 533.084 26.1058C533.115 26.4758 532.807 26.8149 532.437 26.8458C532.036 26.8766 531.727 26.5683 531.696 26.1983Z" fill="#99DAFF"/>
<path fill-rule="evenodd" clip-rule="evenodd" d="M160.395 36.0949C160.333 35.0775 161.135 34.245 162.122 34.1834C163.14 34.1217 163.972 34.9233 164.034 35.9099C164.096 36.9273 163.294 37.7597 162.307 37.8213C161.289 37.883 160.457 37.1122 160.395 36.0949Z" fill="#99DAFF"/>
<path fill-rule="evenodd" clip-rule="evenodd" d="M563.8 54.0997C563.738 53.0823 564.54 52.1882 565.589 52.1574C566.606 52.0957 567.501 52.8973 567.531 53.9455C567.593 54.9629 566.791 55.857 565.743 55.8878C564.725 55.9495 563.831 55.1479 563.8 54.0997Z" fill="#99DAFF"/>
<path fill-rule="evenodd" clip-rule="evenodd" d="M76.3276 11.4614C76.2968 10.8757 76.7594 10.3824 77.3453 10.3516C77.9313 10.3207 78.4247 10.7832 78.4555 11.369C78.4864 11.9547 78.0238 12.448 77.4378 12.4788C76.8827 12.5097 76.3585 12.0472 76.3276 11.4614Z" fill="#99DAFF"/>
<path fill-rule="evenodd" clip-rule="evenodd" d="M503.88 27.339C503.849 26.9074 504.188 26.5066 504.651 26.5066C505.082 26.4758 505.483 26.8149 505.483 27.2774C505.514 27.709 505.175 28.1098 504.712 28.1098C504.281 28.1098 503.88 27.7707 503.88 27.339Z" fill="#99DAFF"/>
<path fill-rule="evenodd" clip-rule="evenodd" d="M376.761 34.5841C376.731 34.2758 376.977 33.9984 377.316 33.9675C377.625 33.9675 377.902 34.2142 377.902 34.5225C377.933 34.8308 377.686 35.1083 377.347 35.1391C377.07 35.1699 376.792 34.9233 376.761 34.5841Z" fill="#99DAFF"/>
<path fill-rule="evenodd" clip-rule="evenodd" d="M409.697 34.06C409.667 33.5667 410.068 33.1351 410.561 33.1043C411.054 33.0735 411.486 33.4743 411.517 33.9675C411.548 34.4608 411.147 34.8925 410.653 34.9233C410.129 34.9541 409.697 34.5533 409.697 34.06Z" fill="#99DAFF"/>
<path fill-rule="evenodd" clip-rule="evenodd" d="M201.287 33.1968C201.226 32.0253 202.151 31.0079 203.323 30.9462C204.495 30.8846 205.512 31.8094 205.574 32.981C205.636 34.1525 204.71 35.17 203.539 35.2316C202.336 35.2933 201.349 34.3684 201.287 33.1968Z" fill="#99DAFF"/>
<path fill-rule="evenodd" clip-rule="evenodd" d="M478.838 40.072C478.838 39.887 478.962 39.7328 479.147 39.7328C479.332 39.7328 479.486 39.8562 479.486 40.0411C479.486 40.2261 479.363 40.3803 479.178 40.3803C478.993 40.4111 478.838 40.2569 478.838 40.072Z" fill="#99DAFF"/>
<path fill-rule="evenodd" clip-rule="evenodd" d="M176.277 48.3036C176.277 48.1186 176.431 47.9337 176.616 47.9337C176.801 47.9337 176.986 48.0878 176.986 48.2728C176.986 48.4578 176.832 48.6428 176.647 48.6428C176.462 48.6428 176.308 48.4886 176.277 48.3036Z" fill="#99DAFF"/>
<path fill-rule="evenodd" clip-rule="evenodd" d="M304.228 23.4545C304.197 22.5296 304.906 21.7588 305.832 21.6971C306.757 21.6663 307.559 22.3754 307.589 23.3003C307.62 24.2252 306.911 25.0268 305.986 25.0576C305.061 25.0885 304.259 24.3794 304.228 23.4545Z" fill="#99DAFF"/>
<path fill-rule="evenodd" clip-rule="evenodd" d="M438.871 2.70571C438.871 2.45907 439.056 2.27408 439.272 2.27408C439.519 2.27408 439.704 2.45906 439.704 2.67487C439.704 2.92151 439.519 3.1065 439.303 3.1065C439.087 3.1065 438.902 2.92153 438.871 2.70571Z" fill="#99DAFF"/>
<path fill-rule="evenodd" clip-rule="evenodd" d="M438.717 20.6181C438.686 20.2481 438.995 19.909 439.365 19.909C439.735 19.8782 440.074 20.1865 440.074 20.5564C440.105 20.9264 439.796 21.2655 439.426 21.2655C439.056 21.2964 438.748 20.9881 438.717 20.6181Z" fill="#99DAFF"/>
<path fill-rule="evenodd" clip-rule="evenodd" d="M516.74 2.21237C516.74 2.02739 516.894 1.87324 517.079 1.84241C517.264 1.84241 517.418 1.96574 517.449 2.18155C517.449 2.36653 517.326 2.52068 517.11 2.55151C516.925 2.52068 516.771 2.39735 516.74 2.21237Z" fill="white"/>
<path fill-rule="evenodd" clip-rule="evenodd" d="M416.143 24.0711C416.143 23.8553 416.297 23.6703 416.513 23.6703C416.729 23.6703 416.914 23.8244 416.914 24.0402C416.914 24.2561 416.76 24.4411 416.544 24.4411C416.359 24.4411 416.174 24.2869 416.143 24.0711Z" fill="white"/>
<path fill-rule="evenodd" clip-rule="evenodd" d="M277.244 0.115952C277.182 -0.901445 277.984 -1.79552 279.032 -1.82635C280.05 -1.88801 280.944 -1.08642 280.975 -0.0690215C281.037 0.948376 280.235 1.84245 279.187 1.87328C278.138 1.93494 277.275 1.13335 277.244 0.115952Z" fill="#99DAFF"/>
<path fill-rule="evenodd" clip-rule="evenodd" d="M403.9 16.3327C403.869 15.8086 404.27 15.3769 404.794 15.3461C405.318 15.3153 405.75 15.7161 405.781 16.2402C405.812 16.7643 405.411 17.1959 404.887 17.2267C404.362 17.2576 403.93 16.8568 403.9 16.3327Z" fill="#99DAFF"/>
<path fill-rule="evenodd" clip-rule="evenodd" d="M544.341 43.8024C544.279 42.6925 545.142 41.7368 546.283 41.6751C547.394 41.6134 548.35 42.4767 548.411 43.6174C548.473 44.7274 547.609 45.6831 546.468 45.7448C545.327 45.8064 544.371 44.9432 544.341 43.8024Z" fill="#99DAFF"/>
<path fill-rule="evenodd" clip-rule="evenodd" d="M486.949 36.3415C486.949 36.1565 487.072 35.9715 487.288 35.9715C487.473 35.9715 487.658 36.1257 487.658 36.3107C487.658 36.4956 487.504 36.6806 487.319 36.6806C487.134 36.6806 486.949 36.5265 486.949 36.3415Z" fill="#99DAFF"/>
<path fill-rule="evenodd" clip-rule="evenodd" d="M331.922 24.3177C331.891 23.6703 332.384 23.1153 333.032 23.1153C333.679 23.0845 334.204 23.5778 334.234 24.2252C334.265 24.8726 333.772 25.4276 333.124 25.4276C332.507 25.4584 331.952 24.9651 331.922 24.3177Z" fill="#99DAFF"/>
<path fill-rule="evenodd" clip-rule="evenodd" d="M491.853 1.16421C491.822 0.45512 492.377 -0.130664 493.055 -0.161494C493.765 -0.192324 494.35 0.362622 494.381 1.04088C494.412 1.74997 493.857 2.33574 493.179 2.36656C492.469 2.39739 491.883 1.8733 491.853 1.16421Z" fill="#99DAFF"/>
<path fill-rule="evenodd" clip-rule="evenodd" d="M570.029 17.6275C569.999 17.0726 570.43 16.6101 570.955 16.6101C571.51 16.5793 571.972 17.0109 571.972 17.535C572.003 18.09 571.571 18.5216 571.047 18.5524C570.523 18.5833 570.06 18.1516 570.029 17.6275Z" fill="#99DAFF"/>
<path fill-rule="evenodd" clip-rule="evenodd" d="M99.3953 45.7447C99.3645 44.9123 100.012 44.2032 100.814 44.1723C101.647 44.1415 102.356 44.7889 102.387 45.5905C102.418 46.423 101.801 47.1321 100.968 47.1629C100.135 47.2246 99.4262 46.5771 99.3953 45.7447Z" fill="white"/>
<path fill-rule="evenodd" clip-rule="evenodd" d="M510.849 47.9953C510.849 47.7794 511.004 47.5636 511.25 47.5636C511.466 47.5636 511.682 47.7178 511.682 47.9644C511.682 48.1803 511.528 48.3961 511.281 48.3961C511.065 48.3961 510.88 48.2111 510.849 47.9953Z" fill="white"/>
<path fill-rule="evenodd" clip-rule="evenodd" d="M410.653 12.2939C410.653 11.924 410.9 11.6157 411.27 11.6157C411.64 11.5848 411.949 11.8623 411.949 12.2322C411.979 12.6022 411.702 12.9105 411.332 12.9105C410.993 12.9413 410.684 12.6639 410.653 12.2939Z" fill="#99DAFF"/>
<path fill-rule="evenodd" clip-rule="evenodd" d="M299.109 51.0475C299.078 50.3076 299.633 49.691 300.373 49.6602C301.113 49.6294 301.73 50.1843 301.761 50.9242C301.792 51.6641 301.237 52.2807 300.496 52.3115C299.756 52.3424 299.139 51.7566 299.109 51.0475Z" fill="#99DAFF"/>
<path fill-rule="evenodd" clip-rule="evenodd" d="M482.478 17.0418C482.478 16.7335 482.693 16.4868 482.971 16.4868C483.279 16.4868 483.526 16.7026 483.526 17.0109C483.526 17.3192 483.31 17.5659 483.033 17.5659C482.724 17.5659 482.478 17.3192 482.478 17.0418Z" fill="white"/>
<path fill-rule="evenodd" clip-rule="evenodd" d="M519.453 22.1287C519.453 21.7588 519.731 21.4196 520.101 21.4196C520.471 21.3888 520.81 21.6971 520.81 22.0671C520.841 22.437 520.533 22.7762 520.163 22.7762C519.793 22.807 519.453 22.5295 519.453 22.1287Z" fill="#99DAFF"/>
<path fill-rule="evenodd" clip-rule="evenodd" d="M385.18 27.524C385.18 27.339 385.335 27.1541 385.52 27.1541C385.705 27.1541 385.859 27.3082 385.89 27.4932C385.89 27.6782 385.736 27.8632 385.55 27.8632C385.335 27.8632 385.18 27.7398 385.18 27.524Z" fill="#99DAFF"/>
<path fill-rule="evenodd" clip-rule="evenodd" d="M574.717 37.5746C574.717 37.3897 574.84 37.2355 575.025 37.2355C575.21 37.2355 575.365 37.3589 575.365 37.5438C575.365 37.7288 575.241 37.8829 575.056 37.8829C574.871 37.9138 574.717 37.7596 574.717 37.5746Z" fill="#99DAFF"/>
<path fill-rule="evenodd" clip-rule="evenodd" d="M439.889 28.6031C439.827 27.4624 440.721 26.5066 441.862 26.445C443.003 26.3833 443.959 27.2774 444.021 28.3873C444.083 29.528 443.189 30.4837 442.047 30.5454C440.906 30.607 439.95 29.7438 439.889 28.6031Z" fill="white"/>
<path fill-rule="evenodd" clip-rule="evenodd" d="M460.273 48.1803C460.243 47.9028 460.489 47.6562 460.767 47.6562C461.044 47.6562 461.291 47.872 461.291 48.1495C461.291 48.4269 461.075 48.6736 460.798 48.6736C460.52 48.7044 460.273 48.4578 460.273 48.1803Z" fill="#99DAFF"/>
<path fill-rule="evenodd" clip-rule="evenodd" d="M661.405 34.6766C661.375 33.8134 662.022 33.0735 662.886 33.0426C663.749 33.0118 664.489 33.6592 664.52 34.5225C664.551 35.3857 663.903 36.1257 663.04 36.1565C662.176 36.2182 661.436 35.5399 661.405 34.6766Z" fill="#99DAFF"/>
<path fill-rule="evenodd" clip-rule="evenodd" d="M276.442 14.1129C276.411 13.7429 276.72 13.4346 277.09 13.4038C277.46 13.3729 277.768 13.6813 277.799 14.0512C277.83 14.4212 277.521 14.7603 277.151 14.7603C276.781 14.7912 276.442 14.4829 276.442 14.1129Z" fill="white"/>
<path fill-rule="evenodd" clip-rule="evenodd" d="M808.353 5.54207C808.323 4.55549 809.063 3.72308 810.049 3.66142C811.036 3.59976 811.869 4.37052 811.93 5.35709C811.992 6.34367 811.221 7.17608 810.234 7.23775C809.248 7.29941 808.415 6.52864 808.353 5.54207Z" fill="#99DAFF"/>
<path fill-rule="evenodd" clip-rule="evenodd" d="M431.069 36.9581C431.069 36.6498 431.285 36.4031 431.593 36.3723C431.902 36.3415 432.148 36.5881 432.179 36.8964C432.179 37.2047 431.963 37.4514 431.655 37.4822C431.346 37.5131 431.1 37.2664 431.069 36.9581Z" fill="#99DAFF"/>
<path fill-rule="evenodd" clip-rule="evenodd" d="M500.087 42.5692C500.087 42.3534 500.241 42.1684 500.457 42.1684C500.673 42.1684 500.858 42.3226 500.858 42.5384C500.858 42.7542 500.703 42.9392 500.488 42.9392C500.303 42.9392 500.118 42.785 500.087 42.5692Z" fill="#99DAFF"/>
<path fill-rule="evenodd" clip-rule="evenodd" d="M480.997 24.5952C480.935 23.4853 481.83 22.5295 482.94 22.4679C484.081 22.4062 485.006 23.3003 485.068 24.4102C485.13 25.5509 484.266 26.4758 483.125 26.5375C482.015 26.5683 481.059 25.705 480.997 24.5952Z" fill="white"/>
<path fill-rule="evenodd" clip-rule="evenodd" d="M696.685 14.822C696.654 14.1129 697.21 13.4963 697.919 13.4655C698.628 13.4346 699.245 13.9896 699.276 14.6987C699.306 15.4078 698.751 16.0244 698.042 16.0552C697.302 16.0861 696.716 15.5311 696.685 14.822Z" fill="white"/>
<path fill-rule="evenodd" clip-rule="evenodd" d="M407.076 55.1787C407.014 53.9763 407.97 52.9281 409.173 52.8664C410.376 52.8047 411.424 53.7605 411.486 54.9629C411.548 56.1653 410.592 57.2135 409.389 57.2752C408.155 57.3369 407.138 56.4119 407.076 55.1787Z" fill="white"/>
<path fill-rule="evenodd" clip-rule="evenodd" d="M555.967 45.8989C555.905 44.7273 556.83 43.7407 557.971 43.6791C559.143 43.6174 560.13 44.5115 560.192 45.683C560.253 46.8546 559.359 47.8412 558.187 47.9028C556.984 47.9645 555.998 47.0704 555.967 45.8989Z" fill="white"/>
<path fill-rule="evenodd" clip-rule="evenodd" d="M342.993 37.8522C342.962 37.2972 343.394 36.8348 343.949 36.8039C344.504 36.7731 344.997 37.2047 344.997 37.7597C345.028 38.3146 344.596 38.7771 344.041 38.8079C343.486 38.8387 343.024 38.4071 342.993 37.8522Z" fill="white"/>
<path fill-rule="evenodd" clip-rule="evenodd" d="M608.887 51.0167C608.825 49.8143 609.75 48.797 610.953 48.7353C612.156 48.6736 613.173 49.5985 613.235 50.8009C613.297 52.0033 612.371 53.0207 611.169 53.0823C609.966 53.144 608.948 52.2191 608.887 51.0167Z" fill="white"/>
<path fill-rule="evenodd" clip-rule="evenodd" d="M329.917 3.72312C329.917 3.5073 330.071 3.35316 330.287 3.32233C330.503 3.32233 330.657 3.47646 330.688 3.69227C330.688 3.90809 330.534 4.06225 330.349 4.09308C330.102 4.09308 329.917 3.93893 329.917 3.72312Z" fill="#99DAFF"/>
<path fill-rule="evenodd" clip-rule="evenodd" d="M557.231 13.4346C557.231 13.2496 557.385 13.0646 557.57 13.0646C557.755 13.0646 557.94 13.2188 557.94 13.4038C557.94 13.5887 557.786 13.7737 557.601 13.7737C557.385 13.7737 557.231 13.6196 557.231 13.4346Z" fill="white"/>
<path fill-rule="evenodd" clip-rule="evenodd" d="M510.88 40.8735C510.88 40.6885 511.003 40.5344 511.189 40.5344C511.374 40.5344 511.528 40.6577 511.528 40.8427C511.528 41.0277 511.404 41.1818 511.219 41.1818C511.034 41.1818 510.88 41.0585 510.88 40.8735Z" fill="white"/>
<path fill-rule="evenodd" clip-rule="evenodd" d="M683.116 1.68829C683.085 1.25667 683.424 0.88672 683.856 0.85589C684.288 0.82506 684.658 1.16418 684.658 1.5958C684.689 2.02742 684.35 2.39739 683.918 2.42822C683.486 2.45905 683.147 2.11991 683.116 1.68829Z" fill="#99DAFF"/>
<path fill-rule="evenodd" clip-rule="evenodd" d="M574.748 25.89C574.748 25.5817 574.963 25.3351 575.272 25.3351C575.58 25.3351 575.827 25.5509 575.827 25.8592C575.858 26.1675 575.611 26.4141 575.303 26.4141C575.025 26.4141 574.748 26.1983 574.748 25.89Z" fill="#99DAFF"/>
<path fill-rule="evenodd" clip-rule="evenodd" d="M846.686 49.691C846.655 48.951 847.21 48.3653 847.951 48.3036C848.66 48.2728 849.277 48.8277 849.338 49.5676C849.369 50.3076 848.814 50.9242 848.074 50.955C847.334 50.9858 846.717 50.4309 846.686 49.691Z" fill="#99DAFF"/>
<path fill-rule="evenodd" clip-rule="evenodd" d="M418.826 3.9081C418.795 2.95236 419.504 2.15079 420.46 2.11996C421.416 2.08913 422.218 2.79821 422.249 3.75395C422.28 4.70968 421.57 5.51126 420.614 5.54209C419.689 5.57292 418.857 4.833 418.826 3.9081Z" fill="#99DAFF"/>
<path fill-rule="evenodd" clip-rule="evenodd" d="M248.039 13.5579C248.009 12.7255 248.625 12.0473 249.458 11.9856C250.291 11.9548 250.969 12.5714 251.031 13.4038C251.062 14.2362 250.445 14.9145 249.612 14.9761C248.78 15.0378 248.07 14.3903 248.039 13.5579Z" fill="#99DAFF"/>
<path fill-rule="evenodd" clip-rule="evenodd" d="M469.618 32.1486C469.618 31.9636 469.772 31.7786 469.957 31.7786C470.142 31.7786 470.327 31.9328 470.327 32.1177C470.327 32.3027 470.173 32.4877 469.988 32.4877C469.803 32.4877 469.649 32.3336 469.618 32.1486Z" fill="white"/>
<path fill-rule="evenodd" clip-rule="evenodd" d="M511.127 24.4411C511.065 23.2078 512.021 22.1904 513.224 22.1288C514.457 22.0671 515.475 23.0228 515.537 24.2561C515.598 25.4893 514.643 26.5067 513.44 26.5684C512.206 26.5992 511.189 25.6743 511.127 24.4411Z" fill="white"/>
<path fill-rule="evenodd" clip-rule="evenodd" d="M592.912 54.9938C592.881 54.408 593.344 53.9147 593.93 53.8839C594.516 53.8531 595.009 54.3155 595.04 54.9013C595.071 55.4871 594.608 55.9804 594.022 56.0112C593.467 56.042 592.943 55.5796 592.912 54.9938Z" fill="#99DAFF"/>
<path fill-rule="evenodd" clip-rule="evenodd" d="M670.657 25.3351C670.657 25.1501 670.781 24.9959 670.966 24.9959C671.15 24.9959 671.305 25.1193 671.305 25.3042C671.305 25.4892 671.181 25.6434 670.996 25.6434C670.811 25.6742 670.657 25.52 670.657 25.3351Z" fill="#99DAFF"/>
<path fill-rule="evenodd" clip-rule="evenodd" d="M276.689 30.6687C276.689 30.3912 276.905 30.1446 277.182 30.1446C277.46 30.1446 277.706 30.3604 277.706 30.6379C277.706 30.9153 277.491 31.162 277.213 31.162C276.935 31.162 276.72 30.9462 276.689 30.6687Z" fill="#99DAFF"/>
<path fill-rule="evenodd" clip-rule="evenodd" d="M520.132 43.0008C520.101 42.4458 520.533 41.9834 521.088 41.9526C521.643 41.9217 522.106 42.3534 522.136 42.9083C522.167 43.4632 521.736 43.9257 521.18 43.9565C520.625 43.9565 520.163 43.5249 520.132 43.0008Z" fill="#99DAFF"/>
<path fill-rule="evenodd" clip-rule="evenodd" d="M378.272 1.10254C378.272 0.825071 378.457 0.57843 378.766 0.57843C379.043 0.57843 379.29 0.794237 379.29 1.04087C379.29 1.31834 379.105 1.56498 378.828 1.56498C378.519 1.59581 378.303 1.38 378.272 1.10254Z" fill="#99DAFF"/>
<path fill-rule="evenodd" clip-rule="evenodd" d="M317.612 22.1287C317.581 21.728 317.89 21.3888 318.291 21.3888C318.692 21.358 319.031 21.6663 319.031 22.0671C319.062 22.4679 318.753 22.807 318.352 22.8378C317.951 22.8378 317.612 22.5295 317.612 22.1287Z" fill="#99DAFF"/>
<path fill-rule="evenodd" clip-rule="evenodd" d="M369.576 30.2988C369.576 30.0521 369.761 29.8363 370.008 29.8363C370.254 29.8363 370.47 30.0213 370.47 30.2679C370.47 30.5146 370.285 30.7304 370.039 30.7304C369.792 30.6996 369.607 30.5146 369.576 30.2988Z" fill="white"/>
<path fill-rule="evenodd" clip-rule="evenodd" d="M500.611 49.8143C500.611 49.6293 500.734 49.4751 500.919 49.4751C501.104 49.4751 501.258 49.5984 501.258 49.7834C501.258 49.9684 501.135 50.1226 500.95 50.1226C500.765 50.1226 500.611 49.9993 500.611 49.8143Z" fill="#99DAFF"/>
<path fill-rule="evenodd" clip-rule="evenodd" d="M322.793 50.2768C322.762 49.5676 323.286 48.9819 323.996 48.951C324.705 48.9202 325.291 49.4443 325.322 50.1534C325.353 50.8625 324.828 51.4483 324.119 51.4791C323.41 51.51 322.824 50.9859 322.793 50.2768Z" fill="white"/>
<path fill-rule="evenodd" clip-rule="evenodd" d="M493.549 38.4688C493.549 38.1297 493.796 37.8522 494.104 37.8522C494.443 37.8214 494.721 38.0988 494.721 38.4071C494.752 38.7463 494.474 39.0237 494.166 39.0237C493.826 39.0546 493.549 38.8079 493.549 38.4688Z" fill="#99DAFF"/>
<path fill-rule="evenodd" clip-rule="evenodd" d="M506.193 1.16416C506.162 0.609223 506.594 0.146758 507.118 0.146758C507.673 0.115928 508.105 0.547548 508.136 1.07166C508.166 1.6266 507.735 2.08906 507.21 2.08906C506.686 2.11989 506.224 1.7191 506.193 1.16416Z" fill="#99DAFF"/>
<path fill-rule="evenodd" clip-rule="evenodd" d="M194.318 9.48835C194.256 8.4093 195.12 7.48439 196.199 7.42273C197.278 7.36107 198.204 8.2243 198.265 9.30336C198.327 10.3824 197.463 11.3073 196.384 11.369C195.274 11.4306 194.349 10.5982 194.318 9.48835Z" fill="#99DAFF"/>
<path fill-rule="evenodd" clip-rule="evenodd" d="M621.006 38.0063C621.006 37.8213 621.13 37.698 621.315 37.6671C621.5 37.6671 621.623 37.7905 621.654 37.9754C621.654 38.1604 621.531 38.2838 621.346 38.3146C621.161 38.3146 621.006 38.1913 621.006 38.0063Z" fill="#99DAFF"/>
<path fill-rule="evenodd" clip-rule="evenodd" d="M402.327 1.2875C402.296 0.5784 402.851 -0.00737284 403.53 -0.0382032C404.239 -0.0690335 404.825 0.48592 404.856 1.16419C404.887 1.87328 404.331 2.45906 403.653 2.48989C402.975 2.55155 402.389 1.99659 402.327 1.2875Z" fill="#99DAFF"/>
<path fill-rule="evenodd" clip-rule="evenodd" d="M298.554 15.1303C298.523 14.3287 299.14 13.6812 299.911 13.6196C300.712 13.5887 301.36 14.2054 301.422 14.9761C301.452 15.7777 300.836 16.4251 300.065 16.456C299.263 16.5176 298.584 15.901 298.554 15.1303Z" fill="#99DAFF"/>
<path fill-rule="evenodd" clip-rule="evenodd" d="M656.194 18.4291C656.194 18.1825 656.379 17.9975 656.595 17.9975C656.841 17.9975 657.026 18.1825 657.026 18.3983C657.026 18.6449 656.841 18.8299 656.625 18.8299C656.41 18.8607 656.225 18.6758 656.194 18.4291Z" fill="#99DAFF"/>
<path fill-rule="evenodd" clip-rule="evenodd" d="M333.895 43.3399C333.864 42.8775 334.234 42.4767 334.728 42.4458C335.19 42.415 335.591 42.785 335.622 43.2783C335.653 43.7407 335.283 44.1415 334.82 44.1723C334.296 44.1723 333.895 43.8024 333.895 43.3399Z" fill="#99DAFF"/>
<path fill-rule="evenodd" clip-rule="evenodd" d="M439.827 50.2151C439.827 49.876 440.074 49.5677 440.444 49.5369C440.783 49.506 441.092 49.7835 441.122 50.1534C441.153 50.4926 440.876 50.8009 440.506 50.8317C440.136 50.8625 439.827 50.5851 439.827 50.2151Z" fill="white"/>
<path fill-rule="evenodd" clip-rule="evenodd" d="M208.257 44.3265C208.195 43.1549 209.09 42.1992 210.261 42.1375C211.433 42.0758 212.389 42.9699 212.451 44.1415C212.513 45.313 211.618 46.2688 210.446 46.3304C209.275 46.3921 208.288 45.498 208.257 44.3265Z" fill="#99DAFF"/>
<path fill-rule="evenodd" clip-rule="evenodd" d="M686.292 21.2038C686.261 20.803 686.57 20.4947 686.971 20.4639C687.372 20.4331 687.68 20.7414 687.711 21.1422C687.742 21.543 687.434 21.8513 687.033 21.8821C686.632 21.8821 686.323 21.5738 686.292 21.2038Z" fill="#99DAFF"/>
<path fill-rule="evenodd" clip-rule="evenodd" d="M489.108 55.117C489.046 54.1305 489.817 53.298 490.804 53.2364C491.791 53.1747 492.624 53.9455 492.685 54.9321C492.716 55.9186 491.976 56.7511 490.989 56.8127C489.971 56.8744 489.139 56.1036 489.108 55.117Z" fill="#99DAFF"/>
<path fill-rule="evenodd" clip-rule="evenodd" d="M456.881 18.3983C456.881 18.09 457.128 17.8125 457.436 17.7817C457.745 17.7817 458.022 18.0283 458.053 18.3366C458.053 18.6449 457.806 18.9224 457.498 18.9532C457.159 18.9841 456.881 18.7374 456.881 18.3983Z" fill="#99DAFF"/>
<path fill-rule="evenodd" clip-rule="evenodd" d="M476.711 54.038C476.649 52.8665 477.543 51.8799 478.715 51.849C479.887 51.7874 480.874 52.6815 480.905 53.853C480.966 55.0246 480.072 56.0112 478.9 56.042C477.728 56.0729 476.741 55.1788 476.711 54.038Z" fill="#99DAFF"/>
<path fill-rule="evenodd" clip-rule="evenodd" d="M365.166 52.5273C365.135 51.7874 365.69 51.1708 366.43 51.14C367.17 51.1092 367.787 51.6641 367.818 52.404C367.849 53.1439 367.294 53.7605 366.554 53.7914C365.813 53.8222 365.197 53.2673 365.166 52.5273Z" fill="#99DAFF"/>
<path fill-rule="evenodd" clip-rule="evenodd" d="M176.801 5.78873C176.77 5.41876 177.079 5.11044 177.449 5.07961C177.819 5.04878 178.127 5.3571 178.158 5.72706C178.189 6.09703 177.881 6.40533 177.511 6.43616C177.11 6.43616 176.801 6.12786 176.801 5.78873Z" fill="#99DAFF"/>
<path fill-rule="evenodd" clip-rule="evenodd" d="M583.414 15.7469C583.383 15.3461 583.691 15.0378 584.092 15.0069C584.493 14.9761 584.802 15.2844 584.832 15.6852C584.863 16.086 584.555 16.3943 584.154 16.4251C583.753 16.4251 583.445 16.1168 583.414 15.7469Z" fill="white"/>
<path fill-rule="evenodd" clip-rule="evenodd" d="M298.955 41.3359C298.924 40.781 299.356 40.2877 299.942 40.2569C300.497 40.226 300.99 40.6577 301.021 41.2126C301.052 41.7676 300.62 42.2608 300.065 42.2917C299.479 42.3225 298.986 41.8909 298.955 41.3359Z" fill="white"/>
<path fill-rule="evenodd" clip-rule="evenodd" d="M797.529 39.3937C797.529 39.2087 797.652 39.0854 797.837 39.0546C798.022 39.0546 798.146 39.1779 798.176 39.3629C798.176 39.5479 798.053 39.6712 797.868 39.702C797.683 39.702 797.529 39.5479 797.529 39.3937Z" fill="#99DAFF"/>
<path fill-rule="evenodd" clip-rule="evenodd" d="M414.508 43.4941C414.477 42.785 415.033 42.1684 415.742 42.1375C416.451 42.1067 417.068 42.6617 417.099 43.3708C417.13 44.0799 416.575 44.6965 415.865 44.7273C415.156 44.789 414.539 44.234 414.508 43.4941Z" fill="#99DAFF"/>
<path fill-rule="evenodd" clip-rule="evenodd" d="M226.329 34.0909C226.298 33.2893 226.915 32.5802 227.747 32.5494C228.58 32.5186 229.258 33.1352 229.289 33.9676C229.32 34.8 228.703 35.4783 227.871 35.5091C227.069 35.5399 226.36 34.9233 226.329 34.0909Z" fill="white"/>
<path fill-rule="evenodd" clip-rule="evenodd" d="M297.567 4.98715C297.536 4.24723 298.122 3.5998 298.862 3.56897C299.602 3.53814 300.25 4.12392 300.28 4.86384C300.311 5.60376 299.725 6.25118 298.985 6.28201C298.245 6.31284 297.597 5.72707 297.567 4.98715Z" fill="white"/>
<path fill-rule="evenodd" clip-rule="evenodd" d="M464.313 21.0188C464.313 20.7722 464.498 20.5872 464.714 20.5872C464.961 20.5872 465.146 20.7722 465.146 20.988C465.146 21.2347 464.961 21.4196 464.745 21.4196C464.529 21.4196 464.313 21.2346 464.313 21.0188Z" fill="#99DAFF"/>
<path fill-rule="evenodd" clip-rule="evenodd" d="M349.006 26.9999C348.945 25.8592 349.839 24.9035 350.949 24.8726C352.09 24.811 353.046 25.7051 353.077 26.8149C353.139 27.9557 352.244 28.9114 351.134 28.9422C350.024 29.0039 349.068 28.1407 349.006 26.9999Z" fill="white"/>
<path fill-rule="evenodd" clip-rule="evenodd" d="M218.465 12.8488C218.465 12.633 218.619 12.4789 218.804 12.4481C219.02 12.4481 219.174 12.6022 219.205 12.7872C219.205 13.003 219.051 13.1572 218.866 13.188C218.65 13.188 218.496 13.0338 218.465 12.8488Z" fill="#99DAFF"/>
<path fill-rule="evenodd" clip-rule="evenodd" d="M743.653 16.3327C743.653 16.1477 743.776 15.9935 743.961 15.9935C744.146 15.9935 744.301 16.1168 744.301 16.3018C744.301 16.4868 744.177 16.6409 743.992 16.6409C743.807 16.6718 743.653 16.5176 743.653 16.3327Z" fill="white"/>
<path fill-rule="evenodd" clip-rule="evenodd" d="M312.925 55.0246C312.925 54.8088 313.079 54.6239 313.295 54.593C313.511 54.593 313.696 54.7472 313.726 54.963C313.726 55.1788 313.572 55.3638 313.356 55.3946C313.11 55.4254 312.925 55.2404 312.925 55.0246Z" fill="#99DAFF"/>
<path fill-rule="evenodd" clip-rule="evenodd" d="M393.661 38.7154C393.63 38.3454 393.939 38.0063 394.34 37.9755C394.74 37.9446 395.049 38.2529 395.08 38.6537C395.11 39.0237 394.802 39.3628 394.401 39.3937C394.031 39.4245 393.692 39.1162 393.661 38.7154Z" fill="#99DAFF"/>
<path fill-rule="evenodd" clip-rule="evenodd" d="M651.229 54.0997C651.229 53.8222 651.444 53.5756 651.722 53.5756C652 53.5756 652.246 53.7914 652.246 54.0689C652.246 54.3464 652.03 54.593 651.753 54.593C651.475 54.593 651.229 54.3772 651.229 54.0997Z" fill="#99DAFF"/>
<path fill-rule="evenodd" clip-rule="evenodd" d="M549.337 11.2148C549.306 10.6599 549.737 10.1974 550.262 10.1974C550.817 10.1666 551.279 10.5982 551.279 11.1223C551.31 11.6773 550.878 12.1397 550.323 12.1397C549.799 12.1706 549.337 11.7389 549.337 11.2148Z" fill="#99DAFF"/>
<path fill-rule="evenodd" clip-rule="evenodd" d="M732.52 53.8838C732.52 53.6988 732.644 53.5447 732.829 53.5447C733.014 53.5447 733.168 53.668 733.168 53.853C733.168 54.038 733.044 54.1922 732.859 54.1922C732.705 54.1922 732.551 54.0688 732.52 53.8838Z" fill="white"/>
<path fill-rule="evenodd" clip-rule="evenodd" d="M549.275 21.3579C549.275 21.173 549.429 20.988 549.614 20.988C549.799 20.988 549.984 21.1421 549.984 21.3271C549.984 21.5121 549.83 21.6971 549.645 21.6971C549.46 21.6971 549.275 21.5429 549.275 21.3579Z" fill="#99DAFF"/>
<path fill-rule="evenodd" clip-rule="evenodd" d="M257.384 50.7392C257.353 50.3075 257.692 49.9068 258.155 49.9068C258.586 49.8759 258.956 50.2151 258.987 50.6775C259.018 51.1091 258.679 51.5099 258.216 51.5099C257.784 51.5099 257.414 51.1708 257.384 50.7392Z" fill="#99DAFF"/>
<path fill-rule="evenodd" clip-rule="evenodd" d="M765.395 20.6797C765.364 20.1248 765.796 19.6315 766.381 19.6007C766.936 19.5698 767.43 20.0015 767.461 20.5873C767.492 21.1422 767.06 21.6355 766.474 21.6663C765.888 21.6663 765.425 21.2347 765.395 20.6797Z" fill="#99DAFF"/>
<path fill-rule="evenodd" clip-rule="evenodd" d="M515.66 56.3503C515.66 56.1653 515.814 55.9803 515.999 55.9803C516.184 55.9803 516.369 56.1344 516.369 56.3194C516.369 56.5044 516.215 56.6894 516.03 56.6894C515.845 56.6894 515.66 56.5353 515.66 56.3503Z" fill="white"/>
<path fill-rule="evenodd" clip-rule="evenodd" d="M540.64 32.1177C540.64 31.9019 540.794 31.7169 541.01 31.7169C541.226 31.7169 541.411 31.8711 541.411 32.0869C541.411 32.3027 541.257 32.4877 541.041 32.4877C540.825 32.4877 540.64 32.3335 540.64 32.1177Z" fill="#99DAFF"/>
<path fill-rule="evenodd" clip-rule="evenodd" d="M578.973 0.177609C578.942 -0.377341 579.374 -0.870638 579.929 -0.870638C580.484 -0.901469 580.977 -0.469829 581.008 0.0851211C581.039 0.640071 580.607 1.13335 580.021 1.13335C579.497 1.19501 579.004 0.732559 578.973 0.177609Z" fill="#99DAFF"/>
<path fill-rule="evenodd" clip-rule="evenodd" d="M576.259 9.7966C576.259 9.61162 576.382 9.45746 576.567 9.45746C576.752 9.45746 576.907 9.58078 576.907 9.76576C576.907 9.95073 576.783 10.1049 576.598 10.1049C576.413 10.1049 576.259 9.98157 576.259 9.7966Z" fill="#99DAFF"/>
<path fill-rule="evenodd" clip-rule="evenodd" d="M401.371 24.0094C401.371 23.7319 401.587 23.4853 401.864 23.4544C402.142 23.4544 402.389 23.6702 402.419 23.9477C402.419 24.2252 402.204 24.4718 401.926 24.5026C401.618 24.5335 401.402 24.2868 401.371 24.0094Z" fill="white"/>
<path fill-rule="evenodd" clip-rule="evenodd" d="M340.125 33.0426C340.094 32.7035 340.371 32.3952 340.711 32.3952C341.05 32.3952 341.358 32.6418 341.358 32.981C341.358 33.3201 341.111 33.6284 340.772 33.6284C340.433 33.6592 340.125 33.3817 340.125 33.0426Z" fill="white"/>
<path fill-rule="evenodd" clip-rule="evenodd" d="M344.627 2.79817C344.627 2.52069 344.812 2.30487 345.09 2.30487C345.367 2.30487 345.583 2.48985 345.583 2.76732C345.583 3.0448 345.398 3.26062 345.121 3.26062C344.874 3.26062 344.627 3.04481 344.627 2.79817Z" fill="#99DAFF"/>
<path fill-rule="evenodd" clip-rule="evenodd" d="M235.395 4.09309C235.334 2.89072 236.29 1.8425 237.492 1.78084C238.695 1.71918 239.744 2.67491 239.805 3.87728C239.867 5.07965 238.911 6.12788 237.708 6.18954C236.475 6.2512 235.457 5.3263 235.395 4.09309Z" fill="#99DAFF"/>
<path fill-rule="evenodd" clip-rule="evenodd" d="M548.689 53.6989C548.627 52.4657 549.583 51.4174 550.817 51.3558C552.05 51.2941 553.099 52.2498 553.16 53.4831C553.222 54.7163 552.266 55.7645 551.032 55.8262C549.799 55.8879 548.75 54.9321 548.689 53.6989Z" fill="#99DAFF"/>
<path fill-rule="evenodd" clip-rule="evenodd" d="M720.061 36.3415C720.03 36.0023 720.308 35.7557 720.616 35.7249C720.955 35.7249 721.202 35.9715 721.233 36.2798C721.264 36.5881 720.986 36.8656 720.678 36.8964C720.339 36.8964 720.061 36.6498 720.061 36.3415Z" fill="#99DAFF"/>
<path fill-rule="evenodd" clip-rule="evenodd" d="M533.485 6.99106C533.485 6.77525 533.64 6.55945 533.886 6.55945C534.102 6.55945 534.318 6.71359 534.318 6.96023C534.318 7.17604 534.164 7.39184 533.917 7.39184C533.701 7.39184 533.485 7.20686 533.485 6.99106Z" fill="#99DAFF"/>
<path fill-rule="evenodd" clip-rule="evenodd" d="M373.523 10.3208C373.492 9.67332 374.017 9.08754 374.664 9.05671C375.343 9.02588 375.898 9.55001 375.929 10.1975C375.96 10.8449 375.435 11.4307 374.788 11.4615C374.14 11.4923 373.585 10.9682 373.523 10.3208Z" fill="#99DAFF"/>
<path fill-rule="evenodd" clip-rule="evenodd" d="M309.563 5.29538C309.532 4.77126 309.933 4.33963 310.458 4.30879C310.982 4.27796 311.414 4.67877 311.444 5.20289C311.475 5.72701 311.074 6.15864 310.55 6.18947C310.026 6.18947 309.594 5.8195 309.563 5.29538Z" fill="#99DAFF"/>
<path fill-rule="evenodd" clip-rule="evenodd" d="M571.602 49.0744C571.571 48.1495 572.281 47.3787 573.175 47.3479C574.1 47.3171 574.871 48.0261 574.902 48.9202C574.933 49.8451 574.224 50.6159 573.329 50.6467C572.435 50.7084 571.633 49.9993 571.602 49.0744Z" fill="#99DAFF"/>
<path fill-rule="evenodd" clip-rule="evenodd" d="M418.517 55.3329C418.486 54.9321 418.795 54.6238 419.196 54.5929C419.597 54.5621 419.905 54.8704 419.936 55.2712C419.967 55.672 419.658 55.9803 419.257 56.0111C418.857 56.0111 418.517 55.7028 418.517 55.3329Z" fill="#99DAFF"/>
<path fill-rule="evenodd" clip-rule="evenodd" d="M537.062 21.5738C537.032 21.2346 537.309 20.9264 537.679 20.8955C538.018 20.8647 538.327 21.1422 538.358 21.5121C538.358 21.8512 538.111 22.1595 537.741 22.1903C537.371 22.1903 537.093 21.9437 537.062 21.5738Z" fill="#99DAFF"/>
<path fill-rule="evenodd" clip-rule="evenodd" d="M250.075 -0.408171C250.075 -0.808962 250.352 -1.11725 250.753 -1.14808C251.154 -1.17891 251.462 -0.870626 251.493 -0.469835C251.524 -0.069044 251.216 0.239264 250.815 0.270094C250.414 0.300924 250.075 -0.00738013 250.075 -0.408171Z" fill="#99DAFF"/>
<path fill-rule="evenodd" clip-rule="evenodd" d="M475.6 31.0695C475.569 30.1138 476.279 29.3122 477.235 29.2814C478.191 29.2505 478.993 29.9596 479.023 30.9154C479.054 31.8711 478.345 32.6727 477.389 32.7036C476.433 32.7652 475.631 32.0253 475.6 31.0695Z" fill="#99DAFF"/>
<path fill-rule="evenodd" clip-rule="evenodd" d="M525.56 25.0884C525.529 24.1327 526.269 23.3311 527.194 23.2695C528.15 23.2386 528.952 23.9477 529.013 24.9035C529.044 25.8592 528.335 26.6607 527.379 26.7224C526.423 26.7841 525.621 26.0441 525.56 25.0884Z" fill="#99DAFF"/>
<path fill-rule="evenodd" clip-rule="evenodd" d="M678.49 49.9376C678.49 49.7526 678.644 49.5677 678.83 49.5677C679.015 49.5677 679.2 49.7218 679.2 49.9068C679.2 50.0918 679.045 50.2768 678.86 50.2768C678.675 50.2768 678.49 50.1226 678.49 49.9376Z" fill="#99DAFF"/>
<path fill-rule="evenodd" clip-rule="evenodd" d="M555.473 27.9249C555.443 27.1849 555.998 26.5683 556.738 26.5375C557.478 26.5066 558.095 27.0616 558.126 27.8015C558.157 28.5415 557.601 29.1581 556.861 29.1889C556.121 29.2197 555.504 28.6648 555.473 27.9249Z" fill="#99DAFF"/>
<path fill-rule="evenodd" clip-rule="evenodd" d="M596.489 47.6253C596.489 47.4095 596.643 47.2246 596.859 47.2246C597.075 47.2246 597.26 47.3787 597.26 47.5945C597.26 47.8103 597.106 47.9952 596.89 47.9952C596.705 47.9952 596.52 47.8411 596.489 47.6253Z" fill="white"/>
<path fill-rule="evenodd" clip-rule="evenodd" d="M320.388 37.6055C320.357 36.8964 320.912 36.2798 321.621 36.249C322.331 36.2181 322.947 36.7731 322.978 37.4822C323.009 38.1913 322.454 38.8079 321.745 38.8387C321.035 38.8695 320.419 38.3146 320.388 37.6055Z" fill="white"/>
<path fill-rule="evenodd" clip-rule="evenodd" d="M642.594 13.558C642.563 12.5714 643.303 11.739 644.29 11.7081C645.277 11.6773 646.109 12.4172 646.14 13.4038C646.171 14.3904 645.431 15.2228 644.444 15.2536C643.457 15.3153 642.625 14.5445 642.594 13.558Z" fill="#99DAFF"/>
<path fill-rule="evenodd" clip-rule="evenodd" d="M263.921 2.05826C263.921 1.81162 264.076 1.62665 264.322 1.62665C264.569 1.62665 264.754 1.7808 264.754 2.02744C264.754 2.27408 264.6 2.45906 264.353 2.45906C264.137 2.45906 263.921 2.27408 263.921 2.05826Z" fill="white"/>
<path fill-rule="evenodd" clip-rule="evenodd" d="M452.934 7.0527C452.903 6.59026 453.273 6.18948 453.736 6.18948C454.198 6.15865 454.599 6.5286 454.63 6.99104C454.661 7.45348 454.291 7.85428 453.828 7.88511C453.335 7.88511 452.965 7.51515 452.934 7.0527Z" fill="#99DAFF"/>
<path fill-rule="evenodd" clip-rule="evenodd" d="M285.817 13.897C285.786 13.2188 286.311 12.633 286.989 12.6022C287.668 12.5714 288.254 13.0955 288.284 13.7737C288.315 14.452 287.791 15.0377 287.112 15.0686C286.434 15.0994 285.848 14.5753 285.817 13.897Z" fill="#99DAFF"/>
<path fill-rule="evenodd" clip-rule="evenodd" d="M668.868 8.00853C668.838 7.54608 669.208 7.1453 669.67 7.11447C670.133 7.08364 670.534 7.45359 670.565 7.91604C670.595 8.3785 670.225 8.7793 669.763 8.81013C669.3 8.84096 668.899 8.47098 668.868 8.00853Z" fill="#99DAFF"/>
<path fill-rule="evenodd" clip-rule="evenodd" d="M565.311 26.1983C565.28 25.3351 565.928 24.5952 566.791 24.5643C567.655 24.5335 568.395 25.1809 568.426 26.0442C568.457 26.9074 567.809 27.6474 566.946 27.6782C566.082 27.7399 565.342 27.0616 565.311 26.1983Z" fill="white"/>
<path fill-rule="evenodd" clip-rule="evenodd" d="M378.858 14.9453C378.797 13.7737 379.722 12.7563 380.894 12.7255C382.066 12.6638 383.083 13.5888 383.114 14.7603C383.176 15.9319 382.251 16.9493 381.079 16.9801C379.907 17.0418 378.92 16.1169 378.858 14.9453Z" fill="#99DAFF"/>
<path fill-rule="evenodd" clip-rule="evenodd" d="M597.661 37.8522C597.63 36.8965 598.34 36.0948 599.296 36.064C600.252 36.0332 601.053 36.7423 601.084 37.698C601.146 38.6538 600.406 39.4554 599.45 39.4862C598.525 39.5479 597.723 38.8079 597.661 37.8522Z" fill="#99DAFF"/>
<path fill-rule="evenodd" clip-rule="evenodd" d="M722.405 10.4749C722.405 10.1666 722.621 9.91998 722.929 9.91998C723.237 9.91998 723.484 10.1358 723.484 10.4441C723.484 10.7524 723.268 10.999 722.96 10.999C722.683 10.999 722.436 10.7832 722.405 10.4749Z" fill="#99DAFF"/>
<path fill-rule="evenodd" clip-rule="evenodd" d="M534.38 47.0395C534.349 46.3304 534.904 45.7446 535.582 45.7138C536.291 45.683 536.877 46.2379 536.908 46.9162C536.939 47.6253 536.384 48.2111 535.706 48.2419C534.996 48.3036 534.41 47.7486 534.38 47.0395Z" fill="#99DAFF"/>
<path fill-rule="evenodd" clip-rule="evenodd" d="M500.025 5.14128C499.963 4.09305 500.796 3.19897 501.844 3.13731C502.893 3.07565 503.787 3.90808 503.849 4.9563C503.911 6.00453 503.078 6.89861 502.029 6.96027C500.95 7.02193 500.056 6.18951 500.025 5.14128Z" fill="#99DAFF"/>
<path fill-rule="evenodd" clip-rule="evenodd" d="M166.316 53.514C166.285 52.8048 166.84 52.2191 167.549 52.1882C168.259 52.1574 168.845 52.7123 168.876 53.3906C168.906 54.0997 168.351 54.6855 167.673 54.7163C166.933 54.7472 166.347 54.2231 166.316 53.514Z" fill="white"/>
<path fill-rule="evenodd" clip-rule="evenodd" d="M402.543 31.2237C402.481 30.2371 403.252 29.4047 404.239 29.343C405.226 29.3122 406.058 30.0521 406.12 31.0387C406.151 32.0253 405.411 32.8577 404.424 32.9194C403.437 32.981 402.604 32.2103 402.543 31.2237Z" fill="white"/>
<path fill-rule="evenodd" clip-rule="evenodd" d="M634.822 1.71912C634.76 0.578406 635.655 -0.408172 636.827 -0.469833C637.968 -0.531493 638.955 0.362583 639.016 1.53413C639.078 2.67485 638.184 3.66143 637.012 3.72309C635.84 3.75392 634.853 2.85984 634.822 1.71912Z" fill="#99DAFF"/>
<path fill-rule="evenodd" clip-rule="evenodd" d="M448.493 41.9834C448.462 41.6442 448.74 41.3668 449.079 41.336C449.418 41.3051 449.696 41.5826 449.726 41.9217C449.726 42.2608 449.48 42.5383 449.14 42.5691C448.801 42.6 448.524 42.3225 448.493 41.9834Z" fill="#99DAFF"/>
<path fill-rule="evenodd" clip-rule="evenodd" d="M528.52 10.8757C528.489 10.2899 528.952 9.76581 529.538 9.73498C530.124 9.70415 530.648 10.1666 530.679 10.7524C530.71 11.3381 530.247 11.8622 529.661 11.8931C529.044 11.9239 528.52 11.4615 528.52 10.8757Z" fill="#99DAFF"/>
<path fill-rule="evenodd" clip-rule="evenodd" d="M461.384 35.3857C461.353 34.8924 461.754 34.4608 462.247 34.4608C462.74 34.43 463.172 34.8308 463.172 35.3241C463.203 35.8173 462.802 36.249 462.309 36.249C461.815 36.249 461.414 35.879 461.384 35.3857Z" fill="white"/>
<path fill-rule="evenodd" clip-rule="evenodd" d="M444.33 16.2093C444.299 15.5619 444.792 15.0069 445.44 14.9761C446.088 14.9453 446.643 15.4385 446.673 16.086C446.704 16.7334 446.211 17.2883 445.563 17.3192C444.916 17.35 444.361 16.8567 444.33 16.2093Z" fill="white"/>
<path fill-rule="evenodd" clip-rule="evenodd" d="M470.79 1.41085C470.79 1.10255 471.005 0.855903 471.314 0.825073C471.622 0.825073 471.869 1.04089 471.9 1.34919C471.931 1.65749 471.684 1.90414 471.375 1.93497C471.067 1.93497 470.82 1.71915 470.79 1.41085Z" fill="#99DAFF"/>
<path fill-rule="evenodd" clip-rule="evenodd" d="M707.14 52.4965C707.14 52.2808 707.294 52.1266 707.479 52.1266C707.695 52.1266 707.849 52.2807 707.849 52.4657C707.849 52.6815 707.695 52.8356 707.51 52.8356C707.325 52.8665 707.171 52.7123 707.14 52.4965Z" fill="#99DAFF"/>
<path fill-rule="evenodd" clip-rule="evenodd" d="M187.965 27.4315C187.903 26.26 188.828 25.2734 190 25.2117C191.172 25.1501 192.159 26.075 192.221 27.2465C192.282 28.4181 191.357 29.4046 190.185 29.4663C189.013 29.4971 188.027 28.6031 187.965 27.4315Z" fill="#99DAFF"/>
<path fill-rule="evenodd" clip-rule="evenodd" d="M540.424 14.452C540.393 13.5579 541.071 12.7872 541.997 12.7255C542.891 12.6947 543.662 13.373 543.724 14.2979C543.755 15.1919 543.076 15.9627 542.151 16.0244C541.226 16.0552 540.455 15.3461 540.424 14.452Z" fill="#99DAFF"/>
<path fill-rule="evenodd" clip-rule="evenodd" d="M552.759 37.3897C552.729 36.8656 553.13 36.4032 553.685 36.4032C554.209 36.3723 554.671 36.7731 554.671 37.328C554.702 37.8521 554.301 38.3146 553.746 38.3146C553.222 38.3146 552.79 37.9138 552.759 37.3897Z" fill="#99DAFF"/>
<path fill-rule="evenodd" clip-rule="evenodd" d="M452.995 50.4618C452.965 49.7219 453.52 49.1053 454.26 49.0744C455 49.0436 455.617 49.5986 455.647 50.3385C455.678 51.0784 455.123 51.695 454.383 51.7258C453.674 51.7875 453.057 51.2017 452.995 50.4618Z" fill="white"/>
<path fill-rule="evenodd" clip-rule="evenodd" d="M261.948 33.6284C261.917 32.796 262.534 32.1177 263.366 32.056C264.199 32.0252 264.877 32.6418 264.939 33.4742C264.97 34.3067 264.353 34.9849 263.52 35.0466C262.688 35.1082 262.009 34.4608 261.948 33.6284Z" fill="#99DAFF"/>
<path fill-rule="evenodd" clip-rule="evenodd" d="M564.077 37.6364C564.077 37.328 564.324 37.0506 564.633 37.0197C564.941 37.0197 565.218 37.2356 565.249 37.5747C565.28 37.883 565.003 38.1605 564.694 38.1913C564.386 38.2221 564.108 37.9755 564.077 37.6364Z" fill="white"/>
<path fill-rule="evenodd" clip-rule="evenodd" d="M394.124 8.6251C394.062 7.51522 394.926 6.55948 396.036 6.52865C397.146 6.46699 398.102 7.33024 398.133 8.44013C398.195 9.55002 397.331 10.5058 396.221 10.5366C395.141 10.5982 394.185 9.76582 394.124 8.6251Z" fill="#99DAFF"/>
<path fill-rule="evenodd" clip-rule="evenodd" d="M124.251 40.6269C124.251 40.4111 124.406 40.1953 124.652 40.1953C124.868 40.1953 125.084 40.3494 125.084 40.596C125.084 40.8119 124.93 41.0277 124.683 41.0277C124.467 41.0277 124.282 40.8427 124.251 40.6269Z" fill="white"/>
<path fill-rule="evenodd" clip-rule="evenodd" d="M523.524 16.7026C523.463 15.6236 524.295 14.6987 525.375 14.6678C526.454 14.6062 527.379 15.4386 527.41 16.5176C527.472 17.5967 526.639 18.5216 525.56 18.5524C524.48 18.6141 523.555 17.7817 523.524 16.7026Z" fill="white"/>
<path fill-rule="evenodd" clip-rule="evenodd" d="M174.118 21.6971C174.118 21.4196 174.303 21.2038 174.581 21.173C174.858 21.173 175.074 21.358 175.105 21.6354C175.105 21.9129 174.92 22.1287 174.642 22.1595C174.365 22.1904 174.118 21.9746 174.118 21.6971Z" fill="#99DAFF"/>
<path fill-rule="evenodd" clip-rule="evenodd" d="M787.29 -0.624027C787.229 -1.76475 788.123 -2.72049 789.233 -2.78215C790.374 -2.84381 791.33 -1.94971 791.392 -0.839824C791.454 0.300896 790.559 1.25664 789.449 1.3183C788.308 1.37996 787.352 0.516693 787.29 -0.624027Z" fill="#99DAFF"/>
<path fill-rule="evenodd" clip-rule="evenodd" d="M599.419 25.7667C599.388 24.9652 600.005 24.3177 600.776 24.2561C601.578 24.2252 602.226 24.8418 602.256 25.6126C602.287 26.4142 601.67 27.0616 600.899 27.1232C600.128 27.1541 599.45 26.5375 599.419 25.7667Z" fill="white"/>
<path fill-rule="evenodd" clip-rule="evenodd" d="M710.686 45.0047C710.655 44.3573 711.149 43.8332 711.796 43.8024C712.444 43.7715 712.968 44.2648 712.999 44.9123C713.03 45.5597 712.536 46.0838 711.889 46.1147C711.272 46.1455 710.717 45.6522 710.686 45.0047Z" fill="#99DAFF"/>
<path fill-rule="evenodd" clip-rule="evenodd" d="M220.161 30.8845C220.13 30.3296 220.562 29.898 221.086 29.8671C221.641 29.8363 222.073 30.2679 222.104 30.792C222.135 31.347 221.703 31.7786 221.179 31.8094C220.654 31.8403 220.192 31.4395 220.161 30.8845Z" fill="white"/>
<path fill-rule="evenodd" clip-rule="evenodd" d="M369.206 40.3186C369.144 39.2395 369.977 38.3146 371.056 38.2838C372.136 38.2221 373.061 39.0545 373.092 40.1644C373.153 41.2435 372.321 42.1684 371.21 42.1992C370.193 42.23 369.268 41.3976 369.206 40.3186Z" fill="white"/>
<path fill-rule="evenodd" clip-rule="evenodd" d="M230.677 52.3115C230.646 51.9724 230.924 51.6949 231.263 51.6949C231.602 51.6949 231.88 51.9415 231.88 52.2807C231.88 52.6198 231.633 52.8973 231.294 52.8973C230.954 52.8973 230.677 52.6506 230.677 52.3115Z" fill="#99DAFF"/>
<path fill-rule="evenodd" clip-rule="evenodd" d="M311.136 23.0536C311.105 22.3137 311.66 21.6971 312.4 21.6663C313.141 21.6354 313.757 22.1904 313.788 22.9303C313.819 23.6702 313.264 24.2868 312.524 24.3177C311.784 24.3485 311.167 23.7627 311.136 23.0536Z" fill="#99DAFF"/>
<path fill-rule="evenodd" clip-rule="evenodd" d="M204.865 0.085168C204.865 -0.192302 205.081 -0.438958 205.358 -0.469788C205.636 -0.469788 205.882 -0.253966 205.913 0.0235042C205.913 0.300974 205.697 0.547611 205.42 0.578441C205.111 0.609271 204.865 0.393468 204.865 0.085168Z" fill="#99DAFF"/>
</svg>
