<svg width="40" height="64" viewBox="0 0 40 64" fill="none" xmlns="http://www.w3.org/2000/svg">
<path d="M33 2.5C24.5 9.5 7.00039 47 3.00039 57L1.00039 63.5" fill="url(#paint0_linear_728_292)"/>
<path d="M33 2.5C24.5 9.5 7.00039 47 3.00039 57L1.00039 63.5L39 62.5L39 12.5L33 2.5Z" fill="url(#paint1_linear_728_292)"/>
<path d="M40 64L1 64C1 64 12.53 41.2319 39.01 30.39C39.01 30.39 22.47 13.3464 30.11 4.79215C32.85 1.72388 33.5 1.5 40 0L40 64Z" fill="#FF0000"/>
<defs>
<linearGradient id="paint0_linear_728_292" x1="38.5" y1="33" x2="11.5" y2="36" gradientUnits="userSpaceOnUse">
<stop stop-color="#B01111"/>
<stop offset="1" stop-color="#780505"/>
</linearGradient>
<linearGradient id="paint1_linear_728_292" x1="38.5" y1="33" x2="11.5" y2="36" gradientUnits="userSpaceOnUse">
<stop stop-color="#B01111"/>
<stop offset="1" stop-color="#780505"/>
</linearGradient>
</defs>
</svg>
