<svg width="470" height="62" viewBox="0 0 470 62" fill="none" xmlns="http://www.w3.org/2000/svg">
<g clip-path="url(#clip0_29_682)">
<path d="M1.3923 28.0841C3.43671 26.8066 8.10771 27.8482 9.66908 30.3469C11.2305 32.8457 12.2271 34.4675 10.1827 35.745C8.13826 37.0225 5.06092 36.7008 3.49955 34.2021C1.93817 31.7034 -0.652107 29.3616 1.3923 28.0841Z" fill="white"/>
<path d="M464.806 13.9716C464.318 16.4844 460.126 19.3575 457.055 18.7606C453.984 18.1636 452.003 17.763 452.491 15.2502C452.98 12.7374 455.458 10.5805 458.529 11.1775C461.6 11.7745 465.295 11.4588 464.806 13.9716Z" fill="white"/>
<path d="M422.727 45.6822C424.329 46.6839 425.201 50.3336 423.977 52.2927C422.753 54.2519 421.952 55.5117 420.349 54.51C418.746 53.5084 417.915 51.2292 419.139 49.27C420.364 47.3109 421.124 44.6806 422.727 45.6822Z" fill="white"/>
<path d="M247.396 31.4563C248.133 33.5947 246.195 37.6447 243.581 38.5446C240.968 39.4445 239.275 40.0133 238.538 37.8749C237.802 35.7365 238.746 32.9914 241.359 32.0915C243.973 31.1915 246.66 29.3179 247.396 31.4563Z" fill="white"/>
</g>
<defs>
<clipPath id="clip0_29_682">
<rect width="470" height="62" fill="white"/>
</clipPath>
</defs>
</svg>
