<svg width="454" height="65" viewBox="0 0 454 65" fill="none" xmlns="http://www.w3.org/2000/svg">
<g clip-path="url(#clip0_80_23349)">
<path d="M272.929 52.024C274.634 45.5574 282.283 47.8569 282.844 48.2376C282.965 47.5708 287.485 49.1821 287.485 49.1821C287.485 49.1821 288.626 62.0326 289.824 64.8906C281.446 60.7793 271.713 56.6377 272.929 52.024Z" fill="#FF9EA4"/>
<path d="M272.929 52.024C274.634 45.5574 282.283 47.8569 282.844 48.2376C282.965 47.5708 287.485 49.1821 287.485 49.1821C287.485 49.1821 288.626 62.0326 289.824 64.8906C281.446 60.7793 271.713 56.6377 272.929 52.024Z" fill="#FF9EA4"/>
<path d="M292.49 43.8244C286.684 40.5061 282.961 47.5725 282.839 48.2393C282.708 47.9251 285.509 54.6075 285.509 54.6075C285.509 54.6075 288.622 62.0343 289.82 64.8923C292.762 56.0358 296.633 46.1918 292.49 43.8244Z" fill="#FFD0D3"/>
<path d="M292.49 43.8244C286.684 40.5061 282.961 47.5725 282.839 48.2393C282.708 47.9251 285.509 54.6075 285.509 54.6075C285.509 54.6075 288.622 62.0343 289.82 64.8923C292.762 56.0358 296.633 46.1918 292.49 43.8244Z" fill="#FFD0D3"/>
<path d="M353.682 27.4908C355.792 20.082 364.549 22.9039 365.186 23.355C365.342 22.5899 370.511 24.5481 370.511 24.5481C370.511 24.5481 371.533 39.3735 372.848 42.6921C363.293 37.7671 352.177 32.7766 353.682 27.4908Z" fill="#FFDFE3"/>
<path d="M353.682 27.4908C355.792 20.082 364.549 22.9039 365.186 23.355C365.342 22.5899 370.511 24.5481 370.511 24.5481C370.511 24.5481 371.533 39.3735 372.848 42.6921C363.293 37.7671 352.177 32.7766 353.682 27.4908Z" fill="#FFDFE3"/>
<path d="M376.397 18.4913C369.786 14.5381 365.338 22.5918 365.182 23.3568C365.038 22.992 368.112 30.7515 368.112 30.7515C368.112 30.7515 371.529 39.3754 372.844 42.694C376.433 32.561 381.114 21.3118 376.397 18.4913Z" fill="#FFB4C1"/>
<path d="M376.397 18.4913C369.786 14.5381 365.338 22.5918 365.182 23.3568C365.038 22.992 368.112 30.7515 368.112 30.7515C368.112 30.7515 371.529 39.3754 372.844 42.694C376.433 32.561 381.114 21.3118 376.397 18.4913Z" fill="#FFB4C1"/>
<path fill-rule="evenodd" clip-rule="evenodd" d="M316.539 4.30662C317.01 3.98753 323.171 2.06891 324.611 7.28713C325.539 10.6521 319.237 13.7878 313.034 16.8738L313.034 16.8741L313.033 16.8743C312.363 17.2079 311.694 17.5408 311.035 17.8735C311.034 17.8747 311.034 17.8759 311.033 17.8771C311.033 17.8763 311.033 17.8755 311.032 17.8746C311.032 17.875 311.031 17.8754 311.03 17.8758L311.032 17.8722C310.791 17.1742 310.543 16.4686 310.294 15.7618C307.997 9.22607 305.663 2.58526 308.674 0.818891C313.334 -1.91549 316.413 3.72968 316.539 4.30369C316.539 4.30468 316.539 4.30566 316.539 4.30662Z" fill="#FF868D"/>
<path fill-rule="evenodd" clip-rule="evenodd" d="M143.289 6.41754C143.713 5.96697 146.429 3.90332 148.279 6.28136C149.534 7.89543 146.824 11.0036 144.157 14.0627L144.157 14.0629C143.868 14.3944 143.579 14.7253 143.296 15.0537L143.293 14.5625C143.27 14.7449 143.257 14.9018 143.258 15.027C142.971 14.7024 142.678 14.3752 142.385 14.0476L142.385 14.0474L142.384 14.0472C139.678 11.0229 136.928 7.95005 138.162 6.31986C140.08 3.78725 143.025 6.18048 143.202 6.44909C143.219 6.42364 143.248 6.41404 143.289 6.41754Z" fill="#FFA6AB"/>
<path d="M244.991 6.14654C250.026 3.19223 253.347 9.32383 253.459 9.90463C253.945 9.56679 255.752 13.3464 255.752 13.3464C255.752 13.3464 248.549 22.0043 247.531 24.5111C244.875 16.8091 241.398 8.2543 244.991 6.14654Z" fill="#FFE0EF"/>
<path d="M244.991 6.14654C250.026 3.19223 253.347 9.32383 253.459 9.90463C253.945 9.56679 255.752 13.3464 255.752 13.3464C255.752 13.3464 248.549 22.0043 247.531 24.5111C244.875 16.8091 241.398 8.2543 244.991 6.14654Z" fill="#FFE0EF"/>
<path d="M262.148 13.1102C260.596 7.48208 253.942 9.56542 253.456 9.90326C253.568 9.62767 251.189 15.4888 251.189 15.4888C251.189 15.4888 248.545 22.003 247.528 24.5097C254.801 20.8376 263.256 17.1255 262.148 13.1102Z" fill="#FFBCCC"/>
<path d="M262.148 13.1102C260.596 7.48208 253.942 9.56542 253.456 9.90326C253.568 9.62767 251.189 15.4888 251.189 15.4888C251.189 15.4888 248.545 22.003 247.528 24.5097C254.801 20.8376 263.256 17.1255 262.148 13.1102Z" fill="#FFBCCC"/>
<path d="M441.784 20.4131C442.8 16.8031 447.068 18.1645 447.379 18.3832C447.453 18.0105 449.972 18.9565 449.972 18.9565C449.972 18.9565 450.491 26.1729 451.136 27.7867C446.477 25.4025 441.058 22.9886 441.784 20.4131Z" fill="#FFECEC"/>
<path d="M441.784 20.4131C442.8 16.8031 447.068 18.1645 447.379 18.3832C447.453 18.0105 449.972 18.9565 449.972 18.9565C449.972 18.9565 450.491 26.1729 451.136 27.7867C446.477 25.4025 441.058 22.9886 441.784 20.4131Z" fill="#FFECEC"/>
<path d="M452.83 15.9993C449.605 14.0841 447.451 18.0113 447.377 18.3841C447.306 18.2066 448.813 21.98 448.813 21.98C448.813 21.98 450.489 26.1737 451.134 27.7876C452.867 22.8492 455.13 17.3658 452.83 15.9993Z" fill="#FFD2D2"/>
<path d="M452.83 15.9993C449.605 14.0841 447.451 18.0113 447.377 18.3841C447.306 18.2066 448.813 21.98 448.813 21.98C448.813 21.98 450.489 26.1737 451.134 27.7876C452.867 22.8492 455.13 17.3658 452.83 15.9993Z" fill="#FFD2D2"/>
<path d="M1.26352 50.0417C3.38398 48.6695 4.9351 51.2567 4.99489 51.5056C5.19843 51.3504 6.05085 52.9498 6.05085 52.9498C6.05085 52.9498 3.10156 56.8282 2.7093 57.9309C1.41536 54.6524 -0.249318 51.0208 1.26352 50.0417Z" fill="#FFECEC"/>
<path d="M1.26352 50.0417C3.38398 48.6695 4.9351 51.2567 4.99489 51.5056C5.19843 51.3504 6.05085 52.9498 6.05085 52.9498C6.05085 52.9498 3.10156 56.8282 2.7093 57.9309C1.41536 54.6524 -0.249318 51.0208 1.26352 50.0417Z" fill="#FFECEC"/>
<path d="M8.81109 52.7265C8.03359 50.3234 5.19702 51.3499 4.99348 51.5051C5.03661 51.3838 4.11945 53.9621 4.11945 53.9621C4.11945 53.9621 3.10014 56.8277 2.70789 57.9304C5.78164 56.2055 9.3658 54.441 8.81109 52.7265Z" fill="#FFD2D2"/>
<path d="M8.81109 52.7265C8.03359 50.3234 5.19702 51.3499 4.99348 51.5051C5.03661 51.3838 4.11945 53.9621 4.11945 53.9621C4.11945 53.9621 3.10014 56.8277 2.70789 57.9304C5.78164 56.2055 9.3658 54.441 8.81109 52.7265Z" fill="#FFD2D2"/>
<path d="M420.872 47.9346C424.259 44.2099 428.566 48.4053 428.808 48.8545C429.121 48.4516 431.578 51.0993 431.578 51.0993C431.578 51.0993 427.871 60.0759 427.677 62.4007C423.513 56.742 418.455 50.592 420.872 47.9346Z" fill="#FFECEC"/>
<path d="M420.872 47.9346C424.259 44.2099 428.566 48.4053 428.808 48.8545C429.121 48.4516 431.578 51.0993 431.578 51.0993C431.578 51.0993 427.871 60.0759 427.677 62.4007C423.513 56.742 418.455 50.592 420.872 47.9346Z" fill="#FFECEC"/>
<path d="M436.784 49.2628C434.061 45.0281 429.118 48.4513 428.805 48.8541C428.826 48.5985 428.372 54.0342 428.372 54.0342C428.372 54.0342 427.868 60.0755 427.674 62.4003C432.718 57.5104 438.726 52.2841 436.784 49.2628Z" fill="#FFD2D2"/>
<path d="M436.784 49.2628C434.061 45.0281 429.118 48.4513 428.805 48.8541C428.826 48.5985 428.372 54.0342 428.372 54.0342C428.372 54.0342 427.868 60.0755 427.674 62.4003C432.718 57.5104 438.726 52.2841 436.784 49.2628Z" fill="#FFD2D2"/>
</g>
<defs>
<clipPath id="clip0_80_23349">
<rect width="454" height="65" fill="white"/>
</clipPath>
</defs>
</svg>
