<svg width="14" height="13" viewBox="0 0 14 13" fill="none" xmlns="http://www.w3.org/2000/svg">
<g clip-path="url(#clip0_80_23419)">
<path d="M12.4013 2.36411L12.4013 2.36415L12.4085 2.37147C13.0163 2.99033 13.1375 3.73099 12.8587 4.68468C12.5649 5.68948 11.8454 6.81578 10.9184 7.92756C9.55136 9.56707 7.8844 10.9993 6.98919 11.7253C6.10008 10.9998 4.44515 9.56806 3.08512 7.92932C2.16247 6.81759 1.44336 5.68982 1.14599 4.68222C0.86314 3.72382 0.980295 2.98253 1.57052 2.36768C2.38903 1.53464 3.05748 1.18563 3.55793 1.06108C4.04418 0.940077 4.4482 1.01133 4.79507 1.16696C5.55414 1.50754 6.04535 2.25654 6.13469 2.40253L6.98765 3.79632L7.8406 2.40253C7.9221 2.26936 8.43114 1.51214 9.20411 1.16824C9.55837 1.01063 9.96515 0.940508 10.4464 1.06082C10.9414 1.18457 11.6004 1.53169 12.4013 2.36411Z" stroke="white" stroke-width="2"/>
</g>
<defs>
<clipPath id="clip0_80_23419">
<rect width="14" height="13" fill="white"/>
</clipPath>
</defs>
</svg>
