<svg xmlns="http://www.w3.org/2000/svg" xmlns:xlink="http://www.w3.org/1999/xlink" width="116" height="116" viewBox="0 0 116 116"><defs><style>.a{fill:#fff;}.b{fill:#1296e6;}.c{fill:#f2f2f2;}.d{fill:#9e9e9e;}.e{fill:#1e72d2;}.f{fill:#b3b3b3;}.g{fill:#f7fafa;}.h{filter:url(#c);}.i{filter:url(#a);}</style><filter id="a" x="0" y="0" width="116" height="116" filterUnits="userSpaceOnUse"><feOffset input="SourceAlpha"/><feGaussianBlur stdDeviation="6" result="b"/><feFlood flood-opacity="0.078"/><feComposite operator="in" in2="b"/><feComposite in="SourceGraphic"/></filter><filter id="c" x="29.678" y="27.114" width="56.644" height="66.817" filterUnits="userSpaceOnUse"><feOffset dy="3" input="SourceAlpha"/><feGaussianBlur stdDeviation="3" result="d"/><feFlood flood-opacity="0.161"/><feComposite operator="in" in2="d"/><feComposite in="SourceGraphic"/></filter></defs><g transform="translate(26.327 23.327)"><g class="i" transform="matrix(1, 0, 0, 1, -26.33, -23.33)"><path class="a" d="M40,0A40,40,0,1,1,0,40,40,40,0,0,1,40,0Z" transform="translate(18 18)"/></g><g transform="translate(7.366 15.927)"><path class="b" d="M110.256,144.156H61.643L85.95,129.837Z" transform="translate(-61.643 -129.837)"/><path class="b" d="M61.641,244.56h48.613V273.2H61.641Z" transform="translate(-61.641 -230.242)"/></g><g class="h" transform="matrix(1, 0, 0, 1, -26.33, -23.33)"><path class="c" d="M101.578,77.635h30.584l8.06,7.933v40.884H101.578V77.635Z" transform="translate(-62.9 -44.52)"/></g><path class="d" d="M148.144,162.641h26.921v.607H148.144Zm0,6.54h26.921v.608H148.144Zm0,1.126h26.921v.607H148.144Zm0,1.126h26.921v.607H148.144Zm0,1.126h26.923v.607H148.144Zm0-8.793h26.921v.607H148.144Zm0,1.126h26.921v.607H148.144Zm0,1.126h26.923v.607H148.144Zm0,1.126h20.622v.607H148.144Zm0,6.54h20.622v.607H148.144Z" transform="translate(-129.933 -142.547)"/><path class="e" d="M346.01,77.635v8.039h8.039Z" transform="translate(-303.214 -68.064)"/><path class="f" d="M218.214,426.22h9.135v.892h-9.135Z" transform="translate(-191.256 -373.407)"/><g transform="translate(7.366 30.169)"><path class="b" d="M61.641,244.56,85.9,258.878,61.641,273.2Z" transform="translate(-61.641 -244.56)"/><path class="b" d="M280.259,244.56,256,258.878,280.259,273.2Z" transform="translate(-231.645 -244.56)"/></g><path class="e" d="M85.62,359.283,61.641,373.6H109.6Z" transform="translate(-53.948 -314.839)"/><path class="g" d="M354.049,150.085v-8.039H346.01Z" transform="translate(-303.214 -124.494)"/></g></svg>