<svg xmlns="http://www.w3.org/2000/svg" xmlns:xlink="http://www.w3.org/1999/xlink" width="85" height="85" viewBox="0 0 85 85"><defs><style>.a{fill:none;}.b{clip-path:url(#a);}.c{fill:#43575e;}.d{fill:#fb8a29;}</style><clipPath id="a"><rect class="a" width="83.79" height="63.84"/></clipPath></defs><g transform="translate(0 3)"><rect class="a" width="85" height="85" transform="translate(0 -3)"/><g transform="translate(1 8)"><g class="b"><path class="c" d="M57.064,8.145l-4.271,7.389L48.52,8.145C41.152,9.7,41.857,16.726,28.151,19.851c-3.817.871-3.074,4.349.28,4.01a28.388,28.388,0,0,0,15.737-6.292L45.4,32.678l-.768,22.935c-.033,2.036,1.195,3.038,2.46,3.038a2.641,2.641,0,0,0,2.616-2.529l2.521-19.29H53.35l2.521,19.29a2.641,2.641,0,0,0,2.616,2.529c1.267,0,2.495-1,2.46-3.038l-.768-22.935,1.236-15.109c2.089,2.969,1.806,11.845,1.806,14.114,0,3.174,3.529,3.752,3.983-.539,1.467-13.9-2.771-21.441-10.139-23" transform="translate(16.298 5.188)"/><path class="c" d="M44.286,12.135c2.948,0,5.338-2.717,5.338-6.068S47.234,0,44.286,0s-5.34,2.716-5.34,6.066,2.39,6.068,5.34,6.068" transform="translate(24.806)"/><path class="d" d="M44.48,8.357c0-.481-.732-.406-1.635-.406s-1.637-.075-1.637.406a1.643,1.643,0,0,0,1,1.192l-.758,2.557,1.4,2.483,1.4-2.483-.756-2.557a1.643,1.643,0,0,0,1-1.192" transform="translate(26.247 5.061)"/><path class="c" d="M10.429,8.145,14.7,15.534l4.272-7.389c7.369,1.558,6.664,8.581,20.37,11.706,3.816.871,3.074,4.349-.282,4.01a28.385,28.385,0,0,1-15.736-6.292L22.088,32.678l.768,22.935c.033,2.036-1.2,3.038-2.46,3.038a2.639,2.639,0,0,1-2.616-2.529l-2.523-19.29H14.143L11.62,56.122A2.639,2.639,0,0,1,9,58.651c-1.265,0-2.493-1-2.459-3.038l.766-22.935L6.076,17.569C3.989,20.538,4.271,29.414,4.271,31.682c0,3.174-3.529,3.752-3.981-.539-1.468-13.9,2.77-21.441,10.139-23" transform="translate(0 5.188)"/><path class="c" d="M11.058,12.135c-2.948,0-5.34-2.717-5.34-6.068S8.11,0,11.058,0,16.4,2.716,16.4,6.066s-2.39,6.068-5.34,6.068" transform="translate(3.642)"/><path class="d" d="M7.981,8.357c0-.481.732-.406,1.635-.406s1.635-.075,1.635.406a1.641,1.641,0,0,1-.994,1.192l.758,2.557-1.4,2.483-1.4-2.483.755-2.557a1.644,1.644,0,0,1-.994-1.192" transform="translate(5.083 5.061)"/><path class="c" d="M43.421,21.848H25.053l-8.132,8.208V47.808a1.915,1.915,0,0,0,1.912,1.914H43.421a1.915,1.915,0,0,0,1.912-1.914V23.76a1.914,1.914,0,0,0-1.912-1.912m.964,25.962a.967.967,0,0,1-.966.966H18.833a.967.967,0,0,1-.966-.966V30.447H22.7A2.747,2.747,0,0,0,25.449,27.7V22.794H43.42a.965.965,0,0,1,.966.966Z" transform="translate(10.778 13.916)"/><rect class="d" width="14.945" height="2.318" transform="translate(34.431 45.099)"/><rect class="d" width="8.945" height="2.318" transform="translate(34.431 50.099)"/><rect class="d" width="8.945" height="2.318" transform="translate(34.431 54.099)"/><rect class="d" width="8.945" height="2.318" transform="translate(34.431 58.099)"/><path class="d" d="M32.221,30.307l.76,1.149,1.231-.615.083,1.375,1.373.083-.615,1.231,1.151.76-1.151.758.615,1.233-1.373.082-.083,1.375-1.231-.615-.76,1.149-.76-1.149-1.233.615-.082-1.375-1.373-.082.615-1.233-1.151-.758,1.151-.76L28.774,32.3l1.373-.083.082-1.375,1.233.615Z" transform="translate(17.986 19.304)"/></g></g></g></svg>