<svg width="47" height="38" viewBox="0 0 47 38" fill="none" xmlns="http://www.w3.org/2000/svg">
<g clip-path="url(#clip0)">
<path d="M43.7613 5.88387H2.32903C1.10323 5.88387 0 4.78065 0 3.55484V2.32903C0 1.10323 1.10323 0 2.32903 0H43.7613C45.1097 0 46.0903 1.10323 46.0903 2.32903V3.43226C46.0903 4.78065 44.9871 5.88387 43.7613 5.88387Z" fill="#32393E"/>
<path d="M41.6775 32.3613H4.41302C3.06463 32.3613 2.08398 31.258 2.08398 30.0322V6.25159H44.1291V29.9097C44.1291 31.258 43.0259 32.3613 41.6775 32.3613Z" fill="#32393E"/>
<path d="M15.1999 38C14.8322 38 14.3418 37.8775 13.9741 37.6323C13.4838 37.2646 13.116 36.7742 13.116 36.1613C12.9935 35.5484 13.116 35.0581 13.4838 34.5678C14.3418 33.4646 15.1999 32.3613 16.058 31.2581L17.7741 29.0517C17.7741 29.0517 17.7741 29.0517 17.7741 28.9291C18.2644 26.9678 18.7547 25.0065 19.3676 23.0452C19.6128 22.3097 19.7354 21.4517 19.9806 20.7162C19.9806 20.7162 20.3483 19.2452 20.3483 19.1226C20.1031 19.2452 19.858 19.3678 19.6128 19.4904C19.6128 19.4904 19.6128 19.4904 19.4902 19.6129C18.9999 20.8387 18.5096 22.0646 17.8967 23.2904L17.7741 23.5355C17.5289 24.271 16.7935 24.6388 16.058 24.6388H15.9354C15.3225 24.6388 14.8322 24.271 14.4644 23.7807C14.0967 23.2904 14.0967 22.6775 14.3418 22.0646C14.4644 21.6968 14.7096 21.3291 14.8322 20.8387L16.3031 17.4065C16.5483 16.9162 16.7935 16.5484 17.2838 16.4258L22.5547 13.7291C23.0451 13.4839 23.4128 13.3613 23.9031 13.3613C25.0064 13.3613 25.987 13.9742 26.3547 15.0775C26.7225 15.9355 27.0902 16.671 27.3354 17.5291C27.7031 18.3871 28.0709 19.1226 28.316 19.9807C28.316 19.9807 28.316 19.9807 28.4386 20.1033C29.0515 20.3484 29.6644 20.7162 30.3999 20.9613L31.5031 21.4517C31.9935 21.6968 32.3612 22.1871 32.6064 22.6775C32.8515 23.4129 32.6064 24.1484 31.8709 24.6388C31.5031 24.8839 31.1354 25.0065 30.7676 25.0065C30.5225 25.0065 30.2773 25.0065 29.9096 24.8839C29.6644 24.7613 29.2967 24.6387 29.0515 24.5162L27.9483 24.0258C27.458 23.7807 26.9676 23.5355 26.3547 23.2904C25.7418 23.0452 25.2515 22.5549 25.1289 21.942C25.0064 22.5549 24.8838 23.1678 24.6386 23.7807C25.2515 24.6387 27.9483 27.9484 27.9483 27.9484C28.316 28.3162 28.4386 28.8065 28.4386 29.2968C28.4386 29.9097 28.5612 30.5226 28.5612 31.0129L28.6838 32.8517C28.8064 33.7097 28.8064 34.5678 28.9289 35.5484C28.9289 36.1613 28.8064 36.7742 28.4386 37.142C28.0709 37.6323 27.5806 37.8775 26.9676 37.8775H26.8451C25.7418 37.8775 24.8838 37.0194 24.7612 35.9162C24.6386 33.9549 24.3935 32.1162 24.2709 30.1549C23.658 29.542 23.1676 28.8065 22.5547 28.071L22.3096 27.8258C22.187 28.3162 22.0644 28.8065 21.9418 29.2968C21.6967 30.4 21.3289 31.1355 20.716 31.871C20.3483 32.3613 19.9806 32.8517 19.6128 33.342C19.4902 33.5871 19.2451 33.8323 19.1225 34.0775L18.5096 34.8129C17.8967 35.5484 17.2838 36.4065 16.6709 37.142C16.5483 37.6323 15.9354 38 15.1999 38Z" fill="white"/>
<path d="M31.8709 23.0453C31.7483 22.6775 31.5031 22.4324 31.258 22.3098C30.2773 21.8194 29.2967 21.3291 28.3161 20.9614C28.0709 20.8388 27.9483 20.7162 27.8257 20.4711C27.0902 18.8775 26.4773 17.1614 25.7419 15.5678C25.2515 14.4646 24.1483 13.9743 23.0451 14.5872C21.329 15.4453 19.4902 16.4259 17.7741 17.284C17.529 17.4065 17.2838 17.6517 17.1612 17.8969C16.7935 18.8775 16.3031 19.9807 15.9354 20.9614C15.6902 21.4517 15.5677 21.942 15.3225 22.4324C15.0773 23.1678 15.4451 23.9033 16.3031 24.0259C16.7935 24.0259 17.2838 23.7807 17.4064 23.2904C17.8967 21.942 18.5096 20.7162 18.9999 19.3678C19.1225 19.1227 19.2451 19.0001 19.4902 18.8775C20.1031 18.6324 20.7161 18.2646 21.329 17.8969C21.4515 17.8969 21.5741 17.7743 21.6967 17.6517C21.5741 18.3872 21.329 19.0001 21.2064 19.613C20.8386 20.8388 20.5935 22.0646 20.3483 23.2904C19.858 25.2517 19.3677 27.213 18.7548 29.1743C18.7548 29.2969 18.6322 29.4194 18.6322 29.542C17.1612 31.3807 15.8128 33.2194 14.3419 35.0582C13.8515 35.6711 13.9741 36.5291 14.587 37.0194C15.1999 37.3872 15.9354 37.2646 16.4257 36.6517C17.1612 35.6711 18.0193 34.6904 18.7548 33.5872C19.3677 32.8517 19.858 32.1162 20.4709 31.3807C21.0838 30.7678 21.329 30.0324 21.5741 29.1743C21.8193 28.1936 22.0644 27.3356 22.3096 26.3549C22.3096 26.3549 22.3096 26.2324 22.4322 26.2324C22.4322 26.3549 22.5548 26.3549 22.5548 26.4775C23.4128 27.5807 24.3935 28.684 25.2515 29.7872C25.3741 29.9098 25.3741 30.0324 25.3741 30.1549C25.6193 32.1162 25.7419 33.9549 25.8644 35.9162C25.987 36.6517 26.5999 37.2646 27.3354 37.142C28.0709 37.142 28.6838 36.4065 28.5612 35.6711C28.316 34.3227 28.1935 33.0969 28.0709 31.7485C27.9483 31.013 27.9483 30.1549 27.8257 29.4194C27.8257 29.0517 27.7031 28.8065 27.458 28.4388C26.3548 27.0904 25.2515 25.6194 24.1483 24.2711C24.0257 24.0259 23.9031 23.9033 24.0257 23.5356C24.2709 22.5549 24.5161 21.5743 24.7612 20.5936C24.8838 20.2259 24.8838 19.8582 25.0064 19.4904C25.129 19.613 25.129 19.7356 25.129 19.7356C25.3741 20.3485 25.6193 20.9614 25.8644 21.5743C25.987 22.0646 26.3548 22.3098 26.7225 22.4324C27.458 22.8001 28.1935 23.1678 28.929 23.5356C29.2967 23.7807 29.787 23.9033 30.1548 24.1485C30.5225 24.2711 30.8902 24.2711 31.258 24.0259C31.8709 23.9033 31.9935 23.413 31.8709 23.0453Z" fill="#FC4B15"/>
<path d="M25.129 14.4646C23.2903 14.4646 21.8193 12.9936 21.8193 11.1549C21.8193 10.2968 22.1871 9.43876 22.8 8.82586C23.4129 8.21296 24.271 7.84521 25.129 7.84521C26.9677 7.84521 28.4387 9.31618 28.4387 11.1549C28.4387 12.871 26.9677 14.4646 25.129 14.4646Z" fill="white"/>
<path d="M25.1289 13.6065C26.4773 13.6065 27.7031 12.5033 27.7031 11.0323C27.7031 9.68394 26.5999 8.45813 25.1289 8.45813C23.7805 8.45813 22.5547 9.56136 22.5547 11.0323C22.6773 12.5033 23.7805 13.6065 25.1289 13.6065Z" fill="#FC4B15"/>
</g>
<defs>
<clipPath id="clip0">
<rect width="46.0903" height="38" fill="white"/>
</clipPath>
</defs>
</svg>
