<svg width="40" height="38" viewBox="0 0 40 38" fill="none" xmlns="http://www.w3.org/2000/svg">
<g clip-path="url(#clip0)">
<path d="M27.4517 37.2374C33.6986 37.2374 38.7627 32.1733 38.7627 25.9264C38.7627 19.6795 33.6986 14.6154 27.4517 14.6154C21.2047 14.6154 16.1406 19.6795 16.1406 25.9264C16.1406 32.1733 21.2047 37.2374 27.4517 37.2374Z" fill="#32393E" stroke="white" stroke-miterlimit="10"/>
<path d="M20.0803 22.6221C26.3272 22.6221 31.3914 17.558 31.3914 11.311C31.3914 5.06412 26.3272 0 20.0803 0C13.8334 0 8.76929 5.06412 8.76929 11.311C8.76929 17.558 13.8334 22.6221 20.0803 22.6221Z" fill="white"/>
<path d="M20.0802 21.3511C25.6252 21.3511 30.1203 16.856 30.1203 11.311C30.1203 5.766 25.6252 1.27087 20.0802 1.27087C14.5352 1.27087 10.04 5.766 10.04 11.311C10.04 16.856 14.5352 21.3511 20.0802 21.3511Z" fill="#FC4B15"/>
<path d="M11.9465 37.2374C18.1935 37.2374 23.2576 32.1733 23.2576 25.9264C23.2576 19.6795 18.1935 14.6154 11.9465 14.6154C5.69962 14.6154 0.635498 19.6795 0.635498 25.9264C0.635498 32.1733 5.69962 37.2374 11.9465 37.2374Z" stroke="white" stroke-miterlimit="10"/>
<path d="M16.0134 25.9264C16.0134 29.2308 17.4114 32.1538 19.699 34.3144C21.9867 32.2809 23.3847 29.2308 23.3847 25.9264C23.3847 22.6221 21.9867 19.699 19.699 17.5385C17.4114 19.699 16.0134 22.6221 16.0134 25.9264Z" fill="#32393E" stroke="white" stroke-miterlimit="10"/>
<path d="M11.9466 35.9665C17.4916 35.9665 21.9868 31.4714 21.9868 25.9264C21.9868 20.3814 17.4916 15.8862 11.9466 15.8862C6.40161 15.8862 1.90649 20.3814 1.90649 25.9264C1.90649 31.4714 6.40161 35.9665 11.9466 35.9665Z" stroke="#32393E" stroke-miterlimit="10"/>
</g>
<defs>
<clipPath id="clip0">
<rect width="39.398" height="38" fill="white"/>
</clipPath>
</defs>
</svg>
