<svg width="37" height="39" viewBox="0 0 37 39" fill="none" xmlns="http://www.w3.org/2000/svg">
<g clip-path="url(#clip0)">
<path d="M35.4275 6.99618H1.48855V32.1527H35.4275V6.99618ZM5.35878 5.20992C5.50763 5.20992 5.50763 5.06107 5.50763 5.06107V1.78626C5.50763 1.6374 5.35878 1.6374 5.35878 1.6374H2.08397C1.93511 1.6374 1.93511 1.78626 1.93511 1.78626V5.06107C1.93511 5.20992 2.08397 5.20992 2.08397 5.20992H5.35878ZM11.1641 5.20992C11.313 5.20992 11.313 5.06107 11.313 5.06107V1.78626C11.313 1.6374 11.1641 1.6374 11.1641 1.6374H7.88931C7.74046 1.6374 7.74046 1.78626 7.74046 1.78626V5.06107C7.74046 5.20992 7.88931 5.20992 7.88931 5.20992H11.1641ZM16.9695 5.20992C17.1183 5.20992 17.1183 5.06107 17.1183 5.06107V1.78626C17.1183 1.6374 16.9695 1.6374 16.9695 1.6374H13.8435C13.6947 1.6374 13.6947 1.78626 13.6947 1.78626V5.06107C13.6947 5.20992 13.8435 5.20992 13.8435 5.20992H16.9695ZM22.9237 5.20992C23.0725 5.20992 23.0725 5.06107 23.0725 5.06107V1.78626C23.0725 1.6374 22.9237 1.6374 22.9237 1.6374H19.6489C19.5 1.6374 19.5 1.78626 19.5 1.78626V5.06107C19.5 5.20992 19.6489 5.20992 19.6489 5.20992H22.9237ZM28.729 5.20992C28.8779 5.20992 28.8779 5.06107 28.8779 5.06107V1.78626C28.8779 1.6374 28.729 1.6374 28.729 1.6374H25.4542C25.3053 1.6374 25.3053 1.78626 25.3053 1.78626V5.06107C25.3053 5.20992 25.4542 5.20992 25.4542 5.20992H28.729ZM34.8321 5.06107V1.78626C34.8321 1.6374 34.6832 1.6374 34.6832 1.6374H31.4084C31.2595 1.6374 31.2595 1.78626 31.2595 1.78626V5.06107C31.2595 5.20992 31.4084 5.20992 31.4084 5.20992H34.6832L34.8321 5.06107ZM0 39V0H36.7672V39H0ZM34.6832 33.4924H31.4084C31.2595 33.4924 31.2595 33.6412 31.2595 33.6412V36.916C31.2595 37.0649 31.4084 37.0649 31.4084 37.0649H34.6832C34.8321 37.0649 34.8321 36.916 34.8321 36.916V33.6412L34.6832 33.4924ZM28.729 33.4924H25.4542C25.3053 33.4924 25.3053 33.6412 25.3053 33.6412V36.916C25.3053 37.0649 25.4542 37.0649 25.4542 37.0649H28.729C28.8779 37.0649 28.8779 36.916 28.8779 36.916V33.6412C29.0267 33.6412 28.8779 33.4924 28.729 33.4924ZM22.9237 33.4924H19.6489C19.5 33.4924 19.5 33.6412 19.5 33.6412V36.916C19.5 37.0649 19.6489 37.0649 19.6489 37.0649H22.9237C23.0725 37.0649 23.0725 36.916 23.0725 36.916V33.6412C23.0725 33.6412 23.0725 33.4924 22.9237 33.4924ZM16.9695 33.4924H13.8435C13.6947 33.4924 13.6947 33.6412 13.6947 33.6412V36.916C13.6947 37.0649 13.8435 37.0649 13.8435 37.0649H17.1183C17.2672 37.0649 17.2672 36.916 17.2672 36.916V33.6412C17.2672 33.6412 17.1183 33.4924 16.9695 33.4924ZM11.1641 33.4924H7.88931C7.74046 33.4924 7.74046 33.6412 7.74046 33.6412V36.916C7.74046 37.0649 7.88931 37.0649 7.88931 37.0649H11.1641C11.313 37.0649 11.313 36.916 11.313 36.916V33.6412C11.313 33.6412 11.313 33.4924 11.1641 33.4924ZM2.08397 33.4924C1.93511 33.4924 1.93511 33.6412 1.93511 33.6412V36.916C1.93511 37.0649 2.08397 37.0649 2.08397 37.0649H5.35878C5.50763 37.0649 5.50763 36.916 5.50763 36.916V33.6412C5.50763 33.4924 5.35878 33.4924 5.35878 33.4924H2.08397Z" fill="#32393E"/>
<path d="M5.06101 4.76341V1.93516H2.23277V4.76341H5.06101ZM5.35872 5.20997H2.08391C1.93506 5.20997 1.93506 5.06112 1.93506 5.06112V1.78631C1.93506 1.63745 2.08391 1.63745 2.08391 1.63745H5.35872C5.50758 1.63745 5.50758 1.78631 5.50758 1.78631V5.06112L5.35872 5.20997Z" fill="#32393E"/>
<path d="M11.0158 4.76341V1.93516H8.18753V4.76341H11.0158ZM11.1646 5.20997H7.88982C7.74097 5.20997 7.74097 5.06112 7.74097 5.06112V1.78631C7.74097 1.63745 7.88982 1.63745 7.88982 1.63745H11.1646C11.3135 1.63745 11.3135 1.78631 11.3135 1.78631V5.06112C11.3135 5.06112 11.3135 5.20997 11.1646 5.20997Z" fill="#32393E"/>
<path d="M16.8205 4.76341V1.93516H13.9923V4.76341H16.8205ZM16.9694 5.20997H13.8434C13.6946 5.20997 13.6946 5.06112 13.6946 5.06112V1.78631C13.6946 1.63745 13.8434 1.63745 13.8434 1.63745H17.1182C17.2671 1.63745 17.2671 1.78631 17.2671 1.78631V5.06112C17.2671 5.06112 17.1182 5.20997 16.9694 5.20997Z" fill="#32393E"/>
<path d="M22.626 4.76341V1.93516H19.7977V4.76341H22.626ZM22.9237 5.20997H19.6489C19.5 5.20997 19.5 5.06112 19.5 5.06112V1.78631C19.5 1.63745 19.6489 1.63745 19.6489 1.63745H22.9237C23.0725 1.63745 23.0725 1.78631 23.0725 1.78631V5.06112C23.0725 5.06112 23.0725 5.20997 22.9237 5.20997Z" fill="#32393E"/>
<path d="M25.752 1.93516V4.76341H28.5802V1.93516H25.752ZM28.7291 5.20997H25.4543C25.3054 5.20997 25.3054 5.06112 25.3054 5.06112V1.78631C25.3054 1.63745 25.4543 1.63745 25.4543 1.63745H28.7291C28.8779 1.63745 28.8779 1.78631 28.8779 1.78631V5.06112C29.0268 5.06112 28.8779 5.20997 28.7291 5.20997Z" fill="#32393E"/>
<path d="M34.385 1.93516H31.5567V4.76341H34.385V1.93516ZM34.8316 1.78631V5.06112C34.8316 5.20997 34.6827 5.20997 34.6827 5.20997H31.4079C31.259 5.20997 31.259 5.06112 31.259 5.06112V1.78631C31.259 1.63745 31.4079 1.63745 31.4079 1.63745H34.6827C34.6827 1.63745 34.8316 1.63745 34.8316 1.78631Z" fill="#32393E"/>
<path d="M5.06115 33.939H2.2329V36.7672H5.06115V33.939ZM2.08405 33.4924H5.35886C5.50771 33.4924 5.50771 33.6413 5.50771 33.6413V36.9161C5.50771 37.0649 5.35886 37.0649 5.35886 37.0649H2.08405C1.93519 37.0649 1.93519 36.9161 1.93519 36.9161V33.6413C1.78634 33.6413 1.93519 33.4924 2.08405 33.4924Z" fill="#32393E"/>
<path d="M11.0158 33.939H8.18753V36.7672H11.0158V33.939ZM7.88982 33.4924H11.1646C11.3135 33.4924 11.3135 33.6413 11.3135 33.6413V36.9161C11.3135 37.0649 11.1646 37.0649 11.1646 37.0649H7.88982C7.74097 37.0649 7.74097 36.9161 7.74097 36.9161V33.6413C7.74097 33.6413 7.74097 33.4924 7.88982 33.4924Z" fill="#32393E"/>
<path d="M16.8207 33.939H13.9924V36.7672H16.8207V33.939ZM13.8436 33.4924H17.1184C17.2672 33.4924 17.2672 33.6413 17.2672 33.6413V36.9161C17.2672 37.0649 17.1184 37.0649 17.1184 37.0649H13.8436C13.6947 37.0649 13.6947 36.9161 13.6947 36.9161V33.6413C13.5459 33.6413 13.6947 33.4924 13.8436 33.4924Z" fill="#32393E"/>
<path d="M22.626 33.939H19.7977V36.7672H22.626V33.939ZM19.6489 33.4924H22.9237C23.0725 33.4924 23.0725 33.6413 23.0725 33.6413V36.9161C23.0725 37.0649 22.9237 37.0649 22.9237 37.0649H19.6489C19.5 37.0649 19.5 36.9161 19.5 36.9161V33.6413C19.5 33.6413 19.5 33.4924 19.6489 33.4924Z" fill="#32393E"/>
<path d="M28.5802 33.939H25.752V36.7672H28.5802V33.939ZM25.4543 33.4924H28.7291C28.8779 33.4924 28.8779 33.6413 28.8779 33.6413V36.9161C28.8779 37.0649 28.7291 37.0649 28.7291 37.0649H25.4543C25.3054 37.0649 25.3054 36.9161 25.3054 36.9161V33.6413L25.4543 33.4924Z" fill="#32393E"/>
<path d="M34.3856 33.939H31.5574V36.7672H34.3856V33.939ZM31.4085 33.4924H34.6833C34.8322 33.4924 34.8322 33.6413 34.8322 33.6413V36.9161C34.8322 37.0649 34.6833 37.0649 34.6833 37.0649H31.4085C31.2597 37.0649 31.2597 36.9161 31.2597 36.9161V33.6413C31.1108 33.6413 31.2597 33.4924 31.4085 33.4924Z" fill="#32393E"/>
<path d="M25.321 28.5962L25.321 10.7336H20.8554L20.8554 28.5962H25.321Z" fill="#FC4B15"/>
<path d="M16.3899 28.5962L16.3899 10.7336H11.9242L11.9242 28.5962H16.3899Z" fill="#FC4B15"/>
</g>
<defs>
<clipPath id="clip0">
<rect width="36.7672" height="39" fill="white"/>
</clipPath>
</defs>
</svg>
