<svg width="39" height="38" viewBox="0 0 39 38" fill="none" xmlns="http://www.w3.org/2000/svg">
<g clip-path="url(#clip0)">
<path d="M34.4758 0C33.25 1.22581 32.0242 2.29839 30.7984 3.52419C26.5081 7.66129 22.2178 11.7984 17.9274 16.0887C17.3145 16.7016 16.8549 17.1613 16.242 17.7742C14.8629 19.3065 14.8629 21.4516 16.3952 23.1371C17.7742 24.6694 20.0726 24.6694 21.6049 23.4435C22.2178 22.9839 22.6774 22.2177 23.1371 21.6048C26.0484 16.2419 28.9597 10.879 31.871 5.51613C32.6371 3.98387 33.5565 2.45161 34.3226 0.919355C34.3226 0.459677 34.4758 0.306452 34.4758 0Z" fill="#FC4B15"/>
<path d="M26.5093 1.07369C17.9287 -1.8376 8.58189 1.22691 3.37221 8.73498C0.460922 12.8721 -0.611659 17.6221 0.307696 22.6785C1.5335 30.0334 5.82383 34.7834 12.719 37.3882C14.4045 38.0011 16.09 38.1543 17.9287 38.1543C16.7029 37.8479 15.4771 37.5414 14.2512 37.235C8.58189 35.2431 4.90447 31.4124 3.37221 25.5898C1.38028 17.6221 5.51737 9.96079 12.5658 7.20272C16.5496 5.67046 20.5335 5.67047 24.3642 7.6624C24.8238 7.81563 24.9771 7.81563 25.2835 7.50918C26.6625 6.13014 28.1948 4.75111 29.5738 3.37208C29.7271 3.21885 29.7271 3.21885 29.8803 2.9124C28.8077 2.14627 27.7351 1.53337 26.5093 1.07369Z" fill="#32393E"/>
<path d="M33.2503 4.9032C32.6374 5.97578 32.1777 7.04836 31.5648 7.96772C30.9519 9.0403 30.339 10.1129 29.8793 11.1855C29.7261 11.3387 29.7261 11.6451 29.7261 11.7984C30.339 12.8709 30.9519 13.9435 31.5648 15.1693C33.8632 14.0967 36.3148 13.0242 38.6132 11.9516C37.3874 9.19352 35.7019 6.89513 33.2503 4.9032Z" fill="#32393E"/>
</g>
<defs>
<clipPath id="clip0">
<rect width="38.7661" height="38" fill="white"/>
</clipPath>
</defs>
</svg>
