<svg width="47" height="45" viewBox="0 0 47 45" fill="none" xmlns="http://www.w3.org/2000/svg">
<g clip-path="url(#clip0)">
<path d="M33.4488 6.56832H1.40541V30.1863H33.4488V6.56832ZM5.05949 4.8913C5.20003 4.8913 5.20003 4.75155 5.20003 4.75155V1.67702C5.20003 1.53727 5.05949 1.53727 5.05949 1.53727H1.96758C1.82704 1.53727 1.82704 1.67702 1.82704 1.67702V4.75155C1.82704 4.8913 1.96758 4.8913 1.96758 4.8913H5.05949ZM10.5406 4.8913C10.6811 4.8913 10.6811 4.75155 10.6811 4.75155V1.67702C10.6811 1.53727 10.5406 1.53727 10.5406 1.53727H7.44869C7.30815 1.53727 7.30815 1.67702 7.30815 1.67702V4.75155C7.30815 4.8913 7.44869 4.8913 7.44869 4.8913H10.5406ZM16.0217 4.8913C16.1623 4.8913 16.1623 4.75155 16.1623 4.75155V1.67702C16.1623 1.53727 16.0217 1.53727 16.0217 1.53727H13.0703C12.9298 1.53727 12.9298 1.67702 12.9298 1.67702V4.75155C12.9298 4.8913 13.0703 4.8913 13.0703 4.8913H16.0217ZM21.6434 4.8913C21.7839 4.8913 21.7839 4.75155 21.7839 4.75155V1.67702C21.7839 1.53727 21.6434 1.53727 21.6434 1.53727H18.5515C18.4109 1.53727 18.4109 1.67702 18.4109 1.67702V4.75155C18.4109 4.8913 18.5515 4.8913 18.5515 4.8913H21.6434ZM27.1245 4.8913C27.265 4.8913 27.265 4.75155 27.265 4.75155V1.67702C27.265 1.53727 27.1245 1.53727 27.1245 1.53727H24.0326C23.892 1.53727 23.892 1.67702 23.892 1.67702V4.75155C23.892 4.8913 24.0326 4.8913 24.0326 4.8913H27.1245ZM32.8867 4.75155V1.67702C32.8867 1.53727 32.7461 1.53727 32.7461 1.53727H29.6542C29.5137 1.53727 29.5137 1.67702 29.5137 1.67702V4.75155C29.5137 4.8913 29.6542 4.8913 29.6542 4.8913H32.7461L32.8867 4.75155ZM0 36.6149V0H34.7137V36.6149H0ZM32.7461 31.4441H29.6542C29.5137 31.4441 29.5137 31.5838 29.5137 31.5838V34.6584C29.5137 34.7981 29.6542 34.7981 29.6542 34.7981H32.7461C32.8867 34.7981 32.8867 34.6584 32.8867 34.6584V31.5838L32.7461 31.4441ZM27.1245 31.4441H24.0326C23.892 31.4441 23.892 31.5838 23.892 31.5838V34.6584C23.892 34.7981 24.0326 34.7981 24.0326 34.7981H27.1245C27.265 34.7981 27.265 34.6584 27.265 34.6584V31.5838C27.4056 31.5838 27.265 31.4441 27.1245 31.4441ZM21.6434 31.4441H18.5515C18.4109 31.4441 18.4109 31.5838 18.4109 31.5838V34.6584C18.4109 34.7981 18.5515 34.7981 18.5515 34.7981H21.6434C21.7839 34.7981 21.7839 34.6584 21.7839 34.6584V31.5838C21.7839 31.5838 21.7839 31.4441 21.6434 31.4441ZM16.0217 31.4441H13.0703C12.9298 31.4441 12.9298 31.5838 12.9298 31.5838V34.6584C12.9298 34.7981 13.0703 34.7981 13.0703 34.7981H16.1623C16.3028 34.7981 16.3028 34.6584 16.3028 34.6584V31.5838C16.3028 31.5838 16.1623 31.4441 16.0217 31.4441ZM10.5406 31.4441H7.44869C7.30815 31.4441 7.30815 31.5838 7.30815 31.5838V34.6584C7.30815 34.7981 7.44869 34.7981 7.44869 34.7981H10.5406C10.6811 34.7981 10.6811 34.6584 10.6811 34.6584V31.5838C10.6811 31.5838 10.6811 31.4441 10.5406 31.4441ZM1.96758 31.4441C1.82704 31.4441 1.82704 31.5838 1.82704 31.5838V34.6584C1.82704 34.7981 1.96758 34.7981 1.96758 34.7981H5.05949C5.20003 34.7981 5.20003 34.6584 5.20003 34.6584V31.5838C5.20003 31.4441 5.05949 31.4441 5.05949 31.4441H1.96758Z" fill="#32393E"/>
<path d="M4.77827 4.47201V1.81673H2.10799V4.47201H4.77827ZM5.05936 4.89127H1.96745C1.8269 4.89127 1.8269 4.75152 1.8269 4.75152V1.67698C1.8269 1.53723 1.96745 1.53723 1.96745 1.53723H5.05936C5.1999 1.53723 5.1999 1.67698 5.1999 1.67698V4.75152L5.05936 4.89127Z" fill="#32393E"/>
<path d="M10.4 4.47201V1.81673H7.72973V4.47201H10.4ZM10.5406 4.89127H7.44865C7.30811 4.89127 7.30811 4.75152 7.30811 4.75152V1.67698C7.30811 1.53723 7.44865 1.53723 7.44865 1.53723H10.5406C10.6811 1.53723 10.6811 1.67698 10.6811 1.67698V4.75152C10.6811 4.75152 10.6811 4.89127 10.5406 4.89127Z" fill="#32393E"/>
<path d="M15.8811 4.47201V1.81673H13.2108V4.47201H15.8811ZM16.0216 4.89127H13.0702C12.9297 4.89127 12.9297 4.75152 12.9297 4.75152V1.67698C12.9297 1.53723 13.0702 1.53723 13.0702 1.53723H16.1621C16.3027 1.53723 16.3027 1.67698 16.3027 1.67698V4.75152C16.3027 4.75152 16.1621 4.89127 16.0216 4.89127Z" fill="#32393E"/>
<path d="M21.3623 4.47201V1.81673H18.692V4.47201H21.3623ZM21.6433 4.89127H18.5514C18.4109 4.89127 18.4109 4.75152 18.4109 4.75152V1.67698C18.4109 1.53723 18.5514 1.53723 18.5514 1.53723H21.6433C21.7839 1.53723 21.7839 1.67698 21.7839 1.67698V4.75152C21.7839 4.75152 21.7839 4.89127 21.6433 4.89127Z" fill="#32393E"/>
<path d="M24.3137 1.81673V4.47201H26.984V1.81673H24.3137ZM27.1245 4.89127H24.0326C23.8921 4.89127 23.8921 4.75152 23.8921 4.75152V1.67698C23.8921 1.53723 24.0326 1.53723 24.0326 1.53723H27.1245C27.2651 1.53723 27.2651 1.67698 27.2651 1.67698V4.75152C27.4056 4.75152 27.2651 4.89127 27.1245 4.89127Z" fill="#32393E"/>
<path d="M32.465 1.81673H29.7948V4.47201H32.465V1.81673ZM32.8867 1.67698V4.75152C32.8867 4.89127 32.7461 4.89127 32.7461 4.89127H29.6542C29.5137 4.89127 29.5137 4.75152 29.5137 4.75152V1.67698C29.5137 1.53723 29.6542 1.53723 29.6542 1.53723H32.7461C32.7461 1.53723 32.8867 1.53723 32.8867 1.67698Z" fill="#32393E"/>
<path d="M4.77838 31.8633H2.1081V34.5186H4.77838V31.8633ZM1.96755 31.4441H5.05946C5.20001 31.4441 5.20001 31.5838 5.20001 31.5838V34.6584C5.20001 34.7981 5.05946 34.7981 5.05946 34.7981H1.96755C1.82701 34.7981 1.82701 34.6584 1.82701 34.6584V31.5838C1.68647 31.5838 1.82701 31.4441 1.96755 31.4441Z" fill="#32393E"/>
<path d="M10.4 31.8633H7.72973V34.5186H10.4V31.8633ZM7.44865 31.4441H10.5406C10.6811 31.4441 10.6811 31.5838 10.6811 31.5838V34.6584C10.6811 34.7981 10.5406 34.7981 10.5406 34.7981H7.44865C7.30811 34.7981 7.30811 34.6584 7.30811 34.6584V31.5838C7.30811 31.5838 7.30811 31.4441 7.44865 31.4441Z" fill="#32393E"/>
<path d="M15.8812 31.8633H13.2109V34.5186H15.8812V31.8633ZM13.0703 31.4441H16.1622C16.3028 31.4441 16.3028 31.5838 16.3028 31.5838V34.6584C16.3028 34.7981 16.1622 34.7981 16.1622 34.7981H13.0703C12.9298 34.7981 12.9298 34.6584 12.9298 34.6584V31.5838C12.7893 31.5838 12.9298 31.4441 13.0703 31.4441Z" fill="#32393E"/>
<path d="M21.3623 31.8633H18.692V34.5186H21.3623V31.8633ZM18.5514 31.4441H21.6433C21.7839 31.4441 21.7839 31.5838 21.7839 31.5838V34.6584C21.7839 34.7981 21.6433 34.7981 21.6433 34.7981H18.5514C18.4109 34.7981 18.4109 34.6584 18.4109 34.6584V31.5838C18.4109 31.5838 18.4109 31.4441 18.5514 31.4441Z" fill="#32393E"/>
<path d="M26.984 31.8633H24.3137V34.5186H26.984V31.8633ZM24.0326 31.4441H27.1245C27.2651 31.4441 27.2651 31.5838 27.2651 31.5838V34.6584C27.2651 34.7981 27.1245 34.7981 27.1245 34.7981H24.0326C23.8921 34.7981 23.8921 34.6584 23.8921 34.6584V31.5838L24.0326 31.4441Z" fill="#32393E"/>
<path d="M32.4652 31.8633H29.7949V34.5186H32.4652V31.8633ZM29.6543 31.4441H32.7462C32.8868 31.4441 32.8868 31.5838 32.8868 31.5838V34.6584C32.8868 34.7981 32.7462 34.7981 32.7462 34.7981H29.6543C29.5138 34.7981 29.5138 34.6584 29.5138 34.6584V31.5838C29.3732 31.5838 29.5138 31.4441 29.6543 31.4441Z" fill="#32393E"/>
<path d="M19.3948 29.6273C28.6705 32.8416 28.6705 32.8416 31.3408 43.1832C32.3246 35.2174 36.5408 31.3043 44.2706 30.8851C36.6814 29.7671 32.7462 25.5745 32.3246 17.8882C31.3408 25.4348 26.984 29.3478 19.3948 29.6273Z" fill="#FC4B15" stroke="white" stroke-width="0.5" stroke-miterlimit="10"/>
<path d="M44.411 11.7391C39.0704 10.0621 38.7893 9.78261 36.8217 3.63354C36.2596 8.3851 33.8704 10.9006 29.373 11.4596C33.7298 12.1584 36.2596 14.6739 36.8217 19.146C37.665 14.8137 39.9136 12.1584 44.411 11.7391Z" fill="#FC4B15" stroke="white" stroke-width="0.5" stroke-miterlimit="10"/>
<path d="M21.9244 11.0404C20.9406 15.0932 18.5514 17.469 14.3352 18.4472C18.5514 19.2857 20.9406 21.8013 21.6434 26.1336C22.4866 21.941 25.0163 19.4255 29.3731 18.587C25.1569 17.469 22.6271 15.233 21.9244 11.0404Z" fill="#FC4B15"/>
</g>
<defs>
<clipPath id="clip0">
<rect width="46.0976" height="45" fill="white"/>
</clipPath>
</defs>
</svg>
