<svg width="37" height="35" viewBox="0 0 37 35" fill="none" xmlns="http://www.w3.org/2000/svg">
<g clip-path="url(#clip0)">
<path d="M10.341 26.5909C13.2955 26.4773 14.4319 25.9091 14.4319 23.0682V2.5C14.4319 1.81818 14.2046 1.59091 13.0682 1.59091C9.31823 1.59091 6.93186 3.86364 6.25004 7.5H5.45459L5.68186 0H30.6819L30.9091 7.5H30.1137C29.4319 3.86364 27.1591 1.59091 23.2955 1.59091C22.1591 1.59091 21.9319 1.70455 21.9319 2.5V23.1818C21.9319 26.0227 23.0682 26.5909 26.0228 26.7045V27.6136H10.341V26.5909Z" fill="#32393E"/>
<path d="M36.3636 31.5909H0V35H36.3636V31.5909Z" fill="#FC4B15"/>
</g>
<defs>
<clipPath id="clip0">
<rect width="36.3636" height="35" fill="white"/>
</clipPath>
</defs>
</svg>
