<svg width="40" height="42" viewBox="0 0 40 42" fill="none" xmlns="http://www.w3.org/2000/svg">
<path d="M16.8478 38.2211H7.93478C3.58696 38.2211 0 34.7661 0 30.3393V10.7969C0 6.47814 3.47826 2.91516 7.93478 2.91516H16.8478V38.2211Z" fill="#32393E"/>
<path d="M17.2825 0.755737L24.3477 3.347H32.9347C36.5217 3.347 39.3477 6.1542 39.3477 9.71718V32.1748C39.3477 35.7377 36.5217 38.5449 32.9347 38.5449H24.1304L17.1738 41.1362V0.755737H17.2825Z" stroke="#32393E" stroke-miterlimit="10"/>
<path d="M33.6958 21.1619L18.8044 15.2236L19.8914 19.5424V22.8894L18.8044 27.2082L33.6958 21.1619Z" fill="#FC4B15"/>
<path d="M20.4349 19.8663H9.78271V22.4576H20.4349V19.8663Z" fill="#FC4B15"/>
</svg>
