<svg width="40" height="40" viewBox="0 0 40 40" fill="none" xmlns="http://www.w3.org/2000/svg">
<path d="M36.7368 3.15784H2.84204V37.0526H36.7368V3.15784Z" stroke="#32393E" stroke-miterlimit="10"/>
<path d="M6.73684 33.2632H0V40H6.73684V33.2632Z" fill="#FC4B15"/>
<path d="M40 33.2632H33.2632V40H40V33.2632Z" fill="#FC4B15"/>
<path d="M40 0H33.2632V6.73684H40V0Z" fill="#FC4B15"/>
<path d="M6.73684 16.6316H0V23.3684H6.73684V16.6316Z" fill="#FC4B15"/>
<path d="M40 16.6316H33.2632V23.3684H40V16.6316Z" fill="#FC4B15"/>
<path d="M23.3684 33.2632H16.6316V40H23.3684V33.2632Z" fill="#FC4B15"/>
<path d="M23.3684 0H16.6316V6.73684H23.3684V0Z" fill="#FC4B15"/>
<path d="M6.73684 0H0V6.73684H6.73684V0Z" fill="#FC4B15"/>
<path d="M26.1052 13.6842H13.3684V26.421H26.1052V13.6842Z" fill="#32393E"/>
</svg>
