<svg width="55" height="32" viewBox="0 0 55 32" fill="none" xmlns="http://www.w3.org/2000/svg">
<g clip-path="url(#clip0)">
<path d="M49.1429 29.8413C53.5873 22.0952 53.5873 12.4444 49.1429 4.6984C48.8889 4.19046 49.0159 3.55554 49.5238 3.17459C50.0318 2.92062 50.6667 3.04761 51.0477 3.55554C55.873 11.9365 55.873 22.4762 51.0477 30.8571C50.7937 31.3651 50.0318 31.4921 49.5238 31.2381C49.0159 30.9841 48.7619 30.3492 49.1429 29.8413Z" fill="#FC4B15"/>
<path d="M46.4761 6.85716C50.1587 13.5873 49.7777 21.4603 46.4761 27.4286C46.2222 27.9365 45.4603 28.1905 44.9523 27.8095C44.4444 27.5556 44.1904 26.9207 44.5714 26.2857C47.746 20.4445 47.746 13.5873 44.5714 7.74605C44.3174 7.23811 44.4444 6.60319 44.9523 6.22224C45.4603 5.84129 46.0952 6.34922 46.4761 6.85716Z" fill="#FC4B15"/>
<path d="M8.2538 27.5555C4.95222 21.4603 4.57127 13.7142 8.2538 6.98409C8.50777 6.34917 9.14269 6.22218 9.65063 6.47615C10.1586 6.73012 10.4125 7.36504 10.0316 7.87298C6.85698 13.7142 6.85698 20.5714 10.0316 26.4127C10.4125 27.0476 10.1586 27.6825 9.65063 27.9365C9.14269 28.1904 8.50777 28.0635 8.2538 27.5555Z" fill="#FC4B15"/>
<path d="M5.46024 29.8413C5.71421 30.3492 5.58722 30.9841 5.07929 31.3651C4.57135 31.619 3.93643 31.4921 3.55548 30.9841C-1.26992 22.4762 -1.26992 11.9365 3.68246 3.55554C3.93643 3.04761 4.57135 2.92062 5.07929 3.17459C5.58722 3.42856 5.71421 4.06348 5.46024 4.6984C1.0158 12.4444 1.0158 22.0952 5.46024 29.8413Z" fill="#FC4B15"/>
<path d="M27.3015 32C24.8888 32 22.7301 30.8571 21.0793 28.8254C20.4444 27.9365 19.8094 27.0476 19.3015 26.0317C19.0475 25.5238 18.7936 25.1429 18.5396 24.6349C18.0317 23.873 17.6507 22.9841 17.1428 22.2222C15.9999 20.1905 14.7301 18.1587 13.5872 16.127C13.3332 15.619 13.3332 15.1111 13.5872 14.6032C13.8412 14.0952 14.3491 13.7143 14.984 13.7143C15.111 13.7143 15.111 13.7143 15.238 13.7143C15.365 13.7143 15.365 13.7143 15.492 13.7143C17.1428 13.9683 17.9047 15.1111 18.7936 16.5079C18.9205 16.7619 19.0475 17.0159 19.3015 17.2698C19.5555 17.6508 20.4444 18.9206 20.9523 18.9206C21.5872 18.9206 22.0951 17.2698 22.0951 16.7619C22.6031 13.7143 22.984 10.5397 23.492 7.49206L23.9999 3.93651C24.2539 2.15873 24.7618 1.39683 25.6507 1.39683C25.7777 1.39683 25.9047 1.39683 26.0317 1.39683C27.4285 1.65079 27.5555 2.66667 27.4285 4.19048C27.1745 6.47619 27.0475 8.7619 26.7936 11.0476V11.1746C26.7936 11.5556 26.6666 11.9365 26.9205 12.1905C27.0475 12.3175 27.1745 12.3175 27.3015 12.3175C27.9364 12.3175 28.3174 11.4286 28.6983 10.0317C28.9523 8.88889 29.2063 7.87302 29.4602 6.73016C29.7142 5.07937 30.0951 3.55556 30.4761 2.03175C30.8571 0.634921 31.365 0 32.1269 0C32.2539 0 32.5078 0 32.6348 0.126984C33.7777 0.380952 34.1586 1.26984 33.7777 2.79365C33.1428 5.71429 32.3809 8.63492 31.7459 11.5556C31.7459 11.6825 31.7459 11.6825 31.7459 11.8095C31.619 12.1905 31.492 12.6984 31.9999 12.9524C32.1269 13.0794 32.2539 13.0794 32.3809 13.0794C33.0158 13.0794 33.2698 12.3175 33.3967 11.8095C33.3967 11.6825 33.5237 11.6825 33.5237 11.5556C33.9047 10.5397 34.4126 9.39682 34.7936 8.38095C35.1745 7.36508 35.6825 6.22222 36.0634 5.20635C36.4444 4.31746 36.8253 3.55556 37.7142 3.55556C37.9682 3.55556 38.2221 3.55556 38.4761 3.68254C39.492 4.06349 39.7459 4.95238 39.238 6.47619C38.8571 7.61905 38.3491 8.88889 37.8412 10.1587L35.5555 15.619C35.4285 16.127 35.4285 16.254 35.5555 16.5079L35.6825 16.6349H35.9364C36.1904 16.6349 36.3174 16.5079 36.6983 16.254L37.3332 15.2381C38.0952 13.9683 38.8571 12.5714 39.619 11.3016C40.1269 10.5397 40.5079 9.90476 41.1428 9.90476C41.3967 9.90476 41.6507 10.0317 41.9047 10.1587C42.9206 10.6667 42.9205 11.4286 42.2856 12.8254C42.0317 13.3333 41.6507 13.9683 41.3967 14.4762C40.3809 16.254 39.492 18.1587 38.4761 19.9365C37.0793 22.4762 35.8094 24.8889 34.4126 27.4286C32.7618 30.3492 30.0951 32 27.3015 32Z" fill="#32393E"/>
</g>
<defs>
<clipPath id="clip0">
<rect width="54.6032" height="32" fill="white"/>
</clipPath>
</defs>
</svg>
