<svg width="48" height="37" viewBox="0 0 48 37" fill="none" xmlns="http://www.w3.org/2000/svg">
<g clip-path="url(#clip0)">
<path d="M38.6767 28.281V36.4411H0.558838V28.1692V26.4924L9.27787 15.6495L18.3323 26.716L27.8338 22.1329L38.6767 28.281Z" fill="#32393E"/>
<path d="M38.6767 28.2809V36.441H0.558838V28.1691V26.4924V7.82471H38.6767V28.2809Z" stroke="#32393E" stroke-miterlimit="10"/>
<path d="M0.558838 26.4924L9.27787 15.6495L18.3323 26.716L27.8338 22.1329L38.6767 28.281" stroke="#32393E" stroke-miterlimit="10"/>
<path d="M44.6012 18.6676H25.1511C24.145 18.6676 23.3625 17.8852 23.3625 16.8791V2.90632C23.3625 1.90028 24.145 1.1178 25.1511 1.1178H44.4894C45.4955 1.1178 46.278 1.90028 46.278 2.90632V16.7673C46.3897 17.7734 45.6073 18.6676 44.6012 18.6676Z" fill="white" stroke="#FC4B15" stroke-width="2" stroke-miterlimit="10"/>
</g>
<defs>
<clipPath id="clip0">
<rect width="47.5076" height="37" fill="white"/>
</clipPath>
</defs>
</svg>
