<svg xmlns="http://www.w3.org/2000/svg" width="206" height="184" viewBox="0 0 206 184">
  <g id="back_picture_orange" opacity="0.7">
    <g id="back_picture_orange-2" data-name="back_picture_orange" opacity="0.1">
      <circle id="Ellipse_669" data-name="Ellipse 669" cx="4" cy="4" r="4" fill="#f67607"/>
      <circle id="Ellipse_670" data-name="Ellipse 670" cx="4" cy="4" r="4" transform="translate(22)" fill="#f67607"/>
      <circle id="Ellipse_671" data-name="Ellipse 671" cx="4" cy="4" r="4" transform="translate(44)" fill="#f67607"/>
      <circle id="Ellipse_672" data-name="Ellipse 672" cx="4" cy="4" r="4" transform="translate(66)" fill="#f67607"/>
      <circle id="Ellipse_673" data-name="Ellipse 673" cx="4" cy="4" r="4" transform="translate(88)" fill="#f67607"/>
      <circle id="Ellipse_674" data-name="Ellipse 674" cx="4" cy="4" r="4" transform="translate(110)" fill="#f67607"/>
      <circle id="Ellipse_675" data-name="Ellipse 675" cx="4" cy="4" r="4" transform="translate(132)" fill="#f67607"/>
      <circle id="Ellipse_676" data-name="Ellipse 676" cx="4" cy="4" r="4" transform="translate(154)" fill="#f67607"/>
      <circle id="Ellipse_677" data-name="Ellipse 677" cx="4" cy="4" r="4" transform="translate(176)" fill="#f67607"/>
      <circle id="Ellipse_678" data-name="Ellipse 678" cx="4" cy="4" r="4" transform="translate(198)" fill="#f67607"/>
      <circle id="Ellipse_679" data-name="Ellipse 679" cx="4" cy="4" r="4" transform="translate(0 22)" fill="#f67607"/>
      <circle id="Ellipse_680" data-name="Ellipse 680" cx="4" cy="4" r="4" transform="translate(22 22)" fill="#f67607"/>
      <circle id="Ellipse_681" data-name="Ellipse 681" cx="4" cy="4" r="4" transform="translate(44 22)" fill="#f67607"/>
      <circle id="Ellipse_682" data-name="Ellipse 682" cx="4" cy="4" r="4" transform="translate(66 22)" fill="#f67607"/>
      <circle id="Ellipse_683" data-name="Ellipse 683" cx="4" cy="4" r="4" transform="translate(88 22)" fill="#f67607"/>
      <circle id="Ellipse_684" data-name="Ellipse 684" cx="4" cy="4" r="4" transform="translate(110 22)" fill="#f67607"/>
      <circle id="Ellipse_685" data-name="Ellipse 685" cx="4" cy="4" r="4" transform="translate(132 22)" fill="#f67607"/>
      <circle id="Ellipse_686" data-name="Ellipse 686" cx="4" cy="4" r="4" transform="translate(154 22)" fill="#f67607"/>
      <circle id="Ellipse_687" data-name="Ellipse 687" cx="4" cy="4" r="4" transform="translate(176 22)" fill="#f67607"/>
      <circle id="Ellipse_688" data-name="Ellipse 688" cx="4" cy="4" r="4" transform="translate(198 22)" fill="#f67607"/>
      <circle id="Ellipse_689" data-name="Ellipse 689" cx="4" cy="4" r="4" transform="translate(0 44)" fill="#f67607"/>
      <circle id="Ellipse_690" data-name="Ellipse 690" cx="4" cy="4" r="4" transform="translate(22 44)" fill="#f67607"/>
      <circle id="Ellipse_691" data-name="Ellipse 691" cx="4" cy="4" r="4" transform="translate(44 44)" fill="#f67607"/>
      <circle id="Ellipse_692" data-name="Ellipse 692" cx="4" cy="4" r="4" transform="translate(66 44)" fill="#f67607"/>
      <circle id="Ellipse_693" data-name="Ellipse 693" cx="4" cy="4" r="4" transform="translate(88 44)" fill="#f67607"/>
      <circle id="Ellipse_694" data-name="Ellipse 694" cx="4" cy="4" r="4" transform="translate(110 44)" fill="#f67607"/>
      <circle id="Ellipse_695" data-name="Ellipse 695" cx="4" cy="4" r="4" transform="translate(132 44)" fill="#f67607"/>
      <circle id="Ellipse_696" data-name="Ellipse 696" cx="4" cy="4" r="4" transform="translate(154 44)" fill="#f67607"/>
      <circle id="Ellipse_697" data-name="Ellipse 697" cx="4" cy="4" r="4" transform="translate(176 44)" fill="#f67607"/>
      <circle id="Ellipse_698" data-name="Ellipse 698" cx="4" cy="4" r="4" transform="translate(198 44)" fill="#f67607"/>
      <circle id="Ellipse_699" data-name="Ellipse 699" cx="4" cy="4" r="4" transform="translate(0 66)" fill="#f67607"/>
      <circle id="Ellipse_700" data-name="Ellipse 700" cx="4" cy="4" r="4" transform="translate(22 66)" fill="#f67607"/>
      <circle id="Ellipse_701" data-name="Ellipse 701" cx="4" cy="4" r="4" transform="translate(44 66)" fill="#f67607"/>
      <circle id="Ellipse_702" data-name="Ellipse 702" cx="4" cy="4" r="4" transform="translate(66 66)" fill="#f67607"/>
      <circle id="Ellipse_703" data-name="Ellipse 703" cx="4" cy="4" r="4" transform="translate(88 66)" fill="#f67607"/>
      <circle id="Ellipse_704" data-name="Ellipse 704" cx="4" cy="4" r="4" transform="translate(110 66)" fill="#f67607"/>
      <circle id="Ellipse_705" data-name="Ellipse 705" cx="4" cy="4" r="4" transform="translate(132 66)" fill="#f67607"/>
      <circle id="Ellipse_706" data-name="Ellipse 706" cx="4" cy="4" r="4" transform="translate(154 66)" fill="#f67607"/>
      <circle id="Ellipse_707" data-name="Ellipse 707" cx="4" cy="4" r="4" transform="translate(176 66)" fill="#f67607"/>
      <circle id="Ellipse_708" data-name="Ellipse 708" cx="4" cy="4" r="4" transform="translate(198 66)" fill="#f67607"/>
      <circle id="Ellipse_709" data-name="Ellipse 709" cx="4" cy="4" r="4" transform="translate(0 88)" fill="#f67607"/>
      <circle id="Ellipse_710" data-name="Ellipse 710" cx="4" cy="4" r="4" transform="translate(22 88)" fill="#f67607"/>
      <circle id="Ellipse_711" data-name="Ellipse 711" cx="4" cy="4" r="4" transform="translate(44 88)" fill="#f67607"/>
      <circle id="Ellipse_712" data-name="Ellipse 712" cx="4" cy="4" r="4" transform="translate(66 88)" fill="#f67607"/>
      <circle id="Ellipse_713" data-name="Ellipse 713" cx="4" cy="4" r="4" transform="translate(88 88)" fill="#f67607"/>
      <circle id="Ellipse_714" data-name="Ellipse 714" cx="4" cy="4" r="4" transform="translate(110 88)" fill="#f67607"/>
      <circle id="Ellipse_715" data-name="Ellipse 715" cx="4" cy="4" r="4" transform="translate(132 88)" fill="#f67607"/>
      <circle id="Ellipse_716" data-name="Ellipse 716" cx="4" cy="4" r="4" transform="translate(154 88)" fill="#f67607"/>
      <circle id="Ellipse_717" data-name="Ellipse 717" cx="4" cy="4" r="4" transform="translate(176 88)" fill="#f67607"/>
      <circle id="Ellipse_718" data-name="Ellipse 718" cx="4" cy="4" r="4" transform="translate(198 88)" fill="#f67607"/>
      <circle id="Ellipse_719" data-name="Ellipse 719" cx="4" cy="4" r="4" transform="translate(0 110)" fill="#f67607"/>
      <circle id="Ellipse_720" data-name="Ellipse 720" cx="4" cy="4" r="4" transform="translate(22 110)" fill="#f67607"/>
      <circle id="Ellipse_721" data-name="Ellipse 721" cx="4" cy="4" r="4" transform="translate(44 110)" fill="#f67607"/>
      <circle id="Ellipse_722" data-name="Ellipse 722" cx="4" cy="4" r="4" transform="translate(66 110)" fill="#f67607"/>
      <circle id="Ellipse_723" data-name="Ellipse 723" cx="4" cy="4" r="4" transform="translate(88 110)" fill="#f67607"/>
      <circle id="Ellipse_724" data-name="Ellipse 724" cx="4" cy="4" r="4" transform="translate(110 110)" fill="#f67607"/>
      <circle id="Ellipse_725" data-name="Ellipse 725" cx="4" cy="4" r="4" transform="translate(132 110)" fill="#f67607"/>
      <circle id="Ellipse_726" data-name="Ellipse 726" cx="4" cy="4" r="4" transform="translate(154 110)" fill="#f67607"/>
      <circle id="Ellipse_727" data-name="Ellipse 727" cx="4" cy="4" r="4" transform="translate(176 110)" fill="#f67607"/>
      <circle id="Ellipse_728" data-name="Ellipse 728" cx="4" cy="4" r="4" transform="translate(198 110)" fill="#f67607"/>
      <circle id="Ellipse_729" data-name="Ellipse 729" cx="4" cy="4" r="4" transform="translate(0 132)" fill="#f67607"/>
      <circle id="Ellipse_730" data-name="Ellipse 730" cx="4" cy="4" r="4" transform="translate(22 132)" fill="#f67607"/>
      <circle id="Ellipse_731" data-name="Ellipse 731" cx="4" cy="4" r="4" transform="translate(44 132)" fill="#f67607"/>
      <circle id="Ellipse_732" data-name="Ellipse 732" cx="4" cy="4" r="4" transform="translate(66 132)" fill="#f67607"/>
      <circle id="Ellipse_733" data-name="Ellipse 733" cx="4" cy="4" r="4" transform="translate(88 132)" fill="#f67607"/>
      <circle id="Ellipse_734" data-name="Ellipse 734" cx="4" cy="4" r="4" transform="translate(110 132)" fill="#f67607"/>
      <circle id="Ellipse_735" data-name="Ellipse 735" cx="4" cy="4" r="4" transform="translate(132 132)" fill="#f67607"/>
      <circle id="Ellipse_736" data-name="Ellipse 736" cx="4" cy="4" r="4" transform="translate(154 132)" fill="#f67607"/>
      <circle id="Ellipse_737" data-name="Ellipse 737" cx="4" cy="4" r="4" transform="translate(176 132)" fill="#f67607"/>
      <circle id="Ellipse_738" data-name="Ellipse 738" cx="4" cy="4" r="4" transform="translate(198 132)" fill="#f67607"/>
      <circle id="Ellipse_739" data-name="Ellipse 739" cx="4" cy="4" r="4" transform="translate(0 154)" fill="#f67607"/>
      <circle id="Ellipse_740" data-name="Ellipse 740" cx="4" cy="4" r="4" transform="translate(22 154)" fill="#f67607"/>
      <circle id="Ellipse_741" data-name="Ellipse 741" cx="4" cy="4" r="4" transform="translate(44 154)" fill="#f67607"/>
      <circle id="Ellipse_742" data-name="Ellipse 742" cx="4" cy="4" r="4" transform="translate(66 154)" fill="#f67607"/>
      <circle id="Ellipse_743" data-name="Ellipse 743" cx="4" cy="4" r="4" transform="translate(88 154)" fill="#f67607"/>
      <circle id="Ellipse_744" data-name="Ellipse 744" cx="4" cy="4" r="4" transform="translate(110 154)" fill="#f67607"/>
      <circle id="Ellipse_745" data-name="Ellipse 745" cx="4" cy="4" r="4" transform="translate(132 154)" fill="#f67607"/>
      <circle id="Ellipse_746" data-name="Ellipse 746" cx="4" cy="4" r="4" transform="translate(154 154)" fill="#f67607"/>
      <circle id="Ellipse_747" data-name="Ellipse 747" cx="4" cy="4" r="4" transform="translate(176 154)" fill="#f67607"/>
      <circle id="Ellipse_748" data-name="Ellipse 748" cx="4" cy="4" r="4" transform="translate(198 154)" fill="#f67607"/>
      <circle id="Ellipse_749" data-name="Ellipse 749" cx="4" cy="4" r="4" transform="translate(0 176)" fill="#f67607"/>
      <circle id="Ellipse_750" data-name="Ellipse 750" cx="4" cy="4" r="4" transform="translate(22 176)" fill="#f67607"/>
      <circle id="Ellipse_751" data-name="Ellipse 751" cx="4" cy="4" r="4" transform="translate(44 176)" fill="#f67607"/>
      <circle id="Ellipse_752" data-name="Ellipse 752" cx="4" cy="4" r="4" transform="translate(66 176)" fill="#f67607"/>
      <circle id="Ellipse_753" data-name="Ellipse 753" cx="4" cy="4" r="4" transform="translate(88 176)" fill="#f67607"/>
      <circle id="Ellipse_754" data-name="Ellipse 754" cx="4" cy="4" r="4" transform="translate(110 176)" fill="#f67607"/>
      <circle id="Ellipse_755" data-name="Ellipse 755" cx="4" cy="4" r="4" transform="translate(132 176)" fill="#f67607"/>
      <circle id="Ellipse_756" data-name="Ellipse 756" cx="4" cy="4" r="4" transform="translate(154 176)" fill="#f67607"/>
      <circle id="Ellipse_757" data-name="Ellipse 757" cx="4" cy="4" r="4" transform="translate(176 176)" fill="#f67607"/>
      <circle id="Ellipse_758" data-name="Ellipse 758" cx="4" cy="4" r="4" transform="translate(198 176)" fill="#f67607"/>
    </g>
  </g>
</svg>
