<svg width="19" height="19" viewBox="0 0 19 19" fill="none" xmlns="http://www.w3.org/2000/svg">
<g clip-path="url(#clip0_80_23519)">
<path d="M17.5541 1.21915C13.0984 -2.16674 9.23933 3.29047 9.06566 3.83038C8.64188 3.45346 6.4915 6.84469 6.4915 6.84469C6.4915 6.84469 12.36 15.9062 13.0425 18.408C16.4488 11.3805 20.7331 3.63482 17.5541 1.21915Z" fill="#D64242"/>
<path d="M17.5541 1.21915C13.0984 -2.16674 9.23933 3.29047 9.06566 3.83038C8.64188 3.45346 6.4915 6.84469 6.4915 6.84469C6.4915 6.84469 12.36 15.9062 13.0425 18.408C16.4488 11.3805 20.7331 3.63482 17.5541 1.21915Z" fill="#D64242"/>
<path d="M0.430433 5.89052C2.54949 0.710973 8.64519 3.45246 9.06897 3.82938C8.99393 3.55434 10.5898 9.4039 10.5898 9.4039C10.5898 9.4039 12.3633 15.9052 13.0458 18.407C6.54276 14.0828 -1.08142 9.58587 0.430433 5.89052Z" fill="#FF6969"/>
<path d="M0.430433 5.89052C2.54949 0.710973 8.64519 3.45246 9.06897 3.82938C8.99393 3.55434 10.5898 9.4039 10.5898 9.4039C10.5898 9.4039 12.3633 15.9052 13.0458 18.407C6.54276 14.0828 -1.08142 9.58587 0.430433 5.89052Z" fill="#FF6969"/>
</g>
<defs>
<clipPath id="clip0_80_23519">
<rect width="19" height="19" fill="white"/>
</clipPath>
</defs>
</svg>
