<svg width="29" height="28" viewBox="0 0 29 28" fill="none" xmlns="http://www.w3.org/2000/svg">
<g clip-path="url(#clip0_80_23510)">
<path d="M28.2139 4.38584C23.4036 -2.6816 15.1647 3.34948 14.651 4.0472C14.2202 3.29551 9.45913 7.16361 9.45913 7.16361C9.45913 7.16361 13.5603 23.1377 13.3344 27.0928C21.6798 18.5674 31.6457 9.42812 28.2139 4.38584Z" fill="#DF2F39"/>
<path d="M28.2139 4.38584C23.4036 -2.6816 15.1647 3.34948 14.651 4.0472C14.2202 3.29551 9.45913 7.16361 9.45913 7.16361C9.45913 7.16361 13.5603 23.1377 13.3344 27.0928C21.6798 18.5674 31.6457 9.42812 28.2139 4.38584Z" fill="#DF2F39"/>
<path d="M1.14349 2.83921C6.72736 -3.63438 14.2258 3.29581 14.6566 4.0475C14.6815 3.61267 14.1532 12.8602 14.1532 12.8602C14.1532 12.8602 13.5659 23.138 13.34 27.0931C6.01981 17.6727 -2.84034 7.45781 1.14349 2.83921Z" fill="#FE4F5A"/>
<path d="M1.14349 2.83921C6.72736 -3.63438 14.2258 3.29581 14.6566 4.0475C14.6815 3.61267 14.1532 12.8602 14.1532 12.8602C14.1532 12.8602 13.5659 23.138 13.34 27.0931C6.01981 17.6727 -2.84034 7.45781 1.14349 2.83921Z" fill="#FE4F5A"/>
</g>
<defs>
<clipPath id="clip0_80_23510">
<rect width="29" height="28" fill="white"/>
</clipPath>
</defs>
</svg>
