<svg width="12" height="13" viewBox="0 0 12 13" fill="none" xmlns="http://www.w3.org/2000/svg">
<g clip-path="url(#clip0_80_23510)">
<path d="M10.2863 0.438604C6.79948 -1.03425 5.32636 3.20556 5.31433 3.58985C4.97258 3.41368 4.21629 6.00653 4.21629 6.00653C4.21629 6.00653 9.65703 10.9718 10.5567 12.5012C11.4495 7.30555 12.7739 1.48942 10.2863 0.438604Z" fill="#FF7182"/>
<path d="M10.2863 0.438604C6.79948 -1.03425 5.32636 3.20556 5.31433 3.58985C4.97258 3.41368 4.21629 6.00653 4.21629 6.00653C4.21629 6.00653 9.65703 10.9718 10.5567 12.5012C11.4495 7.30555 12.7739 1.48942 10.2863 0.438604Z" fill="#FF7182"/>
<path d="M0.146677 6.40362C0.553153 2.64042 4.97469 3.41249 5.31643 3.58866C5.21751 3.42052 7.32116 6.99636 7.32116 6.99636C7.32116 6.99636 9.65914 10.9706 10.5588 12.5C5.5838 10.7563 -0.143325 9.08849 0.146677 6.40362Z" fill="#FF7182"/>
<path d="M0.146677 6.40362C0.553153 2.64042 4.97469 3.41249 5.31643 3.58866C5.21751 3.42052 7.32116 6.99636 7.32116 6.99636C7.32116 6.99636 9.65914 10.9706 10.5588 12.5C5.5838 10.7563 -0.143325 9.08849 0.146677 6.40362Z" fill="#FF7182"/>
</g>
<defs>
<clipPath id="clip0_80_23510">
<rect width="12" height="13" fill="white"/>
</clipPath>
</defs>
</svg>
