<svg xmlns="http://www.w3.org/2000/svg" width="86" height="86" viewBox="0 0 86 86"><defs><style>.a{fill:#fff7f1;}.b{fill:#fb8a29;}.c{fill:#ffa557;}.d,.e{fill:#fff;}.d{font-size:24px;font-family:OpenSans-Semibold, Open Sans;font-weight:600;}</style></defs><g transform="translate(-688.654 -2996)"><circle class="a" cx="43" cy="43" r="43" transform="translate(688.654 2996)"/><g transform="translate(707.654 3014.941)"><path class="b" d="M0,154.5v29.517a4,4,0,0,0,4,4H44a4,4,0,0,0,4-4V154.5Z" transform="translate(0 -139.96)"/><path class="c" d="M44,30.416H4a4,4,0,0,0-4,4v7.641H48V34.417a4,4,0,0,0-4-4" transform="translate(0 -27.51)"/><text class="d" transform="translate(24.001 39.059)"><tspan x="-13.699" y="0">30</tspan></text><g transform="translate(6.358 5.894)"><path class="e" d="M389.519,65.119a2.829,2.829,0,1,1-2.83-2.831,2.83,2.83,0,0,1,2.83,2.831" transform="translate(-354.232 -62.288)"/><path class="e" d="M73.477,65.119a2.829,2.829,0,1,1-2.83-2.831,2.831,2.831,0,0,1,2.83,2.831" transform="translate(-67.819 -62.288)"/></g><g transform="translate(7.303 0.059)"><path class="b" d="M395.854.059a1.883,1.883,0,0,0-1.883,1.883l-.029,6.105a1.884,1.884,0,0,0,3.768,0l.029-6.105A1.884,1.884,0,0,0,395.854.059" transform="translate(-364.313 -0.059)"/><path class="b" d="M79.811.059h0a1.883,1.883,0,0,0-1.883,1.883l-.029,6.1a1.883,1.883,0,1,0,3.766,0l.029-6.105A1.882,1.882,0,0,0,79.811.059" transform="translate(-77.899 -0.059)"/></g></g></g></svg>