<svg xmlns="http://www.w3.org/2000/svg" width="86" height="86" viewBox="0 0 86 86"><defs><style>.a{fill:#fff7f1;}.b{fill:#f68504;}.c{fill:#fff;}</style></defs><g transform="translate(-688.654 -2996)"><circle class="a" cx="43" cy="43" r="43" transform="translate(688.654 2996)"/><g transform="translate(664.991 3015)"><path class="b" d="M66.189,0C58.852,7.75,46.664,6,46.664,6V27c0,12.375,19.525,21,19.525,21s19.525-8.625,19.525-21V6S73.527,7.75,66.189,0Z" transform="translate(0)"/><path class="b" d="M121.943,73.688c-5.641,5.7-15.015,4.418-15.015,4.418V93.561c0,9.107,15.015,15.454,15.015,15.454s15.016-6.348,15.016-15.455V78.1S127.584,79.392,121.943,73.688Z" transform="translate(-55.363 -66.78)"/><path class="c" d="M170.373,186.68l-7.341-6.034,1.766-2.034,5.046,4.19,7.146-9.746,2.252,1.527Z" transform="translate(-104.747 -155.933)"/></g></g></svg>