<svg xmlns="http://www.w3.org/2000/svg" width="86" height="86" viewBox="0 0 86 86"><defs><style>.a{fill:#fff7f1;}.b{fill:#f68504;}</style></defs><g transform="translate(-688.654 -2996)"><circle class="a" cx="43" cy="43" r="43" transform="translate(688.654 2996)"/><g transform="translate(708.154 3011.401)"><ellipse class="b" cx="6.305" cy="6.448" rx="6.305" ry="6.448" transform="translate(5.885 6.492)"/><ellipse class="b" cx="7.696" cy="7.871" rx="7.696" ry="7.871" transform="translate(19.886 3.6)"/><path class="b" d="M43.485,44.23l-5.935,3.461V43.566A3.343,3.343,0,0,0,34.259,40.2H5.792A3.343,3.343,0,0,0,2.5,43.566V63.48a3.343,3.343,0,0,0,3.292,3.366H34.259a3.343,3.343,0,0,0,3.292-3.366V59.355l5.888,3.461a2.03,2.03,0,0,0,3.06-1.8V46.032A2,2,0,0,0,43.485,44.23ZM24.894,54.519l-7.325,4.409a1.159,1.159,0,0,1-1.762-1V49.114a1.159,1.159,0,0,1,1.762-1l7.325,4.409A1.134,1.134,0,0,1,24.894,54.519Z" transform="translate(0 -19.247)"/></g></g></svg>