<svg xmlns="http://www.w3.org/2000/svg" width="86" height="86" viewBox="0 0 86 86"><defs><style>.a,.f{fill:#fff7f1;}.b,.c{fill:#fb8a29;}.d{fill:#fff;font-size:13px;font-family:OpenSans-Semibold, Open Sans;font-weight:600;}.e,.f{stroke:none;}</style></defs><g transform="translate(-688.654 -2996)"><circle class="a" cx="43" cy="43" r="43" transform="translate(688.654 2996)"/><g transform="translate(92.868 66.147)"><circle class="b" cx="23.5" cy="23.5" r="23.5" transform="translate(615.786 2948.853)"/><path class="b" d="M3.811,0H65.14a4.129,4.129,0,0,1,3.811,4.386V23.524A4.129,4.129,0,0,1,65.14,27.91H3.811A4.129,4.129,0,0,1,0,23.524V4.386A4.129,4.129,0,0,1,3.811,0Z" transform="translate(604.423 2958.931)"/><g class="c" transform="translate(605.809 2960.725)"><path class="e" d="M 63.23412322998047 23.57170104980469 L 2.945153951644897 23.57170104980469 C 1.73474395275116 23.57170104980469 0.7500039339065552 22.38780975341797 0.7500039339065552 20.9326114654541 L 0.7500039339065552 3.389090538024902 C 0.7500039339065552 1.933890581130981 1.73474395275116 0.750000536441803 2.945153951644897 0.750000536441803 L 63.23412322998047 0.750000536441803 C 64.44453430175781 0.750000536441803 65.42927551269531 1.933890581130981 65.42927551269531 3.389090538024902 L 65.42927551269531 20.9326114654541 C 65.42927551269531 22.38780975341797 64.44453430175781 23.57170104980469 63.23412322998047 23.57170104980469 Z"/><path class="f" d="M 2.945152282714844 1.5 C 2.161796569824219 1.5 1.499992370605469 2.365100860595703 1.499992370605469 3.389089584350586 L 1.499992370605469 20.93260955810547 C 1.499992370605469 21.95660018920898 2.161796569824219 22.82170104980469 2.945152282714844 22.82170104980469 L 63.23411560058594 22.82170104980469 C 64.01746368408203 22.82170104980469 64.67926025390625 21.95660018920898 64.67926025390625 20.93260955810547 L 64.67926025390625 3.389089584350586 C 64.67926025390625 2.365100860595703 64.01746368408203 1.5 63.23411560058594 1.5 L 2.945152282714844 1.5 M 2.945152282714844 0 L 63.23411560058594 0 C 64.86067199707031 0 66.17926025390625 1.517351150512695 66.17926025390625 3.389089584350586 L 66.17926025390625 20.93260955810547 C 66.17926025390625 22.80436134338379 64.86067199707031 24.32170104980469 63.23411560058594 24.32170104980469 L 2.945152282714844 24.32170104980469 C 1.318580627441406 24.32170104980469 -7.62939453125e-06 22.80436134338379 -7.62939453125e-06 20.93260955810547 L -7.62939453125e-06 3.389089584350586 C -7.62939453125e-06 1.517351150512695 1.318580627441406 0 2.945152282714844 0 Z"/></g><text class="d" transform="translate(638.472 2977.853)"><tspan x="-29.412" y="0">AVS4YOU</tspan></text></g></g></svg>