<svg xmlns="http://www.w3.org/2000/svg" width="86" height="86" viewBox="0 0 86 86"><defs><style>.a{fill:#fff7f1;}.b{fill:#fb8a29;}</style></defs><g transform="translate(-688.654 -2996)"><circle class="a" cx="43" cy="43" r="43" transform="translate(688.654 2996)"/><g transform="translate(706.653 2993)"><g transform="translate(0 24)"><ellipse class="b" cx="6.38" cy="6.38" rx="6.38" ry="6.38" transform="translate(33.073 6.38)"/><ellipse class="b" cx="6.38" cy="6.38" rx="6.38" ry="6.38" transform="translate(3.906 6.38)"/><circle class="b" cx="8.203" cy="8.203" r="8.203" transform="translate(16.666)"/><path class="b" d="M155.07,104H147.7a8.281,8.281,0,0,1,1.12,4.167V122.75h8.333a2.083,2.083,0,0,0,2.083-2.083v-12.5A4.167,4.167,0,0,0,155.07,104Z" transform="translate(-109.236 -83.167)"/><path class="b" d="M11.538,104H4.167A4.167,4.167,0,0,0,0,108.167v12.5a2.083,2.083,0,0,0,2.083,2.083h8.333V108.167A8.281,8.281,0,0,1,11.538,104Z" transform="translate(0 -83.167)"/><path class="b" d="M66.75,88H64.667L60.5,100.5,56.333,88H54.25A6.25,6.25,0,0,0,48,94.25V113a2.083,2.083,0,0,0,2.083,2.083H70.917A2.083,2.083,0,0,0,73,113V94.25A6.25,6.25,0,0,0,66.75,88Z" transform="translate(-35.5 -71.333)"/></g></g></g></svg>