<svg xmlns="http://www.w3.org/2000/svg" width="86" height="86" viewBox="0 0 86 86"><defs><style>.a{fill:#fff7f1;}.b{fill:#fb8a29;}</style></defs><g transform="translate(-688.654 -2996)"><circle class="a" cx="43" cy="43" r="43" transform="translate(688.654 2996)"/><g transform="translate(675.859 3015)"><path class="b" d="M76.645,326.569l-1.027-3.1a14.54,14.54,0,0,0-13.1-10.08,11.5,11.5,0,0,1-1.648,1.092,3.228,3.228,0,0,1-5.4,1.163,10.066,10.066,0,0,1-5.394-2.255,14.539,14.539,0,0,0-13.1,10.08l-1.025,3.1a2.986,2.986,0,0,0,.381,2.643,2.819,2.819,0,0,0,2.313,1.222H73.949a2.82,2.82,0,0,0,2.313-1.222A2.992,2.992,0,0,0,76.645,326.569Z" transform="translate(0 -282.434)"/><path class="b" d="M155.881,77.444c3.551-2.5,6.035-8.008,6.035-13.336,0-15.144-20.149-15.128-20.149,0,0,6.476,3.667,13.213,8.464,14.485a3.344,3.344,0,0,1,5.651-1.148Z" transform="translate(-95.545 -47.28)"/><path class="b" d="M63.9,23.15a1.581,1.581,0,0,0,3.123-.395c0-7.284.337-7.964-.608-8.755C68.579.245,87.214.348,89.483,14c-.944.793-.606,1.47-.606,8.753A1.632,1.632,0,0,0,89.6,24.1c0,5.666-2.227,5.335-8.926,7.167a1.661,1.661,0,1,0,.364,1.608c5.408-1.48,10.161-1.946,10.161-7.523V24.206A1.617,1.617,0,0,0,92,23.15c5.213-.11,5.214-8.17,0-8.28a1.607,1.607,0,0,0-.747-1.019A12.794,12.794,0,0,0,90.14,7.937C83.762-5.643,64.926-.33,64.631,12.831a4.971,4.971,0,0,0,.017,1.02A1.607,1.607,0,0,0,63.9,14.87a4.145,4.145,0,0,0,0,8.28Z" transform="translate(-21.654 0)"/></g></g></svg>