<svg width="947" height="526" viewBox="0 0 947 526" fill="none" xmlns="http://www.w3.org/2000/svg">
<g clip-path="url(#clip0_80_23491)">
<path d="M937.204 317.781C931.17 315.425 928.605 322.723 928.583 323.38C927.991 323.094 926.673 327.551 926.673 327.551C926.673 327.551 936.079 335.778 937.632 338.347C939.196 329.443 941.509 319.462 937.204 317.781Z" fill="#D64242"/>
<path d="M937.204 317.781C931.17 315.425 928.605 322.723 928.583 323.38C927.991 323.094 926.673 327.551 926.673 327.551C926.673 327.551 936.079 335.778 937.632 338.347C939.196 329.443 941.509 319.462 937.204 317.781Z" fill="#D64242"/>
<path d="M919.623 328.411C920.34 321.973 927.995 323.092 928.586 323.377C928.416 323.095 932.047 329.101 932.047 329.101C932.047 329.101 936.083 335.776 937.636 338.344C929.025 335.593 919.112 333.004 919.623 328.411Z" fill="#FF6969"/>
<path d="M919.623 328.411C920.34 321.973 927.995 323.092 928.586 323.377C928.416 323.095 932.047 329.101 932.047 329.101C932.047 329.101 936.083 335.776 937.636 338.344C929.025 335.593 919.112 333.004 919.623 328.411Z" fill="#FF6969"/>
<path d="M231.358 8.85778C227.36 5.82753 223.907 10.7238 223.752 11.208C223.371 10.8706 221.448 13.913 221.448 13.913C221.448 13.913 226.718 22.0295 227.333 24.2714C230.379 17.9679 234.211 11.0197 231.358 8.85778Z" fill="#FE8383"/>
<path d="M231.358 8.85778C227.36 5.82753 223.907 10.7238 223.752 11.208C223.371 10.8706 221.448 13.913 221.448 13.913C221.448 13.913 226.718 22.0295 227.333 24.2714C230.379 17.9679 234.211 11.0197 231.358 8.85778Z" fill="#FE8383"/>
<path d="M216.013 13.0644C217.907 8.41897 223.375 10.8697 223.755 11.2071C223.687 10.9607 225.124 16.2026 225.124 16.2026C225.124 16.2026 226.721 22.0286 227.336 24.2705C221.502 20.4014 214.662 16.3788 216.013 13.0644Z" fill="#FFA4A4"/>
<path d="M216.013 13.0644C217.907 8.41897 223.375 10.8697 223.755 11.2071C223.687 10.9607 225.124 16.2026 225.124 16.2026C225.124 16.2026 226.721 22.0286 227.336 24.2705C221.502 20.4014 214.662 16.3788 216.013 13.0644Z" fill="#FFA4A4"/>
<path d="M708.276 24.5876C708.956 19.6172 702.995 19.009 702.497 19.1114C702.605 18.6144 699.01 18.4299 699.01 18.4299C699.01 18.4299 694.521 27.0039 692.869 28.639C699.856 28.2018 707.791 28.1337 708.276 24.5876Z" fill="#FE8383"/>
<path d="M708.276 24.5876C708.956 19.6172 702.995 19.009 702.497 19.1114C702.605 18.6144 699.01 18.4299 699.01 18.4299C699.01 18.4299 694.521 27.0039 692.869 28.639C699.856 28.2018 707.791 28.1337 708.276 24.5876Z" fill="#FE8383"/>
<path d="M697.084 13.2779C702.061 12.6501 702.607 18.6167 702.499 19.1136C702.681 18.9339 698.818 22.7571 698.818 22.7571C698.818 22.7571 694.524 27.0062 692.871 28.6413C693.382 21.6592 693.533 13.7258 697.084 13.2779Z" fill="#FFA4A4"/>
<path d="M697.084 13.2779C702.061 12.6501 702.607 18.6167 702.499 19.1136C702.681 18.9339 698.818 22.7571 698.818 22.7571C698.818 22.7571 694.524 27.0062 692.871 28.6413C693.382 21.6592 693.533 13.7258 697.084 13.2779Z" fill="#FFA4A4"/>
<path d="M804.082 111.958C800.716 109.288 797.306 113.242 797.135 113.639C796.818 113.344 794.897 115.809 794.897 115.809C794.897 115.809 799.058 122.761 799.456 124.651C802.597 119.511 806.483 113.862 804.082 111.958Z" fill="#F95555"/>
<path d="M804.082 111.958C800.716 109.288 797.306 113.242 797.135 113.639C796.818 113.344 794.897 115.809 794.897 115.809C794.897 115.809 799.058 122.761 799.456 124.651C802.597 119.511 806.483 113.862 804.082 111.958Z" fill="#F95555"/>
<path d="M790.103 114.905C792.105 111.104 796.821 113.344 797.138 113.639C797.094 113.431 798.026 117.849 798.026 117.849C798.026 117.849 799.061 122.76 799.459 124.65C794.511 121.215 788.675 117.616 790.103 114.905Z" fill="#F95555"/>
<path d="M790.103 114.905C792.105 111.104 796.821 113.344 797.138 113.639C797.094 113.431 798.026 117.849 798.026 117.849C798.026 117.849 799.061 122.76 799.459 124.65C794.511 121.215 788.675 117.616 790.103 114.905Z" fill="#F95555"/>
<path d="M931.802 187.17C929.604 182.731 924.521 185.674 924.18 186.045C923.992 185.578 921.026 187.502 921.026 187.502C921.026 187.502 922.176 197.073 921.761 199.358C927.086 194.971 933.369 190.338 931.802 187.17Z" fill="#EE5151"/>
<path d="M931.802 187.17C929.604 182.731 924.521 185.674 924.18 186.045C923.992 185.578 921.026 187.502 921.026 187.502C921.026 187.502 922.176 197.073 921.761 199.358C927.086 194.971 933.369 190.338 931.802 187.17Z" fill="#EE5151"/>
<path d="M916.653 184.417C920.272 181.035 923.995 185.579 924.183 186.045C924.229 185.794 923.258 191.137 923.258 191.137C923.258 191.137 922.179 197.074 921.764 199.359C918.323 193.379 914.071 186.831 916.653 184.417Z" fill="#EE5151"/>
<path d="M916.653 184.417C920.272 181.035 923.995 185.579 924.183 186.045C924.229 185.794 923.258 191.137 923.258 191.137C923.258 191.137 922.179 197.074 921.764 199.359C918.323 193.379 914.071 186.831 916.653 184.417Z" fill="#EE5151"/>
<path d="M17.0993 93.32C12.8906 90.7072 10.1244 95.8895 10.0307 96.3839C9.6247 96.0867 8.12001 99.2853 8.12001 99.2853C8.12001 99.2853 14.1454 106.811 14.9978 108.971C17.2078 102.435 20.1021 95.1841 17.0993 93.32Z" fill="#EE5151"/>
<path d="M17.0993 93.32C12.8906 90.7072 10.1244 95.8895 10.0307 96.3839C9.6247 96.0867 8.12001 99.2853 8.12001 99.2853C8.12001 99.2853 14.1454 106.811 14.9978 108.971C17.2078 102.435 20.1021 95.1841 17.0993 93.32Z" fill="#EE5151"/>
<path d="M2.77772 98.9717C4.06796 94.1888 9.62769 96.0855 10.0337 96.3828C9.94001 96.1453 11.9332 101.196 11.9332 101.196C11.9332 101.196 14.1484 106.809 15.0008 108.97C8.9229 105.704 1.85719 102.384 2.77772 98.9717Z" fill="#EE5151"/>
<path d="M2.77772 98.9717C4.06796 94.1888 9.62769 96.0855 10.0337 96.3828C9.94001 96.1453 11.9332 101.196 11.9332 101.196C11.9332 101.196 14.1484 106.809 15.0008 108.97C8.9229 105.704 1.85719 102.384 2.77772 98.9717Z" fill="#EE5151"/>
<g filter="url(#filter0_f_80_23491)">
<path d="M66.0037 183.636C63.8063 179.197 58.7226 182.14 58.3823 182.511C58.1941 182.044 55.2285 183.968 55.2285 183.968C55.2285 183.968 56.3779 193.539 55.9627 195.824C61.2879 191.437 67.5714 186.804 66.0037 183.636Z" fill="url(#paint0_linear_80_23491)" fill-opacity="0.8"/>
<path d="M66.0037 183.636C63.8063 179.197 58.7226 182.14 58.3823 182.511C58.1941 182.044 55.2285 183.968 55.2285 183.968C55.2285 183.968 56.3779 193.539 55.9627 195.824C61.2879 191.437 67.5714 186.804 66.0037 183.636Z" fill="url(#paint1_linear_80_23491)" fill-opacity="0.8"/>
<path d="M50.8554 180.883C54.4745 177.501 58.1973 182.045 58.3855 182.511C58.4311 182.26 57.4603 187.602 57.4603 187.602C57.4603 187.602 56.3811 193.54 55.9659 195.825C52.5248 189.845 48.2734 183.297 50.8554 180.883Z" fill="url(#paint2_linear_80_23491)" fill-opacity="0.8"/>
<path d="M50.8554 180.883C54.4745 177.501 58.1973 182.045 58.3855 182.511C58.4311 182.26 57.4603 187.602 57.4603 187.602C57.4603 187.602 56.3811 193.54 55.9659 195.825C52.5248 189.845 48.2734 183.297 50.8554 180.883Z" fill="url(#paint3_linear_80_23491)" fill-opacity="0.8"/>
</g>
<g filter="url(#filter1_f_80_23491)">
<path d="M508.589 -2.07523C503.85 -3.51524 502.512 2.20486 502.549 2.70671C502.08 2.52416 501.451 6.0025 501.451 6.0025C501.451 6.0025 509.212 11.7209 510.592 13.5884C511.043 6.70365 511.971 -1.04785 508.589 -2.07523Z" fill="url(#paint4_linear_80_23491)" fill-opacity="0.8"/>
<path d="M508.589 -2.07523C503.85 -3.51524 502.512 2.20486 502.549 2.70671C502.08 2.52416 501.451 6.0025 501.451 6.0025C501.451 6.0025 509.212 11.7209 510.592 13.5884C511.043 6.70365 511.971 -1.04785 508.589 -2.07523Z" fill="url(#paint5_linear_80_23491)" fill-opacity="0.8"/>
<path d="M496.208 7.07621C496.222 2.12239 502.083 2.52235 502.552 2.7049C502.4 2.49959 505.627 6.86609 505.627 6.86609C505.627 6.86609 509.214 11.7191 510.595 13.5866C503.881 11.9977 496.198 10.6105 496.208 7.07621Z" fill="url(#paint6_linear_80_23491)" fill-opacity="0.8"/>
<path d="M496.208 7.07621C496.222 2.12239 502.083 2.52235 502.552 2.7049C502.4 2.49959 505.627 6.86609 505.627 6.86609C505.627 6.86609 509.214 11.7191 510.595 13.5866C503.881 11.9977 496.198 10.6105 496.208 7.07621Z" fill="url(#paint7_linear_80_23491)" fill-opacity="0.8"/>
</g>
<path d="M806.354 226.678C801.544 219.611 793.305 225.642 792.791 226.34C792.36 225.588 787.599 229.456 787.599 229.456C787.599 229.456 791.7 245.43 791.475 249.385C799.82 240.86 809.786 231.721 806.354 226.678Z" fill="#DF2F39"/>
<path d="M806.354 226.678C801.544 219.611 793.305 225.642 792.791 226.34C792.36 225.588 787.599 229.456 787.599 229.456C787.599 229.456 791.7 245.43 791.475 249.385C799.82 240.86 809.786 231.721 806.354 226.678Z" fill="#DF2F39"/>
<path d="M779.284 225.132C784.867 218.658 792.366 225.588 792.797 226.34C792.822 225.905 792.293 235.153 792.293 235.153C792.293 235.153 791.706 245.431 791.48 249.386C784.16 239.965 775.3 229.75 779.284 225.132Z" fill="#FE4F5A"/>
<path d="M779.284 225.132C784.867 218.658 792.366 225.588 792.797 226.34C792.822 225.905 792.293 235.153 792.293 235.153C792.293 235.153 791.706 245.431 791.48 249.386C784.16 239.965 775.3 229.75 779.284 225.132Z" fill="#FE4F5A"/>
<path d="M874.442 59.5032C879.15 55.8253 883.347 61.5958 883.54 62.1697C883.987 61.7613 886.331 65.3507 886.331 65.3507C886.331 65.3507 880.196 75.1072 879.503 77.7875C875.767 70.3343 871.083 62.1271 874.442 59.5032Z" fill="#D93535"/>
<path d="M874.442 59.5032C879.15 55.8253 883.347 61.5958 883.54 62.1697C883.987 61.7613 886.331 65.3507 886.331 65.3507C886.331 65.3507 880.196 75.1072 879.503 77.7875C875.767 70.3343 871.083 62.1271 874.442 59.5032Z" fill="#D93535"/>
<path d="M892.787 64.2458C890.452 58.747 883.984 61.7603 883.537 62.1686C883.613 61.874 881.993 68.1409 881.993 68.1409C881.993 68.1409 880.192 75.1061 879.499 77.7865C886.379 73.0779 894.454 68.169 892.787 64.2458Z" fill="#FE5F5F"/>
<path d="M892.787 64.2458C890.452 58.747 883.984 61.7603 883.537 62.1686C883.613 61.874 881.993 68.1409 881.993 68.1409C881.993 68.1409 880.192 75.1061 879.499 77.7865C886.379 73.0779 894.454 68.169 892.787 64.2458Z" fill="#FE5F5F"/>
<path d="M800.881 433.045C803.256 426.697 810.735 429.792 811.262 430.232C811.453 429.572 815.847 431.655 815.847 431.655C815.847 431.655 815.694 444.729 816.612 447.733C808.581 442.737 799.187 437.573 800.881 433.045Z" fill="#D93535"/>
<path d="M800.881 433.045C803.256 426.697 810.735 429.792 811.262 430.232C811.453 429.572 815.847 431.655 815.847 431.655C815.847 431.655 815.694 444.729 816.612 447.733C808.581 442.737 799.187 437.573 800.881 433.045Z" fill="#D93535"/>
<path d="M821.438 426.761C815.919 422.826 811.448 429.574 811.258 430.234C811.157 429.903 813.304 436.926 813.304 436.926C813.304 436.926 815.69 444.73 816.608 447.734C820.473 439.102 825.374 429.568 821.438 426.761Z" fill="#FE5F5F"/>
<path d="M821.438 426.761C815.919 422.826 811.448 429.574 811.258 430.234C811.157 429.903 813.304 436.926 813.304 436.926C813.304 436.926 815.69 444.73 816.608 447.734C820.473 439.102 825.374 429.568 821.438 426.761Z" fill="#FE5F5F"/>
<path d="M87.2173 249.672C89.1483 242.347 97.8126 244.952 98.4478 245.383C98.5857 244.628 103.706 246.453 103.706 246.453C103.706 246.453 104.998 261.009 106.355 264.247C96.8649 259.59 85.8397 254.898 87.2173 249.672Z" fill="#E73232"/>
<path d="M87.2173 249.672C89.1483 242.347 97.8126 244.952 98.4478 245.383C98.5857 244.628 103.706 246.453 103.706 246.453C103.706 246.453 104.998 261.009 106.355 264.247C96.8649 259.59 85.8397 254.898 87.2173 249.672Z" fill="#E73232"/>
<path d="M109.375 240.384C102.798 236.626 98.5811 244.63 98.4432 245.385C98.294 245.029 101.467 252.599 101.467 252.599C101.467 252.599 104.993 261.011 106.35 264.249C109.683 254.217 114.068 243.066 109.375 240.384Z" fill="#FF5F5F"/>
<path d="M109.375 240.384C102.798 236.626 98.5811 244.63 98.4432 245.385C98.294 245.029 101.467 252.599 101.467 252.599C101.467 252.599 104.993 261.011 106.35 264.249C109.683 254.217 114.068 243.066 109.375 240.384Z" fill="#FF5F5F"/>
<path d="M92.3932 415.779C94.2138 411.018 88.423 409.563 87.9039 409.591C88.1252 409.121 84.5908 408.421 84.5908 408.421C84.5908 408.421 78.1515 416.157 76.1311 417.517C83.1837 418.098 91.0943 419.177 92.3932 415.779Z" fill="#F05252"/>
<path d="M92.3932 415.779C94.2138 411.018 88.423 409.563 87.9039 409.591C88.1252 409.121 84.5908 408.421 84.5908 408.421C84.5908 408.421 78.1515 416.157 76.1311 417.517C83.1837 418.098 91.0943 419.177 92.3932 415.779Z" fill="#F05252"/>
<path d="M83.8605 403.106C88.9573 403.211 88.1269 409.123 87.9055 409.594C88.1277 409.444 83.4036 412.625 83.4036 412.625C83.4036 412.625 78.1532 416.16 76.1327 417.52C78.2476 410.767 80.2242 403.032 83.8605 403.106Z" fill="#F05252"/>
<path d="M83.8605 403.106C88.9573 403.211 88.1269 409.123 87.9055 409.594C88.1277 409.444 83.4036 412.625 83.4036 412.625C83.4036 412.625 78.1532 416.16 76.1327 417.52C78.2476 410.767 80.2242 403.032 83.8605 403.106Z" fill="#F05252"/>
<g opacity="0.6" filter="url(#filter2_f_80_23491)">
<path d="M875.684 205.592C874.947 202.477 871.427 203.768 871.168 203.966C871.116 203.643 869.035 204.529 869.035 204.529C869.035 204.529 868.424 210.819 867.856 212.239C871.722 210.049 876.21 207.815 875.684 205.592Z" fill="#FF9292"/>
<path d="M875.684 205.592C874.947 202.477 871.427 203.768 871.168 203.966C871.116 203.643 869.035 204.529 869.035 204.529C869.035 204.529 868.424 210.819 867.856 212.239C871.722 210.049 876.21 207.815 875.684 205.592Z" fill="#FF9292"/>
<path d="M866.778 202.027C869.461 200.281 871.118 203.644 871.17 203.966C871.232 203.81 869.903 207.13 869.903 207.13C869.903 207.13 868.426 210.82 867.858 212.24C866.57 207.987 864.864 203.273 866.778 202.027Z" fill="#FF9292"/>
<path d="M866.778 202.027C869.461 200.281 871.118 203.644 871.17 203.966C871.232 203.81 869.903 207.13 869.903 207.13C869.903 207.13 868.426 210.82 867.858 212.24C866.57 207.987 864.864 203.273 866.778 202.027Z" fill="#FF9292"/>
</g>
<g opacity="0.6" filter="url(#filter3_f_80_23491)">
<path d="M12.5546 486.006C11.8177 482.891 8.29756 484.181 8.03804 484.379C7.98682 484.057 5.90494 484.942 5.90494 484.942C5.90494 484.942 5.29453 491.233 4.72614 492.653C8.59265 490.463 13.0803 488.229 12.5546 486.006Z" fill="#FF9292"/>
<path d="M12.5546 486.006C11.8177 482.891 8.29756 484.181 8.03804 484.379C7.98682 484.057 5.90494 484.942 5.90494 484.942C5.90494 484.942 5.29453 491.233 4.72614 492.653C8.59265 490.463 13.0803 488.229 12.5546 486.006Z" fill="#FF9292"/>
<path d="M3.64854 482.441C6.33137 480.695 7.98884 484.058 8.04007 484.38C8.10255 484.224 6.7736 487.544 6.7736 487.544C6.7736 487.544 5.29655 491.234 4.72816 492.653C3.44066 488.401 1.73446 483.687 3.64854 482.441Z" fill="#FF9292"/>
<path d="M3.64854 482.441C6.33137 480.695 7.98884 484.058 8.04007 484.38C8.10255 484.224 6.7736 487.544 6.7736 487.544C6.7736 487.544 5.29655 491.234 4.72816 492.653C3.44066 488.401 1.73446 483.687 3.64854 482.441Z" fill="#FF9292"/>
</g>
<path d="M193.996 334.027C190.509 332.554 189.036 336.794 189.024 337.178C188.682 337.002 187.926 339.595 187.926 339.595C187.926 339.595 193.367 344.56 194.266 346.09C195.159 340.894 196.483 335.078 193.996 334.027Z" fill="#FF7182"/>
<path d="M193.996 334.027C190.509 332.554 189.036 336.794 189.024 337.178C188.682 337.002 187.926 339.595 187.926 339.595C187.926 339.595 193.367 344.56 194.266 346.09C195.159 340.894 196.483 335.078 193.996 334.027Z" fill="#FF7182"/>
<path d="M183.856 339.992C184.263 336.229 188.684 337.001 189.026 337.177C188.927 337.009 191.031 340.585 191.031 340.585C191.031 340.585 193.369 344.559 194.268 346.088C189.293 344.345 183.566 342.677 183.856 339.992Z" fill="#FF7182"/>
<path d="M183.856 339.992C184.263 336.229 188.684 337.001 189.026 337.177C188.927 337.009 191.031 340.585 191.031 340.585C191.031 340.585 193.369 344.559 194.268 346.088C189.293 344.345 183.566 342.677 183.856 339.992Z" fill="#FF7182"/>
<path d="M351.832 15.0201C350.165 11.6218 346.273 13.8571 346.012 14.1393C345.869 13.7822 343.598 15.244 343.598 15.244C343.598 15.244 344.451 22.5604 344.127 24.3051C348.208 20.9675 353.021 17.4446 351.832 15.0201Z" fill="#FF7182"/>
<path d="M351.832 15.0201C350.165 11.6218 346.273 13.8571 346.012 14.1393C345.869 13.7822 343.598 15.244 343.598 15.244C343.598 15.244 344.451 22.5604 344.127 24.3051C348.208 20.9675 353.021 17.4446 351.832 15.0201Z" fill="#FF7182"/>
<path d="M340.265 12.8755C343.039 10.3006 345.872 13.7827 346.014 14.1398C346.05 13.948 345.293 18.0272 345.293 18.0272C345.293 18.0272 344.453 22.5609 344.129 24.3055C341.516 19.7269 338.286 14.7125 340.265 12.8755Z" fill="#FF7182"/>
<path d="M340.265 12.8755C343.039 10.3006 345.872 13.7827 346.014 14.1398C346.05 13.948 345.293 18.0272 345.293 18.0272C345.293 18.0272 344.453 22.5609 344.129 24.3055C341.516 19.7269 338.286 14.7125 340.265 12.8755Z" fill="#FF7182"/>
<path d="M848.237 340.723C845.464 338.147 842.63 341.627 842.487 341.984C842.226 341.702 840.629 343.88 840.629 343.88C840.629 343.88 844.044 350.406 844.366 352.151C846.982 347.574 850.215 342.561 848.237 340.723Z" fill="#FF7182"/>
<path d="M848.237 340.723C845.464 338.147 842.63 341.627 842.487 341.984C842.226 341.702 840.629 343.88 840.629 343.88C840.629 343.88 844.044 350.406 844.366 352.151C846.982 347.574 850.215 342.561 848.237 340.723Z" fill="#FF7182"/>
<path d="M836.669 342.861C838.337 339.464 842.228 341.701 842.489 341.984C842.454 341.792 843.208 345.872 843.208 345.872C843.208 345.872 844.046 350.406 844.369 352.151C840.29 348.811 835.478 345.285 836.669 342.861Z" fill="#FF7182"/>
<path d="M836.669 342.861C838.337 339.464 842.228 341.701 842.489 341.984C842.454 341.792 843.208 345.872 843.208 345.872C843.208 345.872 844.046 350.406 844.369 352.151C840.29 348.811 835.478 345.285 836.669 342.861Z" fill="#FF7182"/>
<path d="M97.6677 516.865C97.1064 513.122 92.7205 514.076 92.3863 514.266C92.3584 513.882 89.7516 514.589 89.7516 514.589C89.7516 514.589 88.3515 521.821 87.5156 523.386C92.4145 521.438 98.0681 519.536 97.6677 516.865Z" fill="#FF7182"/>
<path d="M97.6677 516.865C97.1064 513.122 92.7205 514.076 92.3863 514.266C92.3584 513.882 89.7516 514.589 89.7516 514.589C89.7516 514.589 88.3515 521.821 87.5156 523.386C92.4145 521.438 98.0681 519.536 97.6677 516.865Z" fill="#FF7182"/>
<path d="M87.2907 511.323C90.7139 509.708 92.3604 513.884 92.3883 514.267C92.4802 514.095 90.5257 517.754 90.5257 517.754C90.5257 517.754 88.3535 521.822 87.5176 523.387C86.4115 518.232 84.8485 512.476 87.2907 511.323Z" fill="#FF7182"/>
<path d="M87.2907 511.323C90.7139 509.708 92.3604 513.884 92.3883 514.267C92.4802 514.095 90.5257 517.754 90.5257 517.754C90.5257 517.754 88.3535 521.822 87.5176 523.387C86.4115 518.232 84.8485 512.476 87.2907 511.323Z" fill="#FF7182"/>
<path d="M33.8227 333.078C33.2615 329.335 28.8755 330.289 28.5413 330.479C28.5135 330.095 25.9066 330.802 25.9066 330.802C25.9066 330.802 24.5065 338.034 23.6706 339.599C28.5696 337.651 34.2231 335.749 33.8227 333.078Z" fill="#FF7182"/>
<path d="M33.8227 333.078C33.2615 329.335 28.8755 330.289 28.5413 330.479C28.5135 330.095 25.9066 330.802 25.9066 330.802C25.9066 330.802 24.5065 338.034 23.6706 339.599C28.5696 337.651 34.2231 335.749 33.8227 333.078Z" fill="#FF7182"/>
<path d="M23.4458 327.536C26.8689 325.921 28.5155 330.097 28.5433 330.48C28.6352 330.308 26.6808 333.967 26.6808 333.967C26.6808 333.967 24.5085 338.035 23.6726 339.6C22.5665 334.445 21.0035 328.689 23.4458 327.536Z" fill="#FF7182"/>
<path d="M23.4458 327.536C26.8689 325.921 28.5155 330.097 28.5433 330.48C28.6352 330.308 26.6808 333.967 26.6808 333.967C26.6808 333.967 24.5085 338.035 23.6726 339.6C22.5665 334.445 21.0035 328.689 23.4458 327.536Z" fill="#FF7182"/>
<path d="M903.938 479.005C903.376 475.261 898.991 476.215 898.656 476.405C898.628 476.022 896.022 476.728 896.022 476.728C896.022 476.728 894.622 483.96 893.786 485.525C898.685 483.578 904.338 481.675 903.938 479.005Z" fill="#FF7182"/>
<path d="M903.938 479.005C903.376 475.261 898.991 476.215 898.656 476.405C898.628 476.022 896.022 476.728 896.022 476.728C896.022 476.728 894.622 483.96 893.786 485.525C898.685 483.578 904.338 481.675 903.938 479.005Z" fill="#FF7182"/>
<path d="M893.561 473.463C896.984 471.847 898.63 476.023 898.658 476.406C898.75 476.234 896.796 479.894 896.796 479.894C896.796 479.894 894.624 483.961 893.788 485.526C892.682 480.372 891.119 474.615 893.561 473.463Z" fill="#FF7182"/>
<path d="M893.561 473.463C896.984 471.847 898.63 476.023 898.658 476.406C898.75 476.234 896.796 479.894 896.796 479.894C896.796 479.894 894.624 483.961 893.788 485.526C892.682 480.372 891.119 474.615 893.561 473.463Z" fill="#FF7182"/>
<path d="M793.646 1.28807C791.411 -1.42007 788.379 1.43472 788.204 1.74563C787.999 1.45404 786.264 3.26195 786.264 3.26195C786.264 3.26195 788.607 9.6813 788.691 11.3254C791.655 7.43531 795.241 3.22021 793.646 1.28807Z" fill="#FFA2AD"/>
<path d="M793.646 1.28807C791.411 -1.42007 788.379 1.43472 788.204 1.74563C787.999 1.45404 786.264 3.26195 786.264 3.26195C786.264 3.26195 788.607 9.6813 788.691 11.3254C791.655 7.43531 795.241 3.22021 793.646 1.28807Z" fill="#FFA2AD"/>
<path d="M782.746 1.84164C784.696 -1.07903 788.001 1.45399 788.207 1.74558C788.197 1.56483 788.393 5.40891 788.393 5.40891C788.393 5.40891 788.609 9.68125 788.693 11.3253C785.35 7.75557 781.355 3.9254 782.746 1.84164Z" fill="#FFA2AD"/>
<path d="M782.746 1.84164C784.696 -1.07903 788.001 1.45399 788.207 1.74558C788.197 1.56483 788.393 5.40891 788.393 5.40891C788.393 5.40891 788.609 9.68125 788.693 11.3253C785.35 7.75557 781.355 3.9254 782.746 1.84164Z" fill="#FFA2AD"/>
<path d="M110.871 37.5724C106.841 31.6511 99.9383 36.7041 99.508 37.2887C99.147 36.6589 95.158 39.8997 95.158 39.8997C95.158 39.8997 98.5942 53.2834 98.4048 56.5971C105.397 49.4542 113.747 41.797 110.871 37.5724Z" fill="#DF2F39"/>
<path d="M110.871 37.5724C106.841 31.6511 99.9383 36.7041 99.508 37.2887C99.147 36.6589 95.158 39.8997 95.158 39.8997C95.158 39.8997 98.5942 53.2834 98.4048 56.5971C105.397 49.4542 113.747 41.797 110.871 37.5724Z" fill="#DF2F39"/>
<path d="M88.191 36.2766C92.8693 30.8528 99.1517 36.6592 99.5127 37.289C99.5335 36.9247 99.0909 44.6726 99.0909 44.6726C99.0909 44.6726 98.5989 53.2837 98.4096 56.5974C92.2765 48.7046 84.8532 40.1462 88.191 36.2766Z" fill="#FE4F5A"/>
<path d="M88.191 36.2766C92.8693 30.8528 99.1517 36.6592 99.5127 37.289C99.5335 36.9247 99.0909 44.6726 99.0909 44.6726C99.0909 44.6726 98.5989 53.2837 98.4096 56.5974C92.2765 48.7046 84.8532 40.1462 88.191 36.2766Z" fill="#FE4F5A"/>
<path d="M221.145 147.868C217.533 143.209 212.12 147.711 211.796 148.214C211.468 147.715 208.356 150.58 208.356 150.58C208.356 150.58 211.86 161.399 211.873 164.13C217.253 157.907 223.722 151.192 221.145 147.868Z" fill="#DF2F39"/>
<path d="M221.145 147.868C217.533 143.209 212.12 147.711 211.796 148.214C211.468 147.715 208.356 150.58 208.356 150.58C208.356 150.58 211.86 161.399 211.873 164.13C217.253 157.907 223.722 151.192 221.145 147.868Z" fill="#DF2F39"/>
<path d="M202.448 147.958C206.015 143.265 211.471 147.715 211.8 148.214C211.799 147.913 211.829 154.3 211.829 154.3C211.829 154.3 211.864 161.399 211.877 164.13C206.437 157.959 199.904 151.307 202.448 147.958Z" fill="#FE4F5A"/>
<path d="M202.448 147.958C206.015 143.265 211.471 147.715 211.8 148.214C211.799 147.913 211.829 154.3 211.829 154.3C211.829 154.3 211.864 161.399 211.877 164.13C206.437 157.959 199.904 151.307 202.448 147.958Z" fill="#FE4F5A"/>
</g>
<defs>
<filter id="filter0_f_80_23491" x="44.0618" y="173.641" width="28.1863" height="28.1841" filterUnits="userSpaceOnUse" color-interpolation-filters="sRGB">
<feFlood flood-opacity="0" result="BackgroundImageFix"/>
<feBlend mode="normal" in="SourceGraphic" in2="BackgroundImageFix" result="shape"/>
<feGaussianBlur stdDeviation="3" result="effect1_foregroundBlur_80_23491"/>
</filter>
<filter id="filter1_f_80_23491" x="490.208" y="-8.30704" width="26.8501" height="27.8955" filterUnits="userSpaceOnUse" color-interpolation-filters="sRGB">
<feFlood flood-opacity="0" result="BackgroundImageFix"/>
<feBlend mode="normal" in="SourceGraphic" in2="BackgroundImageFix" result="shape"/>
<feGaussianBlur stdDeviation="3" result="effect1_foregroundBlur_80_23491"/>
</filter>
<filter id="filter2_f_80_23491" x="860.92" y="196.527" width="19.8059" height="20.7125" filterUnits="userSpaceOnUse" color-interpolation-filters="sRGB">
<feFlood flood-opacity="0" result="BackgroundImageFix"/>
<feBlend mode="normal" in="SourceGraphic" in2="BackgroundImageFix" result="shape"/>
<feGaussianBlur stdDeviation="2.5" result="effect1_foregroundBlur_80_23491"/>
</filter>
<filter id="filter3_f_80_23491" x="-2.20923" y="476.941" width="19.8059" height="20.7125" filterUnits="userSpaceOnUse" color-interpolation-filters="sRGB">
<feFlood flood-opacity="0" result="BackgroundImageFix"/>
<feBlend mode="normal" in="SourceGraphic" in2="BackgroundImageFix" result="shape"/>
<feGaussianBlur stdDeviation="2.5" result="effect1_foregroundBlur_80_23491"/>
</filter>
<linearGradient id="paint0_linear_80_23491" x1="61.3717" y1="180.97" x2="58.5854" y2="196.301" gradientUnits="userSpaceOnUse">
<stop stop-color="#FFC5C5"/>
<stop offset="1" stop-color="#FFC5C5" stop-opacity="0"/>
</linearGradient>
<linearGradient id="paint1_linear_80_23491" x1="61.3717" y1="180.97" x2="58.5854" y2="196.301" gradientUnits="userSpaceOnUse">
<stop stop-color="#FFC5C5"/>
<stop offset="1" stop-color="#FFC5C5" stop-opacity="0"/>
</linearGradient>
<linearGradient id="paint2_linear_80_23491" x1="54.7312" y1="179.763" x2="51.9449" y2="195.094" gradientUnits="userSpaceOnUse">
<stop stop-color="#FFC5C5"/>
<stop offset="1" stop-color="#FFC5C5" stop-opacity="0"/>
</linearGradient>
<linearGradient id="paint3_linear_80_23491" x1="54.7312" y1="179.763" x2="51.9449" y2="195.094" gradientUnits="userSpaceOnUse">
<stop stop-color="#FFC5C5"/>
<stop offset="1" stop-color="#FFC5C5" stop-opacity="0"/>
</linearGradient>
<linearGradient id="paint4_linear_80_23491" x1="503.474" y1="-0.526811" x2="512.736" y2="12.004" gradientUnits="userSpaceOnUse">
<stop stop-color="#FFC5C5"/>
<stop offset="1" stop-color="#FFC5C5" stop-opacity="0"/>
</linearGradient>
<linearGradient id="paint5_linear_80_23491" x1="503.474" y1="-0.526811" x2="512.736" y2="12.004" gradientUnits="userSpaceOnUse">
<stop stop-color="#FFC5C5"/>
<stop offset="1" stop-color="#FFC5C5" stop-opacity="0"/>
</linearGradient>
<linearGradient id="paint6_linear_80_23491" x1="498.046" y1="3.48494" x2="507.308" y2="16.0158" gradientUnits="userSpaceOnUse">
<stop stop-color="#FFC5C5"/>
<stop offset="1" stop-color="#FFC5C5" stop-opacity="0"/>
</linearGradient>
<linearGradient id="paint7_linear_80_23491" x1="498.046" y1="3.48494" x2="507.308" y2="16.0158" gradientUnits="userSpaceOnUse">
<stop stop-color="#FFC5C5"/>
<stop offset="1" stop-color="#FFC5C5" stop-opacity="0"/>
</linearGradient>
<clipPath id="clip0_80_23491">
<rect width="947" height="526" fill="white"/>
</clipPath>
</defs>
</svg>
