<?xml version="1.0" encoding="utf-8"?>
<!-- Generator: Adobe Illustrator 24.2.1, SVG Export Plug-In . SVG Version: 6.00 Build 0)  -->
<svg version="1.1" id="Слой_1" xmlns="http://www.w3.org/2000/svg" xmlns:xlink="http://www.w3.org/1999/xlink" x="0px" y="0px"
	 width="40px" height="40px" viewBox="0 0 40 40" enable-background="new 0 0 40 40" xml:space="preserve">
<g>
	<circle cx="20" cy="20" r="20"/>
	<g>
		<path fill="#FFFFFF" d="M29.3,21.9v6.4h-3.7v-6c0-1.5-0.5-2.5-1.9-2.5c-1,0-1.6,0.7-1.9,1.4c-0.1,0.2-0.1,0.6-0.1,0.9v6.3h-3.7
			c0,0,0-10.2,0-11.2h3.7v1.6c0,0,0,0,0,0h0v0c0.5-0.8,1.4-1.9,3.4-1.9C27.5,16.8,29.3,18.4,29.3,21.9L29.3,21.9z M14,11.7
			c-1.3,0-2.1,0.8-2.1,1.9c0,1.1,0.8,1.9,2.1,1.9h0c1.3,0,2.1-0.9,2.1-1.9C16.1,12.5,15.3,11.7,14,11.7L14,11.7z M12.1,28.3h3.7
			V17.1h-3.7V28.3z"/>
	</g>
</g>
</svg>
