<?xml version="1.0" encoding="utf-8"?>
<!-- Generator: Adobe Illustrator 24.2.1, SVG Export Plug-In . SVG Version: 6.00 Build 0)  -->
<svg version="1.1" id="Слой_1" xmlns="http://www.w3.org/2000/svg" xmlns:xlink="http://www.w3.org/1999/xlink" x="0px" y="0px"
	 width="40px" height="40px" viewBox="0 0 40 40" style="enable-background:new 0 0 40 40;" xml:space="preserve">
<style type="text/css">
	.st0{fill:#FFFFFF;}
</style>
<circle cx="20" cy="20" r="20"/>
<g>
	<g>
		<path class="st0" d="M15.9,29.4c-0.1,0-0.1,0-0.2,0c-1.2,0-2.3-0.5-3.1-1.4L12,27.4c-0.8-0.8-1.3-2-1.4-3.1c0-1.2,0.4-2.3,1.2-3.1
			l3.5-3.5c0.8-0.8,1.9-1.2,3.1-1.2c1.2,0,2.3,0.5,3.1,1.4l0.6,0.6c0.3,0.3,0.3,0.7,0,1c-0.3,0.3-0.7,0.3-1,0l-0.6-0.6
			c-1.2-1.2-3.1-1.3-4.2-0.2l-3.5,3.5c-0.5,0.5-0.8,1.3-0.8,2c0,0.8,0.4,1.6,1,2.2l0.6,0.6c0.6,0.6,1.4,0.9,2.2,1
			c0.8,0,1.5-0.2,2-0.8l2.7-2.7c0.3-0.3,0.7-0.3,1,0c0.3,0.3,0.3,0.7,0,1l-2.7,2.7C18.1,28.9,17.1,29.4,15.9,29.4z"/>
	</g>
	<g>
		<path class="st0" d="M21.7,23.6c-0.1,0-0.1,0-0.2,0c-1.2,0-2.3-0.5-3.1-1.4l-0.6-0.6c-0.3-0.3-0.3-0.7,0-1c0.3-0.3,0.7-0.3,1,0
			l0.6,0.6c0.6,0.6,1.4,0.9,2.2,1c0.8,0,1.5-0.2,2-0.8l3.5-3.5c0.5-0.5,0.8-1.3,0.8-2c0-0.8-0.4-1.6-1-2.2L26.3,13
			c-0.6-0.6-1.4-0.9-2.2-1c-0.8,0-1.5,0.2-2,0.8l-2.7,2.7c-0.3,0.3-0.7,0.3-1,0c-0.3-0.3-0.3-0.7,0-1l2.7-2.7
			c0.8-0.8,1.9-1.2,3.1-1.2c1.2,0,2.3,0.5,3.1,1.4l0.6,0.6c0.8,0.8,1.3,2,1.4,3.1c0,1.2-0.4,2.3-1.2,3.1l-3.5,3.5
			C23.9,23.2,22.9,23.6,21.7,23.6z"/>
	</g>
</g>
</svg>
