<?xml version="1.0" encoding="utf-8"?>
<!-- Generator: Adobe Illustrator 24.2.1, SVG Export Plug-In . SVG Version: 6.00 Build 0)  -->
<svg version="1.1" id="Слой_1" xmlns="http://www.w3.org/2000/svg" xmlns:xlink="http://www.w3.org/1999/xlink" x="0px" y="0px"
	 width="60.6px" height="34.6px" viewBox="0 0 60.6 34.6" enable-background="new 0 0 60.6 34.6" xml:space="preserve">
<g>
	<path fill-rule="evenodd" clip-rule="evenodd" fill="#FFFFFF" d="M4.1,20.7H6l3.6,9.9h-2l-0.8-2.2H3.3l-0.7,2.2H0.6L4.1,20.7
		L4.1,20.7z M5.1,23l-1.2,3.7l2.4,0L5.1,23L5.1,23z"/>
	<path fill-rule="evenodd" clip-rule="evenodd" fill="#FFFFFF" d="M52.4,6.4h2.1v6.4c0,0.7,0.1,1.2,0.4,1.6c0.4,0.5,1,0.7,1.8,0.7
		c0.7,0,1.2-0.1,1.5-0.6c0.3-0.3,0.4-0.9,0.4-1.7V6.4h2.1l0,6.9c0,1.1-0.4,2-1,2.6c-0.7,0.7-1.8,1-3,1c-1.4,0-2.5-0.3-3.2-1
		c-0.6-0.6-1-1.4-1-2.5c-0.3,1.2-1,2.1-1.9,2.6c-0.8,0.5-1.7,0.8-2.8,0.8c-1.3,0-2.4-0.4-3.1-0.9c-0.8-0.5-2-1.7-2-4.4
		c0-1.7,0.4-3,1.4-4.1c0.8-0.9,1.9-1.3,3.6-1.3c1.3,0,2.2,0.3,3,0.9c0.8,0.6,1.3,1.4,1.7,2.4V6.4L52.4,6.4z M44.8,11.5
		c0,0.9,0.2,1.6,0.5,2.2c0.5,0.8,1.3,1.3,2.3,1.3c0.9,0,1.8-0.4,2.3-1.3c0.4-0.6,0.5-1.4,0.5-2.3c0-0.8-0.1-1.5-0.4-2
		c-0.5-0.9-1.2-1.5-2.4-1.5c-1.2,0-2,0.5-2.5,1.5C45,10,44.8,10.7,44.8,11.5L44.8,11.5z"/>
	<path fill-rule="evenodd" clip-rule="evenodd" fill="#FFFFFF" d="M12.5,30.3l3.6-9.7h-2.2l-2.6,7.3l-2.6-7.3h-2
		C5.6,15.2,7.1,9.3,11.4,5c6.7-6.7,17.5-6.7,24.2,0c0.3,0.3,0.6,0.7,0.9,1c-0.9,0-2.2,0-2.2,0c0,0,3.8,6.1,3.8,6.1c0,1.5,0,3,0,4.5
		l2.5,0c0.1,4.6-1.5,9.1-5,12.6C29.3,35.6,19.2,35.9,12.5,30.3L12.5,30.3z M19.6,31c0.9,0,1.8-0.2,2.5-0.8c1-0.9,0.9-2.1,0.9-2.2
		c0-1.5-0.4-2.6-2.2-3.2c-0.2-0.1-1.8-0.6-2.1-0.7c-0.3-0.1-0.7-0.4-0.6-0.9c0-0.7,0.7-1,1.5-1c0.3,0,0.8,0.1,1.1,0.3
		c0.3,0.3,0.3,1,0.3,1h1.9c0-0.8-0.3-1.7-1-2.3c-0.6-0.5-1.4-0.7-2.3-0.7c-0.9,0-1.7,0.2-2.3,0.8c-0.5,0.5-0.8,1.2-0.8,2.1
		c0.1,0.9,0.3,1.4,0.8,1.9c0.5,0.5,1.4,0.8,2.4,1.1c0.7,0.2,1.7,0.4,1.7,1.3c0,0.5-0.3,0.9-0.7,1.1c-0.3,0.2-0.7,0.2-1,0.2
		c-0.9,0-1.7-0.4-1.8-1.7h-1.8c0,0.4,0.2,1.7,1,2.5C17.7,30.7,18.7,31,19.6,31L19.6,31z M31.2,22.6v-4.1h2.5V15h-2.5v-13h-3.3L19,15
		v0l0,0v3.4h8.4l0,4.1h0v0H31.2L31.2,22.6z M22.7,15l4.7-7v7H22.7L22.7,15z"/>
	<path fill-rule="evenodd" clip-rule="evenodd" fill="#FFFFFF" d="M39.1,10.1c0.4-0.7,2.3-3.9,2.3-3.9h2.4c0,0,0,0,0,0
		c0,0-3.8,6-3.8,6c0,0,0,0.3,0,0.6C39.8,11.8,39.5,11,39.1,10.1L39.1,10.1z"/>
</g>
</svg>
