<?xml version="1.0" encoding="utf-8"?>
<!-- Generator: Adobe Illustrator 24.2.1, SVG Export Plug-In . SVG Version: 6.00 Build 0)  -->
<svg version="1.1" id="Слой_1" xmlns="http://www.w3.org/2000/svg" xmlns:xlink="http://www.w3.org/1999/xlink" x="0px" y="0px"
	 width="24px" height="24.6px" viewBox="0 0 24 24.6" enable-background="new 0 0 24 24.6" xml:space="preserve">
<g>
	<path fill-rule="evenodd" clip-rule="evenodd" fill="#FFFFFF" d="M22.5,0.5L24,0.3v20.5l-1.5-1.5V0.5z"/>
	<path fill-rule="evenodd" clip-rule="evenodd" fill="#FFFFFF" d="M19.2,17.2c2.7,0,4.8,1.7,4.8,3.7s-2.2,3.7-4.8,3.7
		s-4.8-1.7-4.8-3.7S16.5,17.2,19.2,17.2z"/>
	<path fill-rule="evenodd" clip-rule="evenodd" fill="#FFFFFF" d="M8.1,2.5h1.5v18.7l-1.5,0.1V2.5z"/>
	<path fill-rule="evenodd" clip-rule="evenodd" fill="#FFFFFF" d="M4.8,17.2c2.7,0,4.8,1.7,4.8,3.7s-2.2,3.7-4.8,3.7
		C2.2,24.6,0,23,0,20.9S2.2,17.2,4.8,17.2z"/>
	<path fill-rule="evenodd" clip-rule="evenodd" fill="#FFFFFF" d="M8.1,2.2L24,0v2.8L8.1,5V2.2z"/>
	<path fill-rule="evenodd" clip-rule="evenodd" fill="#FFFFFF" d="M8.3,7.8L24,5.6v1.9L8.3,9.8V7.8z"/>
</g>
</svg>
