<?xml version="1.0" encoding="utf-8"?>
<!-- Generator: Adobe Illustrator 24.2.1, SVG Export Plug-In . SVG Version: 6.00 Build 0)  -->
<svg version="1.1" id="Слой_1" xmlns="http://www.w3.org/2000/svg" xmlns:xlink="http://www.w3.org/1999/xlink" x="0px" y="0px"
	 width="23px" height="27px" viewBox="0 0 23 27" enable-background="new 0 0 23 27" xml:space="preserve">
<g>
	<g>
		<path fill-rule="evenodd" clip-rule="evenodd" fill="#FFFFFF" d="M4.6,0.1c2.3,0,4.1,1.9,4.1,4.1S6.9,8.4,4.6,8.4S0.5,6.5,0.5,4.2
			S2.4,0.1,4.6,0.1z"/>
		<path fill-rule="evenodd" clip-rule="evenodd" fill="#FFFFFF" d="M4.6,26.9c2.3,0,4.1-1.9,4.1-4.1s-1.9-4.1-4.1-4.1
			s-4.1,1.9-4.1,4.1S2.4,26.9,4.6,26.9z"/>
	</g>
	<g>
		<path fill-rule="evenodd" clip-rule="evenodd" fill="#FFFFFF" d="M6.5,4.4L4.1,3.5C4.4,3.1,5,3,5.4,3.3l13.7,10.2
			c0.4,0.3,0.4,0.9,0.1,1.3l-0.1,0.1c-0.3,0.4-0.9,0.4-1.3,0.1L4.1,4.9C3.7,4.6,6.1,4.8,6.5,4.4z"/>
		<path fill-rule="evenodd" clip-rule="evenodd" fill="#FFFFFF" d="M6.5,22.6l-2.4,0.9C4.4,23.9,5,24,5.4,23.7l13.7-10.2
			c0.4-0.3,0.4-0.9,0.1-1.3l-0.1-0.1c-0.3-0.4-0.9-0.4-1.3-0.1L4.1,22.1C3.7,22.4,6.1,22.2,6.5,22.6z"/>
	</g>
	<path fill-rule="evenodd" clip-rule="evenodd" fill="#FFFFFF" d="M18.4,9.4c2.3,0,4.1,1.9,4.1,4.1s-1.9,4.1-4.1,4.1
		c-2.3,0-4.1-1.9-4.1-4.1S16.1,9.4,18.4,9.4z"/>
</g>
</svg>
