<svg id="Layer_1" enable-background="new 0 0 512 512" height="512" viewBox="0 0 512 512" width="512" xmlns="http://www.w3.org/2000/svg"><g><path d="m321.243 46.058c-4.095-2.787-9.304-3.367-13.911-1.55l-184.737 72.84c-5.719 2.255-9.477 7.777-9.477 13.923v251.069c-11.73-8.416-26.087-13.392-41.592-13.392-39.44 0-71.526 32.086-71.526 71.527 0 39.439 32.086 71.525 71.525 71.525s71.525-32.086 71.525-71.525v-231.96l154.804-58.039v148.927c-11.73-8.416-26.087-13.392-41.592-13.392-39.439 0-71.525 32.086-71.525 71.526 0 39.439 32.086 71.525 71.525 71.525s71.526-32.086 71.526-71.525v-299.106c0-4.953-2.451-9.586-6.545-12.373z"/><path d="m385.092 54.892c-8.266 0-14.967 6.701-14.967 14.967s6.701 14.967 14.967 14.967c23.372 0 42.388 19.015 42.388 42.388 0 8.266 6.701 14.967 14.966 14.967s14.967-6.701 14.967-14.967c0-39.879-32.443-72.322-72.321-72.322z"/><path d="m385.244 0c-8.266 0-14.967 6.701-14.967 14.967s6.701 14.967 14.967 14.967c53.388 0 96.823 43.434 96.823 96.822 0 8.266 6.701 14.967 14.966 14.967 8.266 0 14.967-6.701 14.967-14.967 0-69.894-56.863-126.756-126.756-126.756z"/><circle cx="385.093" cy="127.212" r="14.967"/></g></svg>