<?xml version="1.0" encoding="utf-8"?>
<!-- Generator: Adobe Illustrator 24.2.1, SVG Export Plug-In . SVG Version: 6.00 Build 0)  -->
<svg version="1.1" id="Слой_1" xmlns="http://www.w3.org/2000/svg" xmlns:xlink="http://www.w3.org/1999/xlink" x="0px" y="0px"
	 width="40px" height="40px" viewBox="0 0 40 40" enable-background="new 0 0 40 40" xml:space="preserve">
<g>
	<circle cx="20" cy="20" r="20"/>
	<path fill="#FFFFFF" d="M29.2,14.4c-0.7,0.3-1.4,0.5-2.2,0.6c0.8-0.5,1.4-1.2,1.7-2c-0.7,0.4-1.5,0.7-2.4,0.9
		c-0.7-0.7-1.7-1.2-2.8-1.2c-2.1,0-3.8,1.6-3.8,3.7c0,0.3,0,0.6,0.1,0.8c-3.2-0.2-6-1.6-7.8-3.9c-0.3,0.5-0.5,1.2-0.5,1.9
		c0,1.3,0.7,2.4,1.7,3.1c-0.6,0-1.2-0.2-1.7-0.5v0c0,1.8,1.3,3.3,3,3.6c-0.3,0.1-0.7,0.1-1,0.1c-0.2,0-0.5,0-0.7-0.1
		c0.5,1.5,1.9,2.5,3.6,2.6c-1.3,1-2.9,1.6-4.7,1.6c-0.3,0-0.6,0-0.9-0.1c1.7,1,3.7,1.7,5.8,1.7c7,0,10.8-5.6,10.8-10.5l0-0.5
		C28,15.8,28.7,15.2,29.2,14.4z"/>
</g>
</svg>
