<svg width="56" height="57" viewBox="0 0 56 57" fill="none" xmlns="http://www.w3.org/2000/svg">
<path d="M0 9.83333C0 4.67867 4.17867 0.5 9.33333 0.5H46.6667C51.8213 0.5 56 4.67867 56 9.83333V47.1667C56 52.3213 51.8213 56.5 46.6667 56.5H9.33333C4.17867 56.5 0 52.3213 0 47.1667V9.83333Z" fill="#333333"/>
<path d="M12.3638 12.7512H22.8775L30.3436 23.4309L39.4033 12.7512H42.7147L31.8389 25.5689L45.25 44.7512H34.7389L26.075 32.3606L15.5614 44.7512H12.25L24.5797 30.2226L12.3638 12.7512ZM17.4344 15.4179L36.1204 42.0846H40.1794L21.4934 15.4179H17.4344Z" fill="white"/>
</svg>
