<svg xmlns="http://www.w3.org/2000/svg" width="57.726" height="67.913" viewBox="0 0 57.726 67.913"><defs><style>.a{fill:#e6e9ed;}.b{fill:#434a54;}.c{fill:#656d78;}.d{fill:#2a9ee5;}.e{fill:#fda050;}.f{fill:#ffce54;}.g{fill:#ffae68;}.h{fill:#ccd1d9;}</style></defs><path class="a" d="M104.412,27.26V39.04L87.4,50.83l-3.19,2.21-3.19-2.21L64,39.04V0h40.412Zm0,0" transform="translate(-55.343 0.001)"/><path class="b" d="M159.532,164.015l-1.039,1.4H152L156.329,160Zm0,0" transform="translate(-131.726 -138.07)"/><path class="c" d="M206.493,136l6.493,8.657H200l1.039-1.4Zm0,0" transform="translate(-173.369 -117.345)"/><path class="d" d="M145.971,56V75.478h-2.164l-6.493-8.657-5.454,7.261-3.2-4.015-4.328,5.411H120V56Zm0,0" transform="translate(-104.123 -48.425)"/><path class="e" d="M8.657,197.359v11.536L0,203.127Zm0,0" transform="translate(0 -170.269)"/><path class="f" d="M168.328,94.164A2.164,2.164,0,1,1,166.164,92,2.164,2.164,0,0,1,168.328,94.164Zm0,0" transform="translate(-142.107 -79.393)"/><path class="e" d="M376.657,203.127,368,208.895V197.359Zm0,0" transform="translate(-318.931 -170.269)"/><path class="e" d="M265.971,240v34.628L240,257.314l17.314-11.546Zm0,0" transform="translate(-208.245 -206.715)"/><path class="e" d="M25.971,257.314,0,274.628V240l8.657,5.768Zm0,0" transform="translate(0 -206.715)"/><path class="g" d="M57.726,385.314H0L25.656,368l3.207,2.164L32.07,368Zm0,0" transform="translate(0 -317.401)"/><g transform="translate(15.877 31.839)"><path class="h" d="M144.889,234.164H121.082a1.082,1.082,0,1,1,0-2.164h23.807a1.082,1.082,0,0,1,0,2.164Zm0,0" transform="translate(-120 -232)"/><path class="h" d="M144.889,266.164H121.082a1.082,1.082,0,1,1,0-2.164h23.807a1.082,1.082,0,0,1,0,2.164Zm0,0" transform="translate(-120 -259.672)"/><path class="h" d="M174.068,298.164H161.082a1.082,1.082,0,1,1,0-2.164h12.985a1.082,1.082,0,1,1,0,2.164Zm0,0" transform="translate(-154.589 -287.343)"/></g></svg>