<svg xmlns="http://www.w3.org/2000/svg" width="42" height="42" viewBox="0 0 42 42">
  <g id="reviews" transform="translate(-0.001 0)">
    <rect id="Rectangle_5" data-name="Rectangle 5" width="42" height="42" fill="none"/>
    <g id="Union_2" data-name="Union 2" transform="translate(0 0)" fill="none">
      <path d="M20.72,42l0,0H0V21.263l0,0c0-.087,0-.176,0-.264A21,21,0,1,1,21,42Z" stroke="none"/>
      <path d="M 21.00032234191895 39.99936294555664 C 26.07517242431641 39.99936294555664 30.84626197814941 38.02312088012695 34.4346923828125 34.4346923828125 C 38.02312088012695 30.84626197814941 39.99936294555664 26.07517242431641 39.99936294555664 21.00032234191895 C 39.99936294555664 15.92490100860596 38.02311325073242 11.15341186523438 34.43466186523438 7.564801692962646 C 30.84629058837891 3.976291418075562 26.07522201538086 2.000001430511475 21.00032234191895 2.000001430511475 C 15.9248514175415 2.000001430511475 11.15337181091309 3.976301431655884 7.564831256866455 7.564831256866455 C 3.976301431655884 11.15337181091309 2.000001430511475 15.9248514175415 2.000001430511475 21.00032234191895 C 2.000001430511475 21.0808219909668 2.000601530075073 21.16205215454102 2.001481533050537 21.24225234985352 L 2.053701400756836 26.14472198486328 L 2.000001430511475 26.09102058410645 L 2.000001430511475 39.99936294555664 L 15.57993507385254 39.99936294555664 L 15.50897121429443 39.93431091308594 L 20.74385070800781 39.99775314331055 C 20.82905197143555 39.99878311157227 20.91483116149902 39.99936294555664 21.00032234191895 39.99936294555664 M 21.00032234191895 41.99936294555664 C 20.90675163269043 41.99936294555664 20.8128719329834 41.99872970581055 20.7196216583252 41.99760055541992 L 20.72154235839844 41.99936294555664 L 1.472778308198031e-06 41.99936294555664 L 1.472778308198031e-06 21.26260185241699 L 0.001601472729817033 21.26420211791992 C 0.0006414727540686727 21.17672157287598 1.472778308198031e-06 21.08812141418457 1.472778308198031e-06 21.00032234191895 C 1.472778308198031e-06 9.401551246643066 9.401551246643066 1.472778308198031e-06 21.00032234191895 1.472778308198031e-06 C 32.59782028198242 1.472778308198031e-06 41.99936294555664 9.401551246643066 41.99936294555664 21.00032234191895 C 41.99936294555664 32.59782028198242 32.59782028198242 41.99936294555664 21.00032234191895 41.99936294555664 Z" stroke="none" fill="#666"/>
    </g>
    <circle id="Ellipse_6" data-name="Ellipse 6" cx="2.591" cy="2.591" r="2.591" transform="translate(10.519 19.723)" fill="#666"/>
    <circle id="Ellipse_7" data-name="Ellipse 7" cx="2.591" cy="2.591" r="2.591" transform="translate(18.409 19.723)" fill="#666"/>
    <circle id="Ellipse_8" data-name="Ellipse 8" cx="2.591" cy="2.591" r="2.591" transform="translate(26.298 19.723)" fill="#666"/>
  </g>
</svg>