<svg xmlns="http://www.w3.org/2000/svg" width="42.5" height="42.5" viewBox="0 0 42.5 42.5">
  <g id="Screentour" transform="translate(-16.25 -16.25)">
    <path id="Path_16033" data-name="Path 16033" d="M37.5,16.5a21,21,0,1,0,21,21A21,21,0,0,0,37.5,16.5Zm0,40.667A19.667,19.667,0,1,1,57.167,37.5,19.66,19.66,0,0,1,37.5,57.167Z" fill="#666" stroke="#666" stroke-width="0.5"/>
    <path id="Path_16034" data-name="Path 16034" d="M30.054,34.116A1.759,1.759,0,0,0,28.3,35.862v16.3a1.759,1.759,0,0,0,1.754,1.746h22.8a1.759,1.759,0,0,0,1.754-1.746v-16.3a1.759,1.759,0,0,0-1.754-1.746Zm0,1.164h22.8a.569.569,0,0,1,.585.582V49.781L48.313,44.2a.594.594,0,0,0-.859,0L43.27,48.617l-6.056-6.741a.6.6,0,0,0-.529-.191.588.588,0,0,0-.338.182l-6.878,7.36V35.862a.569.569,0,0,1,.585-.582ZM43.5,38.191a2.329,2.329,0,1,0,2.339,2.329A2.343,2.343,0,0,0,43.5,38.191Zm0,1.165a1.164,1.164,0,1,1-1.169,1.164A1.158,1.158,0,0,1,43.5,39.356Zm-6.731,3.775,8.641,9.616H30.054a.569.569,0,0,1-.585-.582V50.937Zm11.107,2.32,5.563,6.059v.655a.569.569,0,0,1-.585.582H46.979l-2.923-3.256Z" transform="translate(-3.953 -5.846)" fill="#666" stroke="#666" stroke-width="0.5"/>
    <circle id="Ellipse_422" data-name="Ellipse 422" cx="1.729" cy="1.729" r="1.729" transform="translate(33.17 30.703)" fill="#666" stroke="#666" stroke-width="0.5"/>
  </g>
</svg>