<svg xmlns="http://www.w3.org/2000/svg" width="40" height="40" viewBox="0 0 40 40">
  <g id="slider_arrow_left" transform="translate(954 111) rotate(180)">
    <g id="Ellipse_787" data-name="Ellipse 787" transform="translate(914 71)" fill="none" stroke="#fff" stroke-width="2">
      <circle cx="20" cy="20" r="20" stroke="none"/>
      <circle cx="20" cy="20" r="19" fill="none"/>
    </g>
    <path id="Path_24454" data-name="Path 24454" d="M7.944,16.174.728,9.043a.761.761,0,0,1,0-1.086L7.944.826a1.136,1.136,0,0,1,1.593,0,1.1,1.1,0,0,1,0,1.573L3.364,8.5l6.173,6.1a1.106,1.106,0,0,1,0,1.574A1.136,1.136,0,0,1,7.944,16.174Z" transform="translate(940.281 99.918) rotate(180)" fill="#fff" fill-rule="evenodd"/>
  </g>
</svg>
