<svg width="38" height="38" viewBox="0 0 38 38" fill="none" xmlns="http://www.w3.org/2000/svg">
<path d="M4.29995 4.8C5.18361 4.8 5.89995 4.08366 5.89995 3.2C5.89995 2.31634 5.18361 1.6 4.29995 1.6C3.41629 1.6 2.69995 2.31634 2.69995 3.2C2.69995 4.08366 3.41629 4.8 4.29995 4.8Z" fill="#FEFDFF"/>
<path d="M13.2 7C14.9673 7 16.4 5.56731 16.4 3.8C16.4 2.03269 14.9673 0.6 13.2 0.6C11.4327 0.6 10 2.03269 10 3.8C10 5.56731 11.4327 7 13.2 7Z" fill="#FEFDFF"/>
<path d="M23.7 4.9C24.3075 4.9 24.8 4.40751 24.8 3.8C24.8 3.19249 24.3075 2.7 23.7 2.7C23.0925 2.7 22.6 3.19249 22.6 3.8C22.6 4.40751 23.0925 4.9 23.7 4.9Z" fill="#FEFDFF"/>
<path d="M33.7 6.9C35.1359 6.9 36.3 5.73594 36.3 4.3C36.3 2.86406 35.1359 1.7 33.7 1.7C32.264 1.7 31.1 2.86406 31.1 4.3C31.1 5.73594 32.264 6.9 33.7 6.9Z" fill="#FEFDFF"/>
<path d="M3.19998 16.3C4.63592 16.3 5.79997 15.1359 5.79997 13.7C5.79997 12.2641 4.63592 11.1 3.19998 11.1C1.76403 11.1 0.599976 12.2641 0.599976 13.7C0.599976 15.1359 1.76403 16.3 3.19998 16.3Z" fill="#FEFDFF"/>
<path d="M13.7 14.3C14.5836 14.3 15.3 13.5837 15.3 12.7C15.3 11.8163 14.5836 11.1 13.7 11.1C12.8163 11.1 12.1 11.8163 12.1 12.7C12.1 13.5837 12.8163 14.3 13.7 14.3Z" fill="#FEFDFF"/>
<path d="M23.7 16.4C25.4673 16.4 26.9 14.9673 26.9 13.2C26.9 11.4327 25.4673 10 23.7 10C21.9327 10 20.5 11.4327 20.5 13.2C20.5 14.9673 21.9327 16.4 23.7 16.4Z" fill="#FEFDFF"/>
<path d="M33.2 15.4C33.8075 15.4 34.3 14.9075 34.3 14.3C34.3 13.6925 33.8075 13.2 33.2 13.2C32.5925 13.2 32.1 13.6925 32.1 14.3C32.1 14.9075 32.5925 15.4 33.2 15.4Z" fill="#FEFDFF"/>
<path d="M4.29995 25.9C5.18361 25.9 5.89995 25.1837 5.89995 24.3C5.89995 23.4163 5.18361 22.7 4.29995 22.7C3.41629 22.7 2.69995 23.4163 2.69995 24.3C2.69995 25.1837 3.41629 25.9 4.29995 25.9Z" fill="#FEFDFF"/>
<path d="M12.7 25.8C14.1359 25.8 15.3 24.6359 15.3 23.2C15.3 21.7641 14.1359 20.6 12.7 20.6C11.264 20.6 10.1 21.7641 10.1 23.2C10.1 24.6359 11.264 25.8 12.7 25.8Z" fill="#FEFDFF"/>
<path d="M23.7 24.8C24.3075 24.8 24.8 24.3075 24.8 23.7C24.8 23.0925 24.3075 22.6 23.7 22.6C23.0925 22.6 22.6 23.0925 22.6 23.7C22.6 24.3075 23.0925 24.8 23.7 24.8Z" fill="#FEFDFF"/>
<path d="M33.7 25.8C35.1359 25.8 36.3 24.6359 36.3 23.2C36.3 21.7641 35.1359 20.6 33.7 20.6C32.264 20.6 31.1 21.7641 31.1 23.2C31.1 24.6359 32.264 25.8 33.7 25.8Z" fill="#FEFDFF"/>
<path d="M4.29995 35.3C5.18361 35.3 5.89995 34.5837 5.89995 33.7C5.89995 32.8163 5.18361 32.1 4.29995 32.1C3.41629 32.1 2.69995 32.8163 2.69995 33.7C2.69995 34.5837 3.41629 35.3 4.29995 35.3Z" fill="#FEFDFF"/>
<path d="M12.7 37.4C14.1359 37.4 15.3 36.2359 15.3 34.8C15.3 33.3641 14.1359 32.2 12.7 32.2C11.264 32.2 10.1 33.3641 10.1 34.8C10.1 36.2359 11.264 37.4 12.7 37.4Z" fill="#FEFDFF"/>
<path d="M23.2 35.3C24.0836 35.3 24.8 34.5837 24.8 33.7C24.8 32.8163 24.0836 32.1 23.2 32.1C22.3163 32.1 21.6 32.8163 21.6 33.7C21.6 34.5837 22.3163 35.3 23.2 35.3Z" fill="#FEFDFF"/>
<path d="M34.2 36.4C35.9673 36.4 37.4 34.9673 37.4 33.2C37.4 31.4327 35.9673 30 34.2 30C32.4327 30 31 31.4327 31 33.2C31 34.9673 32.4327 36.4 34.2 36.4Z" fill="#FEFDFF"/>
</svg>
