<svg width="62" height="62" viewBox="0 0 62 62" fill="none" xmlns="http://www.w3.org/2000/svg">
<path d="M10 32V48H51.5" stroke="white" stroke-width="2" stroke-miterlimit="10" stroke-linecap="round" stroke-linejoin="round"/>
<path d="M10 27V16" stroke="white" stroke-width="2" stroke-miterlimit="10" stroke-linecap="round" stroke-linejoin="round"/>
<path d="M15.3 18.4C15.3 18.4 15.5 18.4 15.8 18.4" stroke="white" stroke-linecap="square" stroke-linejoin="round"/>
<path d="M18.7 18.5C21.3 18.8 25.6 19.4 32.2 21.1C43.4 23.8 48.5 26.9 50.7 28.6" stroke="white" stroke-linecap="square" stroke-linejoin="round" stroke-dasharray="0.98 0.98"/>
<path d="M51.8 29.6C52 29.8 52.1 30 52.1 30" stroke="white" stroke-linecap="square" stroke-linejoin="round"/>
<path d="M51.1 40C51.1 35 47.1 36 44.2 36.3C41.9 36.6 42 29.5 38.1 29.2C35.6 29 34.1 33.5 32.7 31.8C31.3 30 30 29.4 27.9 30.5C25.8 31.6 25.6 29 22.7 26.3C18.5 22.4 15.8 28.2 15.8 28.2" stroke="white" stroke-width="2" stroke-miterlimit="10" stroke-linecap="round" stroke-linejoin="round"/>
</svg>
