<svg width="43" height="34" viewBox="0 0 43 34" fill="none" xmlns="http://www.w3.org/2000/svg">
<path d="M1 17V33H41.5" stroke="white" stroke-width="2" stroke-miterlimit="10" stroke-linecap="round" stroke-linejoin="round"/>
<path d="M1 12V1" stroke="white" stroke-width="2" stroke-miterlimit="10" stroke-linecap="round" stroke-linejoin="round"/>
<path d="M5.59998 12.8L9.99998 27.6C10.2 28.1 11.4 28.1 11.6 27.6L16.3 12.6C16.5 12.1 17.7 12.1 17.9 12.6L22.4 27.6C22.6 28.1 23.8 28.1 24 27.6L28.7 12.6C28.9 12.1 30.1 12.1 30.3 12.6L33.3 22.7L34.8 27.5C35 28 36.2 28 36.4 27.5L41.1 12.5" stroke="white" stroke-width="2" stroke-miterlimit="10" stroke-linecap="round" stroke-linejoin="round"/>
<path d="M5.59998 5.1L10.1 11.1C10.3 11.3 11.5 11.3 11.7 11.1L16.4 5.1C16.6 4.9 17.8 4.9 18 5.1L22.5 11.1C22.7 11.3 23.9 11.3 24.1 11.1L28.8 5.1C29 4.9 30.2 4.9 30.4 5.1L33.4 9.2L34.9 11.2C35.1 11.4 36.3 11.4 36.5 11.2L41.2 5.2" stroke="white" stroke-miterlimit="10" stroke-linecap="round" stroke-linejoin="round"/>
</svg>
