<svg width="62" height="62" viewBox="0 0 62 62" fill="none" xmlns="http://www.w3.org/2000/svg">
<path d="M30.9 28V46.9" stroke="white" stroke-width="2" stroke-miterlimit="10" stroke-linecap="round" stroke-linejoin="round"/>
<path d="M30.9 13V17.2" stroke="white" stroke-width="2" stroke-miterlimit="10" stroke-linecap="round" stroke-linejoin="round"/>
<path d="M16 41.9524V47" stroke="white" stroke-width="2" stroke-miterlimit="10" stroke-linecap="round" stroke-linejoin="round"/>
<path d="M45 41V47" stroke="white" stroke-width="2" stroke-miterlimit="10" stroke-linecap="round" stroke-linejoin="round"/>
<path d="M16 13V30" stroke="white" stroke-width="2" stroke-miterlimit="10" stroke-linecap="round" stroke-linejoin="round"/>
<path d="M45 13.3V29" stroke="white" stroke-width="2" stroke-miterlimit="10" stroke-linecap="round" stroke-linejoin="round"/>
<path d="M16.3 40.6C18.0673 40.6 19.5 39.1673 19.5 37.4C19.5 35.6327 18.0673 34.2 16.3 34.2C14.5327 34.2 13.1 35.6327 13.1 37.4C13.1 39.1673 14.5327 40.6 16.3 40.6Z" stroke="white" stroke-width="2" stroke-miterlimit="10"/>
<path d="M30.9 23.8C32.6673 23.8 34.0999 22.3673 34.0999 20.6C34.0999 18.8327 32.6673 17.4 30.9 17.4C29.1326 17.4 27.7 18.8327 27.7 20.6C27.7 22.3673 29.1326 23.8 30.9 23.8Z" stroke="white" stroke-width="2" stroke-miterlimit="10"/>
<path d="M44.6 36.4C46.3673 36.4 47.8 34.9673 47.8 33.2C47.8 31.4327 46.3673 30 44.6 30C42.8327 30 41.4 31.4327 41.4 33.2C41.4 34.9673 42.8327 36.4 44.6 36.4Z" stroke="white" stroke-width="2" stroke-miterlimit="10"/>
</svg>
