<svg width="29" height="45" viewBox="0 0 29 45" fill="none" xmlns="http://www.w3.org/2000/svg">
<path d="M0 29L0 33H3L3 29H0Z" fill="white"/>
<path d="M4 22V27H6V22H4Z" fill="white"/>
<path d="M13 44H16V42H13V44Z" fill="white"/>
<path d="M20 40H25V37H20V40Z" fill="white"/>
<path d="M20 28H24V25H20V28Z" fill="white"/>
<path d="M8 34H11V30H8V34Z" fill="white"/>
<path d="M13 14H17V12H13V14Z" fill="white"/>
<path d="M8 7V12H10V7H8Z" fill="white"/>
<path d="M16 6V3L12 3V6L16 6Z" fill="white"/>
<path d="M25 5V3L20 3V5L25 5Z" fill="white"/>
<path d="M14 26H17V22H14V26Z" fill="white"/>
<path d="M20 17H23V12H20V17Z" fill="white"/>
<path d="M2 6H5V3L2 3L2 6Z" fill="white"/>
<path d="M7 20H12V18H7V20Z" fill="white"/>
<path d="M1 16H4L4 12H1L1 16Z" fill="white"/>
<path d="M14 37H17V31H14V37Z" fill="white"/>
<path d="M3 42H9V39H3V42Z" fill="white"/>
<path d="M28 44L28 1" stroke="white" stroke-miterlimit="10" stroke-linecap="square" stroke-linejoin="round" stroke-dasharray="1 1"/>
</svg>
