<svg width="52" height="83" viewBox="0 0 52 83" fill="none" xmlns="http://www.w3.org/2000/svg">
<path d="M43.6465 37.9544V20.1345C43.6465 10.1762 35.6553 2 25.9224 2C17.7776 2 10.8621 7.71288 8.81311 15.4174H28.1251" stroke="#432870" stroke-width="3" stroke-miterlimit="10" stroke-linecap="round" stroke-linejoin="round"/>
<path d="M14.2941 24.7464C13.5257 24.7464 12.911 24.1175 12.911 23.3314V23.0169C12.911 22.2307 13.5257 21.6018 14.2941 21.6018C15.0625 21.6018 15.6772 22.2307 15.6772 23.0169V23.3314C15.626 24.1175 15.0113 24.7464 14.2941 24.7464Z" fill="#294A96"/>
<path d="M25.8197 24.7464C25.0514 24.7464 24.4366 24.1175 24.4366 23.3314V23.0169C24.4366 22.2307 25.0514 21.6018 25.8197 21.6018C26.5881 21.6018 27.2028 22.2307 27.2028 23.0169V23.3314C27.2028 24.1175 26.5881 24.7464 25.8197 24.7464Z" fill="#294A96"/>
<path d="M37.3969 24.7464C36.6285 24.7464 36.0138 24.1175 36.0138 23.3314V23.0169C36.0138 22.2307 36.6285 21.6018 37.3969 21.6018C38.1653 21.6018 38.78 22.2307 38.78 23.0169V23.3314C38.78 24.1175 38.1653 24.7464 37.3969 24.7464Z" fill="#294A96"/>
<path d="M14.2941 39.422C13.5257 39.422 12.911 38.793 12.911 38.0068V37.6924C12.911 36.9062 13.5257 36.2772 14.2941 36.2772C15.0625 36.2772 15.6772 36.9062 15.6772 37.6924V38.0068C15.626 38.793 15.0113 39.422 14.2941 39.422Z" fill="#294A96"/>
<path d="M25.8197 39.422C25.0514 39.422 24.4366 38.793 24.4366 38.0068V37.6924C24.4366 36.9062 25.0514 36.2772 25.8197 36.2772C26.5881 36.2772 27.2028 36.9062 27.2028 37.6924V38.0068C27.2028 38.793 26.5881 39.422 25.8197 39.422Z" fill="#294A96"/>
<path d="M37.3969 39.422C36.6285 39.422 36.0138 38.793 36.0138 38.0068V37.6924C36.0138 36.9062 36.6285 36.2772 37.3969 36.2772C38.1653 36.2772 38.78 36.9062 38.78 37.6924V38.0068C38.78 38.793 38.1653 39.422 37.3969 39.422Z" fill="#294A96"/>
<path d="M20.2876 31.8221C19.5193 31.8221 18.9045 31.1932 18.9045 30.4071V30.0402C18.9045 29.254 19.5193 28.6251 20.2876 28.6251C21.056 28.6251 21.6708 29.254 21.6708 30.0402V30.3546C21.722 31.1408 21.056 31.8221 20.2876 31.8221Z" fill="#294A96"/>
<path d="M32.2742 31.8221C31.5058 31.8221 30.8911 31.1932 30.8911 30.4071V30.0402C30.8911 29.254 31.5058 28.6251 32.2742 28.6251C33.0426 28.6251 33.6573 29.254 33.6573 30.0402V30.3546C33.6573 31.1408 33.0426 31.8221 32.2742 31.8221Z" fill="#294A96"/>
<path d="M2 45.5017C3.53677 57.8185 13.7819 67.3051 26.2297 67.3051C38.6263 67.3051 48.8714 57.8185 50.4082 45.5017" stroke="#274490" stroke-width="3" stroke-miterlimit="10" stroke-linecap="round" stroke-linejoin="round"/>
<path d="M26.2297 67.3051V80.9845" stroke="#274490" stroke-width="3" stroke-miterlimit="10" stroke-linecap="round" stroke-linejoin="round"/>
<path d="M16.0872 81.3512H36.3213" stroke="#274490" stroke-width="3" stroke-miterlimit="10" stroke-linecap="round" stroke-linejoin="round"/>
<path d="M8.19824 22.4929V41.6232C8.19824 51.5815 16.1894 59.7577 25.9223 59.7577C34.477 59.7577 41.6486 53.5207 43.2878 45.2397H22.4902" stroke="#432870" stroke-width="3" stroke-miterlimit="10" stroke-linecap="round" stroke-linejoin="round"/>
</svg>
