<svg width="55" height="83" viewBox="0 0 55 83" fill="none" xmlns="http://www.w3.org/2000/svg">
<path d="M38.0652 34.6304V14.0217" stroke="#432870" stroke-width="3" stroke-miterlimit="10" stroke-linecap="round" stroke-linejoin="round"/>
<path d="M38.0652 43.2174V5.43481" stroke="#432870" stroke-width="3" stroke-miterlimit="10" stroke-linecap="round" stroke-linejoin="round"/>
<path d="M14.0219 2V46.6522" stroke="#432870" stroke-width="3" stroke-miterlimit="10" stroke-linecap="round" stroke-linejoin="round"/>
<path d="M2 15.7391V32.913" stroke="#432870" stroke-width="3" stroke-miterlimit="10" stroke-linecap="round" stroke-linejoin="round"/>
<path d="M26.0435 10.5869V38.0652" stroke="#432870" stroke-width="3" stroke-miterlimit="10" stroke-linecap="round" stroke-linejoin="round"/>
<path d="M50.0869 32.0543V16.5978" stroke="#432870" stroke-width="3" stroke-miterlimit="10" stroke-linecap="round" stroke-linejoin="round"/>
<path d="M27.3315 80.9999C41.3217 80.9999 52.663 69.6586 52.663 55.6684C52.663 41.6782 41.3217 30.3369 27.3315 30.3369C13.3413 30.3369 2 41.6782 2 55.6684C2 69.6586 13.3413 80.9999 27.3315 80.9999Z" fill="white" stroke="#274490" stroke-width="3" stroke-miterlimit="10" stroke-linecap="round" stroke-linejoin="round"/>
<path d="M35.9184 50.6023V45.3642C36.3477 45.1066 35.8325 45.3642 35.8325 45.3642H26.9021H18.3151C18.0575 45.3642 17.7999 45.536 17.7999 45.8795V50.9458C17.7999 51.2034 17.9717 51.461 18.3151 51.461H20.8054C21.063 51.461 21.3206 51.2892 21.3206 50.9458V49.3142C21.3206 49.0566 21.4923 48.799 21.8358 48.799H25.1847C25.4423 48.799 25.6999 48.9708 25.6999 49.3142V62.1088C25.6999 62.3664 25.5282 62.624 25.1847 62.624H23.5532C23.2956 62.624 23.038 62.7958 23.038 63.1392V65.6295C23.038 65.8871 23.2097 66.1447 23.5532 66.1447H26.9021H30.251C30.5086 66.1447 30.7662 65.9729 30.7662 65.6295V63.1392C30.7662 62.8816 30.5945 62.624 30.251 62.624H29.4782C29.2206 62.624 28.963 62.4523 28.963 62.1088V49.3142C28.963 49.0566 29.1347 48.799 29.4782 48.799H32.8271C33.0847 48.799 33.3423 48.9708 33.3423 49.3142V50.6882C33.3423 50.6882 33.0847 51.2034 33.3423 51.461H35.8325C36.0901 51.2034 36.3477 50.9458 36.3477 50.6882H35.9184V50.6023Z" fill="#274490"/>
</svg>
