<svg id="video_icon" xmlns="http://www.w3.org/2000/svg" width="20" height="19" viewBox="0 0 20 19">
  <path id="Path_14746" data-name="Path 14746" d="M20,26.763v8.2a.564.564,0,0,1-.406.511c-.062,0-.188.057-.281.057a.977.977,0,0,1-.531-.17l-4.5-2.406v1.391a2.04,2.04,0,0,1-.937,1.7,3.66,3.66,0,0,1-2.281.71H3.219a3.846,3.846,0,0,1-2.281-.71A2.078,2.078,0,0,1,0,34.342V28.409a2.04,2.04,0,0,1,.937-1.7A3.661,3.661,0,0,1,3.219,26h7.844a3.846,3.846,0,0,1,2.281.71,2.094,2.094,0,0,1,.934,1.581c0,.031,0,.062,0,.094v-.094l4.5-1.865a.671.671,0,0,1,.469-.17.454.454,0,0,1,.281.057.469.469,0,0,1,.328.142A.45.45,0,0,1,20,26.763Z" transform="translate(0 -17.756)" fill="#fff"/>
  <ellipse id="Ellipse_258" data-name="Ellipse 258" cx="3.614" cy="3.548" rx="3.614" ry="3.548" transform="translate(6.929)" fill="#fff"/>
  <path id="Path_14747" data-name="Path 14747" d="M5.315,10.584a2.313,2.313,0,0,1-.154.823,1.87,1.87,0,0,1-.093.224c-.018.04-.039.079-.06.116s-.051.085-.078.128-.054.082-.084.122a2.084,2.084,0,0,1-.645.573l-.045.026a2.623,2.623,0,0,1-1.25.372,2.517,2.517,0,0,1-1.737-.715A2.231,2.231,0,0,1,.5,10.584,2.37,2.37,0,0,1,2.159,8.322l.024-.009a2.469,2.469,0,0,1,.244-.06A2.45,2.45,0,0,1,2.876,8.2a2.415,2.415,0,0,1,.25.011A2.534,2.534,0,0,1,5.011,9.466c.015.026.027.051.039.077A2.219,2.219,0,0,1,5.315,10.584Z" transform="translate(-0.346 -5.872)" fill="#fff"/>
  <path id="Path_14748" data-name="Path 14748" d="M9.132,10.584a2.235,2.235,0,0,1-.123.823,1.87,1.87,0,0,1-.093.224c-.018.04-.039.079-.06.116s-.051.085-.078.128-.054.082-.084.122a2.569,2.569,0,0,1-.675.63L8,12.6l-2-4.275L6,8.313c.081-.023.178-.043.274-.06A2.45,2.45,0,0,1,6.723,8.2a2.415,2.415,0,0,1,.25.011A2.375,2.375,0,0,1,8.858,9.466c.015.026.027.051.039.077A2.4,2.4,0,0,1,9.132,10.584Z" transform="translate(-4.193 -5.872)" fill="#fff"/>
  <ellipse id="Ellipse_259" data-name="Ellipse 259" cx="3.614" cy="3.548" rx="3.614" ry="3.548" transform="translate(6.929)" fill="#fff"/>
  <path id="Path_14749" data-name="Path 14749" d="M28.85,26.694v8.2a.56.56,0,0,1-.392.511c-.06,0-.181.057-.271.057a.918.918,0,0,1-.512-.17l-4.337-2.406v1.391a2.06,2.06,0,0,1-.9,1.7,3.441,3.441,0,0,1-2.2.71H18.82L13.712,25.928,13.7,25.9h6.536a3.614,3.614,0,0,1,2.2.71,2.1,2.1,0,0,1,.9,1.609c0,.031,0,.062,0,.094l0,.755h0l4.337-2.742a.633.633,0,0,1,.452-.17.425.425,0,0,1,.271.057.516.516,0,0,1,.316.17A.457.457,0,0,1,28.85,26.694Z" transform="translate(-8.85 -17.687)" fill="#fff"/>
</svg>
