<svg xmlns="http://www.w3.org/2000/svg" width="76" height="76" viewBox="0 0 76 76"><defs><style>.a{fill:#fff;}.b{fill:#fda050;}</style></defs><g transform="translate(-688.655 -2996)"><circle class="a" cx="38" cy="38" r="38" transform="translate(688.655 2996)"/><g transform="translate(709.864 3012.791)"><path class="b" d="M81.217,8.015A57.718,57.718,0,0,0,73.4.283a1.327,1.327,0,0,0-2.142,1.044V7.156a2.93,2.93,0,0,1-5.476,1.453A1.327,1.327,0,0,0,63.6,8.426c-4.012,4.9-7.59,11.068-7.59,17.424a16.569,16.569,0,0,0,33.139,0c0-6.52-3.764-12.852-7.931-17.834ZM65.288,21.21a2.651,2.651,0,1,1,2.651,2.651A2.654,2.654,0,0,1,65.288,21.21Zm3.7,11.418A1.325,1.325,0,1,1,66.893,31l9.279-11.93A1.325,1.325,0,0,1,78.264,20.7Zm8.233.512a2.651,2.651,0,1,1,2.651-2.651A2.654,2.654,0,0,1,77.218,33.14Z" transform="translate(-56.009 0)"/></g></g></svg>