<svg xmlns="http://www.w3.org/2000/svg" width="69" height="40" viewBox="0 0 69 40"><defs><style>.a{fill:#000;fill-rule:evenodd;}</style></defs><path class="a" d="M26.257,0A19.636,19.636,0,0,1,41.423,7.171l-.021.02L38.753,7.01l4.325,7.143,0,5.231h2.242V14.7c-.034-.126-.07-.253-.106-.378l0-.015,0-.013,0-.015v0l0-.008,0-.015,0-.013,0-.01v0l0-.013,0-.015v0l0-.012,0-.014,0-.013h0l-.008-.027,0-.013h0l-.007-.024v0l0-.014,0-.015,0-.013h0l0-.013-.008-.027h0V14l-.006-.019v0l0-.013-.008-.027,0-.015-.02-.063v-.005l0-.014,0-.013,0-.014h0l0-.014h0l-.009-.027v-.005l0-.009,0-.014-.007-.023h0v0l-.022-.021,0-.013v0l-.006-.019L45,13.635l0-.007,0-.007,0-.014-.018-.055,0-.015h0l0-.012-.009-.027,0-.008-.006-.01-.013-.04c-.194-.567-.411-1.122-.655-1.665l-.09.157L46.922,7.19h2.757l-4.357,6.962V14.7a20.117,20.117,0,0,1-8.364,22.114A19.582,19.582,0,0,1,13.6,35.362l4.228-11.337H15.264l-2.933,8.521L9.3,24.027H6.9a20.194,20.194,0,0,1,4.049-16.66A19.691,19.691,0,0,1,26.257,0ZM10.317,35.539,6.2,24.054H4L0,35.539H2.2l.847-2.608H7.16l.9,2.608ZM6.494,30.995,5.077,26.733,3.689,30.995ZM48.375,13.416a6.241,6.241,0,0,0,1.56,4.5,5.545,5.545,0,0,0,4.2,1.631,5.476,5.476,0,0,0,4.169-1.64A5.4,5.4,0,0,0,59.6,15.56a9.361,9.361,0,0,0,.178,1.32,3.282,3.282,0,0,0,.67,1.329,3.669,3.669,0,0,0,1.385,1.029,6.436,6.436,0,0,0,2.574.4,5.987,5.987,0,0,0,2.282-.363,3.671,3.671,0,0,0,1.395-.975,3.417,3.417,0,0,0,.714-1.506,16.41,16.41,0,0,0,.192-3.05V7.44H66.6v6.63a13.065,13.065,0,0,1-.109,2.041,1.646,1.646,0,0,1-.618,1.031,2.389,2.389,0,0,1-1.536.421,2.522,2.522,0,0,1-1.582-.446,1.94,1.94,0,0,1-.732-1.18,13.662,13.662,0,0,1-.087-2.007V7.44H59.548v3.523A5.333,5.333,0,0,0,58.3,8.79a5.517,5.517,0,0,0-4.191-1.647,6.37,6.37,0,0,0-2.554.477,4.614,4.614,0,0,0-1.533,1.074,5.76,5.76,0,0,0-1.105,1.648,7.689,7.689,0,0,0-.541,3.076Zm2.465-.08a4.558,4.558,0,0,1,.905-3.094,3.283,3.283,0,0,1,4.759-.015A4.567,4.567,0,0,1,57.4,13.3a4.614,4.614,0,0,1-.917,3.128,3.173,3.173,0,0,1-4.71-.005,4.543,4.543,0,0,1-.93-3.089Zm-5.9.107.28.884,0-.015,0-.013,0-.015v0l0-.008,0-.015,0-.013,0-.01v0l0-.013,0-.015v0l0-.012,0-.014,0-.013h0l-.008-.027,0-.013h0l-.007-.024v0l0-.014,0-.015,0-.013h0l0-.013-.008-.027h0V14l-.006-.019v0l0-.013-.008-.027,0-.015-.02-.063v-.005l0-.014,0-.013,0-.014h0l0-.014h0l-.009-.027v-.005l0-.009,0-.014-.007-.023h0v0l-.021-.021,0-.013v0l-.006-.019L45,13.635l0-.007,0-.007,0-.014-.018-.055,0-.015h0l0-.012-.009-.027,0-.008-.006-.01-.013-.04ZM17.779,32.082a4.8,4.8,0,0,0,1.186,2.989A3.8,3.8,0,0,0,21.821,36.1a4.742,4.742,0,0,0,2.134-.427,2.993,2.993,0,0,0,1.323-1.307,3.918,3.918,0,0,0,.469-1.882,4.063,4.063,0,0,0-.388-1.865,3.058,3.058,0,0,0-1.086-1.191,8.666,8.666,0,0,0-2.14-.84,4.732,4.732,0,0,1-1.819-.783.97.97,0,0,1-.294-.712.908.908,0,0,1,.315-.725,1.979,1.979,0,0,1,1.35-.424,1.774,1.774,0,0,1,1.252.395c.279.265.288.591.371,1.193h2.155a3.752,3.752,0,0,0-.979-2.582,3.706,3.706,0,0,0-2.782-.963,4.235,4.235,0,0,0-1.929.407,2.8,2.8,0,0,0-1.223,1.186,3.446,3.446,0,0,0-.424,1.672,3.317,3.317,0,0,0,.9,2.354,5,5,0,0,0,2.234,1.165c.822.246,1.352.415,1.583.511a1.529,1.529,0,0,1,.709.505,1.171,1.171,0,0,1,.21.707,1.541,1.541,0,0,1-.488,1.129,1.945,1.945,0,0,1-1.439.486,1.909,1.909,0,0,1-1.432-.546,2.235,2.235,0,0,1-.551-1.472Zm12.995-5.753h4.372V21.537h2.921V17.519H35.145V2.4H31.356L21.133,17.533v4h9.64Zm0-8.811V9.371l-5.412,8.147Z" transform="translate(0 0.001)"/></svg>