<svg width="133" height="77" viewBox="0 0 133 77" fill="none" xmlns="http://www.w3.org/2000/svg">
<path fill-rule="evenodd" clip-rule="evenodd" d="M50.6131 0C56.2044 0.00176911 61.7259 1.24062 66.7806 3.6275C71.8353 6.01437 76.2978 9.48999 79.8471 13.8045L79.8067 13.843L74.7004 13.4946L83.0373 27.2452V37.3151H87.359V28.2982C87.2935 28.0556 87.2241 27.8111 87.1547 27.5705V27.5416V27.5166V27.4877V27.4723V27.4435V27.4184V27.3992V27.3742V27.3453V27.3222V27.2952V27.2702L87.1393 27.2182V27.1932L87.1258 27.147V27.1201V27.0912V27.0662V27.0411L87.1104 26.9892V26.9507L87.0988 26.9141V26.8891L87.0834 26.8371V26.8082L87.0448 26.6869V26.6773V26.6503V26.6253V26.5984V26.5714L87.0275 26.5194V26.5098V26.4925V26.4655L87.014 26.4213L86.9716 26.3808V26.3558L86.96 26.3192L86.7422 26.248V26.2345V26.2211V26.1941L86.7075 26.0882V26.0594V26.0363L86.6901 25.9843V25.9689L86.6786 25.9496L86.6535 25.8726C86.2795 24.7811 85.8613 23.7127 85.3909 22.6674L85.2174 22.9697L90.447 13.8411H95.7614L87.3629 27.2433V28.2982C89.5192 36.1852 89.1207 44.5514 86.2246 52.1984C83.3285 59.8454 78.0833 66.3809 71.2404 70.8687C64.4345 75.3061 56.3761 77.431 48.2638 76.9274C40.1515 76.4237 32.4187 73.3185 26.2154 68.0735L34.3653 46.2492H29.4229L23.7693 62.6526L17.9267 46.2531H13.3005C12.1658 40.6629 12.2768 34.8918 13.6256 29.3492C14.9744 23.8066 17.5281 18.6284 21.1053 14.1818C24.6519 9.76814 29.1429 6.20349 34.249 3.74945C39.3551 1.29541 44.9465 0.0142563 50.6131 0V0ZM19.8871 68.4142L11.9511 46.3051H7.71042L0 68.4142H4.24073L5.87341 63.3937H13.8016L15.5365 68.4142H19.8871ZM12.5179 59.6668L9.78645 51.4623L7.11093 59.6668H12.5179ZM93.2478 25.8264C93.0641 28.9974 94.1453 32.1121 96.2549 34.4891C97.3092 35.5492 98.5746 36.3764 99.9692 36.9172C101.364 37.4581 102.856 37.7005 104.351 37.6289C105.838 37.6982 107.322 37.4527 108.707 36.9086C110.092 36.3645 111.346 35.5341 112.387 34.4718C113.587 33.1995 114.446 31.6455 114.885 29.9537C114.939 30.8078 115.054 31.657 115.228 32.4948C115.457 33.4351 115.899 34.3104 116.52 35.0532C117.239 35.916 118.155 36.5951 119.19 37.034C120.774 37.6258 122.462 37.8878 124.151 37.8041C125.649 37.8586 127.143 37.6213 128.55 37.1053C129.581 36.6986 130.502 36.0557 131.239 35.2284C131.93 34.3902 132.403 33.3942 132.615 32.3292C132.921 30.3879 133.045 28.4222 132.985 26.4578V14.3223H128.378V27.0854C128.411 28.3986 128.341 29.7122 128.168 31.0144C128.036 31.8023 127.61 32.5112 126.977 32.9991C126.112 33.5996 125.067 33.8856 124.016 33.8096C122.932 33.8715 121.859 33.5693 120.967 32.951C120.232 32.3936 119.729 31.5846 119.556 30.6795C119.405 29.3975 119.349 28.1061 119.388 26.8159V14.3223H114.785V21.1043C114.327 19.5389 113.502 18.1049 112.379 16.9212C111.332 15.8551 110.071 15.0216 108.679 14.4753C107.287 13.929 105.795 13.682 104.301 13.7506C102.614 13.7157 100.938 14.0282 99.3776 14.6689C98.2615 15.1492 97.2558 15.8528 96.4226 16.7364C95.5342 17.6628 94.8135 18.7363 94.2926 19.9088C93.543 21.7906 93.1881 23.806 93.2498 25.8303L93.2478 25.8264ZM97.9994 25.6724C97.835 23.5411 98.4553 21.4232 99.7439 19.7163C100.333 19.0934 101.043 18.5966 101.83 18.2562C102.618 17.9158 103.466 17.7389 104.324 17.7362C105.182 17.7335 106.032 17.905 106.822 18.2405C107.611 18.5759 108.324 19.0682 108.917 19.6875C110.189 21.3867 110.802 23.4877 110.644 25.6031C110.808 27.7582 110.18 29.8991 108.877 31.6247C108.303 32.2583 107.602 32.7646 106.82 33.1108C106.037 33.457 105.191 33.6354 104.335 33.6345C103.48 33.6336 102.634 33.4534 101.852 33.1055C101.07 32.7576 100.371 32.2499 99.7978 31.615C98.492 29.9186 97.8542 27.803 98.0052 25.6686L97.9994 25.6724ZM86.6265 25.8784L87.1663 27.5801V27.5513V27.5262V27.4974V27.482V27.4531V27.4281V27.4088V27.3838V27.3549V27.3318V27.3049V27.2798L87.1508 27.2279V27.2028L87.1373 27.1566V27.1297V27.1008V27.0758V27.0508L87.1219 26.9988V26.9507L87.1104 26.9141V26.8891L87.0949 26.8371V26.8082L87.0564 26.6869V26.6773V26.6503V26.6253V26.5984V26.5714L87.039 26.5194V26.5098V26.4925V26.4655L87.0255 26.4213L86.9851 26.3808V26.3558L86.9735 26.3192L86.7422 26.248V26.2345V26.2211V26.1941L86.7075 26.0882V26.0594V26.0363L86.6901 25.9843V25.9689L86.6786 25.9496L86.6535 25.8726L86.6265 25.8784ZM34.2709 61.7593C34.3478 63.8828 35.1552 65.9149 36.557 67.5133C37.2891 68.2036 38.1557 68.7358 39.103 69.0766C40.0502 69.4174 41.0576 69.5596 42.0622 69.4942C43.4787 69.5424 44.8869 69.261 46.1758 68.6722C47.2718 68.1252 48.165 67.244 48.726 66.1562C49.3266 65.0433 49.6375 63.7974 49.63 62.5332C49.6691 61.2942 49.4128 60.0636 48.8821 58.943C48.4022 58.0056 47.6793 57.2138 46.7887 56.6503C45.4917 55.9307 44.1045 55.3869 42.6637 55.0332C41.4015 54.7834 40.2066 54.2697 39.1573 53.5259C38.9742 53.3482 38.8294 53.1349 38.7319 52.8992C38.6344 52.6635 38.5864 52.4103 38.5906 52.1553C38.58 51.892 38.629 51.6297 38.7342 51.388C38.8393 51.1463 38.9978 50.9315 39.1978 50.7596C39.9349 50.1766 40.8616 49.8859 41.8001 49.9434C42.6723 49.8793 43.536 50.1515 44.2135 50.7038C44.7513 51.2139 44.7686 51.8415 44.9286 53.0004H49.0826C49.1091 51.1642 48.4343 49.3869 47.1955 48.0299C46.4758 47.3715 45.6287 46.8673 44.7064 46.5484C43.7841 46.2296 42.8061 46.1029 41.8329 46.1761C40.549 46.1415 39.275 46.4099 38.1145 46.9596C37.1103 47.4576 36.2863 48.2556 35.7571 49.2427C35.2158 50.229 34.9346 51.3366 34.9397 52.4614C34.8985 54.141 35.5219 55.7692 36.6746 56.9929C37.8948 58.0953 39.3773 58.8674 40.9809 59.2356C42.5653 59.7092 43.587 60.0345 44.0323 60.2193C44.5725 60.4043 45.0473 60.742 45.3989 61.1915C45.6771 61.5897 45.8191 62.0671 45.8037 62.5525C45.8048 62.9598 45.7218 63.363 45.5599 63.7369C45.3981 64.1109 45.1609 64.4475 44.8631 64.7258C44.4872 65.0596 44.0479 65.3145 43.5714 65.4752C43.0948 65.6359 42.5908 65.6993 42.0892 65.6614C41.5814 65.6862 41.0739 65.6056 40.5988 65.4247C40.1237 65.2438 39.6913 64.9665 39.3289 64.6103C38.643 63.8254 38.2656 62.8185 38.2668 61.7767L34.2709 61.7593ZM59.3201 50.6846H67.7476V41.4597H73.3781V33.7249H67.7456V4.62011H60.442L40.7361 33.7518V41.452H59.3182L59.3201 50.6846ZM59.3201 33.723V18.0396L48.8879 33.723H59.3201Z" fill="white"/>
</svg>
