<svg xmlns="http://www.w3.org/2000/svg" width="206" height="184" viewBox="0 0 206 184">
  <g id="Component_51_45" data-name="Component 51 – 45" opacity="0.7">
    <g id="Group_3715" data-name="Group 3715" opacity="0.3">
      <circle id="Ellipse_579" data-name="Ellipse 579" cx="4" cy="4" r="4" fill="#92dcff"/>
      <circle id="Ellipse_580" data-name="Ellipse 580" cx="4" cy="4" r="4" transform="translate(22)" fill="#92dcff"/>
      <circle id="Ellipse_581" data-name="Ellipse 581" cx="4" cy="4" r="4" transform="translate(44)" fill="#92dcff"/>
      <circle id="Ellipse_582" data-name="Ellipse 582" cx="4" cy="4" r="4" transform="translate(66)" fill="#92dcff"/>
      <circle id="Ellipse_583" data-name="Ellipse 583" cx="4" cy="4" r="4" transform="translate(88)" fill="#92dcff"/>
      <circle id="Ellipse_584" data-name="Ellipse 584" cx="4" cy="4" r="4" transform="translate(110)" fill="#92dcff"/>
      <circle id="Ellipse_585" data-name="Ellipse 585" cx="4" cy="4" r="4" transform="translate(132)" fill="#92dcff"/>
      <circle id="Ellipse_586" data-name="Ellipse 586" cx="4" cy="4" r="4" transform="translate(154)" fill="#92dcff"/>
      <circle id="Ellipse_587" data-name="Ellipse 587" cx="4" cy="4" r="4" transform="translate(176)" fill="#92dcff"/>
      <circle id="Ellipse_588" data-name="Ellipse 588" cx="4" cy="4" r="4" transform="translate(198)" fill="#92dcff"/>
      <circle id="Ellipse_589" data-name="Ellipse 589" cx="4" cy="4" r="4" transform="translate(0 22)" fill="#92dcff"/>
      <circle id="Ellipse_590" data-name="Ellipse 590" cx="4" cy="4" r="4" transform="translate(22 22)" fill="#92dcff"/>
      <circle id="Ellipse_591" data-name="Ellipse 591" cx="4" cy="4" r="4" transform="translate(44 22)" fill="#92dcff"/>
      <circle id="Ellipse_592" data-name="Ellipse 592" cx="4" cy="4" r="4" transform="translate(66 22)" fill="#92dcff"/>
      <circle id="Ellipse_593" data-name="Ellipse 593" cx="4" cy="4" r="4" transform="translate(88 22)" fill="#92dcff"/>
      <circle id="Ellipse_594" data-name="Ellipse 594" cx="4" cy="4" r="4" transform="translate(110 22)" fill="#92dcff"/>
      <circle id="Ellipse_595" data-name="Ellipse 595" cx="4" cy="4" r="4" transform="translate(132 22)" fill="#92dcff"/>
      <circle id="Ellipse_596" data-name="Ellipse 596" cx="4" cy="4" r="4" transform="translate(154 22)" fill="#92dcff"/>
      <circle id="Ellipse_597" data-name="Ellipse 597" cx="4" cy="4" r="4" transform="translate(176 22)" fill="#92dcff"/>
      <circle id="Ellipse_598" data-name="Ellipse 598" cx="4" cy="4" r="4" transform="translate(198 22)" fill="#92dcff"/>
      <circle id="Ellipse_599" data-name="Ellipse 599" cx="4" cy="4" r="4" transform="translate(0 44)" fill="#92dcff"/>
      <circle id="Ellipse_600" data-name="Ellipse 600" cx="4" cy="4" r="4" transform="translate(22 44)" fill="#92dcff"/>
      <circle id="Ellipse_601" data-name="Ellipse 601" cx="4" cy="4" r="4" transform="translate(44 44)" fill="#92dcff"/>
      <circle id="Ellipse_602" data-name="Ellipse 602" cx="4" cy="4" r="4" transform="translate(66 44)" fill="#92dcff"/>
      <circle id="Ellipse_603" data-name="Ellipse 603" cx="4" cy="4" r="4" transform="translate(88 44)" fill="#92dcff"/>
      <circle id="Ellipse_604" data-name="Ellipse 604" cx="4" cy="4" r="4" transform="translate(110 44)" fill="#92dcff"/>
      <circle id="Ellipse_605" data-name="Ellipse 605" cx="4" cy="4" r="4" transform="translate(132 44)" fill="#92dcff"/>
      <circle id="Ellipse_606" data-name="Ellipse 606" cx="4" cy="4" r="4" transform="translate(154 44)" fill="#92dcff"/>
      <circle id="Ellipse_607" data-name="Ellipse 607" cx="4" cy="4" r="4" transform="translate(176 44)" fill="#92dcff"/>
      <circle id="Ellipse_608" data-name="Ellipse 608" cx="4" cy="4" r="4" transform="translate(198 44)" fill="#92dcff"/>
      <circle id="Ellipse_609" data-name="Ellipse 609" cx="4" cy="4" r="4" transform="translate(0 66)" fill="#92dcff"/>
      <circle id="Ellipse_610" data-name="Ellipse 610" cx="4" cy="4" r="4" transform="translate(22 66)" fill="#92dcff"/>
      <circle id="Ellipse_611" data-name="Ellipse 611" cx="4" cy="4" r="4" transform="translate(44 66)" fill="#92dcff"/>
      <circle id="Ellipse_612" data-name="Ellipse 612" cx="4" cy="4" r="4" transform="translate(66 66)" fill="#92dcff"/>
      <circle id="Ellipse_613" data-name="Ellipse 613" cx="4" cy="4" r="4" transform="translate(88 66)" fill="#92dcff"/>
      <circle id="Ellipse_614" data-name="Ellipse 614" cx="4" cy="4" r="4" transform="translate(110 66)" fill="#92dcff"/>
      <circle id="Ellipse_615" data-name="Ellipse 615" cx="4" cy="4" r="4" transform="translate(132 66)" fill="#92dcff"/>
      <circle id="Ellipse_616" data-name="Ellipse 616" cx="4" cy="4" r="4" transform="translate(154 66)" fill="#92dcff"/>
      <circle id="Ellipse_617" data-name="Ellipse 617" cx="4" cy="4" r="4" transform="translate(176 66)" fill="#92dcff"/>
      <circle id="Ellipse_618" data-name="Ellipse 618" cx="4" cy="4" r="4" transform="translate(198 66)" fill="#92dcff"/>
      <circle id="Ellipse_619" data-name="Ellipse 619" cx="4" cy="4" r="4" transform="translate(0 88)" fill="#92dcff"/>
      <circle id="Ellipse_620" data-name="Ellipse 620" cx="4" cy="4" r="4" transform="translate(22 88)" fill="#92dcff"/>
      <circle id="Ellipse_621" data-name="Ellipse 621" cx="4" cy="4" r="4" transform="translate(44 88)" fill="#92dcff"/>
      <circle id="Ellipse_622" data-name="Ellipse 622" cx="4" cy="4" r="4" transform="translate(66 88)" fill="#92dcff"/>
      <circle id="Ellipse_623" data-name="Ellipse 623" cx="4" cy="4" r="4" transform="translate(88 88)" fill="#92dcff"/>
      <circle id="Ellipse_624" data-name="Ellipse 624" cx="4" cy="4" r="4" transform="translate(110 88)" fill="#92dcff"/>
      <circle id="Ellipse_625" data-name="Ellipse 625" cx="4" cy="4" r="4" transform="translate(132 88)" fill="#92dcff"/>
      <circle id="Ellipse_626" data-name="Ellipse 626" cx="4" cy="4" r="4" transform="translate(154 88)" fill="#92dcff"/>
      <circle id="Ellipse_627" data-name="Ellipse 627" cx="4" cy="4" r="4" transform="translate(176 88)" fill="#92dcff"/>
      <circle id="Ellipse_628" data-name="Ellipse 628" cx="4" cy="4" r="4" transform="translate(198 88)" fill="#92dcff"/>
      <circle id="Ellipse_629" data-name="Ellipse 629" cx="4" cy="4" r="4" transform="translate(0 110)" fill="#92dcff"/>
      <circle id="Ellipse_630" data-name="Ellipse 630" cx="4" cy="4" r="4" transform="translate(22 110)" fill="#92dcff"/>
      <circle id="Ellipse_631" data-name="Ellipse 631" cx="4" cy="4" r="4" transform="translate(44 110)" fill="#92dcff"/>
      <circle id="Ellipse_632" data-name="Ellipse 632" cx="4" cy="4" r="4" transform="translate(66 110)" fill="#92dcff"/>
      <circle id="Ellipse_633" data-name="Ellipse 633" cx="4" cy="4" r="4" transform="translate(88 110)" fill="#92dcff"/>
      <circle id="Ellipse_634" data-name="Ellipse 634" cx="4" cy="4" r="4" transform="translate(110 110)" fill="#92dcff"/>
      <circle id="Ellipse_635" data-name="Ellipse 635" cx="4" cy="4" r="4" transform="translate(132 110)" fill="#92dcff"/>
      <circle id="Ellipse_636" data-name="Ellipse 636" cx="4" cy="4" r="4" transform="translate(154 110)" fill="#92dcff"/>
      <circle id="Ellipse_637" data-name="Ellipse 637" cx="4" cy="4" r="4" transform="translate(176 110)" fill="#92dcff"/>
      <circle id="Ellipse_638" data-name="Ellipse 638" cx="4" cy="4" r="4" transform="translate(198 110)" fill="#92dcff"/>
      <circle id="Ellipse_639" data-name="Ellipse 639" cx="4" cy="4" r="4" transform="translate(0 132)" fill="#92dcff"/>
      <circle id="Ellipse_640" data-name="Ellipse 640" cx="4" cy="4" r="4" transform="translate(22 132)" fill="#92dcff"/>
      <circle id="Ellipse_641" data-name="Ellipse 641" cx="4" cy="4" r="4" transform="translate(44 132)" fill="#92dcff"/>
      <circle id="Ellipse_642" data-name="Ellipse 642" cx="4" cy="4" r="4" transform="translate(66 132)" fill="#92dcff"/>
      <circle id="Ellipse_643" data-name="Ellipse 643" cx="4" cy="4" r="4" transform="translate(88 132)" fill="#92dcff"/>
      <circle id="Ellipse_644" data-name="Ellipse 644" cx="4" cy="4" r="4" transform="translate(110 132)" fill="#92dcff"/>
      <circle id="Ellipse_645" data-name="Ellipse 645" cx="4" cy="4" r="4" transform="translate(132 132)" fill="#92dcff"/>
      <circle id="Ellipse_646" data-name="Ellipse 646" cx="4" cy="4" r="4" transform="translate(154 132)" fill="#92dcff"/>
      <circle id="Ellipse_647" data-name="Ellipse 647" cx="4" cy="4" r="4" transform="translate(176 132)" fill="#92dcff"/>
      <circle id="Ellipse_648" data-name="Ellipse 648" cx="4" cy="4" r="4" transform="translate(198 132)" fill="#92dcff"/>
      <circle id="Ellipse_649" data-name="Ellipse 649" cx="4" cy="4" r="4" transform="translate(0 154)" fill="#92dcff"/>
      <circle id="Ellipse_650" data-name="Ellipse 650" cx="4" cy="4" r="4" transform="translate(22 154)" fill="#92dcff"/>
      <circle id="Ellipse_651" data-name="Ellipse 651" cx="4" cy="4" r="4" transform="translate(44 154)" fill="#92dcff"/>
      <circle id="Ellipse_652" data-name="Ellipse 652" cx="4" cy="4" r="4" transform="translate(66 154)" fill="#92dcff"/>
      <circle id="Ellipse_653" data-name="Ellipse 653" cx="4" cy="4" r="4" transform="translate(88 154)" fill="#92dcff"/>
      <circle id="Ellipse_654" data-name="Ellipse 654" cx="4" cy="4" r="4" transform="translate(110 154)" fill="#92dcff"/>
      <circle id="Ellipse_655" data-name="Ellipse 655" cx="4" cy="4" r="4" transform="translate(132 154)" fill="#92dcff"/>
      <circle id="Ellipse_656" data-name="Ellipse 656" cx="4" cy="4" r="4" transform="translate(154 154)" fill="#92dcff"/>
      <circle id="Ellipse_657" data-name="Ellipse 657" cx="4" cy="4" r="4" transform="translate(176 154)" fill="#92dcff"/>
      <circle id="Ellipse_658" data-name="Ellipse 658" cx="4" cy="4" r="4" transform="translate(198 154)" fill="#92dcff"/>
      <circle id="Ellipse_659" data-name="Ellipse 659" cx="4" cy="4" r="4" transform="translate(0 176)" fill="#92dcff"/>
      <circle id="Ellipse_660" data-name="Ellipse 660" cx="4" cy="4" r="4" transform="translate(22 176)" fill="#92dcff"/>
      <circle id="Ellipse_661" data-name="Ellipse 661" cx="4" cy="4" r="4" transform="translate(44 176)" fill="#92dcff"/>
      <circle id="Ellipse_662" data-name="Ellipse 662" cx="4" cy="4" r="4" transform="translate(66 176)" fill="#92dcff"/>
      <circle id="Ellipse_663" data-name="Ellipse 663" cx="4" cy="4" r="4" transform="translate(88 176)" fill="#92dcff"/>
      <circle id="Ellipse_664" data-name="Ellipse 664" cx="4" cy="4" r="4" transform="translate(110 176)" fill="#92dcff"/>
      <circle id="Ellipse_665" data-name="Ellipse 665" cx="4" cy="4" r="4" transform="translate(132 176)" fill="#92dcff"/>
      <circle id="Ellipse_666" data-name="Ellipse 666" cx="4" cy="4" r="4" transform="translate(154 176)" fill="#92dcff"/>
      <circle id="Ellipse_667" data-name="Ellipse 667" cx="4" cy="4" r="4" transform="translate(176 176)" fill="#92dcff"/>
      <circle id="Ellipse_668" data-name="Ellipse 668" cx="4" cy="4" r="4" transform="translate(198 176)" fill="#92dcff"/>
    </g>
  </g>
</svg>
